<?xml version="1.0" encoding="utf-8"?>
<!-- Generator: Adobe Illustrator 16.0.0, SVG Export Plug-In . SVG Version: 6.00 Build 0)  -->
<!DOCTYPE svg PUBLIC "-//W3C//DTD SVG 1.1//EN" "http://www.w3.org/Graphics/SVG/1.1/DTD/svg11.dtd">
<svg version="1.1" id="Layer_1" xmlns="http://www.w3.org/2000/svg" xmlns:xlink="http://www.w3.org/1999/xlink" x="0px" y="0px"
	 width="500px" height="500px" viewBox="-195.042 -176 500 500" enable-background="new -195.042 -176 500 500"
	 xml:space="preserve">
<rect x="-195.042" y="-176" fill="#232525" width="500" height="500"/>
<g>
	
		<line fill="none" stroke="#F29400" stroke-width="3.189" stroke-linecap="round" x1="230.066" y1="-307.148" x2="230.066" y2="199.896"/>
	
		<line fill="none" stroke="#009EE0" stroke-width="3.189" stroke-linecap="round" x1="251.623" y1="-339.063" x2="251.623" y2="74.745"/>
	
		<line fill="none" stroke="#E2001A" stroke-width="3.189" stroke-linecap="round" x1="38.05" y1="-346.455" x2="38.05" y2="167.981"/>
	
		<line fill="none" stroke="#97BF0D" stroke-width="3.189" stroke-linecap="round" x1="-132.826" y1="-354.652" x2="-132.826" y2="130.039"/>
	<path fill="none" stroke="#E2001A" stroke-width="3.189" stroke-linecap="round" d="M34.162,182.327c0,0-2.511,1.763-5.155,3.933"
		/>
	<path fill="none" stroke="#97BF0D" stroke-width="3.189" stroke-linecap="round" d="M-146.232,128.634
		c-2.567-3.411-2.027-2.659-4.109-5.02"/>
	<path fill="none" stroke="#F29400" stroke-width="3.189" stroke-linecap="round" d="M238.137,242.837c0,0-4.45-2.564-6.712-5.132"
		/>
	<path fill="none" stroke="#009EE0" stroke-width="3.189" stroke-linecap="round" d="M253.875,81.062c0,0,4.451-2.564,6.714-5.132"
		/>
	<g>
		<path fill="#FFFFFF" d="M-118.928,160.435l-3.345,4.006c-1.064,1.282-2.352,1.897-3.94,2.04l-16.052,1.469
			c-1.581,0.147-2.963-0.236-4.241-1.298l-5.288-4.403l5.388-6.478l3.924,3.265c0.369,0.308,0.807,0.441,1.219,0.397l12.454-1.137
			c0.411-0.034,0.827-0.24,1.125-0.607l0.074-0.088c0.3-0.369,0.438-0.72,0.389-1.221l-0.297-3.344
			c-0.073-0.831-0.813-1.528-1.667-1.53l-18.431-0.761c-2.791-0.085-5.451-2.457-5.708-5.294l-0.626-6.854
			c-0.154-1.667,0.307-3.146,1.369-4.422l3.339-4.012c1.068-1.276,2.359-1.903,3.944-2.04l16.048-1.465
			c1.587-0.149,2.974,0.233,4.244,1.294l5.288,4.403l-5.39,6.474l-3.926-3.269c-0.357-0.301-0.796-0.428-1.213-0.386l-12.536,1.14
			c-0.417,0.036-0.813,0.248-1.12,0.615l-0.078,0.08c-0.306,0.368-0.437,0.722-0.39,1.228l0.253,2.834
			c0.084,0.836,0.816,1.524,1.665,1.527l18.524,0.766c2.781,0.085,5.438,2.45,5.703,5.287l0.668,7.355
			C-117.411,157.683-117.862,159.154-118.928,160.435z"/>
		<path fill="#FFFFFF" d="M-77.571,162.05l-1.859-5.557l-3.639,4.38c-1.068,1.268-2.356,1.896-3.947,2.043l-8.443,0.767
			c-1.588,0.142-2.974-0.24-4.239-1.291l-4.02-3.344c-1.27-1.064-1.987-2.435-2.145-4.106l-2.749-30.171l9.531-0.865l2.701,29.666
			c0.042,0.498,0.243,0.816,0.608,1.13l0.73,0.6c0.369,0.304,0.799,0.432,1.212,0.398l5.183-0.472
			c0.42-0.042,0.823-0.248,1.126-0.605l5.923-7.113c0.308-0.364,0.439-0.713,0.396-1.212l-2.172-23.822l9.53-0.866l2.991,32.838
			l2.305,6.788L-77.571,162.05z"/>
		<path fill="#FFFFFF" d="M-26.25,151.984l-3.336,4.01c-1.072,1.274-2.364,1.9-3.947,2.044l-16.044,1.466
			c-1.592,0.143-2.972-0.237-4.244-1.303l-5.295-4.408l5.397-6.47l3.922,3.26c0.365,0.304,0.796,0.438,1.21,0.403l12.453-1.137
			c0.415-0.04,0.82-0.253,1.125-0.609l0.077-0.096c0.305-0.365,0.435-0.711,0.387-1.209l-0.3-3.343
			c-0.077-0.839-0.808-1.531-1.657-1.531l-18.442-0.769c-2.786-0.08-5.449-2.451-5.707-5.29l-0.618-6.855
			c-0.156-1.674,0.294-3.148,1.359-4.422l3.344-4.012c1.065-1.28,2.353-1.899,3.942-2.048l16.046-1.46
			c1.59-0.146,2.972,0.236,4.25,1.305l5.288,4.393l-5.395,6.48l-3.923-3.27c-0.357-0.304-0.789-0.431-1.209-0.395l-12.539,1.146
			c-0.422,0.037-0.821,0.242-1.125,0.604l-0.071,0.094c-0.304,0.368-0.441,0.718-0.396,1.215l0.257,2.84
			c0.081,0.838,0.811,1.532,1.656,1.535l18.523,0.754c2.787,0.082,5.446,2.456,5.708,5.296l0.668,7.356
			C-24.729,149.229-25.189,150.703-26.25,151.984z"/>
		<path fill="#FFFFFF" d="M22.303,147.556l-3.343,4.011c-1.057,1.276-2.349,1.904-3.935,2.052l-10.53,0.956
			c-1.586,0.142-2.968-0.233-4.25-1.299l-3.464-2.885l3.286,35.703l-9.525,0.867l-5.868-64.036l-1.945-6.475l8.686-0.793
			l1.856,5.567l3.652-4.379c1.065-1.284,2.354-1.901,3.94-2.053l10.529-0.955c1.593-0.146,2.974,0.233,4.249,1.3l4.012,3.338
			c1.277,1.062,1.995,2.427,2.145,4.1l1.872,20.561C23.825,144.808,23.367,146.282,22.303,147.556z M12.322,123.949
			c-0.047-0.502-0.249-0.823-0.617-1.132l-0.085-0.073c-0.363-0.301-0.799-0.432-1.219-0.392l-8.443,0.771
			c-0.41,0.035-0.813,0.239-1.125,0.608l-5.389,6.468c-0.298,0.373-0.441,0.711-0.391,1.218l0.715,7.859
			c0.04,0.497,0.246,0.812,0.61,1.125l6.47,5.387c0.367,0.305,0.799,0.435,1.216,0.399l8.445-0.769
			c0.411-0.042,0.817-0.244,1.122-0.608l0.077-0.096c0.298-0.367,0.438-0.715,0.387-1.212L12.322,123.949z"/>
		<path fill="#FFFFFF" d="M41.865,133.811l0.648,7.106c0.05,0.499,0.251,0.812,0.604,1.118l0.092,0.077
			c0.369,0.303,0.799,0.433,1.214,0.393l14.296-1.301c0.421-0.038,0.821-0.24,1.126-0.604l3.789-4.562l6.478,5.394l-4.931,5.92
			c-1.062,1.282-2.362,1.906-3.947,2.056l-17.801,1.617c-1.584,0.142-2.963-0.232-4.247-1.298l-4.012-3.346
			c-1.273-1.058-1.988-2.428-2.137-4.099l-1.878-20.557c-0.156-1.677,0.301-3.15,1.366-4.429l3.341-4.01
			c1.064-1.27,2.355-1.901,3.942-2.039l17.802-1.625c1.591-0.144,2.967,0.237,4.247,1.298l4.012,3.342
			c1.276,1.061,1.995,2.428,2.148,4.104l1.183,12.949L41.865,133.811z M58.533,119.733c-0.047-0.498-0.24-0.82-0.611-1.125
			l-0.09-0.077c-0.36-0.306-0.803-0.428-1.213-0.396l-14.293,1.304c-0.417,0.044-0.821,0.241-1.132,0.609l-0.066,0.096
			c-0.304,0.363-0.443,0.708-0.399,1.213l0.427,4.675l17.808-1.62L58.533,119.733z"/>
		<path fill="#FFFFFF" d="M107.701,145.161l-2.706-29.665c-0.041-0.498-0.236-0.821-0.611-1.129l-0.722-0.601
			c-0.369-0.305-0.795-0.432-1.22-0.396l-5.179,0.47c-0.415,0.042-0.819,0.245-1.128,0.604l-5.923,7.117
			c-0.299,0.368-0.438,0.714-0.393,1.216l2.173,23.815l-9.531,0.871l-2.996-32.842l-2.302-6.78l9.027-0.821l1.863,5.558l3.633-4.38
			c1.068-1.28,2.358-1.896,3.946-2.039l8.443-0.772c1.588-0.145,2.967,0.228,4.24,1.292l4.019,3.342
			c1.271,1.068,1.987,2.436,2.144,4.109l2.744,30.163L107.701,145.161z"/>
		<path fill="#FFFFFF" d="M158.426,140.543l-1.847-5.567l-3.654,4.376c-1.064,1.279-2.358,1.904-3.942,2.053l-10.53,0.96
			c-1.584,0.141-2.968-0.238-4.244-1.303l-4.012-3.339c-1.28-1.063-1.995-2.435-2.147-4.104l-1.873-20.557
			c-0.149-1.677,0.3-3.146,1.371-4.429l3.335-4.002c1.066-1.277,2.355-1.904,3.941-2.051l10.533-0.961
			c1.588-0.145,2.972,0.236,4.248,1.304l3.462,2.885l-3.154-31.127l9.527-0.87l5.74,59.454l1.941,6.484L158.426,140.543z
			 M154.082,116.922c-0.039-0.497-0.243-0.812-0.606-1.125l-6.472-5.397c-0.368-0.3-0.8-0.425-1.217-0.392l-8.438,0.775
			c-0.421,0.031-0.818,0.24-1.128,0.604l-0.076,0.094c-0.304,0.363-0.436,0.718-0.396,1.215l1.783,19.553
			c0.046,0.504,0.246,0.824,0.614,1.125l0.085,0.075c0.369,0.308,0.8,0.438,1.215,0.396l8.442-0.767
			c0.415-0.035,0.826-0.241,1.131-0.608l5.381-6.472c0.308-0.372,0.447-0.715,0.4-1.221L154.082,116.922z"/>
		<path fill="#FFFFFF" d="M185.438,120.717l0.645,7.109c0.049,0.494,0.248,0.815,0.606,1.121l0.097,0.075
			c0.368,0.299,0.796,0.434,1.219,0.391l14.287-1.303c0.421-0.034,0.817-0.24,1.126-0.603l3.801-4.563l6.47,5.397l-4.932,5.925
			c-1.068,1.285-2.354,1.9-3.951,2.044l-17.799,1.62c-1.58,0.149-2.963-0.233-4.241-1.294l-4.017-3.343
			c-1.269-1.064-1.984-2.43-2.145-4.102l-1.867-20.559c-0.158-1.677,0.301-3.141,1.366-4.425l3.333-4.008
			c1.068-1.28,2.358-1.9,3.946-2.049l17.797-1.622c1.592-0.142,2.979,0.232,4.248,1.298l4.011,3.343
			c1.284,1.062,1.995,2.433,2.148,4.104l1.188,12.953L185.438,120.717z M202.108,106.644c-0.05-0.499-0.244-0.824-0.611-1.126
			l-0.09-0.075c-0.364-0.305-0.802-0.428-1.221-0.395l-14.297,1.302c-0.411,0.038-0.811,0.24-1.122,0.606l-0.073,0.098
			c-0.303,0.36-0.432,0.709-0.392,1.211l0.428,4.68l17.804-1.62L202.108,106.644z"/>
		<path fill="#FFFFFF" d="M253.198,131.901l-1.855-5.564l-3.645,4.384c-1.065,1.272-2.354,1.896-3.938,2.039l-10.539,0.964
			c-1.584,0.142-2.963-0.237-4.238-1.299l-4.02-3.342c-1.276-1.065-1.991-2.434-2.142-4.106l-1.874-20.556
			c-0.153-1.666,0.3-3.146,1.365-4.423l3.346-4.006c1.062-1.281,2.352-1.908,3.941-2.048l10.529-0.968
			c1.589-0.138,2.972,0.248,4.253,1.307l3.46,2.886l-3.153-30.331l9.523-0.871l5.74,58.663l1.941,6.48L253.198,131.901z
			 M248.85,108.277c-0.038-0.495-0.236-0.813-0.603-1.118l-6.478-5.397c-0.36-0.306-0.798-0.432-1.215-0.396l-8.436,0.774
			c-0.422,0.036-0.826,0.244-1.127,0.612l-0.072,0.084c-0.308,0.369-0.442,0.715-0.399,1.217l1.78,19.552
			c0.05,0.506,0.242,0.821,0.613,1.122l0.084,0.085c0.37,0.299,0.797,0.434,1.217,0.392l8.441-0.771
			c0.418-0.034,0.825-0.243,1.128-0.61l5.397-6.472c0.297-0.365,0.436-0.708,0.387-1.213L248.85,108.277z"/>
	</g>
	<g>
		<path fill="#FFFFFF" d="M63.954,225.954l-4.008,3.337c-1.28,1.064-2.66,1.448-4.247,1.301l-10.526-0.963
			c-1.594-0.138-2.885-0.757-3.943-2.039l-3.651-4.379l-1.853,5.563l-8.688-0.781l1.938-6.49l4.722-59.672l9.533,0.87L41.08,194.04
			l3.468-2.892c1.272-1.052,2.66-1.436,4.238-1.293l10.535,0.957c1.588,0.139,2.876,0.765,3.941,2.044l3.345,4.013
			c1.068,1.284,1.518,2.754,1.367,4.421l-1.871,20.561C65.945,223.515,65.231,224.89,63.954,225.954z M58.402,200.935
			c0.042-0.515-0.09-0.864-0.4-1.225l-0.074-0.094c-0.3-0.356-0.709-0.563-1.125-0.608l-8.443-0.762
			c-0.415-0.045-0.845,0.093-1.212,0.392l-6.472,5.393c-0.366,0.306-0.559,0.621-0.604,1.121l-0.722,7.864
			c-0.041,0.503,0.094,0.85,0.398,1.213l5.395,6.466c0.301,0.366,0.699,0.581,1.12,0.621l8.44,0.757
			c0.416,0.05,0.851-0.089,1.221-0.389l0.093-0.073c0.364-0.304,0.559-0.62,0.603-1.133L58.402,200.935z"/>
		<path fill="#FFFFFF" d="M85.683,215.962l-0.644,7.104c-0.049,0.497,0.09,0.861,0.392,1.22l0.074,0.09
			c0.307,0.36,0.706,0.579,1.122,0.604l14.288,1.303c0.421,0.046,0.849-0.09,1.218-0.394l4.559-3.8l5.398,6.482l-5.934,4.934
			c-1.278,1.053-2.658,1.445-4.246,1.297l-17.796-1.619c-1.592-0.148-2.88-0.771-3.943-2.053l-3.348-4.003
			c-1.055-1.281-1.512-2.76-1.36-4.425l1.866-20.555c0.151-1.675,0.869-3.039,2.146-4.109l4.01-3.338
			c1.282-1.062,2.66-1.448,4.25-1.303l17.796,1.628c1.591,0.143,2.881,0.76,3.944,2.044l3.347,4.012
			c1.062,1.272,1.519,2.751,1.359,4.421l-1.176,12.95L85.683,215.962z M104.614,205.137c0.046-0.503-0.085-0.857-0.4-1.221
			l-0.074-0.09c-0.297-0.358-0.701-0.574-1.125-0.612l-14.286-1.296c-0.416-0.04-0.844,0.091-1.217,0.395l-0.091,0.069
			c-0.36,0.312-0.56,0.63-0.608,1.129l-0.427,4.677l17.801,1.626L104.614,205.137z"/>
		<path fill="#FFFFFF" d="M124.314,236.842l4.312-47.386l-8.443-0.772l0.76-8.356l17.97,1.637l-5.069,55.739L124.314,236.842z"/>
		<path fill="#FFFFFF" d="M150.216,239.193l2.858-31.415l-8.438-0.771l0.761-8.355l17.972,1.626l-3.627,39.782L150.216,239.193z
			 M153.896,192.265l0.976-10.699l10.703,0.971l-0.974,10.696L153.896,192.265z"/>
		<path fill="#FFFFFF" d="M183.125,224.834l-0.642,7.102c-0.047,0.5,0.087,0.857,0.388,1.214l0.085,0.092
			c0.303,0.369,0.701,0.572,1.114,0.604l14.292,1.303c0.417,0.046,0.857-0.082,1.213-0.39l4.563-3.802l5.391,6.479l-5.919,4.931
			c-1.283,1.065-2.662,1.45-4.257,1.303l-17.794-1.613c-1.588-0.147-2.879-0.778-3.946-2.046l-3.34-4.017
			c-1.062-1.27-1.521-2.752-1.364-4.426l1.873-20.55c0.146-1.674,0.864-3.038,2.145-4.105l4-3.343
			c1.285-1.065,2.663-1.451,4.25-1.295l17.801,1.616c1.588,0.14,2.881,0.759,3.943,2.044l3.342,4.011
			c1.066,1.277,1.524,2.747,1.373,4.417l-1.184,12.954L183.125,224.834z M202.058,214.004c0.044-0.501-0.093-0.853-0.4-1.221
			l-0.066-0.089c-0.303-0.36-0.715-0.569-1.132-0.604l-14.292-1.306c-0.414-0.038-0.846,0.09-1.214,0.397l-0.086,0.07
			c-0.373,0.313-0.564,0.63-0.61,1.129l-0.424,4.674l17.803,1.632L202.058,214.004z"/>
		<path fill="#FFFFFF" d="M235.315,215.262l-2.866,31.423l-9.524-0.869l2.859-31.426l-7.024-0.636l0.772-8.354l7.02,0.633
			l0.628-6.933c0.15-1.678,0.858-3.039,2.14-4.104l3.37-2.815c1.276-1.065,2.655-1.438,4.247-1.293l14.045,1.271l-0.764,8.358
			l-11.699-1.062c-0.422-0.034-0.853,0.094-1.215,0.393l-0.093,0.075c-0.368,0.306-0.566,0.625-0.606,1.124l-0.53,5.847
			l13.459,1.228l-0.761,8.361L235.315,215.262z"/>
	</g>
	
		<line fill="none" stroke="#97BF0D" stroke-width="3.189" stroke-linecap="round" x1="-142.267" y1="127.767" x2="-141.061" y2="136.142"/>
	<g>
		
			<line fill="none" stroke="#E2001A" stroke-width="3.189" stroke-linecap="round" x1="32.253" y1="178.167" x2="42.213" y2="179.186"/>
		
			<line fill="none" stroke="#E2001A" stroke-width="3.189" stroke-linecap="round" x1="32.592" y1="172.856" x2="42.891" y2="173.763"/>
	</g>
	<g>
		
			<line fill="none" stroke="#F29400" stroke-width="3.189" stroke-linecap="round" x1="235.039" y1="233.812" x2="223.285" y2="231.99"/>
		
			<line fill="none" stroke="#F29400" stroke-width="3.189" stroke-linecap="round" x1="235.462" y1="228.092" x2="223.712" y2="226.277"/>
	</g>
	<g>
		
			<line fill="none" stroke="#009EE0" stroke-width="3.189" stroke-linecap="round" x1="256.814" y1="89.43" x2="246.575" y2="89.923"/>
		
			<line fill="none" stroke="#009EE0" stroke-width="3.189" stroke-linecap="round" x1="256.686" y1="84.443" x2="246.45" y2="84.939"/>
	</g>
	
		<line fill="none" stroke="#97BF0D" stroke-width="3.189" stroke-linecap="round" x1="-137.752" y1="127.161" x2="-136.545" y2="135.916"/>
</g>
</svg>
