<?xml version="1.0" encoding="utf-8"?>
<!-- Generator: Adobe Illustrator 16.0.0, SVG Export Plug-In . SVG Version: 6.00 Build 0)  -->
<!DOCTYPE svg PUBLIC "-//W3C//DTD SVG 1.1//EN" "http://www.w3.org/Graphics/SVG/1.1/DTD/svg11.dtd">
<svg version="1.1" id="Layer_1" xmlns="http://www.w3.org/2000/svg" xmlns:xlink="http://www.w3.org/1999/xlink" x="0px" y="0px"
	 width="880px" height="400px" viewBox="-385.042 -126 880 400" enable-background="new -385.042 -126 880 400"
	 xml:space="preserve">
<rect x="-385.042" y="-126" fill="#232525" width="880" height="400"/>
<g>
	
		<line fill="none" stroke="#F29400" stroke-width="3.4203" stroke-linecap="round" x1="243.839" y1="-423.098" x2="243.839" y2="120.721"/>
	
		<line fill="none" stroke="#009EE0" stroke-width="3.4203" stroke-linecap="round" x1="266.959" y1="-457.328" x2="266.959" y2="-13.508"/>
	
		<line fill="none" stroke="#E2001A" stroke-width="3.4203" stroke-linecap="round" x1="37.897" y1="-465.256" x2="37.897" y2="86.491"/>
	
		<line fill="none" stroke="#97BF0D" stroke-width="3.4203" stroke-linecap="round" x1="-145.372" y1="-474.048" x2="-145.372" y2="45.797"/>
	<path fill="none" stroke="#E2001A" stroke-width="3.4203" stroke-linecap="round" d="M33.727,101.878c0,0-2.693,1.889-5.529,4.218"
		/>
	<path fill="none" stroke="#97BF0D" stroke-width="3.4203" stroke-linecap="round" d="M-159.751,44.289
		c-2.753-3.658-2.174-2.851-4.407-5.383"/>
	<path fill="none" stroke="#F29400" stroke-width="3.4203" stroke-linecap="round" d="M252.496,166.776c0,0-4.773-2.75-7.199-5.505"
		/>
	<path fill="none" stroke="#009EE0" stroke-width="3.4203" stroke-linecap="round" d="M269.375-6.732c0,0,4.774-2.75,7.2-5.504"/>
	<g>
		<path fill="#FFFFFF" d="M-130.467,78.396l-3.587,4.298c-1.142,1.374-2.522,2.034-4.226,2.188l-17.216,1.575
			c-1.696,0.158-3.178-0.254-4.549-1.392l-5.672-4.723l5.779-6.947l4.208,3.502c0.396,0.33,0.865,0.472,1.308,0.425l13.357-1.218
			c0.441-0.038,0.887-0.258,1.207-0.652l0.079-0.095c0.322-0.395,0.47-0.771,0.417-1.309l-0.318-3.586
			c-0.079-0.891-0.873-1.639-1.788-1.641l-19.768-0.816c-2.993-0.091-5.846-2.636-6.122-5.678l-0.672-7.353
			c-0.165-1.787,0.33-3.372,1.468-4.741l3.581-4.303c1.146-1.369,2.531-2.041,4.23-2.188l17.212-1.571
			c1.702-0.16,3.19,0.25,4.551,1.388l5.671,4.722l-5.78,6.943l-4.211-3.505c-0.383-0.323-0.854-0.459-1.302-0.414l-13.444,1.222
			c-0.448,0.039-0.873,0.266-1.202,0.66l-0.083,0.087c-0.328,0.394-0.468,0.773-0.418,1.316l0.271,3.039
			c0.091,0.896,0.875,1.635,1.786,1.639l19.867,0.82c2.983,0.092,5.832,2.629,6.116,5.671l0.717,7.89
			C-128.839,75.445-129.323,77.023-130.467,78.396z"/>
		<path fill="#FFFFFF" d="M-86.11,80.129l-1.994-5.959l-3.903,4.697c-1.146,1.36-2.527,2.034-4.233,2.191l-9.056,0.823
			c-1.703,0.151-3.19-0.258-4.547-1.385l-4.311-3.587c-1.361-1.142-2.131-2.61-2.3-4.403l-2.948-32.359l10.222-0.929l2.897,31.818
			c0.045,0.534,0.261,0.875,0.652,1.212l0.783,0.642c0.396,0.327,0.857,0.464,1.3,0.429l5.559-0.507
			c0.451-0.045,0.883-0.266,1.208-0.649l6.353-7.629c0.33-0.392,0.471-0.765,0.425-1.299l-2.33-25.552l10.221-0.928l3.208,35.219
			l2.473,7.281L-86.11,80.129z"/>
		<path fill="#FFFFFF" d="M-31.067,69.334l-3.578,4.301c-1.15,1.366-2.535,2.038-4.233,2.192l-17.208,1.571
			c-1.707,0.154-3.187-0.254-4.551-1.396l-5.679-4.728l5.788-6.939l4.207,3.496c0.392,0.325,0.854,0.469,1.298,0.433l13.356-1.22
			c0.445-0.043,0.88-0.271,1.207-0.653l0.083-0.103c0.327-0.391,0.467-0.763,0.415-1.297l-0.321-3.585
			c-0.083-0.899-0.867-1.643-1.777-1.643l-19.78-0.823c-2.987-0.086-5.844-2.629-6.12-5.675l-0.663-7.352
			c-0.167-1.795,0.316-3.377,1.458-4.743l3.587-4.302c1.142-1.373,2.523-2.038,4.228-2.197l17.21-1.566
			c1.705-0.157,3.187,0.254,4.558,1.4l5.671,4.711l-5.786,6.95l-4.208-3.506c-0.383-0.326-0.846-0.462-1.296-0.424l-13.449,1.229
			c-0.452,0.04-0.881,0.26-1.206,0.648l-0.076,0.101c-0.327,0.396-0.474,0.77-0.425,1.303l0.276,3.046
			c0.087,0.899,0.869,1.643,1.776,1.646l19.867,0.808c2.989,0.089,5.841,2.635,6.122,5.681l0.717,7.89
			C-29.435,66.379-29.929,67.96-31.067,69.334z"/>
		<path fill="#FFFFFF" d="M21.008,64.584l-3.585,4.302c-1.134,1.369-2.519,2.042-4.221,2.2L1.908,72.111
			c-1.701,0.153-3.183-0.25-4.558-1.392l-3.715-3.094l3.524,38.292l-10.215,0.93l-6.294-68.68l-2.086-6.945l9.316-0.85l1.991,5.971
			l3.917-4.697c1.142-1.377,2.525-2.039,4.226-2.201l11.293-1.024c1.709-0.158,3.19,0.25,4.557,1.393l4.303,3.58
			c1.369,1.139,2.139,2.603,2.301,4.398l2.007,22.052C22.64,61.637,22.149,63.219,21.008,64.584z M10.303,39.266
			c-0.05-0.539-0.267-0.884-0.662-1.214l-0.091-0.08c-0.389-0.322-0.857-0.462-1.308-0.419l-9.055,0.827
			c-0.44,0.038-0.872,0.257-1.207,0.652L-7.8,45.97c-0.32,0.399-0.473,0.763-0.419,1.306l0.767,8.429
			c0.043,0.533,0.263,0.871,0.654,1.206l6.939,5.778c0.394,0.326,0.857,0.466,1.305,0.428l9.057-0.824
			c0.441-0.045,0.877-0.262,1.203-0.652l0.083-0.103c0.32-0.393,0.47-0.766,0.415-1.3L10.303,39.266z"/>
		<path fill="#FFFFFF" d="M41.989,49.842l0.695,7.622c0.054,0.535,0.27,0.87,0.648,1.199l0.099,0.083
			c0.396,0.324,0.857,0.464,1.302,0.421l15.333-1.396c0.452-0.041,0.881-0.257,1.207-0.648l4.065-4.892l6.947,5.785l-5.288,6.349
			c-1.14,1.375-2.534,2.044-4.234,2.206l-19.092,1.734c-1.699,0.151-3.178-0.25-4.555-1.393l-4.303-3.588
			c-1.365-1.134-2.132-2.603-2.292-4.396L30.507,36.88c-0.167-1.798,0.323-3.379,1.465-4.749l3.583-4.301
			c1.142-1.362,2.526-2.039,4.228-2.188l19.093-1.742c1.707-0.154,3.182,0.254,4.556,1.392l4.302,3.584
			c1.369,1.138,2.14,2.604,2.304,4.401l1.269,13.889L41.989,49.842z M59.865,34.744c-0.05-0.535-0.257-0.88-0.656-1.207
			l-0.095-0.083c-0.387-0.327-0.862-0.459-1.302-0.425l-15.33,1.399c-0.448,0.046-0.881,0.258-1.214,0.653l-0.071,0.102
			c-0.326,0.39-0.475,0.761-0.428,1.301l0.458,5.014l19.099-1.737L59.865,34.744z"/>
		<path fill="#FFFFFF" d="M112.599,62.016l-2.902-31.817c-0.044-0.534-0.253-0.88-0.656-1.211l-0.774-0.644
			c-0.396-0.327-0.853-0.463-1.308-0.425l-5.555,0.504c-0.445,0.045-0.878,0.263-1.209,0.648l-6.352,7.632
			c-0.321,0.395-0.47,0.766-0.421,1.305l2.33,25.542L85.53,64.484l-3.213-35.223l-2.47-7.273l9.682-0.88l1.999,5.96l3.896-4.697
			c1.146-1.373,2.529-2.034,4.232-2.188l9.056-0.827c1.703-0.156,3.182,0.243,4.548,1.385l4.311,3.584
			c1.363,1.146,2.13,2.613,2.298,4.407l2.944,32.352L112.599,62.016z"/>
		<path fill="#FFFFFF" d="M167.004,57.062l-1.981-5.971l-3.919,4.694c-1.142,1.372-2.53,2.042-4.229,2.202l-11.294,1.028
			c-1.698,0.152-3.182-0.254-4.551-1.396l-4.303-3.581c-1.373-1.142-2.14-2.611-2.303-4.401l-2.009-22.048
			c-0.16-1.798,0.321-3.375,1.47-4.75l3.577-4.292c1.143-1.37,2.526-2.042,4.227-2.2l11.298-1.03
			c1.702-0.155,3.187,0.254,4.556,1.398l3.713,3.094l-3.383-33.384l10.218-0.934l6.157,63.767l2.082,6.954L167.004,57.062z
			 M162.344,31.728c-0.042-0.533-0.261-0.871-0.65-1.206l-6.942-5.789c-0.395-0.322-0.857-0.455-1.305-0.42l-9.051,0.831
			c-0.45,0.034-0.877,0.258-1.208,0.648l-0.083,0.1c-0.326,0.39-0.466,0.77-0.424,1.304l1.912,20.97
			c0.049,0.54,0.265,0.884,0.66,1.207l0.091,0.08c0.395,0.33,0.857,0.471,1.302,0.424l9.055-0.822
			c0.445-0.038,0.887-0.258,1.213-0.653l5.772-6.94c0.33-0.399,0.479-0.766,0.429-1.309L162.344,31.728z"/>
		<path fill="#FFFFFF" d="M195.974,35.798l0.692,7.625c0.053,0.53,0.265,0.875,0.651,1.203l0.103,0.08
			c0.395,0.322,0.853,0.466,1.306,0.419l15.325-1.396c0.451-0.038,0.876-0.258,1.207-0.647l4.077-4.894l6.938,5.789l-5.288,6.354
			c-1.146,1.378-2.526,2.038-4.239,2.192l-19.089,1.738c-1.695,0.16-3.178-0.25-4.55-1.388l-4.307-3.585
			c-1.361-1.142-2.128-2.606-2.3-4.4l-2.003-22.049c-0.17-1.798,0.323-3.368,1.466-4.745l3.574-4.299
			c1.146-1.373,2.529-2.038,4.232-2.197l19.089-1.741c1.707-0.151,3.194,0.251,4.556,1.393l4.302,3.585
			c1.377,1.139,2.14,2.609,2.303,4.401l1.274,13.893L195.974,35.798z M213.854,20.704c-0.054-0.535-0.262-0.884-0.656-1.207
			l-0.096-0.081c-0.391-0.326-0.861-0.459-1.31-0.423l-15.334,1.395c-0.44,0.042-0.869,0.258-1.203,0.652l-0.078,0.105
			c-0.326,0.385-0.463,0.759-0.42,1.298l0.458,5.019l19.095-1.738L213.854,20.704z"/>
		<path fill="#FFFFFF" d="M268.649,47.794l-1.991-5.968l-3.908,4.701c-1.142,1.366-2.526,2.034-4.225,2.188l-11.302,1.033
			c-1.7,0.152-3.178-0.254-4.546-1.393l-4.312-3.584c-1.368-1.142-2.134-2.61-2.296-4.404l-2.011-22.047
			c-0.163-1.787,0.323-3.373,1.465-4.743l3.589-4.297c1.139-1.374,2.522-2.045,4.227-2.196l11.293-1.038
			c1.704-0.147,3.187,0.267,4.561,1.401l3.712,3.096l-3.384-32.531l10.215-0.934l6.157,62.917l2.082,6.951L268.649,47.794z
			 M263.987,22.457c-0.042-0.531-0.254-0.873-0.647-1.199l-6.947-5.789c-0.387-0.328-0.857-0.463-1.304-0.425l-9.047,0.831
			c-0.452,0.039-0.886,0.262-1.209,0.656l-0.077,0.091c-0.33,0.395-0.475,0.766-0.429,1.305l1.91,20.97
			c0.053,0.542,0.259,0.88,0.657,1.203l0.091,0.091c0.397,0.321,0.854,0.465,1.304,0.421l9.055-0.827
			c0.448-0.037,0.885-0.261,1.208-0.655l5.79-6.941c0.318-0.392,0.466-0.759,0.415-1.301L263.987,22.457z"/>
	</g>
	<g>
		<path fill="#FFFFFF" d="M65.68,148.669l-4.299,3.578c-1.373,1.142-2.853,1.554-4.556,1.396l-11.289-1.033
			c-1.71-0.148-3.094-0.812-4.229-2.187l-3.916-4.697l-1.987,5.967l-9.318-0.838l2.078-6.961l5.065-64l10.224,0.934l-2.307,33.611
			l3.719-3.1c1.365-1.129,2.853-1.54,4.546-1.387l11.299,1.027c1.703,0.148,3.085,0.82,4.227,2.192l3.588,4.303
			c1.146,1.377,1.628,2.954,1.466,4.742l-2.007,22.052C67.815,146.052,67.049,147.527,65.68,148.669z M59.724,121.834
			c0.045-0.552-0.095-0.927-0.429-1.312l-0.079-0.101c-0.322-0.383-0.761-0.604-1.207-0.653l-9.055-0.817
			c-0.445-0.049-0.906,0.1-1.3,0.42l-6.942,5.784c-0.392,0.328-0.599,0.666-0.648,1.203l-0.774,8.434
			c-0.044,0.539,0.101,0.911,0.428,1.301l5.786,6.935c0.322,0.392,0.75,0.623,1.201,0.665l9.052,0.812
			c0.446,0.054,0.913-0.095,1.309-0.417l0.1-0.078c0.391-0.327,0.599-0.665,0.647-1.215L59.724,121.834z"/>
		<path fill="#FFFFFF" d="M88.984,137.952l-0.69,7.618c-0.052,0.534,0.097,0.924,0.421,1.309l0.079,0.096
			c0.329,0.386,0.757,0.621,1.203,0.647l15.325,1.397c0.452,0.049,0.91-0.096,1.306-0.422l4.889-4.076l5.79,6.953l-6.363,5.291
			c-1.372,1.13-2.852,1.552-4.555,1.392l-19.086-1.737c-1.707-0.159-3.089-0.827-4.23-2.201l-3.59-4.293
			c-1.132-1.374-1.622-2.96-1.459-4.746l2.002-22.046c0.161-1.796,0.931-3.259,2.3-4.407l4.301-3.581
			c1.375-1.139,2.854-1.552,4.558-1.396l19.087,1.745c1.707,0.154,3.089,0.816,4.23,2.193l3.59,4.302
			c1.138,1.366,1.628,2.951,1.458,4.742l-1.261,13.889L88.984,137.952z M109.288,126.341c0.05-0.539-0.091-0.919-0.429-1.309
			l-0.079-0.096c-0.319-0.384-0.753-0.615-1.207-0.657l-15.323-1.391c-0.446-0.043-0.905,0.098-1.304,0.425l-0.099,0.073
			c-0.385,0.334-0.599,0.676-0.652,1.212l-0.456,5.015l19.091,1.745L109.288,126.341z"/>
		<path fill="#FFFFFF" d="M130.417,160.346l4.624-50.822l-9.054-0.828l0.814-8.964l19.273,1.756l-5.437,59.782L130.417,160.346z"/>
		<path fill="#FFFFFF" d="M158.198,162.868l3.065-33.693l-9.049-0.828l0.816-8.96l19.274,1.744l-3.889,42.667L158.198,162.868z
			 M162.145,112.535l1.047-11.474l11.479,1.041l-1.045,11.471L162.145,112.535z"/>
		<path fill="#FFFFFF" d="M193.493,147.467l-0.689,7.617c-0.049,0.536,0.095,0.919,0.417,1.302l0.091,0.099
			c0.324,0.395,0.753,0.612,1.195,0.648l15.329,1.396c0.447,0.05,0.919-0.087,1.301-0.417l4.894-4.078l5.782,6.949l-6.348,5.289
			c-1.377,1.142-2.856,1.554-4.567,1.396l-19.084-1.73c-1.702-0.158-3.088-0.835-4.232-2.195l-3.582-4.307
			c-1.138-1.362-1.631-2.951-1.464-4.746l2.01-22.041c0.156-1.795,0.926-3.259,2.3-4.404l4.29-3.585
			c1.377-1.142,2.856-1.556,4.558-1.389l19.091,1.734c1.703,0.15,3.09,0.813,4.231,2.192l3.584,4.302
			c1.143,1.369,1.634,2.947,1.472,4.737l-1.269,13.894L193.493,147.467z M213.8,135.851c0.048-0.537-0.1-0.914-0.429-1.309
			l-0.071-0.095c-0.326-0.387-0.767-0.61-1.215-0.648l-15.328-1.4c-0.444-0.042-0.907,0.096-1.302,0.425l-0.092,0.076
			c-0.4,0.337-0.605,0.675-0.655,1.212l-0.454,5.012l19.093,1.75L213.8,135.851z"/>
		<path fill="#FFFFFF" d="M249.469,137.201l-3.074,33.702l-10.215-0.933l3.066-33.705l-7.533-0.681l0.828-8.96l7.53,0.679
			l0.672-7.436c0.162-1.798,0.921-3.26,2.295-4.402l3.614-3.02c1.369-1.142,2.849-1.543,4.556-1.387l15.064,1.365l-0.82,8.964
			l-12.548-1.138c-0.452-0.037-0.914,0.101-1.302,0.421l-0.1,0.08c-0.394,0.328-0.607,0.671-0.651,1.206l-0.568,6.271l14.435,1.316
			l-0.816,8.968L249.469,137.201z"/>
	</g>
	
		<line fill="none" stroke="#97BF0D" stroke-width="3.4203" stroke-linecap="round" x1="-155.498" y1="43.359" x2="-154.204" y2="52.342"/>
	<g>
		
			<line fill="none" stroke="#E2001A" stroke-width="3.4203" stroke-linecap="round" x1="31.679" y1="97.416" x2="42.362" y2="98.508"/>
		
			<line fill="none" stroke="#E2001A" stroke-width="3.4203" stroke-linecap="round" x1="32.043" y1="91.72" x2="43.089" y2="92.691"/>
	</g>
	<g>
		
			<line fill="none" stroke="#F29400" stroke-width="3.4203" stroke-linecap="round" x1="249.173" y1="157.096" x2="236.566" y2="155.142"/>
		
			<line fill="none" stroke="#F29400" stroke-width="3.4203" stroke-linecap="round" x1="249.627" y1="150.961" x2="237.026" y2="149.015"/>
	</g>
	<g>
		
			<line fill="none" stroke="#009EE0" stroke-width="3.4203" stroke-linecap="round" x1="272.527" y1="2.242" x2="261.546" y2="2.772"/>
		
			<line fill="none" stroke="#009EE0" stroke-width="3.4203" stroke-linecap="round" x1="272.39" y1="-3.105" x2="261.411" y2="-2.574"/>
	</g>
	
		<line fill="none" stroke="#97BF0D" stroke-width="3.4203" stroke-linecap="round" x1="-150.656" y1="42.71" x2="-149.362" y2="52.1"/>
</g>
</svg>
