<?xml version="1.0" encoding="utf-8"?>
<!-- Generator: Adobe Illustrator 16.0.0, SVG Export Plug-In . SVG Version: 6.00 Build 0)  -->
<!DOCTYPE svg PUBLIC "-//W3C//DTD SVG 1.1//EN" "http://www.w3.org/Graphics/SVG/1.1/DTD/svg11.dtd">
<svg version="1.1" xmlns="http://www.w3.org/2000/svg" xmlns:xlink="http://www.w3.org/1999/xlink" x="0px" y="0px" width="150px"
	 height="100px" viewBox="0 0 150 100" enable-background="new 0 0 150 100" xml:space="preserve">
<g id="white">
	<rect x="0" y="-0.378" fill="#A7AF39" width="150" height="100.378"/>
	<g>
		<path fill="#FFFFFF" d="M119.589,30.868h-8.954c-0.359,0-0.651,0.292-0.651,0.652c0,0.36,0.292,0.652,0.651,0.652h8.303v38.391
			H71.097V32.173h23.146c0.36,0,0.652-0.292,0.652-0.652c0-0.361-0.292-0.652-0.652-0.652H70.444c-0.36,0-0.652,0.292-0.652,0.652
			v39.693c0,0.359,0.292,0.651,0.652,0.651h49.145c0.359,0,0.651-0.292,0.651-0.651V31.521
			C120.24,31.16,119.948,30.868,119.589,30.868z"/>
		<path fill="#323232" d="M90.816,39.636c0.158,0.397,0.542,0.657,0.97,0.657h21.52c0.43,0,0.814-0.263,0.972-0.661
			c0.156-0.4,0.053-0.854-0.262-1.146l-10.859-10.072c-0.404-0.371-1.027-0.372-1.425,0.007L91.069,38.492
			C90.759,38.785,90.659,39.239,90.816,39.636z M102.452,30.605l8.196,7.602h-16.24L102.452,30.605z"/>
		<path fill="#323232" d="M109.574,66.71h4.349c0.197,0,0.354-0.157,0.354-0.353V43.305c0-0.195-0.157-0.354-0.354-0.354h-3.734
			c-0.121,0-0.233,0.062-0.298,0.164l-7.377,11.658l-7.376-11.658c-0.064-0.103-0.178-0.164-0.299-0.164h-3.736
			c-0.194,0-0.354,0.159-0.354,0.354v23.053c0,0.195,0.159,0.353,0.354,0.353h4.351c0.195,0,0.354-0.157,0.354-0.353V53.682
			l5.958,9.409c0.064,0.104,0.177,0.165,0.298,0.165h0.903c0.12,0,0.232-0.062,0.297-0.165l5.957-9.409v12.676
			C109.22,66.553,109.378,66.71,109.574,66.71z"/>
	</g>
	<g id="ART_x2B_PARIS_x5F_cover.psd">
		
			<image overflow="visible" width="1582" height="2409" id="ART_x2B_PARIS_x5F_cover" xlink:href="B24155E26682BE94.png"  transform="matrix(0.24 0 0 0.24 -549.8398 -433.0801)">
		</image>
	</g>
</g>
<g id="black" display="none">
	<g display="inline">
		<defs>
			<rect id="SVGID_1_" x="66.222" y="42.39" width="17.557" height="15.219"/>
		</defs>
		<clipPath id="SVGID_2_">
			<use xlink:href="#SVGID_1_"  overflow="visible"/>
		</clipPath>
		
			<polyline clip-path="url(#SVGID_2_)" fill="none" stroke="#000000" stroke-width="0.454" stroke-linecap="round" stroke-linejoin="round" points="
			80.436,43.569 83.552,43.569 83.552,57.383 66.449,57.383 66.449,43.569 74.731,43.569 		"/>
		
			<polygon clip-path="url(#SVGID_2_)" fill="none" stroke="#000000" stroke-width="0.726" stroke-linecap="round" stroke-linejoin="round" points="
			77.586,42.753 73.876,46.259 81.365,46.259 		"/>
	</g>
	<polygon display="inline" points="80.066,55.692 80.066,50.857 77.767,54.49 77.452,54.49 75.152,50.857 75.152,55.692 
		73.638,55.692 73.638,47.67 74.938,47.67 77.609,51.892 80.28,47.67 81.58,47.67 81.58,55.692 	"/>
	
		<polygon display="inline" fill="none" stroke="#000000" stroke-width="0.246" stroke-linecap="round" stroke-linejoin="round" points="
		80.066,55.692 80.066,50.857 77.767,54.49 77.452,54.49 75.152,50.857 75.152,55.692 73.638,55.692 73.638,47.67 74.938,47.67 
		77.609,51.892 80.28,47.67 81.58,47.67 81.58,55.692 	"/>
</g>
</svg>
