<?xml version="1.0" encoding="utf-8"?>
<!-- Generator: Adobe Illustrator 16.0.0, SVG Export Plug-In . SVG Version: 6.00 Build 0)  -->
<!DOCTYPE svg PUBLIC "-//W3C//DTD SVG 1.1//EN" "http://www.w3.org/Graphics/SVG/1.1/DTD/svg11.dtd">
<svg version="1.1" id="Layer_1" xmlns="http://www.w3.org/2000/svg" xmlns:xlink="http://www.w3.org/1999/xlink" x="0px" y="0px"
	 width="880px" height="400px" viewBox="-385.042 -126 880 400" enable-background="new -385.042 -126 880 400"
	 xml:space="preserve">
<rect x="-385.042" y="-126" fill="#AEAE36" width="880" height="400"/>
<g>
	<polygon fill="#231F20" points="-47.567,-32.86 -47.567,-57.744 -57.533,-39.052 -58.887,-39.052 -68.856,-57.744 -68.856,-32.86 
		-75.422,-32.86 -75.422,-74.151 -69.786,-74.151 -58.207,-52.421 -46.634,-74.151 -40.998,-74.151 -40.998,-32.86 	"/>
	<g>
		<path fill="#231F20" d="M-20.417-74.151v26.186c0,6.006,3.103,8.914,6.877,8.914c3.772,0,6.867-2.907,6.867-8.914v-26.186h6.938
			v26.186c0,10.153-6.191,15.787-13.805,15.787c-7.553,0-13.748-5.634-13.748-15.787v-26.186H-20.417z"/>
		<path fill="#231F20" d="M23.459-32.179c-4.461,0-7.8-1.425-11.643-4.396l0.807-6.131c4.144,2.231,7.551,3.653,11.084,3.653
			c3.092,0,7.056-1.673,7.056-5.016c0-7.861-19.503-4.829-19.503-18.635c0-7.178,6.316-12.132,13.619-12.132
			c4.644,0,7.804,1.61,12.082,4.954l-2.169,5.447c-2.913-1.919-6.379-3.592-9.667-3.592c-4.144,0-6.678,2.229-6.678,4.706
			c0,7.369,19.559,5.51,19.559,18.205C38.006-36.633,30.885-32.179,23.459-32.179"/>
	</g>
	<polygon fill="#231F20" points="48.391,-74.151 69.004,-74.151 69.004,-67.28 55.26,-67.28 55.26,-58.984 69.004,-58.984 
		69.004,-52.115 55.26,-52.115 55.26,-39.735 69.004,-39.735 69.004,-32.86 48.391,-32.86 	"/>
	<polygon fill="#231F20" points="75.923,-74.151 83.843,-74.151 93.129,-57.189 102.416,-74.151 110.339,-74.151 96.54,-49.391 
		96.54,-32.86 89.658,-32.86 89.658,-49.391 	"/>
	<g>
		<path fill="#231F20" d="M130.938-39.052c4.645,0,7.178-6.561,7.178-14.422c0-7.924-2.533-14.486-7.178-14.486
			c-4.581,0-7.12,6.562-7.12,14.486C123.818-45.612,126.357-39.052,130.938-39.052 M130.938-74.834
			c9.283,0,14.484,9.656,14.484,21.357c0,11.7-5.201,21.299-14.484,21.299c-9.29,0-14.428-9.599-14.428-21.299
			C116.51-65.179,121.648-74.834,130.938-74.834"/>
	</g>
	<polygon fill="#231F20" points="179.822,-74.151 186.021,-74.151 186.021,-32.86 180.817,-32.86 164.659,-59.232 164.659,-32.86 
		158.462,-32.86 158.462,-74.151 163.602,-74.151 179.822,-47.78 	"/>
	<g>
		<path fill="#231F20" d="M-54.066,10.116h-6.93V3.246h13.802v20.615h-2.104l-1.429-2.541c-2.531,2.042-5.63,3.22-8.662,3.22
			c-9.97,0-16.718-9.594-16.718-21.295c0-11.702,6.748-21.357,16.718-21.357c4.891,0,9.967,3.157,12.75,7.923l-4.088,3.837
			c-2.659-3.405-5.322-4.893-8.227-4.893c-5.203,0-9.604,5.514-9.604,14.49c0,8.913,4.4,14.421,9.604,14.421
			c1.666,0,3.276-0.492,4.887-1.607V10.116z"/>
		<path fill="#231F20" d="M-27.276-17.432V8.753c0,6.006,3.098,8.914,6.87,8.914c3.774,0,6.869-2.908,6.869-8.914v-26.186h6.938
			V8.753c0,10.157-6.192,15.787-13.807,15.787c-7.55,0-13.745-5.63-13.745-15.787v-26.186H-27.276z"/>
	</g>
	<polygon fill="#231F20" points="13.99,-10.563 7.122,-10.563 7.122,-17.436 27.734,-17.436 27.734,-10.563 20.863,-10.563 
		20.863,16.986 27.734,16.986 27.734,23.857 7.122,23.857 7.122,16.986 13.99,16.986 	"/>
	<g>
		<path fill="#231F20" d="M48.391,16.989h2.789c6.002,0,10.955-6.193,10.955-13.744c0-7.613-4.953-13.805-10.955-13.805h-2.789
			V16.989z M41.524-17.432h9.66c10.214,0,18.57,9.224,18.57,20.678c0,11.391-8.356,20.615-18.57,20.615h-9.66V-17.432z"/>
	</g>
	<polygon fill="#231F20" points="82.793,-17.432 103.411,-17.432 103.411,-10.56 89.662,-10.56 89.662,-2.265 103.411,-2.265 
		103.411,4.604 89.662,4.604 89.662,16.989 103.411,16.989 103.411,23.861 82.793,23.861 	"/>
	<g>
		<path fill="#231F20" d="M126.664,24.541c-4.455,0-7.801-1.426-11.633-4.396l0.799-6.131c4.149,2.229,7.553,3.653,11.081,3.653
			c3.101,0,7.061-1.673,7.061-5.016c0-7.861-19.504-4.829-19.504-18.633c0-7.18,6.317-12.133,13.625-12.133
			c4.637,0,7.798,1.607,12.064,4.953l-2.162,5.448c-2.919-1.917-6.376-3.59-9.661-3.59c-4.152,0-6.692,2.228-6.692,4.705
			c0,7.367,19.571,5.508,19.571,18.2C141.22,20.082,134.092,24.541,126.664,24.541"/>
	</g>
	<polyline fill="none" stroke="#FFFFFF" stroke-width="5.1766" stroke-linecap="round" stroke-linejoin="round" points="
		152.644,85.008 183.712,85.008 183.712,222.834 -74.954,222.834 -74.954,85.008 95.762,85.008 	"/>
	<polygon fill="none" stroke="#231F20" stroke-width="7.763" stroke-linecap="round" stroke-linejoin="round" points="
		125.249,76.838 88.117,112.086 163.068,112.086 	"/>
	<polygon fill="#231F20" points="149.967,205.924 149.967,157.713 127.036,193.93 123.892,193.93 100.963,157.713 100.963,205.924 
		85.865,205.924 85.865,125.936 98.831,125.936 125.465,168.025 152.101,125.936 165.058,125.936 165.058,205.924 	"/>
	<polygon fill="none" stroke="#231F20" stroke-width="2.0056" stroke-linecap="round" stroke-linejoin="round" points="
		149.967,205.924 149.967,157.713 127.036,193.93 123.892,193.93 100.963,157.713 100.963,205.924 85.865,205.924 85.865,125.936 
		98.831,125.936 125.465,168.025 152.101,125.936 165.058,125.936 165.058,205.924 	"/>
</g>
</svg>
