<?xml version="1.0" encoding="utf-8"?>
<!-- Generator: Adobe Illustrator 16.0.0, SVG Export Plug-In . SVG Version: 6.00 Build 0)  -->
<!DOCTYPE svg PUBLIC "-//W3C//DTD SVG 1.1//EN" "http://www.w3.org/Graphics/SVG/1.1/DTD/svg11.dtd">
<svg version="1.1" id="Layer_1" xmlns="http://www.w3.org/2000/svg" xmlns:xlink="http://www.w3.org/1999/xlink" x="0px" y="0px"
	 width="500px" height="500px" viewBox="-195.042 -176 500 500" enable-background="new -195.042 -176 500 500"
	 xml:space="preserve">
<rect x="-195.042" y="-176" fill="#AEAE36" width="500" height="500"/>
<g>
	<polygon fill="#231F20" points="-47.566,-32.859 -47.566,-57.743 -57.533,-39.051 -58.887,-39.051 -68.855,-57.743 
		-68.855,-32.859 -75.421,-32.859 -75.421,-74.15 -69.786,-74.15 -58.207,-52.42 -46.633,-74.15 -40.998,-74.15 -40.998,-32.859 	
		"/>
	<g>
		<path fill="#231F20" d="M-20.417-74.15v26.186c0,6.006,3.103,8.914,6.877,8.914c3.772,0,6.867-2.907,6.867-8.914V-74.15h6.938
			v26.186c0,10.153-6.191,15.787-13.805,15.787c-7.553,0-13.748-5.634-13.748-15.787V-74.15H-20.417z"/>
		<path fill="#231F20" d="M23.459-32.178c-4.461,0-7.8-1.425-11.643-4.396l0.807-6.131c4.144,2.231,7.551,3.653,11.084,3.653
			c3.092,0,7.056-1.673,7.056-5.016c0-7.861-19.503-4.829-19.503-18.635c0-7.178,6.316-12.132,13.619-12.132
			c4.644,0,7.804,1.61,12.082,4.954l-2.169,5.447c-2.913-1.919-6.379-3.592-9.667-3.592c-4.144,0-6.678,2.229-6.678,4.706
			c0,7.369,19.559,5.51,19.559,18.205C38.006-36.632,30.885-32.178,23.459-32.178"/>
	</g>
	<polygon fill="#231F20" points="48.392,-74.15 69.004,-74.15 69.004,-67.279 55.26,-67.279 55.26,-58.983 69.004,-58.983 
		69.004,-52.114 55.26,-52.114 55.26,-39.734 69.004,-39.734 69.004,-32.859 48.392,-32.859 	"/>
	<polygon fill="#231F20" points="75.923,-74.15 83.843,-74.15 93.129,-57.188 102.417,-74.15 110.339,-74.15 96.541,-49.39 
		96.541,-32.859 89.659,-32.859 89.659,-49.39 	"/>
	<g>
		<path fill="#231F20" d="M130.938-39.051c4.646,0,7.179-6.561,7.179-14.422c0-7.924-2.533-14.486-7.179-14.486
			c-4.58,0-7.119,6.562-7.119,14.486C123.819-45.611,126.358-39.051,130.938-39.051 M130.938-74.833
			c9.283,0,14.484,9.656,14.484,21.357c0,11.7-5.201,21.299-14.484,21.299c-9.289,0-14.428-9.599-14.428-21.299
			C116.51-65.178,121.649-74.833,130.938-74.833"/>
	</g>
	<polygon fill="#231F20" points="179.823,-74.15 186.022,-74.15 186.022,-32.859 180.817,-32.859 164.66,-59.231 164.66,-32.859 
		158.462,-32.859 158.462,-74.15 163.602,-74.15 179.823,-47.779 	"/>
	<g>
		<path fill="#231F20" d="M-54.065,10.117h-6.93v-6.87h13.802v20.615h-2.104l-1.429-2.541c-2.531,2.042-5.63,3.22-8.662,3.22
			c-9.97,0-16.718-9.594-16.718-21.295c0-11.702,6.748-21.357,16.718-21.357c4.891,0,9.967,3.157,12.75,7.923l-4.088,3.837
			c-2.659-3.405-5.322-4.893-8.227-4.893c-5.203,0-9.604,5.514-9.604,14.49c0,8.913,4.4,14.421,9.604,14.421
			c1.666,0,3.276-0.492,4.887-1.607L-54.065,10.117L-54.065,10.117z"/>
		<path fill="#231F20" d="M-27.275-17.431V8.754c0,6.006,3.098,8.914,6.87,8.914c3.774,0,6.869-2.908,6.869-8.914v-26.186h6.938
			V8.754c0,10.157-6.192,15.787-13.807,15.787c-7.55,0-13.745-5.63-13.745-15.787v-26.186L-27.275-17.431L-27.275-17.431z"/>
	</g>
	<polygon fill="#231F20" points="13.991,-10.562 7.123,-10.562 7.123,-17.435 27.734,-17.435 27.734,-10.562 20.863,-10.562 
		20.863,16.987 27.734,16.987 27.734,23.858 7.123,23.858 7.123,16.987 13.991,16.987 	"/>
	<g>
		<path fill="#231F20" d="M48.392,16.99h2.789c6.001,0,10.955-6.193,10.955-13.744c0-7.613-4.953-13.805-10.955-13.805h-2.789V16.99
			z M41.524-17.431h9.66c10.214,0,18.57,9.224,18.57,20.678c0,11.391-8.355,20.615-18.57,20.615h-9.66V-17.431z"/>
	</g>
	<polygon fill="#231F20" points="82.793,-17.431 103.412,-17.431 103.412,-10.559 89.663,-10.559 89.663,-2.264 103.412,-2.264 
		103.412,4.605 89.663,4.605 89.663,16.99 103.412,16.99 103.412,23.862 82.793,23.862 	"/>
	<g>
		<path fill="#231F20" d="M126.665,24.542c-4.455,0-7.801-1.426-11.633-4.396l0.799-6.131c4.148,2.229,7.553,3.653,11.081,3.653
			c3.101,0,7.062-1.673,7.062-5.016c0-7.861-19.505-4.829-19.505-18.633c0-7.18,6.317-12.133,13.625-12.133
			c4.638,0,7.798,1.607,12.064,4.953l-2.162,5.448c-2.919-1.917-6.376-3.59-9.661-3.59c-4.152,0-6.691,2.228-6.691,4.705
			c0,7.367,19.57,5.508,19.57,18.2C141.221,20.083,134.092,24.542,126.665,24.542"/>
	</g>
	<polyline fill="none" stroke="#FFFFFF" stroke-width="5.1766" stroke-linecap="round" stroke-linejoin="round" points="
		152.645,85.009 183.712,85.009 183.712,222.835 -74.954,222.835 -74.954,85.009 95.762,85.009 	"/>
	<polygon fill="none" stroke="#231F20" stroke-width="7.763" stroke-linecap="round" stroke-linejoin="round" points="
		125.25,76.839 88.118,112.087 163.069,112.087 	"/>
	<polygon fill="#231F20" points="149.967,205.925 149.967,157.714 127.037,193.931 123.893,193.931 100.963,157.714 
		100.963,205.925 85.866,205.925 85.866,125.937 98.832,125.937 125.465,168.026 152.102,125.937 165.059,125.937 165.059,205.925 	
		"/>
	<polygon fill="none" stroke="#231F20" stroke-width="2.0056" stroke-linecap="round" stroke-linejoin="round" points="
		149.967,205.925 149.967,157.714 127.037,193.931 123.893,193.931 100.963,157.714 100.963,205.925 85.866,205.925 85.866,125.937 
		98.832,125.937 125.465,168.026 152.102,125.937 165.059,125.937 165.059,205.925 	"/>
</g>
</svg>
