<?xml version="1.0" encoding="utf-8"?>
<!-- Generator: Adobe Illustrator 16.0.0, SVG Export Plug-In . SVG Version: 6.00 Build 0)  -->
<!DOCTYPE svg PUBLIC "-//W3C//DTD SVG 1.1//EN" "http://www.w3.org/Graphics/SVG/1.1/DTD/svg11.dtd">
<svg version="1.1" id="Layer_1" xmlns="http://www.w3.org/2000/svg" xmlns:xlink="http://www.w3.org/1999/xlink" x="0px" y="0px"
	 width="400px" height="273px" viewBox="5.458 461 400 273" enable-background="new 5.458 461 400 273" xml:space="preserve">
<rect x="5.458" y="461" fill="#AEAE36" width="399.999" height="273"/>
<g>
	<polygon fill="#231F20" points="133.652,524.413 133.652,506.984 126.67,520.077 125.723,520.077 118.74,506.984 118.74,524.413 
		114.142,524.413 114.142,495.493 118.09,495.493 126.198,510.713 134.303,495.493 138.251,495.493 138.251,524.413 	"/>
	<g>
		<path fill="#231F20" d="M152.666,495.493v18.341c0,4.205,2.174,6.243,4.817,6.243c2.642,0,4.81-2.038,4.81-6.243v-18.341h4.857
			v18.341c0,7.11-4.335,11.056-9.667,11.056c-5.289,0-9.63-3.945-9.63-11.056v-18.341H152.666z"/>
		<path fill="#231F20" d="M183.396,524.89c-3.125,0-5.464-0.999-8.155-3.078l0.564-4.293c2.903,1.562,5.29,2.559,7.764,2.559
			c2.166,0,4.942-1.174,4.942-3.513c0-5.507-13.66-3.383-13.66-13.053c0-5.027,4.425-8.495,9.54-8.495
			c3.25,0,5.464,1.127,8.46,3.468l-1.52,3.815c-2.038-1.344-4.467-2.516-6.769-2.516c-2.903,0-4.677,1.562-4.677,3.295
			c0,5.16,13.697,3.86,13.697,12.751C193.583,521.771,188.596,524.89,183.396,524.89"/>
	</g>
	<polygon fill="#231F20" points="200.857,495.493 215.293,495.493 215.293,500.306 205.667,500.306 205.667,506.115 
		215.293,506.115 215.293,510.928 205.667,510.928 205.667,519.598 215.293,519.598 215.293,524.413 200.857,524.413 	"/>
	<polygon fill="#231F20" points="220.138,495.493 225.685,495.493 232.189,507.375 238.694,495.493 244.243,495.493 
		234.579,512.837 234.579,524.413 229.758,524.413 229.758,512.837 	"/>
	<g>
		<path fill="#231F20" d="M258.669,520.077c3.254,0,5.027-4.597,5.027-10.102c0-5.55-1.773-10.146-5.027-10.146
			c-3.208,0-4.986,4.597-4.986,10.146C253.683,515.48,255.461,520.077,258.669,520.077 M258.669,495.017
			c6.502,0,10.145,6.761,10.145,14.956c0,8.196-3.643,14.917-10.145,14.917c-6.506,0-10.104-6.721-10.104-14.917
			C248.566,501.777,252.164,495.017,258.669,495.017"/>
	</g>
	<polygon fill="#231F20" points="292.906,495.493 297.249,495.493 297.249,524.413 293.603,524.413 282.287,505.943 
		282.287,524.413 277.947,524.413 277.947,495.493 281.547,495.493 292.906,513.964 	"/>
	<g>
		<path fill="#231F20" d="M129.099,554.514h-4.853v-4.812h9.665v14.438h-1.472l-1.002-1.779c-1.771,1.429-3.943,2.254-6.067,2.254
			c-6.98,0-11.708-6.717-11.708-14.912s4.728-14.959,11.708-14.959c3.426,0,6.981,2.211,8.931,5.549l-2.863,2.689
			c-1.862-2.387-3.729-3.429-5.762-3.429c-3.644,0-6.727,3.863-6.727,10.149c0,6.241,3.083,10.1,6.727,10.1
			c1.166,0,2.296-0.345,3.423-1.124V554.514z"/>
		<path fill="#231F20" d="M147.861,535.22v18.34c0,4.205,2.171,6.241,4.812,6.241c2.644,0,4.812-2.036,4.812-6.241v-18.34h4.857
			v18.34c0,7.11-4.338,11.054-9.67,11.054c-5.287,0-9.627-3.943-9.627-11.054v-18.34H147.861z"/>
	</g>
	<polygon fill="#231F20" points="176.762,540.029 171.953,540.029 171.953,535.214 186.39,535.214 186.39,540.029 181.578,540.029 
		181.578,559.323 186.39,559.323 186.39,564.136 171.953,564.136 171.953,559.323 176.762,559.323 	"/>
	<g>
		<path fill="#231F20" d="M200.857,559.326h1.954c4.202,0,7.673-4.338,7.673-9.625c0-5.332-3.471-9.67-7.673-9.67h-1.954V559.326z
			 M196.046,535.22h6.767c7.153,0,13.006,6.458,13.006,14.481c0,7.976-5.853,14.438-13.006,14.438h-6.767V535.22z"/>
	</g>
	<polygon fill="#231F20" points="224.951,535.22 239.39,535.22 239.39,540.031 229.761,540.031 229.761,545.841 239.39,545.841 
		239.39,550.65 229.761,550.65 229.761,559.326 239.39,559.326 239.39,564.139 224.951,564.139 	"/>
	<g>
		<path fill="#231F20" d="M255.676,564.613c-3.12,0-5.464-0.997-8.147-3.078l0.56-4.293c2.905,1.562,5.289,2.559,7.761,2.559
			c2.171,0,4.944-1.172,4.944-3.513c0-5.508-13.66-3.384-13.66-13.051c0-5.029,4.426-8.498,9.543-8.498
			c3.248,0,5.462,1.125,8.45,3.469l-1.515,3.817c-2.044-1.344-4.465-2.516-6.766-2.516c-2.909,0-4.688,1.562-4.688,3.295
			c0,5.16,13.707,3.858,13.707,12.748C265.871,561.492,260.878,564.613,255.676,564.613"/>
	</g>
	<polyline fill="none" stroke="#FFFFFF" stroke-width="3.6255" stroke-linecap="round" stroke-linejoin="round" points="
		273.872,606.965 295.632,606.965 295.632,703.494 114.469,703.494 114.469,606.965 234.034,606.965 	"/>
	<polygon fill="none" stroke="#231F20" stroke-width="5.437" stroke-linecap="round" stroke-linejoin="round" points="
		254.685,601.243 228.679,625.93 281.172,625.93 	"/>
	<polygon fill="#231F20" points="271.998,691.65 271.998,657.884 255.936,683.25 253.735,683.25 237.676,657.884 237.676,691.65 
		227.102,691.65 227.102,635.629 236.182,635.629 254.837,665.107 273.492,635.629 282.567,635.629 282.567,691.65 	"/>
	<polygon fill="none" stroke="#231F20" stroke-width="1.4047" stroke-linecap="round" stroke-linejoin="round" points="
		271.998,691.65 271.998,657.884 255.936,683.25 253.735,683.25 237.676,657.884 237.676,691.65 227.102,691.65 227.102,635.629 
		236.182,635.629 254.837,665.107 273.492,635.629 282.567,635.629 282.567,691.65 	"/>
</g>
</svg>
