<?xml version="1.0" encoding="UTF-8" standalone="no"?>
<!DOCTYPE svg PUBLIC "-//W3C//DTD SVG 1.1//EN" "http://www.w3.org/Graphics/SVG/1.1/DTD/svg11.dtd">
<svg width="100%" height="100%" viewBox="0 0 431 431" version="1.1" xmlns="http://www.w3.org/2000/svg" xmlns:xlink="http://www.w3.org/1999/xlink" xml:space="preserve" style="fill-rule:evenodd;clip-rule:evenodd;stroke-linejoin:round;stroke-miterlimit:1.41421;">
    <path d="M412.859,0.058C422.352,0.059 430.059,7.766 430.059,17.258L430.059,412.859C430.059,422.351 422.351,430.059 412.859,430.059L17.258,430.059C7.766,430.059 0.059,422.351 0.059,412.859L0.059,17.258C0.059,7.766 7.765,0.059 17.258,0.058L412.859,0.058ZM388.675,380.959L388.675,252.585C388.675,183.818 351.955,151.819 302.974,151.82C263.439,151.82 245.777,173.58 235.886,188.813L235.886,189.537L235.397,189.537C235.539,189.307 235.735,189.051 235.886,188.813L235.886,157.079L161.446,157.079C162.448,178.097 161.446,380.959 161.446,380.959L235.894,380.959L235.894,255.93C235.894,249.231 236.399,242.57 238.362,237.785C243.746,224.398 255.984,210.559 276.548,210.559C303.487,210.559 314.251,231.094 314.251,261.183L314.251,380.959L388.675,380.959ZM120.284,157.079L45.864,157.079L45.864,380.959L120.284,380.959L120.284,157.079ZM83.57,49.158C58.101,49.158 41.442,65.864 41.442,87.832C41.442,109.321 57.619,126.534 82.581,126.534L83.079,126.534C109.041,126.534 125.187,109.324 125.187,87.832C124.697,65.864 109.041,49.158 83.57,49.158Z" style="fill:#fff;"/>
</svg>
