<?xml version="1.0" encoding="UTF-8" standalone="no"?>
<!DOCTYPE svg PUBLIC "-//W3C//DTD SVG 1.1//EN" "http://www.w3.org/Graphics/SVG/1.1/DTD/svg11.dtd">
<svg width="100%" height="100%" viewBox="0 0 400 273" version="1.1" xmlns="http://www.w3.org/2000/svg" xmlns:xlink="http://www.w3.org/1999/xlink" xml:space="preserve" style="fill-rule:evenodd;clip-rule:evenodd;stroke-linejoin:round;stroke-miterlimit:1.41421;">
    <g id="XMLID_144_">
        <rect x="-70.7" y="-45" width="546.5" height="378.4" style="fill:rgb(0,97,176);"/>
        <rect x="192.2" y="-54.1" width="6" height="458.9" style="fill:white;"/>
        <rect x="-119" y="146.3" width="640" height="6" style="fill:white;"/>
        <g>
            <g id="XMLID_154_">
                <clipPath id="_clip1">
                    <path id="XMLID_155_" d="M126.4,302.6C75.4,302.6 34,261.2 34,210.2C34,159.2 75.4,117.8 126.4,117.8C177.4,117.8 218.8,159.2 218.8,210.2C218.8,261.2 177.4,302.6 126.4,302.6"/>
                </clipPath>
                <g clip-path="url(#_clip1)">
                    <path d="M218.8,302.6L34,302.6L34,117.9L218.8,117.9L218.8,302.6" style="fill:rgb(255,130,0);fill-rule:nonzero;"/>
                </g>
                <clipPath id="_clip2">
                    <path d="M126.4,302.6C75.4,302.6 34,261.2 34,210.2C34,159.2 75.4,117.8 126.4,117.8C177.4,117.8 218.8,159.2 218.8,210.2C218.8,261.2 177.4,302.6 126.4,302.6"/>
                </clipPath>
                <g clip-path="url(#_clip2)">
                    <path d="M139.138,265.667L139.1,265.1C150.4,267.3 159,277.4 159,289.4L159,296.7C148.9,300.5 137.9,302.6 126.4,302.6C113.7,302.6 101.5,300 90.4,295.3L90.4,289.4C90.4,277.4 98.9,267.4 110.3,265.1L110.9,254.8L110.934,254.246C110.9,254.222 110.866,254.197 110.832,254.172L110.8,254.7C101.529,250.912 93.848,243.646 90.135,234.288C85.036,233.318 77.494,223.766 76.2,215.7C75.4,210.4 76.7,206 79.1,203.6C79.204,203.654 79.309,203.707 79.413,203.758C79.41,203.705 79.408,203.652 79.406,203.598C79.271,203.534 79.136,203.468 79,203.4C75.2,201.5 71,198 66.7,192.1C66.7,192.1 68.4,193.1 71.5,193.1C73.386,193.1 75.665,192.805 78.436,191.823L78.4,191.8C75.1,189.8 71.6,186.5 67.9,181.5C67.9,181.5 69.6,182.5 72.7,182.5C75,182.5 78.2,182 82.1,180.2L82.14,180.017C83.86,172.283 87.66,164.859 95.3,159.6C103.8,153.7 112,151.7 119.1,151.7C127.5,151.7 134.5,154.5 139,156.7C139.044,156.722 139.082,156.744 139.118,156.765C139.37,156.808 139.585,156.828 139.8,156.9C139.728,156.9 139.603,156.952 139.464,156.981L139.477,156.988C139.586,156.962 139.743,156.9 139.9,156.9C141,156.7 142.3,156.6 143.6,156.6C147.9,156.6 152.9,157.7 158.3,161.3C172.2,170.6 168.7,190.6 168.7,190.6C168.7,190.6 168.206,196.229 166.532,201.599C166.554,201.6 166.577,201.6 166.6,201.6C170.9,202.4 174.1,208.1 172.9,215.6C171.7,223.4 164.6,232.6 159.5,234.1C159.428,234.114 159.355,234.129 159.283,234.143C155.589,243.689 147.839,251.055 138.398,254.762L138.4,254.8L139.1,265.1L139.13,265.665L139.138,265.667ZM82.261,180.124L82.276,180.117L82.312,180.1L82.382,180.067L82.425,180.046L82.453,180.033L82.482,180.019L82.525,179.998L82.596,179.964L82.631,179.947L82.647,179.939L82.667,179.929L82.81,179.859L82.647,179.939L82.596,179.964L82.482,180.019L82.425,180.046L82.312,180.1L82.261,180.124Z" style="fill:rgb(173,98,20);"/>
                </g>
            </g>
            <path id="XMLID_152_" d="M126.4,302.6L126.4,297.7C102.2,297.7 80.4,287.9 64.5,272.1C48.7,256.3 38.9,234.4 38.9,210.2C38.9,186 48.7,164.2 64.5,148.3C80.3,132.5 102.2,122.7 126.4,122.7C150.6,122.7 172.4,132.5 188.3,148.3C204.1,164.1 213.9,186 213.9,210.2C213.9,234.4 204.1,256.2 188.3,272.1C172.5,287.9 150.6,297.7 126.4,297.7L126.4,307.5C153.2,307.5 177.6,296.6 195.2,279C212.8,261.4 223.7,237.1 223.7,210.2C223.7,183.4 212.8,159 195.2,141.4C177.6,123.8 153.3,112.9 126.4,112.9C99.6,112.9 75.2,123.8 57.6,141.4C40,159 29.1,183.3 29.1,210.2C29.1,237 40,261.4 57.6,279C75.2,296.6 99.5,307.5 126.4,307.5L126.4,302.6L126.4,302.6Z" style="fill:white;fill-rule:nonzero;"/>
        </g>
        <circle id="XMLID_167_" cx="97.9" cy="84" r="14.6" style="fill:white;"/>
        <circle id="XMLID_168_" cx="135.6" cy="75.7" r="14.6" style="fill:white;"/>
        <path id="XMLID_169_" d="M112.7,84L109.1,84L109.1,30.4L150.2,22.4L150.2,76L146.6,76L146.6,34.2L112.7,40.8L112.7,84Z" style="fill:white;fill-rule:nonzero;"/>
        <path id="XMLID_170_" d="M325.1,237C314.2,228 298.5,228 287.6,237C287.6,222.6 287.6,208.2 287.6,193.8C298.5,184.8 314.2,184.8 325.1,193.8C325.1,208.2 325.1,222.6 325.1,237Z" style="fill:white;fill-rule:nonzero;"/>
        <path id="XMLID_171_" d="M282.7,237C271.8,228 256.1,228 245.2,237C245.2,222.6 245.2,208.2 245.2,193.8C256.1,184.8 271.8,184.8 282.7,193.8C282.7,208.2 282.7,222.6 282.7,237Z" style="fill:white;fill-rule:nonzero;"/>
        <g>
            <path id="XMLID_172_" d="M297.5,62.9L279.3,61L267.8,39.2L275.5,23.6C291.4,21.6 307.6,28.3 317.3,41.7L316.5,49.9L297.5,62.9Z" style="fill:white;fill-rule:nonzero;"/>
            <path id="XMLID_173_" d="M247.6,38.2L265,40.7L276.5,62.5L267.8,78.6L245.9,87.1L238.7,83.1C233.2,67.5 236.8,50.2 247.6,38.2Z" style="fill:white;fill-rule:nonzero;"/>
            <path id="XMLID_174_" d="M300.1,65L318.6,52.3L323.9,54.6C328.1,67.9 325.7,82.3 318.1,93.5L302.8,82.6L300.1,65Z" style="fill:white;fill-rule:nonzero;"/>
            <path id="XMLID_175_" d="M268.1,82L280.7,93.6L281.1,113C267.6,113 254.5,106.8 245.9,95.8L247,90.1L268.1,82Z" style="fill:white;fill-rule:nonzero;"/>
            <path id="XMLID_176_" d="M316.2,96.2C312.5,100.9 307.7,104.9 302.1,107.9C296.4,110.9 290.3,112.6 284.3,113L284,94.7L301.3,85.6L316.2,96.2Z" style="fill:white;fill-rule:nonzero;"/>
        </g>
    </g>
</svg>
