<?xml version="1.0" encoding="utf-8"?>
<!-- Generator: Adobe Illustrator 19.2.1, SVG Export Plug-In . SVG Version: 6.00 Build 0)  -->
<!DOCTYPE svg PUBLIC "-//W3C//DTD SVG 1.1//EN" "http://www.w3.org/Graphics/SVG/1.1/DTD/svg11.dtd">
<svg version="1.1" id="Layer_1" xmlns="http://www.w3.org/2000/svg" xmlns:xlink="http://www.w3.org/1999/xlink" x="0px" y="0px"
	 viewBox="0 0 400 273" style="enable-background:new 0 0 400 273;" xml:space="preserve">
<style type="text/css">
	.st0{fill:#AEAE36;}
	.st1{fill:#231F20;}
	.st2{fill:none;stroke:#FFFFFF;stroke-width:3.6255;stroke-linecap:round;stroke-linejoin:round;}
	.st3{fill:none;stroke:#231F20;stroke-width:5.437;stroke-linecap:round;stroke-linejoin:round;}
	.st4{fill:none;stroke:#231F20;stroke-width:1.4047;stroke-linecap:round;stroke-linejoin:round;}
	.st5{fill:#0061B0;}
	.st6{fill:none;stroke:#FFFFFF;stroke-width:6;stroke-miterlimit:10;}
	.st7{clip-path:url(#XMLID_28_);fill:#FF8200;}
	.st8{clip-path:url(#XMLID_28_);fill:#AD6214;}
	.st9{fill:#FFFFFF;}
	.st10{fill:#0072CE;}
	.st11{clip-path:url(#XMLID_29_);fill:#FF8200;}
	.st12{clip-path:url(#XMLID_29_);fill:#AD6214;}
</style>
<rect x="5.5" y="461" class="st0" width="400" height="273"/>
<g>
	<polygon class="st1" points="133.7,524.4 133.7,507 126.7,520.1 125.7,520.1 118.7,507 118.7,524.4 114.1,524.4 114.1,495.5 
		118.1,495.5 126.2,510.7 134.3,495.5 138.3,495.5 138.3,524.4 	"/>
	<g>
		<path class="st1" d="M152.7,495.5v18.3c0,4.2,2.2,6.2,4.8,6.2c2.6,0,4.8-2,4.8-6.2v-18.3h4.9v18.3c0,7.1-4.3,11.1-9.7,11.1
			c-5.3,0-9.6-3.9-9.6-11.1v-18.3L152.7,495.5L152.7,495.5z"/>
		<path class="st1" d="M183.4,524.9c-3.1,0-5.5-1-8.2-3.1l0.6-4.3c2.9,1.6,5.3,2.6,7.8,2.6c2.2,0,4.9-1.2,4.9-3.5
			c0-5.5-13.7-3.4-13.7-13.1c0-5,4.4-8.5,9.5-8.5c3.2,0,5.5,1.1,8.5,3.5l-1.5,3.8c-2-1.3-4.5-2.5-6.8-2.5c-2.9,0-4.7,1.6-4.7,3.3
			c0,5.2,13.7,3.9,13.7,12.8C193.6,521.8,188.6,524.9,183.4,524.9"/>
	</g>
	<polygon class="st1" points="200.9,495.5 215.3,495.5 215.3,500.3 205.7,500.3 205.7,506.1 215.3,506.1 215.3,510.9 205.7,510.9 
		205.7,519.6 215.3,519.6 215.3,524.4 200.9,524.4 	"/>
	<polygon class="st1" points="220.1,495.5 225.7,495.5 232.2,507.4 238.7,495.5 244.2,495.5 234.6,512.8 234.6,524.4 229.8,524.4 
		229.8,512.8 	"/>
	<g>
		<path class="st1" d="M258.7,520.1c3.3,0,5-4.6,5-10.1c0-5.5-1.8-10.1-5-10.1c-3.2,0-5,4.6-5,10.1
			C253.7,515.5,255.5,520.1,258.7,520.1 M258.7,495c6.5,0,10.1,6.8,10.1,15c0,8.2-3.6,14.9-10.1,14.9c-6.5,0-10.1-6.7-10.1-14.9
			C248.6,501.8,252.2,495,258.7,495"/>
	</g>
	<polygon class="st1" points="292.9,495.5 297.2,495.5 297.2,524.4 293.6,524.4 282.3,505.9 282.3,524.4 277.9,524.4 277.9,495.5 
		281.5,495.5 292.9,514 	"/>
	<g>
		<path class="st1" d="M129.1,554.5h-4.9v-4.8h9.7v14.4h-1.5l-1-1.8c-1.8,1.4-3.9,2.3-6.1,2.3c-7,0-11.7-6.7-11.7-14.9
			s4.7-15,11.7-15c3.4,0,7,2.2,8.9,5.5l-2.9,2.7c-1.9-2.4-3.7-3.4-5.8-3.4c-3.6,0-6.7,3.9-6.7,10.1c0,6.2,3.1,10.1,6.7,10.1
			c1.2,0,2.3-0.3,3.4-1.1L129.1,554.5L129.1,554.5z"/>
		<path class="st1" d="M147.9,535.2v18.3c0,4.2,2.2,6.2,4.8,6.2c2.6,0,4.8-2,4.8-6.2v-18.3h4.9v18.3c0,7.1-4.3,11.1-9.7,11.1
			c-5.3,0-9.6-3.9-9.6-11.1v-18.3H147.9z"/>
	</g>
	<polygon class="st1" points="176.8,540 172,540 172,535.2 186.4,535.2 186.4,540 181.6,540 181.6,559.3 186.4,559.3 186.4,564.1 
		172,564.1 172,559.3 176.8,559.3 	"/>
	<g>
		<path class="st1" d="M200.9,559.3h2c4.2,0,7.7-4.3,7.7-9.6c0-5.3-3.5-9.7-7.7-9.7h-2V559.3z M196,535.2h6.8c7.2,0,13,6.5,13,14.5
			c0,8-5.9,14.4-13,14.4H196V535.2z"/>
	</g>
	<polygon class="st1" points="225,535.2 239.4,535.2 239.4,540 229.8,540 229.8,545.8 239.4,545.8 239.4,550.7 229.8,550.7 
		229.8,559.3 239.4,559.3 239.4,564.1 225,564.1 	"/>
	<g>
		<path class="st1" d="M255.7,564.6c-3.1,0-5.5-1-8.1-3.1l0.6-4.3c2.9,1.6,5.3,2.6,7.8,2.6c2.2,0,4.9-1.2,4.9-3.5
			c0-5.5-13.7-3.4-13.7-13.1c0-5,4.4-8.5,9.5-8.5c3.2,0,5.5,1.1,8.5,3.5l-1.5,3.8c-2-1.3-4.5-2.5-6.8-2.5c-2.9,0-4.7,1.6-4.7,3.3
			c0,5.2,13.7,3.9,13.7,12.7C265.9,561.5,260.9,564.6,255.7,564.6"/>
	</g>
	<polyline class="st2" points="273.9,607 295.6,607 295.6,703.5 114.5,703.5 114.5,607 234,607 	"/>
	<polygon class="st3" points="254.7,601.2 228.7,625.9 281.2,625.9 	"/>
	<polygon class="st1" points="272,691.7 272,657.9 255.9,683.2 253.7,683.2 237.7,657.9 237.7,691.7 227.1,691.7 227.1,635.6 
		236.2,635.6 254.8,665.1 273.5,635.6 282.6,635.6 282.6,691.7 	"/>
	<polygon class="st4" points="272,691.7 272,657.9 255.9,683.2 253.7,683.2 237.7,657.9 237.7,691.7 227.1,691.7 227.1,635.6 
		236.2,635.6 254.8,665.1 273.5,635.6 282.6,635.6 282.6,691.7 	"/>
</g>
<g id="XMLID_144_">
	<rect x="-70.7" y="-45" class="st5" width="546.5" height="378.4"/>
	<line class="st6" x1="195.2" y1="404.8" x2="195.2" y2="-54.1"/>
	<line class="st6" x1="521" y1="149.3" x2="-119" y2="149.3"/>
	<g>
		<g id="XMLID_154_">
			<defs>
				<path id="XMLID_153_" d="M126.4,302.6c-51,0-92.4-41.4-92.4-92.4s41.4-92.4,92.4-92.4s92.4,41.4,92.4,92.4
					S177.4,302.6,126.4,302.6"/>
			</defs>
			<clipPath id="XMLID_28_">
				<use xlink:href="#XMLID_153_"  style="overflow:visible;"/>
			</clipPath>
			<polyline id="XMLID_155_" class="st7" points="218.8,302.6 34,302.6 34,117.9 218.8,117.9 218.8,302.6 			"/>
			<path id="XMLID_156_" class="st8" d="M110.3,265.1c-11.4,2.3-19.9,12.3-19.9,24.3v5.9c11.1,4.7,23.3,7.3,36,7.3l0,0
				c11.5,0,22.5-2.1,32.6-5.9v-7.3c0-12-8.6-22.1-19.9-24.3l0.5,7.5h-29.8L110.3,265.1"/>
			<path id="XMLID_159_" class="st8" d="M137.9,172.4l-16.5,38.7l-26.4,5.3c0.1,0.3,0.1,0.7,0.2,1c1.4,8.8,1.3,16.1-3.8,16.9
				c-0.2,0-0.4,0-0.6,0c-0.2,0-0.5,0-0.7-0.1c3.7,9.4,11.4,16.7,20.7,20.5l0.6-9.8h26.3l0.6,9.9c9.5-3.7,17.3-11.1,21-20.7
				c-0.5,0.1-0.9,0.2-1.4,0.2c-0.2,0-0.4,0-0.6,0c-5.1-0.8-5.2-8.1-3.8-16.9c0.7-4.3,1.9-7.9,3.5-10.6
				C151.7,200.2,143.5,184,137.9,172.4 M138.8,156.7c0.2,0.1,0.3,0.2,0.5,0.3c0.2,0,0.4-0.1,0.5-0.1
				C139.5,156.8,139.2,156.8,138.8,156.7"/>
			<polyline id="XMLID_160_" class="st8" points="137.8,244.9 111.5,244.9 110.9,254.8 110.3,265.1 109.8,272.6 139.5,272.6 
				139.1,265.1 138.4,254.8 137.8,244.9 			"/>
			<path id="XMLID_161_" class="st8" d="M119.1,151.7c-7.1,0-15.3,2-23.8,7.9c-7.7,5.3-11.5,12.8-13.2,20.6c3-1.4,6.4-3.5,10.2-6.7
				c2.8-2.3,4.8-3.3,6.2-3.3c4.5,0,3.2,9.7,1.9,15.8c0.3,6.1-2.4,15.6-2.4,15.6s-2.8,2.7-7.3,3.7c2.1,2.6,3.6,6.4,4.5,11.1l26.4-5.3
				l16.5-38.7c-3.5-7.4-6-12.9-6-12.9s2.9-1.7,7.4-2.5c-0.2-0.1-0.3-0.2-0.5-0.3C134.5,154.5,127.5,151.7,119.1,151.7"/>
			<path id="XMLID_162_" class="st8" d="M143.6,156.6c-1.3,0-2.6,0.1-3.7,0.3c-0.2,0-0.4,0.1-0.5,0.1c-4.5,0.8-7.4,2.5-7.4,2.5
				s2.5,5.5,6,12.9c5.6,11.6,13.8,27.8,19.2,34.5c1.8-2.8,4.1-4.7,6.9-5.2c0.4-0.1,0.8-0.1,1.2-0.1c0.4,0,0.8,0,1.2,0.1
				c1.7-5.4,2.2-11.1,2.2-11.1s3.5-20-10.4-29.3C152.9,157.7,147.9,156.6,143.6,156.6"/>
			<path id="XMLID_163_" class="st8" d="M79.1,203.6c-2.4,2.4-3.7,6.8-2.9,12.1c1.3,8.1,8.9,17.7,14,18.6c0.3,0,0.5,0.1,0.7,0.1
				c0.2,0,0.4,0,0.6,0c5.1-0.8,5.2-8.1,3.8-16.9c-0.1-0.4-0.1-0.7-0.2-1c-0.8-4.7-2.3-8.5-4.5-11.1c-1,0.2-2.2,0.4-3.4,0.4
				C84.8,205.7,82,205.1,79.1,203.6"/>
			<path id="XMLID_164_" class="st8" d="M165.3,201.5c-0.4,0-0.8,0-1.2,0.1c-2.8,0.5-5.1,2.4-6.9,5.2c-1.7,2.7-2.9,6.3-3.5,10.6
				c-1.4,8.8-1.3,16.1,3.8,16.9c0.2,0,0.4,0,0.6,0c0.4,0,0.9-0.1,1.4-0.2c5.1-1.5,12.2-10.7,13.4-18.5c1.2-7.5-2-13.2-6.3-14
				C166.1,201.6,165.7,201.5,165.3,201.5"/>
			<path id="XMLID_165_" class="st8" d="M100.4,186c-0.6,2.8-1.2,4.9-1.2,4.9s-4.2,4-10.7,4c-2.9,0-6.3-0.8-10-3.1
				c-2.8,1-5.1,1.3-7,1.3c-3.1,0-4.8-1-4.8-1c4.3,5.9,8.5,9.4,12.3,11.3c3,1.5,5.8,2.1,8.2,2.1c1.2,0,2.3-0.1,3.4-0.4
				c4.6-1,7.3-3.7,7.3-3.7S100.7,192.1,100.4,186"/>
			<path id="XMLID_166_" class="st8" d="M98.5,170.2c-1.4,0-3.4,1-6.2,3.3c-3.8,3.2-7.2,5.3-10.2,6.7c-3.9,1.8-7.1,2.3-9.4,2.3
				c-3.1,0-4.8-1-4.8-1c3.7,5,7.2,8.3,10.5,10.3c3.7,2.3,7.1,3.1,10,3.1c6.5,0,10.7-4,10.7-4s0.6-2.1,1.2-4.9
				C101.7,179.9,103.1,170.2,98.5,170.2"/>
		</g>
		<path id="XMLID_152_" class="st9" d="M126.4,302.6v-4.9h0c-24.2,0-46-9.8-61.9-25.6c-15.8-15.8-25.6-37.7-25.6-61.9
			c0-24.2,9.8-46,25.6-61.9c15.8-15.8,37.7-25.6,61.9-25.6h0c24.2,0,46,9.8,61.9,25.6c15.8,15.8,25.6,37.7,25.6,61.9
			c0,24.2-9.8,46-25.6,61.9c-15.8,15.8-37.7,25.6-61.9,25.6V302.6v4.9c26.8,0,51.2-10.9,68.8-28.5c17.6-17.6,28.5-41.9,28.5-68.8
			c0-26.8-10.9-51.2-28.5-68.8c-17.6-17.6-41.9-28.5-68.8-28.5h0c-26.8,0-51.2,10.9-68.8,28.5c-17.6,17.6-28.5,41.9-28.5,68.8
			c0,26.8,10.9,51.2,28.5,68.8c17.6,17.6,41.9,28.5,68.8,28.5h0V302.6z"/>
	</g>
	<circle id="XMLID_167_" class="st9" cx="97.9" cy="84" r="14.6"/>
	<circle id="XMLID_168_" class="st9" cx="135.6" cy="75.7" r="14.6"/>
	<polygon id="XMLID_169_" class="st9" points="112.7,84 109.1,84 109.1,30.4 150.2,22.4 150.2,76 146.6,76 146.6,34.2 112.7,40.8 	
		"/>
	<path id="XMLID_170_" class="st9" d="M325.1,237c-10.9-9-26.6-9-37.5,0c0-14.4,0-28.8,0-43.2c10.9-9,26.6-9,37.5,0
		C325.1,208.2,325.1,222.6,325.1,237z"/>
	<path id="XMLID_171_" class="st9" d="M282.7,237c-10.9-9-26.6-9-37.5,0c0-14.4,0-28.8,0-43.2c10.9-9,26.6-9,37.5,0
		C282.7,208.2,282.7,222.6,282.7,237z"/>
	<g>
		<path id="XMLID_172_" class="st9" d="M297.5,62.9L279.3,61l-11.5-21.8l7.7-15.6c15.9-2,32.1,4.7,41.8,18.1l-0.8,8.2L297.5,62.9z"
			/>
		<path id="XMLID_173_" class="st9" d="M247.6,38.2l17.4,2.5l11.5,21.8l-8.7,16.1l-21.9,8.5l-7.2-4
			C233.2,67.5,236.8,50.2,247.6,38.2z"/>
		<path id="XMLID_174_" class="st9" d="M300.1,65l18.5-12.7l5.3,2.3c4.2,13.3,1.8,27.7-5.8,38.9l-15.3-10.9L300.1,65z"/>
		<path id="XMLID_175_" class="st9" d="M268.1,82l12.6,11.6l0.4,19.4c-13.5,0-26.6-6.2-35.2-17.2l1.1-5.7L268.1,82z"/>
		<path id="XMLID_176_" class="st9" d="M316.2,96.2c-3.7,4.7-8.5,8.7-14.1,11.7c-5.7,3-11.8,4.7-17.8,5.1l-0.3-18.3l17.3-9.1
			L316.2,96.2z"/>
	</g>
</g>
<g id="XMLID_1_">
	<path id="XMLID_146_" class="st10" d="M557.4-191c9.9,6.2,16.5,17.2,16.5,29.7c0,12.9-7,24.2-17.4,30.3h61.3
		c5.9,0,10.6-4.8,10.6-10.6V-191H557.4z"/>
	<path id="XMLID_147_" class="st9" d="M557.4-191l-1,1.7c4.7,2.9,8.5,7,11.3,11.8c2.7,4.8,4.3,10.3,4.3,16.2
		c0,6.1-1.7,11.8-4.5,16.7c-2.9,4.9-7,9-11.9,11.9l-6.3,3.7h68.5c3.5,0,6.6-1.4,8.9-3.7c2.3-2.3,3.7-5.4,3.7-8.9V-193h-79.7l5.8,3.6
		L557.4-191v2h69v47.3c0,2.4-1,4.6-2.5,6.1c-1.6,1.6-3.7,2.5-6.1,2.5h-61.3v2l1,1.7c5.5-3.2,10.1-7.8,13.3-13.3
		c3.2-5.5,5.1-11.9,5.1-18.7c0-6.6-1.7-12.8-4.8-18.2c-3-5.4-7.4-9.9-12.6-13.2L557.4-191v2V-191"/>
	<path id="XMLID_148_" class="st10" d="M538.8-196.3L538.8-196.3c12.5,0,23.5,6.6,29.7,16.5v-71h-49.3c-5.9,0-10.6,4.8-10.6,10.6
		v61.3C514.6-189.3,525.9-196.3,538.8-196.3z"/>
	<path id="XMLID_149_" class="st9" d="M538.8-196.3v2c5.9,0,11.4,1.6,16.2,4.3c4.8,2.7,8.8,6.6,11.8,11.3l3.6,5.8v-79.8h-51.3
		c-3.5,0-6.6,1.4-8.9,3.7c-2.3,2.3-3.7,5.4-3.7,8.9v68.6l3.7-6.3c2.9-4.9,7-9,11.9-11.9c4.9-2.9,10.6-4.5,16.7-4.5V-196.3v-2
		c-6.8,0-13.2,1.9-18.7,5.1c-5.5,3.2-10.1,7.8-13.3,13.3l1.7,1h2v-61.3c0-2.4,1-4.6,2.5-6.1c1.6-1.6,3.7-2.5,6.1-2.5h47.3v69h2
		l1.7-1c-3.3-5.2-7.8-9.6-13.2-12.6c-5.4-3-11.6-4.8-18.2-4.8V-196.3"/>
	<path id="XMLID_150_" class="st10" d="M628.3-190.9h-59.9v-59.9h49.3c5.9,0,10.6,4.8,10.6,10.6V-190.9z"/>
	<path id="XMLID_151_" class="st9" d="M628.3-190.9v-2h-58l0-56l47.3,0c2.4,0,4.6,1,6.1,2.5c1.6,1.6,2.5,3.7,2.5,6.1v49.3H628.3v-2
		V-190.9h2v-49.3c0-3.5-1.4-6.6-3.7-8.9c-2.3-2.3-5.4-3.7-8.9-3.7h-51.3v63.9h63.9v-2H628.3z"/>
	<g id="XMLID_13_">
		<defs>
			<path id="XMLID_14_" d="M541-126.3c-20.5,0-37.1-16.6-37.1-37.1s16.6-37.1,37.1-37.1s37.1,16.6,37.1,37.1S561.5-126.3,541-126.3"
				/>
		</defs>
		<clipPath id="XMLID_29_">
			<use xlink:href="#XMLID_14_"  style="overflow:visible;"/>
		</clipPath>
		<polyline id="XMLID_26_" class="st11" points="578.1,-126.3 503.8,-126.3 503.8,-200.6 578.1,-200.6 578.1,-126.3 		"/>
		<path id="XMLID_25_" class="st12" d="M534.5-141.4c-4.6,0.9-8,4.9-8,9.8v2.4c4.5,1.9,9.3,2.9,14.5,2.9l0,0c4.6,0,9-0.8,13.1-2.4
			v-2.9c0-4.8-3.4-8.9-8-9.8l0.2,3h-12L534.5-141.4"/>
		<path id="XMLID_22_" class="st12" d="M545.6-178.7l-6.6,15.6l-10.6,2.1c0,0.1,0,0.3,0.1,0.4c0.5,3.5,0.5,6.5-1.5,6.8
			c-0.1,0-0.1,0-0.2,0c-0.1,0-0.2,0-0.3,0c1.5,3.8,4.6,6.7,8.3,8.2l0.2-4h10.6l0.3,4c3.8-1.5,6.9-4.5,8.4-8.3
			c-0.2,0.1-0.4,0.1-0.6,0.1c-0.1,0-0.1,0-0.2,0c-2-0.3-2.1-3.3-1.5-6.8c0.3-1.7,0.7-3.2,1.4-4.3C551.1-167.5,547.8-174,545.6-178.7
			 M546-185c0.1,0,0.1,0.1,0.2,0.1c0.1,0,0.1,0,0.2,0C546.2-185,546.1-185,546-185"/>
		<polyline id="XMLID_21_" class="st12" points="545.5,-149.5 535,-149.5 534.7,-145.6 534.5,-141.4 534.3,-138.4 546.2,-138.4 
			546.1,-141.4 545.8,-145.6 545.5,-149.5 		"/>
		<path id="XMLID_20_" class="st12" d="M538-187c-2.9,0-6.2,0.8-9.6,3.2c-3.1,2.1-4.6,5.1-5.3,8.3c1.2-0.6,2.6-1.4,4.1-2.7
			c1.1-0.9,1.9-1.3,2.5-1.3c1.8,0,1.3,3.9,0.8,6.4c0.1,2.5-1,6.3-1,6.3s-1.1,1.1-2.9,1.5c0.8,1,1.5,2.6,1.8,4.5l10.6-2.1l6.6-15.6
			c-1.4-3-2.4-5.2-2.4-5.2s1.1-0.7,3-1c-0.1,0-0.1-0.1-0.2-0.1C544.2-185.9,541.4-187,538-187"/>
		<path id="XMLID_19_" class="st12" d="M547.9-185c-0.5,0-1,0-1.5,0.1c-0.1,0-0.1,0-0.2,0c-1.8,0.3-3,1-3,1s1,2.2,2.4,5.2
			c2.2,4.7,5.5,11.2,7.7,13.9c0.7-1.1,1.6-1.9,2.8-2.1c0.2,0,0.3,0,0.5,0c0.2,0,0.3,0,0.5,0c0.7-2.2,0.9-4.5,0.9-4.5s1.4-8-4.2-11.8
			C551.6-184.6,549.6-185,547.9-185"/>
		<path id="XMLID_18_" class="st12" d="M521.9-166.2c-1,1-1.5,2.7-1.2,4.9c0.5,3.2,3.6,7.1,5.6,7.5c0.1,0,0.2,0,0.3,0
			c0.1,0,0.1,0,0.2,0c2-0.3,2.1-3.3,1.5-6.8c0-0.1,0-0.3-0.1-0.4c-0.3-1.9-0.9-3.4-1.8-4.5c-0.4,0.1-0.9,0.1-1.4,0.1
			C524.2-165.3,523.1-165.6,521.9-166.2"/>
		<path id="XMLID_17_" class="st12" d="M556.6-167c-0.2,0-0.3,0-0.5,0c-1.1,0.2-2.1,1-2.8,2.1c-0.7,1.1-1.2,2.5-1.4,4.3
			c-0.5,3.5-0.5,6.5,1.5,6.8c0.1,0,0.1,0,0.2,0c0.2,0,0.4,0,0.6-0.1c2.1-0.6,4.9-4.3,5.4-7.4c0.5-3-0.8-5.3-2.5-5.6
			C556.9-167,556.7-167,556.6-167"/>
		<path id="XMLID_16_" class="st12" d="M530.5-173.2c-0.2,1.1-0.5,2-0.5,2s-1.7,1.6-4.3,1.6c-1.2,0-2.5-0.3-4-1.3
			c-1.1,0.4-2.1,0.5-2.8,0.5c-1.3,0-1.9-0.4-1.9-0.4c1.7,2.4,3.4,3.8,4.9,4.6c1.2,0.6,2.3,0.8,3.3,0.8c0.5,0,0.9-0.1,1.4-0.1
			c1.8-0.4,2.9-1.5,2.9-1.5S530.6-170.8,530.5-173.2"/>
		<path id="XMLID_15_" class="st12" d="M529.7-179.6c-0.6,0-1.4,0.4-2.5,1.3c-1.5,1.3-2.9,2.1-4.1,2.7c-1.6,0.7-2.8,0.9-3.8,0.9
			c-1.3,0-1.9-0.4-1.9-0.4c1.5,2,2.9,3.3,4.2,4.1c1.5,0.9,2.8,1.3,4,1.3c2.6,0,4.3-1.6,4.3-1.6s0.2-0.8,0.5-2
			C531-175.7,531.6-179.6,529.7-179.6"/>
	</g>
	<path id="XMLID_12_" class="st9" d="M541-126.3v-2h0c-9.7,0-18.5-3.9-24.9-10.3c-6.4-6.4-10.3-15.2-10.3-24.9
		c0-9.7,3.9-18.5,10.3-24.9c6.4-6.4,15.2-10.3,24.9-10.3h0c9.7,0,18.5,3.9,24.9,10.3c6.4,6.4,10.3,15.2,10.3,24.9
		c0,9.7-3.9,18.5-10.3,24.9c-6.4,6.4-15.2,10.3-24.9,10.3V-126.3v2c10.8,0,20.6-4.4,27.6-11.5c7.1-7.1,11.5-16.9,11.5-27.6
		c0-10.8-4.4-20.6-11.5-27.6c-7.1-7.1-16.9-11.5-27.6-11.5h0c-10.8,0-20.6,4.4-27.6,11.5c-7.1,7.1-11.5,16.9-11.5,27.6
		c0,10.8,4.4,20.6,11.5,27.6c7.1,7.1,16.9,11.5,27.6,11.5h0V-126.3z"/>
	<circle id="XMLID_11_" class="st9" cx="527.9" cy="-214.2" r="5.9"/>
	<circle id="XMLID_10_" class="st9" cx="543.1" cy="-217.6" r="5.9"/>
	<polygon id="XMLID_9_" class="st9" points="533.9,-214.2 532.4,-214.2 532.4,-235.8 549,-239 549,-217.4 547.5,-217.4 
		547.5,-234.3 533.9,-231.6 	"/>
	<path id="XMLID_8_" class="st9" d="M619.3-152.7c-4.4-3.6-10.7-3.6-15.1,0c0-5.8,0-11.6,0-17.4c4.4-3.6,10.7-3.6,15.1,0
		C619.3-164.3,619.3-158.5,619.3-152.7z"/>
	<path id="XMLID_7_" class="st9" d="M602.3-152.7c-4.4-3.6-10.7-3.6-15.1,0c0-5.8,0-11.6,0-17.4c4.4-3.6,10.7-3.6,15.1,0
		C602.3-164.3,602.3-158.5,602.3-152.7z"/>
	<path id="XMLID_6_" class="st9" d="M604.6-222.7l-7.3-0.8l-4.6-8.8l3.1-6.3c6.4-0.8,12.9,1.9,16.8,7.3l-0.3,3.3L604.6-222.7z"/>
	<path id="XMLID_5_" class="st9" d="M584.5-232.7l7,1l4.6,8.8l-3.5,6.5l-8.8,3.4l-2.9-1.6C578.7-220.9,580.2-227.8,584.5-232.7z"/>
	<path id="XMLID_4_" class="st9" d="M605.6-221.9l7.4-5.1l2.1,0.9c1.7,5.4,0.7,11.1-2.3,15.6l-6.2-4.4L605.6-221.9z"/>
	<path id="XMLID_3_" class="st9" d="M592.7-215l5,4.7l0.1,7.8c-5.4,0-10.7-2.5-14.2-6.9l0.4-2.3L592.7-215z"/>
	<path id="XMLID_2_" class="st9" d="M612-209.4c-1.5,1.9-3.4,3.5-5.7,4.7c-2.3,1.2-4.7,1.9-7.2,2l-0.1-7.4l7-3.7L612-209.4z"/>
</g>
</svg>
