<?xml version="1.0" encoding="utf-8"?>
<!-- Generator: Adobe Illustrator 19.2.1, SVG Export Plug-In . SVG Version: 6.00 Build 0)  -->
<!DOCTYPE svg PUBLIC "-//W3C//DTD SVG 1.1//EN" "http://www.w3.org/Graphics/SVG/1.1/DTD/svg11.dtd">
<svg version="1.1" id="Layer_1" xmlns="http://www.w3.org/2000/svg" xmlns:xlink="http://www.w3.org/1999/xlink" x="0px" y="0px"
	 viewBox="0 0 400 273" style="enable-background:new 0 0 400 273;" xml:space="preserve">
<style type="text/css">
	.st0{fill:url(#SVGID_1_);}
	.st1{fill:none;}
	.st2{fill:#0072CE;}
	.st3{fill:#FFFFFF;}
	.st4{fill:#FF8200;}
	.st5{fill:#AD6214;}
</style>
<linearGradient id="SVGID_1_" gradientUnits="userSpaceOnUse" x1="197.665" y1="278" x2="197.665" y2="-8.67" gradientTransform="matrix(1 0 0 1 0 1)">
	<stop  offset="0" style="stop-color:#CE9BDD"/>
	<stop  offset="1" style="stop-color:#FFACBC"/>
</linearGradient>
<rect x="-9" y="-7.7" class="st0" width="413.3" height="286.7"/>
<g>
	<g>
		<path class="st1" d="M101.1,172.7c0-0.3,0-0.6,0.1-0.9C101.2,172.1,101.2,172.4,101.1,172.7z"/>
		<path class="st1" d="M165,231.8c-0.3,0-0.6,0.1-0.9,0.1C164.3,231.9,164.6,231.9,165,231.8z"/>
		<path class="st1" d="M101.9,166c0-0.2,0.1-0.4,0.1-0.7C102,165.5,102,165.8,101.9,166z"/>
		<polygon class="st1" points="102.7,162.2 102.7,162.2 102.7,162.2 		"/>
		<path class="st1" d="M101.4,169.4c0-0.3,0.1-0.6,0.1-0.9C101.5,168.8,101.5,169.1,101.4,169.4z"/>
		<path class="st1" d="M168.1,231.3c-0.2,0-0.5,0.1-0.7,0.1C167.7,231.4,167.9,231.4,168.1,231.3z"/>
		<path class="st1" d="M161.6,232.2c-0.3,0-0.6,0.1-0.9,0.1C161,232.2,161.3,232.2,161.6,232.2z"/>
		<path class="st2" d="M207.6,150.2c0.1,0.1,0.1,0.2,0.2,0.3C207.7,150.4,207.7,150.3,207.6,150.2z"/>
		<path class="st2" d="M213.8,173.4c0,0.9,0.1,1.7,0.1,2.6C213.8,175.1,213.8,174.2,213.8,173.4z"/>
		<path class="st2" d="M213.2,167.5c0.1,0.8,0.2,1.6,0.3,2.4C213.4,169.1,213.3,168.3,213.2,167.5z"/>
		<path class="st2" d="M210,155.4c0.1,0.2,0.1,0.4,0.2,0.5C210.1,155.8,210,155.6,210,155.4z"/>
		<path class="st2" d="M208.6,152.2c0,0,0,0.1,0.1,0.1C208.6,152.3,208.6,152.2,208.6,152.2z"/>
		<path class="st2" d="M213.6,170.7c0.1,0.6,0.1,1.3,0.1,1.9C213.7,172,213.6,171.3,213.6,170.7z"/>
		<path class="st2" d="M210.7,157.4c0.1,0.3,0.2,0.6,0.3,0.9C210.9,158,210.8,157.7,210.7,157.4z"/>
		<path class="st2" d="M211.4,159.6c0.2,0.7,0.4,1.3,0.6,2C211.8,160.9,211.6,160.3,211.4,159.6z"/>
		<path class="st2" d="M212.2,162.6c0.1,0.5,0.2,0.9,0.3,1.4C212.4,163.6,212.3,163.1,212.2,162.6z"/>
		<polygon class="st2" points="204.7,145.3 204.7,145.3 204.7,145.3 		"/>
		<path class="st2" d="M212.8,165.1c0.1,0.6,0.2,1.1,0.3,1.7C213,166.2,212.9,165.7,212.8,165.1z"/>
		<path class="st2" d="M213.6,180.8c0,0.2,0,0.4,0,0.5C213.6,181.2,213.6,181,213.6,180.8z"/>
		<path class="st2" d="M213.8,176c0,0.9,0,1.8-0.1,2.8C213.8,177.8,213.8,176.9,213.8,176z"/>
		<path class="st2" d="M201.8,220.3c-1.6,1.6-3.3,3.1-5,4.5h83.6c3.9,0,7.3-1.6,9.8-4.1c2.5-2.5,4.1-6,4.1-9.8v-75.8h-89.4
			c9.5,11,15.2,25.3,15.2,40.9C220.1,193.3,213.1,209,201.8,220.3z M258.8,165.4c7-5.8,17.2-5.8,24.2,0c0,9.3,0,18.5,0,27.8
			c-7-5.8-17.2-5.8-24.2,0C258.8,183.9,258.8,174.6,258.8,165.4z M231.5,165.4c7-5.8,17.2-5.8,24.2,0c0,9.3,0,18.5,0,27.8
			c-7-5.8-17.2-5.8-24.2,0C231.5,183.9,231.5,174.6,231.5,165.4z"/>
		<path class="st2" d="M169.3,120.8c0.5,0.1,1,0.2,1.4,0.3C170.3,121.1,169.8,120.9,169.3,120.8z"/>
		<path class="st2" d="M166.6,120.3c0.6,0.1,1.1,0.2,1.7,0.3C167.7,120.5,167.2,120.4,166.6,120.3z"/>
		<path class="st2" d="M171.8,121.4c0.7,0.2,1.4,0.4,2,0.6C173.1,121.8,172.5,121.6,171.8,121.4z"/>
		<path class="st2" d="M177.4,123.2c0.2,0.1,0.4,0.2,0.6,0.2C177.8,123.4,177.6,123.3,177.4,123.2z"/>
		<path class="st2" d="M182.9,125.6c0.1,0.1,0.2,0.1,0.3,0.2C183.1,125.7,183,125.7,182.9,125.6z"/>
		<path class="st2" d="M181.1,124.8c0,0,0.1,0,0.1,0.1C181.2,124.8,181.1,124.8,181.1,124.8z"/>
		<polygon class="st2" points="188.1,128.7 188.1,128.7 188.1,128.7 		"/>
		<path class="st2" d="M175.1,122.4c0.3,0.1,0.6,0.2,0.9,0.3C175.7,122.6,175.4,122.5,175.1,122.4z"/>
		<path class="st2" d="M160.8,119.7c0.6,0,1.3,0.1,1.9,0.1C162.1,119.8,161.4,119.7,160.8,119.7z"/>
		<path class="st2" d="M152,119.8c0.2,0,0.4,0,0.6,0C152.4,119.8,152.2,119.8,152,119.8z"/>
		<path class="st2" d="M157.4,119.6c0.9,0,1.7,0,2.6,0.1C159.2,119.6,158.3,119.6,157.4,119.6z"/>
		<path class="st2" d="M149.5,120.1C149.5,120.1,149.5,120.1,149.5,120.1C149.5,120.1,149.5,120.1,149.5,120.1z"/>
		<path class="st2" d="M154.7,119.6c0.9,0,1.8-0.1,2.7-0.1C156.5,119.6,155.6,119.6,154.7,119.6z"/>
		<path class="st2" d="M163.4,119.9c0.8,0.1,1.6,0.2,2.4,0.3C165.1,120.1,164.3,120,163.4,119.9z"/>
		<path class="st2" d="M198.2,128.4V39h-75.7c-3.9,0-7.3,1.5-9.8,4.1c-2.5,2.5-4.1,6-4.1,9.8v83.8c1.4-1.7,2.9-3.4,4.5-5
			c11.3-11.3,27-18.4,44.3-18.4C173,113.3,187.2,119,198.2,128.4z M151.4,89.2c0-5.2,4.2-9.4,9.4-9.4c2.8,0,5.4,1.2,7.1,3.2V62.5
			l-21.8,4.2v27.8H146c0,5.2-4.2,9.4-9.4,9.4c-5.2,0-9.4-4.2-9.4-9.4s4.2-9.4,9.4-9.4c2.9,0,5.5,1.3,7.2,3.4V60.1l26.5-5.2v34.6h0
			c-0.1,5.1-4.3,9.2-9.4,9.2C155.7,98.7,151.4,94.5,151.4,89.2z"/>
		<path class="st2" d="M280.4,39h-75.7v89.7h89.6V52.9c0-3.9-1.6-7.3-4.1-9.8C287.7,40.5,284.2,39,280.4,39z M245.2,55.6
			c10.3-1.3,20.7,3.1,27,11.6l-0.5,5.3L259.4,81l-11.7-1.2l-7.4-14.1L245.2,55.6z M227.2,65.1l11.2,1.6l7.4,14.1l-5.6,10.4
			l-14.1,5.5l-4.6-2.6C217.9,83.9,220.3,72.8,227.2,65.1z M226,102.2l0.7-3.7l13.7-5.3l8.1,7.5l0.2,12.5
			C240,113.3,231.6,109.3,226,102.2z M262.3,110c-3.7,1.9-7.6,3-11.5,3.3l-0.2-11.8l11.2-5.9l9.7,6.8
			C269,105.5,265.9,108.1,262.3,110z M272.6,100.8l-9.9-7l-1.7-11.4l11.9-8.2l3.4,1.5C279.1,84.3,277.6,93.5,272.6,100.8z"/>
		<g>
			<path class="st3" d="M300.6,128.7V52.9c0-5.6-2.3-10.6-5.9-14.3c-3.6-3.6-8.7-5.9-14.3-5.9h-82.2v0h-75.7
				c-5.6,0-10.6,2.3-14.3,5.9c-3.7,3.7-5.9,8.7-5.9,14.3v93.2c-4.8,8.9-7.6,19.1-7.6,29.9c0,17.3,7,33,18.4,44.3
				c11.3,11.3,27,18.4,44.3,18.4v0c10.8,0,21-2.7,29.9-7.6h93.1c5.6,0,10.6-2.3,14.3-5.9c3.7-3.6,5.9-8.7,5.9-14.3L300.6,128.7
				L300.6,128.7z M294.3,210.9c0,3.9-1.5,7.3-4.1,9.8c-2.5,2.5-6,4.1-9.8,4.1h-83.6c1.7-1.4,3.4-2.9,5-4.5
				c11.3-11.3,18.4-27,18.4-44.3c0-15.6-5.7-29.9-15.2-40.9h89.4V210.9z M108.6,136.7V52.9c0-3.9,1.5-7.3,4.1-9.8
				c2.5-2.5,6-4.1,9.8-4.1h75.7v89.4c-11-9.4-25.2-15.1-40.8-15.1c-17.3,0-33,7-44.3,18.4C111.5,133.2,110,134.9,108.6,136.7z
				 M204.7,39h75.7c3.9,0,7.3,1.5,9.8,4.1c2.5,2.5,4.1,6,4.1,9.8v75.8h-89.6V39z M167.4,231.4c-0.8,0.1-1.6,0.3-2.5,0.4
				c-0.3,0-0.6,0.1-0.9,0.1c-0.8,0.1-1.6,0.2-2.4,0.2c-0.3,0-0.6,0.1-0.9,0.1c-1.1,0.1-2.2,0.1-3.3,0.1c-15.6,0-29.7-6.3-39.9-16.5
				C107.3,205.6,101,191.5,101,176c0-1.1,0-2.2,0.1-3.3c0-0.3,0-0.6,0.1-0.9c0.1-0.8,0.1-1.6,0.2-2.4c0-0.3,0.1-0.6,0.1-0.9
				c0.1-0.8,0.2-1.7,0.4-2.5c0-0.2,0.1-0.4,0.1-0.7c0.2-1,0.4-2.1,0.7-3.1c0,0,0,0,0,0l0,0c2-8.1,5.8-15.5,10.9-21.8
				c1.2-1.5,2.5-3,3.9-4.4c8.4-8.4,19.5-14.2,31.9-15.9c0,0,0,0,0,0c0.9-0.1,1.7-0.2,2.6-0.3c0.2,0,0.4,0,0.6,0
				c0.7-0.1,1.4-0.1,2.1-0.2c0.9,0,1.8-0.1,2.7-0.1c0.9,0,1.7,0,2.6,0.1c0.3,0,0.5,0,0.8,0c0.6,0,1.3,0.1,1.9,0.1
				c0.2,0,0.5,0,0.7,0.1c0.8,0.1,1.6,0.2,2.4,0.3c0.2,0,0.5,0.1,0.7,0.1c0.6,0.1,1.1,0.2,1.7,0.3c0.3,0.1,0.7,0.1,1,0.2
				c0.5,0.1,1,0.2,1.4,0.3c0.3,0.1,0.7,0.2,1,0.2c0.7,0.2,1.4,0.4,2,0.6c0.4,0.1,0.9,0.3,1.3,0.4c0.3,0.1,0.6,0.2,0.9,0.3
				c0.5,0.2,0.9,0.3,1.4,0.5c0.2,0.1,0.4,0.2,0.6,0.2c1.1,0.4,2.1,0.9,3.1,1.3c0,0,0.1,0,0.1,0.1c0.5,0.3,1.1,0.5,1.6,0.8
				c0.1,0.1,0.2,0.1,0.3,0.2c1.7,0.9,3.4,1.8,5,2.9c0,0,0,0,0,0c1.5,1,2.9,2,4.3,3.1c1.7,1.3,3.3,2.8,4.8,4.3
				c1.5,1.5,2.9,3.1,4.3,4.8c1.1,1.4,2.2,2.9,3.2,4.4c0,0,0,0,0,0c1,1.6,2,3.3,2.9,5c0.1,0.1,0.1,0.2,0.2,0.3
				c0.3,0.5,0.5,1.1,0.8,1.6c0,0,0,0.1,0.1,0.1c0.5,1,0.9,2.1,1.3,3.1c0.1,0.2,0.1,0.4,0.2,0.5c0.2,0.5,0.3,0.9,0.5,1.4
				c0.1,0.3,0.2,0.6,0.3,0.9c0.1,0.4,0.3,0.9,0.4,1.3c0.2,0.7,0.4,1.3,0.6,2c0.1,0.3,0.2,0.7,0.3,1c0.1,0.5,0.2,0.9,0.3,1.4
				c0.1,0.3,0.1,0.7,0.2,1c0.1,0.6,0.2,1.1,0.3,1.7c0,0.2,0.1,0.5,0.1,0.7c0.1,0.8,0.2,1.6,0.3,2.4c0,0.2,0,0.5,0.1,0.7
				c0.1,0.6,0.1,1.3,0.1,1.9c0,0.3,0,0.5,0,0.8c0,0.9,0.1,1.7,0.1,2.6c0,0.9,0,1.8-0.1,2.8c0,0.7-0.1,1.4-0.2,2.1c0,0.2,0,0.4,0,0.5
				c-1.3,13.4-7.2,25.4-16.3,34.5c-1.4,1.4-2.9,2.7-4.4,3.9c-7.1,5.7-15.5,9.8-24.8,11.6C167.9,231.4,167.7,231.4,167.4,231.4z"/>
			<path class="st3" d="M170.3,89.5L170.3,89.5l0-34.6l-26.5,5.2v28.4c-1.7-2.1-4.3-3.4-7.2-3.4c-5.2,0-9.4,4.2-9.4,9.4
				s4.2,9.4,9.4,9.4c5.2,0,9.4-4.2,9.4-9.4h0.1V66.7l21.8-4.2V83c-1.7-2-4.3-3.2-7.1-3.2c-5.2,0-9.4,4.2-9.4,9.4s4.2,9.4,9.4,9.4
				C166,98.7,170.2,94.6,170.3,89.5z"/>
			<path class="st3" d="M283,193.2c0-9.3,0-18.5,0-27.8c-7-5.8-17.2-5.8-24.2,0c0,9.3,0,18.5,0,27.8
				C265.8,187.4,276,187.4,283,193.2z"/>
			<path class="st3" d="M255.7,193.2c0-9.3,0-18.5,0-27.8c-7-5.8-17.2-5.8-24.2,0c0,9.3,0,18.5,0,27.8
				C238.5,187.4,248.7,187.4,255.7,193.2z"/>
			<path class="st3" d="M259.4,81l12.3-8.4l0.5-5.3c-6.3-8.6-16.7-12.9-27-11.6l-5,10.1l7.4,14.1L259.4,81z"/>
			<path class="st3" d="M240.2,91.1l5.6-10.4l-7.4-14.1l-11.2-1.6c-6.9,7.8-9.3,18.9-5.7,29l4.6,2.6L240.2,91.1z"/>
			<path class="st3" d="M273,74.2l-11.9,8.2l1.7,11.4l9.9,7c4.9-7.2,6.5-16.5,3.8-25.1L273,74.2z"/>
			<path class="st3" d="M240.4,93.3l-13.7,5.3l-0.7,3.7c5.5,7.1,14,11,22.7,11.1l-0.2-12.5L240.4,93.3z"/>
			<path class="st3" d="M250.6,101.5l0.2,11.8c3.9-0.3,7.8-1.3,11.5-3.3c3.6-1.9,6.7-4.5,9.1-7.6l-9.7-6.8L250.6,101.5z"/>
		</g>
		<path class="st4" d="M213.8,173.4c0-0.3,0-0.5,0-0.8c0-0.6-0.1-1.3-0.1-1.9c0-0.2,0-0.5-0.1-0.7c-0.1-0.8-0.2-1.6-0.3-2.4
			c0-0.2-0.1-0.5-0.1-0.7c-0.1-0.6-0.2-1.1-0.3-1.7c-0.1-0.3-0.1-0.7-0.2-1c-0.1-0.5-0.2-1-0.3-1.4c-0.1-0.3-0.2-0.7-0.3-1
			c-0.2-0.7-0.4-1.3-0.6-2c-0.1-0.4-0.3-0.9-0.4-1.3c-0.1-0.3-0.2-0.6-0.3-0.9c-0.2-0.5-0.3-0.9-0.5-1.4c-0.1-0.2-0.1-0.4-0.2-0.5
			c-0.4-1.1-0.9-2.1-1.3-3.1c0,0,0-0.1-0.1-0.1c-0.3-0.5-0.5-1.1-0.8-1.6c0-0.1-0.1-0.2-0.2-0.3c-0.9-1.7-1.8-3.4-2.9-5c0,0,0,0,0,0
			c-1-1.5-2-3-3.2-4.4c-1-1.2-2-2.4-3.1-3.6v0c-0.4-0.4-0.7-0.8-1.1-1.2c-0.4-0.4-0.8-0.7-1.2-1.1h0c-1.2-1.1-2.4-2.2-3.6-3.2
			c-1.4-1.1-2.8-2.2-4.3-3.1c0,0,0,0,0,0c-1.6-1-3.3-2-5-2.9c-0.1-0.1-0.2-0.1-0.3-0.2c-0.5-0.3-1.1-0.5-1.6-0.8c0,0-0.1,0-0.1-0.1
			c-1-0.5-2.1-0.9-3.1-1.3c-0.2-0.1-0.4-0.2-0.6-0.2c-0.5-0.2-0.9-0.3-1.4-0.5c-0.3-0.1-0.6-0.2-0.9-0.3c-0.4-0.1-0.9-0.3-1.3-0.4
			c-0.7-0.2-1.4-0.4-2-0.6c-0.3-0.1-0.7-0.2-1-0.2c-0.5-0.1-0.9-0.2-1.4-0.3c-0.3-0.1-0.7-0.1-1-0.2c-0.6-0.1-1.1-0.2-1.7-0.3
			c-0.2,0-0.5-0.1-0.7-0.1c-0.8-0.1-1.6-0.2-2.4-0.3c-0.2,0-0.5,0-0.7-0.1c-0.6-0.1-1.3-0.1-1.9-0.1c-0.3,0-0.5,0-0.8,0
			c-0.9,0-1.7-0.1-2.6-0.1c-0.9,0-1.8,0-2.7,0.1c-0.7,0-1.4,0.1-2.1,0.2c-0.2,0-0.4,0-0.6,0c-0.9,0.1-1.7,0.2-2.6,0.3c0,0,0,0,0,0
			c-0.8,0.1-1.7,0.3-2.5,0.4c0,0,0,0-0.1,0c0,0,0,0,0,0c-11.4,2.1-21.5,7.7-29.4,15.5c-1.4,1.4-2.7,2.9-3.9,4.4
			c-5.1,6.3-8.9,13.7-10.9,21.8c0,0,0,0,0,0c-0.3,1-0.5,2.1-0.7,3.1c0,0.2-0.1,0.4-0.1,0.7c-0.1,0.8-0.3,1.7-0.4,2.5
			c0,0.3-0.1,0.6-0.1,0.9c-0.1,0.8-0.2,1.6-0.2,2.4c0,0.3-0.1,0.6-0.1,0.9c-0.1,1.1-0.1,2.2-0.1,3.3c0,15.6,6.3,29.7,16.5,39.9
			c10.2,10.2,24.3,16.5,39.9,16.5c1.1,0,2.2,0,3.3-0.1c0.3,0,0.6,0,0.9-0.1c0.8-0.1,1.6-0.1,2.4-0.2c0.3,0,0.6-0.1,0.9-0.1
			c0.8-0.1,1.6-0.2,2.5-0.4c0.2,0,0.5-0.1,0.7-0.1c1-0.2,2.1-0.4,3.1-0.7l0,0c8-2,15.4-5.8,21.6-10.8c1.5-1.2,3-2.5,4.4-3.9
			c9-9,15-21,16.3-34.5c0-0.2,0-0.4,0-0.5c0.1-0.7,0.1-1.4,0.2-2.1c0-0.9,0.1-1.8,0.1-2.8C213.8,175.1,213.8,174.2,213.8,173.4z"/>
	</g>
	<path class="st5" d="M183.2,170.4C183.2,170.4,183.2,170.4,183.2,170.4C183.2,170.4,183.2,170.4,183.2,170.4
		c1.1-3.5,1.4-7.1,1.4-7.1s2.3-12.9-6.7-18.9c-3.4-2.3-6.7-3-9.4-3c-0.9,0-1.7,0.1-2.4,0.2c-0.2,0-0.4-0.1-0.7-0.1
		c0.1,0.1,0.2,0.1,0.3,0.2c0,0,0,0,0,0c0,0,0,0,0,0c-0.1-0.1-0.2-0.1-0.3-0.2c-2.8-1.5-7.3-3.3-12.7-3.3c-4.6,0-9.9,1.3-15.3,5.1
		c-4.9,3.4-7.4,8.2-8.5,13.2c0,0,0,0,0,0c-2.5,1.2-4.6,1.5-6,1.5c-2,0-3.1-0.6-3.1-0.6c2.4,3.2,4.6,5.3,6.8,6.7
		c-1.8,0.7-3.3,0.9-4.5,0.9c-2,0-3.1-0.6-3.1-0.6c2.8,3.8,5.5,6.1,7.9,7.3c0.1,0,0.1,0.1,0.2,0.1c0,0,0,0,0,0
		c-0.1,0-0.1-0.1-0.2-0.1c-1.5,1.6-2.4,4.4-1.9,7.8c0.8,5.2,5.7,11.4,9,12c0.1,0,0.1,0,0.2,0c0,0,0,0,0,0c-0.1,0-0.1,0-0.2,0
		c2.4,6.1,7.3,10.8,13.4,13.2l-0.4,6.6l0,0.1c0,0,0,0,0,0l0-0.1c-7.3,1.5-12.8,7.9-12.8,15.7v0.4c7.1,3.2,14.9,5,23.2,5
		c4.8,0,9.4-0.6,13.8-1.7c2.5-0.6,4.9-1.4,7.2-2.3V227c0-0.2,0-0.3,0-0.5c-0.2-7.5-5.6-13.7-12.8-15.2l0,0l-0.4-6.6
		c6.1-2.4,11.1-7.2,13.5-13.3c3.3-1,7.8-6.9,8.6-11.9C188.1,174.7,186,171,183.2,170.4z"/>
</g>
</svg>
