<?xml version="1.0" encoding="UTF-8" standalone="no"?>
<!DOCTYPE svg PUBLIC "-//W3C//DTD SVG 1.1//EN" "http://www.w3.org/Graphics/SVG/1.1/DTD/svg11.dtd">
<svg width="100%" height="100%" viewBox="0 0 400 273" version="1.1" xmlns="http://www.w3.org/2000/svg" xmlns:xlink="http://www.w3.org/1999/xlink" xml:space="preserve" style="fill-rule:evenodd;clip-rule:evenodd;stroke-linejoin:round;stroke-miterlimit:1.41421;">
    <rect x="-3.597" y="-3.99" width="407.602" height="280.128" style="fill:rgb(235,140,35);"/>
    <g transform="matrix(1.38185,0,0,1.38185,-159.698,49.428)">
        <path d="M149.376,53.059L147.559,48.121L140.602,48.121L138.787,53.059L133.783,53.059L142.386,31.021L146.052,31.021L154.655,53.059L149.376,53.059ZM144.749,39.931C144.543,39.349 144.27,38.627 144.097,37.91L144.03,37.91C143.859,38.629 143.62,39.384 143.414,39.931L141.939,43.976L146.223,43.976L144.749,39.931Z" style="fill:white;fill-rule:nonzero;"/>
        <path d="M164.114,53.503C160.825,53.503 158.15,52.372 156.641,51.204L156.641,28.654L161.508,28.654L161.508,38.08C162.159,37.563 163.804,37.052 165.415,37.052C169.699,37.052 173.228,40.102 173.228,45.002C173.231,49.801 170.179,53.503 164.114,53.503ZM164.524,41.472C163.086,41.472 161.988,42.159 161.508,42.671L161.508,48.603C162.022,48.978 163.085,49.355 164.043,49.355C166.613,49.355 168.227,47.608 168.227,45.342C168.226,43.187 166.717,41.472 164.524,41.472Z" style="fill:white;fill-rule:nonzero;"/>
        <path d="M185.295,42.878C184.984,42.705 184.301,42.502 183.786,42.502C182.176,42.502 180.7,43.358 180.7,45.826L180.7,53.057L175.663,53.057L175.663,37.532L180.633,37.532L180.633,40.993L180.667,40.993C181.182,38.56 182.998,37.259 185.089,37.259C185.568,37.259 186.151,37.328 186.528,37.465L185.295,42.878Z" style="fill:white;fill-rule:nonzero;"/>
        <path d="M190.916,35.405C190.023,35.405 188.208,33.59 188.208,32.698C188.208,31.807 190.023,30.025 190.916,30.025C191.808,30.025 193.624,31.807 193.624,32.698C193.624,33.591 191.807,35.405 190.916,35.405ZM188.381,53.059L188.381,37.531L193.453,37.531L193.453,53.058L188.381,53.059Z" style="fill:white;fill-rule:nonzero;"/>
        <path d="M210.932,44.42L208.703,46.685L201.095,46.685C201.335,47.954 203.05,49.392 205.689,49.392C207.298,49.392 208.945,48.913 209.972,48.228L209.493,52.544C208.327,53.162 206.545,53.572 204.556,53.572C199.827,53.572 196.023,50.284 196.023,45.21C196.023,40.207 199.657,37.02 204.112,37.02C208.429,37.02 211.071,39.999 211.071,43.224C211.068,43.596 210.998,44.114 210.932,44.42ZM204.109,40.788C202.636,40.788 201.402,41.919 201.093,43.326L206.337,43.326C206.337,43.222 206.371,43.118 206.371,42.982C206.373,41.919 205.448,40.788 204.109,40.788Z" style="fill:white;fill-rule:nonzero;"/>
        <path d="M223.236,53.059L223.236,43.529C223.236,42.4 222.48,41.405 220.939,41.405C219.431,41.405 218.472,42.365 218.472,43.596L218.472,53.059L213.433,53.059L213.433,37.53L218.06,37.53L218.06,39.623L218.093,39.623C218.712,37.977 220.322,37.052 222.822,37.052C226.218,37.052 228.271,38.974 228.271,42.263L228.271,53.062L223.236,53.059Z" style="fill:white;fill-rule:nonzero;"/>
        <path d="M243.012,53.059L243.012,51.138L242.977,51.138C242.123,52.713 240.338,53.5 238.18,53.5C234.372,53.5 230.704,50.622 230.704,45.311C230.704,40.306 234.269,37.049 238.59,37.049C240.235,37.049 241.915,37.599 242.529,38.112L242.529,28.653L247.431,28.653L247.431,53.053L243.012,53.059ZM242.532,42.878C242.053,42.23 241.023,41.473 239.48,41.473C237.288,41.473 235.745,43.188 235.745,45.414C235.745,47.643 237.288,49.355 239.48,49.355C240.956,49.355 241.982,48.568 242.532,47.745L242.532,42.878Z" style="fill:white;fill-rule:nonzero;"/>
        <path d="M258.436,53.537C253.742,53.537 249.969,50.212 249.969,45.277C249.969,40.34 253.74,37.017 258.436,37.017C263.096,37.017 266.901,40.338 266.901,45.277C266.9,50.214 263.096,53.537 258.436,53.537ZM258.436,41.405C256.551,41.405 254.94,43.049 254.94,45.347C254.94,47.643 256.551,49.285 258.436,49.285C260.287,49.285 261.932,47.64 261.932,45.347C261.932,43.049 260.285,41.405 258.436,41.405Z" style="fill:white;fill-rule:nonzero;"/>
        <path d="M285.684,44.455L282.463,44.455L282.463,53.059L277.357,53.059L277.357,31.193L285.687,31.193C289.42,31.193 292.749,33.694 292.749,37.808C292.744,41.919 289.455,44.455 285.684,44.455ZM284.93,35.477L282.463,35.477L282.463,40.376L284.93,40.376C286.301,40.376 287.637,39.622 287.637,37.943C287.637,36.298 286.299,35.477 284.93,35.477Z" style="fill:white;fill-rule:nonzero;"/>
        <path d="M305.426,53.059L305.426,50.933L305.391,50.933C304.776,52.578 303.129,53.502 300.627,53.502C297.232,53.502 295.178,51.615 295.178,48.326L295.178,37.53L300.217,37.53L300.217,47.06C300.217,48.189 301.004,49.182 302.547,49.182C304.055,49.182 304.981,48.189 304.981,46.953L304.981,37.526L310.018,37.526L310.018,53.055L305.426,53.055L305.426,53.059Z" style="fill:white;fill-rule:nonzero;"/>
        <path d="M327.325,44.42L325.096,46.685L317.488,46.685C317.728,47.954 319.441,49.392 322.083,49.392C323.691,49.392 325.339,48.913 326.365,48.228L325.886,52.544C324.72,53.162 322.938,53.572 320.948,53.572C316.219,53.572 312.416,50.284 312.416,45.21C312.416,40.207 316.052,37.02 320.505,37.02C324.821,37.02 327.464,39.999 327.464,43.224C327.465,43.596 327.395,44.114 327.325,44.42ZM320.506,40.788C319.03,40.788 317.799,41.919 317.489,43.326L322.733,43.326C322.733,43.222 322.765,43.118 322.765,42.982C322.768,41.919 321.844,40.788 320.506,40.788Z" style="fill:white;fill-rule:nonzero;"/>
        <path d="M339.459,42.878C339.151,42.705 338.465,42.502 337.953,42.502C336.342,42.502 334.867,43.358 334.867,45.826L334.867,53.057L329.83,53.057L329.83,37.532L334.799,37.532L334.799,40.993L334.834,40.993C335.348,38.56 337.164,37.259 339.254,37.259C339.733,37.259 340.317,37.328 340.694,37.465L339.459,42.878Z" style="fill:white;fill-rule:nonzero;"/>
        <path d="M353.094,41.646L349.049,41.646L349.049,47.404C349.049,48.741 349.768,49.29 351.106,49.29C351.688,49.29 352.03,49.257 352.408,49.084L351.964,52.888C351.485,53.128 350.628,53.299 349.632,53.299C346.136,53.299 344.048,51.448 344.048,48.365L344.048,41.648L341.441,41.648L341.441,37.534L344.048,37.534L344.048,34.211L349.048,32.396L349.048,37.537L354.052,37.537L353.094,41.646Z" style="fill:white;fill-rule:nonzero;"/>
        <path d="M366.693,53.743C365.767,53.537 364.706,52.818 364.297,51.688C363.609,52.956 362.137,53.572 360.251,53.572C357.508,53.572 355.075,51.653 355.075,48.433C355.075,45.584 357.304,43.666 360.388,43.361L363.472,43.049L363.472,42.535C363.472,41.608 362.718,40.992 361.037,40.992C359.528,40.992 357.849,41.472 356.72,42.191L355.828,38.384C357.097,37.564 359.222,37.016 361.276,37.016C365.389,37.016 368.301,38.903 368.301,42.634L368.301,47.706C368.301,49.524 368.989,50.483 370.188,50.929L366.693,53.743ZM363.471,46.273L361.583,46.444C360.281,46.546 359.697,47.471 359.697,48.397C359.697,49.217 360.316,49.905 361.273,49.905C362.472,49.905 363.466,48.978 363.466,47.64L363.471,46.273Z" style="fill:white;fill-rule:nonzero;"/>
        <path d="M376.939,53.401C374.816,53.401 373.275,52.955 372.005,52.304L371.56,47.849C372.931,48.809 374.712,49.528 376.427,49.528C377.351,49.528 377.935,49.047 377.935,48.466C377.935,47.817 377.419,47.54 376.529,47.267C373.549,46.412 371.763,44.904 371.763,42.195C371.763,39.145 374.23,37.193 377.589,37.193C379.511,37.193 381.394,37.708 382.183,38.12L381.327,41.82C380.572,41.41 379.34,40.963 378.105,40.963C377.283,40.963 376.734,41.342 376.734,41.958C376.734,42.541 377.144,42.85 378.105,43.089C381.603,44.014 383.04,45.763 383.04,48.367C383.041,51.001 381.121,53.401 376.939,53.401Z" style="fill:white;fill-rule:nonzero;"/>
        <path d="M163.711,87.085C157.68,87.085 151.923,82.663 151.923,75.606C151.923,68.614 157.648,64.161 163.711,64.161C169.743,64.161 175.468,68.583 175.468,75.606C175.468,82.628 169.778,87.085 163.711,87.085ZM163.711,68.921C160.422,68.921 157.338,71.596 157.338,75.671C157.338,79.751 160.422,82.423 163.711,82.423C166.968,82.423 170.087,79.751 170.087,75.671C170.087,71.593 166.967,68.921 163.711,68.921Z" style="fill:white;fill-rule:nonzero;"/>
        <path d="M186.915,87.016C185.269,87.016 183.59,86.499 182.975,85.987L182.975,94.487L178.072,94.487L178.072,71.044L182.495,71.044L182.495,72.966L182.528,72.966C183.384,71.391 185.169,70.602 187.328,70.602C191.132,70.602 194.8,73.481 194.8,78.794C194.8,83.796 191.234,87.016 186.915,87.016ZM186.024,74.985C184.549,74.985 183.522,75.774 182.974,76.596L182.974,81.462C183.453,82.112 184.482,82.833 186.024,82.833C188.217,82.833 189.76,81.155 189.76,78.925C189.76,76.7 188.217,74.985 186.024,74.985Z" style="fill:white;fill-rule:nonzero;"/>
        <path d="M211.523,77.934L209.294,80.198L201.685,80.198C201.927,81.466 203.64,82.905 206.279,82.905C207.89,82.905 209.536,82.425 210.564,81.741L210.085,86.059C208.919,86.675 207.138,87.085 205.149,87.085C200.42,87.085 196.615,83.796 196.615,78.725C196.615,73.718 200.248,70.534 204.703,70.534C209.02,70.534 211.66,73.514 211.66,76.739C211.659,77.112 211.594,77.626 211.523,77.934ZM204.703,74.301C203.229,74.301 201.996,75.433 201.686,76.836L206.929,76.836C206.929,76.732 206.962,76.629 206.962,76.494C206.965,75.432 206.041,74.301 204.703,74.301Z" style="fill:white;fill-rule:nonzero;"/>
        <path d="M223.828,86.573L223.828,77.044C223.828,75.913 223.073,74.919 221.53,74.919C220.022,74.919 219.063,75.88 219.063,77.112L219.063,86.573L214.024,86.573L214.024,71.046L218.651,71.046L218.651,73.137L218.686,73.137C219.302,71.491 220.915,70.567 223.415,70.567C226.808,70.567 228.864,72.489 228.864,75.778L228.864,86.575L223.828,86.573Z" style="fill:white;fill-rule:nonzero;"/>
        <path d="M234.59,68.921C233.698,68.921 231.883,67.108 231.883,66.214C231.883,65.321 233.698,63.54 234.59,63.54C235.482,63.54 237.299,65.321 237.299,66.214C237.299,67.107 235.482,68.921 234.59,68.921ZM232.055,86.573L232.055,71.044L237.127,71.044L237.127,86.573L232.055,86.573Z" style="fill:white;fill-rule:nonzero;"/>
        <path d="M250.116,86.573L250.116,77.044C250.116,75.913 249.362,74.919 247.819,74.919C246.308,74.919 245.349,75.88 245.349,77.112L245.349,86.573L240.313,86.573L240.313,71.046L244.938,71.046L244.938,73.137L244.972,73.137C245.589,71.491 247.201,70.567 249.702,70.567C253.095,70.567 255.15,72.489 255.15,75.778L255.15,86.575L250.116,86.573Z" style="fill:white;fill-rule:nonzero;"/>
        <path d="M265.094,94.487C260.571,94.487 257.557,91.919 257.557,88.661C257.557,86.298 259.131,84.893 260.744,84.483L258.759,82.493C258.896,81.501 259.753,80.643 260.644,80.266C259.478,79.544 258.38,78.073 258.38,76.12C258.38,72.829 260.744,70.532 264.789,70.532C265.716,70.532 266.435,70.671 267.087,70.841C267.773,71.012 268.525,71.114 269.316,71.114C270.171,71.114 271.062,70.907 271.751,70.598L272.676,74.438C272.196,74.71 271.442,74.952 270.756,74.917C270.93,75.229 271.133,75.948 271.133,76.495C271.133,79.1 269.076,81.292 266.061,81.499C265.444,81.532 265.032,81.669 265.032,82.081C265.032,82.253 265.173,82.456 265.444,82.56L267.84,83.416C270.891,84.515 272.535,86.056 272.535,88.898C272.532,92.091 269.616,94.487 265.094,94.487ZM266.157,87.188L264.304,86.673C263.105,86.706 262.216,87.565 262.216,88.694C262.216,89.756 263.14,90.647 264.955,90.647C266.737,90.647 267.696,89.823 267.696,88.932C267.7,88.216 267.15,87.462 266.157,87.188ZM264.787,74.198C263.655,74.198 262.799,75.053 262.799,76.052C262.799,77.081 263.655,77.905 264.787,77.905C265.883,77.905 266.772,77.083 266.772,76.052C266.773,75.053 265.95,74.198 264.787,74.198Z" style="fill:white;fill-rule:nonzero;"/>
        <path d="M290.045,86.573L282.676,86.573L282.676,64.706L290.045,64.706C296.316,64.706 301.769,68.817 301.769,75.641C301.768,82.423 296.352,86.573 290.045,86.573ZM289.532,69.059L287.818,69.059L287.818,82.249L289.532,82.249C293.303,82.249 296.422,80.057 296.422,75.669C296.42,71.284 293.336,69.059 289.532,69.059Z" style="fill:white;fill-rule:nonzero;"/>
        <path d="M312.254,87.05C307.559,87.05 303.789,83.729 303.789,78.79C303.789,73.854 307.559,70.53 312.254,70.53C316.916,70.53 320.721,73.854 320.721,78.79C320.721,83.727 316.916,87.05 312.254,87.05ZM312.254,74.919C310.369,74.919 308.76,76.565 308.76,78.858C308.76,81.157 310.369,82.798 312.254,82.798C314.108,82.798 315.752,81.155 315.752,78.858C315.752,76.563 314.107,74.919 312.254,74.919Z" style="fill:white;fill-rule:nonzero;"/>
        <path d="M331.037,87.05C326.342,87.05 322.571,83.729 322.571,78.79C322.571,73.854 326.342,70.53 331.037,70.53C335.698,70.53 339.502,73.854 339.502,78.79C339.502,83.727 335.7,87.05 331.037,87.05ZM331.037,74.919C329.149,74.919 327.541,76.565 327.541,78.858C327.541,81.157 329.149,82.798 331.037,82.798C332.889,82.798 334.532,81.155 334.532,78.858C334.532,76.563 332.889,74.919 331.037,74.919Z" style="fill:white;fill-rule:nonzero;"/>
        <path d="M351.566,76.393C351.259,76.218 350.572,76.014 350.058,76.014C348.447,76.014 346.974,76.872 346.974,79.337L346.974,86.569L341.937,86.569L341.937,71.044L346.907,71.044L346.907,74.507L346.939,74.507C347.454,72.073 349.269,70.774 351.361,70.774C351.84,70.774 352.425,70.841 352.802,70.981L351.566,76.393Z" style="fill:white;fill-rule:nonzero;"/>
        <path d="M359.553,86.913C357.428,86.913 355.887,86.471 354.618,85.819L354.172,81.362C355.543,82.323 357.324,83.042 359.038,83.042C359.965,83.042 360.547,82.563 360.547,81.98C360.547,81.328 360.031,81.054 359.141,80.781C356.16,79.924 354.379,78.416 354.379,75.709C354.379,72.658 356.844,70.705 360.201,70.705C362.122,70.705 364.008,71.22 364.797,71.631L363.94,75.33C363.186,74.922 361.953,74.476 360.717,74.476C359.897,74.476 359.348,74.855 359.348,75.469C359.348,76.054 359.758,76.363 360.717,76.601C364.213,77.529 365.655,79.275 365.655,81.879C365.654,84.516 363.734,86.913 359.553,86.913Z" style="fill:white;fill-rule:nonzero;"/>
    </g>
</svg>
