<?xml version="1.0" encoding="utf-8"?>
<!-- Generator: Adobe Illustrator 18.1.0, SVG Export Plug-In . SVG Version: 6.00 Build 0)  -->
<!DOCTYPE svg PUBLIC "-//W3C//DTD SVG 1.1//EN" "http://www.w3.org/Graphics/SVG/1.1/DTD/svg11.dtd">
<svg version="1.1" id="Layer_1" xmlns="http://www.w3.org/2000/svg" xmlns:xlink="http://www.w3.org/1999/xlink" x="0px" y="0px"
	 viewBox="0 0 2870.353 2218" enable-background="new 0 0 2870.353 2218" xml:space="preserve">
<rect x="0" fill="#EC2127" width="2870.353" height="2218"/>
<g>
	<path fill="#FFFFFF" d="M1783.335,601.597c-27.009-38.191-41.221-83.848-41.221-132.359V459h-84v10.239
		c0,52.917,15.418,102.739,44.954,144.513l2.941,4.248h89.011L1783.335,601.597z M1721.142,480c0.785,20,3.873,40,9.151,59h-41.261
		c-5.784-19-9.173-39-10.031-59H1721.142z M1716.997,597c-3.737-5-7.207-11-10.413-17h39.495c2.847,6,5.927,12,9.239,17H1716.997z"
		/>
	<path fill="#FFFFFF" d="M2579.449,1472.496c-18.455-51.338-59.829-87.513-123.04-107.656
		c-7.697-20.788-51.928-138.536-114.34-273.42l49.789-92.983c15.004-27.979,16.45-55.505,4.123-77.504
		c-12.327-21.935-36.572-35.04-68.266-36.811l-94.953-5.399c-24.398-41.917-49.679-81.347-75.245-115.691
		c-1.325-20.227-8.563-42.5-21.73-63.217c-2.641-4.184-5.46-8.028-8.431-11.803C2203.887,652.914,2258.259,571,2260.62,476h13.859
		c4.259,11,15.137,19.138,27.912,19.138c16.472,0,29.836-13.415,29.836-29.909c0-16.45-13.364-29.694-29.836-29.694
		c-12.786,0-23.672,7.466-27.923,19.466h-14.188c-6.16-110-81.479-200.255-179.05-218.997c0.377-0.909,0.753-1.911,1.124-2.841
		c20.314-50.67,20.575-87.265,0.842-111.791c-10.731-13.3-25.174-19.711-39.141-17.618c-9.002,1.36-20.704,6.508-31.521,21.86
		c-1.879-4.837-4.037-9.202-6.564-13.111c-8.894-14.054-21.071-21.354-34.932-20.319c-15.652,1.081-30.634,12.867-42.25,32.815
		c-0.086-0.172-0.172-0.323-0.259-0.496c-10.536-19.95-25.302-30.94-41.56-30.94c-16.278,0-31.068,10.99-41.56,30.895
		c-0.128,0.195-0.194,0.367-0.301,0.561c-11.615-19.948-26.599-31.757-42.207-32.838c-13.884-0.993-26.039,6.241-34.977,20.295
		c-2.483,3.931-4.684,8.334-6.541,13.147c-10.793-15.349-22.517-20.531-31.519-21.891c-14.142-2.094-28.435,4.296-39.163,17.595
		c-19.711,24.482-19.474,61.054,0.798,111.747c0.912,2.269,1.844,4.651,2.794,6.801C1604.795,265.039,1537.456,351,1531.645,455
		h-108.559c-4.256-12-15.148-19.501-27.899-19.501c-16.494,0-29.836,13.297-29.836,29.748c0,16.494,13.342,29.936,29.836,29.936
		c12.74,0,23.624-8.182,27.888-19.182h108.23c1.986,80,40.804,150.673,98.652,191.921c-10.454,8.496-19.979,19.276-28.01,31.963
		c-17.01,26.784-24.14,56.138-21.354,80.336l-36.526,42.303c-18.114,20.981-34.283,52.58-44.847,84.883l-158.418,27.843
		c-52.764,9.263-124.613-19.021-156.868-61.877l-122.692-162.893c-3.52-4.662-10.125-5.527-14.746-2.094
		c-4.665,3.52-5.593,10.125-2.074,14.768l122.672,162.89c32.211,42.769,96.395,72.044,152.484,72.044
		c8.529,0,16.861-0.67,24.893-2.116l148.17-26.077c-4.05,16.755-6.528,33.074-6.528,47.536v392.337
		c-3,4.074-6.228,8.436-9.151,13.045c-28.93,45.555-29.229,98.663-0.774,120.901c8.204,6.369,18.027,9.628,28.757,9.628
		c3.172,0,6.477-0.281,9.802-0.862c6.467-1.117,13.002-3.451,19.428-6.596L1601.667,1833h429.955
		c-0.826,19-15.257,38.13-32.235,43.791c-21.481,7.167-63.667,19.348-94.065,27.099c-28.368,7.167-65.953,21.795-80.031,33.799
		c-13.881,11.81-24.176,32.073-24.176,47.099V2017h49.958c5.234,44,42.708,78.132,88.036,78.132
		c45.348,0,82.807-34.132,88.038-78.132h140.167c5.234,44,42.708,78.132,88.036,78.132c45.327,0,82.821-34.132,88.057-78.132h48.708
		v-32.212c0-15.026-10.578-35.255-24.437-47.065c-14.076-12.004-51.869-26.598-80.215-33.765c-30.42-7.751-72.632-20-94.092-27.168
		c-16.999-5.66-31.457-24.791-32.283-43.791h318.445l3.153-4.353C2488.751,1819.926,2630.442,1614.207,2579.449,1472.496z
		 M2326.551,905.149c24.245,1.36,42.38,10.665,51.08,26.122c8.679,15.48,7.125,35.796-4.318,57.212l-42.368,79.127
		c-26.155-55.419-55.126-112.885-85.686-167.076L2326.551,905.149z M2154.192,794.328c18.039,25.596,35.889,53.568,53.328,82.958
		l-105.692-6.01c-6.305-0.648-10.773,4.145-11.12,9.931c-0.301,5.808,4.125,10.773,9.933,11.118l119.613,6.79
		c35.364,61.65,68.769,128.289,98.302,191.632l-43.365,80.987c-2.763,5.138-0.842,11.529,4.296,14.248
		c1.598,0.864,3.281,1.253,4.987,1.253c3.734,0,7.362-2.01,9.261-5.549l35.875-67.056c51.44,112.502,89.492,211.369,102.922,246.369
		h-438.447c-0.569,0-1.137-1.191-1.715-1.771l-1.779,1.771h-187.477V977.43c0-43.545,23.858-108.205,52.313-141.194l9.429-11.043
		c1.367,0.086,2.692,0.139,4.072,0.139c20.098,0,38.856-9.219,52.868-25.906c1.749-2.074,3.357-4.253,4.911-6.564
		c15.522,19.667,36.135,31.802,57.14,33.55c17.445,1.36,33.375-4.406,45.507-16.386c4.968-4.923,9.131-10.795,12.392-17.423
		c16.364,20.056,36.658,33.484,56.411,36.895c14.66,2.505,27.895-0.539,38.515-8.808
		C2144.967,814.216,2150.792,805.102,2154.192,794.328z M2239.175,455H2131.75c-4.949-27-28.056-46.38-55.743-46.38
		c-31.262,0-56.714,25.366-56.714,56.626c0,31.284,25.452,56.834,56.714,56.834c27.674,0,50.772-20.08,55.736-46.08h107.794
		c-3.124,116-89.894,209.34-196.088,209.34c-108.205,0-196.224-96.944-196.224-216.03c0-119.064,88.019-215.795,196.224-215.795
		C2147.156,253.514,2232.332,342,2239.175,455z M2090.947,476h19.113c-4.503,14-18.057,24.966-34.053,24.966
		c-19.669,0-35.644-16.046-35.644-35.737c0-19.645,15.975-35.502,35.644-35.502c16.005,0,29.566,10.273,34.06,25.273h-19.12
		c-5.83,0-10.536,4.669-10.536,10.477C2080.41,471.306,2085.117,476,2090.947,476z M1711.039,225.259
		c-16.926-42.402-18.243-72.928-3.928-90.698c3.453-4.318,10.578-11.398,19.602-9.995c9.758,1.468,19.581,12.911,26.942,31.326
		l16.711,47.087l5.116-45.296c1.556-14.162,5.096-25.841,10.233-33.895c4.729-7.426,9.975-10.945,15.696-10.6
		c7.924,0.542,20.056,9.241,30.354,31.888c1.643,3.65,2.98,7.514,4.298,11.379l11.507,33.334l8.679-34.176
		c2.202-8.593,4.707-15.544,7.771-21.265c13.214-25.065,32.666-25.043,45.877-0.022c3.022,5.744,5.549,12.716,7.729,21.287
		l8.83,32.836l11.615-32.708c1.253-3.625,2.549-7.275,4.059-10.665c10.298-22.647,22.432-31.346,30.356-31.888
		c5.763-0.495,10.968,3.175,15.716,10.6c5.138,8.054,8.679,19.777,10.211,33.895l4.923,44.215l15.436-41.732l1.426-4.251
		c7.384-18.46,17.229-29.88,26.987-31.348c8.938-1.165,16.127,5.677,19.603,9.975c14.315,17.81,12.997,48.338-3.973,90.718
		c-1.051,2.632-2.143,5.054-3.27,7.508c-5.316-0.427-10.683-0.767-16.097-0.767h-294.953c-11.279,0-22.36,1.06-33.181,2.877
		C1713.841,231.782,1712.41,228.661,1711.039,225.259z M1552.272,468.989c0-119.064,88.019-215.989,196.224-215.989h205.421
		c-75.274,38-127.765,120.105-127.765,215.989c0,95.887,52.494,179.011,127.772,216.011h-205.429
		C1640.291,685,1552.272,588.075,1552.272,468.989z M1619.737,711.083c8.142-12.859,18.378-23.898,29.202-31.343
		c29.844,16.858,63.698,26.26,99.557,26.26h294.953c22,0,43.241-3.465,63.269-10.13c4.047,4.602,7.827,9.719,11.302,15.146
		c22.41,35.319,25.021,77.927,5.677,93.04c-5.85,4.576-13.298,6.169-21.935,4.679c-18.049-3.13-38.127-19.033-53.087-42.825
		l-15.738-26.938l-4.945,28.198c-2.052,11.507-6.692,21.158-13.45,27.85c-7.815,7.731-17.854,11.357-28.952,10.387
		c-16.256-1.362-32.577-11.854-44.796-28.801c-2.202-3.108-4.037-6.369-5.808-9.628l-10.687-19.561l-8.335,20.64
		c-2.936,7.211-6.303,13.041-10.298,17.834c-19.927,23.682-53.67,23.682-73.576,0c-4.017-4.793-7.406-10.623-10.298-17.834
		l-8.312-20.531l-10.687,19.408c-1.793,3.283-3.605,6.564-5.852,9.694c-12.197,16.925-28.519,27.418-44.796,28.78
		c-11.14,0.948-21.159-2.655-28.93-10.386c-6.78-6.692-11.443-16.342-13.472-27.849l-4.943-28.196l-14.487,24.676l-1.943,3.606
		c-14.271,22.452-34.348,38.363-52.397,41.494c-8.701,1.512-16.063-0.106-21.913-4.64
		C1594.716,788.977,1597.327,746.402,1619.737,711.083z M1559.831,836.236l27.705-31.979c3.369,6.483,7.89,12.076,13.496,16.457
		c8.182,6.389,18.009,9.65,28.74,9.65c3.175,0,6.469-0.303,9.793-0.864c19.733-3.411,40.032-16.839,56.419-36.895
		c3.26,6.628,7.431,12.5,12.396,17.423c12.133,11.98,28.37,17.768,45.512,16.386c21.029-1.749,41.625-13.903,57.168-33.55
		c1.534,2.31,3.175,4.49,4.902,6.564c7.46,8.885,16.288,15.628,25.938,20.014l-2.415,3.064
		c-31.757,36.809-57.372,106.328-57.372,154.925V1361h-275V977.43C1507.115,933.885,1531.377,869.225,1559.831,836.236z
		 M1511.165,1491.731c-8.679,1.51-16.063-0.064-21.913-4.643c-19.344-15.113-16.733-57.811,5.677-93.088
		c2.686-4.223,5.554-8,8.558-12h481.146c3.034,4,5.906,7.774,8.579,11.978c22.408,35.299,25.021,77.946,5.677,93.038
		c-5.85,4.598-13.3,6.179-21.913,4.689c-18.049-3.13-38.127-19.008-53.109-42.82l-15.718-26.938l-4.965,28.199
		c-2.029,11.529-6.692,21.181-13.45,27.875c-7.793,7.729-17.854,11.444-28.952,10.385c-16.256-1.382-32.555-11.873-44.796-28.799
		c-2.202-3.11-4.037-6.369-5.808-9.63l-10.665-19.558l-8.357,20.637c-2.914,7.189-6.303,13.019-10.298,17.812
		c-19.906,23.706-53.67,23.706-73.576,0c-4.017-4.793-7.384-10.623-10.278-17.812l-8.332-20.531l-10.687,19.388
		c-1.793,3.303-3.606,6.584-5.852,9.694c-12.197,16.926-28.519,27.418-44.776,28.799c-11.14,1.037-21.135-2.655-28.949-10.384
		c-6.759-6.694-11.421-16.344-13.45-27.873l-4.965-28.196l-14.465,24.698l-1.965,3.584
		C1549.292,1472.71,1529.214,1488.601,1511.165,1491.731z M1939.108,2074.062c-33.693,0-61.686-25.062-66.767-57.062h133.555
		C2000.809,2049,1972.784,2074.062,1939.108,2074.062z M2255.349,2074.062c-33.674,0-61.683-25.062-66.767-57.062h133.555
		C2317.053,2049,2289.042,2074.062,2255.349,2074.062z M2186.674,1896.782c21.869,7.298,64.724,19.671,95.531,27.486
		c31.22,7.945,62.99,21.905,71.864,29.484c9.694,8.226,17.046,23.179,17.046,31.036V1996h-549v-11.212
		c0-7.857,7.092-22.775,16.808-31.001c8.851-7.579,40.442-21.504,71.64-29.449c30.807-7.815,73.633-20.257,95.503-27.555
		c25.695-8.55,45.868-35.782,46.651-63.782h87.296C2140.795,1861,2160.999,1888.232,2186.674,1896.782z M2468.436,1812h-849.583
		l-65.722-318.347c6.359-5.181,12.437-11.226,18.051-18.1c3.283,6.628,7.428,12.505,12.393,17.426
		c12.155,11.982,28.304,17.867,45.51,16.421c21.049-1.749,41.624-13.897,57.168-33.544c1.532,2.31,3.175,4.473,4.901,6.545
		c14.012,16.711,32.816,25.909,52.914,25.909c20.1,0,38.905-9.196,52.917-25.907c1.727-2.071,3.347-4.231,4.901-6.541
		c15.522,19.669,36.139,31.802,57.168,33.551c17.359,1.446,33.378-4.426,45.488-16.408c4.965-4.921,9.133-10.773,12.416-17.401
		c16.342,20.034,36.659,33.464,56.39,36.875c14.66,2.525,27.895-0.539,38.516-8.788c28.455-22.216,28.068-75.429-0.862-120.984
		c-0.129-0.204-0.264-0.708-0.394-0.708h430.446c61.709,18,101.606,50.28,118.553,97.393
		C2603.044,1599.947,2488.773,1781,2468.436,1812z"/>
	<path fill="#FFFFFF" d="M1682.173,363.906c0-26.124-21.288-47.412-47.41-47.412c-26.144,0-47.387,21.287-47.387,47.412
		c0,26.144,21.243,47.409,47.387,47.409C1660.886,411.315,1682.173,390.05,1682.173,363.906z M1634.764,390.244
		c-14.529,0-26.339-11.81-26.339-26.339c0-14.531,11.81-26.319,26.339-26.319s26.317,11.788,26.317,26.319
		C1661.08,378.435,1649.293,390.244,1634.764,390.244z"/>
	<path fill="#FFFFFF" d="M1786.45,411.315c26.124,0,47.412-21.265,47.412-47.409c0-26.124-21.287-47.412-47.412-47.412
		c-26.122,0-47.387,21.287-47.387,47.412C1739.062,390.05,1760.327,411.315,1786.45,411.315z M1786.45,337.587
		c14.531,0,26.339,11.788,26.339,26.319c0,14.529-11.808,26.339-26.339,26.339c-14.507,0-26.339-11.81-26.339-26.339
		C1760.111,349.374,1771.943,337.587,1786.45,337.587z"/>
	<path fill="#FFFFFF" d="M1645.795,913.223c18.396,0,33.356-14.94,33.356-33.334c0-18.393-14.96-33.356-33.356-33.356
		c-18.393,0-33.356,14.962-33.356,33.356C1612.439,898.283,1627.402,913.223,1645.795,913.223z M1645.795,867.604
		c6.758,0,12.263,5.507,12.263,12.285c0,6.778-5.505,12.285-12.263,12.285c-6.778,0-12.283-5.507-12.283-12.285
		C1633.512,873.111,1639.017,867.604,1645.795,867.604z"/>
	<path fill="#FFFFFF" d="M1604.107,1156.319c18.393,0,33.356-14.94,33.356-33.334c0-18.393-14.962-33.356-33.356-33.356
		c-18.393,0-33.355,14.962-33.355,33.356C1570.752,1141.379,1585.714,1156.319,1604.107,1156.319z M1604.107,1110.7
		c6.778,0,12.285,5.527,12.285,12.285c0,6.778-5.507,12.285-12.285,12.285c-6.758,0-12.285-5.507-12.285-12.285
		C1591.822,1116.227,1597.349,1110.7,1604.107,1110.7z"/>
	<path fill="#FFFFFF" d="M1604.107,1070.091c18.393,0,33.356-14.94,33.356-33.334c0-18.393-14.962-33.356-33.356-33.356
		c-18.393,0-33.355,14.962-33.355,33.356C1570.752,1055.151,1585.714,1070.091,1604.107,1070.091z M1604.107,1024.472
		c6.778,0,12.285,5.527,12.285,12.285c0,6.781-5.507,12.285-12.285,12.285c-6.758,0-12.285-5.505-12.285-12.285
		C1591.822,1029.999,1597.349,1024.472,1604.107,1024.472z"/>
	<path fill="#FFFFFF" d="M1613.412,985.417c18.371,0,33.356-14.938,33.356-33.334c0-18.393-14.984-33.356-33.356-33.356
		c-18.393,0-33.378,14.962-33.378,33.356C1580.034,970.479,1595.019,985.417,1613.412,985.417z M1613.412,939.779
		c6.758,0,12.263,5.527,12.263,12.305c0,6.78-5.505,12.285-12.263,12.285c-6.78,0-12.285-5.505-12.285-12.285
		C1601.127,945.305,1606.632,939.779,1613.412,939.779z"/>
	<path fill="#FFFFFF" d="M176.115,1965h359v130h92v-130h358V875h-809V1965z M605.115,2074h-49v-109h49V2074z M197.115,896h767v1048
		h-767V896z"/>
	<path fill="#FFFFFF" d="M247.115,1886h668V946h-668V1886z M268.115,967h626v898h-626V967z"/>
	<path fill="#FFFFFF" d="M812.923,1428.367c0-23.925-3.646-47.013-10.411-68.74l10.411,0.107
		c0.133-11.979-3.868-30.574-27.282-40.332c-14.577-27.226-34.434-51.213-58.198-70.588c0.199-14.136-4.32-19.063-6.75-21.703
		c-4.685-5.054-13.578-9.825-29.597-3.606l0.479,1.224c-21.091-11.463-44.153-19.736-68.535-24.186
		c-4.264-8.151-9.033-14.217-14.308-17.778c-8.564-5.787-26.09-11.47-47.43,14.89c-40.428,3.484-77.92,17.387-109.76,39.023
		c-8.523-2.464-16.027-3.24-22.239-2.033c-6.435,1.296-21.179,6.864-19.063,30.937l7.188-0.636
		c-17.965,18.024-32.98,38.987-44.268,62.091c-7.554,1.831-13.661,4.74-17.997,8.904c-6.389,6.133-12.347,17.467-4.404,36.508
		l6.559-2.734c-4.908,18.739-7.53,38.393-7.53,58.651c0,16.975,1.852,33.523,5.335,49.469c-8.484,9.469-13.768,18.349-15.071,26.287
		c-1.729,10.364,0.517,28.93,34.413,37.156l1.477-6.083c17.488,33.5,42.929,62.208,73.805,83.615l-7.383,2.133
		c5.743,19.841,17.465,24.979,26.294,25.757c0.734,0.042,1.534,0.106,2.332,0.106c5.959-0.002,12.466-1.93,19.392-5.48
		c18.534,7.948,38.308,13.537,58.942,16.404l-7.088,15.028c4.921,2.31,11.463,4.446,18.891,4.446
		c10.362,0,22.437-4.151,34.289-17.688c48.28-2.906,92.617-20.658,128.487-48.758l4.907,11.071
		c12.291-5.414,29.528-17.896,30.384-45.303c13.313-15.957,24.531-33.719,33.21-52.87l1.043,3.353
		c16.366-5.096,20.339-14.401,20.834-21.309c0.228-3.574,0.67-10.225-8.277-21.095
		C810.515,1466.593,812.923,1447.757,812.923,1428.367z M610.172,1636.902c21.597-42.99,34.504-119.266,38.585-197.387
		c2.172-3.797,4.297-7.55,6.37-11.25c8.811,10.079,17.231,20.231,25.104,30.348c-2.575,3.991-4.076,8.733-4.076,13.816
		c0,14.12,11.507,25.605,25.627,25.605c2.018,0,3.978-0.242,5.861-0.685c11.923,18.9,21.097,37.138,26.413,53.924
		c2.132,6.723,3.367,12.556,3.895,17.635C705.454,1605.081,660.639,1629.964,610.172,1636.902z M370.838,1428.367
		c0-29.371,6.054-57.352,16.965-82.772c9.584-0.728,22.338-0.029,37.828,2.141c2.886,10.973,12.893,19.079,24.765,19.079
		c8.391,0,15.851-4.05,20.524-10.299c17.286,4.104,36.368,9.351,56.98,15.782c-62.136,26.937-119.893,59.2-154.604,88.262
		C371.679,1450.062,370.838,1439.311,370.838,1428.367z M475.477,1336.075c-2.395-11.642-12.732-20.448-25.081-20.448
		c-8.88,0-16.715,4.553-21.309,11.437c-11.119-1.534-21.486-2.399-30.847-2.461c14.286-25.114,33.585-47.017,56.531-64.338
		c28.806,12.695,76.515,47.529,124.712,91.3c-7.379,2.733-14.768,5.571-22.138,8.5
		C529.779,1350.779,501.724,1342.372,475.477,1336.075z M596.417,1367.302c3.738,3.554,7.465,7.152,11.175,10.789
		c-6.625-2.516-13.373-5.024-20.208-7.506C590.398,1369.472,593.409,1368.378,596.417,1367.302z M629.722,1372.664
		c-4.069-4.229-8.173-8.428-12.305-12.586c4.019-1.325,8.021-2.612,12.001-3.857
		C629.565,1361.646,629.666,1367.132,629.722,1372.664z M649.538,1350.234c8.648-2.435,17.139-4.639,25.417-6.585
		c-6.968,15.14-15.201,31.842-24.816,50.044C650.257,1378.98,650.057,1364.423,649.538,1350.234z M754.135,1544.884
		c-5.174-16.332-16.031-36.5-30.818-58.653c2.558-3.986,4.048-8.721,4.048-13.802c0-14.098-11.465-25.605-25.583-25.605
		c-2.259,0-4.45,0.298-6.539,0.85c-3.957-5.054-8.051-10.152-12.258-15.275c51.285,23.914,84.027,44.355,99.637,57.738
		c-6.336,20.604-15.759,39.866-27.721,57.254C754.657,1546.564,754.403,1545.729,754.135,1544.884z M691.98,1413.382
		c-6.98-3.259-14.711-6.742-23.046-10.371c5.27-9.898,10.011-19.129,14.107-27.43c6.732-13.641,12.502-26,17.439-37.211
		c5.388-0.947,10.642-1.754,15.739-2.409c4.391,7.774,12.727,13.042,22.286,13.042c9.986,0,18.667-5.766,22.884-14.138
		c3.526,0.443,6.651,1.03,9.409,1.737c13.496,27.75,21.076,58.887,21.076,91.765c0,13.504-1.293,26.709-3.735,39.513
		C770.468,1454.119,741.011,1436.263,691.98,1413.382z M747.747,1299.552c-2.87-1.117-5.985-1.736-9.242-1.736
		c-11.254,0-20.813,7.299-24.233,17.41c-1.441,0.19-2.893,0.391-4.357,0.604c6.827-17.304,11.233-31.168,13.917-42.299
		C732.506,1281.519,740.509,1290.223,747.747,1299.552z M705.598,1258.529c-2.375,13.472-8.822,34.217-20.322,61.675
		c-11.798,2.442-24.11,5.445-36.764,8.929c-2.513-41.196-7.887-78.115-16.147-105.023
		C659.168,1230.805,683.949,1242.649,705.598,1258.529z M581.356,1217.849c9.743,0,19.328,0.68,28.723,1.967
		c9.762,24.189,16.056,66.252,18.519,115.108c-9.102,2.782-18.325,5.778-27.612,8.966c-44.196-42.602-89.904-79.136-125.571-97.381
		C506.552,1228.301,542.753,1217.849,581.356,1217.849z M360.843,1507.556c0.235-1.432,0.685-2.926,1.315-4.471
		c1.557,4.557,3.261,9.045,5.09,13.47C362.438,1513.992,360.286,1510.979,360.843,1507.556z M377.951,1482.667
		c31.976-30.291,103.992-69.875,179.768-100.593c22.547,7.735,46.559,16.728,71.734,27.01c-0.196,7.903-0.485,15.838-0.862,23.768
		c-32.24,56.434-63.623,102.346-90.266,135.199c-2.133-0.575-4.374-0.888-6.688-0.888c-14.098,0-25.585,11.465-25.585,25.561
		c0,3.3,0.634,6.452,1.776,9.35c-6.717,6.573-12.844,11.837-18.27,15.716C435.185,1591.337,393.843,1542.149,377.951,1482.667z
		 M522.646,1616.675c2.799,1.054,5.828,1.635,8.991,1.635c14.14,0,25.627-11.465,25.627-25.585c0-4.122-0.988-8.016-2.732-11.467
		c24.12-29.821,48.788-66.4,70.8-102.229c-5.966,62.917-18.042,120.758-36.872,153.81c-1.253,2.198-2.49,4.178-3.711,6.001
		c-1.13,0.018-2.258,0.043-3.392,0.043c-24.535,0-48.097-4.233-70.01-11.982C515.048,1623.795,518.819,1620.377,522.646,1616.675z"
		/>
	<polygon fill="#FFFFFF" points="479.151,1153.038 441.305,1053.727 421.638,1061.219 459.506,1160.508 	"/>
	<polygon fill="#FFFFFF" points="740.793,1061.219 721.126,1053.727 683.258,1153.038 702.925,1160.508 	"/>
	<polygon fill="#FFFFFF" points="403.871,1204.657 326.041,1132.312 311.663,1147.748 389.514,1220.095 	"/>
	<polygon fill="#FFFFFF" points="757.524,1204.657 771.861,1220.095 849.69,1147.748 835.311,1132.312 	"/>
	<rect x="571.115" y="1033" fill="#FFFFFF" width="21" height="97"/>
</g>
</svg>
