<?xml version="1.0" encoding="utf-8"?>
<!-- Generator: Adobe Illustrator 22.0.1, SVG Export Plug-In . SVG Version: 6.00 Build 0)  -->
<!DOCTYPE svg PUBLIC "-//W3C//DTD SVG 1.1//EN" "http://www.w3.org/Graphics/SVG/1.1/DTD/svg11.dtd">
<svg version="1.1" id="Layer_1" xmlns="http://www.w3.org/2000/svg" xmlns:xlink="http://www.w3.org/1999/xlink" x="0px" y="0px"
	 viewBox="0 0 880 400" style="enable-background:new 0 0 880 400;" xml:space="preserve">
<style type="text/css">
	.st0{fill:#FFFFFF;}
</style>
<rect x="-12.1" y="-5.5" width="904.1" height="411"/>
<g>
	<path class="st0" d="M427.5,171.3c-8.5,0-16,2.8-22.2,11.9H405v-9.8h-20.2v75.2h21.1v-42.7c0-10.2,5.3-17.6,13.8-17.6
		c6.6,0,11.2,3.7,11.2,14.5v45.8h21.1v-51.1C451.9,183,445.7,171.3,427.5,171.3z"/>
	<path class="st0" d="M373.6,248.6v-9.4V211v-15.4c0-17.3-15.5-24.3-34.1-24.3c-26.3,0-34.5,14.8-35.3,26.3h20.2
		c0.4-6.7,5.6-11.1,14.2-11.1c9.2,0,14.8,4.4,14.8,13.3v3.5l-19.5,1.2c-29.4,1.8-32.1,15.1-32.1,23.1c0,17.1,14.5,23,26.3,23
		c8.8,0,18.7-2.6,25.8-11.9h0.3v9.8H373.6z M353.4,222.7c0,9.1-10.7,12.7-17.3,12.7c-7,0-13.2-2-13.2-8.8c0-5.4,3.2-8.3,12.9-9.2
		l17.6-1.6V222.7z"/>
	<path class="st0" d="M680.2,193.3c0-4.5,5.6-6.7,11.1-6.7c8.1,0,12.6,3.8,12.9,10.1l21.1-0.4c-1.2-16.4-13.9-24.9-33.2-24.9
		c-22.2,0-31.2,12.6-31.2,24.2c0,31,45.1,19.6,45.1,32.2c0,6.1-7,7.8-12.4,7.8c-6.3,0-12.7-2.9-13-10.2h-21.1
		c1.8,22.2,22.8,25.5,33.4,25.5c31,0,34.3-19.3,34.3-25.2C727,195,680.2,206.7,680.2,193.3z"/>
	<path class="st0" d="M653.1,248.6v-9.4V211v-15.4c0-17.3-15.5-24.3-34.1-24.3c-26.3,0-34.5,14.8-35.3,26.3h20.2
		c0.4-6.7,5.6-11.1,14.2-11.1c9.2,0,14.8,4.4,14.8,13.3v3.5l-19.5,1.2c-29.4,1.8-32.1,15.1-32.1,23.1c0,17.1,14.5,23,26.3,23
		c8.8,0,18.7-2.6,25.8-11.9h0.3v9.8H653.1z M632.9,222.7c0,9.1-10.7,12.7-17.3,12.7c-7,0-13.2-2-13.2-8.8c0-5.4,3.2-8.3,12.9-9.2
		l17.6-1.6V222.7z"/>
	<path class="st0" d="M556.4,222.1c-1.3,6.9-5.4,11.5-13.2,11.5c-11,0-14.5-11.1-14.5-21.1c0-9.7,1.6-23.4,14.6-23.4
		c5.4,0,11.4,2.4,12.1,12.2h20.6l1.4-0.1c-1-16-11.7-30-34.1-30c-22.8,0-36.6,16.2-36.6,40.4c0,23.1,12.4,38.9,37,38.9
		c20.2,0,30.1-12,33.4-28.5H556.4z"/>
	<path class="st0" d="M458.2,173.6h9.8v-21.9h21.3v21.9h11.3v16.3h-11.3v38.5c0,3.4,1.5,5,7,5c1.8,0,3-0.1,4.3-0.4v16.7
		c-3.4,0.4-6.8,0.9-10.2,0.9c-13.9,0-22.4-3.4-22.4-19.8v-40.9h-9.8V173.6z"/>
	<path class="st0" d="M729.1,173.6h9.8v-21.9h21.3v21.9h11.3v16.3h-11.3v38.5c0,3.4,1.5,5,7,5c1.8,0,3-0.1,4.3-0.4v16.7
		c-3.4,0.4-6.8,0.9-10.2,0.9c-13.9,0-22.4-3.4-22.4-19.8v-40.9h-9.8V173.6z"/>
	<path class="st0" d="M272.6,216.1c0,10.2-5.3,17.6-13.8,17.6c-6.6,0-11.2-3.7-11.2-14.5v-45.8h-21.1v51.1
		c0,14.5,8.2,26.2,26.3,26.2c8.5,0,14-2.8,20.3-11.9h0.3v9.8h20.2v-75.2h-21.1V216.1z"/>
	<path class="st0" d="M182.3,248.2l6.9,11.9h24.6l-13.1-22.5c11.8-10.7,17.9-26.5,17.9-42.1c0-27.6-18.9-55.6-55.1-55.6
		s-55.1,28-55.1,55.6c0,27.6,18.9,55.6,55.1,55.6C170.5,251.1,176.7,250.1,182.3,248.2z M132.5,195.5c0-17.9,9.6-36,31.1-36
		c21.5,0,31.1,18.1,31.1,36c0,7.8-1.8,15.6-5.6,21.9l-24.6,0l7.5,13c-2.6,0.7-5.4,1.1-8.5,1.1C142.1,231.4,132.5,213.4,132.5,195.5z
		"/>
</g>
</svg>
