<?xml version="1.0" encoding="utf-8"?>
<!-- Generator: Adobe Illustrator 27.2.0, SVG Export Plug-In . SVG Version: 6.00 Build 0)  -->
<svg version="1.1" id="Layer_1" xmlns="http://www.w3.org/2000/svg" xmlns:xlink="http://www.w3.org/1999/xlink" x="0px" y="0px"
	 viewBox="0 0 880 400" style="enable-background:new 0 0 880 400;" xml:space="preserve">
<style type="text/css">
	.st0{fill:#FFFFFF;}
</style>
<rect x="-12.1" y="-5.5" width="904.1" height="411"/>
<g>
	<path class="st0" d="M431.9,181.5c-5.5,0-10.3,1.8-14.3,7.7h-0.2v-6.3h-13v48.3H418v-27.5c0-6.6,3.4-11.3,8.9-11.3
		c4.2,0,7.2,2.4,7.2,9.3v29.4h13.6v-32.9C447.6,189.1,443.6,181.5,431.9,181.5z"/>
	<path class="st0" d="M397.3,231.2v-6v-18.1v-9.9c0-11.1-10-15.6-21.9-15.6c-16.9,0-22.2,9.5-22.7,16.9h13c0.3-4.3,3.6-7.1,9.1-7.1
		c5.9,0,9.5,2.8,9.5,8.6v2.3l-12.5,0.8c-18.9,1.2-20.6,9.7-20.6,14.9c0,11,9.3,14.8,16.9,14.8c5.7,0,12-1.7,16.6-7.7h0.2v6.3
		L397.3,231.2L397.3,231.2z M384.3,214.6c0,5.9-6.9,8.2-11.1,8.2c-4.5,0-8.5-1.3-8.5-5.7c0-3.5,2.1-5.3,8.3-5.9l11.3-1L384.3,214.6
		L384.3,214.6z"/>
	<path class="st0" d="M594.4,195.7c0-2.9,3.6-4.3,7.1-4.3c5.2,0,8.1,2.4,8.3,6.5l13.6-0.3c-0.8-10.5-8.9-16-21.3-16
		c-14.3,0-20.1,8.1-20.1,15.6c0,19.9,29,12.6,29,20.7c0,3.9-4.5,5-8,5c-4.1,0-8.2-1.9-8.4-6.6H581c1.2,14.3,14.7,16.4,21.5,16.4
		c19.9,0,22.1-12.4,22.1-16.2C624.5,196.8,594.4,204.3,594.4,195.7z"/>
	<path class="st0" d="M577,231.2v-6v-18.1v-9.9c0-11.1-10-15.6-21.9-15.6c-16.9,0-22.2,9.5-22.7,16.9h13c0.3-4.3,3.6-7.1,9.1-7.1
		c5.9,0,9.5,2.8,9.5,8.6v2.3l-12.5,0.8c-18.9,1.2-20.6,9.7-20.6,14.9c0,11,9.3,14.8,16.9,14.8c5.7,0,12-1.7,16.6-7.7h0.2v6.3
		L577,231.2L577,231.2z M564,214.6c0,5.9-6.9,8.2-11.1,8.2c-4.5,0-8.5-1.3-8.5-5.7c0-3.5,2.1-5.3,8.3-5.9l11.3-1V214.6z"/>
	<path class="st0" d="M514.8,214.2c-0.8,4.4-3.5,7.4-8.5,7.4c-7.1,0-9.3-7.1-9.3-13.6c0-6.2,1-15,9.4-15c3.5,0,7.3,1.5,7.8,7.8h13.2
		l0.9-0.1c-0.6-10.3-7.5-19.3-21.9-19.3c-14.7,0-23.5,10.4-23.5,26c0,14.9,8,25,23.8,25c13,0,19.4-7.7,21.5-18.3L514.8,214.2
		L514.8,214.2z"/>
	<path class="st0" d="M451.7,183h6.3v-14.1h13.7V183h7.3v10.5h-7.3v24.8c0,2.2,1,3.2,4.5,3.2c1.2,0,1.9-0.1,2.8-0.3V232
		c-2.2,0.3-4.4,0.6-6.6,0.6c-8.9,0-14.4-2.2-14.4-12.7v-26.3h-6.3V183L451.7,183z"/>
	<path class="st0" d="M625.8,183h6.3v-14.1h13.7V183h7.3v10.5h-7.3v24.8c0,2.2,1,3.2,4.5,3.2c1.2,0,1.9-0.1,2.8-0.3V232
		c-2.2,0.3-4.4,0.6-6.6,0.6c-8.9,0-14.4-2.2-14.4-12.7v-26.3h-6.3V183L625.8,183z"/>
	<path class="st0" d="M332.4,210.4c0,6.6-3.4,11.3-8.9,11.3c-4.2,0-7.2-2.4-7.2-9.3V183h-13.6v32.9c0,9.3,5.3,16.8,16.9,16.8
		c5.5,0,9-1.8,13.1-7.7h0.2v6.3h13V183h-13.6L332.4,210.4L332.4,210.4z"/>
	<path class="st0" d="M274.3,231l4.4,7.7h15.8l-8.4-14.5c7.6-6.9,11.5-17,11.5-27.1c0-17.7-12.2-35.7-35.4-35.7s-35.4,18-35.4,35.7
		s12.2,35.7,35.4,35.7C266.7,232.9,270.7,232.2,274.3,231z M242.3,197.1c0-11.5,6.2-23.1,20-23.1s20,11.6,20,23.1
		c0,5-1.2,10-3.6,14.1h-15.8l4.8,8.4c-1.7,0.5-3.5,0.7-5.5,0.7C248.5,220.2,242.3,208.6,242.3,197.1z"/>
</g>
</svg>
