<?xml version="1.0" encoding="utf-8"?>
<!-- Generator: Adobe Illustrator 22.0.1, SVG Export Plug-In . SVG Version: 6.00 Build 0)  -->
<!DOCTYPE svg PUBLIC "-//W3C//DTD SVG 1.1//EN" "http://www.w3.org/Graphics/SVG/1.1/DTD/svg11.dtd">
<svg version="1.1" id="Layer_1" xmlns="http://www.w3.org/2000/svg" xmlns:xlink="http://www.w3.org/1999/xlink" x="0px" y="0px"
	 viewBox="0 0 500 500" style="enable-background:new 0 0 500 500;" xml:space="preserve">
<style type="text/css">
	.st0{fill:#FFFFFF;}
</style>
<rect x="-14.1" y="-14.1" width="528.2" height="528.2"/>
<g>
	<path class="st0" d="M301.8,383.1l19,32.8h67.9l-36-62.1c32.6-29.6,49.3-73,49.3-116.2c0-76.2-52.2-153.4-152-153.4
		S98,161.3,98,237.6C98,313.8,150.2,391,250,391C269,391,286.3,388.1,301.8,383.1z M164.2,237.6c0-49.4,26.5-99.2,85.8-99.2
		c59.3,0,85.8,49.8,85.8,99.2c0,21.4-5,42.9-15.5,60.4l-67.8-0.1l20.8,35.9c-7.1,1.9-14.9,2.9-23.3,2.9
		C190.7,336.8,164.2,286.9,164.2,237.6z"/>
</g>
</svg>
