<?xml version="1.0" encoding="utf-8"?>
<!-- Generator: Adobe Illustrator 27.2.0, SVG Export Plug-In . SVG Version: 6.00 Build 0)  -->
<svg version="1.1" id="Layer_1" xmlns="http://www.w3.org/2000/svg" xmlns:xlink="http://www.w3.org/1999/xlink" x="0px" y="0px"
	 viewBox="0 0 1215.9 831.5" style="enable-background:new 0 0 1215.9 831.5;" xml:space="preserve">
<style type="text/css">
	.st0{fill:#FFFFFF;}
</style>
<g transform="matrix(0.464099,0,0,0.698151,-6.362,-2.20444)">
	<rect x="-120.3" y="-59.8" width="2893.1" height="1315.2"/>
</g>
<g>
	<g>
		<path class="st0" d="M593.1,378.2c-10.9,0-20.6,3.6-28.7,15.3H564v-12.6h-26v97h27.2v-55.1c0-13.2,6.8-22.6,17.7-22.6
			c8.5,0,14.5,4.7,14.5,18.7V478h27.2v-65.9C624.6,393.2,616.5,378.2,593.1,378.2z"/>
		<path class="st0" d="M523.6,477.8v-12.1v-36.3v-19.9c0-22.3-20-31.3-44-31.3c-34,0-44.5,19.1-45.5,34h26
			c0.6-8.7,7.2-14.3,18.3-14.3c11.9,0,19.1,5.7,19.1,17.2v4.5l-25.1,1.5c-37.9,2.3-41.3,19.4-41.3,29.8c0,22.1,18.7,29.6,34,29.6
			c11.3,0,24.2-3.4,33.2-15.3h0.4v12.6L523.6,477.8L523.6,477.8z M497.6,444.4c0,11.7-13.8,16.4-22.3,16.4c-9.1,0-17-2.6-17-11.3
			c0-7,4.2-10.8,16.6-11.9l22.6-2.1L497.6,444.4L497.6,444.4z"/>
		<path class="st0" d="M918.9,406.5c0-5.9,7.2-8.7,14.3-8.7c10.4,0,16.2,4.9,16.6,13l27.2-0.6c-1.5-21.1-17.9-32.1-42.8-32.1
			c-28.7,0-40.2,16.2-40.2,31.1c0,40,58.1,25.3,58.1,41.5c0,7.9-9.1,10-16,10c-8.1,0-16.4-3.8-16.8-13.2h-27.2
			c2.3,28.7,29.4,32.8,43,32.8c40,0,44.2-24.9,44.2-32.5C979.3,408.7,918.9,423.8,918.9,406.5z"/>
		<path class="st0" d="M883.9,477.8v-12.1v-36.3v-19.9c0-22.3-20-31.3-44-31.3c-34,0-44.5,19.1-45.5,34h26
			c0.6-8.7,7.2-14.3,18.3-14.3c11.9,0,19.1,5.7,19.1,17.2v4.5l-25.1,1.5c-37.9,2.3-41.3,19.4-41.3,29.8c0,22.1,18.7,29.6,34,29.6
			c11.3,0,24.2-3.4,33.2-15.3h0.4v12.6L883.9,477.8L883.9,477.8z M857.9,444.4c0,11.7-13.8,16.4-22.3,16.4c-9.1,0-17-2.6-17-11.3
			c0-7,4.2-10.8,16.6-11.9l22.6-2.1v8.9H857.9z"/>
		<path class="st0" d="M759.3,443.7c-1.7,8.9-7,14.8-17,14.8c-14.2,0-18.7-14.3-18.7-27.2c0-12.5,2.1-30.2,18.9-30.2
			c7,0,14.7,3,15.6,15.7h26.5l1.8-0.1c-1.3-20.6-15.1-38.7-44-38.7c-29.4,0-47.2,21-47.2,52.1c0,29.8,16,50.2,47.8,50.2
			c26,0,38.9-15.4,43-36.7h-26.7L759.3,443.7L759.3,443.7z"/>
		<path class="st0" d="M632.7,381.2h12.6v-28.3h27.5v28.3h14.5v21h-14.5v49.6c0,4.4,1.9,6.5,9,6.5c2.3,0,3.8-0.2,5.5-0.6v21.6
			c-4.4,0.6-8.8,1.1-13.2,1.1c-17.9,0-28.8-4.4-28.8-25.6v-52.6h-12.6V381.2z"/>
		<path class="st0" d="M981.9,381.2h12.6v-28.3h27.5v28.3h14.5v21H1022v49.6c0,4.4,1.9,6.5,9,6.5c2.3,0,3.8-0.2,5.5-0.6v21.6
			c-4.4,0.6-8.8,1.1-13.2,1.1c-17.9,0-28.8-4.4-28.8-25.6v-52.6h-12.6V381.2L981.9,381.2z"/>
		<path class="st0" d="M393.4,435.9c0,13.2-6.8,22.6-17.7,22.6c-8.5,0-14.5-4.7-14.5-18.7v-59.1H334v65.9c0,18.7,10.6,33.8,34,33.8
			c10.9,0,18.1-3.6,26.2-15.3h0.4v12.6h26v-97h-27.2V435.9L393.4,435.9z"/>
		<path class="st0" d="M277,477.3l8.9,15.3h31.7l-16.8-29c15.2-13.8,23.1-34.1,23.1-54.3c0-35.6-24.4-71.7-71-71.7s-71,36.1-71,71.7
			s24.4,71.7,71,71.7C261.6,481,269.7,479.7,277,477.3z M212.6,409.3c0-23.1,12.4-46.4,40.1-46.4s40.1,23.3,40.1,46.4
			c0,10-2.3,20.1-7.2,28.2h-31.7l9.7,16.8c-3.3,0.9-7,1.4-10.9,1.4C225,455.7,212.6,432.4,212.6,409.3z"/>
	</g>
</g>
</svg>
