<?xml version="1.0" encoding="utf-8"?>
<!-- Generator: Adobe Illustrator 22.0.1, SVG Export Plug-In . SVG Version: 6.00 Build 0)  -->
<!DOCTYPE svg PUBLIC "-//W3C//DTD SVG 1.1//EN" "http://www.w3.org/Graphics/SVG/1.1/DTD/svg11.dtd">
<svg version="1.1" id="Layer_1" xmlns="http://www.w3.org/2000/svg" xmlns:xlink="http://www.w3.org/1999/xlink" x="0px" y="0px"
	 viewBox="0 0 1215.9 831.5" style="enable-background:new 0 0 1215.9 831.5;" xml:space="preserve">
<style type="text/css">
	.st0{fill:url(#SVGID_1_);stroke:#FFFFFF;stroke-width:7.41;stroke-linecap:round;stroke-linejoin:round;}
	.st1{fill:url(#SVGID_2_);stroke:#FFFFFF;stroke-width:7.41;stroke-linecap:round;stroke-linejoin:round;}
	.st2{fill:url(#SVGID_3_);stroke:#FFFFFF;stroke-width:7.41;stroke-linecap:round;stroke-linejoin:round;}
	.st3{fill:url(#SVGID_4_);stroke:#FFFFFF;stroke-width:7.41;stroke-linecap:round;stroke-linejoin:round;}
	.st4{fill:url(#SVGID_5_);stroke:#FFFFFF;stroke-width:7.41;stroke-linecap:round;stroke-linejoin:round;}
	.st5{fill:url(#SVGID_6_);stroke:#FFFFFF;stroke-width:7.41;stroke-linecap:round;stroke-linejoin:round;}
	.st6{fill:url(#SVGID_7_);stroke:#FFFFFF;stroke-width:7.41;stroke-linecap:round;stroke-linejoin:round;}
	.st7{fill:url(#SVGID_8_);stroke:#FFFFFF;stroke-width:7.41;stroke-linecap:round;stroke-linejoin:round;}
	.st8{fill:url(#SVGID_9_);stroke:#FFFFFF;stroke-width:7.41;stroke-linecap:round;stroke-linejoin:round;}
	.st9{fill:#302370;stroke:#FFFFFF;stroke-width:7.41;stroke-linecap:round;stroke-linejoin:round;}
	.st10{fill:url(#SVGID_10_);stroke:#FFFFFF;stroke-width:7.41;stroke-linecap:round;stroke-linejoin:round;}
	.st11{fill:url(#SVGID_11_);stroke:#FFFFFF;stroke-width:7.41;stroke-linecap:round;stroke-linejoin:round;}
	.st12{fill:url(#SVGID_12_);stroke:#FFFFFF;stroke-width:7.41;stroke-linecap:round;stroke-linejoin:round;}
	.st13{fill:url(#SVGID_13_);stroke:#FFFFFF;stroke-width:7.41;stroke-linecap:round;stroke-linejoin:round;}
	.st14{fill:url(#SVGID_14_);stroke:#FFFFFF;stroke-width:7.41;stroke-linecap:round;stroke-linejoin:round;}
	.st15{fill:url(#SVGID_15_);stroke:#FFFFFF;stroke-width:7.41;stroke-linecap:round;stroke-linejoin:round;}
	.st16{fill:url(#SVGID_16_);stroke:#FFFFFF;stroke-width:7.41;stroke-linecap:round;stroke-linejoin:round;}
	.st17{fill:url(#SVGID_17_);stroke:#FFFFFF;stroke-width:7.41;stroke-linecap:round;stroke-linejoin:round;}
	.st18{fill:url(#SVGID_18_);stroke:#FFFFFF;stroke-width:7.41;stroke-linecap:round;stroke-linejoin:round;}
	.st19{fill:url(#SVGID_19_);stroke:#FFFFFF;stroke-width:7.41;stroke-linecap:round;stroke-linejoin:round;}
	.st20{fill:url(#SVGID_20_);stroke:#FFFFFF;stroke-width:7.41;stroke-linecap:round;stroke-linejoin:round;}
	.st21{fill:url(#SVGID_21_);stroke:#FFFFFF;stroke-width:7.41;stroke-linecap:round;stroke-linejoin:round;}
	.st22{fill:url(#SVGID_22_);stroke:#FFFFFF;stroke-width:7.41;stroke-linecap:round;stroke-linejoin:round;}
	.st23{fill:url(#SVGID_23_);stroke:#FFFFFF;stroke-width:7.41;stroke-linecap:round;stroke-linejoin:round;}
	.st24{fill:url(#SVGID_24_);stroke:#FFFFFF;stroke-width:7.41;stroke-linecap:round;stroke-linejoin:round;}
	.st25{fill:url(#SVGID_25_);stroke:#FFFFFF;stroke-width:7.41;stroke-linecap:round;stroke-linejoin:round;}
	.st26{fill:url(#SVGID_26_);stroke:#FFFFFF;stroke-width:7.41;stroke-linecap:round;stroke-linejoin:round;}
	.st27{fill:#FFCA05;stroke:#FFFFFF;stroke-width:7.41;stroke-linecap:round;stroke-linejoin:round;}
	.st28{fill:#7D8069;stroke:#FFFFFF;stroke-width:7.41;stroke-linecap:round;stroke-linejoin:round;}
	.st29{fill:#C79F08;stroke:#FFFFFF;stroke-width:7.41;stroke-linecap:round;stroke-linejoin:round;}
	.st30{fill:none;stroke:#FFFFFF;stroke-width:7.41;stroke-linecap:round;stroke-linejoin:round;}
	.st31{fill:url(#SVGID_27_);stroke:#FFFFFF;stroke-width:7.41;stroke-linecap:round;stroke-linejoin:round;}
	.st32{fill:url(#SVGID_28_);stroke:#FFFFFF;stroke-width:7.41;stroke-linecap:round;stroke-linejoin:round;}
	.st33{fill:#1E2D60;stroke:#FFFFFF;stroke-width:7.41;stroke-linecap:round;stroke-linejoin:round;}
	.st34{fill:url(#SVGID_30_);stroke:#FFFFFF;stroke-width:7.41;stroke-linecap:round;stroke-linejoin:round;}
	.st35{fill:url(#SVGID_32_);stroke:#FFFFFF;stroke-width:7.41;stroke-linecap:round;stroke-linejoin:round;}
	.st36{fill:url(#SVGID_33_);stroke:#FFFFFF;stroke-width:7.41;stroke-linecap:round;stroke-linejoin:round;}
	.st37{fill:#FFFFFF;}
</style>
<g>
	
		<linearGradient id="SVGID_1_" gradientUnits="userSpaceOnUse" x1="570.7937" y1="-95.0217" x2="571.7937" y2="-95.0217" gradientTransform="matrix(35.1936 131.8253 -131.8253 35.1936 -32547.373 -71577.7422)">
		<stop  offset="0" style="stop-color:#1D2C5F"/>
		<stop  offset="1" style="stop-color:#0071B8"/>
	</linearGradient>
	<path class="st0" d="M99.8,430.6l15.4-15.7l-49.9-84.5l-15.6,15.7L99.8,430.6z"/>
	
		<linearGradient id="SVGID_2_" gradientUnits="userSpaceOnUse" x1="574.6281" y1="-89.6749" x2="575.6281" y2="-89.6749" gradientTransform="matrix(-16.3165 57.7398 -57.7398 -16.3165 5003.4404 -34374.9297)">
		<stop  offset="0" style="stop-color:#1D2C5F"/>
		<stop  offset="1" style="stop-color:#0071B8"/>
	</linearGradient>
	<path class="st1" d="M791.2,290.8l19-10.2l1.9-11.1l-19,10.2L791.2,290.8z"/>
	
		<linearGradient id="SVGID_3_" gradientUnits="userSpaceOnUse" x1="574.3846" y1="-93.2709" x2="575.3846" y2="-93.2709" gradientTransform="matrix(-35.1507 85.3648 -85.3648 -35.1507 12877.8037 -52129.4688)">
		<stop  offset="0" style="stop-color:#1D2C5F"/>
		<stop  offset="1" style="stop-color:#0071B8"/>
	</linearGradient>
	<path class="st2" d="M576.6,291.8l19.3-10l76.6-88.2l-18.8,10L576.6,291.8z"/>
	
		<linearGradient id="SVGID_4_" gradientUnits="userSpaceOnUse" x1="574.4109" y1="-92.349" x2="575.4109" y2="-92.349" gradientTransform="matrix(-27.6114 76.56 -76.56 -27.6114 9875.6494 -46230.8594)">
		<stop  offset="0" style="stop-color:#1D2C5F"/>
		<stop  offset="1" style="stop-color:#0071B8"/>
	</linearGradient>
	<path class="st3" d="M1065.8,324.3l18.9-10.2l-8.4,34.1l-18.8,9.9L1065.8,324.3z"/>
	
		<linearGradient id="SVGID_5_" gradientUnits="userSpaceOnUse" x1="571.9589" y1="-101.1141" x2="572.9589" y2="-101.1141" gradientTransform="matrix(-6.2762 -320.0672 320.0672 -6.2762 36999.4727 183006.6875)">
		<stop  offset="0" style="stop-color:#1D2C5F"/>
		<stop  offset="1" style="stop-color:#0071B8"/>
	</linearGradient>
	<path class="st4" d="M1068.9,597.3l19.1-10.1l-64.1-20.2l-18.8,9.9L1068.9,597.3z"/>
	
		<linearGradient id="SVGID_6_" gradientUnits="userSpaceOnUse" x1="568.581" y1="-102.3708" x2="569.581" y2="-102.3708" gradientTransform="matrix(95.4061 -89.1302 89.1302 95.4061 -44181.1914 60819.4453)">
		<stop  offset="0" style="stop-color:#1D2C5F"/>
		<stop  offset="1" style="stop-color:#0071B8"/>
	</linearGradient>
	<path class="st5" d="M963.9,358.4l18.8-9.9l-15.4-3.5l-19,9.8L963.9,358.4z"/>
	
		<linearGradient id="SVGID_7_" gradientUnits="userSpaceOnUse" x1="571.9589" y1="-101.1135" x2="572.9589" y2="-101.1135" gradientTransform="matrix(-6.2777 -320.1408 320.1408 -6.2777 36541.7305 183051.5781)">
		<stop  offset="0" style="stop-color:#1D2C5F"/>
		<stop  offset="1" style="stop-color:#0071B8"/>
	</linearGradient>
	<path class="st6" d="M575.3,315.8l16.5-8.8l-13.5,10.8L559.1,328L575.3,315.8z"/>
	
		<linearGradient id="SVGID_8_" gradientUnits="userSpaceOnUse" x1="571.9589" y1="-101.1138" x2="572.9589" y2="-101.1138" gradientTransform="matrix(-6.2773 -320.1024 320.1024 -6.2773 36971.7188 183027)">
		<stop  offset="0" style="stop-color:#1D2C5F"/>
		<stop  offset="1" style="stop-color:#0071B8"/>
	</linearGradient>
	<path class="st7" d="M1004.6,552l18.7-10l0.6,25.1l-18.8,9.9L1004.6,552z"/>
	
		<linearGradient id="SVGID_9_" gradientUnits="userSpaceOnUse" x1="576.5759" y1="-91.7466" x2="577.5759" y2="-91.7466" gradientTransform="matrix(-35.6326 57.4595 -57.4595 -35.6326 16245.9316 -36101.918)">
		<stop  offset="0" style="stop-color:#1D2C5F"/>
		<stop  offset="1" style="stop-color:#0071B8"/>
	</linearGradient>
	<path class="st8" d="M948.3,354.8l19-9.8l-0.9-57l-18.8,10.4L948.3,354.8z"/>
	<path class="st9" d="M943.1,543.1l18.8-9.9l20.6-184.7l-18.7,9.9L943.1,543.1z"/>
	
		<linearGradient id="SVGID_10_" gradientUnits="userSpaceOnUse" x1="571.9589" y1="-101.1124" x2="572.9589" y2="-101.1124" gradientTransform="matrix(-6.2818 -320.352 320.352 -6.2818 36968.3789 183170.25)">
		<stop  offset="0" style="stop-color:#1D2C5F"/>
		<stop  offset="1" style="stop-color:#0071B8"/>
	</linearGradient>
	<path class="st10" d="M1004.6,552l18.7-10l-61.4-8.7l-18.8,9.9L1004.6,552z"/>
	
		<linearGradient id="SVGID_11_" gradientUnits="userSpaceOnUse" x1="572.0034" y1="-101.2121" x2="573.0034" y2="-101.2121" gradientTransform="matrix(-12.5508 -303.6861 303.6861 -12.5508 38783.4297 172994.2969)">
		<stop  offset="0" style="stop-color:#1D2C5F"/>
		<stop  offset="1" style="stop-color:#0071B8"/>
	</linearGradient>
	<path class="st11" d="M904,550.6l18.5-10.2L830,524.1l-18.8,10.1L904,550.6z"/>
	
		<linearGradient id="SVGID_12_" gradientUnits="userSpaceOnUse" x1="571.9589" y1="-101.1144" x2="572.9589" y2="-101.1144" gradientTransform="matrix(-6.2758 -320.032 320.032 -6.2758 36768.6602 182979.5469)">
		<stop  offset="0" style="stop-color:#1D2C5F"/>
		<stop  offset="1" style="stop-color:#0071B8"/>
	</linearGradient>
	<path class="st12" d="M811.2,534.1L830,524l-4.8-41.3l-19,10.2L811.2,534.1z"/>
	
		<linearGradient id="SVGID_13_" gradientUnits="userSpaceOnUse" x1="571.9589" y1="-101.1136" x2="572.9589" y2="-101.1136" gradientTransform="matrix(-6.278 -320.1504 320.1504 -6.278 36756.1367 183047.5156)">
		<stop  offset="0" style="stop-color:#1D2C5F"/>
		<stop  offset="1" style="stop-color:#0071B8"/>
	</linearGradient>
	<path class="st13" d="M793.5,517.9l18.7-10.3l-21-39.1L772.4,479L793.5,517.9z"/>
	
		<linearGradient id="SVGID_14_" gradientUnits="userSpaceOnUse" x1="572.0034" y1="-101.2107" x2="573.0034" y2="-101.2107" gradientTransform="matrix(-12.5594 -303.8925 303.8925 -12.5594 38680.0508 173115.2344)">
		<stop  offset="0" style="stop-color:#1D2C5F"/>
		<stop  offset="1" style="stop-color:#0071B8"/>
	</linearGradient>
	<path class="st14" d="M767.8,507.9l18.6-10L704.9,485l-18.8,9.8L767.8,507.9z"/>
	
		<linearGradient id="SVGID_15_" gradientUnits="userSpaceOnUse" x1="565.7975" y1="-99.8062" x2="566.7975" y2="-99.8062" gradientTransform="matrix(96.6746 -8.7877 8.7877 96.6746 -53123.0742 15009.6729)">
		<stop  offset="0" style="stop-color:#1D2C5F"/>
		<stop  offset="1" style="stop-color:#0071B8"/>
	</linearGradient>
	<path class="st15" d="M686.2,494.8L705,485l33.4-204.5l-18.7,10.3L686.2,494.8z"/>
	
		<linearGradient id="SVGID_16_" gradientUnits="userSpaceOnUse" x1="569.3132" y1="-101.0382" x2="570.3132" y2="-101.0382" gradientTransform="matrix(155.665 -106.7062 106.7062 155.665 -77272.8047 76789.3359)">
		<stop  offset="0" style="stop-color:#1D2C5F"/>
		<stop  offset="1" style="stop-color:#0071B8"/>
	</linearGradient>
	<path class="st16" d="M590,307.8l19-9.7l-13.1-16.3l-19.3,10L590,307.8z"/>
	
		<linearGradient id="SVGID_17_" gradientUnits="userSpaceOnUse" x1="571.8693" y1="-101.1128" x2="572.8693" y2="-101.1128" gradientTransform="matrix(9.1004 -320.1248 320.1248 9.1004 27726.7812 184569)">
		<stop  offset="0" style="stop-color:#1D2C5F"/>
		<stop  offset="1" style="stop-color:#0071B8"/>
	</linearGradient>
	<path class="st17" d="M479.3,473.9l18.6-10.1l151.5,75l-18.8,10.1L479.3,473.9z"/>
	
		<linearGradient id="SVGID_18_" gradientUnits="userSpaceOnUse" x1="576.192" y1="-89.5248" x2="577.192" y2="-89.5248" gradientTransform="matrix(-22.5949 51.4659 -51.4659 -22.5949 8918.0469 -31424.8359)">
		<stop  offset="0" style="stop-color:#1D2C5F"/>
		<stop  offset="1" style="stop-color:#0071B8"/>
	</linearGradient>
	<path class="st18" d="M470.5,313.5l19-10.4l22.8-43.3L493.5,270L470.5,313.5z"/>
	
		<linearGradient id="SVGID_19_" gradientUnits="userSpaceOnUse" x1="571.7228" y1="-92.362" x2="572.7228" y2="-92.362" gradientTransform="matrix(2.5093 86.6054 -86.6054 2.5093 -9055.5684 -49001.3281)">
		<stop  offset="0" style="stop-color:#1D2C5F"/>
		<stop  offset="1" style="stop-color:#0071B8"/>
	</linearGradient>
	<path class="st19" d="M371.3,359.3l18.9-10l-2.8-55.1l-18.8,10.2L371.3,359.3z"/>
	
		<linearGradient id="SVGID_20_" gradientUnits="userSpaceOnUse" x1="572.0302" y1="-101.111" x2="573.0302" y2="-101.111" gradientTransform="matrix(-18.512 -319.6307 319.6307 -18.512 43154.5781 181551.5312)">
		<stop  offset="0" style="stop-color:#1D2C5F"/>
		<stop  offset="1" style="stop-color:#0071B8"/>
	</linearGradient>
	<path class="st20" d="M218.1,592.7l-18.9,12.6l76.6-24.7l19.1-12.4L218.1,592.7z"/>
	
		<linearGradient id="SVGID_21_" gradientUnits="userSpaceOnUse" x1="572.8878" y1="-101.6504" x2="573.8878" y2="-101.6504" gradientTransform="matrix(-86.0851 -214.0614 214.0614 -86.0851 71248.6641 114399.5156)">
		<stop  offset="0" style="stop-color:#1D2C5F"/>
		<stop  offset="1" style="stop-color:#0071B8"/>
	</linearGradient>
	<path class="st21" d="M134.3,405.9l-15.7,16.7l80.6,182.7l18.9-12.6L134.3,405.9z"/>
	
		<linearGradient id="SVGID_22_" gradientUnits="userSpaceOnUse" x1="572.8906" y1="-101.4846" x2="573.8906" y2="-101.4846" gradientTransform="matrix(-97.4547 -224.9168 224.9168 -97.4547 79016.4609 119516.0625)">
		<stop  offset="0" style="stop-color:#1D2C5F"/>
		<stop  offset="1" style="stop-color:#0071B8"/>
	</linearGradient>
	<path class="st22" d="M339.2,530.9c-19.8-5.7-35.7-19.5-44.7-38.7c-4.6-9.8-8.8-31.7-9.1-42.6c-4.3,5-13.1,10.3-19.3,13.4
		c0,0,4.1,21.5,9.4,36.5s18,27.2,18,27.2c8.1,7.9,18.1,13.7,29.2,16.9c21.4,6.2,45.5,2.2,66.3-11c5.4-3.5,12.8-9,17.3-13.3
		C386,531.7,360.1,536.9,339.2,530.9z"/>
	
		<linearGradient id="SVGID_23_" gradientUnits="userSpaceOnUse" x1="571.9589" y1="-101.114" x2="572.9589" y2="-101.114" gradientTransform="matrix(-6.2758 -320.0448 320.0448 -6.2758 36344.4922 182999.3281)">
		<stop  offset="0" style="stop-color:#1D2C5F"/>
		<stop  offset="1" style="stop-color:#0071B8"/>
	</linearGradient>
	<path class="st23" d="M371.3,359.3l17.7-4.5l18.6-10l-17.4,4.5L371.3,359.3z"/>
	
		<linearGradient id="SVGID_24_" gradientUnits="userSpaceOnUse" x1="571.9589" y1="-101.1133" x2="572.9589" y2="-101.1133" gradientTransform="matrix(-6.2791 -320.208 320.208 -6.2791 36089.1094 183103.3438)">
		<stop  offset="0" style="stop-color:#1D2C5F"/>
		<stop  offset="1" style="stop-color:#0071B8"/>
	</linearGradient>
	<path class="st24" d="M99.8,430.6l15.4-15.7l19-9.1l-15.7,16.7L99.8,430.6z"/>
	
		<linearGradient id="SVGID_25_" gradientUnits="userSpaceOnUse" x1="571.8193" y1="-101.1123" x2="572.8193" y2="-101.1123" gradientTransform="matrix(17.6614 -319.5235 319.5235 17.6614 23145.9082 185073.5469)">
		<stop  offset="0" style="stop-color:#1D2C5F"/>
		<stop  offset="1" style="stop-color:#0071B8"/>
	</linearGradient>
	<path class="st25" d="M917.3,508.7l1.1,9c6.6-0.8,13.5-1.6,19.4-3.7c6.9-2.4,21.9-9,27.6-14c-2.1,0.8-12.2,5.5-14.4,6.1
		C939.8,509.5,928.2,509.9,917.3,508.7z"/>
	
		<linearGradient id="SVGID_26_" gradientUnits="userSpaceOnUse" x1="571.9735" y1="-100.7854" x2="572.9735" y2="-100.7854" gradientTransform="matrix(-12.9477 -388.304 388.304 -12.9477 47225.4531 221378.4375)">
		<stop  offset="0" style="stop-color:#1D2C5F"/>
		<stop  offset="1" style="stop-color:#0071B8"/>
	</linearGradient>
	<path class="st26" d="M649,466.2l0.3,10.3c15.5-2.3,28.8-8,41.9-15.9c8.2-4.9,17.3-12.3,20-14.3c-2,1.3-4,2-6.1,3.2
		C693,456.2,660.5,466,649,466.2z"/>
	<path class="st27" d="M1084.6,314.3l-8.3,34.1l-7.6-37.8l-102.3-22.5l0.8,56.8l15.4,3.4l-1.1,10.3c-0.2-0.1-0.3-0.2-0.5-0.2
		c-19-10.1-42.7-11.1-65-2.7c-7.4,2.8-14.4,6.7-20.7,11.2l-15.4-97.4h-68l-1.9,11.2h-71.6l-8.2,50.1l-5.9-7.3
		c-17.3-21.3-42.5-33.1-70.3-33.7l60.7-32.6l-42.4-63.3l-76.6,88.2l13.2,16.2c-12,4.9-22.5,11.6-31.1,19.8l-65.5-58.3l-23,44
		l0.9-42.2l-102.7,32.7l2.6,55.2l17.5-4.6l2.6,28c-19.9-9-43.9-8.8-66.2,0.6c-6.6,2.8-12.8,6.4-18.4,10.5c3.9-17,2.9-33.8-3.5-48.8
		c-7.7-17.7-21.1-32.3-37.7-41.5c-11.6-7.7-25.4-12.5-39.9-14.2c-35.5-6.2-78.1,0.2-120.1,18c-15.4,6.6-29.8,14.1-42.8,22.3
		l-16.4,10.4l9.9,16.7l30.7,51.9c0,0,9.4,15.9,9.5,15.9l16.6-8.2l2.3-1.1l76.4,170.5l7.4,16.4l17.1-5.5l41.4-13.2l18.1-5.8
		l-4.8-18.4l-22-84.3c6.3-4.7,12.2-9.6,17.7-14.8c-1.2,10.1-0.6,20.3,2.2,30c5.7,20.4,19.1,36.6,37.7,45.5
		c20.1,9.6,44.5,9.7,67.2,0.1c11.3-4.8,21.5-11.8,30-20.2l3.1,33.5l72.4-10.6l-0.1-64.9l151.3,74.8v-72.4c6.1-0.5,12.3-1.4,18.5-2.9
		c16.7-4,30.9-9.6,43.6-17.1L705,485l81.6,12.9l4.5-29.4l21.3,39.4l13-25.1l4.7,41.2l92.5,16.3l-4.9-31.1c12.7,1.4,26-0.2,38.9-5.1
		c3.1-1.2,6.1-2.5,9-4l-3.7,33.1l61.6,8.6l0.5,25.2l64.1,20.2l83.6-251.9L1084.6,314.3z M531.5,391.7l19.4-18.9
		c-0.8,8.7-0.4,17.7,1.4,27L531.5,391.7z M722.3,378.9l-13.3-12l14.3-15.2l4.3-4.5L722.3,378.9z M246.8,408.9l-2.9,2.6l-1.2-3.7
		l-11.8-38.7l-0.8-2.7l2.7-0.5c6.2-1.1,12-0.5,16.8,1.7c2.9,1.4,7.9,4.6,9,10.8C260.8,390.4,257.3,399.5,246.8,408.9z M622.4,383.3
		l-2.2,2.6l-1.7-3c-5.2-9.6-3.8-21.4,3.5-29.4c7.1-7.8,18.1-10.3,27.9-6.5l3.2,1.2l-2.3,2.6L622.4,383.3z"/>
	<path class="st28" d="M684.3,389.7c-0.2,0.3-0.5,0.6-0.7,0.9c0.3-0.2,0.6-0.5,0.9-0.7L684.3,389.7z"/>
	<path class="st28" d="M713.3,387.9l2.5-15l6.6,5.9l-13.3-12l14.3-15.2l-4.9,5.2l0.1-0.7l-4.3,4.6l-14.2,15.2L713.3,387.9z"/>
	<path class="st28" d="M722.3,378.9l5.2-31.8l-4.3,4.5l-14.3,15.2L722.3,378.9z"/>
	<path class="st28" d="M531.5,391.7l0.2,0.1L531.5,391.7z"/>
	<g>
		<path class="st29" d="M610.4,405c1.2,1.2,0.1,0.3,1.4,1.2l8.7-6.2c-1.3-0.9-2.6-1.9-3.8-3c-12.6-11.5-9.4-37.5-1.1-51.7
			C594,362.8,595.1,389.6,610.4,405z"/>
		<g>
			<path class="st29" d="M715.7,419.5c-14.4,11.9-30.8,19.7-52.5,24.9c-4.7,1.1-9.4,1.9-13.9,2.3c-34.4,3.3-63.3-12.5-74.3-38.1
				c-1.3-3.1-2.4-6.3-3.2-9.6c-5.1-21.6-0.8-40.9,9.9-56c1-1.5,2.1-2.9,3.3-4.3c-0.5,0.4-1,0.9-1.5,1.3c-4.1,3.6-7.7,7.6-10.8,12
				c-10.7,15.1-15,34.4-9.9,56.1c0.8,3.3,1.8,6.5,3.2,9.6c11,25.6,39.9,41.5,74.3,38.1c4.6-0.5,9.2-1.2,13.9-2.3
				c21.7-5.2,38.1-13,52.5-24.9c3.5-2.9,6.9-6.1,10.2-9.5l-0.3-0.3C716.3,418.9,716,419.2,715.7,419.5z"/>
			<path class="st29" d="M511.5,300.1l-1.6-1.5l-37.1,52.2l0.2,3.4L511.5,300.1z"/>
			<path class="st29" d="M718.5,356.2l-0.1,0.7l4.9-5.2l4.3-4.5l-5.2,31.8l-6.6-5.9l-2.5,15l-13.3-12l14.2-15.2L718.5,356.2z"/>
			<path class="st29" d="M691.5,252.4L669.1,222l-8.3,10l19.2,26.1L691.5,252.4z"/>
			<path class="st29" d="M303.6,343.2c-6.1-14-16.6-25.1-30.3-32.8c-10-6.7-21.4-9.9-32.2-11.1c-30.6-5.4-68.7-0.3-108.7,16.7
				c-14.3,6.1-27.7,13-39.9,20.8l1.6,2.7c9.3-5.2,19-10.1,29.3-14.4c40-17.1,78.2-22.1,108.8-16.7c10.8,1.2,22.2,4.4,32.2,11.1
				c13.8,7.7,24.3,18.7,30.4,32.8c10.8,25,1.3,58.1-24.3,85.9C302.4,408.8,315.7,371,303.6,343.2z"/>
			<path class="st29" d="M433.8,424.7c-0.3-1.4-0.6-2.8-1-4.1c-3.6-12.6-11.1-22.6-20.9-29.3c-16-10.9-38.2-13.1-60.4-3.7
				c-11.7,5-21.9,12.8-29.9,22.1c6.2-5.3,13.2-9.8,20.8-13.1c22.2-9.4,44.5-7.2,60.4,3.7c9.9,6.7,17.4,16.7,20.9,29.3
				c0.4,1.4,0.7,2.7,1,4.1c1,4.8,1.4,9.7,1.2,14.6c-0.5,14.6-5.8,29.2-14.8,41.6c-1.4,1.9-2.9,3.8-4.5,5.6
				c5.1-4.4,9.6-9.3,13.5-14.6c9-12.4,14.3-27,14.8-41.6C435.2,434.4,434.8,429.5,433.8,424.7z"/>
			<path class="st29" d="M372.6,406.2c-0.1,0.1,9-9.1,8.9-9.1c-11.4-0.4-16.2,10.4-16.6,11.2C367.2,407.2,369.8,406.4,372.6,406.2z"
				/>
			<path class="st29" d="M394,419.3c0.5,1.5,0.7,3.1,0.7,4.7c0,2.4-0.5,4.7-1.5,6.7c1.8-0.9,15-7.3,9.8-20.9
				C403.4,410.4,393.7,419.3,394,419.3z"/>
			<path class="st29" d="M342.2,426.9c0-5.6,9.5-19.1,12.5-23.6c-15.1,9.6-21.5,22.5-21.5,32.7c0,17.5,15.3,31.5,33.6,31.5
				c8.7,0,24.6-4.6,34.9-21.4c-5.4,3.6-19.3,12.2-26.5,12.2C356.9,458.2,342.2,444.4,342.2,426.9z"/>
			<path class="st29" d="M471.4,513.4l9.1-1.2l-0.1-78.6l-9.2,9.3L471.4,513.4z"/>
			<path class="st29" d="M464.1,366.5l8.8-12.4l-3.8-64.2l-62.4,18.6l0.3,6.3l53-15.8L464.1,366.5z"/>
			<g>
				<path class="st29" d="M519,289.6l-7.5,10.5l43.9,41.2l8.5-9L519,289.6z"/>
				<path class="st29" d="M589.4,452.8c-12.6-7.8-22.7-18.4-29.3-30.9l-58.8-23.3l-8.5,9l58.3,23.3c6.6,12.5,16.6,23.1,29.3,30.9
					c12.2,7.5,26.2,12,41,13.4V504l9,4.5v-42.4C615.5,464.8,601.6,460.3,589.4,452.8z"/>
			</g>
			<g>
				<path class="st29" d="M653.8,409.8c14.4-3.5,22.7-11,29.8-19.3c-5.4,4.4-11.9,8.1-20.8,10.2c-5,1.2-11.7,2.3-15.9,1.5l-8.9,9.5
					C642.1,412.1,648.8,411,653.8,409.8z"/>
				<path class="st29" d="M630,311.9c-14.5,3.5-27.4,10.1-37.4,19c-2.7,2.4-5.2,5-7.5,7.8c9.8-8.3,22.1-14.4,35.9-17.8
					c32.8-7.9,61.7,2.1,79.6,24.3l8.9-9.4C691.7,314,662.8,304,630,311.9z"/>
			</g>
			<path class="st29" d="M716.6,418.7c3.2-2.7,6.3-5.6,9.4-8.7l-7.6-6.8l-25-22.5c-2.7,3.2-5.6,6.3-8.9,9.2l24.8,22.4L716.6,418.7z"
				/>
			<path class="st29" d="M897.6,503.9c-1.8-0.8-3.7-1.6-5.4-2.6c-17.5-9.3-29.7-25.3-34.4-45.2c-6.1-25.6,2.7-53.6,21.1-74.5
				l-14.4-93.4h-34.6l-1.6,9h27.2l14.4,93.4c-18.3,20.8-27.2,48.8-21.1,74.5c4.7,19.8,17,35.9,34.4,45.1c1.8,0.9,3.6,1.8,5.5,2.6
				l0.2,1.4l10.7,1.6L897.6,503.9z"/>
			<path class="st29" d="M807.1,374l9-9.2l-12.1-66h-48.4l-1.5,9H795L807.1,374z"/>
			<path class="st29" d="M812.5,461.4l3,6.5l19.2-49.6l-9,9L812.5,461.4z"/>
			<path class="st29" d="M777.4,414.8l-9.8,61.6l7.4,1.3l11.5-72L777.4,414.8z"/>
			<path class="st29" d="M970.4,386c5.4,3.8,9.9,8.7,13.4,14.4c2.7,4.4,4.7,9.4,6,14.8c4.5,18.6-0.9,38.6-12.6,54.7
				c-1.2,1.6-2.5,3.2-3.8,4.8c4.8-4.1,9.1-8.8,12.8-13.8c11.8-16.1,17.1-36.1,12.7-54.7c-1.3-5.4-3.4-10.3-6.1-14.8
				c-3.5-5.7-8-10.6-13.4-14.4c-14.7-10.6-35.6-13.3-56.7-5.4c-9.1,3.5-17.3,8.7-24.3,15c-2.6,2.3-5,4.9-7.2,7.5
				c6.6-5.6,14.2-10.2,22.5-13.4C934.8,372.7,955.6,375.5,970.4,386z"/>
			<path class="st29" d="M938.9,390c0.2,0.4,8.9-9.1,9.1-9.1c-11.1,0.4-16.5,5.8-15.9,8.3c-0.6,0.9-1.2,1.9-1.7,2.9
				C932.8,391,937.2,390.1,938.9,390z"/>
			<path class="st29" d="M959.8,404c0.4,1.5,0.6,3.1,0.5,4.8c-0.1,2.1-0.6,4.1-1.4,6c1.7-0.8,15.1-4.9,10-19.8
				C969,395.4,959.6,404.1,959.8,404z"/>
			<path class="st29" d="M930.2,451.2c12.6,0.5,26.5-7.3,36.5-20.9c-5.8,3.8-19.9,11.8-27.6,11.5c-18.3-0.7-32.4-15.1-31.7-32.6
				c0.2-5.1,6.8-16.2,9.5-20.3c-9.7,7-18.2,20.5-18.6,30C897.6,436.2,911.9,450.4,930.2,451.2z"/>
			<path class="st29" d="M1096.7,336.2l-2.5,10.5l44.2,9.8l-67.9,205.8l5.5,1.6l71.5-216.4L1096.7,336.2z"/>
			<path class="st29" d="M1064.7,440.6l9.1-9.2l-22.5-106.2l-66.7-13.4l-0.6,10.7l58.3,11.7L1064.7,440.6z"/>
			<path class="st29" d="M1012.3,522.2l7.2,1.1l17.9-100.8l-9.1,8.9L1012.3,522.2z"/>
			<path class="st29" d="M245,456.6l-10,7l25.3,94.7l11.1-1.9L245,456.6z"/>
			<path class="st29" d="M265.2,406.9c-6.3,6.7-20.2,19.6-28.2,24.7l-4.8-15.5l-10.6-34l-6.7-23l-6.6,8.4l6.7,23l10.6,34l4.8,15.5
				C241.3,433.1,257.1,419.9,265.2,406.9z"/>
		</g>
	</g>
	<path class="st28" d="M651.3,348.5c-8.6-3.3-20.8-2.3-27.4,4.9c-1.5,1.7-4.4,5.9-5.4,7.8c6.3-5.1,17.7-6.1,25.1-3.5L651.3,348.5z"
		/>
	<path class="st28" d="M257.3,379.1c-1-5.1-5.9-9.1-8.4-10.3c-4.4-2.1-11.9-2.4-17.4-1.4c1,3.4,2.1,7.5,2.6,9.1
		c2.2,0.3,5.9,1,7.8,1.9c2.4,1.2,6.7,3.9,7.6,9c1.3,6.8,1,13.2-1.9,18.4C255.5,398.2,259.3,389.8,257.3,379.1z"/>
	<path id="SVGID_29_" class="st30" d="M662.9,345.4c-13.7-12.5-35-11.6-47.5,2.1s-11.6,35,2.1,47.5c1.1,1,2.4,1.9,3.6,2.8l44.2-50
		C664.6,347,663.8,346.2,662.9,345.4z"/>
	<path id="SVGID_31_" class="st30" d="M269.5,376.8c-3.5-18.9-28.2-29.3-52.8-16l6.3,21.6l9.9,32l4.5,14.6
		C255.9,417.2,274.4,403,269.5,376.8z"/>
	
		<linearGradient id="SVGID_27_" gradientUnits="userSpaceOnUse" x1="572.0104" y1="-100.9856" x2="573.0104" y2="-100.9856" gradientTransform="matrix(-17.3973 -343.0112 343.0112 -17.3973 44842.3398 194988.7344)">
		<stop  offset="0" style="stop-color:#3B5AA6"/>
		<stop  offset="1" style="stop-color:#2A75BA"/>
	</linearGradient>
	<path class="st31" d="M270.9,379c-3.8-20.1-30-31.2-56.1-17l6.7,23l10.6,33.9l4.8,15.5C256.5,421.9,276.2,406.8,270.9,379z
		 M245.1,409.9c-2.9-9.3-9.1-29.3-9.1-29.3c0,0.1-1.3-4.3-2.7-9.3c5.5-1,10.8-0.6,15.2,1.5c2.4,1.1,6.6,3.9,7.6,9
		C258.3,393.3,254.4,401.5,245.1,409.9z"/>
	
		<linearGradient id="SVGID_28_" gradientUnits="userSpaceOnUse" x1="571.9988" y1="-101.0783" x2="572.9988" y2="-101.0783" gradientTransform="matrix(-13.6233 -325.9008 325.9008 -13.6233 41376.7695 185555.0938)">
		<stop  offset="0" style="stop-color:#3B5AA6"/>
		<stop  offset="1" style="stop-color:#2A75BA"/>
	</linearGradient>
	<path class="st32" d="M664.9,347.1c-14.5-13.3-37.1-12.3-50.5,2.2c-13.3,14.6-12.3,37.1,2.3,50.5c1.2,1.1,2.5,2.1,3.8,3l46.9-53.1
		C666.7,348.8,665.8,347.9,664.9,347.1z M620.6,384.5c-4.6-8.4-3.6-19.2,3.2-26.6c6.6-7.2,16.7-9.3,25.3-5.9L620.6,384.5z"/>
	<path class="st33" d="M727.7,341.3l-25.9,25.1l24.7,22.2L727.7,341.3z"/>
	<g>
		
			<linearGradient id="SVGID_30_" gradientUnits="userSpaceOnUse" x1="571.9377" y1="-100.7133" x2="572.9377" y2="-100.7133" gradientTransform="matrix(-4.2998 -407.7888 407.7888 -4.2998 44150.2266 233394.1719)">
			<stop  offset="0" style="stop-color:#3B5AA6"/>
			<stop  offset="1" style="stop-color:#2A75BA"/>
		</linearGradient>
		<path class="st34" d="M1084.6,314.3l-8.3,34.1l-7.6-37.8l-102.3-22.5l0.8,56.8l15.4,3.4l-1.1,10.3c-0.2-0.1-0.3-0.2-0.5-0.2
			c-19-10.1-42.7-11.1-65-2.7c-7.4,2.8-14.4,6.7-20.7,11.2l-15.4-97.4h-68l-1.9,11.2h-71.6l-8.2,50.1l-5.9-7.3
			c-17.3-21.3-42.5-33.1-70.3-33.7l60.7-32.6l-42.4-63.3l-76.6,88.2l13.2,16.2c-12,4.9-22.5,11.6-31.1,19.8l-65.5-58.3l-23,44
			l0.9-42.2l-102.7,32.7l2.6,55.2l17.5-4.6l2.6,28c-19.9-9-43.9-8.8-66.2,0.6c-6.6,2.8-12.8,6.4-18.4,10.5c3.9-17,2.9-33.8-3.5-48.8
			c-7.7-17.7-21.1-32.3-37.7-41.5c-11.6-7.7-25.4-12.5-39.9-14.2c-35.5-6.2-78.1,0.2-120.1,18c-15.4,6.6-29.8,14.1-42.8,22.3
			l-16.4,10.4l9.9,16.7l30.7,51.9c0,0,9.4,15.9,9.5,15.9l16.6-8.2l2.3-1.1l76.4,170.5l7.4,16.4l17.1-5.5l41.4-13.2l18.1-5.8
			l-4.8-18.4l-22-84.3c6.3-4.7,12.2-9.6,17.7-14.8c-1.2,10.1-0.6,20.3,2.2,30c5.7,20.4,19.1,36.6,37.7,45.5
			c20.1,9.6,44.5,9.7,67.2,0.1c11.3-4.8,21.5-11.8,30-20.2l3.1,33.5l72.4-10.6l-0.1-64.9l151.3,74.8v-72.4
			c6.1-0.5,12.3-1.4,18.5-2.9c16.7-4,30.9-9.6,43.6-17.1L705,485l81.6,12.9l4.5-29.4l21.3,39.4l13-25.1l4.7,41.2l92.5,16.3
			l-4.9-31.1c12.7,1.4,26-0.2,38.9-5.1c3.1-1.2,6.1-2.5,9-4l-3.7,33.1l61.6,8.6l0.5,25.2l64.1,20.2l83.6-251.9L1084.6,314.3z
			 M723.3,351.7l4.3-4.5l-5.2,31.8l-13.3-12L723.3,351.7z M669.1,222l22.4,30.4l-64,31.7l-4.4-6.7L669.1,222z M552.4,399.8
			l-20.9-8.1l19.4-18.9C550.1,381.5,550.5,390.6,552.4,399.8z M244.9,456.7l25.5,98.1L229,568l-84.9-189.6
			c-4.6,2.4-13.1,6.5-21,10.4l-30.7-52c12.3-7.8,25.6-14.7,39.9-20.8c40-17,78.2-22.1,108.7-16.7c10.8,1.2,22.2,4.4,32.2,11.1
			c13.8,7.7,24.3,18.7,30.3,32.8C318.4,377.3,293.7,426.5,244.9,456.7z M420.2,480.9c-8.6,11.9-20.5,21.8-34.5,27.8
			c-35.9,15.2-71.8,0-81.4-34c-9.3-33,12.3-72.2,47.1-87.1c22.2-9.4,44.4-7.2,60.4,3.7c9.9,6.7,17.4,16.7,20.9,29.3
			c0.4,1.4,0.7,2.7,1,4.1c1,4.8,1.4,9.7,1.2,14.6C434.6,453.8,429.2,468.4,420.2,480.9z M630.3,508.6l-150.1-75.1l0.3,78.7
			l-38.8,5.3L439,485c12-20.5,16.4-44.8,10.1-66.9c-3.4-12.2-9.7-22.9-18.4-31.3l-5.6-66.1l-17.5,4.6l-0.8-16.7l62.4-18.6l3.8,64.3
			l45.9-64.6l44.9,42.7L501,398.6l59,23.3c6.6,12.5,16.6,23.1,29.3,30.9c12.2,7.5,26.1,12,41,13.4V508.6z M663.2,444.4
			c-4.7,1.1-9.4,1.9-13.9,2.3c-34.4,3.3-63.3-12.5-74.3-38.1c-1.3-3.1-2.4-6.3-3.2-9.6c-5.1-21.6-0.8-40.9,9.9-56
			c3.1-4.4,6.7-8.4,10.8-12c10.1-9,22.9-15.5,37.4-19c32.8-7.9,61.7,2.1,79.4,23.9l-62.4,66.4c4.3,0.8,11-0.3,16-1.5
			c14.9-3.6,23.2-11.5,30.6-20.1l25,22.5l7.6,6.8c-3.3,3.4-6.8,6.6-10.3,9.5C701.3,431.4,684.9,439.1,663.2,444.4z M899.4,516.1
			l-51.1-7.8l-13.6-90.1l-19.2,49.7l-28.8-62.1h-0.3L775,477.7l-48-8.3l6.7-40.1c1.8-1.7,3.6-3.4,5.4-5.3l15.5-16l-15-13.6l16-95.5
			H804l12.1,66.1l13.6-76.7h34.6l14.4,93.4c-18.3,20.9-27.2,48.8-21.1,74.5c4.7,19.8,17,35.9,34.4,45.2c1.8,0.9,3.6,1.8,5.4,2.6
			L899.4,516.1z M950.6,488.2c-12.4,4.7-24.7,5.6-35.6,3.5c-7.6-1.5-14.6-4.5-20.6-8.8c-9.6-6.9-16.7-17.2-19.8-30.2
			c-3.7-15.5-0.3-32.1,8-46.6c4.2-7.2,9.5-13.8,15.9-19.5c7-6.3,15.3-11.5,24.3-15c21.2-8,42-5.2,56.7,5.4
			c5.4,3.8,9.9,8.7,13.4,14.4c2.7,4.4,4.7,9.4,6.1,14.8c4.5,18.6-0.9,38.6-12.7,54.7c-5,6.9-11.2,13-18.2,18.1
			C962.6,482.7,956.8,485.9,950.6,488.2z M1076,563.8l-35.5-10.6l-3.1-130.8l-17.9,100.9l-38.7-6.2l2.8-29.1
			c25.3-21.4,38.7-55,31.4-85.6c-3.2-13.5-10.2-25.3-20-34.3l3.3-34.3l-14.6-3.9l1-18.3l66.7,13.4l22.5,106.4l23-95.4l50.8,11.2
			L1076,563.8z"/>
		
			<linearGradient id="SVGID_32_" gradientUnits="userSpaceOnUse" x1="572.008" y1="-107.3819" x2="573.008" y2="-107.3819" gradientTransform="matrix(-0.7737 -73.4099 73.4099 -0.7737 9266.2783 42355.793)">
			<stop  offset="0" style="stop-color:#3B5AA6"/>
			<stop  offset="1" style="stop-color:#2A75BA"/>
		</linearGradient>
		<path class="st35" d="M968.8,395c0.4,1.5,0.6,3.1,0.5,4.8c-0.4,9.9-9.8,17.6-20.9,17.1c-11.1-0.5-19.8-8.8-19.4-18.8
			c0.4-9.3,8.7-16.6,18.9-17.1c-2-0.4-4-0.7-6.1-0.8c-18.6-0.7-33.8,12.4-34.5,28.9c-0.7,17.5,13.4,31.9,31.7,32.6
			c18.6,0.8,33.8-12.4,34.5-29.9C973.8,405.7,972.1,399.9,968.8,395z"/>
		
			<linearGradient id="SVGID_33_" gradientUnits="userSpaceOnUse" x1="572.0097" y1="-107.5403" x2="573.0097" y2="-107.5403" gradientTransform="matrix(-0.7592 -72.0051 72.0051 -0.7592 8553.4814 41569.5938)">
			<stop  offset="0" style="stop-color:#3B5AA6"/>
			<stop  offset="1" style="stop-color:#2A75BA"/>
		</linearGradient>
		<path class="st36" d="M403.8,415c0,9.9-9,17.9-20.2,17.9c-11.1,0-20.2-8-20.2-17.9c0-9.3,8-17,18.2-17.9c-2-0.3-4-0.5-6.1-0.5
			c-18.6,0-33.3,13.8-33.3,30.3c0,17.5,14.7,31.3,33,31.3c18.6,0,33.3-13.8,33.3-31.3c0-6.1-2-11.8-5.5-16.6
			C403.5,411.8,403.8,413.4,403.8,415z"/>
	</g>
	<g transform="matrix(0.464099,0,0,0.698151,-6.362,-2.20444)">
		<rect x="-122.9" y="-59" width="2893.1" height="1315.2"/>
	</g>
</g>
<g>
	<g>
		<path class="st37" d="M591.9,378.8c-10.9,0-20.6,3.6-28.7,15.3h-0.4v-12.6h-26v97H564v-55.1c0-13.2,6.8-22.6,17.7-22.6
			c8.5,0,14.5,4.7,14.5,18.7v59.1h27.2v-65.9C623.4,393.8,615.3,378.8,591.9,378.8z"/>
		<path class="st37" d="M522.4,478.4v-12.1V430v-19.9c0-22.3-20-31.3-44-31.3c-34,0-44.5,19.1-45.5,34h26
			c0.6-8.7,7.2-14.3,18.3-14.3c11.9,0,19.1,5.7,19.1,17.2v4.5l-25.1,1.5c-37.9,2.3-41.3,19.4-41.3,29.8c0,22.1,18.7,29.6,34,29.6
			c11.3,0,24.2-3.4,33.2-15.3h0.4v12.6H522.4z M496.4,445c0,11.7-13.8,16.4-22.3,16.4c-9.1,0-17-2.6-17-11.3c0-7,4.2-10.8,16.6-11.9
			l22.6-2.1L496.4,445L496.4,445z"/>
		<path class="st37" d="M917.7,407.1c0-5.9,7.2-8.7,14.3-8.7c10.4,0,16.2,4.9,16.6,13l27.2-0.6c-1.5-21.1-17.9-32.1-42.8-32.1
			c-28.7,0-40.2,16.2-40.2,31.1c0,40,58.1,25.3,58.1,41.5c0,7.9-9.1,10-16,10c-8.1,0-16.4-3.8-16.8-13.2h-27.2
			c2.3,28.7,29.4,32.8,43,32.8c40,0,44.2-24.9,44.2-32.5C978.1,409.3,917.7,424.4,917.7,407.1z"/>
		<path class="st37" d="M882.7,478.4v-12.1V430v-19.9c0-22.3-20-31.3-44-31.3c-34,0-44.5,19.1-45.5,34h26
			c0.6-8.7,7.2-14.3,18.3-14.3c11.9,0,19.1,5.7,19.1,17.2v4.5l-25.1,1.5c-37.9,2.3-41.3,19.4-41.3,29.8c0,22.1,18.7,29.6,34,29.6
			c11.3,0,24.2-3.4,33.2-15.3h0.4v12.6H882.7z M856.7,445c0,11.7-13.8,16.4-22.3,16.4c-9.1,0-17-2.6-17-11.3c0-7,4.2-10.8,16.6-11.9
			l22.6-2.1v8.9H856.7z"/>
		<path class="st37" d="M758.1,444.3c-1.7,8.9-7,14.8-17,14.8c-14.2,0-18.7-14.3-18.7-27.2c0-12.5,2.1-30.2,18.9-30.2
			c7,0,14.7,3,15.6,15.7h26.5l1.8-0.1c-1.3-20.6-15.1-38.7-44-38.7c-29.4,0-47.2,21-47.2,52.1c0,29.8,16,50.2,47.8,50.2
			c26,0,38.9-15.4,43-36.7h-26.7V444.3z"/>
		<path class="st37" d="M631.5,381.8h12.6v-28.3h27.5v28.3h14.5v21h-14.5v49.6c0,4.4,1.9,6.5,9,6.5c2.3,0,3.8-0.2,5.5-0.6v21.6
			c-4.4,0.6-8.8,1.1-13.2,1.1c-17.9,0-28.8-4.4-28.8-25.6v-52.6h-12.6V381.8z"/>
		<path class="st37" d="M980.7,381.8h12.6v-28.3h27.5v28.3h14.5v21h-14.5v49.6c0,4.4,1.9,6.5,9,6.5c2.3,0,3.8-0.2,5.5-0.6v21.6
			c-4.4,0.6-8.8,1.1-13.2,1.1c-17.9,0-28.8-4.4-28.8-25.6v-52.6h-12.6V381.8z"/>
		<path class="st37" d="M392.2,436.5c0,13.2-6.8,22.6-17.7,22.6c-8.5,0-14.5-4.7-14.5-18.7v-59.1h-27.2v65.9
			c0,18.7,10.6,33.8,34,33.8c10.9,0,18.1-3.6,26.2-15.3h0.4v12.6h26v-97h-27.2L392.2,436.5L392.2,436.5z"/>
		<path class="st37" d="M275.8,477.9l8.9,15.3h31.7l-16.8-29c15.2-13.8,23.1-34.1,23.1-54.3c0-35.6-24.4-71.7-71-71.7
			s-71,36.1-71,71.7s24.4,71.7,71,71.7C260.4,481.6,268.5,480.3,275.8,477.9z M211.4,409.9c0-23.1,12.4-46.4,40.1-46.4
			s40.1,23.3,40.1,46.4c0,10-2.3,20.1-7.2,28.2h-31.7l9.7,16.8c-3.3,0.9-7,1.4-10.9,1.4C223.8,456.3,211.4,433,211.4,409.9z"/>
	</g>
</g>
</svg>
