<?xml version="1.0" encoding="utf-8"?>
<!-- Generator: Adobe Illustrator 19.2.1, SVG Export Plug-In . SVG Version: 6.00 Build 0)  -->
<!DOCTYPE svg PUBLIC "-//W3C//DTD SVG 1.1//EN" "http://www.w3.org/Graphics/SVG/1.1/DTD/svg11.dtd">
<svg version="1.1" id="Layer_1" xmlns="http://www.w3.org/2000/svg" xmlns:xlink="http://www.w3.org/1999/xlink" x="0px" y="0px"
	 viewBox="0 0 500 500" style="enable-background:new 0 0 500 500;" xml:space="preserve">
<style type="text/css">
	.st0{fill:url(#SVGID_1_);}
	.st1{fill:url(#SVGID_2_);stroke:#FFFFFF;stroke-width:9.375;stroke-linecap:round;stroke-linejoin:round;}
	.st2{fill:url(#SVGID_3_);stroke:#FFFFFF;stroke-width:9.375;stroke-linecap:round;stroke-linejoin:round;}
	.st3{fill:url(#SVGID_4_);stroke:#FFFFFF;stroke-width:9.375;stroke-linecap:round;stroke-linejoin:round;}
	.st4{fill:url(#SVGID_5_);stroke:#FFFFFF;stroke-width:9.375;stroke-linecap:round;stroke-linejoin:round;}
	.st5{fill:url(#SVGID_6_);stroke:#FFFFFF;stroke-width:9.375;stroke-linecap:round;stroke-linejoin:round;}
	.st6{fill:url(#SVGID_7_);stroke:#FFFFFF;stroke-width:9.375;stroke-linecap:round;stroke-linejoin:round;}
	.st7{fill:url(#SVGID_8_);stroke:#FFFFFF;stroke-width:9.375;stroke-linecap:round;stroke-linejoin:round;}
	.st8{fill:url(#SVGID_9_);stroke:#FFFFFF;stroke-width:9.375;stroke-linecap:round;stroke-linejoin:round;}
	.st9{fill:url(#SVGID_10_);stroke:#FFFFFF;stroke-width:9.375;stroke-linecap:round;stroke-linejoin:round;}
	.st10{fill:#302370;stroke:#FFFFFF;stroke-width:9.375;stroke-linecap:round;stroke-linejoin:round;}
	.st11{fill:url(#SVGID_11_);stroke:#FFFFFF;stroke-width:9.375;stroke-linecap:round;stroke-linejoin:round;}
	.st12{fill:url(#SVGID_12_);stroke:#FFFFFF;stroke-width:9.375;stroke-linecap:round;stroke-linejoin:round;}
	.st13{fill:url(#SVGID_13_);stroke:#FFFFFF;stroke-width:9.375;stroke-linecap:round;stroke-linejoin:round;}
	.st14{fill:url(#SVGID_14_);stroke:#FFFFFF;stroke-width:9.375;stroke-linecap:round;stroke-linejoin:round;}
	.st15{fill:url(#SVGID_15_);stroke:#FFFFFF;stroke-width:9.375;stroke-linecap:round;stroke-linejoin:round;}
	.st16{fill:url(#SVGID_16_);stroke:#FFFFFF;stroke-width:9.375;stroke-linecap:round;stroke-linejoin:round;}
	.st17{fill:url(#SVGID_17_);stroke:#FFFFFF;stroke-width:9.375;stroke-linecap:round;stroke-linejoin:round;}
	.st18{fill:url(#SVGID_18_);stroke:#FFFFFF;stroke-width:9.375;stroke-linecap:round;stroke-linejoin:round;}
	.st19{fill:url(#SVGID_19_);stroke:#FFFFFF;stroke-width:9.375;stroke-linecap:round;stroke-linejoin:round;}
	.st20{fill:url(#SVGID_20_);stroke:#FFFFFF;stroke-width:9.375;stroke-linecap:round;stroke-linejoin:round;}
	.st21{fill:url(#SVGID_21_);stroke:#FFFFFF;stroke-width:9.375;stroke-linecap:round;stroke-linejoin:round;}
	.st22{fill:url(#SVGID_22_);stroke:#FFFFFF;stroke-width:9.375;stroke-linecap:round;stroke-linejoin:round;}
	.st23{fill:url(#SVGID_23_);stroke:#FFFFFF;stroke-width:9.375;stroke-linecap:round;stroke-linejoin:round;}
	.st24{fill:url(#SVGID_24_);stroke:#FFFFFF;stroke-width:9.375;stroke-linecap:round;stroke-linejoin:round;}
	.st25{fill:url(#SVGID_25_);stroke:#FFFFFF;stroke-width:9.375;stroke-linecap:round;stroke-linejoin:round;}
	.st26{fill:url(#SVGID_26_);stroke:#FFFFFF;stroke-width:9.375;stroke-linecap:round;stroke-linejoin:round;}
	.st27{fill:url(#SVGID_27_);stroke:#FFFFFF;stroke-width:9.375;stroke-linecap:round;stroke-linejoin:round;}
	.st28{fill:url(#SVGID_28_);stroke:#FFFFFF;stroke-width:9.375;stroke-linecap:round;stroke-linejoin:round;}
	.st29{fill:url(#SVGID_30_);stroke:#FFFFFF;stroke-width:9.375;stroke-linecap:round;stroke-linejoin:round;}
	.st30{fill:#FFCA05;stroke:#FFFFFF;stroke-width:9.375;stroke-linecap:round;stroke-linejoin:round;}
	.st31{fill:#7D8069;stroke:#FFFFFF;stroke-width:9.375;stroke-linecap:round;stroke-linejoin:round;}
	.st32{fill:#C79F08;stroke:#FFFFFF;stroke-width:9.375;stroke-linecap:round;stroke-linejoin:round;}
	.st33{fill:none;stroke:#FFFFFF;stroke-width:9.375;stroke-linecap:round;stroke-linejoin:round;}
	.st34{fill:url(#SVGID_32_);stroke:#FFFFFF;stroke-width:9.375;stroke-linecap:round;stroke-linejoin:round;}
	.st35{fill:url(#SVGID_33_);stroke:#FFFFFF;stroke-width:9.375;stroke-linecap:round;stroke-linejoin:round;}
	.st36{fill:#1E2D60;stroke:#FFFFFF;stroke-width:9.375;stroke-linecap:round;stroke-linejoin:round;}
	.st37{fill:url(#SVGID_34_);stroke:#FFFFFF;stroke-width:9.375;stroke-linecap:round;stroke-linejoin:round;}
	.st38{fill:url(#SVGID_35_);stroke:#FFFFFF;stroke-width:9.375;stroke-linecap:round;stroke-linejoin:round;}
	.st39{fill:url(#SVGID_36_);stroke:#FFFFFF;stroke-width:9.375;stroke-linecap:round;stroke-linejoin:round;}
	.st40{fill:url(#SVGID_37_);}
	.st41{fill:url(#SVGID_38_);}
	.st42{fill:url(#SVGID_39_);}
	.st43{fill:url(#SVGID_40_);}
	.st44{fill:url(#SVGID_41_);}
	.st45{fill:url(#SVGID_42_);}
	.st46{fill:url(#SVGID_43_);}
	.st47{fill:url(#SVGID_44_);}
	.st48{fill:url(#SVGID_45_);}
	.st49{fill:#302370;}
	.st50{fill:url(#SVGID_46_);}
	.st51{fill:url(#SVGID_47_);}
	.st52{fill:url(#SVGID_48_);}
	.st53{fill:url(#SVGID_49_);}
	.st54{fill:url(#SVGID_50_);}
	.st55{fill:url(#SVGID_51_);}
	.st56{fill:url(#SVGID_52_);}
	.st57{fill:url(#SVGID_53_);}
	.st58{fill:url(#SVGID_54_);}
	.st59{fill:url(#SVGID_55_);}
	.st60{fill:url(#SVGID_56_);}
	.st61{fill:url(#SVGID_57_);}
	.st62{fill:url(#SVGID_58_);}
	.st63{fill:url(#SVGID_59_);}
	.st64{fill:url(#SVGID_60_);}
	.st65{fill:url(#SVGID_61_);}
	.st66{fill:url(#SVGID_62_);}
	.st67{fill:url(#SVGID_63_);}
	.st68{fill:url(#SVGID_64_);}
	.st69{fill:#FFCA05;}
	.st70{fill:#7D8069;}
	.st71{fill:#C79F08;}
	.st72{fill:url(#SVGID_65_);}
	.st73{fill:url(#SVGID_66_);}
	.st74{fill:#1E2D60;}
	.st75{fill:url(#SVGID_67_);}
	.st76{fill:url(#SVGID_68_);}
	.st77{fill:url(#SVGID_69_);}
</style>
<linearGradient id="SVGID_1_" gradientUnits="userSpaceOnUse" x1="250" y1="-14.0772" x2="250" y2="514.0772">
	<stop  offset="0" style="stop-color:#3B5AA6"/>
	<stop  offset="1" style="stop-color:#2A75BA"/>
</linearGradient>
<rect x="-14.1" y="-14.1" class="st0" width="528.2" height="528.2"/>
<g>
	<g>
		<g>
			
				<linearGradient id="SVGID_2_" gradientUnits="userSpaceOnUse" x1="-673.689" y1="894.9309" x2="-663.481" y2="849.841" gradientTransform="matrix(1.1656 -4.460000e-02 -4.460000e-02 -1.1656 858.7478 1227.037)">
				<stop  offset="0" style="stop-color:#1D2C5F"/>
				<stop  offset="1" style="stop-color:#0071B8"/>
			</linearGradient>
			<polygon class="st1" points="46.5,256.4 52.6,250.2 32.8,216.8 26.7,223 			"/>
			
				<linearGradient id="SVGID_3_" gradientUnits="userSpaceOnUse" x1="-295.097" y1="1048.6401" x2="-300.6251" y2="1029.0776" gradientTransform="matrix(1.1664 0 0 -1.1664 669.5181 1414.9745)">
				<stop  offset="0" style="stop-color:#1D2C5F"/>
				<stop  offset="1" style="stop-color:#0071B8"/>
			</linearGradient>
			<polygon class="st2" points="319.7,201.1 327.3,197.1 328,192.7 320.5,196.8 			"/>
			
				<linearGradient id="SVGID_4_" gradientUnits="userSpaceOnUse" x1="-351.5954" y1="1073.3577" x2="-363.5057" y2="1044.4329" gradientTransform="matrix(1.1664 0 0 -1.1664 673.9166 1409.8475)">
				<stop  offset="0" style="stop-color:#1D2C5F"/>
				<stop  offset="1" style="stop-color:#0071B8"/>
			</linearGradient>
			<polygon class="st3" points="234.9,201.5 242.5,197.6 272.8,162.7 265.3,166.7 			"/>
			
				<linearGradient id="SVGID_5_" gradientUnits="userSpaceOnUse" x1="-202.9881" y1="1039.9922" x2="-212.3442" y2="1014.0499" gradientTransform="matrix(1.1664 0 0 -1.1664 672.8472 1416.238)">
				<stop  offset="0" style="stop-color:#1D2C5F"/>
				<stop  offset="1" style="stop-color:#0071B8"/>
			</linearGradient>
			<polygon class="st4" points="428.3,214.4 435.7,210.3 432.4,223.8 425,227.7 			"/>
			
				<linearGradient id="SVGID_6_" gradientUnits="userSpaceOnUse" x1="-215.5015" y1="945.3439" x2="-217.6281" y2="1053.7883" gradientTransform="matrix(1.1664 0 0 -1.1664 671.9732 1416.53)">
				<stop  offset="0" style="stop-color:#1D2C5F"/>
				<stop  offset="1" style="stop-color:#0071B8"/>
			</linearGradient>
			<polygon class="st5" points="429.5,322.3 437,318.3 411.7,310.3 404.3,314.3 			"/>
			
				<linearGradient id="SVGID_7_" gradientUnits="userSpaceOnUse" x1="-252.1521" y1="1013.2264" x2="-219.8247" y2="1043.4272" gradientTransform="matrix(1.1664 0 0 -1.1664 672.8472 1416.238)">
				<stop  offset="0" style="stop-color:#1D2C5F"/>
				<stop  offset="1" style="stop-color:#0071B8"/>
			</linearGradient>
			<polygon class="st6" points="388,227.9 395.4,223.9 389.3,222.6 381.8,226.4 			"/>
			
				<linearGradient id="SVGID_8_" gradientUnits="userSpaceOnUse" x1="-368.55" y1="941.961" x2="-370.6773" y2="1050.4493" gradientTransform="matrix(1.1664 0 0 -1.1664 666.3599 1413.7596)">
				<stop  offset="0" style="stop-color:#1D2C5F"/>
				<stop  offset="1" style="stop-color:#0071B8"/>
			</linearGradient>
			<polygon class="st7" points="234.4,211 240.9,207.6 235.6,211.8 228,215.9 			"/>
			
				<linearGradient id="SVGID_9_" gradientUnits="userSpaceOnUse" x1="-226.6126" y1="945.1114" x2="-228.7397" y2="1053.5878" gradientTransform="matrix(1.1664 0 0 -1.1664 672.3375 1416.3846)">
				<stop  offset="0" style="stop-color:#1D2C5F"/>
				<stop  offset="1" style="stop-color:#0071B8"/>
			</linearGradient>
			<polygon class="st8" points="404.1,304.4 411.5,300.4 411.7,310.3 404.3,314.3 			"/>
			
				<linearGradient id="SVGID_10_" gradientUnits="userSpaceOnUse" x1="-212.0332" y1="1069.8357" x2="-223.9444" y2="1050.2671" gradientTransform="matrix(1.1664 9.700000e-03 9.700000e-03 -1.1664 628.3934 1453.5369)">
				<stop  offset="0" style="stop-color:#1D2C5F"/>
				<stop  offset="1" style="stop-color:#0071B8"/>
			</linearGradient>
			<polygon class="st9" points="381.8,226.4 389.3,222.6 389,200 381.5,204.1 			"/>
			<polygon class="st10" points="379.8,300.9 387.2,297 395.4,224 388,227.9 			"/>
			
				<linearGradient id="SVGID_11_" gradientUnits="userSpaceOnUse" x1="-236.7005" y1="944.9264" x2="-238.8286" y2="1053.4492" gradientTransform="matrix(1.1664 0 0 -1.1664 671.9732 1416.53)">
				<stop  offset="0" style="stop-color:#1D2C5F"/>
				<stop  offset="1" style="stop-color:#0071B8"/>
			</linearGradient>
			<polygon class="st11" points="404.1,304.4 411.5,300.4 387.2,297 379.8,300.9 			"/>
			
				<linearGradient id="SVGID_12_" gradientUnits="userSpaceOnUse" x1="-272.5877" y1="948.399" x2="-276.8405" y2="1051.3027" gradientTransform="matrix(1.1664 0 0 -1.1664 667.8902 1411.8641)">
				<stop  offset="0" style="stop-color:#1D2C5F"/>
				<stop  offset="1" style="stop-color:#0071B8"/>
			</linearGradient>
			<polygon class="st12" points="364.3,303.8 371.6,299.8 335.1,293.3 327.7,297.3 			"/>
			
				<linearGradient id="SVGID_13_" gradientUnits="userSpaceOnUse" x1="-289.1979" y1="943.2262" x2="-291.3245" y2="1051.6742" gradientTransform="matrix(1.1664 0 0 -1.1664 668.1822 1411.2811)">
				<stop  offset="0" style="stop-color:#1D2C5F"/>
				<stop  offset="1" style="stop-color:#0071B8"/>
			</linearGradient>
			<polygon class="st13" points="327.7,297.3 335.1,293.3 333.2,277 325.7,281.1 			"/>
			
				<linearGradient id="SVGID_14_" gradientUnits="userSpaceOnUse" x1="-297.767" y1="943.0489" x2="-299.8943" y2="1051.5366" gradientTransform="matrix(1.1664 0 0 -1.1664 668.0845 1411.2811)">
				<stop  offset="0" style="stop-color:#1D2C5F"/>
				<stop  offset="1" style="stop-color:#0071B8"/>
			</linearGradient>
			<polygon class="st14" points="320.6,290.9 328,286.8 319.8,271.4 312.3,275.5 			"/>
			
				<linearGradient id="SVGID_15_" gradientUnits="userSpaceOnUse" x1="-316.5545" y1="946.4733" x2="-320.8105" y2="1049.4514" gradientTransform="matrix(1.1664 0 0 -1.1664 668.2789 1411.0868)">
				<stop  offset="0" style="stop-color:#1D2C5F"/>
				<stop  offset="1" style="stop-color:#0071B8"/>
			</linearGradient>
			<polygon class="st15" points="310.5,287 317.8,283 285.6,277.9 278.2,281.8 			"/>
			
				<linearGradient id="SVGID_16_" gradientUnits="userSpaceOnUse" x1="-330.3881" y1="1004.0607" x2="-297.6323" y2="1007.0383" gradientTransform="matrix(1.1664 0 0 -1.1664 668.2789 1411.0868)">
				<stop  offset="0" style="stop-color:#1D2C5F"/>
				<stop  offset="1" style="stop-color:#0071B8"/>
			</linearGradient>
			<polygon class="st16" points="278.2,281.8 285.6,277.9 298.8,197.1 291.5,201.2 			"/>
			
				<linearGradient id="SVGID_17_" gradientUnits="userSpaceOnUse" x1="-379.3276" y1="1029.1138" x2="-326.5812" y2="1065.2709" gradientTransform="matrix(1.1664 0 0 -1.1664 673.9166 1409.9208)">
				<stop  offset="0" style="stop-color:#1D2C5F"/>
				<stop  offset="1" style="stop-color:#0071B8"/>
			</linearGradient>
			<polygon class="st17" points="240.2,207.9 247.7,204.1 242.5,197.6 234.9,201.6 			"/>
			
				<linearGradient id="SVGID_18_" gradientUnits="userSpaceOnUse" x1="-207.8598" y1="1119.6619" x2="-209.9872" y2="1228.1493" gradientTransform="matrix(1.1651 5.600000e-02 5.600000e-02 -1.1651 408.7163 1631.3506)">
				<stop  offset="0" style="stop-color:#1D2C5F"/>
				<stop  offset="1" style="stop-color:#0071B8"/>
			</linearGradient>
			<polygon class="st18" points="196.4,273.5 203.8,269.5 263.7,299.2 256.2,303.1 			"/>
			
				<linearGradient id="SVGID_19_" gradientUnits="userSpaceOnUse" x1="-394.6729" y1="1052.6696" x2="-402.3294" y2="1035.2301" gradientTransform="matrix(1.1664 0 0 -1.1664 667.5504 1413.7596)">
				<stop  offset="0" style="stop-color:#1D2C5F"/>
				<stop  offset="1" style="stop-color:#0071B8"/>
			</linearGradient>
			<polygon class="st19" points="193,210.1 200.5,206 209.5,188.9 202,192.9 			"/>
			
				<linearGradient id="SVGID_20_" gradientUnits="userSpaceOnUse" x1="-356.8141" y1="997.5195" x2="-358.9409" y2="1105.9769" gradientTransform="matrix(1.1663 1.820000e-02 1.820000e-02 -1.1663 583.8625 1481.3577)">
				<stop  offset="0" style="stop-color:#1D2C5F"/>
				<stop  offset="1" style="stop-color:#0071B8"/>
			</linearGradient>
			<polygon class="st20" points="167.7,303.4 175.3,299.5 203.9,295.2 196.3,299.2 			"/>
			
				<linearGradient id="SVGID_21_" gradientUnits="userSpaceOnUse" x1="-362.0559" y1="1041.1863" x2="-391.3982" y2="1034.8074" gradientTransform="matrix(1.1663 1.820000e-02 1.820000e-02 -1.1663 583.8625 1481.3577)">
				<stop  offset="0" style="stop-color:#1D2C5F"/>
				<stop  offset="1" style="stop-color:#0071B8"/>
			</linearGradient>
			<polygon class="st21" points="167.7,303.4 175.3,299.5 168.1,222.5 160.8,226.5 			"/>
			
				<linearGradient id="SVGID_22_" gradientUnits="userSpaceOnUse" x1="-438.9619" y1="1042.3956" x2="-438.1117" y2="1013.0487" gradientTransform="matrix(1.1664 0 0 -1.1664 668.4732 1413.2009)">
				<stop  offset="0" style="stop-color:#1D2C5F"/>
				<stop  offset="1" style="stop-color:#0071B8"/>
			</linearGradient>
			<polygon class="st22" points="153.8,228.2 161.3,224.3 160.2,202.5 152.7,206.5 			"/>
			
				<linearGradient id="SVGID_23_" gradientUnits="userSpaceOnUse" x1="-617.7551" y1="803.5564" x2="-619.8819" y2="912.0151" gradientTransform="matrix(1.1656 -4.460000e-02 -4.460000e-02 -1.1656 860.5222 1226.4784)">
				<stop  offset="0" style="stop-color:#1D2C5F"/>
				<stop  offset="1" style="stop-color:#0071B8"/>
			</linearGradient>
			<polygon class="st23" points="93.2,320.5 85.8,325.4 116,315.7 123.6,310.8 			"/>
			
				<linearGradient id="SVGID_24_" gradientUnits="userSpaceOnUse" x1="-640.3502" y1="828.127" x2="-666.7238" y2="901.72" gradientTransform="matrix(1.1656 -4.460000e-02 -4.460000e-02 -1.1656 858.3835 1227.2557)">
				<stop  offset="0" style="stop-color:#1D2C5F"/>
				<stop  offset="1" style="stop-color:#0071B8"/>
			</linearGradient>
			<polygon class="st24" points="60.1,246.6 53.9,253.2 85.8,325.4 93.2,320.5 			"/>
			
				<linearGradient id="SVGID_25_" gradientUnits="userSpaceOnUse" x1="-1036.9237" y1="430.7143" x2="-1057.7672" y2="511.1097" gradientTransform="matrix(1.1524 -0.1803 -0.1803 -1.1524 1421.9342 614.3834)">
				<stop  offset="0" style="stop-color:#1D2C5F"/>
				<stop  offset="1" style="stop-color:#0071B8"/>
			</linearGradient>
			<path class="st25" d="M141.1,296c-7.8-2.3-14.1-7.7-17.7-15.3c-1.8-3.9-3.5-12.5-3.6-16.8c-1.7,2-5.2,4.1-7.6,5.3
				c0,0,1.6,8.5,3.7,14.4c2.1,5.9,7.1,10.8,7.1,10.8c3.2,3.1,7.1,5.4,11.6,6.7c8.4,2.4,18,0.9,26.2-4.4c2.1-1.4,5.1-3.5,6.8-5.3
				C159.6,296.4,149.3,298.4,141.1,296z"/>
			
				<linearGradient id="SVGID_26_" gradientUnits="userSpaceOnUse" x1="-433.5986" y1="940.6725" x2="-435.7246" y2="1049.0874" gradientTransform="matrix(1.1664 0 0 -1.1664 668.4732 1413.2009)">
				<stop  offset="0" style="stop-color:#1D2C5F"/>
				<stop  offset="1" style="stop-color:#0071B8"/>
			</linearGradient>
			<polygon class="st26" points="153.8,228.2 160.8,226.5 168.1,222.5 161.3,224.3 			"/>
			
				<linearGradient id="SVGID_27_" gradientUnits="userSpaceOnUse" x1="-518.0759" y1="939.3038" x2="-520.2033" y2="1047.79" gradientTransform="matrix(1.1664 0 0 -1.1664 658.9235 1415.996)">
				<stop  offset="0" style="stop-color:#1D2C5F"/>
				<stop  offset="1" style="stop-color:#0071B8"/>
			</linearGradient>
			<polygon class="st27" points="46.5,256.4 52.6,250.2 60.1,246.6 53.9,253.2 			"/>
			<g>
				
					<linearGradient id="SVGID_28_" gradientUnits="userSpaceOnUse" x1="6.1413" y1="1223.3981" x2="4.0155" y2="1331.8036" gradientTransform="matrix(1.1632 8.720000e-02 8.720000e-02 -1.1632 263.6524 1737.2101)">
					<stop  offset="0" style="stop-color:#1D2C5F"/>
					<stop  offset="1" style="stop-color:#0071B8"/>
				</linearGradient>
				<path class="st28" d="M369.6,287.3l0.4,3.6c2.6-0.3,5.4-0.6,7.7-1.5c2.7-0.9,8.7-3.6,10.9-5.5c-0.8,0.3-4.8,2.2-5.7,2.4
					C378.5,287.6,373.9,287.7,369.6,287.3z"/>
			</g>
			<g>
				
					<linearGradient id="SVGID_30_" gradientUnits="userSpaceOnUse" x1="-777.9968" y1="1512.3635" x2="-780.1237" y2="1620.824" gradientTransform="matrix(1.3092 -2.320000e-02 -2.150000e-02 -1.4152 1328.5762 2439.2034)">
					<stop  offset="0" style="stop-color:#1D2C5F"/>
					<stop  offset="1" style="stop-color:#0071B8"/>
				</linearGradient>
				<path class="st29" d="M263.5,270.5l0.1,4.1c6.1-0.9,11.4-3.2,16.5-6.3c3.2-1.9,6.8-4.9,7.9-5.6c-0.8,0.5-1.6,0.8-2.4,1.3
					C280.9,266.5,268.1,270.4,263.5,270.5z"/>
			</g>
			<path class="st30" d="M435.7,210.4l-3.3,13.5l-3-14.9l-40.4-8.9l0.3,22.5l6.1,1.4l-0.4,4.1c-0.1,0-0.1-0.1-0.2-0.1
				c-7.5-4-16.9-4.4-25.7-1.1c-2.9,1.1-5.7,2.6-8.2,4.4l-6.1-38.5h-26.9l-0.7,4.4h-28.3l-3.2,19.8l-2.4-2.9
				c-6.9-8.4-16.8-13.1-27.8-13.3l24-12.9l-16.7-25l-30.3,34.9l5.2,6.4c-4.8,1.9-8.9,4.6-12.3,7.8l-25.9-23l-9.1,17.4l0.4-16.7
				l-40.6,12.9l1,21.8l6.9-1.8l1,11.1c-7.9-3.5-17.3-3.5-26.1,0.3c-2.6,1.1-5,2.5-7.3,4.1c1.5-6.7,1.2-13.4-1.4-19.3
				c-3-7-8.4-12.8-14.9-16.4c-4.6-3-10-4.9-15.8-5.6c-14-2.5-30.9,0.1-47.5,7.1c-6.1,2.6-11.8,5.6-16.9,8.8l-6.5,4.1l3.9,6.6
				l12.1,20.5c0,0,3.7,6.3,3.8,6.3l6.6-3.2l0.9-0.4l30.2,67.4l2.9,6.5l6.8-2.2l16.3-5.2l7.2-2.3l-1.9-7.3l-8.7-33.3
				c2.5-1.8,4.8-3.8,7-5.9c-0.5,4-0.2,8,0.9,11.9c2.3,8.1,7.6,14.5,14.9,18c7.9,3.8,17.6,3.8,26.5,0c4.5-1.9,8.5-4.7,11.9-8
				l1.2,13.3l28.6-4.2l0-25.7l59.8,29.6v-28.6c2.4-0.2,4.9-0.6,7.3-1.2c6.6-1.6,12.2-3.8,17.2-6.8l-2.5,15.4l32.2,5.1l1.8-11.6
				l8.4,15.6l5.1-9.9l1.9,16.3l36.6,6.5l-1.9-12.3c5,0.6,10.3-0.1,15.4-2c1.2-0.5,2.4-1,3.6-1.6l-1.5,13.1l24.3,3.4l0.2,10l25.4,8
				l33-99.5L435.7,210.4z M217.1,241l7.7-7.5c-0.3,3.4-0.2,7,0.6,10.7L217.1,241z M292.5,236l-5.3-4.7l5.6-6l1.7-1.8L292.5,236z
				 M104.6,247.8l-1.1,1l-0.5-1.5l-4.7-15.3l-0.3-1l1.1-0.2c2.4-0.5,4.7-0.2,6.6,0.7c1.1,0.5,3.1,1.8,3.6,4.3
				C110.1,240.5,108.7,244.1,104.6,247.8z M253,237.7l-0.9,1l-0.7-1.2c-2.1-3.8-1.5-8.4,1.4-11.6c2.8-3.1,7.2-4.1,11-2.6l1.3,0.5
				l-0.9,1L253,237.7z"/>
			<path class="st31" d="M277.5,240.2c-0.1,0.1-0.2,0.2-0.3,0.3C277.3,240.5,277.4,240.4,277.5,240.2L277.5,240.2z"/>
			<polygon class="st31" points="288.9,239.5 289.9,233.6 292.5,236 287.2,231.2 292.9,225.2 291,227.3 291,227 289.3,228.8 
				283.7,234.8 			"/>
			<polygon class="st31" points="292.5,236 294.6,223.4 292.9,225.2 287.2,231.2 			"/>
			<polygon class="st31" points="217.1,241 217.2,241.1 217.2,241.1 			"/>
			<g>
				<path class="st32" d="M248.3,246.3c0.5,0.5,0,0.1,0.6,0.5l3.4-2.4c-0.5-0.4-1-0.7-1.5-1.2c-5-4.6-3.7-14.8-0.4-20.4
					C241.8,229.6,242.2,240.2,248.3,246.3z"/>
				<g>
					<path class="st32" d="M289.9,252c-5.7,4.7-12.2,7.8-20.8,9.8c-1.9,0.4-3.7,0.8-5.5,0.9c-13.6,1.3-25-4.9-29.4-15.1
						c-0.5-1.2-0.9-2.5-1.3-3.8c-2-8.5-0.3-16.2,3.9-22.1c0.4-0.6,0.8-1.1,1.3-1.7c-0.2,0.2-0.4,0.3-0.6,0.5c-1.6,1.4-3,3-4.3,4.7
						c-4.2,6-5.9,13.6-3.9,22.2c0.3,1.3,0.7,2.6,1.2,3.8c4.4,10.1,15.8,16.4,29.4,15.1c1.8-0.2,3.6-0.5,5.5-0.9
						c8.6-2.1,15.1-5.1,20.8-9.8c1.4-1.1,2.7-2.4,4-3.7l-0.1-0.1C290.1,251.8,290,251.9,289.9,252z"/>
					<polygon class="st32" points="209.2,204.8 208.6,204.3 193.9,224.9 194,226.2 					"/>
					<polygon class="st32" points="291,227 291,227.3 292.9,225.2 294.6,223.4 292.5,236 289.9,233.6 288.9,239.5 283.7,234.8 
						289.3,228.8 					"/>
					<polygon class="st32" points="280.3,186 271.5,173.9 268.2,177.9 275.8,188.2 					"/>
					<path class="st32" d="M127,221.9c-2.4-5.6-6.6-9.9-12-13c-3.9-2.6-8.5-3.9-12.7-4.4c-12.1-2.1-27.2-0.1-43,6.6
						c-5.6,2.4-10.9,5.1-15.8,8.2l0.6,1.1c3.7-2.1,7.5-4,11.6-5.7c15.8-6.7,30.9-8.7,43-6.6c4.3,0.5,8.8,1.8,12.7,4.4
						c5.4,3.1,9.6,7.4,12,13c4.3,9.9,0.5,23-9.6,33.9C126.5,247.8,131.8,232.8,127,221.9z"/>
					<path class="st32" d="M178.5,254.1c-0.1-0.6-0.2-1.1-0.4-1.6c-1.4-5-4.4-8.9-8.3-11.6c-6.3-4.3-15.1-5.2-23.9-1.5
						c-4.6,2-8.6,5-11.8,8.7c2.4-2.1,5.2-3.9,8.2-5.2c8.8-3.7,17.6-2.8,23.9,1.4c3.9,2.7,6.9,6.6,8.3,11.6c0.1,0.5,0.3,1.1,0.4,1.6
						c0.4,1.9,0.5,3.8,0.5,5.8c-0.2,5.8-2.3,11.5-5.9,16.4c-0.6,0.8-1.2,1.5-1.8,2.2c2-1.7,3.8-3.7,5.3-5.8
						c3.5-4.9,5.7-10.7,5.9-16.4C179,257.9,178.9,256,178.5,254.1z"/>
					<path class="st32" d="M154.3,246.8c0,0.1,3.6-3.6,3.5-3.6c-4.5-0.2-6.4,4.1-6.6,4.4C152.2,247.1,153.2,246.8,154.3,246.8z"/>
					<path class="st32" d="M162.8,251.9c0.2,0.6,0.3,1.2,0.3,1.9c0,0.9-0.2,1.8-0.6,2.7c0.7-0.4,5.9-2.9,3.9-8.2
						C166.5,248.4,162.6,251.9,162.8,251.9z"/>
					<path class="st32" d="M142.3,254.9c0-2.2,3.8-7.5,4.9-9.3c-6,3.8-8.5,8.9-8.5,12.9c0,6.9,6.1,12.5,13.3,12.5
						c3.4,0,9.7-1.8,13.8-8.5c-2.1,1.4-7.6,4.8-10.5,4.8C148.1,267.3,142.3,261.8,142.3,254.9z"/>
					<polygon class="st32" points="193.3,289.1 196.9,288.6 196.9,257.6 193.3,261.2 					"/>
					<polygon class="st32" points="190.5,231.1 194,226.2 192.5,200.8 167.8,208.1 167.9,210.6 188.9,204.3 					"/>
					<g>
						<polygon class="st32" points="212.1,200.7 209.2,204.8 226.5,221.1 229.9,217.6 						"/>
						<path class="st32" d="M240,265.2c-5-3.1-9-7.3-11.6-12.2l-23.3-9.2l-3.4,3.6l23.1,9.2c2.6,4.9,6.6,9.1,11.6,12.2
							c4.8,3,10.3,4.7,16.2,5.3v11.4l3.6,1.8v-16.7C250.3,269.9,244.8,268.1,240,265.2z"/>
					</g>
					<g>
						<path class="st32" d="M265.4,248.2c5.7-1.4,9-4.3,11.8-7.6c-2.1,1.8-4.7,3.2-8.2,4c-2,0.5-4.6,0.9-6.3,0.6l-3.5,3.7
							C260.8,249.1,263.5,248.6,265.4,248.2z"/>
						<path class="st32" d="M256,209.5c-5.7,1.4-10.8,4-14.8,7.5c-1.1,1-2.1,2-3,3.1c3.9-3.3,8.7-5.7,14.2-7
							c13-3.1,24.4,0.8,31.5,9.6l3.5-3.7C280.4,210.3,269,206.4,256,209.5z"/>
					</g>
					<path class="st32" d="M290.2,251.7c1.3-1.1,2.5-2.2,3.7-3.4l-3-2.7l-9.9-8.9c-1.1,1.3-2.2,2.5-3.5,3.6l9.8,8.8L290.2,251.7z"/>
					<path class="st32" d="M361.8,285.4c-0.7-0.3-1.4-0.6-2.1-1c-6.9-3.7-11.7-10-13.6-17.8c-2.4-10.1,1.1-21.2,8.3-29.4l-5.7-36.9
						H335l-0.6,3.6h10.7l5.7,36.9c-7.2,8.2-10.7,19.3-8.3,29.4c1.9,7.8,6.7,14.2,13.6,17.8c0.7,0.4,1.4,0.7,2.2,1l0.1,0.6l4.2,0.6
						L361.8,285.4z"/>
					<polygon class="st32" points="326,234.1 329.6,230.4 324.8,204.3 305.7,204.3 305.1,207.9 321.2,207.9 					"/>
					<polygon class="st32" points="328.1,268.6 329.3,271.1 336.9,251.5 333.4,255.1 					"/>
					<polygon class="st32" points="314.3,250.2 310.4,274.5 313.3,275 317.9,246.6 					"/>
					<path class="st32" d="M390.5,238.8c2.1,1.5,3.9,3.4,5.3,5.7c1.1,1.7,1.9,3.7,2.4,5.8c1.8,7.4-0.4,15.2-5,21.6
						c-0.5,0.6-1,1.3-1.5,1.9c1.9-1.6,3.6-3.5,5.1-5.5c4.7-6.4,6.8-14.3,5-21.6c-0.5-2.1-1.3-4.1-2.4-5.8c-1.4-2.3-3.2-4.2-5.3-5.7
						c-5.8-4.2-14.1-5.3-22.4-2.1c-3.6,1.4-6.8,3.4-9.6,5.9c-1,0.9-2,1.9-2.8,3c2.6-2.2,5.6-4.1,8.9-5.3
						C376.5,233.5,384.7,234.6,390.5,238.8z"/>
					<path class="st32" d="M378.1,240.4c0.1,0.2,3.5-3.6,3.6-3.6c-4.4,0.2-6.5,2.3-6.3,3.3c-0.3,0.4-0.5,0.7-0.7,1.1
						C375.7,240.7,377.4,240.4,378.1,240.4z"/>
					<path class="st32" d="M386.3,245.9c0.2,0.6,0.2,1.2,0.2,1.9c0,0.8-0.2,1.6-0.6,2.4c0.7-0.3,6-2,4-7.8
						C390,242.5,386.3,245.9,386.3,245.9z"/>
					<path class="st32" d="M374.7,264.5c5,0.2,10.5-2.9,14.4-8.3c-2.3,1.5-7.9,4.7-10.9,4.5c-7.2-0.3-12.8-6-12.5-12.9
						c0.1-2,2.7-6.4,3.8-8c-3.8,2.8-7.2,8.1-7.3,11.9C361.8,258.6,367.4,264.2,374.7,264.5z"/>
					<polygon class="st32" points="440.5,219.1 439.5,223.2 457,227.1 430.1,308.4 432.3,309.1 460.5,223.5 					"/>
					<polygon class="st32" points="427.8,260.3 431.4,256.7 422.5,214.7 396.2,209.4 395.9,213.7 419,218.3 					"/>
					<polygon class="st32" points="407.1,292.6 410,293.1 417.1,253.2 413.5,256.7 					"/>
					<polygon class="st32" points="103.8,266.7 99.9,269.5 109.9,306.9 114.3,306.1 					"/>
					<path class="st32" d="M111.8,247c-2.5,2.6-8,7.8-11.1,9.8l-1.9-6.1l-4.2-13.4l-2.7-9.1l-2.6,3.3l2.7,9.1l4.2,13.4l1.9,6.1
						C102.4,257.4,108.6,252.2,111.8,247z"/>
				</g>
			</g>
			<path class="st31" d="M264.5,223.9c-3.4-1.3-8.2-0.9-10.8,1.9c-0.6,0.7-1.8,2.3-2.1,3.1c2.5-2,7-2.4,9.9-1.4L264.5,223.9z"/>
			<path class="st31" d="M108.7,236.1c-0.4-2-2.3-3.6-3.3-4.1c-1.7-0.8-4.7-1-6.9-0.6c0.4,1.4,0.8,2.9,1,3.6
				c0.9,0.1,2.3,0.4,3.1,0.7c1,0.5,2.6,1.5,3,3.6c0.5,2.7,0.4,5.2-0.7,7.3C108,243.6,109.5,240.3,108.7,236.1z"/>
			<g>
				<g>
					<path id="SVGID_29_" class="st33" d="M269,222.7c-5.4-5-13.8-4.6-18.8,0.8c-5,5.4-4.6,13.8,0.8,18.8c0.5,0.4,0.9,0.8,1.4,1.1
						l17.5-19.8C269.7,223.3,269.4,223,269,222.7z"/>
				</g>
			</g>
			<g>
				<g>
					<path id="SVGID_31_" class="st33" d="M113.6,235.1c-1.4-7.5-11.2-11.6-20.9-6.3l2.5,8.5l3.9,12.6l1.8,5.8
						C108.2,251.1,115.5,245.5,113.6,235.1z"/>
				</g>
			</g>
			
				<linearGradient id="SVGID_32_" gradientUnits="userSpaceOnUse" x1="-620.7587" y1="812.005" x2="-621.9856" y2="928.3709" gradientTransform="matrix(1.1655 -4.680000e-02 -4.680000e-02 -1.1655 868.0122 1216.8558)">
				<stop  offset="0" style="stop-color:#3B5AA6"/>
				<stop  offset="1" style="stop-color:#2A75BA"/>
			</linearGradient>
			<path class="st34" d="M114.1,236c-1.5-7.9-11.9-12.3-22.2-6.7l2.7,9.1l4.2,13.4l1.9,6.1C108.4,252.9,116.2,247,114.1,236z
				 M103.9,248.2c-1.1-3.7-3.6-11.6-3.6-11.6c0,0-0.5-1.7-1.1-3.7c2.2-0.4,4.3-0.2,6,0.6c1,0.5,2.6,1.5,3,3.6
				C109.1,241.7,107.6,244.9,103.9,248.2z"/>
			
				<linearGradient id="SVGID_33_" gradientUnits="userSpaceOnUse" x1="-276.1647" y1="651.5514" x2="-277.3915" y2="767.9037" gradientTransform="matrix(1.1074 -3.460000e-02 -3.460000e-02 -1.1074 589.4422 1002.6465)">
				<stop  offset="0" style="stop-color:#3B5AA6"/>
				<stop  offset="1" style="stop-color:#2A75BA"/>
			</linearGradient>
			<path class="st35" d="M269.8,223.4c-5.7-5.3-14.7-4.9-19.9,0.9c-5.3,5.8-4.9,14.7,0.9,19.9c0.5,0.4,1,0.8,1.5,1.2l18.5-21
				C270.5,224.1,270.2,223.7,269.8,223.4z M252.3,238.2c-1.8-3.3-1.4-7.6,1.3-10.5c2.6-2.9,6.6-3.7,10-2.3L252.3,238.2z"/>
			<polygon class="st36" points="294.6,221.1 284.4,231 294.1,239.8 			"/>
			<g>
				
					<linearGradient id="SVGID_34_" gradientUnits="userSpaceOnUse" x1="-361.5809" y1="567.4171" x2="-363.0378" y2="705.5927" gradientTransform="matrix(1.1664 0 0 -1.1664 674.3052 984.1893)">
					<stop  offset="0" style="stop-color:#3B5AA6"/>
					<stop  offset="1" style="stop-color:#2A75BA"/>
				</linearGradient>
				<path class="st37" d="M435.7,210.4l-3.3,13.5l-3-14.9l-40.4-8.9l0.3,22.5l6.1,1.4l-0.4,4.1c-0.1,0-0.1-0.1-0.2-0.1
					c-7.5-4-16.9-4.4-25.7-1.1c-2.9,1.1-5.7,2.6-8.2,4.4l-6.1-38.5h-26.9l-0.7,4.4h-28.3l-3.2,19.8l-2.4-2.9
					c-6.9-8.4-16.8-13.1-27.8-13.3l24-12.9l-16.7-25l-30.3,34.9l5.2,6.4c-4.8,1.9-8.9,4.6-12.3,7.8l-25.9-23l-9.1,17.4l0.4-16.7
					l-40.6,12.9l1,21.8l6.9-1.8l1,11.1c-7.9-3.5-17.3-3.5-26.1,0.3c-2.6,1.1-5,2.5-7.3,4.1c1.5-6.7,1.2-13.4-1.4-19.3
					c-3-7-8.4-12.8-14.9-16.4c-4.6-3-10-4.9-15.8-5.6c-14-2.5-30.9,0.1-47.5,7.1c-6.1,2.6-11.8,5.6-16.9,8.8l-6.5,4.1l3.9,6.6
					l12.1,20.5c0,0,3.7,6.3,3.8,6.3l6.6-3.2l0.9-0.4l30.2,67.4l2.9,6.5l6.8-2.2l16.3-5.2l7.2-2.3l-1.9-7.3l-8.7-33.3
					c2.5-1.8,4.8-3.8,7-5.9c-0.5,4-0.2,8,0.9,11.9c2.3,8.1,7.6,14.5,14.9,18c7.9,3.8,17.6,3.8,26.5,0c4.5-1.9,8.5-4.7,11.9-8
					l1.2,13.3l28.6-4.2l0-25.7l59.8,29.6v-28.6c2.4-0.2,4.9-0.6,7.3-1.2c6.6-1.6,12.2-3.8,17.2-6.8l-2.5,15.4l32.2,5.1l1.8-11.6
					l8.4,15.6l5.1-9.9l1.9,16.3l36.6,6.5l-1.9-12.3c5,0.6,10.3-0.1,15.4-2c1.2-0.5,2.4-1,3.6-1.6l-1.5,13.1l24.3,3.4l0.2,10l25.4,8
					l33-99.5L435.7,210.4z M292.9,225.2l1.7-1.8l-2,12.5l-5.3-4.7L292.9,225.2z M271.5,173.9l8.9,12L255,198.5l-1.7-2.6L271.5,173.9
					z M225.3,244.2l-8.2-3.2l7.7-7.5C224.4,237,224.6,240.6,225.3,244.2z M103.8,266.7l10.1,38.8l-16.3,5.2L64,235.8
					c-1.8,1-5.2,2.6-8.3,4.1l-12.1-20.5c4.8-3.1,10.1-5.8,15.8-8.2c15.8-6.7,30.9-8.7,43-6.6c4.3,0.5,8.8,1.8,12.7,4.4
					c5.4,3.1,9.6,7.4,12,13C132.9,235.3,123.1,254.8,103.8,266.7z M173.1,276.3c-3.4,4.7-8.1,8.6-13.6,11c-14.2,6-28.4,0-32.2-13.5
					c-3.7-13,4.9-28.5,18.6-34.4c8.8-3.7,17.6-2.8,23.9,1.5c3.9,2.7,6.9,6.6,8.3,11.6c0.1,0.5,0.3,1.1,0.4,1.6
					c0.4,1.9,0.6,3.8,0.5,5.8C178.8,265.6,176.7,271.4,173.1,276.3z M256.2,287.2l-59.3-29.7l0.1,31.1l-15.4,2.1l-1.1-12.8
					c4.8-8.1,6.5-17.7,4-26.5c-1.4-4.8-3.9-9-7.3-12.4l-2.2-26.1l-6.9,1.8l-0.3-6.6l24.7-7.3l1.5,25.4l18.2-25.5l17.8,16.9
					l-24.8,26.2l23.3,9.2c2.6,4.9,6.6,9.1,11.6,12.2c4.8,3,10.3,4.7,16.2,5.3L256.2,287.2L256.2,287.2z M269.1,261.8
					c-1.9,0.4-3.7,0.8-5.5,0.9c-13.6,1.3-25-4.9-29.4-15.1c-0.5-1.2-0.9-2.5-1.3-3.8c-2-8.5-0.3-16.2,3.9-22.1
					c1.2-1.7,2.7-3.3,4.3-4.8c4-3.5,9.1-6.1,14.8-7.5c13-3.1,24.4,0.8,31.4,9.4l-24.7,26.3c1.7,0.3,4.3-0.1,6.3-0.6
					c5.9-1.4,9.2-4.5,12.1-7.9l9.9,8.9l3,2.7c-1.3,1.4-2.7,2.6-4.1,3.8C284.2,256.7,277.7,259.8,269.1,261.8z M362.5,290.2
					l-20.2-3.1l-5.4-35.6l-7.6,19.6L318,246.6h-0.1l-4.5,28.4l-19-3.3l2.7-15.9c0.7-0.7,1.4-1.4,2.1-2.1l6.1-6.3l-5.9-5.4l6.3-37.8
					h19.1l4.8,26.1l5.4-30.3h13.7l5.7,36.9c-7.2,8.2-10.7,19.3-8.3,29.4c1.9,7.8,6.7,14.2,13.6,17.8c0.7,0.4,1.4,0.7,2.1,1
					L362.5,290.2z M382.7,279.2c-4.9,1.9-9.7,2.2-14.1,1.4c-3-0.6-5.8-1.8-8.2-3.5c-3.8-2.7-6.6-6.8-7.8-11.9
					c-1.5-6.1-0.1-12.7,3.2-18.4c1.6-2.8,3.8-5.5,6.3-7.7c2.8-2.5,6-4.6,9.6-5.9c8.4-3.1,16.6-2,22.4,2.1c2.1,1.5,3.9,3.4,5.3,5.7
					c1.1,1.8,1.9,3.7,2.4,5.8c1.8,7.4-0.4,15.3-5,21.6c-2,2.7-4.4,5.1-7.2,7.1C387.5,277,385.2,278.2,382.7,279.2z M432.3,309.1
					l-14-4.2l-1.2-51.7l-7.1,39.9l-15.3-2.4l1.1-11.5c10-8.4,15.3-21.8,12.4-33.8c-1.3-5.4-4-10-7.9-13.5l1.3-13.5l-5.8-1.5l0.4-7.2
					l26.4,5.3l8.9,42l9.1-37.7l20.1,4.4L432.3,309.1z"/>
				
					<linearGradient id="SVGID_35_" gradientUnits="userSpaceOnUse" x1="-253.286" y1="618.093" x2="-253.5483" y2="642.9683" gradientTransform="matrix(1.1664 0 0 -1.1664 674.3052 984.1893)">
					<stop  offset="0" style="stop-color:#3B5AA6"/>
					<stop  offset="1" style="stop-color:#2A75BA"/>
				</linearGradient>
				<path class="st38" d="M389.9,242.3c0.2,0.6,0.2,1.2,0.2,1.9c-0.2,3.9-3.9,6.9-8.3,6.8s-7.8-3.5-7.7-7.4c0.1-3.7,3.4-6.6,7.5-6.8
					c-0.8-0.2-1.6-0.3-2.4-0.3c-7.4-0.3-13.4,4.9-13.6,11.4c-0.3,6.9,5.3,12.6,12.5,12.9c7.4,0.3,13.4-4.9,13.6-11.8
					C391.9,246.6,391.2,244.3,389.9,242.3z"/>
				
					<linearGradient id="SVGID_36_" gradientUnits="userSpaceOnUse" x1="-444.7569" y1="612.7609" x2="-445.0141" y2="637.1558" gradientTransform="matrix(1.1664 0 0 -1.1664 674.3052 984.1893)">
					<stop  offset="0" style="stop-color:#3B5AA6"/>
					<stop  offset="1" style="stop-color:#2A75BA"/>
				</linearGradient>
				<path class="st39" d="M166.6,250.2c0,3.9-3.6,7.1-8,7.1c-4.4,0-8-3.2-8-7.1c0-3.7,3.2-6.7,7.2-7.1c-0.8-0.1-1.6-0.2-2.4-0.2
					c-7.4,0-13.2,5.5-13.2,12c0,6.9,5.8,12.4,13,12.4c7.4,0,13.2-5.5,13.2-12.4c0-2.4-0.8-4.7-2.2-6.5
					C166.5,249,166.6,249.6,166.6,250.2z"/>
			</g>
		</g>
	</g>
	<g>
		<g>
			
				<linearGradient id="SVGID_37_" gradientUnits="userSpaceOnUse" x1="-673.689" y1="894.9309" x2="-663.481" y2="849.841" gradientTransform="matrix(1.1656 -4.460000e-02 -4.460000e-02 -1.1656 858.7478 1227.037)">
				<stop  offset="0" style="stop-color:#1D2C5F"/>
				<stop  offset="1" style="stop-color:#0071B8"/>
			</linearGradient>
			<polygon class="st40" points="46.5,256.4 52.6,250.2 32.8,216.8 26.7,223 			"/>
			
				<linearGradient id="SVGID_38_" gradientUnits="userSpaceOnUse" x1="-295.097" y1="1048.6401" x2="-300.6251" y2="1029.0776" gradientTransform="matrix(1.1664 0 0 -1.1664 669.5181 1414.9745)">
				<stop  offset="0" style="stop-color:#1D2C5F"/>
				<stop  offset="1" style="stop-color:#0071B8"/>
			</linearGradient>
			<polygon class="st41" points="319.7,201.1 327.3,197.1 328,192.7 320.5,196.8 			"/>
			
				<linearGradient id="SVGID_39_" gradientUnits="userSpaceOnUse" x1="-351.5954" y1="1073.3577" x2="-363.5057" y2="1044.4329" gradientTransform="matrix(1.1664 0 0 -1.1664 673.9166 1409.8475)">
				<stop  offset="0" style="stop-color:#1D2C5F"/>
				<stop  offset="1" style="stop-color:#0071B8"/>
			</linearGradient>
			<polygon class="st42" points="234.9,201.5 242.5,197.6 272.8,162.7 265.3,166.7 			"/>
			
				<linearGradient id="SVGID_40_" gradientUnits="userSpaceOnUse" x1="-202.9881" y1="1039.9922" x2="-212.3442" y2="1014.0499" gradientTransform="matrix(1.1664 0 0 -1.1664 672.8472 1416.238)">
				<stop  offset="0" style="stop-color:#1D2C5F"/>
				<stop  offset="1" style="stop-color:#0071B8"/>
			</linearGradient>
			<polygon class="st43" points="428.3,214.4 435.7,210.3 432.4,223.8 425,227.7 			"/>
			
				<linearGradient id="SVGID_41_" gradientUnits="userSpaceOnUse" x1="-215.5015" y1="945.3439" x2="-217.6281" y2="1053.7883" gradientTransform="matrix(1.1664 0 0 -1.1664 671.9732 1416.53)">
				<stop  offset="0" style="stop-color:#1D2C5F"/>
				<stop  offset="1" style="stop-color:#0071B8"/>
			</linearGradient>
			<polygon class="st44" points="429.5,322.3 437,318.3 411.7,310.3 404.3,314.3 			"/>
			
				<linearGradient id="SVGID_42_" gradientUnits="userSpaceOnUse" x1="-252.1521" y1="1013.2264" x2="-219.8247" y2="1043.4272" gradientTransform="matrix(1.1664 0 0 -1.1664 672.8472 1416.238)">
				<stop  offset="0" style="stop-color:#1D2C5F"/>
				<stop  offset="1" style="stop-color:#0071B8"/>
			</linearGradient>
			<polygon class="st45" points="388,227.9 395.4,223.9 389.3,222.6 381.8,226.4 			"/>
			
				<linearGradient id="SVGID_43_" gradientUnits="userSpaceOnUse" x1="-368.55" y1="941.961" x2="-370.6773" y2="1050.4493" gradientTransform="matrix(1.1664 0 0 -1.1664 666.3599 1413.7596)">
				<stop  offset="0" style="stop-color:#1D2C5F"/>
				<stop  offset="1" style="stop-color:#0071B8"/>
			</linearGradient>
			<polygon class="st46" points="234.4,211 240.9,207.6 235.6,211.8 228,215.9 			"/>
			
				<linearGradient id="SVGID_44_" gradientUnits="userSpaceOnUse" x1="-226.6126" y1="945.1114" x2="-228.7397" y2="1053.5878" gradientTransform="matrix(1.1664 0 0 -1.1664 672.3375 1416.3846)">
				<stop  offset="0" style="stop-color:#1D2C5F"/>
				<stop  offset="1" style="stop-color:#0071B8"/>
			</linearGradient>
			<polygon class="st47" points="404.1,304.4 411.5,300.4 411.7,310.3 404.3,314.3 			"/>
			
				<linearGradient id="SVGID_45_" gradientUnits="userSpaceOnUse" x1="-212.0332" y1="1069.8357" x2="-223.9444" y2="1050.2671" gradientTransform="matrix(1.1664 9.700000e-03 9.700000e-03 -1.1664 628.3934 1453.5369)">
				<stop  offset="0" style="stop-color:#1D2C5F"/>
				<stop  offset="1" style="stop-color:#0071B8"/>
			</linearGradient>
			<polygon class="st48" points="381.8,226.4 389.3,222.6 389,200 381.5,204.1 			"/>
			<polygon class="st49" points="379.8,300.9 387.2,297 395.4,224 388,227.9 			"/>
			
				<linearGradient id="SVGID_46_" gradientUnits="userSpaceOnUse" x1="-236.7005" y1="944.9264" x2="-238.8286" y2="1053.4492" gradientTransform="matrix(1.1664 0 0 -1.1664 671.9732 1416.53)">
				<stop  offset="0" style="stop-color:#1D2C5F"/>
				<stop  offset="1" style="stop-color:#0071B8"/>
			</linearGradient>
			<polygon class="st50" points="404.1,304.4 411.5,300.4 387.2,297 379.8,300.9 			"/>
			
				<linearGradient id="SVGID_47_" gradientUnits="userSpaceOnUse" x1="-272.5877" y1="948.399" x2="-276.8405" y2="1051.3027" gradientTransform="matrix(1.1664 0 0 -1.1664 667.8902 1411.8641)">
				<stop  offset="0" style="stop-color:#1D2C5F"/>
				<stop  offset="1" style="stop-color:#0071B8"/>
			</linearGradient>
			<polygon class="st51" points="364.3,303.8 371.6,299.8 335.1,293.3 327.7,297.3 			"/>
			
				<linearGradient id="SVGID_48_" gradientUnits="userSpaceOnUse" x1="-289.1979" y1="943.2262" x2="-291.3245" y2="1051.6742" gradientTransform="matrix(1.1664 0 0 -1.1664 668.1822 1411.2811)">
				<stop  offset="0" style="stop-color:#1D2C5F"/>
				<stop  offset="1" style="stop-color:#0071B8"/>
			</linearGradient>
			<polygon class="st52" points="327.7,297.3 335.1,293.3 333.2,277 325.7,281.1 			"/>
			
				<linearGradient id="SVGID_49_" gradientUnits="userSpaceOnUse" x1="-297.767" y1="943.0489" x2="-299.8943" y2="1051.5366" gradientTransform="matrix(1.1664 0 0 -1.1664 668.0845 1411.2811)">
				<stop  offset="0" style="stop-color:#1D2C5F"/>
				<stop  offset="1" style="stop-color:#0071B8"/>
			</linearGradient>
			<polygon class="st53" points="320.6,290.9 328,286.8 319.8,271.4 312.3,275.5 			"/>
			
				<linearGradient id="SVGID_50_" gradientUnits="userSpaceOnUse" x1="-316.5545" y1="946.4733" x2="-320.8105" y2="1049.4514" gradientTransform="matrix(1.1664 0 0 -1.1664 668.2789 1411.0868)">
				<stop  offset="0" style="stop-color:#1D2C5F"/>
				<stop  offset="1" style="stop-color:#0071B8"/>
			</linearGradient>
			<polygon class="st54" points="310.5,287 317.8,283 285.6,277.9 278.2,281.8 			"/>
			
				<linearGradient id="SVGID_51_" gradientUnits="userSpaceOnUse" x1="-330.3881" y1="1004.0607" x2="-297.6323" y2="1007.0383" gradientTransform="matrix(1.1664 0 0 -1.1664 668.2789 1411.0868)">
				<stop  offset="0" style="stop-color:#1D2C5F"/>
				<stop  offset="1" style="stop-color:#0071B8"/>
			</linearGradient>
			<polygon class="st55" points="278.2,281.8 285.6,277.9 298.8,197.1 291.5,201.2 			"/>
			
				<linearGradient id="SVGID_52_" gradientUnits="userSpaceOnUse" x1="-379.3276" y1="1029.1138" x2="-326.5812" y2="1065.2709" gradientTransform="matrix(1.1664 0 0 -1.1664 673.9166 1409.9208)">
				<stop  offset="0" style="stop-color:#1D2C5F"/>
				<stop  offset="1" style="stop-color:#0071B8"/>
			</linearGradient>
			<polygon class="st56" points="240.2,207.9 247.7,204.1 242.5,197.6 234.9,201.6 			"/>
			
				<linearGradient id="SVGID_53_" gradientUnits="userSpaceOnUse" x1="-207.8598" y1="1119.6619" x2="-209.9872" y2="1228.1493" gradientTransform="matrix(1.1651 5.600000e-02 5.600000e-02 -1.1651 408.7163 1631.3506)">
				<stop  offset="0" style="stop-color:#1D2C5F"/>
				<stop  offset="1" style="stop-color:#0071B8"/>
			</linearGradient>
			<polygon class="st57" points="196.4,273.5 203.8,269.5 263.7,299.2 256.2,303.1 			"/>
			
				<linearGradient id="SVGID_54_" gradientUnits="userSpaceOnUse" x1="-394.6729" y1="1052.6696" x2="-402.3294" y2="1035.2301" gradientTransform="matrix(1.1664 0 0 -1.1664 667.5504 1413.7596)">
				<stop  offset="0" style="stop-color:#1D2C5F"/>
				<stop  offset="1" style="stop-color:#0071B8"/>
			</linearGradient>
			<polygon class="st58" points="193,210.1 200.5,206 209.5,188.9 202,192.9 			"/>
			
				<linearGradient id="SVGID_55_" gradientUnits="userSpaceOnUse" x1="-356.8141" y1="997.5195" x2="-358.9409" y2="1105.9769" gradientTransform="matrix(1.1663 1.820000e-02 1.820000e-02 -1.1663 583.8625 1481.3577)">
				<stop  offset="0" style="stop-color:#1D2C5F"/>
				<stop  offset="1" style="stop-color:#0071B8"/>
			</linearGradient>
			<polygon class="st59" points="167.7,303.4 175.3,299.5 203.9,295.2 196.3,299.2 			"/>
			
				<linearGradient id="SVGID_56_" gradientUnits="userSpaceOnUse" x1="-362.0559" y1="1041.1863" x2="-391.3982" y2="1034.8074" gradientTransform="matrix(1.1663 1.820000e-02 1.820000e-02 -1.1663 583.8625 1481.3577)">
				<stop  offset="0" style="stop-color:#1D2C5F"/>
				<stop  offset="1" style="stop-color:#0071B8"/>
			</linearGradient>
			<polygon class="st60" points="167.7,303.4 175.3,299.5 168.1,222.5 160.8,226.5 			"/>
			
				<linearGradient id="SVGID_57_" gradientUnits="userSpaceOnUse" x1="-438.9619" y1="1042.3956" x2="-438.1117" y2="1013.0487" gradientTransform="matrix(1.1664 0 0 -1.1664 668.4732 1413.2009)">
				<stop  offset="0" style="stop-color:#1D2C5F"/>
				<stop  offset="1" style="stop-color:#0071B8"/>
			</linearGradient>
			<polygon class="st61" points="153.8,228.2 161.3,224.3 160.2,202.5 152.7,206.5 			"/>
			
				<linearGradient id="SVGID_58_" gradientUnits="userSpaceOnUse" x1="-617.7551" y1="803.5564" x2="-619.8819" y2="912.0151" gradientTransform="matrix(1.1656 -4.460000e-02 -4.460000e-02 -1.1656 860.5222 1226.4784)">
				<stop  offset="0" style="stop-color:#1D2C5F"/>
				<stop  offset="1" style="stop-color:#0071B8"/>
			</linearGradient>
			<polygon class="st62" points="93.2,320.5 85.8,325.4 116,315.7 123.6,310.8 			"/>
			
				<linearGradient id="SVGID_59_" gradientUnits="userSpaceOnUse" x1="-640.3502" y1="828.127" x2="-666.7238" y2="901.72" gradientTransform="matrix(1.1656 -4.460000e-02 -4.460000e-02 -1.1656 858.3835 1227.2557)">
				<stop  offset="0" style="stop-color:#1D2C5F"/>
				<stop  offset="1" style="stop-color:#0071B8"/>
			</linearGradient>
			<polygon class="st63" points="60.1,246.6 53.9,253.2 85.8,325.4 93.2,320.5 			"/>
			
				<linearGradient id="SVGID_60_" gradientUnits="userSpaceOnUse" x1="-1036.9237" y1="430.7143" x2="-1057.7672" y2="511.1097" gradientTransform="matrix(1.1524 -0.1803 -0.1803 -1.1524 1421.9342 614.3834)">
				<stop  offset="0" style="stop-color:#1D2C5F"/>
				<stop  offset="1" style="stop-color:#0071B8"/>
			</linearGradient>
			<path class="st64" d="M141.1,296c-7.8-2.3-14.1-7.7-17.7-15.3c-1.8-3.9-3.5-12.5-3.6-16.8c-1.7,2-5.2,4.1-7.6,5.3
				c0,0,1.6,8.5,3.7,14.4c2.1,5.9,7.1,10.8,7.1,10.8c3.2,3.1,7.1,5.4,11.6,6.7c8.4,2.4,18,0.9,26.2-4.4c2.1-1.4,5.1-3.5,6.8-5.3
				C159.6,296.4,149.3,298.4,141.1,296z"/>
			
				<linearGradient id="SVGID_61_" gradientUnits="userSpaceOnUse" x1="-433.5986" y1="940.6725" x2="-435.7246" y2="1049.0874" gradientTransform="matrix(1.1664 0 0 -1.1664 668.4732 1413.2009)">
				<stop  offset="0" style="stop-color:#1D2C5F"/>
				<stop  offset="1" style="stop-color:#0071B8"/>
			</linearGradient>
			<polygon class="st65" points="153.8,228.2 160.8,226.5 168.1,222.5 161.3,224.3 			"/>
			
				<linearGradient id="SVGID_62_" gradientUnits="userSpaceOnUse" x1="-518.0759" y1="939.3038" x2="-520.2033" y2="1047.79" gradientTransform="matrix(1.1664 0 0 -1.1664 658.9235 1415.996)">
				<stop  offset="0" style="stop-color:#1D2C5F"/>
				<stop  offset="1" style="stop-color:#0071B8"/>
			</linearGradient>
			<polygon class="st66" points="46.5,256.4 52.6,250.2 60.1,246.6 53.9,253.2 			"/>
			<g>
				
					<linearGradient id="SVGID_63_" gradientUnits="userSpaceOnUse" x1="6.1413" y1="1223.3981" x2="4.0155" y2="1331.8036" gradientTransform="matrix(1.1632 8.720000e-02 8.720000e-02 -1.1632 263.6524 1737.2101)">
					<stop  offset="0" style="stop-color:#1D2C5F"/>
					<stop  offset="1" style="stop-color:#0071B8"/>
				</linearGradient>
				<path class="st67" d="M369.6,287.3l0.4,3.6c2.6-0.3,5.4-0.6,7.7-1.5c2.7-0.9,8.7-3.6,10.9-5.5c-0.8,0.3-4.8,2.2-5.7,2.4
					C378.5,287.6,373.9,287.7,369.6,287.3z"/>
			</g>
			<g>
				
					<linearGradient id="SVGID_64_" gradientUnits="userSpaceOnUse" x1="-777.9968" y1="1512.3635" x2="-780.1237" y2="1620.824" gradientTransform="matrix(1.3092 -2.320000e-02 -2.150000e-02 -1.4152 1328.5762 2439.2034)">
					<stop  offset="0" style="stop-color:#1D2C5F"/>
					<stop  offset="1" style="stop-color:#0071B8"/>
				</linearGradient>
				<path class="st68" d="M263.5,270.5l0.1,4.1c6.1-0.9,11.4-3.2,16.5-6.3c3.2-1.9,6.8-4.9,7.9-5.6c-0.8,0.5-1.6,0.8-2.4,1.3
					C280.9,266.5,268.1,270.4,263.5,270.5z"/>
			</g>
			<path class="st69" d="M435.7,210.4l-3.3,13.5l-3-14.9l-40.4-8.9l0.3,22.5l6.1,1.4l-0.4,4.1c-0.1,0-0.1-0.1-0.2-0.1
				c-7.5-4-16.9-4.4-25.7-1.1c-2.9,1.1-5.7,2.6-8.2,4.4l-6.1-38.5h-26.9l-0.7,4.4h-28.3l-3.2,19.8l-2.4-2.9
				c-6.9-8.4-16.8-13.1-27.8-13.3l24-12.9l-16.7-25l-30.3,34.9l5.2,6.4c-4.8,1.9-8.9,4.6-12.3,7.8l-25.9-23l-9.1,17.4l0.4-16.7
				l-40.6,12.9l1,21.8l6.9-1.8l1,11.1c-7.9-3.5-17.3-3.5-26.1,0.3c-2.6,1.1-5,2.5-7.3,4.1c1.5-6.7,1.2-13.4-1.4-19.3
				c-3-7-8.4-12.8-14.9-16.4c-4.6-3-10-4.9-15.8-5.6c-14-2.5-30.9,0.1-47.5,7.1c-6.1,2.6-11.8,5.6-16.9,8.8l-6.5,4.1l3.9,6.6
				l12.1,20.5c0,0,3.7,6.3,3.8,6.3l6.6-3.2l0.9-0.4l30.2,67.4l2.9,6.5l6.8-2.2l16.3-5.2l7.2-2.3l-1.9-7.3l-8.7-33.3
				c2.5-1.8,4.8-3.8,7-5.9c-0.5,4-0.2,8,0.9,11.9c2.3,8.1,7.6,14.5,14.9,18c7.9,3.8,17.6,3.8,26.5,0c4.5-1.9,8.5-4.7,11.9-8
				l1.2,13.3l28.6-4.2l0-25.7l59.8,29.6v-28.6c2.4-0.2,4.9-0.6,7.3-1.2c6.6-1.6,12.2-3.8,17.2-6.8l-2.5,15.4l32.2,5.1l1.8-11.6
				l8.4,15.6l5.1-9.9l1.9,16.3l36.6,6.5l-1.9-12.3c5,0.6,10.3-0.1,15.4-2c1.2-0.5,2.4-1,3.6-1.6l-1.5,13.1l24.3,3.4l0.2,10l25.4,8
				l33-99.5L435.7,210.4z M217.1,241l7.7-7.5c-0.3,3.4-0.2,7,0.6,10.7L217.1,241z M292.5,236l-5.3-4.7l5.6-6l1.7-1.8L292.5,236z
				 M104.6,247.8l-1.1,1l-0.5-1.5l-4.7-15.3l-0.3-1l1.1-0.2c2.4-0.5,4.7-0.2,6.6,0.7c1.1,0.5,3.1,1.8,3.6,4.3
				C110.1,240.5,108.7,244.1,104.6,247.8z M253,237.7l-0.9,1l-0.7-1.2c-2.1-3.8-1.5-8.4,1.4-11.6c2.8-3.1,7.2-4.1,11-2.6l1.3,0.5
				l-0.9,1L253,237.7z"/>
			<path class="st70" d="M277.5,240.2c-0.1,0.1-0.2,0.2-0.3,0.3C277.3,240.5,277.4,240.4,277.5,240.2L277.5,240.2z"/>
			<polygon class="st70" points="288.9,239.5 289.9,233.6 292.5,236 287.2,231.2 292.9,225.2 291,227.3 291,227 289.3,228.8 
				283.7,234.8 			"/>
			<polygon class="st70" points="292.5,236 294.6,223.4 292.9,225.2 287.2,231.2 			"/>
			<polygon class="st70" points="217.1,241 217.2,241.1 217.2,241.1 			"/>
			<g>
				<path class="st71" d="M248.3,246.3c0.5,0.5,0,0.1,0.6,0.5l3.4-2.4c-0.5-0.4-1-0.7-1.5-1.2c-5-4.6-3.7-14.8-0.4-20.4
					C241.8,229.6,242.2,240.2,248.3,246.3z"/>
				<g>
					<path class="st71" d="M289.9,252c-5.7,4.7-12.2,7.8-20.8,9.8c-1.9,0.4-3.7,0.8-5.5,0.9c-13.6,1.3-25-4.9-29.4-15.1
						c-0.5-1.2-0.9-2.5-1.3-3.8c-2-8.5-0.3-16.2,3.9-22.1c0.4-0.6,0.8-1.1,1.3-1.7c-0.2,0.2-0.4,0.3-0.6,0.5c-1.6,1.4-3,3-4.3,4.7
						c-4.2,6-5.9,13.6-3.9,22.2c0.3,1.3,0.7,2.6,1.2,3.8c4.4,10.1,15.8,16.4,29.4,15.1c1.8-0.2,3.6-0.5,5.5-0.9
						c8.6-2.1,15.1-5.1,20.8-9.8c1.4-1.1,2.7-2.4,4-3.7l-0.1-0.1C290.1,251.8,290,251.9,289.9,252z"/>
					<polygon class="st71" points="209.2,204.8 208.6,204.3 193.9,224.9 194,226.2 					"/>
					<polygon class="st71" points="291,227 291,227.3 292.9,225.2 294.6,223.4 292.5,236 289.9,233.6 288.9,239.5 283.7,234.8 
						289.3,228.8 					"/>
					<polygon class="st71" points="280.3,186 271.5,173.9 268.2,177.9 275.8,188.2 					"/>
					<path class="st71" d="M127,221.9c-2.4-5.6-6.6-9.9-12-13c-3.9-2.6-8.5-3.9-12.7-4.4c-12.1-2.1-27.2-0.1-43,6.6
						c-5.6,2.4-10.9,5.1-15.8,8.2l0.6,1.1c3.7-2.1,7.5-4,11.6-5.7c15.8-6.7,30.9-8.7,43-6.6c4.3,0.5,8.8,1.8,12.7,4.4
						c5.4,3.1,9.6,7.4,12,13c4.3,9.9,0.5,23-9.6,33.9C126.5,247.8,131.8,232.8,127,221.9z"/>
					<path class="st71" d="M178.5,254.1c-0.1-0.6-0.2-1.1-0.4-1.6c-1.4-5-4.4-8.9-8.3-11.6c-6.3-4.3-15.1-5.2-23.9-1.5
						c-4.6,2-8.6,5-11.8,8.7c2.4-2.1,5.2-3.9,8.2-5.2c8.8-3.7,17.6-2.8,23.9,1.4c3.9,2.7,6.9,6.6,8.3,11.6c0.1,0.5,0.3,1.1,0.4,1.6
						c0.4,1.9,0.5,3.8,0.5,5.8c-0.2,5.8-2.3,11.5-5.9,16.4c-0.6,0.8-1.2,1.5-1.8,2.2c2-1.7,3.8-3.7,5.3-5.8
						c3.5-4.9,5.7-10.7,5.9-16.4C179,257.9,178.9,256,178.5,254.1z"/>
					<path class="st71" d="M154.3,246.8c0,0.1,3.6-3.6,3.5-3.6c-4.5-0.2-6.4,4.1-6.6,4.4C152.2,247.1,153.2,246.8,154.3,246.8z"/>
					<path class="st71" d="M162.8,251.9c0.2,0.6,0.3,1.2,0.3,1.9c0,0.9-0.2,1.8-0.6,2.7c0.7-0.4,5.9-2.9,3.9-8.2
						C166.5,248.4,162.6,251.9,162.8,251.9z"/>
					<path class="st71" d="M142.3,254.9c0-2.2,3.8-7.5,4.9-9.3c-6,3.8-8.5,8.9-8.5,12.9c0,6.9,6.1,12.5,13.3,12.5
						c3.4,0,9.7-1.8,13.8-8.5c-2.1,1.4-7.6,4.8-10.5,4.8C148.1,267.3,142.3,261.8,142.3,254.9z"/>
					<polygon class="st71" points="193.3,289.1 196.9,288.6 196.9,257.6 193.3,261.2 					"/>
					<polygon class="st71" points="190.5,231.1 194,226.2 192.5,200.8 167.8,208.1 167.9,210.6 188.9,204.3 					"/>
					<g>
						<polygon class="st71" points="212.1,200.7 209.2,204.8 226.5,221.1 229.9,217.6 						"/>
						<path class="st71" d="M240,265.2c-5-3.1-9-7.3-11.6-12.2l-23.3-9.2l-3.4,3.6l23.1,9.2c2.6,4.9,6.6,9.1,11.6,12.2
							c4.8,3,10.3,4.7,16.2,5.3v11.4l3.6,1.8v-16.7C250.3,269.9,244.8,268.1,240,265.2z"/>
					</g>
					<g>
						<path class="st71" d="M265.4,248.2c5.7-1.4,9-4.3,11.8-7.6c-2.1,1.8-4.7,3.2-8.2,4c-2,0.5-4.6,0.9-6.3,0.6l-3.5,3.7
							C260.8,249.1,263.5,248.6,265.4,248.2z"/>
						<path class="st71" d="M256,209.5c-5.7,1.4-10.8,4-14.8,7.5c-1.1,1-2.1,2-3,3.1c3.9-3.3,8.7-5.7,14.2-7
							c13-3.1,24.4,0.8,31.5,9.6l3.5-3.7C280.4,210.3,269,206.4,256,209.5z"/>
					</g>
					<path class="st71" d="M290.2,251.7c1.3-1.1,2.5-2.2,3.7-3.4l-3-2.7l-9.9-8.9c-1.1,1.3-2.2,2.5-3.5,3.6l9.8,8.8L290.2,251.7z"/>
					<path class="st71" d="M361.8,285.4c-0.7-0.3-1.4-0.6-2.1-1c-6.9-3.7-11.7-10-13.6-17.8c-2.4-10.1,1.1-21.2,8.3-29.4l-5.7-36.9
						H335l-0.6,3.6h10.7l5.7,36.9c-7.2,8.2-10.7,19.3-8.3,29.4c1.9,7.8,6.7,14.2,13.6,17.8c0.7,0.4,1.4,0.7,2.2,1l0.1,0.6l4.2,0.6
						L361.8,285.4z"/>
					<polygon class="st71" points="326,234.1 329.6,230.4 324.8,204.3 305.7,204.3 305.1,207.9 321.2,207.9 					"/>
					<polygon class="st71" points="328.1,268.6 329.3,271.1 336.9,251.5 333.4,255.1 					"/>
					<polygon class="st71" points="314.3,250.2 310.4,274.5 313.3,275 317.9,246.6 					"/>
					<path class="st71" d="M390.5,238.8c2.1,1.5,3.9,3.4,5.3,5.7c1.1,1.7,1.9,3.7,2.4,5.8c1.8,7.4-0.4,15.2-5,21.6
						c-0.5,0.6-1,1.3-1.5,1.9c1.9-1.6,3.6-3.5,5.1-5.5c4.7-6.4,6.8-14.3,5-21.6c-0.5-2.1-1.3-4.1-2.4-5.8c-1.4-2.3-3.2-4.2-5.3-5.7
						c-5.8-4.2-14.1-5.3-22.4-2.1c-3.6,1.4-6.8,3.4-9.6,5.9c-1,0.9-2,1.9-2.8,3c2.6-2.2,5.6-4.1,8.9-5.3
						C376.5,233.5,384.7,234.6,390.5,238.8z"/>
					<path class="st71" d="M378.1,240.4c0.1,0.2,3.5-3.6,3.6-3.6c-4.4,0.2-6.5,2.3-6.3,3.3c-0.3,0.4-0.5,0.7-0.7,1.1
						C375.7,240.7,377.4,240.4,378.1,240.4z"/>
					<path class="st71" d="M386.3,245.9c0.2,0.6,0.2,1.2,0.2,1.9c0,0.8-0.2,1.6-0.6,2.4c0.7-0.3,6-2,4-7.8
						C390,242.5,386.3,245.9,386.3,245.9z"/>
					<path class="st71" d="M374.7,264.5c5,0.2,10.5-2.9,14.4-8.3c-2.3,1.5-7.9,4.7-10.9,4.5c-7.2-0.3-12.8-6-12.5-12.9
						c0.1-2,2.7-6.4,3.8-8c-3.8,2.8-7.2,8.1-7.3,11.9C361.8,258.6,367.4,264.2,374.7,264.5z"/>
					<polygon class="st71" points="440.5,219.1 439.5,223.2 457,227.1 430.1,308.4 432.3,309.1 460.5,223.5 					"/>
					<polygon class="st71" points="427.8,260.3 431.4,256.7 422.5,214.7 396.2,209.4 395.9,213.7 419,218.3 					"/>
					<polygon class="st71" points="407.1,292.6 410,293.1 417.1,253.2 413.5,256.7 					"/>
					<polygon class="st71" points="103.8,266.7 99.9,269.5 109.9,306.9 114.3,306.1 					"/>
					<path class="st71" d="M111.8,247c-2.5,2.6-8,7.8-11.1,9.8l-1.9-6.1l-4.2-13.4l-2.7-9.1l-2.6,3.3l2.7,9.1l4.2,13.4l1.9,6.1
						C102.4,257.4,108.6,252.2,111.8,247z"/>
				</g>
			</g>
			<path class="st70" d="M264.5,223.9c-3.4-1.3-8.2-0.9-10.8,1.9c-0.6,0.7-1.8,2.3-2.1,3.1c2.5-2,7-2.4,9.9-1.4L264.5,223.9z"/>
			<path class="st70" d="M108.7,236.1c-0.4-2-2.3-3.6-3.3-4.1c-1.7-0.8-4.7-1-6.9-0.6c0.4,1.4,0.8,2.9,1,3.6
				c0.9,0.1,2.3,0.4,3.1,0.7c1,0.5,2.6,1.5,3,3.6c0.5,2.7,0.4,5.2-0.7,7.3C108,243.6,109.5,240.3,108.7,236.1z"/>
			
				<linearGradient id="SVGID_65_" gradientUnits="userSpaceOnUse" x1="-620.7587" y1="812.005" x2="-621.9856" y2="928.3709" gradientTransform="matrix(1.1655 -4.680000e-02 -4.680000e-02 -1.1655 868.0122 1216.8558)">
				<stop  offset="0" style="stop-color:#3B5AA6"/>
				<stop  offset="1" style="stop-color:#2A75BA"/>
			</linearGradient>
			<path class="st72" d="M114.1,236c-1.5-7.9-11.9-12.3-22.2-6.7l2.7,9.1l4.2,13.4l1.9,6.1C108.4,252.9,116.2,247,114.1,236z
				 M103.9,248.2c-1.1-3.7-3.6-11.6-3.6-11.6c0,0-0.5-1.7-1.1-3.7c2.2-0.4,4.3-0.2,6,0.6c1,0.5,2.6,1.5,3,3.6
				C109.1,241.7,107.6,244.9,103.9,248.2z"/>
			
				<linearGradient id="SVGID_66_" gradientUnits="userSpaceOnUse" x1="-276.1647" y1="651.5514" x2="-277.3915" y2="767.9037" gradientTransform="matrix(1.1074 -3.460000e-02 -3.460000e-02 -1.1074 589.4422 1002.6465)">
				<stop  offset="0" style="stop-color:#3B5AA6"/>
				<stop  offset="1" style="stop-color:#2A75BA"/>
			</linearGradient>
			<path class="st73" d="M269.8,223.4c-5.7-5.3-14.7-4.9-19.9,0.9c-5.3,5.8-4.9,14.7,0.9,19.9c0.5,0.4,1,0.8,1.5,1.2l18.5-21
				C270.5,224.1,270.2,223.7,269.8,223.4z M252.3,238.2c-1.8-3.3-1.4-7.6,1.3-10.5c2.6-2.9,6.6-3.7,10-2.3L252.3,238.2z"/>
			<polygon class="st74" points="294.6,221.1 284.4,231 294.1,239.8 			"/>
			<g>
				
					<linearGradient id="SVGID_67_" gradientUnits="userSpaceOnUse" x1="-361.5809" y1="567.4171" x2="-363.0378" y2="705.5927" gradientTransform="matrix(1.1664 0 0 -1.1664 674.3052 984.1893)">
					<stop  offset="0" style="stop-color:#3B5AA6"/>
					<stop  offset="1" style="stop-color:#2A75BA"/>
				</linearGradient>
				<path class="st75" d="M435.7,210.4l-3.3,13.5l-3-14.9l-40.4-8.9l0.3,22.5l6.1,1.4l-0.4,4.1c-0.1,0-0.1-0.1-0.2-0.1
					c-7.5-4-16.9-4.4-25.7-1.1c-2.9,1.1-5.7,2.6-8.2,4.4l-6.1-38.5h-26.9l-0.7,4.4h-28.3l-3.2,19.8l-2.4-2.9
					c-6.9-8.4-16.8-13.1-27.8-13.3l24-12.9l-16.7-25l-30.3,34.9l5.2,6.4c-4.8,1.9-8.9,4.6-12.3,7.8l-25.9-23l-9.1,17.4l0.4-16.7
					l-40.6,12.9l1,21.8l6.9-1.8l1,11.1c-7.9-3.5-17.3-3.5-26.1,0.3c-2.6,1.1-5,2.5-7.3,4.1c1.5-6.7,1.2-13.4-1.4-19.3
					c-3-7-8.4-12.8-14.9-16.4c-4.6-3-10-4.9-15.8-5.6c-14-2.5-30.9,0.1-47.5,7.1c-6.1,2.6-11.8,5.6-16.9,8.8l-6.5,4.1l3.9,6.6
					l12.1,20.5c0,0,3.7,6.3,3.8,6.3l6.6-3.2l0.9-0.4l30.2,67.4l2.9,6.5l6.8-2.2l16.3-5.2l7.2-2.3l-1.9-7.3l-8.7-33.3
					c2.5-1.8,4.8-3.8,7-5.9c-0.5,4-0.2,8,0.9,11.9c2.3,8.1,7.6,14.5,14.9,18c7.9,3.8,17.6,3.8,26.5,0c4.5-1.9,8.5-4.7,11.9-8
					l1.2,13.3l28.6-4.2l0-25.7l59.8,29.6v-28.6c2.4-0.2,4.9-0.6,7.3-1.2c6.6-1.6,12.2-3.8,17.2-6.8l-2.5,15.4l32.2,5.1l1.8-11.6
					l8.4,15.6l5.1-9.9l1.9,16.3l36.6,6.5l-1.9-12.3c5,0.6,10.3-0.1,15.4-2c1.2-0.5,2.4-1,3.6-1.6l-1.5,13.1l24.3,3.4l0.2,10l25.4,8
					l33-99.5L435.7,210.4z M292.9,225.2l1.7-1.8l-2,12.5l-5.3-4.7L292.9,225.2z M271.5,173.9l8.9,12L255,198.5l-1.7-2.6L271.5,173.9
					z M225.3,244.2l-8.2-3.2l7.7-7.5C224.4,237,224.6,240.6,225.3,244.2z M103.8,266.7l10.1,38.8l-16.3,5.2L64,235.8
					c-1.8,1-5.2,2.6-8.3,4.1l-12.1-20.5c4.8-3.1,10.1-5.8,15.8-8.2c15.8-6.7,30.9-8.7,43-6.6c4.3,0.5,8.8,1.8,12.7,4.4
					c5.4,3.1,9.6,7.4,12,13C132.9,235.3,123.1,254.8,103.8,266.7z M173.1,276.3c-3.4,4.7-8.1,8.6-13.6,11c-14.2,6-28.4,0-32.2-13.5
					c-3.7-13,4.9-28.5,18.6-34.4c8.8-3.7,17.6-2.8,23.9,1.5c3.9,2.7,6.9,6.6,8.3,11.6c0.1,0.5,0.3,1.1,0.4,1.6
					c0.4,1.9,0.6,3.8,0.5,5.8C178.8,265.6,176.7,271.4,173.1,276.3z M256.2,287.2l-59.3-29.7l0.1,31.1l-15.4,2.1l-1.1-12.8
					c4.8-8.1,6.5-17.7,4-26.5c-1.4-4.8-3.9-9-7.3-12.4l-2.2-26.1l-6.9,1.8l-0.3-6.6l24.7-7.3l1.5,25.4l18.2-25.5l17.8,16.9
					l-24.8,26.2l23.3,9.2c2.6,4.9,6.6,9.1,11.6,12.2c4.8,3,10.3,4.7,16.2,5.3L256.2,287.2L256.2,287.2z M269.1,261.8
					c-1.9,0.4-3.7,0.8-5.5,0.9c-13.6,1.3-25-4.9-29.4-15.1c-0.5-1.2-0.9-2.5-1.3-3.8c-2-8.5-0.3-16.2,3.9-22.1
					c1.2-1.7,2.7-3.3,4.3-4.8c4-3.5,9.1-6.1,14.8-7.5c13-3.1,24.4,0.8,31.4,9.4l-24.7,26.3c1.7,0.3,4.3-0.1,6.3-0.6
					c5.9-1.4,9.2-4.5,12.1-7.9l9.9,8.9l3,2.7c-1.3,1.4-2.7,2.6-4.1,3.8C284.2,256.7,277.7,259.8,269.1,261.8z M362.5,290.2
					l-20.2-3.1l-5.4-35.6l-7.6,19.6L318,246.6h-0.1l-4.5,28.4l-19-3.3l2.7-15.9c0.7-0.7,1.4-1.4,2.1-2.1l6.1-6.3l-5.9-5.4l6.3-37.8
					h19.1l4.8,26.1l5.4-30.3h13.7l5.7,36.9c-7.2,8.2-10.7,19.3-8.3,29.4c1.9,7.8,6.7,14.2,13.6,17.8c0.7,0.4,1.4,0.7,2.1,1
					L362.5,290.2z M382.7,279.2c-4.9,1.9-9.7,2.2-14.1,1.4c-3-0.6-5.8-1.8-8.2-3.5c-3.8-2.7-6.6-6.8-7.8-11.9
					c-1.5-6.1-0.1-12.7,3.2-18.4c1.6-2.8,3.8-5.5,6.3-7.7c2.8-2.5,6-4.6,9.6-5.9c8.4-3.1,16.6-2,22.4,2.1c2.1,1.5,3.9,3.4,5.3,5.7
					c1.1,1.8,1.9,3.7,2.4,5.8c1.8,7.4-0.4,15.3-5,21.6c-2,2.7-4.4,5.1-7.2,7.1C387.5,277,385.2,278.2,382.7,279.2z M432.3,309.1
					l-14-4.2l-1.2-51.7l-7.1,39.9l-15.3-2.4l1.1-11.5c10-8.4,15.3-21.8,12.4-33.8c-1.3-5.4-4-10-7.9-13.5l1.3-13.5l-5.8-1.5l0.4-7.2
					l26.4,5.3l8.9,42l9.1-37.7l20.1,4.4L432.3,309.1z"/>
				
					<linearGradient id="SVGID_68_" gradientUnits="userSpaceOnUse" x1="-253.286" y1="618.093" x2="-253.5483" y2="642.9683" gradientTransform="matrix(1.1664 0 0 -1.1664 674.3052 984.1893)">
					<stop  offset="0" style="stop-color:#3B5AA6"/>
					<stop  offset="1" style="stop-color:#2A75BA"/>
				</linearGradient>
				<path class="st76" d="M389.9,242.3c0.2,0.6,0.2,1.2,0.2,1.9c-0.2,3.9-3.9,6.9-8.3,6.8s-7.8-3.5-7.7-7.4c0.1-3.7,3.4-6.6,7.5-6.8
					c-0.8-0.2-1.6-0.3-2.4-0.3c-7.4-0.3-13.4,4.9-13.6,11.4c-0.3,6.9,5.3,12.6,12.5,12.9c7.4,0.3,13.4-4.9,13.6-11.8
					C391.9,246.6,391.2,244.3,389.9,242.3z"/>
				
					<linearGradient id="SVGID_69_" gradientUnits="userSpaceOnUse" x1="-444.7569" y1="612.7609" x2="-445.0141" y2="637.1558" gradientTransform="matrix(1.1664 0 0 -1.1664 674.3052 984.1893)">
					<stop  offset="0" style="stop-color:#3B5AA6"/>
					<stop  offset="1" style="stop-color:#2A75BA"/>
				</linearGradient>
				<path class="st77" d="M166.6,250.2c0,3.9-3.6,7.1-8,7.1c-4.4,0-8-3.2-8-7.1c0-3.7,3.2-6.7,7.2-7.1c-0.8-0.1-1.6-0.2-2.4-0.2
					c-7.4,0-13.2,5.5-13.2,12c0,6.9,5.8,12.4,13,12.4c7.4,0,13.2-5.5,13.2-12.4c0-2.4-0.8-4.7-2.2-6.5
					C166.5,249,166.6,249.6,166.6,250.2z"/>
			</g>
		</g>
	</g>
</g>
</svg>
