<?xml version="1.0" encoding="utf-8"?>
<!-- Generator: Adobe Illustrator 16.0.0, SVG Export Plug-In . SVG Version: 6.00 Build 0)  -->
<!DOCTYPE svg PUBLIC "-//W3C//DTD SVG 1.1//EN" "http://www.w3.org/Graphics/SVG/1.1/DTD/svg11.dtd">
<svg version="1.1" id="Layer_1" xmlns="http://www.w3.org/2000/svg" xmlns:xlink="http://www.w3.org/1999/xlink" x="0px" y="0px"
	 width="880px" height="400px" viewBox="-385.042 -126 880 400" enable-background="new -385.042 -126 880 400"
	 xml:space="preserve">
<rect x="-385.042" y="-126" fill="#F58434" width="880" height="400"/>
<g>
	<g>
		
			<linearGradient id="SVGID_1_" gradientUnits="userSpaceOnUse" x1="-922.9517" y1="-569.7529" x2="-906.619" y2="-497.6104" gradientTransform="matrix(1.1656 -0.0446 0.0446 1.1656 809.8936 639.2648)">
			<stop  offset="0" style="stop-color:#1D2C5F"/>
			<stop  offset="1" style="stop-color:#0071B8"/>
		</linearGradient>
		<polygon fill="url(#SVGID_1_)" stroke="#FFFFFF" stroke-width="15" stroke-linecap="round" stroke-linejoin="round" points="
			-270.684,84.237 -260.921,74.331 -292.49,20.876 -302.347,30.803 		"/>
		
			<linearGradient id="SVGID_2_" gradientUnits="userSpaceOnUse" x1="-402.8853" y1="-719.6021" x2="-411.7302" y2="-688.302" gradientTransform="matrix(1.1664 0 0 1.1664 645.3901 820.2897)">
			<stop  offset="0" style="stop-color:#1D2C5F"/>
			<stop  offset="1" style="stop-color:#0071B8"/>
		</linearGradient>
		<polygon fill="url(#SVGID_2_)" stroke="#FFFFFF" stroke-width="15" stroke-linecap="round" stroke-linejoin="round" points="
			166.529,-4.189 178.574,-10.629 179.802,-17.678 167.755,-11.199 		"/>
		
			<linearGradient id="SVGID_3_" gradientUnits="userSpaceOnUse" x1="-491.021" y1="-761.7881" x2="-510.0774" y2="-715.5084" gradientTransform="matrix(1.1664 0 0 1.1664 649.7886 815.1627)">
			<stop  offset="0" style="stop-color:#1D2C5F"/>
			<stop  offset="1" style="stop-color:#0071B8"/>
		</linearGradient>
		<polygon fill="url(#SVGID_3_)" stroke="#FFFFFF" stroke-width="15" stroke-linecap="round" stroke-linejoin="round" points="
			30.792,-3.555 42.99,-9.901 91.417,-65.706 79.51,-59.358 		"/>
		
			<linearGradient id="SVGID_4_" gradientUnits="userSpaceOnUse" x1="-253.7974" y1="-705.1152" x2="-268.7668" y2="-663.6084" gradientTransform="matrix(1.1664 0 0 1.1664 648.7192 821.5533)">
			<stop  offset="0" style="stop-color:#1D2C5F"/>
			<stop  offset="1" style="stop-color:#0071B8"/>
		</linearGradient>
		<polygon fill="url(#SVGID_4_)" stroke="#FFFFFF" stroke-width="15" stroke-linecap="round" stroke-linejoin="round" points="
			340.18,17.024 352.137,10.545 346.839,32.1 334.919,38.347 		"/>
		
			<linearGradient id="SVGID_5_" gradientUnits="userSpaceOnUse" x1="-274.2681" y1="-553.5288" x2="-277.6707" y2="-727.0499" gradientTransform="matrix(1.1664 0 0 1.1664 647.8452 821.8453)">
			<stop  offset="0" style="stop-color:#1D2C5F"/>
			<stop  offset="1" style="stop-color:#0071B8"/>
		</linearGradient>
		<polygon fill="url(#SVGID_5_)" stroke="#FFFFFF" stroke-width="15" stroke-linecap="round" stroke-linejoin="round" points="
			342.164,189.68 354.215,183.323 313.695,170.532 301.811,176.809 		"/>
		
			<linearGradient id="SVGID_6_" gradientUnits="userSpaceOnUse" x1="-332.4604" y1="-662.291" x2="-280.7337" y2="-710.6151" gradientTransform="matrix(1.1664 0 0 1.1664 648.7192 821.5533)">
			<stop  offset="0" style="stop-color:#1D2C5F"/>
			<stop  offset="1" style="stop-color:#0071B8"/>
		</linearGradient>
		<polygon fill="url(#SVGID_6_)" stroke="#FFFFFF" stroke-width="15" stroke-linecap="round" stroke-linejoin="round" points="
			275.716,38.578 287.595,32.305 277.868,30.096 265.864,36.304 		"/>
		
			<linearGradient id="SVGID_7_" gradientUnits="userSpaceOnUse" x1="-522.0332" y1="-549.5381" x2="-525.4371" y2="-723.1238" gradientTransform="matrix(1.1664 0 0 1.1664 642.2319 819.0748)">
			<stop  offset="0" style="stop-color:#1D2C5F"/>
			<stop  offset="1" style="stop-color:#0071B8"/>
		</linearGradient>
		<polygon fill="url(#SVGID_7_)" stroke="#FFFFFF" stroke-width="15" stroke-linecap="round" stroke-linejoin="round" points="
			30.002,11.66 40.408,6.121 31.886,12.951 19.771,19.403 		"/>
		
			<linearGradient id="SVGID_8_" gradientUnits="userSpaceOnUse" x1="-291.8579" y1="-553.2329" x2="-295.2614" y2="-726.7933" gradientTransform="matrix(1.1664 0 0 1.1664 648.2095 821.6998)">
			<stop  offset="0" style="stop-color:#1D2C5F"/>
			<stop  offset="1" style="stop-color:#0071B8"/>
		</linearGradient>
		<polygon fill="url(#SVGID_8_)" stroke="#FFFFFF" stroke-width="15" stroke-linecap="round" stroke-linejoin="round" points="
			301.458,160.984 313.292,154.646 313.695,170.532 301.811,176.809 		"/>
		
			<linearGradient id="SVGID_9_" gradientUnits="userSpaceOnUse" x1="-287.6279" y1="-732.9019" x2="-306.686" y2="-701.5916" gradientTransform="matrix(1.1664 0.0097 -0.0097 1.1664 609.6683 857.4456)">
			<stop  offset="0" style="stop-color:#1D2C5F"/>
			<stop  offset="1" style="stop-color:#0071B8"/>
		</linearGradient>
		<polygon fill="url(#SVGID_9_)" stroke="#FFFFFF" stroke-width="15" stroke-linecap="round" stroke-linejoin="round" points="
			265.864,36.304 277.868,30.096 277.299,-5.977 265.432,0.581 		"/>
		<polygon fill="#302370" stroke="#FFFFFF" stroke-width="15" stroke-linecap="round" stroke-linejoin="round" points="
			262.597,155.395 274.471,149.139 287.518,32.337 275.716,38.578 		"/>
		
			<linearGradient id="SVGID_10_" gradientUnits="userSpaceOnUse" x1="-308.187" y1="-552.8594" x2="-311.5923" y2="-726.5151" gradientTransform="matrix(1.1664 0 0 1.1664 647.8452 821.8453)">
			<stop  offset="0" style="stop-color:#1D2C5F"/>
			<stop  offset="1" style="stop-color:#0071B8"/>
		</linearGradient>
		<polygon fill="url(#SVGID_10_)" stroke="#FFFFFF" stroke-width="15" stroke-linecap="round" stroke-linejoin="round" points="
			301.458,160.984 313.292,154.646 274.471,149.139 262.597,155.395 		"/>
		
			<linearGradient id="SVGID_11_" gradientUnits="userSpaceOnUse" x1="-367.707" y1="-560.8164" x2="-374.5119" y2="-725.4702" gradientTransform="matrix(1.1664 0 0 1.1664 643.7622 817.1793)">
			<stop  offset="0" style="stop-color:#1D2C5F"/>
			<stop  offset="1" style="stop-color:#0071B8"/>
		</linearGradient>
		<polygon fill="url(#SVGID_11_)" stroke="#FFFFFF" stroke-width="15" stroke-linecap="round" stroke-linejoin="round" points="
			237.875,160.104 249.592,153.653 191.111,143.34 179.206,149.716 		"/>
		
			<linearGradient id="SVGID_12_" gradientUnits="userSpaceOnUse" x1="-394.1333" y1="-552.8398" x2="-397.5359" y2="-726.3567" gradientTransform="matrix(1.1664 0 0 1.1664 644.0542 816.5963)">
			<stop  offset="0" style="stop-color:#1D2C5F"/>
			<stop  offset="1" style="stop-color:#0071B8"/>
		</linearGradient>
		<polygon fill="url(#SVGID_12_)" stroke="#FFFFFF" stroke-width="15" stroke-linecap="round" stroke-linejoin="round" points="
			179.206,149.716 191.111,143.34 188.063,117.241 176.063,123.689 		"/>
		
			<linearGradient id="SVGID_13_" gradientUnits="userSpaceOnUse" x1="-407.8945" y1="-552.5586" x2="-411.2982" y2="-726.1313" gradientTransform="matrix(1.1664 0 0 1.1664 643.9565 816.5963)">
			<stop  offset="0" style="stop-color:#1D2C5F"/>
			<stop  offset="1" style="stop-color:#0071B8"/>
		</linearGradient>
		<polygon fill="url(#SVGID_13_)" stroke="#FFFFFF" stroke-width="15" stroke-linecap="round" stroke-linejoin="round" points="
			167.986,139.468 179.826,132.952 166.56,108.24 154.662,114.859 		"/>
		
			<linearGradient id="SVGID_14_" gradientUnits="userSpaceOnUse" x1="-437.854" y1="-558.1372" x2="-444.6634" y2="-722.8987" gradientTransform="matrix(1.1664 0 0 1.1664 644.1509 816.402)">
			<stop  offset="0" style="stop-color:#1D2C5F"/>
			<stop  offset="1" style="stop-color:#0071B8"/>
		</linearGradient>
		<polygon fill="url(#SVGID_14_)" stroke="#FFFFFF" stroke-width="15" stroke-linecap="round" stroke-linejoin="round" points="
			151.75,133.12 163.491,126.799 111.982,118.661 100.114,124.842 		"/>
		
			<linearGradient id="SVGID_15_" gradientUnits="userSpaceOnUse" x1="-459.9868" y1="-650.2769" x2="-407.5777" y2="-655.041" gradientTransform="matrix(1.1664 0 0 1.1664 644.1509 816.402)">
			<stop  offset="0" style="stop-color:#1D2C5F"/>
			<stop  offset="1" style="stop-color:#0071B8"/>
		</linearGradient>
		<polygon fill="url(#SVGID_15_)" stroke="#FFFFFF" stroke-width="15" stroke-linecap="round" stroke-linejoin="round" points="
			100.114,124.842 111.982,118.661 133.095,-10.635 121.325,-4.145 		"/>
		
			<linearGradient id="SVGID_16_" gradientUnits="userSpaceOnUse" x1="-535.3901" y1="-690.9609" x2="-450.9976" y2="-748.811" gradientTransform="matrix(1.1664 0 0 1.1664 649.7886 815.236)">
			<stop  offset="0" style="stop-color:#1D2C5F"/>
			<stop  offset="1" style="stop-color:#0071B8"/>
		</linearGradient>
		<polygon fill="url(#SVGID_16_)" stroke="#FFFFFF" stroke-width="15" stroke-linecap="round" stroke-linejoin="round" points="
			39.31,6.621 51.297,0.48 42.99,-9.801 30.792,-3.453 		"/>
		
			<linearGradient id="SVGID_17_" gradientUnits="userSpaceOnUse" x1="-372.6055" y1="-712.4683" x2="-376.0093" y2="-886.0481" gradientTransform="matrix(1.1651 0.056 -0.056 1.1651 415.9688 1029.2699)">
			<stop  offset="0" style="stop-color:#1D2C5F"/>
			<stop  offset="1" style="stop-color:#0071B8"/>
		</linearGradient>
		<polygon fill="url(#SVGID_17_)" stroke="#FFFFFF" stroke-width="15" stroke-linecap="round" stroke-linejoin="round" points="
			-30.73,111.65 -18.94,105.227 76.839,152.655 64.934,159.037 		"/>
		
			<linearGradient id="SVGID_18_" gradientUnits="userSpaceOnUse" x1="-563.2192" y1="-726.6729" x2="-575.4695" y2="-698.7699" gradientTransform="matrix(1.1664 0 0 1.1664 643.4224 819.0748)">
			<stop  offset="0" style="stop-color:#1D2C5F"/>
			<stop  offset="1" style="stop-color:#0071B8"/>
		</linearGradient>
		<polygon fill="url(#SVGID_18_)" stroke="#FFFFFF" stroke-width="15" stroke-linecap="round" stroke-linejoin="round" points="
			-36.251,10.176 -24.245,3.616 -9.858,-23.759 -21.772,-17.314 		"/>
		
			<linearGradient id="SVGID_19_" gradientUnits="userSpaceOnUse" x1="-538.8818" y1="-601.8604" x2="-542.2849" y2="-775.3986" gradientTransform="matrix(1.1663 0.0182 -0.0182 1.1663 569.8864 884.0895)">
			<stop  offset="0" style="stop-color:#1D2C5F"/>
			<stop  offset="1" style="stop-color:#0071B8"/>
		</linearGradient>
		<polygon fill="url(#SVGID_19_)" stroke="#FFFFFF" stroke-width="15" stroke-linecap="round" stroke-linejoin="round" points="
			-76.646,159.51 -64.587,153.146 -18.824,146.354 -30.994,152.785 		"/>
		
			<linearGradient id="SVGID_20_" gradientUnits="userSpaceOnUse" x1="-547.269" y1="-671.729" x2="-594.2178" y2="-661.5226" gradientTransform="matrix(1.1663 0.0182 -0.0182 1.1663 569.8864 884.0895)">
			<stop  offset="0" style="stop-color:#1D2C5F"/>
			<stop  offset="1" style="stop-color:#0071B8"/>
		</linearGradient>
		<polygon fill="url(#SVGID_20_)" stroke="#FFFFFF" stroke-width="15" stroke-linecap="round" stroke-linejoin="round" points="
			-76.646,159.51 -64.587,153.146 -76.048,29.991 -87.8,36.342 		"/>
		
			<linearGradient id="SVGID_21_" gradientUnits="userSpaceOnUse" x1="-633.6055" y1="-710.5244" x2="-632.2452" y2="-663.5695" gradientTransform="matrix(1.1664 0 0 1.1664 644.3452 818.5162)">
			<stop  offset="0" style="stop-color:#1D2C5F"/>
			<stop  offset="1" style="stop-color:#0071B8"/>
		</linearGradient>
		<polygon fill="url(#SVGID_21_)" stroke="#FFFFFF" stroke-width="15" stroke-linecap="round" stroke-linejoin="round" points="
			-99.006,39.182 -87.027,32.837 -88.779,-1.994 -100.685,4.453 		"/>
		
			<linearGradient id="SVGID_22_" gradientUnits="userSpaceOnUse" x1="-832.5352" y1="-423.8066" x2="-835.9382" y2="-597.3476" gradientTransform="matrix(1.1656 -0.0446 0.0446 1.1656 811.668 638.7062)">
			<stop  offset="0" style="stop-color:#1D2C5F"/>
			<stop  offset="1" style="stop-color:#0071B8"/>
		</linearGradient>
		<polygon fill="url(#SVGID_22_)" stroke="#FFFFFF" stroke-width="15" stroke-linecap="round" stroke-linejoin="round" points="
			-195.896,186.725 -207.833,194.7 -159.406,179.104 -147.309,171.243 		"/>
		
			<linearGradient id="SVGID_23_" gradientUnits="userSpaceOnUse" x1="-869.8018" y1="-462.7627" x2="-911.9999" y2="-580.5121" gradientTransform="matrix(1.1656 -0.0446 0.0446 1.1656 809.5293 639.4836)">
			<stop  offset="0" style="stop-color:#1D2C5F"/>
			<stop  offset="1" style="stop-color:#0071B8"/>
		</linearGradient>
		<polygon fill="url(#SVGID_23_)" stroke="#FFFFFF" stroke-width="15" stroke-linecap="round" stroke-linejoin="round" points="
			-248.875,68.598 -258.79,79.137 -207.833,194.7 -195.896,186.725 		"/>
		
			<linearGradient id="SVGID_24_" gradientUnits="userSpaceOnUse" x1="-1204.8691" y1="-94.4971" x2="-1238.2195" y2="-223.1329" gradientTransform="matrix(1.1524 -0.1803 0.1803 1.1524 1299.4091 53.6401)">
			<stop  offset="0" style="stop-color:#1D2C5F"/>
			<stop  offset="1" style="stop-color:#0071B8"/>
		</linearGradient>
		<path fill="url(#SVGID_24_)" stroke="#FFFFFF" stroke-width="15" stroke-linecap="round" stroke-linejoin="round" d="
			M-119.28,147.643c-12.513-3.626-22.557-12.305-28.267-24.452c-2.927-6.19-5.58-20.074-5.726-26.946
			c-2.726,3.143-8.265,6.524-12.232,8.456c0,0,2.609,13.591,5.975,23.105c3.361,9.515,11.38,17.207,11.38,17.207
			c5.149,4.984,11.418,8.641,18.479,10.684c13.513,3.915,28.791,1.373,41.896-6.962c3.415-2.185,8.104-5.66,10.951-8.431
			C-89.721,148.163-106.098,151.451-119.28,147.643z"/>
		
			<linearGradient id="SVGID_25_" gradientUnits="userSpaceOnUse" x1="-625.0244" y1="-547.7539" x2="-628.4263" y2="-721.2358" gradientTransform="matrix(1.1664 0 0 1.1664 644.3452 818.5162)">
			<stop  offset="0" style="stop-color:#1D2C5F"/>
			<stop  offset="1" style="stop-color:#0071B8"/>
		</linearGradient>
		<polygon fill="url(#SVGID_25_)" stroke="#FFFFFF" stroke-width="15" stroke-linecap="round" stroke-linejoin="round" points="
			-99.006,39.182 -87.8,36.342 -76.048,29.991 -87.027,32.837 		"/>
		
			<linearGradient id="SVGID_26_" gradientUnits="userSpaceOnUse" x1="-765.1011" y1="-544.1313" x2="-768.5052" y2="-717.7261" gradientTransform="matrix(1.1664 0 0 1.1664 634.7955 821.3112)">
			<stop  offset="0" style="stop-color:#1D2C5F"/>
			<stop  offset="1" style="stop-color:#0071B8"/>
		</linearGradient>
		<polygon fill="url(#SVGID_26_)" stroke="#FFFFFF" stroke-width="15" stroke-linecap="round" stroke-linejoin="round" points="
			-270.684,84.237 -260.921,74.331 -248.875,68.598 -258.79,79.137 		"/>
		<g>
			
				<linearGradient id="SVGID_27_" gradientUnits="userSpaceOnUse" x1="-86.4873" y1="-813.8027" x2="-89.8889" y2="-987.2668" gradientTransform="matrix(1.1632 0.0872 -0.0872 1.1632 288.5588 1131.6637)">
				<stop  offset="0" style="stop-color:#1D2C5F"/>
				<stop  offset="1" style="stop-color:#0071B8"/>
			</linearGradient>
			<path fill="url(#SVGID_27_)" stroke="#FFFFFF" stroke-width="15" stroke-linecap="round" stroke-linejoin="round" d="
				M246.282,133.65l0.674,5.693c4.161-0.49,8.57-1.037,12.297-2.344c4.373-1.513,13.85-5.7,17.456-8.863
				c-1.32,0.499-7.738,3.471-9.116,3.887C260.516,134.135,253.13,134.396,246.282,133.65z"/>
		</g>
		<g>
			
				<linearGradient id="SVGID_28_" gradientUnits="userSpaceOnUse" x1="-877.8428" y1="-1094.2114" x2="-881.2462" y2="-1267.7673" gradientTransform="matrix(1.3092 -0.0232 0.0215 1.4152 1271.7667 1709.301)">
				<stop  offset="0" style="stop-color:#1D2C5F"/>
				<stop  offset="1" style="stop-color:#0071B8"/>
			</linearGradient>
			<path fill="url(#SVGID_28_)" stroke="#FFFFFF" stroke-width="15" stroke-linecap="round" stroke-linejoin="round" d="
				M76.628,106.766l0.188,6.52c9.782-1.434,18.194-5.078,26.471-10.039c5.169-3.103,10.908-7.773,12.676-9.016
				c-1.268,0.809-2.551,1.293-3.868,2.024C104.423,100.459,83.908,106.646,76.628,106.766z"/>
		</g>
		<path fill="#FFCA05" stroke="#FFFFFF" stroke-width="15" stroke-linecap="round" stroke-linejoin="round" d="M352.081,10.681
			l-5.231,21.543l-4.821-23.875L277.362-5.874l0.479,35.939l9.724,2.169l-0.715,6.495c-0.1-0.044-0.199-0.099-0.289-0.151
			c-12.048-6.397-27.026-7.034-41.134-1.717c-4.708,1.799-9.101,4.211-13.101,7.062l-9.73-61.562h-43.005l-1.194,7.054h-45.253
			l-5.182,31.692l-3.762-4.63c-10.96-13.5-26.857-20.926-44.46-21.3l38.404-20.638L91.358-65.459L42.938-9.671l8.376,10.216
			c-7.605,3.093-14.206,7.337-19.66,12.494L-9.848-23.786L-24.392,4.035l0.566-26.716L-88.745-1.974l1.651,34.897l11.046-2.884
			l1.645,17.691c-12.604-5.664-27.758-5.555-41.834,0.408c-4.16,1.793-8.064,4.034-11.653,6.632
			c2.439-10.766,1.86-21.392-2.229-30.847c-4.854-11.174-13.375-20.42-23.824-26.257c-7.317-4.874-16.059-7.919-25.21-8.95
			c-22.441-3.938-49.412,0.113-75.947,11.393c-9.746,4.152-18.864,8.899-27.062,14.123l-10.382,6.603l6.26,10.58l19.44,32.841
			c0,0,5.97,10.084,6.001,10.076l10.529-5.159l1.455-0.704l48.295,107.842l4.653,10.366l10.817-3.456l26.151-8.366l11.455-3.665
			l-3.037-11.631l-13.882-53.329c4.014-2.95,7.729-6.085,11.168-9.381c-0.768,6.385-0.372,12.82,1.369,18.997
			c3.632,12.919,12.102,23.143,23.849,28.781c12.681,6.09,28.161,6.115,42.478,0.044c7.177-3.065,13.574-7.477,18.967-12.794
			l1.979,21.216l45.768-6.725l-0.056-41.068l95.664,47.313v-45.809c3.866-0.314,7.768-0.908,11.706-1.862
			c10.544-2.545,19.54-6.053,27.548-10.838l-4.024,24.573l51.583,8.131l2.86-18.581l13.466,24.894l8.219-15.864l2.995,26.044
			l58.492,10.32l-3.105-19.686c8.007,0.896,16.45-0.153,24.598-3.224c1.95-0.734,3.853-1.598,5.683-2.533l-2.352,20.961
			l38.925,5.451l0.324,15.962l40.562,12.757l52.86-159.27L352.081,10.681z M2.302,59.654l12.291-11.929
			c-0.525,5.493-0.25,11.218,0.905,17.046L2.302,59.654z M122.987,51.545l-8.438-7.593l9.012-9.612l2.705-2.873L122.987,51.545z
			 M-177.739,70.54l-1.834,1.648l-0.741-2.364l-7.48-24.442l-0.504-1.678l1.73-0.325c3.914-0.723,7.579-0.339,10.597,1.094
			c1.812,0.862,4.975,2.899,5.71,6.836C-168.859,58.835-171.092,64.586-177.739,70.54z M59.797,54.328l-1.413,1.619l-1.043-1.888
			c-3.317-6.042-2.413-13.503,2.226-18.587c4.504-4.911,11.447-6.542,17.665-4.131l2.025,0.777l-1.427,1.622L59.797,54.328z"/>
		<path fill="#7D8069" stroke="#FFFFFF" stroke-width="15" stroke-linecap="round" stroke-linejoin="round" d="M98.96,58.369
			c-0.145,0.179-0.292,0.354-0.46,0.54c0.19-0.156,0.377-0.305,0.556-0.461L98.96,58.369z"/>
		<polygon fill="#7D8069" stroke="#FFFFFF" stroke-width="15" stroke-linecap="round" stroke-linejoin="round" points="
			117.275,57.262 118.826,47.797 122.987,51.545 114.548,43.952 123.56,34.34 120.479,37.625 120.557,37.173 117.849,40.057 
			108.839,49.664 		"/>
		<polygon fill="#7D8069" stroke="#FFFFFF" stroke-width="15" stroke-linecap="round" stroke-linejoin="round" points="
			122.987,51.545 126.265,31.467 123.56,34.34 114.548,43.952 		"/>
		<polygon fill="#7D8069" stroke="#FFFFFF" stroke-width="15" stroke-linecap="round" stroke-linejoin="round" points="
			2.302,59.654 2.427,59.703 2.427,59.703 		"/>
		<g>
			<path fill="#C79F08" stroke="#FFFFFF" stroke-width="15" stroke-linecap="round" stroke-linejoin="round" d="M52.201,68.028
				c0.735,0.741,0.057,0.183,0.886,0.759l5.52-3.895c-0.829-0.581-1.644-1.196-2.398-1.885c-7.983-7.302-5.93-23.686-0.699-32.67
				C41.832,41.365,42.552,58.312,52.201,68.028z"/>
			<g>
				<path fill="#C79F08" stroke="#FFFFFF" stroke-width="15" stroke-linecap="round" stroke-linejoin="round" d="M118.792,77.202
					c-9.092,7.516-19.475,12.431-33.218,15.746c-2.975,0.72-5.926,1.203-8.797,1.484c-21.784,2.116-40.037-7.897-46.994-24.106
					c-0.834-1.944-1.508-3.974-2.001-6.072c-3.217-13.679-0.491-25.878,6.268-35.438c0.648-0.928,1.354-1.817,2.089-2.699
					c-0.322,0.271-0.655,0.539-0.971,0.823c-2.583,2.284-4.872,4.824-6.828,7.591c-6.767,9.565-9.494,21.752-6.274,35.444
					c0.498,2.099,1.17,4.121,1.994,6.051c6.964,16.214,25.212,26.235,46.996,24.116c2.883-0.284,5.819-0.757,8.809-1.484
					c13.739-3.307,24.118-8.224,33.214-15.757c2.23-1.832,4.38-3.826,6.479-5.997l-0.214-0.189
					C119.159,76.872,118.985,77.042,118.792,77.202z"/>
				<polygon fill="#C79F08" stroke="#FFFFFF" stroke-width="15" stroke-linecap="round" stroke-linejoin="round" points="
					-10.345,1.74 -11.327,0.808 -34.8,33.776 -34.672,35.914 				"/>
				<polygon fill="#C79F08" stroke="#FFFFFF" stroke-width="15" stroke-linecap="round" stroke-linejoin="round" points="
					120.557,37.173 120.479,37.625 123.56,34.34 126.265,31.467 122.987,51.545 118.826,47.797 117.275,57.262 108.839,49.664 
					117.849,40.057 				"/>
				<polygon fill="#C79F08" stroke="#FFFFFF" stroke-width="15" stroke-linecap="round" stroke-linejoin="round" points="
					103.449,-28.439 89.286,-47.687 84.026,-41.353 96.185,-24.836 				"/>
				<path fill="#C79F08" stroke="#FFFFFF" stroke-width="15" stroke-linecap="round" stroke-linejoin="round" d="M-141.783,28.979
					c-3.839-8.883-10.496-15.849-19.191-20.731c-6.312-4.209-13.558-6.245-20.375-7.018c-19.34-3.392-43.457-0.194-68.768,10.566
					c-9.026,3.837-17.487,8.221-25.237,13.145l1.004,1.698c5.85-3.318,12.024-6.372,18.515-9.116
					c25.311-10.788,49.427-13.971,68.776-10.58c6.808,0.777,14.055,2.813,20.365,7.013c8.717,4.891,15.345,11.849,19.197,20.735
					c6.853,15.792,0.803,36.735-15.341,54.299C-142.583,70.429-134.177,46.526-141.783,28.979z"/>
				<path fill="#C79F08" stroke="#FFFFFF" stroke-width="15" stroke-linecap="round" stroke-linejoin="round" d="M-59.457,80.505
					c-0.18-0.88-0.39-1.754-0.625-2.62c-2.253-7.971-6.991-14.301-13.239-18.543c-10.11-6.861-24.184-8.272-38.215-2.327
					c-7.388,3.174-13.826,8.079-18.899,13.975c3.909-3.355,8.335-6.172,13.182-8.253c14.025-5.947,28.111-4.545,38.211,2.312
					c6.254,4.25,10.993,10.579,13.243,18.559c0.239,0.854,0.445,1.733,0.63,2.612c0.624,3.039,0.877,6.132,0.77,9.227
					c-0.299,9.216-3.692,18.447-9.362,26.31c-0.879,1.216-1.843,2.396-2.827,3.544c3.208-2.761,6.094-5.882,8.539-9.262
					c5.67-7.86,9.063-17.095,9.369-26.296C-58.573,86.636-58.826,83.537-59.457,80.505z"/>
				<path fill="#C79F08" stroke="#FFFFFF" stroke-width="15" stroke-linecap="round" stroke-linejoin="round" d="M-98.185,68.804
					c-0.065,0.082,5.701-5.733,5.634-5.738c-7.201-0.246-10.248,6.547-10.494,7.078C-101.572,69.433-99.936,68.955-98.185,68.804z"
					/>
				<path fill="#C79F08" stroke="#FFFFFF" stroke-width="15" stroke-linecap="round" stroke-linejoin="round" d="M-84.62,77.113
					c0.291,0.948,0.466,1.955,0.466,2.991c0,1.513-0.341,2.945-0.942,4.263c1.143-0.562,9.464-4.618,6.226-13.194
					C-78.674,71.458-84.811,77.1-84.62,77.113z"/>
				<path fill="#C79F08" stroke="#FFFFFF" stroke-width="15" stroke-linecap="round" stroke-linejoin="round" d="M-117.392,81.878
					c0-3.545,6.026-12.064,7.911-14.937c-9.528,6.067-13.627,14.244-13.627,20.651c0,11.08,9.685,19.935,21.274,19.935
					c5.5,0,15.528-2.903,22.077-13.546c-3.421,2.264-12.175,7.7-16.755,7.7C-108.11,101.681-117.392,92.948-117.392,81.878z"/>
				<polygon fill="#C79F08" stroke="#FFFFFF" stroke-width="15" stroke-linecap="round" stroke-linejoin="round" points="
					-35.692,136.591 -29.959,135.803 -29.998,86.123 -35.84,91.973 				"/>
				<polygon fill="#C79F08" stroke="#FFFFFF" stroke-width="15" stroke-linecap="round" stroke-linejoin="round" points="
					-40.292,43.714 -34.703,35.869 -37.076,-4.755 -76.531,6.987 -76.336,10.945 -42.789,0.953 				"/>
				<g>
					<polygon fill="#C79F08" stroke="#FFFFFF" stroke-width="15" stroke-linecap="round" stroke-linejoin="round" points="
						-5.618,-4.909 -10.345,1.74 17.416,27.791 22.791,22.124 					"/>
					<path fill="#C79F08" stroke="#FFFFFF" stroke-width="15" stroke-linecap="round" stroke-linejoin="round" d="M38.892,98.279
						c-7.999-4.915-14.327-11.655-18.51-19.547L-16.83,64.009l-5.394,5.688l36.884,14.755c4.194,7.891,10.522,14.62,18.517,19.544
						c7.725,4.752,16.539,7.589,25.908,8.467v18.226l5.72,2.854v-26.791C55.426,105.875,46.609,103.033,38.892,98.279z"/>
				</g>
				<g>
					<path fill="#C79F08" stroke="#FFFFFF" stroke-width="15" stroke-linecap="round" stroke-linejoin="round" d="M79.638,71.086
						C88.757,68.9,93.996,64.161,98.5,58.909c-3.396,2.799-7.538,5.112-13.138,6.464c-3.14,0.764-7.377,1.456-10.075,0.98
						l-5.61,5.983C72.239,72.546,76.507,71.839,79.638,71.086z"/>
					<path fill="#C79F08" stroke="#FFFFFF" stroke-width="15" stroke-linecap="round" stroke-linejoin="round" d="M64.57,9.173
						c-9.198,2.224-17.324,6.381-23.682,12.044c-1.724,1.531-3.299,3.173-4.749,4.901c6.225-5.242,13.973-9.122,22.713-11.226
						c20.764-4.999,39.039,1.337,50.327,15.336l5.604-5.97C103.617,10.515,85.341,4.174,64.57,9.173z"/>
				</g>
				<path fill="#C79F08" stroke="#FFFFFF" stroke-width="15" stroke-linecap="round" stroke-linejoin="round" d="M119.343,76.716
					c2.031-1.714,4.001-3.54,5.942-5.518l-4.807-4.317l-15.794-14.227c-1.721,2.038-3.539,4.009-5.629,5.794l15.707,14.137
					L119.343,76.716z"/>
				<path fill="#C79F08" stroke="#FFFFFF" stroke-width="15" stroke-linecap="round" stroke-linejoin="round" d="M233.783,130.629
					c-1.162-0.49-2.311-1.027-3.438-1.615c-11.043-5.875-18.787-16.011-21.763-28.555c-3.866-16.219,1.728-33.916,13.318-47.101
					l-9.106-59.077h-21.888l-1.018,5.717h17.196l9.09,59.082c-11.575,13.184-17.181,30.88-13.313,47.096
					c2.99,12.54,10.727,22.679,21.762,28.548c1.129,0.598,2.276,1.125,3.45,1.615l0.136,0.908l6.758,1.032L233.783,130.629z"/>
				<polygon fill="#C79F08" stroke="#FFFFFF" stroke-width="15" stroke-linecap="round" stroke-linejoin="round" points="
					176.584,48.483 182.302,42.69 174.661,0.952 144.026,0.952 143.065,6.67 168.947,6.67 				"/>
				<polygon fill="#C79F08" stroke="#FFFFFF" stroke-width="15" stroke-linecap="round" stroke-linejoin="round" points="
					179.999,103.689 181.904,107.808 194.026,76.42 188.345,82.099 				"/>
				<polygon fill="#C79F08" stroke="#FFFFFF" stroke-width="15" stroke-linecap="round" stroke-linejoin="round" points="
					157.789,74.26 151.615,113.221 156.29,114.034 163.539,68.503 				"/>
				<path fill="#C79F08" stroke="#FFFFFF" stroke-width="15" stroke-linecap="round" stroke-linejoin="round" d="M279.819,56.038
					c3.388,2.428,6.258,5.495,8.477,9.124c1.686,2.789,2.995,5.912,3.814,9.335c2.824,11.768-0.562,24.399-7.99,34.587
					c-0.745,1.039-1.551,2.033-2.384,3.021c3.036-2.604,5.775-5.551,8.093-8.739c7.442-10.18,10.819-22.814,8.002-34.587
					c-0.831-3.419-2.132-6.534-3.831-9.333c-2.202-3.629-5.066-6.691-8.459-9.114c-9.327-6.678-22.489-8.431-35.869-3.399
					c-5.737,2.196-10.934,5.478-15.385,9.483c-1.635,1.475-3.132,3.071-4.557,4.725c4.18-3.551,8.975-6.482,14.215-8.484
					C257.326,47.603,270.494,49.376,279.819,56.038z"/>
				<path fill="#C79F08" stroke="#FFFFFF" stroke-width="15" stroke-linecap="round" stroke-linejoin="round" d="M259.9,58.584
					c0.098,0.265,5.658-5.755,5.782-5.758c-7.026,0.28-10.412,3.663-10.062,5.264c-0.401,0.571-0.767,1.196-1.049,1.833
					C256.089,59.193,258.856,58.638,259.9,58.584z"/>
				<path fill="#C79F08" stroke="#FFFFFF" stroke-width="15" stroke-linecap="round" stroke-linejoin="round" d="M273.118,67.433
					c0.253,0.973,0.378,1.974,0.341,3.013c-0.058,1.33-0.387,2.604-0.908,3.771c1.055-0.508,9.549-3.126,6.329-12.499
					C278.958,61.965,273.02,67.459,273.118,67.433z"/>
				<path fill="#C79F08" stroke="#FFFFFF" stroke-width="15" stroke-linecap="round" stroke-linejoin="round" d="M254.428,97.249
					c7.971,0.312,16.754-4.597,23.064-13.244c-3.654,2.404-12.589,7.462-17.478,7.256c-11.593-0.467-20.511-9.567-20.057-20.629
					c0.119-3.238,4.326-10.221,6.037-12.852c-6.115,4.452-11.508,12.96-11.758,18.966C233.783,87.806,242.838,96.772,254.428,97.249
					z"/>
				<polygon fill="#C79F08" stroke="#FFFFFF" stroke-width="15" stroke-linecap="round" stroke-linejoin="round" points="
					359.73,24.53 358.138,31.164 386.102,37.353 343.156,167.471 346.643,168.504 391.826,31.638 				"/>
				<polygon fill="#C79F08" stroke="#FFFFFF" stroke-width="15" stroke-linecap="round" stroke-linejoin="round" points="
					339.487,90.551 345.232,84.754 331.005,17.565 288.837,9.09 288.461,15.879 325.301,23.285 				"/>
				<polygon fill="#C79F08" stroke="#FFFFFF" stroke-width="15" stroke-linecap="round" stroke-linejoin="round" points="
					306.368,142.162 310.939,142.885 322.274,79.133 316.523,84.789 				"/>
				<polygon fill="#C79F08" stroke="#FFFFFF" stroke-width="15" stroke-linecap="round" stroke-linejoin="round" points="
					-178.884,100.709 -185.198,105.134 -169.22,164.997 -162.197,163.825 				"/>
				<path fill="#C79F08" stroke="#FFFFFF" stroke-width="15" stroke-linecap="round" stroke-linejoin="round" d="M-166.114,69.259
					c-3.995,4.214-12.789,12.413-17.825,15.645l-3.04-9.782l-6.685-21.48l-4.249-14.528l-4.149,5.338l4.25,14.516l6.671,21.48
					l3.046,9.794C-181.225,85.812-171.222,77.501-166.114,69.259z"/>
			</g>
		</g>
		<path fill="#7D8069" stroke="#FFFFFF" stroke-width="15" stroke-linecap="round" stroke-linejoin="round" d="M78.079,32.305
			c-5.444-2.104-13.145-1.482-17.317,3.085c-0.964,1.057-2.81,3.727-3.412,4.961c4.006-3.203,11.194-3.886,15.871-2.203
			L78.079,32.305z"/>
		<path fill="#7D8069" stroke="#FFFFFF" stroke-width="15" stroke-linecap="round" stroke-linejoin="round" d="M-171.106,51.708
			c-0.602-3.243-3.736-5.783-5.287-6.503c-2.774-1.314-7.525-1.53-11.019-0.882c0.629,2.169,1.354,4.715,1.653,5.729
			c1.408,0.195,3.731,0.607,4.957,1.184c1.534,0.73,4.22,2.451,4.82,5.695c0.808,4.325,0.607,8.337-1.185,11.643
			C-172.24,63.727-169.837,58.436-171.106,51.708z"/>
		<g>
			<defs>
				<path id="SVGID_29_" d="M85.416,30.356c-8.661-7.924-22.106-7.322-30.044,1.336c-7.921,8.68-7.32,22.124,1.345,30.045
					c0.727,0.659,1.493,1.233,2.266,1.779l27.936-31.642C86.45,31.354,85.952,30.845,85.416,30.356z"/>
			</defs>
			<clipPath id="SVGID_30_">
				<use xlink:href="#SVGID_29_"  overflow="visible"/>
			</clipPath>
			
				<use xlink:href="#SVGID_29_"  overflow="visible" fill="none" stroke="#FFFFFF" stroke-width="15" stroke-linecap="round" stroke-linejoin="round"/>
		</g>
		<g>
			<defs>
				<path id="SVGID_31_" d="M-163.353,50.226c-2.233-11.945-17.852-18.551-33.374-10.105l4.003,13.675l6.29,20.226l2.866,9.21
					C-171.947,75.752-160.252,66.773-163.353,50.226z"/>
			</defs>
			<clipPath id="SVGID_32_">
				<use xlink:href="#SVGID_31_"  overflow="visible"/>
			</clipPath>
			
				<use xlink:href="#SVGID_31_"  overflow="visible" fill="none" stroke="#FFFFFF" stroke-width="15" stroke-linecap="round" stroke-linejoin="round"/>
		</g>
		
			<linearGradient id="SVGID_33_" gradientUnits="userSpaceOnUse" x1="-833.8687" y1="-442.0913" x2="-835.8318" y2="-628.278" gradientTransform="matrix(1.1655 -0.0468 0.0468 1.1655 817.9471 629.4583)">
			<stop  offset="0" style="stop-color:#3B5AA6"/>
			<stop  offset="1" style="stop-color:#2A75BA"/>
		</linearGradient>
		<path fill="url(#SVGID_33_)" stroke="#FFFFFF" stroke-width="15" stroke-linecap="round" stroke-linejoin="round" d="
			M-162.462,51.612c-2.375-12.694-18.963-19.706-35.45-10.729l4.249,14.528l6.685,21.46l3.04,9.804
			C-171.59,78.717-159.167,69.19-162.462,51.612z M-178.798,71.125c-1.823-5.875-5.766-18.545-5.766-18.545
			c0.024,0.061-0.797-2.734-1.715-5.873c3.504-0.645,6.855-0.351,9.636,0.971c1.537,0.726,4.202,2.439,4.818,5.692
			C-170.454,60.661-172.946,65.869-178.798,71.125z"/>
		
			<linearGradient id="SVGID_34_" gradientUnits="userSpaceOnUse" x1="-426.1113" y1="-290.3267" x2="-428.0742" y2="-476.4903" gradientTransform="matrix(1.1074 -0.0346 0.0346 1.1074 554.597 445.8417)">
			<stop  offset="0" style="stop-color:#3B5AA6"/>
			<stop  offset="1" style="stop-color:#2A75BA"/>
		</linearGradient>
		<path fill="url(#SVGID_34_)" stroke="#FFFFFF" stroke-width="15" stroke-linecap="round" stroke-linejoin="round" d="
			M86.681,31.44c-9.198-8.419-23.487-7.78-31.909,1.413c-8.416,9.212-7.771,23.486,1.437,31.912
			c0.755,0.704,1.569,1.311,2.398,1.884l29.67-33.601C87.785,32.495,87.251,31.955,86.681,31.44z M58.657,55.099
			c-2.899-5.319-2.299-12.113,2.023-16.842c4.179-4.565,10.583-5.854,16.019-3.746L58.657,55.099z"/>
		<polygon fill="#1E2D60" stroke="#FFFFFF" stroke-width="15" stroke-linecap="round" stroke-linejoin="round" points="
			126.343,27.752 109.942,43.623 125.557,57.646 		"/>
		<g>
			
				<linearGradient id="SVGID_35_" gradientUnits="userSpaceOnUse" x1="-506.7964" y1="-171.2432" x2="-509.1274" y2="-392.3232" gradientTransform="matrix(1.1664 0 0 1.1664 650.1772 389.5045)">
				<stop  offset="0" style="stop-color:#3B5AA6"/>
				<stop  offset="1" style="stop-color:#2A75BA"/>
			</linearGradient>
			<path fill="url(#SVGID_35_)" stroke="#FFFFFF" stroke-width="15" stroke-linecap="round" stroke-linejoin="round" d="
				M352.081,10.681l-5.231,21.543l-4.821-23.875L277.362-5.874l0.479,35.939l9.724,2.169l-0.715,6.495
				c-0.1-0.044-0.199-0.099-0.289-0.151c-12.048-6.397-27.026-7.034-41.134-1.717c-4.708,1.799-9.101,4.211-13.101,7.062
				l-9.73-61.562h-43.005l-1.194,7.054h-45.253l-5.182,31.692l-3.762-4.63c-10.96-13.5-26.857-20.926-44.46-21.3l38.404-20.638
				L91.358-65.459L42.938-9.671l8.376,10.216c-7.605,3.093-14.206,7.337-19.66,12.494L-9.848-23.786L-24.392,4.035l0.566-26.716
				L-88.745-1.974l1.651,34.897l11.046-2.884l1.645,17.691c-12.604-5.664-27.758-5.555-41.834,0.408
				c-4.16,1.793-8.064,4.034-11.653,6.632c2.439-10.766,1.86-21.392-2.229-30.847c-4.854-11.174-13.375-20.42-23.824-26.257
				c-7.317-4.874-16.059-7.919-25.21-8.95c-22.441-3.938-49.412,0.113-75.947,11.393c-9.746,4.152-18.864,8.899-27.062,14.123
				l-10.382,6.603l6.26,10.58l19.44,32.841c0,0,5.97,10.084,6.001,10.076l10.529-5.159l1.455-0.704l48.295,107.842l4.653,10.366
				l10.817-3.456l26.151-8.366l11.455-3.665l-3.037-11.631l-13.882-53.329c4.014-2.95,7.729-6.085,11.168-9.381
				c-0.768,6.385-0.372,12.82,1.369,18.997c3.632,12.919,12.102,23.143,23.849,28.781c12.681,6.09,28.161,6.115,42.478,0.044
				c7.177-3.065,13.574-7.477,18.967-12.794l1.979,21.216l45.768-6.725l-0.056-41.068l95.664,47.313v-45.809
				c3.866-0.314,7.768-0.908,11.706-1.862c10.544-2.545,19.54-6.053,27.548-10.838l-4.024,24.573l51.583,8.131l2.86-18.581
				l13.466,24.894l8.219-15.864l2.995,26.044l58.492,10.32l-3.105-19.686c8.007,0.896,16.45-0.153,24.598-3.224
				c1.95-0.734,3.853-1.598,5.683-2.533l-2.352,20.961l38.925,5.451l0.324,15.962l40.562,12.757l52.86-159.27L352.081,10.681z
				 M123.56,34.34l2.705-2.873l-3.278,20.079l-8.438-7.593L123.56,34.34z M89.286-47.687l14.163,19.248l-40.5,20.063l-2.788-4.232
				L89.286-47.687z M15.498,64.772L2.302,59.654l12.291-11.929C14.068,53.219,14.342,58.943,15.498,64.772z M-178.957,100.75
				l16.147,62.005l-26.155,8.363l-53.687-119.887c-2.905,1.527-8.29,4.101-13.266,6.557l-19.437-32.847
				c7.75-4.924,16.211-9.308,25.237-13.145C-224.807,1.036-200.69-2.162-181.35,1.23c6.817,0.773,14.063,2.809,20.375,7.018
				c8.696,4.882,15.352,11.848,19.191,20.731C-132.441,50.53-148.062,81.672-178.957,100.75z M-68.049,116.037
				c-5.437,7.537-12.94,13.813-21.82,17.602c-22.704,9.622-45.399,0-51.461-21.522c-5.869-20.872,7.799-45.646,29.794-55.102
				c14.031-5.945,28.104-4.535,38.215,2.327c6.248,4.243,10.985,10.572,13.239,18.543c0.235,0.866,0.445,1.74,0.625,2.62
				c0.631,3.032,0.884,6.131,0.777,9.236C-58.986,98.942-62.378,108.177-68.049,116.037z M64.805,133.543L-30.13,86.065
				l0.171,49.737l-24.559,3.371l-1.727-20.544c7.6-12.99,10.374-28.313,6.386-42.325c-2.16-7.71-6.164-14.449-11.62-19.801
				l-3.524-41.826l-11.045,2.879l-0.483-10.57l39.455-11.742l2.404,40.668L-5.618-4.909l28.409,27.032l-39.697,41.854l37.289,14.755
				c4.183,7.892,10.511,14.632,18.51,19.547c7.717,4.754,16.534,7.596,25.913,8.473V133.543z M85.575,92.948
				c-2.975,0.72-5.926,1.203-8.797,1.484c-21.784,2.116-40.037-7.897-46.994-24.106c-0.834-1.944-1.508-3.974-2.001-6.072
				c-3.217-13.679-0.491-25.878,6.268-35.438c1.953-2.76,4.25-5.302,6.837-7.6c6.358-5.663,14.484-9.82,23.682-12.044
				c20.771-4.999,39.047,1.342,50.214,15.086L75.26,66.353c2.696,0.488,6.955-0.216,10.103-0.98
				c9.418-2.272,14.7-7.252,19.322-12.719l15.794,14.227l4.807,4.317c-2.108,2.162-4.271,4.149-6.493,6.004
				C109.701,84.718,99.318,89.633,85.575,92.948z M234.967,138.28l-32.323-4.936l-8.577-56.966l-12.163,31.429L163.69,68.543h-0.193
				l-7.207,45.491l-30.329-5.278l4.257-25.38c1.147-1.073,2.271-2.171,3.393-3.319l9.805-10.114l-9.514-8.572l10.125-60.419h30.635
				l7.646,41.817l8.601-48.487h21.888l9.106,59.077c-11.591,13.185-17.185,30.882-13.318,47.101
				c2.976,12.544,10.72,22.68,21.763,28.555c1.127,0.588,2.275,1.125,3.438,1.615L234.967,138.28z M267.316,120.688
				c-7.834,2.96-15.594,3.561-22.531,2.203c-4.814-0.956-9.236-2.844-13.058-5.587c-6.084-4.38-10.583-10.899-12.54-19.088
				c-2.338-9.801-0.192-20.309,5.072-29.447c2.63-4.54,6.028-8.75,10.027-12.356c4.451-4.005,9.647-7.287,15.385-9.483
				c13.38-5.032,26.542-3.279,35.869,3.399c3.393,2.423,6.257,5.485,8.459,9.114c1.699,2.799,3,5.914,3.831,9.333
				c2.817,11.773-0.56,24.408-8.002,34.587c-3.157,4.342-7.056,8.234-11.522,11.422
				C274.941,117.186,271.261,119.188,267.316,120.688z M346.643,168.504l-22.442-6.706l-1.957-82.729l-11.305,63.816l-24.491-3.894
				l1.753-18.396c15.991-13.508,24.477-34.801,19.843-54.116c-2.046-8.564-6.426-16.002-12.661-21.678l2.067-21.672l-9.254-2.476
				l0.642-11.563l42.168,8.475l14.201,67.275l14.523-60.31l32.096,7.107L346.643,168.504z"/>
			
				<linearGradient id="SVGID_36_" gradientUnits="userSpaceOnUse" x1="-333.5249" y1="-252.3252" x2="-333.9445" y2="-292.1244" gradientTransform="matrix(1.1664 0 0 1.1664 650.1772 389.5045)">
				<stop  offset="0" style="stop-color:#3B5AA6"/>
				<stop  offset="1" style="stop-color:#2A75BA"/>
			</linearGradient>
			<path fill="url(#SVGID_36_)" stroke="#FFFFFF" stroke-width="15" stroke-linecap="round" stroke-linejoin="round" d="
				M278.833,61.718c0.245,0.968,0.386,1.979,0.341,3.014c-0.257,6.262-6.169,11.116-13.21,10.829
				c-7.04-0.286-12.545-5.584-12.291-11.864c0.241-5.889,5.471-10.519,11.941-10.827c-1.236-0.26-2.521-0.449-3.841-0.501
				c-11.77-0.47-21.388,7.86-21.814,18.263c-0.454,11.062,8.464,20.162,20.057,20.629c11.771,0.482,21.391-7.858,21.84-18.931
				C282.011,68.494,280.894,64.837,278.833,61.718z"/>
			
				<linearGradient id="SVGID_37_" gradientUnits="userSpaceOnUse" x1="-639.8784" y1="-243.7939" x2="-640.29" y2="-282.8256" gradientTransform="matrix(1.1664 0 0 1.1664 650.1772 389.5045)">
				<stop  offset="0" style="stop-color:#3B5AA6"/>
				<stop  offset="1" style="stop-color:#2A75BA"/>
			</linearGradient>
			<path fill="url(#SVGID_37_)" stroke="#FFFFFF" stroke-width="15" stroke-linecap="round" stroke-linejoin="round" d="
				M-78.446,74.394c0,6.27-5.708,11.35-12.764,11.35c-7.046,0-12.76-5.08-12.76-11.35c0-5.9,5.042-10.732,11.499-11.304
				c-1.253-0.216-2.537-0.343-3.863-0.343c-11.777,0-21.058,8.728-21.058,19.131c0,11.07,9.281,19.803,20.879,19.803
				c11.786,0,21.061-8.732,21.061-19.803c0-3.848-1.284-7.449-3.452-10.478C-78.62,72.357-78.446,73.348-78.446,74.394z"/>
		</g>
	</g>
</g>
<g>
	<g>
		
			<linearGradient id="SVGID_38_" gradientUnits="userSpaceOnUse" x1="-922.9517" y1="-569.7529" x2="-906.619" y2="-497.6104" gradientTransform="matrix(1.1656 -0.0446 0.0446 1.1656 809.8936 639.2648)">
			<stop  offset="0" style="stop-color:#1D2C5F"/>
			<stop  offset="1" style="stop-color:#0071B8"/>
		</linearGradient>
		<polygon fill="url(#SVGID_38_)" points="-270.684,84.237 -260.921,74.331 -292.49,20.876 -302.347,30.803 		"/>
		
			<linearGradient id="SVGID_39_" gradientUnits="userSpaceOnUse" x1="-402.8853" y1="-719.6021" x2="-411.7302" y2="-688.302" gradientTransform="matrix(1.1664 0 0 1.1664 645.3901 820.2897)">
			<stop  offset="0" style="stop-color:#1D2C5F"/>
			<stop  offset="1" style="stop-color:#0071B8"/>
		</linearGradient>
		<polygon fill="url(#SVGID_39_)" points="166.529,-4.189 178.574,-10.629 179.802,-17.678 167.755,-11.199 		"/>
		
			<linearGradient id="SVGID_40_" gradientUnits="userSpaceOnUse" x1="-491.021" y1="-761.7881" x2="-510.0774" y2="-715.5084" gradientTransform="matrix(1.1664 0 0 1.1664 649.7886 815.1627)">
			<stop  offset="0" style="stop-color:#1D2C5F"/>
			<stop  offset="1" style="stop-color:#0071B8"/>
		</linearGradient>
		<polygon fill="url(#SVGID_40_)" points="30.792,-3.555 42.99,-9.901 91.417,-65.706 79.51,-59.358 		"/>
		
			<linearGradient id="SVGID_41_" gradientUnits="userSpaceOnUse" x1="-253.7974" y1="-705.1152" x2="-268.7668" y2="-663.6084" gradientTransform="matrix(1.1664 0 0 1.1664 648.7192 821.5533)">
			<stop  offset="0" style="stop-color:#1D2C5F"/>
			<stop  offset="1" style="stop-color:#0071B8"/>
		</linearGradient>
		<polygon fill="url(#SVGID_41_)" points="340.18,17.024 352.137,10.545 346.839,32.1 334.919,38.347 		"/>
		
			<linearGradient id="SVGID_42_" gradientUnits="userSpaceOnUse" x1="-274.2681" y1="-553.5288" x2="-277.6707" y2="-727.0499" gradientTransform="matrix(1.1664 0 0 1.1664 647.8452 821.8453)">
			<stop  offset="0" style="stop-color:#1D2C5F"/>
			<stop  offset="1" style="stop-color:#0071B8"/>
		</linearGradient>
		<polygon fill="url(#SVGID_42_)" points="342.164,189.68 354.215,183.323 313.695,170.532 301.811,176.809 		"/>
		
			<linearGradient id="SVGID_43_" gradientUnits="userSpaceOnUse" x1="-332.4604" y1="-662.291" x2="-280.7337" y2="-710.6151" gradientTransform="matrix(1.1664 0 0 1.1664 648.7192 821.5533)">
			<stop  offset="0" style="stop-color:#1D2C5F"/>
			<stop  offset="1" style="stop-color:#0071B8"/>
		</linearGradient>
		<polygon fill="url(#SVGID_43_)" points="275.716,38.578 287.595,32.305 277.868,30.096 265.864,36.304 		"/>
		
			<linearGradient id="SVGID_44_" gradientUnits="userSpaceOnUse" x1="-522.0332" y1="-549.5381" x2="-525.4371" y2="-723.1238" gradientTransform="matrix(1.1664 0 0 1.1664 642.2319 819.0748)">
			<stop  offset="0" style="stop-color:#1D2C5F"/>
			<stop  offset="1" style="stop-color:#0071B8"/>
		</linearGradient>
		<polygon fill="url(#SVGID_44_)" points="30.002,11.66 40.408,6.121 31.886,12.951 19.771,19.403 		"/>
		
			<linearGradient id="SVGID_45_" gradientUnits="userSpaceOnUse" x1="-291.8579" y1="-553.2329" x2="-295.2614" y2="-726.7933" gradientTransform="matrix(1.1664 0 0 1.1664 648.2095 821.6998)">
			<stop  offset="0" style="stop-color:#1D2C5F"/>
			<stop  offset="1" style="stop-color:#0071B8"/>
		</linearGradient>
		<polygon fill="url(#SVGID_45_)" points="301.458,160.984 313.292,154.646 313.695,170.532 301.811,176.809 		"/>
		
			<linearGradient id="SVGID_46_" gradientUnits="userSpaceOnUse" x1="-287.6279" y1="-732.9019" x2="-306.686" y2="-701.5916" gradientTransform="matrix(1.1664 0.0097 -0.0097 1.1664 609.6683 857.4456)">
			<stop  offset="0" style="stop-color:#1D2C5F"/>
			<stop  offset="1" style="stop-color:#0071B8"/>
		</linearGradient>
		<polygon fill="url(#SVGID_46_)" points="265.864,36.304 277.868,30.096 277.299,-5.977 265.432,0.581 		"/>
		<polygon fill="#302370" points="262.597,155.395 274.471,149.139 287.518,32.337 275.716,38.578 		"/>
		
			<linearGradient id="SVGID_47_" gradientUnits="userSpaceOnUse" x1="-308.187" y1="-552.8594" x2="-311.5923" y2="-726.5151" gradientTransform="matrix(1.1664 0 0 1.1664 647.8452 821.8453)">
			<stop  offset="0" style="stop-color:#1D2C5F"/>
			<stop  offset="1" style="stop-color:#0071B8"/>
		</linearGradient>
		<polygon fill="url(#SVGID_47_)" points="301.458,160.984 313.292,154.646 274.471,149.139 262.597,155.395 		"/>
		
			<linearGradient id="SVGID_48_" gradientUnits="userSpaceOnUse" x1="-367.707" y1="-560.8164" x2="-374.5119" y2="-725.4702" gradientTransform="matrix(1.1664 0 0 1.1664 643.7622 817.1793)">
			<stop  offset="0" style="stop-color:#1D2C5F"/>
			<stop  offset="1" style="stop-color:#0071B8"/>
		</linearGradient>
		<polygon fill="url(#SVGID_48_)" points="237.875,160.104 249.592,153.653 191.111,143.34 179.206,149.716 		"/>
		
			<linearGradient id="SVGID_49_" gradientUnits="userSpaceOnUse" x1="-394.1333" y1="-552.8398" x2="-397.5359" y2="-726.3567" gradientTransform="matrix(1.1664 0 0 1.1664 644.0542 816.5963)">
			<stop  offset="0" style="stop-color:#1D2C5F"/>
			<stop  offset="1" style="stop-color:#0071B8"/>
		</linearGradient>
		<polygon fill="url(#SVGID_49_)" points="179.206,149.716 191.111,143.34 188.063,117.241 176.063,123.689 		"/>
		
			<linearGradient id="SVGID_50_" gradientUnits="userSpaceOnUse" x1="-407.8945" y1="-552.5586" x2="-411.2982" y2="-726.1313" gradientTransform="matrix(1.1664 0 0 1.1664 643.9565 816.5963)">
			<stop  offset="0" style="stop-color:#1D2C5F"/>
			<stop  offset="1" style="stop-color:#0071B8"/>
		</linearGradient>
		<polygon fill="url(#SVGID_50_)" points="167.986,139.468 179.826,132.952 166.56,108.24 154.662,114.859 		"/>
		
			<linearGradient id="SVGID_51_" gradientUnits="userSpaceOnUse" x1="-437.854" y1="-558.1372" x2="-444.6634" y2="-722.8987" gradientTransform="matrix(1.1664 0 0 1.1664 644.1509 816.402)">
			<stop  offset="0" style="stop-color:#1D2C5F"/>
			<stop  offset="1" style="stop-color:#0071B8"/>
		</linearGradient>
		<polygon fill="url(#SVGID_51_)" points="151.75,133.12 163.491,126.799 111.982,118.661 100.114,124.842 		"/>
		
			<linearGradient id="SVGID_52_" gradientUnits="userSpaceOnUse" x1="-459.9868" y1="-650.2769" x2="-407.5777" y2="-655.041" gradientTransform="matrix(1.1664 0 0 1.1664 644.1509 816.402)">
			<stop  offset="0" style="stop-color:#1D2C5F"/>
			<stop  offset="1" style="stop-color:#0071B8"/>
		</linearGradient>
		<polygon fill="url(#SVGID_52_)" points="100.114,124.842 111.982,118.661 133.095,-10.635 121.325,-4.145 		"/>
		
			<linearGradient id="SVGID_53_" gradientUnits="userSpaceOnUse" x1="-535.3901" y1="-690.9609" x2="-450.9976" y2="-748.811" gradientTransform="matrix(1.1664 0 0 1.1664 649.7886 815.236)">
			<stop  offset="0" style="stop-color:#1D2C5F"/>
			<stop  offset="1" style="stop-color:#0071B8"/>
		</linearGradient>
		<polygon fill="url(#SVGID_53_)" points="39.31,6.621 51.297,0.48 42.99,-9.801 30.792,-3.453 		"/>
		
			<linearGradient id="SVGID_54_" gradientUnits="userSpaceOnUse" x1="-372.6055" y1="-712.4683" x2="-376.0093" y2="-886.0481" gradientTransform="matrix(1.1651 0.056 -0.056 1.1651 415.9688 1029.2699)">
			<stop  offset="0" style="stop-color:#1D2C5F"/>
			<stop  offset="1" style="stop-color:#0071B8"/>
		</linearGradient>
		<polygon fill="url(#SVGID_54_)" points="-30.73,111.65 -18.94,105.227 76.839,152.655 64.934,159.037 		"/>
		
			<linearGradient id="SVGID_55_" gradientUnits="userSpaceOnUse" x1="-563.2192" y1="-726.6729" x2="-575.4695" y2="-698.7699" gradientTransform="matrix(1.1664 0 0 1.1664 643.4224 819.0748)">
			<stop  offset="0" style="stop-color:#1D2C5F"/>
			<stop  offset="1" style="stop-color:#0071B8"/>
		</linearGradient>
		<polygon fill="url(#SVGID_55_)" points="-36.251,10.176 -24.245,3.616 -9.858,-23.759 -21.772,-17.314 		"/>
		
			<linearGradient id="SVGID_56_" gradientUnits="userSpaceOnUse" x1="-538.8818" y1="-601.8604" x2="-542.2849" y2="-775.3986" gradientTransform="matrix(1.1663 0.0182 -0.0182 1.1663 569.8864 884.0895)">
			<stop  offset="0" style="stop-color:#1D2C5F"/>
			<stop  offset="1" style="stop-color:#0071B8"/>
		</linearGradient>
		<polygon fill="url(#SVGID_56_)" points="-76.646,159.51 -64.587,153.146 -18.824,146.354 -30.994,152.785 		"/>
		
			<linearGradient id="SVGID_57_" gradientUnits="userSpaceOnUse" x1="-547.269" y1="-671.729" x2="-594.2178" y2="-661.5226" gradientTransform="matrix(1.1663 0.0182 -0.0182 1.1663 569.8864 884.0895)">
			<stop  offset="0" style="stop-color:#1D2C5F"/>
			<stop  offset="1" style="stop-color:#0071B8"/>
		</linearGradient>
		<polygon fill="url(#SVGID_57_)" points="-76.646,159.51 -64.587,153.146 -76.048,29.991 -87.8,36.342 		"/>
		
			<linearGradient id="SVGID_58_" gradientUnits="userSpaceOnUse" x1="-633.6055" y1="-710.5244" x2="-632.2452" y2="-663.5695" gradientTransform="matrix(1.1664 0 0 1.1664 644.3452 818.5162)">
			<stop  offset="0" style="stop-color:#1D2C5F"/>
			<stop  offset="1" style="stop-color:#0071B8"/>
		</linearGradient>
		<polygon fill="url(#SVGID_58_)" points="-99.006,39.182 -87.027,32.837 -88.779,-1.994 -100.685,4.453 		"/>
		
			<linearGradient id="SVGID_59_" gradientUnits="userSpaceOnUse" x1="-832.5352" y1="-423.8066" x2="-835.9382" y2="-597.3476" gradientTransform="matrix(1.1656 -0.0446 0.0446 1.1656 811.668 638.7062)">
			<stop  offset="0" style="stop-color:#1D2C5F"/>
			<stop  offset="1" style="stop-color:#0071B8"/>
		</linearGradient>
		<polygon fill="url(#SVGID_59_)" points="-195.896,186.725 -207.833,194.7 -159.406,179.104 -147.309,171.243 		"/>
		
			<linearGradient id="SVGID_60_" gradientUnits="userSpaceOnUse" x1="-869.8018" y1="-462.7627" x2="-911.9999" y2="-580.5121" gradientTransform="matrix(1.1656 -0.0446 0.0446 1.1656 809.5293 639.4836)">
			<stop  offset="0" style="stop-color:#1D2C5F"/>
			<stop  offset="1" style="stop-color:#0071B8"/>
		</linearGradient>
		<polygon fill="url(#SVGID_60_)" points="-248.875,68.598 -258.79,79.137 -207.833,194.7 -195.896,186.725 		"/>
		
			<linearGradient id="SVGID_61_" gradientUnits="userSpaceOnUse" x1="-1204.8691" y1="-94.4971" x2="-1238.2195" y2="-223.1329" gradientTransform="matrix(1.1524 -0.1803 0.1803 1.1524 1299.4091 53.6401)">
			<stop  offset="0" style="stop-color:#1D2C5F"/>
			<stop  offset="1" style="stop-color:#0071B8"/>
		</linearGradient>
		<path fill="url(#SVGID_61_)" d="M-119.28,147.643c-12.513-3.626-22.557-12.305-28.267-24.452
			c-2.927-6.19-5.58-20.074-5.726-26.946c-2.726,3.143-8.265,6.524-12.232,8.456c0,0,2.609,13.591,5.975,23.105
			c3.361,9.515,11.38,17.207,11.38,17.207c5.149,4.984,11.418,8.641,18.479,10.684c13.513,3.915,28.791,1.373,41.896-6.962
			c3.415-2.185,8.104-5.66,10.951-8.431C-89.721,148.163-106.098,151.451-119.28,147.643z"/>
		
			<linearGradient id="SVGID_62_" gradientUnits="userSpaceOnUse" x1="-625.0244" y1="-547.7539" x2="-628.4263" y2="-721.2358" gradientTransform="matrix(1.1664 0 0 1.1664 644.3452 818.5162)">
			<stop  offset="0" style="stop-color:#1D2C5F"/>
			<stop  offset="1" style="stop-color:#0071B8"/>
		</linearGradient>
		<polygon fill="url(#SVGID_62_)" points="-99.006,39.182 -87.8,36.342 -76.048,29.991 -87.027,32.837 		"/>
		
			<linearGradient id="SVGID_63_" gradientUnits="userSpaceOnUse" x1="-765.1011" y1="-544.1313" x2="-768.5052" y2="-717.7261" gradientTransform="matrix(1.1664 0 0 1.1664 634.7955 821.3112)">
			<stop  offset="0" style="stop-color:#1D2C5F"/>
			<stop  offset="1" style="stop-color:#0071B8"/>
		</linearGradient>
		<polygon fill="url(#SVGID_63_)" points="-270.684,84.237 -260.921,74.331 -248.875,68.598 -258.79,79.137 		"/>
		<g>
			
				<linearGradient id="SVGID_64_" gradientUnits="userSpaceOnUse" x1="-86.4873" y1="-813.8027" x2="-89.8889" y2="-987.2668" gradientTransform="matrix(1.1632 0.0872 -0.0872 1.1632 288.5588 1131.6637)">
				<stop  offset="0" style="stop-color:#1D2C5F"/>
				<stop  offset="1" style="stop-color:#0071B8"/>
			</linearGradient>
			<path fill="url(#SVGID_64_)" d="M246.282,133.65l0.674,5.693c4.161-0.49,8.57-1.037,12.297-2.344
				c4.373-1.513,13.85-5.7,17.456-8.863c-1.32,0.499-7.738,3.471-9.116,3.887C260.516,134.135,253.13,134.396,246.282,133.65z"/>
		</g>
		<g>
			
				<linearGradient id="SVGID_65_" gradientUnits="userSpaceOnUse" x1="-877.8428" y1="-1094.2114" x2="-881.2462" y2="-1267.7673" gradientTransform="matrix(1.3092 -0.0232 0.0215 1.4152 1271.7667 1709.301)">
				<stop  offset="0" style="stop-color:#1D2C5F"/>
				<stop  offset="1" style="stop-color:#0071B8"/>
			</linearGradient>
			<path fill="url(#SVGID_65_)" d="M76.628,106.766l0.188,6.52c9.782-1.434,18.194-5.078,26.471-10.039
				c5.169-3.103,10.908-7.773,12.676-9.016c-1.268,0.809-2.551,1.293-3.868,2.024C104.423,100.459,83.908,106.646,76.628,106.766z"
				/>
		</g>
		<path fill="#FFCA05" d="M352.081,10.681l-5.231,21.543l-4.821-23.875L277.362-5.874l0.479,35.939l9.724,2.169l-0.715,6.495
			c-0.1-0.044-0.199-0.099-0.289-0.151c-12.048-6.397-27.026-7.034-41.134-1.717c-4.708,1.799-9.101,4.211-13.101,7.062
			l-9.73-61.562h-43.005l-1.194,7.054h-45.253l-5.182,31.692l-3.762-4.63c-10.96-13.5-26.857-20.926-44.46-21.3l38.404-20.638
			L91.358-65.459L42.938-9.671l8.376,10.216c-7.605,3.093-14.206,7.337-19.66,12.494L-9.848-23.786L-24.392,4.035l0.566-26.716
			L-88.745-1.974l1.651,34.897l11.046-2.884l1.645,17.691c-12.604-5.664-27.758-5.555-41.834,0.408
			c-4.16,1.793-8.064,4.034-11.653,6.632c2.439-10.766,1.86-21.392-2.229-30.847c-4.854-11.174-13.375-20.42-23.824-26.257
			c-7.317-4.874-16.059-7.919-25.21-8.95c-22.441-3.938-49.412,0.113-75.947,11.393c-9.746,4.152-18.864,8.899-27.062,14.123
			l-10.382,6.603l6.26,10.58l19.44,32.841c0,0,5.97,10.084,6.001,10.076l10.529-5.159l1.455-0.704l48.295,107.842l4.653,10.366
			l10.817-3.456l26.151-8.366l11.455-3.665l-3.037-11.631l-13.882-53.329c4.014-2.95,7.729-6.085,11.168-9.381
			c-0.768,6.385-0.372,12.82,1.369,18.997c3.632,12.919,12.102,23.143,23.849,28.781c12.681,6.09,28.161,6.115,42.478,0.044
			c7.177-3.065,13.574-7.477,18.967-12.794l1.979,21.216l45.768-6.725l-0.056-41.068l95.664,47.313v-45.809
			c3.866-0.314,7.768-0.908,11.706-1.862c10.544-2.545,19.54-6.053,27.548-10.838l-4.024,24.573l51.583,8.131l2.86-18.581
			l13.466,24.894l8.219-15.864l2.995,26.044l58.492,10.32l-3.105-19.686c8.007,0.896,16.45-0.153,24.598-3.224
			c1.95-0.734,3.853-1.598,5.683-2.533l-2.352,20.961l38.925,5.451l0.324,15.962l40.562,12.757l52.86-159.27L352.081,10.681z
			 M2.302,59.654l12.291-11.929c-0.525,5.493-0.25,11.218,0.905,17.046L2.302,59.654z M122.987,51.545l-8.438-7.593l9.012-9.612
			l2.705-2.873L122.987,51.545z M-177.739,70.54l-1.834,1.648l-0.741-2.364l-7.48-24.442l-0.504-1.678l1.73-0.325
			c3.914-0.723,7.579-0.339,10.597,1.094c1.812,0.862,4.975,2.899,5.71,6.836C-168.859,58.835-171.092,64.586-177.739,70.54z
			 M59.797,54.328l-1.413,1.619l-1.043-1.888c-3.317-6.042-2.413-13.503,2.226-18.587c4.504-4.911,11.447-6.542,17.665-4.131
			l2.025,0.777l-1.427,1.622L59.797,54.328z"/>
		<path fill="#7D8069" d="M98.96,58.369c-0.145,0.179-0.292,0.354-0.46,0.54c0.19-0.156,0.377-0.305,0.556-0.461L98.96,58.369z"/>
		<polygon fill="#7D8069" points="117.275,57.262 118.826,47.797 122.987,51.545 114.548,43.952 123.56,34.34 120.479,37.625 
			120.557,37.173 117.849,40.057 108.839,49.664 		"/>
		<polygon fill="#7D8069" points="122.987,51.545 126.265,31.467 123.56,34.34 114.548,43.952 		"/>
		<polygon fill="#7D8069" points="2.302,59.654 2.427,59.703 2.427,59.703 		"/>
		<g>
			<path fill="#C79F08" d="M52.201,68.028c0.735,0.741,0.057,0.183,0.886,0.759l5.52-3.895c-0.829-0.581-1.644-1.196-2.398-1.885
				c-7.983-7.302-5.93-23.686-0.699-32.67C41.832,41.365,42.552,58.312,52.201,68.028z"/>
			<g>
				<path fill="#C79F08" d="M118.792,77.202c-9.092,7.516-19.475,12.431-33.218,15.746c-2.975,0.72-5.926,1.203-8.797,1.484
					c-21.784,2.116-40.037-7.897-46.994-24.106c-0.834-1.944-1.508-3.974-2.001-6.072c-3.217-13.679-0.491-25.878,6.268-35.438
					c0.648-0.928,1.354-1.817,2.089-2.699c-0.322,0.271-0.655,0.539-0.971,0.823c-2.583,2.284-4.872,4.824-6.828,7.591
					c-6.767,9.565-9.494,21.752-6.274,35.444c0.498,2.099,1.17,4.121,1.994,6.051c6.964,16.214,25.212,26.235,46.996,24.116
					c2.883-0.284,5.819-0.757,8.809-1.484c13.739-3.307,24.118-8.224,33.214-15.757c2.23-1.832,4.38-3.826,6.479-5.997l-0.214-0.189
					C119.159,76.872,118.985,77.042,118.792,77.202z"/>
				<polygon fill="#C79F08" points="-10.345,1.74 -11.327,0.808 -34.8,33.776 -34.672,35.914 				"/>
				<polygon fill="#C79F08" points="120.557,37.173 120.479,37.625 123.56,34.34 126.265,31.467 122.987,51.545 118.826,47.797 
					117.275,57.262 108.839,49.664 117.849,40.057 				"/>
				<polygon fill="#C79F08" points="103.449,-28.439 89.286,-47.687 84.026,-41.353 96.185,-24.836 				"/>
				<path fill="#C79F08" d="M-141.783,28.979c-3.839-8.883-10.496-15.849-19.191-20.731c-6.312-4.209-13.558-6.245-20.375-7.018
					c-19.34-3.392-43.457-0.194-68.768,10.566c-9.026,3.837-17.487,8.221-25.237,13.145l1.004,1.698
					c5.85-3.318,12.024-6.372,18.515-9.116c25.311-10.788,49.427-13.971,68.776-10.58c6.808,0.777,14.055,2.813,20.365,7.013
					c8.717,4.891,15.345,11.849,19.197,20.735c6.853,15.792,0.803,36.735-15.341,54.299
					C-142.583,70.429-134.177,46.526-141.783,28.979z"/>
				<path fill="#C79F08" d="M-59.457,80.505c-0.18-0.88-0.39-1.754-0.625-2.62c-2.253-7.971-6.991-14.301-13.239-18.543
					c-10.11-6.861-24.184-8.272-38.215-2.327c-7.388,3.174-13.826,8.079-18.899,13.975c3.909-3.355,8.335-6.172,13.182-8.253
					c14.025-5.947,28.111-4.545,38.211,2.312c6.254,4.25,10.993,10.579,13.243,18.559c0.239,0.854,0.445,1.733,0.63,2.612
					c0.624,3.039,0.877,6.132,0.77,9.227c-0.299,9.216-3.692,18.447-9.362,26.31c-0.879,1.216-1.843,2.396-2.827,3.544
					c3.208-2.761,6.094-5.882,8.539-9.262c5.67-7.86,9.063-17.095,9.369-26.296C-58.573,86.636-58.826,83.537-59.457,80.505z"/>
				<path fill="#C79F08" d="M-98.185,68.804c-0.065,0.082,5.701-5.733,5.634-5.738c-7.201-0.246-10.248,6.547-10.494,7.078
					C-101.572,69.433-99.936,68.955-98.185,68.804z"/>
				<path fill="#C79F08" d="M-84.62,77.113c0.291,0.948,0.466,1.955,0.466,2.991c0,1.513-0.341,2.945-0.942,4.263
					c1.143-0.562,9.464-4.618,6.226-13.194C-78.674,71.458-84.811,77.1-84.62,77.113z"/>
				<path fill="#C79F08" d="M-117.392,81.878c0-3.545,6.026-12.064,7.911-14.937c-9.528,6.067-13.627,14.244-13.627,20.651
					c0,11.08,9.685,19.935,21.274,19.935c5.5,0,15.528-2.903,22.077-13.546c-3.421,2.264-12.175,7.7-16.755,7.7
					C-108.11,101.681-117.392,92.948-117.392,81.878z"/>
				<polygon fill="#C79F08" points="-35.692,136.591 -29.959,135.803 -29.998,86.123 -35.84,91.973 				"/>
				<polygon fill="#C79F08" points="-40.292,43.714 -34.703,35.869 -37.076,-4.755 -76.531,6.987 -76.336,10.945 -42.789,0.953 				
					"/>
				<g>
					<polygon fill="#C79F08" points="-5.618,-4.909 -10.345,1.74 17.416,27.791 22.791,22.124 					"/>
					<path fill="#C79F08" d="M38.892,98.279c-7.999-4.915-14.327-11.655-18.51-19.547L-16.83,64.009l-5.394,5.688l36.884,14.755
						c4.194,7.891,10.522,14.62,18.517,19.544c7.725,4.752,16.539,7.589,25.908,8.467v18.226l5.72,2.854v-26.791
						C55.426,105.875,46.609,103.033,38.892,98.279z"/>
				</g>
				<g>
					<path fill="#C79F08" d="M79.638,71.086C88.757,68.9,93.996,64.161,98.5,58.909c-3.396,2.799-7.538,5.112-13.138,6.464
						c-3.14,0.764-7.377,1.456-10.075,0.98l-5.61,5.983C72.239,72.546,76.507,71.839,79.638,71.086z"/>
					<path fill="#C79F08" d="M64.57,9.173c-9.198,2.224-17.324,6.381-23.682,12.044c-1.724,1.531-3.299,3.173-4.749,4.901
						c6.225-5.242,13.973-9.122,22.713-11.226c20.764-4.999,39.039,1.337,50.327,15.336l5.604-5.97
						C103.617,10.515,85.341,4.174,64.57,9.173z"/>
				</g>
				<path fill="#C79F08" d="M119.343,76.716c2.031-1.714,4.001-3.54,5.942-5.518l-4.807-4.317l-15.794-14.227
					c-1.721,2.038-3.539,4.009-5.629,5.794l15.707,14.137L119.343,76.716z"/>
				<path fill="#C79F08" d="M233.783,130.629c-1.162-0.49-2.311-1.027-3.438-1.615c-11.043-5.875-18.787-16.011-21.763-28.555
					c-3.866-16.219,1.728-33.916,13.318-47.101l-9.106-59.077h-21.888l-1.018,5.717h17.196l9.09,59.082
					c-11.575,13.184-17.181,30.88-13.313,47.096c2.99,12.54,10.727,22.679,21.762,28.548c1.129,0.598,2.276,1.125,3.45,1.615
					l0.136,0.908l6.758,1.032L233.783,130.629z"/>
				<polygon fill="#C79F08" points="176.584,48.483 182.302,42.69 174.661,0.952 144.026,0.952 143.065,6.67 168.947,6.67 				"/>
				<polygon fill="#C79F08" points="179.999,103.689 181.904,107.808 194.026,76.42 188.345,82.099 				"/>
				<polygon fill="#C79F08" points="157.789,74.26 151.615,113.221 156.29,114.034 163.539,68.503 				"/>
				<path fill="#C79F08" d="M279.819,56.038c3.388,2.428,6.258,5.495,8.477,9.124c1.686,2.789,2.995,5.912,3.814,9.335
					c2.824,11.768-0.562,24.399-7.99,34.587c-0.745,1.039-1.551,2.033-2.384,3.021c3.036-2.604,5.775-5.551,8.093-8.739
					c7.442-10.18,10.819-22.814,8.002-34.587c-0.831-3.419-2.132-6.534-3.831-9.333c-2.202-3.629-5.066-6.691-8.459-9.114
					c-9.327-6.678-22.489-8.431-35.869-3.399c-5.737,2.196-10.934,5.478-15.385,9.483c-1.635,1.475-3.132,3.071-4.557,4.725
					c4.18-3.551,8.975-6.482,14.215-8.484C257.326,47.603,270.494,49.376,279.819,56.038z"/>
				<path fill="#C79F08" d="M259.9,58.584c0.098,0.265,5.658-5.755,5.782-5.758c-7.026,0.28-10.412,3.663-10.062,5.264
					c-0.401,0.571-0.767,1.196-1.049,1.833C256.089,59.193,258.856,58.638,259.9,58.584z"/>
				<path fill="#C79F08" d="M273.118,67.433c0.253,0.973,0.378,1.974,0.341,3.013c-0.058,1.33-0.387,2.604-0.908,3.771
					c1.055-0.508,9.549-3.126,6.329-12.499C278.958,61.965,273.02,67.459,273.118,67.433z"/>
				<path fill="#C79F08" d="M254.428,97.249c7.971,0.312,16.754-4.597,23.064-13.244c-3.654,2.404-12.589,7.462-17.478,7.256
					c-11.593-0.467-20.511-9.567-20.057-20.629c0.119-3.238,4.326-10.221,6.037-12.852c-6.115,4.452-11.508,12.96-11.758,18.966
					C233.783,87.806,242.838,96.772,254.428,97.249z"/>
				<polygon fill="#C79F08" points="359.73,24.53 358.138,31.164 386.102,37.353 343.156,167.471 346.643,168.504 391.826,31.638 
									"/>
				<polygon fill="#C79F08" points="339.487,90.551 345.232,84.754 331.005,17.565 288.837,9.09 288.461,15.879 325.301,23.285 				
					"/>
				<polygon fill="#C79F08" points="306.368,142.162 310.939,142.885 322.274,79.133 316.523,84.789 				"/>
				<polygon fill="#C79F08" points="-178.884,100.709 -185.198,105.134 -169.22,164.997 -162.197,163.825 				"/>
				<path fill="#C79F08" d="M-166.114,69.259c-3.995,4.214-12.789,12.413-17.825,15.645l-3.04-9.782l-6.685-21.48l-4.249-14.528
					l-4.149,5.338l4.25,14.516l6.671,21.48l3.046,9.794C-181.225,85.812-171.222,77.501-166.114,69.259z"/>
			</g>
		</g>
		<path fill="#7D8069" d="M78.079,32.305c-5.444-2.104-13.145-1.482-17.317,3.085c-0.964,1.057-2.81,3.727-3.412,4.961
			c4.006-3.203,11.194-3.886,15.871-2.203L78.079,32.305z"/>
		<path fill="#7D8069" d="M-171.106,51.708c-0.602-3.243-3.736-5.783-5.287-6.503c-2.774-1.314-7.525-1.53-11.019-0.882
			c0.629,2.169,1.354,4.715,1.653,5.729c1.408,0.195,3.731,0.607,4.957,1.184c1.534,0.73,4.22,2.451,4.82,5.695
			c0.808,4.325,0.607,8.337-1.185,11.643C-172.24,63.727-169.837,58.436-171.106,51.708z"/>
		<g>
			<defs>
				<path id="SVGID_66_" d="M85.416,30.356c-8.661-7.924-22.106-7.322-30.044,1.336c-7.921,8.68-7.32,22.124,1.345,30.045
					c0.727,0.659,1.493,1.233,2.266,1.779l27.936-31.642C86.45,31.354,85.952,30.845,85.416,30.356z"/>
			</defs>
			<clipPath id="SVGID_67_">
				<use xlink:href="#SVGID_66_"  overflow="visible"/>
			</clipPath>
		</g>
		<g>
			<defs>
				<path id="SVGID_68_" d="M-163.353,50.226c-2.233-11.945-17.852-18.551-33.374-10.105l4.003,13.675l6.29,20.226l2.866,9.21
					C-171.947,75.752-160.252,66.773-163.353,50.226z"/>
			</defs>
			<clipPath id="SVGID_69_">
				<use xlink:href="#SVGID_68_"  overflow="visible"/>
			</clipPath>
		</g>
		
			<linearGradient id="SVGID_70_" gradientUnits="userSpaceOnUse" x1="-833.8687" y1="-442.0913" x2="-835.8318" y2="-628.278" gradientTransform="matrix(1.1655 -0.0468 0.0468 1.1655 817.9471 629.4583)">
			<stop  offset="0" style="stop-color:#3B5AA6"/>
			<stop  offset="1" style="stop-color:#2A75BA"/>
		</linearGradient>
		<path fill="url(#SVGID_70_)" d="M-162.462,51.612c-2.375-12.694-18.963-19.706-35.45-10.729l4.249,14.528l6.685,21.46l3.04,9.804
			C-171.59,78.717-159.167,69.19-162.462,51.612z M-178.798,71.125c-1.823-5.875-5.766-18.545-5.766-18.545
			c0.024,0.061-0.797-2.734-1.715-5.873c3.504-0.645,6.855-0.351,9.636,0.971c1.537,0.726,4.202,2.439,4.818,5.692
			C-170.454,60.661-172.946,65.869-178.798,71.125z"/>
		
			<linearGradient id="SVGID_71_" gradientUnits="userSpaceOnUse" x1="-426.1113" y1="-290.3267" x2="-428.0742" y2="-476.4903" gradientTransform="matrix(1.1074 -0.0346 0.0346 1.1074 554.597 445.8417)">
			<stop  offset="0" style="stop-color:#3B5AA6"/>
			<stop  offset="1" style="stop-color:#2A75BA"/>
		</linearGradient>
		<path fill="url(#SVGID_71_)" d="M86.681,31.44c-9.198-8.419-23.487-7.78-31.909,1.413c-8.416,9.212-7.771,23.486,1.437,31.912
			c0.755,0.704,1.569,1.311,2.398,1.884l29.67-33.601C87.785,32.495,87.251,31.955,86.681,31.44z M58.657,55.099
			c-2.899-5.319-2.299-12.113,2.023-16.842c4.179-4.565,10.583-5.854,16.019-3.746L58.657,55.099z"/>
		<polygon fill="#1E2D60" points="126.343,27.752 109.942,43.623 125.557,57.646 		"/>
		<g>
			
				<linearGradient id="SVGID_72_" gradientUnits="userSpaceOnUse" x1="-506.7964" y1="-171.2432" x2="-509.1274" y2="-392.3232" gradientTransform="matrix(1.1664 0 0 1.1664 650.1772 389.5045)">
				<stop  offset="0" style="stop-color:#3B5AA6"/>
				<stop  offset="1" style="stop-color:#2A75BA"/>
			</linearGradient>
			<path fill="url(#SVGID_72_)" d="M352.081,10.681l-5.231,21.543l-4.821-23.875L277.362-5.874l0.479,35.939l9.724,2.169
				l-0.715,6.495c-0.1-0.044-0.199-0.099-0.289-0.151c-12.048-6.397-27.026-7.034-41.134-1.717
				c-4.708,1.799-9.101,4.211-13.101,7.062l-9.73-61.562h-43.005l-1.194,7.054h-45.253l-5.182,31.692l-3.762-4.63
				c-10.96-13.5-26.857-20.926-44.46-21.3l38.404-20.638L91.358-65.459L42.938-9.671l8.376,10.216
				c-7.605,3.093-14.206,7.337-19.66,12.494L-9.848-23.786L-24.392,4.035l0.566-26.716L-88.745-1.974l1.651,34.897l11.046-2.884
				l1.645,17.691c-12.604-5.664-27.758-5.555-41.834,0.408c-4.16,1.793-8.064,4.034-11.653,6.632
				c2.439-10.766,1.86-21.392-2.229-30.847c-4.854-11.174-13.375-20.42-23.824-26.257c-7.317-4.874-16.059-7.919-25.21-8.95
				c-22.441-3.938-49.412,0.113-75.947,11.393c-9.746,4.152-18.864,8.899-27.062,14.123l-10.382,6.603l6.26,10.58l19.44,32.841
				c0,0,5.97,10.084,6.001,10.076l10.529-5.159l1.455-0.704l48.295,107.842l4.653,10.366l10.817-3.456l26.151-8.366l11.455-3.665
				l-3.037-11.631l-13.882-53.329c4.014-2.95,7.729-6.085,11.168-9.381c-0.768,6.385-0.372,12.82,1.369,18.997
				c3.632,12.919,12.102,23.143,23.849,28.781c12.681,6.09,28.161,6.115,42.478,0.044c7.177-3.065,13.574-7.477,18.967-12.794
				l1.979,21.216l45.768-6.725l-0.056-41.068l95.664,47.313v-45.809c3.866-0.314,7.768-0.908,11.706-1.862
				c10.544-2.545,19.54-6.053,27.548-10.838l-4.024,24.573l51.583,8.131l2.86-18.581l13.466,24.894l8.219-15.864l2.995,26.044
				l58.492,10.32l-3.105-19.686c8.007,0.896,16.45-0.153,24.598-3.224c1.95-0.734,3.853-1.598,5.683-2.533l-2.352,20.961
				l38.925,5.451l0.324,15.962l40.562,12.757l52.86-159.27L352.081,10.681z M123.56,34.34l2.705-2.873l-3.278,20.079l-8.438-7.593
				L123.56,34.34z M89.286-47.687l14.163,19.248l-40.5,20.063l-2.788-4.232L89.286-47.687z M15.498,64.772L2.302,59.654
				l12.291-11.929C14.068,53.219,14.342,58.943,15.498,64.772z M-178.957,100.75l16.147,62.005l-26.155,8.363l-53.687-119.887
				c-2.905,1.527-8.29,4.101-13.266,6.557l-19.437-32.847c7.75-4.924,16.211-9.308,25.237-13.145
				C-224.807,1.036-200.69-2.162-181.35,1.23c6.817,0.773,14.063,2.809,20.375,7.018c8.696,4.882,15.352,11.848,19.191,20.731
				C-132.441,50.53-148.062,81.672-178.957,100.75z M-68.049,116.037c-5.437,7.537-12.94,13.813-21.82,17.602
				c-22.704,9.622-45.399,0-51.461-21.522c-5.869-20.872,7.799-45.646,29.794-55.102c14.031-5.945,28.104-4.535,38.215,2.327
				c6.248,4.243,10.985,10.572,13.239,18.543c0.235,0.866,0.445,1.74,0.625,2.62c0.631,3.032,0.884,6.131,0.777,9.236
				C-58.986,98.942-62.378,108.177-68.049,116.037z M64.805,133.543L-30.13,86.065l0.171,49.737l-24.559,3.371l-1.727-20.544
				c7.6-12.99,10.374-28.313,6.386-42.325c-2.16-7.71-6.164-14.449-11.62-19.801l-3.524-41.826l-11.045,2.879l-0.483-10.57
				l39.455-11.742l2.404,40.668L-5.618-4.909l28.409,27.032l-39.697,41.854l37.289,14.755c4.183,7.892,10.511,14.632,18.51,19.547
				c7.717,4.754,16.534,7.596,25.913,8.473V133.543z M85.575,92.948c-2.975,0.72-5.926,1.203-8.797,1.484
				c-21.784,2.116-40.037-7.897-46.994-24.106c-0.834-1.944-1.508-3.974-2.001-6.072c-3.217-13.679-0.491-25.878,6.268-35.438
				c1.953-2.76,4.25-5.302,6.837-7.6c6.358-5.663,14.484-9.82,23.682-12.044c20.771-4.999,39.047,1.342,50.214,15.086L75.26,66.353
				c2.696,0.488,6.955-0.216,10.103-0.98c9.418-2.272,14.7-7.252,19.322-12.719l15.794,14.227l4.807,4.317
				c-2.108,2.162-4.271,4.149-6.493,6.004C109.701,84.718,99.318,89.633,85.575,92.948z M234.967,138.28l-32.323-4.936
				l-8.577-56.966l-12.163,31.429L163.69,68.543h-0.193l-7.207,45.491l-30.329-5.278l4.257-25.38
				c1.147-1.073,2.271-2.171,3.393-3.319l9.805-10.114l-9.514-8.572l10.125-60.419h30.635l7.646,41.817l8.601-48.487h21.888
				l9.106,59.077c-11.591,13.185-17.185,30.882-13.318,47.101c2.976,12.544,10.72,22.68,21.763,28.555
				c1.127,0.588,2.275,1.125,3.438,1.615L234.967,138.28z M267.316,120.688c-7.834,2.96-15.594,3.561-22.531,2.203
				c-4.814-0.956-9.236-2.844-13.058-5.587c-6.084-4.38-10.583-10.899-12.54-19.088c-2.338-9.801-0.192-20.309,5.072-29.447
				c2.63-4.54,6.028-8.75,10.027-12.356c4.451-4.005,9.647-7.287,15.385-9.483c13.38-5.032,26.542-3.279,35.869,3.399
				c3.393,2.423,6.257,5.485,8.459,9.114c1.699,2.799,3,5.914,3.831,9.333c2.817,11.773-0.56,24.408-8.002,34.587
				c-3.157,4.342-7.056,8.234-11.522,11.422C274.941,117.186,271.261,119.188,267.316,120.688z M346.643,168.504l-22.442-6.706
				l-1.957-82.729l-11.305,63.816l-24.491-3.894l1.753-18.396c15.991-13.508,24.477-34.801,19.843-54.116
				c-2.046-8.564-6.426-16.002-12.661-21.678l2.067-21.672l-9.254-2.476l0.642-11.563l42.168,8.475l14.201,67.275l14.523-60.31
				l32.096,7.107L346.643,168.504z"/>
			
				<linearGradient id="SVGID_73_" gradientUnits="userSpaceOnUse" x1="-333.5249" y1="-252.3252" x2="-333.9445" y2="-292.1244" gradientTransform="matrix(1.1664 0 0 1.1664 650.1772 389.5045)">
				<stop  offset="0" style="stop-color:#3B5AA6"/>
				<stop  offset="1" style="stop-color:#2A75BA"/>
			</linearGradient>
			<path fill="url(#SVGID_73_)" d="M278.833,61.718c0.245,0.968,0.386,1.979,0.341,3.014c-0.257,6.262-6.169,11.116-13.21,10.829
				c-7.04-0.286-12.545-5.584-12.291-11.864c0.241-5.889,5.471-10.519,11.941-10.827c-1.236-0.26-2.521-0.449-3.841-0.501
				c-11.77-0.47-21.388,7.86-21.814,18.263c-0.454,11.062,8.464,20.162,20.057,20.629c11.771,0.482,21.391-7.858,21.84-18.931
				C282.011,68.494,280.894,64.837,278.833,61.718z"/>
			
				<linearGradient id="SVGID_74_" gradientUnits="userSpaceOnUse" x1="-639.8784" y1="-243.7939" x2="-640.29" y2="-282.8256" gradientTransform="matrix(1.1664 0 0 1.1664 650.1772 389.5045)">
				<stop  offset="0" style="stop-color:#3B5AA6"/>
				<stop  offset="1" style="stop-color:#2A75BA"/>
			</linearGradient>
			<path fill="url(#SVGID_74_)" d="M-78.446,74.394c0,6.27-5.708,11.35-12.764,11.35c-7.046,0-12.76-5.08-12.76-11.35
				c0-5.9,5.042-10.732,11.499-11.304c-1.253-0.216-2.537-0.343-3.863-0.343c-11.777,0-21.058,8.728-21.058,19.131
				c0,11.07,9.281,19.803,20.879,19.803c11.786,0,21.061-8.732,21.061-19.803c0-3.848-1.284-7.449-3.452-10.478
				C-78.62,72.357-78.446,73.348-78.446,74.394z"/>
		</g>
	</g>
</g>
</svg>
