<?xml version="1.0" encoding="utf-8"?>
<!-- Generator: Adobe Illustrator 19.2.1, SVG Export Plug-In . SVG Version: 6.00 Build 0)  -->
<!DOCTYPE svg PUBLIC "-//W3C//DTD SVG 1.1//EN" "http://www.w3.org/Graphics/SVG/1.1/DTD/svg11.dtd">
<svg version="1.1" id="Layer_1" xmlns="http://www.w3.org/2000/svg" xmlns:xlink="http://www.w3.org/1999/xlink" x="0px" y="0px"
	 viewBox="0 0 880 400" style="enable-background:new 0 0 880 400;" xml:space="preserve">
<style type="text/css">
	.st0{fill:url(#SVGID_1_);}
	.st1{fill:url(#SVGID_2_);stroke:#FFFFFF;stroke-width:15;stroke-linecap:round;stroke-linejoin:round;}
	.st2{fill:url(#SVGID_3_);stroke:#FFFFFF;stroke-width:15;stroke-linecap:round;stroke-linejoin:round;}
	.st3{fill:url(#SVGID_4_);stroke:#FFFFFF;stroke-width:15;stroke-linecap:round;stroke-linejoin:round;}
	.st4{fill:url(#SVGID_5_);stroke:#FFFFFF;stroke-width:15;stroke-linecap:round;stroke-linejoin:round;}
	.st5{fill:url(#SVGID_6_);stroke:#FFFFFF;stroke-width:15;stroke-linecap:round;stroke-linejoin:round;}
	.st6{fill:url(#SVGID_7_);stroke:#FFFFFF;stroke-width:15;stroke-linecap:round;stroke-linejoin:round;}
	.st7{fill:url(#SVGID_8_);stroke:#FFFFFF;stroke-width:15;stroke-linecap:round;stroke-linejoin:round;}
	.st8{fill:url(#SVGID_9_);stroke:#FFFFFF;stroke-width:15;stroke-linecap:round;stroke-linejoin:round;}
	.st9{fill:url(#SVGID_10_);stroke:#FFFFFF;stroke-width:15;stroke-linecap:round;stroke-linejoin:round;}
	.st10{fill:#302370;stroke:#FFFFFF;stroke-width:15;stroke-linecap:round;stroke-linejoin:round;}
	.st11{fill:url(#SVGID_11_);stroke:#FFFFFF;stroke-width:15;stroke-linecap:round;stroke-linejoin:round;}
	.st12{fill:url(#SVGID_12_);stroke:#FFFFFF;stroke-width:15;stroke-linecap:round;stroke-linejoin:round;}
	.st13{fill:url(#SVGID_13_);stroke:#FFFFFF;stroke-width:15;stroke-linecap:round;stroke-linejoin:round;}
	.st14{fill:url(#SVGID_14_);stroke:#FFFFFF;stroke-width:15;stroke-linecap:round;stroke-linejoin:round;}
	.st15{fill:url(#SVGID_15_);stroke:#FFFFFF;stroke-width:15;stroke-linecap:round;stroke-linejoin:round;}
	.st16{fill:url(#SVGID_16_);stroke:#FFFFFF;stroke-width:15;stroke-linecap:round;stroke-linejoin:round;}
	.st17{fill:url(#SVGID_17_);stroke:#FFFFFF;stroke-width:15;stroke-linecap:round;stroke-linejoin:round;}
	.st18{fill:url(#SVGID_18_);stroke:#FFFFFF;stroke-width:15;stroke-linecap:round;stroke-linejoin:round;}
	.st19{fill:url(#SVGID_19_);stroke:#FFFFFF;stroke-width:15;stroke-linecap:round;stroke-linejoin:round;}
	.st20{fill:url(#SVGID_20_);stroke:#FFFFFF;stroke-width:15;stroke-linecap:round;stroke-linejoin:round;}
	.st21{fill:url(#SVGID_21_);stroke:#FFFFFF;stroke-width:15;stroke-linecap:round;stroke-linejoin:round;}
	.st22{fill:url(#SVGID_22_);stroke:#FFFFFF;stroke-width:15;stroke-linecap:round;stroke-linejoin:round;}
	.st23{fill:url(#SVGID_23_);stroke:#FFFFFF;stroke-width:15;stroke-linecap:round;stroke-linejoin:round;}
	.st24{fill:url(#SVGID_24_);stroke:#FFFFFF;stroke-width:15;stroke-linecap:round;stroke-linejoin:round;}
	.st25{fill:url(#SVGID_25_);stroke:#FFFFFF;stroke-width:15;stroke-linecap:round;stroke-linejoin:round;}
	.st26{fill:url(#SVGID_26_);stroke:#FFFFFF;stroke-width:15;stroke-linecap:round;stroke-linejoin:round;}
	.st27{fill:url(#SVGID_27_);stroke:#FFFFFF;stroke-width:15;stroke-linecap:round;stroke-linejoin:round;}
	.st28{fill:url(#SVGID_28_);stroke:#FFFFFF;stroke-width:15;stroke-linecap:round;stroke-linejoin:round;}
	.st29{fill:url(#SVGID_30_);stroke:#FFFFFF;stroke-width:15;stroke-linecap:round;stroke-linejoin:round;}
	.st30{fill:#FFCA05;stroke:#FFFFFF;stroke-width:15;stroke-linecap:round;stroke-linejoin:round;}
	.st31{fill:#7D8069;stroke:#FFFFFF;stroke-width:15;stroke-linecap:round;stroke-linejoin:round;}
	.st32{fill:#C79F08;stroke:#FFFFFF;stroke-width:15;stroke-linecap:round;stroke-linejoin:round;}
	.st33{fill:none;stroke:#FFFFFF;stroke-width:15;stroke-linecap:round;stroke-linejoin:round;}
	.st34{fill:url(#SVGID_32_);stroke:#FFFFFF;stroke-width:15;stroke-linecap:round;stroke-linejoin:round;}
	.st35{fill:url(#SVGID_33_);stroke:#FFFFFF;stroke-width:15;stroke-linecap:round;stroke-linejoin:round;}
	.st36{fill:#1E2D60;stroke:#FFFFFF;stroke-width:15;stroke-linecap:round;stroke-linejoin:round;}
	.st37{fill:url(#SVGID_34_);stroke:#FFFFFF;stroke-width:15;stroke-linecap:round;stroke-linejoin:round;}
	.st38{fill:url(#SVGID_35_);stroke:#FFFFFF;stroke-width:15;stroke-linecap:round;stroke-linejoin:round;}
	.st39{fill:url(#SVGID_36_);stroke:#FFFFFF;stroke-width:15;stroke-linecap:round;stroke-linejoin:round;}
	.st40{fill:url(#SVGID_37_);}
	.st41{fill:url(#SVGID_38_);}
	.st42{fill:url(#SVGID_39_);}
	.st43{fill:url(#SVGID_40_);}
	.st44{fill:url(#SVGID_41_);}
	.st45{fill:url(#SVGID_42_);}
	.st46{fill:url(#SVGID_43_);}
	.st47{fill:url(#SVGID_44_);}
	.st48{fill:url(#SVGID_45_);}
	.st49{fill:#302370;}
	.st50{fill:url(#SVGID_46_);}
	.st51{fill:url(#SVGID_47_);}
	.st52{fill:url(#SVGID_48_);}
	.st53{fill:url(#SVGID_49_);}
	.st54{fill:url(#SVGID_50_);}
	.st55{fill:url(#SVGID_51_);}
	.st56{fill:url(#SVGID_52_);}
	.st57{fill:url(#SVGID_53_);}
	.st58{fill:url(#SVGID_54_);}
	.st59{fill:url(#SVGID_55_);}
	.st60{fill:url(#SVGID_56_);}
	.st61{fill:url(#SVGID_57_);}
	.st62{fill:url(#SVGID_58_);}
	.st63{fill:url(#SVGID_59_);}
	.st64{fill:url(#SVGID_60_);}
	.st65{fill:url(#SVGID_61_);}
	.st66{fill:url(#SVGID_62_);}
	.st67{fill:url(#SVGID_63_);}
	.st68{fill:url(#SVGID_64_);}
	.st69{fill:#FFCA05;}
	.st70{fill:#7D8069;}
	.st71{fill:#C79F08;}
	.st72{fill:url(#SVGID_65_);}
	.st73{fill:url(#SVGID_66_);}
	.st74{fill:#1E2D60;}
	.st75{fill:url(#SVGID_67_);}
	.st76{fill:url(#SVGID_68_);}
	.st77{fill:url(#SVGID_69_);}
</style>
<linearGradient id="SVGID_1_" gradientUnits="userSpaceOnUse" x1="440" y1="-5.4854" x2="440" y2="405.4854">
	<stop  offset="0" style="stop-color:#3B5AA6"/>
	<stop  offset="1" style="stop-color:#2A75BA"/>
</linearGradient>
<rect x="-12.1" y="-5.5" class="st0" width="904.1" height="411"/>
<g>
	<g>
		
			<linearGradient id="SVGID_2_" gradientUnits="userSpaceOnUse" x1="-591.5024" y1="-272.1824" x2="-575.1697" y2="-200.0399" gradientTransform="matrix(1.1656 -4.460000e-02 4.460000e-02 1.1656 795.3208 433.1896)">
			<stop  offset="0" style="stop-color:#1D2C5F"/>
			<stop  offset="1" style="stop-color:#0071B8"/>
		</linearGradient>
		<polygon class="st1" points="114.3,210.2 124.1,200.3 92.5,146.9 82.7,156.8 		"/>
		
			<linearGradient id="SVGID_3_" gradientUnits="userSpaceOnUse" x1="-60.2242" y1="-431.5274" x2="-69.0691" y2="-400.2273" gradientTransform="matrix(1.1664 0 0 1.1664 630.7469 610.2896)">
			<stop  offset="0" style="stop-color:#1D2C5F"/>
			<stop  offset="1" style="stop-color:#0071B8"/>
		</linearGradient>
		<polygon class="st2" points="551.5,121.8 563.6,115.4 564.8,108.3 552.8,114.8 		"/>
		
			<linearGradient id="SVGID_4_" gradientUnits="userSpaceOnUse" x1="-148.3995" y1="-473.7256" x2="-167.4559" y2="-427.446" gradientTransform="matrix(1.1664 0 0 1.1664 635.1454 605.1627)">
			<stop  offset="0" style="stop-color:#1D2C5F"/>
			<stop  offset="1" style="stop-color:#0071B8"/>
		</linearGradient>
		<polygon class="st3" points="415.8,122.4 428,116.1 476.4,60.3 464.5,66.6 		"/>
		
			<linearGradient id="SVGID_5_" gradientUnits="userSpaceOnUse" x1="88.8217" y1="-417.0531" x2="73.8523" y2="-375.5464" gradientTransform="matrix(1.1664 0 0 1.1664 634.076 611.5533)">
			<stop  offset="0" style="stop-color:#1D2C5F"/>
			<stop  offset="1" style="stop-color:#0071B8"/>
		</linearGradient>
		<polygon class="st4" points="725.2,143 737.1,136.5 731.8,158.1 719.9,164.3 		"/>
		
			<linearGradient id="SVGID_6_" gradientUnits="userSpaceOnUse" x1="68.3493" y1="-265.4627" x2="64.9467" y2="-438.9838" gradientTransform="matrix(1.1664 0 0 1.1664 633.202 611.8453)">
			<stop  offset="0" style="stop-color:#1D2C5F"/>
			<stop  offset="1" style="stop-color:#0071B8"/>
		</linearGradient>
		<polygon class="st5" points="727.2,315.7 739.2,309.3 698.7,296.5 686.8,302.8 		"/>
		
			<linearGradient id="SVGID_7_" gradientUnits="userSpaceOnUse" x1="10.1758" y1="-374.2181" x2="61.9025" y2="-422.5422" gradientTransform="matrix(1.1664 0 0 1.1664 634.076 611.5533)">
			<stop  offset="0" style="stop-color:#1D2C5F"/>
			<stop  offset="1" style="stop-color:#0071B8"/>
		</linearGradient>
		<polygon class="st6" points="660.7,164.6 672.6,158.3 662.9,156.1 650.9,162.3 		"/>
		
			<linearGradient id="SVGID_8_" gradientUnits="userSpaceOnUse" x1="-179.3951" y1="-261.4724" x2="-182.799" y2="-435.058" gradientTransform="matrix(1.1664 0 0 1.1664 627.5887 609.0748)">
			<stop  offset="0" style="stop-color:#1D2C5F"/>
			<stop  offset="1" style="stop-color:#0071B8"/>
		</linearGradient>
		<polygon class="st7" points="415,137.7 425.4,132.1 416.9,139 404.8,145.4 		"/>
		
			<linearGradient id="SVGID_9_" gradientUnits="userSpaceOnUse" x1="50.7869" y1="-265.1673" x2="47.3834" y2="-438.7278" gradientTransform="matrix(1.1664 0 0 1.1664 633.5663 611.6998)">
			<stop  offset="0" style="stop-color:#1D2C5F"/>
			<stop  offset="1" style="stop-color:#0071B8"/>
		</linearGradient>
		<polygon class="st8" points="686.5,287 698.3,280.6 698.7,296.5 686.8,302.8 		"/>
		
			<linearGradient id="SVGID_10_" gradientUnits="userSpaceOnUse" x1="57.3831" y1="-446.9713" x2="38.325" y2="-415.6609" gradientTransform="matrix(1.1664 9.700000e-03 -9.700000e-03 1.1664 595.0251 646.592)">
			<stop  offset="0" style="stop-color:#1D2C5F"/>
			<stop  offset="1" style="stop-color:#0071B8"/>
		</linearGradient>
		<polygon class="st9" points="650.9,162.3 662.9,156.1 662.3,120 650.4,126.6 		"/>
		<polygon class="st10" points="647.6,281.4 659.5,275.1 672.5,158.3 660.7,164.6 		"/>
		
			<linearGradient id="SVGID_11_" gradientUnits="userSpaceOnUse" x1="34.4472" y1="-264.7936" x2="31.0419" y2="-438.4493" gradientTransform="matrix(1.1664 0 0 1.1664 633.202 611.8453)">
			<stop  offset="0" style="stop-color:#1D2C5F"/>
			<stop  offset="1" style="stop-color:#0071B8"/>
		</linearGradient>
		<polygon class="st11" points="686.5,287 698.3,280.6 659.5,275.1 647.6,281.4 		"/>
		
			<linearGradient id="SVGID_12_" gradientUnits="userSpaceOnUse" x1="-25.0773" y1="-272.7505" x2="-31.8823" y2="-437.4043" gradientTransform="matrix(1.1664 0 0 1.1664 629.119 607.1793)">
			<stop  offset="0" style="stop-color:#1D2C5F"/>
			<stop  offset="1" style="stop-color:#0071B8"/>
		</linearGradient>
		<polygon class="st12" points="622.9,286.1 634.6,279.7 576.1,269.3 564.2,275.7 		"/>
		
			<linearGradient id="SVGID_13_" gradientUnits="userSpaceOnUse" x1="-51.4923" y1="-264.7742" x2="-54.895" y2="-438.291" gradientTransform="matrix(1.1664 0 0 1.1664 629.411 606.5963)">
			<stop  offset="0" style="stop-color:#1D2C5F"/>
			<stop  offset="1" style="stop-color:#0071B8"/>
		</linearGradient>
		<polygon class="st13" points="564.2,275.7 576.1,269.3 573.1,243.2 561.1,249.7 		"/>
		
			<linearGradient id="SVGID_14_" gradientUnits="userSpaceOnUse" x1="-65.26" y1="-264.4928" x2="-68.6637" y2="-438.0655" gradientTransform="matrix(1.1664 0 0 1.1664 629.3133 606.5963)">
			<stop  offset="0" style="stop-color:#1D2C5F"/>
			<stop  offset="1" style="stop-color:#0071B8"/>
		</linearGradient>
		<polygon class="st14" points="553,265.5 564.8,259 551.6,234.2 539.7,240.9 		"/>
		
			<linearGradient id="SVGID_15_" gradientUnits="userSpaceOnUse" x1="-95.2259" y1="-270.0713" x2="-102.0353" y2="-434.8327" gradientTransform="matrix(1.1664 0 0 1.1664 629.5077 606.4019)">
			<stop  offset="0" style="stop-color:#1D2C5F"/>
			<stop  offset="1" style="stop-color:#0071B8"/>
		</linearGradient>
		<polygon class="st15" points="536.8,259.1 548.5,252.8 497,244.7 485.1,250.8 		"/>
		
			<linearGradient id="SVGID_16_" gradientUnits="userSpaceOnUse" x1="-117.3573" y1="-362.2135" x2="-64.9483" y2="-366.9777" gradientTransform="matrix(1.1664 0 0 1.1664 629.5077 606.4019)">
			<stop  offset="0" style="stop-color:#1D2C5F"/>
			<stop  offset="1" style="stop-color:#0071B8"/>
		</linearGradient>
		<polygon class="st16" points="485.1,250.8 497,244.7 518.1,115.4 506.3,121.9 		"/>
		
			<linearGradient id="SVGID_17_" gradientUnits="userSpaceOnUse" x1="-192.7643" y1="-402.9005" x2="-108.3718" y2="-460.7506" gradientTransform="matrix(1.1664 0 0 1.1664 635.1454 605.236)">
			<stop  offset="0" style="stop-color:#1D2C5F"/>
			<stop  offset="1" style="stop-color:#0071B8"/>
		</linearGradient>
		<polygon class="st17" points="424.3,132.6 436.3,126.5 428,116.2 415.8,122.5 		"/>
		
			<linearGradient id="SVGID_18_" gradientUnits="userSpaceOnUse" x1="-16.4544" y1="-436.9698" x2="-19.8582" y2="-610.5494" gradientTransform="matrix(1.1651 5.600000e-02 -5.600000e-02 1.1651 401.44 814.3419)">
			<stop  offset="0" style="stop-color:#1D2C5F"/>
			<stop  offset="1" style="stop-color:#0071B8"/>
		</linearGradient>
		<polygon class="st18" points="354.3,237.7 366.1,231.2 461.8,278.7 449.9,285 		"/>
		
			<linearGradient id="SVGID_19_" gradientUnits="userSpaceOnUse" x1="-220.625" y1="-438.6226" x2="-232.8754" y2="-410.7197" gradientTransform="matrix(1.1664 0 0 1.1664 628.7792 609.0748)">
			<stop  offset="0" style="stop-color:#1D2C5F"/>
			<stop  offset="1" style="stop-color:#0071B8"/>
		</linearGradient>
		<polygon class="st19" points="348.7,136.2 360.8,129.6 375.1,102.2 363.2,108.7 		"/>
		
			<linearGradient id="SVGID_20_" gradientUnits="userSpaceOnUse" x1="-191.7676" y1="-317.8135" x2="-195.1708" y2="-491.3517" gradientTransform="matrix(1.1663 1.820000e-02 -1.820000e-02 1.1663 555.252 672.4879)">
			<stop  offset="0" style="stop-color:#1D2C5F"/>
			<stop  offset="1" style="stop-color:#0071B8"/>
		</linearGradient>
		<polygon class="st20" points="308.4,285.5 320.4,279.1 366.2,272.4 354,278.8 		"/>
		
			<linearGradient id="SVGID_21_" gradientUnits="userSpaceOnUse" x1="-200.1832" y1="-387.6735" x2="-247.132" y2="-377.4671" gradientTransform="matrix(1.1663 1.820000e-02 -1.820000e-02 1.1663 555.252 672.4879)">
			<stop  offset="0" style="stop-color:#1D2C5F"/>
			<stop  offset="1" style="stop-color:#0071B8"/>
		</linearGradient>
		<polygon class="st21" points="308.4,285.5 320.4,279.1 309,156 297.2,162.3 		"/>
		
			<linearGradient id="SVGID_22_" gradientUnits="userSpaceOnUse" x1="-290.9713" y1="-422.4586" x2="-289.6111" y2="-375.5038" gradientTransform="matrix(1.1664 0 0 1.1664 629.702 608.5162)">
			<stop  offset="0" style="stop-color:#1D2C5F"/>
			<stop  offset="1" style="stop-color:#0071B8"/>
		</linearGradient>
		<polygon class="st22" points="286,165.2 298,158.8 296.2,124 284.3,130.5 		"/>
		
			<linearGradient id="SVGID_23_" gradientUnits="userSpaceOnUse" x1="-501.0975" y1="-126.2294" x2="-504.5007" y2="-299.7703" gradientTransform="matrix(1.1656 -4.460000e-02 4.460000e-02 1.1656 797.0952 432.631)">
			<stop  offset="0" style="stop-color:#1D2C5F"/>
			<stop  offset="1" style="stop-color:#0071B8"/>
		</linearGradient>
		<polygon class="st23" points="189.1,312.7 177.2,320.7 225.6,305.1 237.7,297.2 		"/>
		
			<linearGradient id="SVGID_24_" gradientUnits="userSpaceOnUse" x1="-538.3793" y1="-165.1867" x2="-580.5773" y2="-282.936" gradientTransform="matrix(1.1656 -4.460000e-02 4.460000e-02 1.1656 794.9565 433.4084)">
			<stop  offset="0" style="stop-color:#1D2C5F"/>
			<stop  offset="1" style="stop-color:#0071B8"/>
		</linearGradient>
		<polygon class="st24" points="136.1,194.6 126.2,205.1 177.2,320.7 189.1,312.7 		"/>
		
			<linearGradient id="SVGID_25_" gradientUnits="userSpaceOnUse" x1="-909.7672" y1="229.444" x2="-943.1176" y2="100.8082" gradientTransform="matrix(1.1524 -0.1803 0.1803 1.1524 1285.9979 -140.4935)">
			<stop  offset="0" style="stop-color:#1D2C5F"/>
			<stop  offset="1" style="stop-color:#0071B8"/>
		</linearGradient>
		<path class="st25" d="M265.7,273.6c-12.5-3.6-22.6-12.3-28.3-24.5c-2.9-6.2-5.6-20.1-5.7-26.9c-2.7,3.1-8.3,6.5-12.2,8.5
			c0,0,2.6,13.6,6,23.1c3.4,9.5,11.4,17.2,11.4,17.2c5.1,5,11.4,8.6,18.5,10.7c13.5,3.9,28.8,1.4,41.9-7c3.4-2.2,8.1-5.7,11-8.4
			C295.3,274.2,278.9,277.5,265.7,273.6z"/>
		
			<linearGradient id="SVGID_26_" gradientUnits="userSpaceOnUse" x1="-282.3718" y1="-259.6884" x2="-285.7736" y2="-433.1704" gradientTransform="matrix(1.1664 0 0 1.1664 629.702 608.5162)">
			<stop  offset="0" style="stop-color:#1D2C5F"/>
			<stop  offset="1" style="stop-color:#0071B8"/>
		</linearGradient>
		<polygon class="st26" points="286,165.2 297.2,162.3 309,156 298,158.8 		"/>
		
			<linearGradient id="SVGID_27_" gradientUnits="userSpaceOnUse" x1="-422.4885" y1="-256.0651" x2="-425.8926" y2="-429.6598" gradientTransform="matrix(1.1664 0 0 1.1664 620.1523 611.3112)">
			<stop  offset="0" style="stop-color:#1D2C5F"/>
			<stop  offset="1" style="stop-color:#0071B8"/>
		</linearGradient>
		<polygon class="st27" points="114.3,210.2 124.1,200.3 136.1,194.6 126.2,205.1 		"/>
		<g>
			
				<linearGradient id="SVGID_28_" gradientUnits="userSpaceOnUse" x1="276.9927" y1="-545.5934" x2="273.5912" y2="-719.0576" gradientTransform="matrix(1.1632 8.720000e-02 -8.720000e-02 1.1632 274.1972 913.9901)">
				<stop  offset="0" style="stop-color:#1D2C5F"/>
				<stop  offset="1" style="stop-color:#0071B8"/>
			</linearGradient>
			<path class="st28" d="M631.3,259.6l0.7,5.7c4.2-0.5,8.6-1,12.3-2.3c4.4-1.5,13.9-5.7,17.5-8.9c-1.3,0.5-7.7,3.5-9.1,3.9
				C645.5,260.1,638.1,260.4,631.3,259.6z"/>
		</g>
		<g>
			
				<linearGradient id="SVGID_30_" gradientUnits="userSpaceOnUse" x1="-566.9385" y1="-853.1353" x2="-570.342" y2="-1026.6912" gradientTransform="matrix(1.3092 -2.320000e-02 2.150000e-02 1.4152 1244.5571 1501.3425)">
				<stop  offset="0" style="stop-color:#1D2C5F"/>
				<stop  offset="1" style="stop-color:#0071B8"/>
			</linearGradient>
			<path class="st29" d="M461.6,232.8l0.2,6.5c9.8-1.4,18.2-5.1,26.5-10c5.2-3.1,10.9-7.8,12.7-9c-1.3,0.8-2.6,1.3-3.9,2
				C489.4,226.5,468.9,232.6,461.6,232.8z"/>
		</g>
		<path class="st30" d="M737.1,136.7l-5.2,21.5l-4.9-23.9l-64.6-14.2l0.5,35.9l9.7,2.2l-0.7,6.5c-0.1,0-0.2-0.1-0.3-0.2
			c-12-6.4-27-7-41.1-1.7c-4.7,1.8-9.1,4.2-13.1,7.1l-9.7-61.6h-43l-1.2,7.1h-45.3l-5.2,31.7l-3.8-4.6c-11-13.5-26.9-20.9-44.5-21.3
			l38.4-20.6l-26.8-40l-48.4,55.7l8.4,10.2c-7.6,3.1-14.2,7.4-19.6,12.5l-41.5-36.8L360.6,130l0.6-26.7L296.3,124l1.7,34.9l11-2.9
			l1.6,17.7c-12.6-5.7-27.8-5.6-41.8,0.4c-4.2,1.8-8.1,4-11.7,6.6c2.4-10.8,1.9-21.4-2.2-30.8c-4.9-11.2-13.4-20.4-23.8-26.3
			c-7.3-4.9-16.1-7.9-25.2-8.9c-22.4-3.9-49.4,0.1-75.9,11.4c-9.7,4.2-18.9,8.9-27.1,14.1l-10.4,6.6l6.3,10.6l19.4,32.8l6,10.1
			l10.5-5.2l1.5-0.7l48.3,107.8l4.7,10.4l10.8-3.5l26.2-8.4l11.5-3.7l-3-11.6l-13.9-53.3c4-2.9,7.7-6.1,11.2-9.4
			c-0.8,6.4-0.4,12.8,1.4,19c3.6,12.9,12.1,23.1,23.8,28.8c12.7,6.1,28.2,6.1,42.5,0c7.2-3.1,13.6-7.5,19-12.8l2,21.2l45.8-6.7
			l-0.1-41.1l95.7,47.3v-45.8c3.9-0.3,7.8-0.9,11.7-1.9c10.2-2.3,19.2-5.8,27.2-10.6l-4,24.6l51.6,8.1l2.9-18.6l13.5,24.9l8.2-15.9
			l3,26l58.5,10.3l-3.1-19.7c8,0.9,16.5-0.2,24.6-3.2c2-0.7,3.9-1.6,5.7-2.5l-2.4,21l38.9,5.5l0.3,16l40.6,12.8L792.1,150
			L737.1,136.7z M387.3,185.7l12.3-11.9c-0.5,5.5-0.2,11.2,0.9,17L387.3,185.7z M508,177.5l-8.4-7.6l9-9.6l2.7-2.9L508,177.5z
			 M207.3,196.5l-1.8,1.6l-0.7-2.4l-7.5-24.4l-0.5-1.7l1.7-0.3c3.9-0.7,7.6-0.3,10.6,1.1c1.8,0.9,5,2.9,5.7,6.8
			C216.1,184.8,213.9,190.6,207.3,196.5z M444.8,180.3l-1.4,1.6l-1-1.9c-3.3-6-2.4-13.5,2.2-18.6c4.5-4.9,11.4-6.5,17.7-4.1l2,0.8
			l-1.4,1.6L444.8,180.3z"/>
		<path class="st31" d="M484,184.4c-0.1,0.2-0.3,0.4-0.5,0.5C483.7,184.8,483.9,184.6,484,184.4L484,184.4z"/>
		<polygon class="st31" points="502.3,183.3 503.8,173.8 508,177.5 499.5,170 508.6,160.3 505.5,163.6 505.6,163.2 502.8,166.1 
			493.8,175.7 		"/>
		<polygon class="st31" points="508,177.5 511.3,157.5 508.6,160.3 499.5,170 		"/>
		<polygon class="st31" points="387.3,185.7 387.4,185.7 387.4,185.7 		"/>
		<g>
			<path class="st32" d="M437.2,194c0.7,0.7,0.1,0.2,0.9,0.8l5.5-3.9c-0.8-0.6-1.6-1.2-2.4-1.9c-8-7.3-5.9-23.7-0.7-32.7
				C426.8,167.4,427.6,184.3,437.2,194z"/>
			<g>
				<path class="st32" d="M503.8,203.2c-9.1,7.5-19.5,12.4-33.2,15.7c-3,0.7-5.9,1.2-8.8,1.5c-21.8,2.1-40-7.9-47-24.1
					c-0.8-1.9-1.5-4-2-6.1c-3.2-13.7-0.5-25.9,6.3-35.4c0.6-0.9,1.4-1.8,2.1-2.7c-0.3,0.3-0.7,0.5-1,0.8c-2.6,2.3-4.9,4.8-6.8,7.6
					c-6.8,9.6-9.5,21.8-6.3,35.4c0.5,2.1,1.2,4.1,2,6.1c7,16.2,25.2,26.2,47,24.1c2.9-0.3,5.8-0.8,8.8-1.5
					c13.7-3.3,24.1-8.2,33.2-15.8c2.2-1.8,4.4-3.8,6.5-6l-0.2-0.2C504.2,202.9,504,203,503.8,203.2z"/>
				<polygon class="st32" points="374.7,127.7 373.7,126.8 350.2,159.8 350.3,161.9 				"/>
				<polygon class="st32" points="505.6,163.2 505.5,163.6 508.6,160.3 511.3,157.5 508,177.5 503.8,173.8 502.3,183.3 493.8,175.7 
					502.8,166.1 				"/>
				<polygon class="st32" points="488.4,97.6 474.3,78.3 469,84.6 481.2,101.2 				"/>
				<path class="st32" d="M243.2,155c-3.8-8.9-10.5-15.8-19.2-20.7c-6.3-4.2-13.6-6.2-20.4-7c-19.3-3.4-43.5-0.2-68.8,10.6
					c-9,3.8-17.5,8.2-25.2,13.1l1,1.7c5.9-3.3,12-6.4,18.5-9.1c25.3-10.8,49.4-14,68.8-10.6c6.8,0.8,14.1,2.8,20.4,7
					c8.7,4.9,15.3,11.8,19.2,20.7c6.9,15.8,0.8,36.7-15.3,54.3C242.4,196.4,250.8,172.5,243.2,155z"/>
				<path class="st32" d="M325.5,206.5c-0.2-0.9-0.4-1.8-0.6-2.6c-2.3-8-7-14.3-13.2-18.5c-10.1-6.9-24.2-8.3-38.2-2.3
					c-7.4,3.2-13.8,8.1-18.9,14c3.9-3.4,8.3-6.2,13.2-8.3c14-5.9,28.1-4.5,38.2,2.3c6.3,4.2,11,10.6,13.2,18.6
					c0.2,0.9,0.4,1.7,0.6,2.6c0.6,3,0.9,6.1,0.8,9.2c-0.3,9.2-3.7,18.4-9.4,26.3c-0.9,1.2-1.8,2.4-2.8,3.5c3.2-2.8,6.1-5.9,8.5-9.3
					c5.7-7.9,9.1-17.1,9.4-26.3C326.4,212.6,326.2,209.5,325.5,206.5z"/>
				<path class="st32" d="M286.8,194.8c-0.1,0.1,5.7-5.7,5.6-5.7c-7.2-0.2-10.2,6.5-10.5,7.1C283.4,195.4,285.1,195,286.8,194.8z"/>
				<path class="st32" d="M300.4,203.1c0.3,0.9,0.5,2,0.5,3c0,1.5-0.3,2.9-0.9,4.3c1.1-0.6,9.5-4.6,6.2-13.2
					C306.3,197.5,300.2,203.1,300.4,203.1z"/>
				<path class="st32" d="M267.6,207.9c0-3.5,6-12.1,7.9-14.9c-9.5,6.1-13.6,14.2-13.6,20.7c0,11.1,9.7,19.9,21.3,19.9
					c5.5,0,15.5-2.9,22.1-13.5c-3.4,2.3-12.2,7.7-16.8,7.7C276.9,227.7,267.6,218.9,267.6,207.9z"/>
				<polygon class="st32" points="349.3,262.6 355,261.8 355,212.1 349.2,218 				"/>
				<polygon class="st32" points="344.7,169.7 350.3,161.9 347.9,121.2 308.5,133 308.7,136.9 342.2,127 				"/>
				<g>
					<polygon class="st32" points="379.4,121.1 374.7,127.7 402.4,153.8 407.8,148.1 					"/>
					<path class="st32" d="M423.9,224.3c-8-4.9-14.3-11.7-18.5-19.5L368.2,190l-5.4,5.7l36.9,14.8c4.2,7.9,10.5,14.6,18.5,19.5
						c7.7,4.8,16.5,7.6,25.9,8.5v18.2l5.7,2.9v-26.8C440.4,231.9,431.6,229,423.9,224.3z"/>
				</g>
				<g>
					<path class="st32" d="M464.6,197.1c9.1-2.2,14.4-6.9,18.9-12.2c-3.4,2.8-7.5,5.1-13.1,6.5c-3.1,0.8-7.4,1.5-10.1,1l-5.6,6
						C457.2,198.5,461.5,197.8,464.6,197.1z"/>
					<path class="st32" d="M449.6,135.2c-9.2,2.2-17.3,6.4-23.7,12c-1.7,1.5-3.3,3.2-4.7,4.9c6.2-5.2,14-9.1,22.7-11.2
						c20.8-5,39,1.3,50.3,15.3l5.6-6C488.6,136.5,470.3,130.2,449.6,135.2z"/>
				</g>
				<path class="st32" d="M504.3,202.7c2-1.7,4-3.5,5.9-5.5l-4.8-4.3l-15.8-14.2c-1.7,2-3.5,4-5.6,5.8l15.7,14.1L504.3,202.7z"/>
				<path class="st32" d="M618.8,256.6c-1.2-0.5-2.3-1-3.4-1.6c-11-5.9-18.8-16-21.8-28.6c-3.9-16.2,1.7-33.9,13.3-47.1l-9.1-59.1
					h-21.9l-1,5.7h17.2l9.1,59.1c-11.6,13.3-17.2,31-13.3,47.2c3,12.5,10.7,22.7,21.8,28.5c1.1,0.6,2.3,1.1,3.4,1.6l0.1,0.9l6.8,1
					L618.8,256.6z"/>
				<polygon class="st32" points="561.6,174.5 567.3,168.7 559.7,127 529,127 528.1,132.7 553.9,132.7 				"/>
				<polygon class="st32" points="565,229.7 566.9,233.8 579,202.4 573.3,208.1 				"/>
				<polygon class="st32" points="542.8,200.3 536.6,239.2 541.3,240 548.5,194.5 				"/>
				<path class="st32" d="M664.8,182c3.4,2.4,6.3,5.5,8.5,9.1c1.7,2.8,3,5.9,3.8,9.3c2.8,11.8-0.6,24.4-8,34.6c-0.7,1-1.6,2-2.4,3
					c3-2.6,5.8-5.6,8.1-8.7c7.4-10.2,10.8-22.8,8-34.6c-0.8-3.4-2.1-6.5-3.8-9.3c-2.2-3.6-5.1-6.7-8.5-9.1
					c-9.3-6.7-22.5-8.4-35.9-3.4c-5.7,2.2-10.9,5.5-15.4,9.5c-1.6,1.5-3.1,3.1-4.6,4.7c4.2-3.6,9-6.5,14.2-8.5
					C642.3,173.6,655.5,175.4,664.8,182z"/>
				<path class="st32" d="M644.9,184.6c0.1,0.3,5.7-5.8,5.8-5.8c-7,0.3-10.4,3.7-10.1,5.3c-0.4,0.6-0.8,1.2-1,1.8
					C641.1,185.2,643.9,184.6,644.9,184.6z"/>
				<path class="st32" d="M658.1,193.4c0.3,1,0.4,2,0.3,3c-0.1,1.3-0.4,2.6-0.9,3.8c1.1-0.5,9.5-3.1,6.3-12.5
					C664,188,658,193.5,658.1,193.4z"/>
				<path class="st32" d="M639.4,223.2c8,0.3,16.8-4.6,23.1-13.2c-3.7,2.4-12.6,7.5-17.5,7.3c-11.6-0.5-20.5-9.6-20.1-20.6
					c0.1-3.2,4.3-10.2,6-12.9c-6.1,4.5-11.5,13-11.8,19C618.8,213.8,627.8,222.8,639.4,223.2z"/>
				<polygon class="st32" points="744.7,150.5 743.1,157.2 771.1,163.4 728.2,293.5 731.6,294.5 776.8,157.6 				"/>
				<polygon class="st32" points="724.5,216.6 730.2,210.8 716,143.6 673.8,135.1 673.5,141.9 710.3,149.3 				"/>
				<polygon class="st32" points="691.4,268.2 695.9,268.9 707.3,205.1 701.5,210.8 				"/>
				<polygon class="st32" points="206.1,226.7 199.8,231.1 215.8,291 222.8,289.8 				"/>
				<path class="st32" d="M218.9,195.3c-4,4.2-12.8,12.4-17.8,15.6l-3-9.8l-6.7-21.5l-4.2-14.5l-4.1,5.3l4.2,14.5l6.7,21.5l3,9.8
					C203.8,211.8,213.8,203.5,218.9,195.3z"/>
			</g>
		</g>
		<path class="st31" d="M463.1,158.3c-5.4-2.1-13.1-1.5-17.3,3.1c-1,1.1-2.8,3.7-3.4,5c4-3.2,11.2-3.9,15.9-2.2L463.1,158.3z"/>
		<path class="st31" d="M213.9,177.7c-0.6-3.2-3.7-5.8-5.3-6.5c-2.8-1.3-7.5-1.5-11-0.9c0.6,2.2,1.4,4.7,1.7,5.7
			c1.4,0.2,3.7,0.6,5,1.2c1.5,0.7,4.2,2.5,4.8,5.7c0.8,4.3,0.6,8.3-1.2,11.6C212.8,189.7,215.2,184.4,213.9,177.7z"/>
		<g>
			<g>
				<path id="SVGID_29_" class="st33" d="M470.4,156.4c-8.7-7.9-22.1-7.3-30,1.3c-7.9,8.7-7.3,22.1,1.3,30c0.7,0.7,1.5,1.2,2.3,1.8
					l27.9-31.6C471.4,157.4,471,156.8,470.4,156.4z"/>
			</g>
		</g>
		<g>
			<g>
				<path id="SVGID_31_" class="st33" d="M221.6,176.2c-2.2-11.9-17.9-18.6-33.4-10.1l4,13.7l6.3,20.2l2.9,9.2
					C213.1,201.8,224.7,192.8,221.6,176.2z"/>
			</g>
		</g>
		
			<linearGradient id="SVGID_32_" gradientUnits="userSpaceOnUse" x1="-503.0198" y1="-144.0511" x2="-504.9828" y2="-330.2378" gradientTransform="matrix(1.1655 -4.680000e-02 4.680000e-02 1.1655 803.3831 423.5767)">
			<stop  offset="0" style="stop-color:#3B5AA6"/>
			<stop  offset="1" style="stop-color:#2A75BA"/>
		</linearGradient>
		<path class="st34" d="M222.5,177.6c-2.4-12.7-19-19.7-35.4-10.7l4.2,14.5l6.7,21.5l3,9.8C213.4,204.7,225.8,195.2,222.5,177.6z
			 M206.2,197.1c-1.8-5.9-5.8-18.5-5.8-18.5c0,0.1-0.8-2.7-1.7-5.9c3.5-0.6,6.9-0.4,9.6,1c1.5,0.7,4.2,2.4,4.8,5.7
			C214.5,186.7,212.1,191.9,206.2,197.1z"/>
		
			<linearGradient id="SVGID_33_" gradientUnits="userSpaceOnUse" x1="-79.6273" y1="21.162" x2="-81.5902" y2="-165.0016" gradientTransform="matrix(1.1074 -3.460000e-02 3.460000e-02 1.1074 545.1458 238.8866)">
			<stop  offset="0" style="stop-color:#3B5AA6"/>
			<stop  offset="1" style="stop-color:#2A75BA"/>
		</linearGradient>
		<path class="st35" d="M471.7,157.4c-9.2-8.4-23.5-7.8-31.9,1.4c-8.4,9.2-7.8,23.5,1.4,31.9c0.8,0.7,1.6,1.3,2.4,1.9l29.7-33.6
			C472.8,158.5,472.3,158,471.7,157.4z M443.7,181.1c-2.9-5.3-2.3-12.1,2-16.8c4.2-4.6,10.6-5.9,16-3.7L443.7,181.1z"/>
		<polygon class="st36" points="511.3,153.8 494.9,169.6 510.6,183.6 		"/>
		<g>
			
				<linearGradient id="SVGID_34_" gradientUnits="userSpaceOnUse" x1="-164.1541" y1="116.8224" x2="-166.4851" y2="-104.2575" gradientTransform="matrix(1.1664 0 0 1.1664 635.534 179.5045)">
				<stop  offset="0" style="stop-color:#3B5AA6"/>
				<stop  offset="1" style="stop-color:#2A75BA"/>
			</linearGradient>
			<path class="st37" d="M737.1,136.7l-5.2,21.5l-4.9-23.9l-64.6-14.2l0.5,35.9l9.7,2.2l-0.7,6.5c-0.1,0-0.2-0.1-0.3-0.2
				c-12-6.4-27-7-41.1-1.7c-4.7,1.8-9.1,4.2-13.1,7.1l-9.7-61.6h-43l-1.2,7.1h-45.3l-5.2,31.7l-3.8-4.6
				c-11-13.5-26.9-20.9-44.5-21.3l38.4-20.6l-26.8-40l-48.4,55.7l8.4,10.2c-7.6,3.1-14.2,7.4-19.6,12.5l-41.5-36.8L360.6,130
				l0.6-26.7L296.3,124l1.7,34.9l11-2.9l1.6,17.7c-12.6-5.7-27.8-5.6-41.8,0.4c-4.2,1.8-8.1,4-11.7,6.6c2.4-10.8,1.9-21.4-2.2-30.8
				c-4.9-11.2-13.4-20.4-23.8-26.3c-7.3-4.9-16.1-7.9-25.2-8.9c-22.4-3.9-49.4,0.1-75.9,11.4c-9.7,4.2-18.9,8.9-27.1,14.1l-10.4,6.6
				l6.3,10.6l19.4,32.8l6,10.1l10.5-5.2l1.5-0.7l48.3,107.8l4.7,10.4l10.8-3.5l26.2-8.4l11.5-3.7l-3-11.6l-13.9-53.3
				c4-2.9,7.7-6.1,11.2-9.4c-0.8,6.4-0.4,12.8,1.4,19c3.6,12.9,12.1,23.1,23.8,28.8c12.7,6.1,28.2,6.1,42.5,0
				c7.2-3.1,13.6-7.5,19-12.8l2,21.2l45.8-6.7l-0.1-41.1l95.7,47.3v-45.8c3.9-0.3,7.8-0.9,11.7-1.9c10.2-2.3,19.2-5.8,27.2-10.6
				l-4,24.6l51.6,8.1l2.9-18.6l13.5,24.9l8.2-15.9l3,26l58.5,10.3l-3.1-19.7c8,0.9,16.5-0.2,24.6-3.2c2-0.7,3.9-1.6,5.7-2.5l-2.4,21
				l38.9,5.5l0.3,16l40.6,12.8L792.1,150L737.1,136.7z M508.6,160.3l2.7-2.9l-3.3,20.1l-8.4-7.6L508.6,160.3z M474.3,78.3l14.2,19.2
				l-40.6,20.1l-2.8-4.2L474.3,78.3z M400.5,190.8l-13.2-5.1l12.3-11.9C399.1,179.2,399.3,184.9,400.5,190.8z M206,226.8l16.1,62
				l-26.2,8.4l-53.7-119.9c-2.9,1.5-8.3,4.1-13.3,6.6l-19.4-32.8c7.8-4.9,16.2-9.3,25.2-13.1c25.3-10.8,49.4-14,68.8-10.6
				c6.8,0.8,14.1,2.8,20.4,7c8.7,4.9,15.4,11.8,19.2,20.7C252.6,176.5,236.9,207.7,206,226.8z M317,242
				c-5.4,7.5-12.9,13.8-21.8,17.6c-22.7,9.6-45.4,0-51.5-21.5c-5.9-20.9,7.8-45.6,29.8-55.1c14-5.9,28.1-4.5,38.2,2.3
				c6.2,4.2,11,10.6,13.2,18.5c0.2,0.9,0.4,1.7,0.6,2.6c0.6,3,0.9,6.1,0.8,9.2C326,224.9,322.6,234.2,317,242z M449.8,259.5
				L354.9,212l0.2,49.7l-24.6,3.4l-1.7-20.5c7.6-13,10.4-28.3,6.4-42.3c-2.2-7.7-6.2-14.4-11.7-19.8l-3.5-41.8l-11,2.9l-0.5-10.6
				l39.5-11.7l2.4,40.7l29-40.9l28.4,27L368.1,190l37.3,14.8c4.2,7.9,10.5,14.6,18.5,19.5c7.7,4.8,16.5,7.6,25.9,8.5V259.5
				L449.8,259.5z M470.6,218.9c-3,0.7-5.9,1.2-8.8,1.5c-21.8,2.1-40-7.9-47-24.1c-0.8-1.9-1.5-4-2-6.1c-3.2-13.7-0.5-25.9,6.3-35.4
				c2-2.8,4.2-5.3,6.8-7.6c6.4-5.7,14.5-9.8,23.7-12c20.8-5,39,1.3,50.2,15.1l-39.5,42.1c2.7,0.5,7-0.2,10.1-1
				c9.4-2.3,14.7-7.3,19.3-12.7l15.8,14.2l4.8,4.3c-2.1,2.2-4.3,4.1-6.5,6C494.7,210.7,484.3,215.6,470.6,218.9z M620,264.3
				l-32.3-4.9l-8.6-57l-12.2,31.4l-18.2-39.3h-0.2l-7.2,45.5l-30.3-5.3l4.3-25.4c1.1-1.1,2.3-2.2,3.4-3.3l9.8-10.1l-9.5-8.6l10-60.3
				h30.6l7.6,41.8l8.6-48.5h21.9l9.1,59.1c-11.6,13.2-17.2,30.9-13.3,47.1c3,12.5,10.7,22.7,21.8,28.6c1.1,0.6,2.3,1.1,3.4,1.6
				L620,264.3z M652.3,246.7c-7.8,3-15.6,3.6-22.5,2.2c-4.8-1-9.2-2.8-13.1-5.6c-6.1-4.4-10.6-10.9-12.5-19.1
				c-2.3-9.8-0.2-20.3,5.1-29.4c2.6-4.5,6-8.8,10-12.4c4.5-4,9.6-7.3,15.4-9.5c13.4-5,26.5-3.3,35.9,3.4c3.4,2.4,6.3,5.5,8.5,9.1
				c1.7,2.8,3,5.9,3.8,9.3c2.8,11.8-0.6,24.4-8,34.6c-3.2,4.3-7.1,8.2-11.5,11.4C659.9,243.2,656.3,245.2,652.3,246.7z M731.6,294.5
				l-22.4-6.7l-2-82.7l-11.3,63.8l-24.5-3.9l1.8-18.4c16-13.5,24.5-34.8,19.8-54.1c-2-8.6-6.4-16-12.7-21.7l2.1-21.7l-9.3-2.5
				l0.6-11.6l42.2,8.5l14.2,67.3l14.5-60.3l32.1,7.1L731.6,294.5z"/>
			
				<linearGradient id="SVGID_35_" gradientUnits="userSpaceOnUse" x1="9.1361" y1="35.7403" x2="8.7165" y2="-4.0589" gradientTransform="matrix(1.1664 0 0 1.1664 635.534 179.5045)">
				<stop  offset="0" style="stop-color:#3B5AA6"/>
				<stop  offset="1" style="stop-color:#2A75BA"/>
			</linearGradient>
			<path class="st38" d="M663.8,187.7c0.2,1,0.4,2,0.3,3c-0.2,6.3-6.1,11.1-13.1,10.9c-7-0.3-12.5-5.6-12.3-11.9
				c0.2-5.9,5.5-10.5,11.9-10.8c-1.2-0.3-2.5-0.4-3.8-0.5c-11.8-0.5-21.4,7.9-21.8,18.3c-0.5,11.1,8.5,20.2,20.1,20.6
				c11.8,0.5,21.4-7.9,21.8-18.9C667,194.5,665.9,190.8,663.8,187.7z"/>
			
				<linearGradient id="SVGID_36_" gradientUnits="userSpaceOnUse" x1="-297.3156" y1="44.2727" x2="-297.7273" y2="5.241" gradientTransform="matrix(1.1664 0 0 1.1664 635.534 179.5045)">
				<stop  offset="0" style="stop-color:#3B5AA6"/>
				<stop  offset="1" style="stop-color:#2A75BA"/>
			</linearGradient>
			<path class="st39" d="M306.6,200.4c0,6.3-5.7,11.3-12.8,11.3c-7,0-12.8-5.1-12.8-11.3c0-5.9,5-10.7,11.5-11.3
				c-1.3-0.2-2.5-0.3-3.9-0.3c-11.8,0-21.1,8.7-21.1,19.1c0,11.1,9.3,19.8,20.9,19.8c11.8,0,21.1-8.7,21.1-19.8
				c0-3.8-1.3-7.4-3.5-10.5C306.4,198.4,306.6,199.3,306.6,200.4z"/>
		</g>
	</g>
</g>
<g>
	<g>
		
			<linearGradient id="SVGID_37_" gradientUnits="userSpaceOnUse" x1="-591.5024" y1="-272.1824" x2="-575.1697" y2="-200.0399" gradientTransform="matrix(1.1656 -4.460000e-02 4.460000e-02 1.1656 795.3208 433.1896)">
			<stop  offset="0" style="stop-color:#1D2C5F"/>
			<stop  offset="1" style="stop-color:#0071B8"/>
		</linearGradient>
		<polygon class="st40" points="114.3,210.2 124.1,200.3 92.5,146.9 82.7,156.8 		"/>
		
			<linearGradient id="SVGID_38_" gradientUnits="userSpaceOnUse" x1="-60.2242" y1="-431.5274" x2="-69.0691" y2="-400.2273" gradientTransform="matrix(1.1664 0 0 1.1664 630.7469 610.2896)">
			<stop  offset="0" style="stop-color:#1D2C5F"/>
			<stop  offset="1" style="stop-color:#0071B8"/>
		</linearGradient>
		<polygon class="st41" points="551.5,121.8 563.6,115.4 564.8,108.3 552.8,114.8 		"/>
		
			<linearGradient id="SVGID_39_" gradientUnits="userSpaceOnUse" x1="-148.3995" y1="-473.7256" x2="-167.4559" y2="-427.446" gradientTransform="matrix(1.1664 0 0 1.1664 635.1454 605.1627)">
			<stop  offset="0" style="stop-color:#1D2C5F"/>
			<stop  offset="1" style="stop-color:#0071B8"/>
		</linearGradient>
		<polygon class="st42" points="415.8,122.4 428,116.1 476.4,60.3 464.5,66.6 		"/>
		
			<linearGradient id="SVGID_40_" gradientUnits="userSpaceOnUse" x1="88.8217" y1="-417.0531" x2="73.8523" y2="-375.5464" gradientTransform="matrix(1.1664 0 0 1.1664 634.076 611.5533)">
			<stop  offset="0" style="stop-color:#1D2C5F"/>
			<stop  offset="1" style="stop-color:#0071B8"/>
		</linearGradient>
		<polygon class="st43" points="725.2,143 737.1,136.5 731.8,158.1 719.9,164.3 		"/>
		
			<linearGradient id="SVGID_41_" gradientUnits="userSpaceOnUse" x1="68.3493" y1="-265.4627" x2="64.9467" y2="-438.9838" gradientTransform="matrix(1.1664 0 0 1.1664 633.202 611.8453)">
			<stop  offset="0" style="stop-color:#1D2C5F"/>
			<stop  offset="1" style="stop-color:#0071B8"/>
		</linearGradient>
		<polygon class="st44" points="727.2,315.7 739.2,309.3 698.7,296.5 686.8,302.8 		"/>
		
			<linearGradient id="SVGID_42_" gradientUnits="userSpaceOnUse" x1="10.1758" y1="-374.2181" x2="61.9025" y2="-422.5422" gradientTransform="matrix(1.1664 0 0 1.1664 634.076 611.5533)">
			<stop  offset="0" style="stop-color:#1D2C5F"/>
			<stop  offset="1" style="stop-color:#0071B8"/>
		</linearGradient>
		<polygon class="st45" points="660.7,164.6 672.6,158.3 662.9,156.1 650.9,162.3 		"/>
		
			<linearGradient id="SVGID_43_" gradientUnits="userSpaceOnUse" x1="-179.3951" y1="-261.4724" x2="-182.799" y2="-435.058" gradientTransform="matrix(1.1664 0 0 1.1664 627.5887 609.0748)">
			<stop  offset="0" style="stop-color:#1D2C5F"/>
			<stop  offset="1" style="stop-color:#0071B8"/>
		</linearGradient>
		<polygon class="st46" points="415,137.7 425.4,132.1 416.9,139 404.8,145.4 		"/>
		
			<linearGradient id="SVGID_44_" gradientUnits="userSpaceOnUse" x1="50.7869" y1="-265.1673" x2="47.3834" y2="-438.7278" gradientTransform="matrix(1.1664 0 0 1.1664 633.5663 611.6998)">
			<stop  offset="0" style="stop-color:#1D2C5F"/>
			<stop  offset="1" style="stop-color:#0071B8"/>
		</linearGradient>
		<polygon class="st47" points="686.5,287 698.3,280.6 698.7,296.5 686.8,302.8 		"/>
		
			<linearGradient id="SVGID_45_" gradientUnits="userSpaceOnUse" x1="57.3831" y1="-446.9713" x2="38.325" y2="-415.6609" gradientTransform="matrix(1.1664 9.700000e-03 -9.700000e-03 1.1664 595.0251 646.592)">
			<stop  offset="0" style="stop-color:#1D2C5F"/>
			<stop  offset="1" style="stop-color:#0071B8"/>
		</linearGradient>
		<polygon class="st48" points="650.9,162.3 662.9,156.1 662.3,120 650.4,126.6 		"/>
		<polygon class="st49" points="647.6,281.4 659.5,275.1 672.5,158.3 660.7,164.6 		"/>
		
			<linearGradient id="SVGID_46_" gradientUnits="userSpaceOnUse" x1="34.4472" y1="-264.7936" x2="31.0419" y2="-438.4493" gradientTransform="matrix(1.1664 0 0 1.1664 633.202 611.8453)">
			<stop  offset="0" style="stop-color:#1D2C5F"/>
			<stop  offset="1" style="stop-color:#0071B8"/>
		</linearGradient>
		<polygon class="st50" points="686.5,287 698.3,280.6 659.5,275.1 647.6,281.4 		"/>
		
			<linearGradient id="SVGID_47_" gradientUnits="userSpaceOnUse" x1="-25.0773" y1="-272.7505" x2="-31.8823" y2="-437.4043" gradientTransform="matrix(1.1664 0 0 1.1664 629.119 607.1793)">
			<stop  offset="0" style="stop-color:#1D2C5F"/>
			<stop  offset="1" style="stop-color:#0071B8"/>
		</linearGradient>
		<polygon class="st51" points="622.9,286.1 634.6,279.7 576.1,269.3 564.2,275.7 		"/>
		
			<linearGradient id="SVGID_48_" gradientUnits="userSpaceOnUse" x1="-51.4923" y1="-264.7742" x2="-54.895" y2="-438.291" gradientTransform="matrix(1.1664 0 0 1.1664 629.411 606.5963)">
			<stop  offset="0" style="stop-color:#1D2C5F"/>
			<stop  offset="1" style="stop-color:#0071B8"/>
		</linearGradient>
		<polygon class="st52" points="564.2,275.7 576.1,269.3 573.1,243.2 561.1,249.7 		"/>
		
			<linearGradient id="SVGID_49_" gradientUnits="userSpaceOnUse" x1="-65.26" y1="-264.4928" x2="-68.6637" y2="-438.0655" gradientTransform="matrix(1.1664 0 0 1.1664 629.3133 606.5963)">
			<stop  offset="0" style="stop-color:#1D2C5F"/>
			<stop  offset="1" style="stop-color:#0071B8"/>
		</linearGradient>
		<polygon class="st53" points="553,265.5 564.8,259 551.6,234.2 539.7,240.9 		"/>
		
			<linearGradient id="SVGID_50_" gradientUnits="userSpaceOnUse" x1="-95.2259" y1="-270.0713" x2="-102.0353" y2="-434.8327" gradientTransform="matrix(1.1664 0 0 1.1664 629.5077 606.4019)">
			<stop  offset="0" style="stop-color:#1D2C5F"/>
			<stop  offset="1" style="stop-color:#0071B8"/>
		</linearGradient>
		<polygon class="st54" points="536.8,259.1 548.5,252.8 497,244.7 485.1,250.8 		"/>
		
			<linearGradient id="SVGID_51_" gradientUnits="userSpaceOnUse" x1="-117.3573" y1="-362.2135" x2="-64.9483" y2="-366.9777" gradientTransform="matrix(1.1664 0 0 1.1664 629.5077 606.4019)">
			<stop  offset="0" style="stop-color:#1D2C5F"/>
			<stop  offset="1" style="stop-color:#0071B8"/>
		</linearGradient>
		<polygon class="st55" points="485.1,250.8 497,244.7 518.1,115.4 506.3,121.9 		"/>
		
			<linearGradient id="SVGID_52_" gradientUnits="userSpaceOnUse" x1="-192.7643" y1="-402.9005" x2="-108.3718" y2="-460.7506" gradientTransform="matrix(1.1664 0 0 1.1664 635.1454 605.236)">
			<stop  offset="0" style="stop-color:#1D2C5F"/>
			<stop  offset="1" style="stop-color:#0071B8"/>
		</linearGradient>
		<polygon class="st56" points="424.3,132.6 436.3,126.5 428,116.2 415.8,122.5 		"/>
		
			<linearGradient id="SVGID_53_" gradientUnits="userSpaceOnUse" x1="-16.4544" y1="-436.9698" x2="-19.8582" y2="-610.5494" gradientTransform="matrix(1.1651 5.600000e-02 -5.600000e-02 1.1651 401.44 814.3419)">
			<stop  offset="0" style="stop-color:#1D2C5F"/>
			<stop  offset="1" style="stop-color:#0071B8"/>
		</linearGradient>
		<polygon class="st57" points="354.3,237.7 366.1,231.2 461.8,278.7 449.9,285 		"/>
		
			<linearGradient id="SVGID_54_" gradientUnits="userSpaceOnUse" x1="-220.625" y1="-438.6226" x2="-232.8754" y2="-410.7197" gradientTransform="matrix(1.1664 0 0 1.1664 628.7792 609.0748)">
			<stop  offset="0" style="stop-color:#1D2C5F"/>
			<stop  offset="1" style="stop-color:#0071B8"/>
		</linearGradient>
		<polygon class="st58" points="348.7,136.2 360.8,129.6 375.1,102.2 363.2,108.7 		"/>
		
			<linearGradient id="SVGID_55_" gradientUnits="userSpaceOnUse" x1="-191.7676" y1="-317.8135" x2="-195.1708" y2="-491.3517" gradientTransform="matrix(1.1663 1.820000e-02 -1.820000e-02 1.1663 555.252 672.4879)">
			<stop  offset="0" style="stop-color:#1D2C5F"/>
			<stop  offset="1" style="stop-color:#0071B8"/>
		</linearGradient>
		<polygon class="st59" points="308.4,285.5 320.4,279.1 366.2,272.4 354,278.8 		"/>
		
			<linearGradient id="SVGID_56_" gradientUnits="userSpaceOnUse" x1="-200.1832" y1="-387.6735" x2="-247.132" y2="-377.4671" gradientTransform="matrix(1.1663 1.820000e-02 -1.820000e-02 1.1663 555.252 672.4879)">
			<stop  offset="0" style="stop-color:#1D2C5F"/>
			<stop  offset="1" style="stop-color:#0071B8"/>
		</linearGradient>
		<polygon class="st60" points="308.4,285.5 320.4,279.1 309,156 297.2,162.3 		"/>
		
			<linearGradient id="SVGID_57_" gradientUnits="userSpaceOnUse" x1="-290.9713" y1="-422.4586" x2="-289.6111" y2="-375.5038" gradientTransform="matrix(1.1664 0 0 1.1664 629.702 608.5162)">
			<stop  offset="0" style="stop-color:#1D2C5F"/>
			<stop  offset="1" style="stop-color:#0071B8"/>
		</linearGradient>
		<polygon class="st61" points="286,165.2 298,158.8 296.2,124 284.3,130.5 		"/>
		
			<linearGradient id="SVGID_58_" gradientUnits="userSpaceOnUse" x1="-501.0975" y1="-126.2294" x2="-504.5007" y2="-299.7703" gradientTransform="matrix(1.1656 -4.460000e-02 4.460000e-02 1.1656 797.0952 432.631)">
			<stop  offset="0" style="stop-color:#1D2C5F"/>
			<stop  offset="1" style="stop-color:#0071B8"/>
		</linearGradient>
		<polygon class="st62" points="189.1,312.7 177.2,320.7 225.6,305.1 237.7,297.2 		"/>
		
			<linearGradient id="SVGID_59_" gradientUnits="userSpaceOnUse" x1="-538.3793" y1="-165.1867" x2="-580.5773" y2="-282.936" gradientTransform="matrix(1.1656 -4.460000e-02 4.460000e-02 1.1656 794.9565 433.4084)">
			<stop  offset="0" style="stop-color:#1D2C5F"/>
			<stop  offset="1" style="stop-color:#0071B8"/>
		</linearGradient>
		<polygon class="st63" points="136.1,194.6 126.2,205.1 177.2,320.7 189.1,312.7 		"/>
		
			<linearGradient id="SVGID_60_" gradientUnits="userSpaceOnUse" x1="-909.7672" y1="229.444" x2="-943.1176" y2="100.8082" gradientTransform="matrix(1.1524 -0.1803 0.1803 1.1524 1285.9979 -140.4935)">
			<stop  offset="0" style="stop-color:#1D2C5F"/>
			<stop  offset="1" style="stop-color:#0071B8"/>
		</linearGradient>
		<path class="st64" d="M265.7,273.6c-12.5-3.6-22.6-12.3-28.3-24.5c-2.9-6.2-5.6-20.1-5.7-26.9c-2.7,3.1-8.3,6.5-12.2,8.5
			c0,0,2.6,13.6,6,23.1c3.4,9.5,11.4,17.2,11.4,17.2c5.1,5,11.4,8.6,18.5,10.7c13.5,3.9,28.8,1.4,41.9-7c3.4-2.2,8.1-5.7,11-8.4
			C295.3,274.2,278.9,277.5,265.7,273.6z"/>
		
			<linearGradient id="SVGID_61_" gradientUnits="userSpaceOnUse" x1="-282.3718" y1="-259.6884" x2="-285.7736" y2="-433.1704" gradientTransform="matrix(1.1664 0 0 1.1664 629.702 608.5162)">
			<stop  offset="0" style="stop-color:#1D2C5F"/>
			<stop  offset="1" style="stop-color:#0071B8"/>
		</linearGradient>
		<polygon class="st65" points="286,165.2 297.2,162.3 309,156 298,158.8 		"/>
		
			<linearGradient id="SVGID_62_" gradientUnits="userSpaceOnUse" x1="-422.4885" y1="-256.0651" x2="-425.8926" y2="-429.6598" gradientTransform="matrix(1.1664 0 0 1.1664 620.1523 611.3112)">
			<stop  offset="0" style="stop-color:#1D2C5F"/>
			<stop  offset="1" style="stop-color:#0071B8"/>
		</linearGradient>
		<polygon class="st66" points="114.3,210.2 124.1,200.3 136.1,194.6 126.2,205.1 		"/>
		<g>
			
				<linearGradient id="SVGID_63_" gradientUnits="userSpaceOnUse" x1="276.9927" y1="-545.5934" x2="273.5912" y2="-719.0576" gradientTransform="matrix(1.1632 8.720000e-02 -8.720000e-02 1.1632 274.1972 913.9901)">
				<stop  offset="0" style="stop-color:#1D2C5F"/>
				<stop  offset="1" style="stop-color:#0071B8"/>
			</linearGradient>
			<path class="st67" d="M631.3,259.6l0.7,5.7c4.2-0.5,8.6-1,12.3-2.3c4.4-1.5,13.9-5.7,17.5-8.9c-1.3,0.5-7.7,3.5-9.1,3.9
				C645.5,260.1,638.1,260.4,631.3,259.6z"/>
		</g>
		<g>
			
				<linearGradient id="SVGID_64_" gradientUnits="userSpaceOnUse" x1="-566.9385" y1="-853.1353" x2="-570.342" y2="-1026.6912" gradientTransform="matrix(1.3092 -2.320000e-02 2.150000e-02 1.4152 1244.5571 1501.3425)">
				<stop  offset="0" style="stop-color:#1D2C5F"/>
				<stop  offset="1" style="stop-color:#0071B8"/>
			</linearGradient>
			<path class="st68" d="M461.6,232.8l0.2,6.5c9.8-1.4,18.2-5.1,26.5-10c5.2-3.1,10.9-7.8,12.7-9c-1.3,0.8-2.6,1.3-3.9,2
				C489.4,226.5,468.9,232.6,461.6,232.8z"/>
		</g>
		<path class="st69" d="M737.1,136.7l-5.2,21.5l-4.9-23.9l-64.6-14.2l0.5,35.9l9.7,2.2l-0.7,6.5c-0.1,0-0.2-0.1-0.3-0.2
			c-12-6.4-27-7-41.1-1.7c-4.7,1.8-9.1,4.2-13.1,7.1l-9.7-61.6h-43l-1.2,7.1h-45.3l-5.2,31.7l-3.8-4.6c-11-13.5-26.9-20.9-44.5-21.3
			l38.4-20.6l-26.8-40l-48.4,55.7l8.4,10.2c-7.6,3.1-14.2,7.4-19.6,12.5l-41.5-36.8L360.6,130l0.6-26.7L296.3,124l1.7,34.9l11-2.9
			l1.6,17.7c-12.6-5.7-27.8-5.6-41.8,0.4c-4.2,1.8-8.1,4-11.7,6.6c2.4-10.8,1.9-21.4-2.2-30.8c-4.9-11.2-13.4-20.4-23.8-26.3
			c-7.3-4.9-16.1-7.9-25.2-8.9c-22.4-3.9-49.4,0.1-75.9,11.4c-9.7,4.2-18.9,8.9-27.1,14.1l-10.4,6.6l6.3,10.6l19.4,32.8l6,10.1
			l10.5-5.2l1.5-0.7l48.3,107.8l4.7,10.4l10.8-3.5l26.2-8.4l11.5-3.7l-3-11.6l-13.9-53.3c4-2.9,7.7-6.1,11.2-9.4
			c-0.8,6.4-0.4,12.8,1.4,19c3.6,12.9,12.1,23.1,23.8,28.8c12.7,6.1,28.2,6.1,42.5,0c7.2-3.1,13.6-7.5,19-12.8l2,21.2l45.8-6.7
			l-0.1-41.1l95.7,47.3v-45.8c3.9-0.3,7.8-0.9,11.7-1.9c10.2-2.3,19.2-5.8,27.2-10.6l-4,24.6l51.6,8.1l2.9-18.6l13.5,24.9l8.2-15.9
			l3,26l58.5,10.3l-3.1-19.7c8,0.9,16.5-0.2,24.6-3.2c2-0.7,3.9-1.6,5.7-2.5l-2.4,21l38.9,5.5l0.3,16l40.6,12.8L792.1,150
			L737.1,136.7z M387.3,185.7l12.3-11.9c-0.5,5.5-0.2,11.2,0.9,17L387.3,185.7z M508,177.5l-8.4-7.6l9-9.6l2.7-2.9L508,177.5z
			 M207.3,196.5l-1.8,1.6l-0.7-2.4l-7.5-24.4l-0.5-1.7l1.7-0.3c3.9-0.7,7.6-0.3,10.6,1.1c1.8,0.9,5,2.9,5.7,6.8
			C216.1,184.8,213.9,190.6,207.3,196.5z M444.8,180.3l-1.4,1.6l-1-1.9c-3.3-6-2.4-13.5,2.2-18.6c4.5-4.9,11.4-6.5,17.7-4.1l2,0.8
			l-1.4,1.6L444.8,180.3z"/>
		<path class="st70" d="M484,184.4c-0.1,0.2-0.3,0.4-0.5,0.5C483.7,184.8,483.9,184.6,484,184.4L484,184.4z"/>
		<polygon class="st70" points="502.3,183.3 503.8,173.8 508,177.5 499.5,170 508.6,160.3 505.5,163.6 505.6,163.2 502.8,166.1 
			493.8,175.7 		"/>
		<polygon class="st70" points="508,177.5 511.3,157.5 508.6,160.3 499.5,170 		"/>
		<polygon class="st70" points="387.3,185.7 387.4,185.7 387.4,185.7 		"/>
		<g>
			<path class="st71" d="M437.2,194c0.7,0.7,0.1,0.2,0.9,0.8l5.5-3.9c-0.8-0.6-1.6-1.2-2.4-1.9c-8-7.3-5.9-23.7-0.7-32.7
				C426.8,167.4,427.6,184.3,437.2,194z"/>
			<g>
				<path class="st71" d="M503.8,203.2c-9.1,7.5-19.5,12.4-33.2,15.7c-3,0.7-5.9,1.2-8.8,1.5c-21.8,2.1-40-7.9-47-24.1
					c-0.8-1.9-1.5-4-2-6.1c-3.2-13.7-0.5-25.9,6.3-35.4c0.6-0.9,1.4-1.8,2.1-2.7c-0.3,0.3-0.7,0.5-1,0.8c-2.6,2.3-4.9,4.8-6.8,7.6
					c-6.8,9.6-9.5,21.8-6.3,35.4c0.5,2.1,1.2,4.1,2,6.1c7,16.2,25.2,26.2,47,24.1c2.9-0.3,5.8-0.8,8.8-1.5
					c13.7-3.3,24.1-8.2,33.2-15.8c2.2-1.8,4.4-3.8,6.5-6l-0.2-0.2C504.2,202.9,504,203,503.8,203.2z"/>
				<polygon class="st71" points="374.7,127.7 373.7,126.8 350.2,159.8 350.3,161.9 				"/>
				<polygon class="st71" points="505.6,163.2 505.5,163.6 508.6,160.3 511.3,157.5 508,177.5 503.8,173.8 502.3,183.3 493.8,175.7 
					502.8,166.1 				"/>
				<polygon class="st71" points="488.4,97.6 474.3,78.3 469,84.6 481.2,101.2 				"/>
				<path class="st71" d="M243.2,155c-3.8-8.9-10.5-15.8-19.2-20.7c-6.3-4.2-13.6-6.2-20.4-7c-19.3-3.4-43.5-0.2-68.8,10.6
					c-9,3.8-17.5,8.2-25.2,13.1l1,1.7c5.9-3.3,12-6.4,18.5-9.1c25.3-10.8,49.4-14,68.8-10.6c6.8,0.8,14.1,2.8,20.4,7
					c8.7,4.9,15.3,11.8,19.2,20.7c6.9,15.8,0.8,36.7-15.3,54.3C242.4,196.4,250.8,172.5,243.2,155z"/>
				<path class="st71" d="M325.5,206.5c-0.2-0.9-0.4-1.8-0.6-2.6c-2.3-8-7-14.3-13.2-18.5c-10.1-6.9-24.2-8.3-38.2-2.3
					c-7.4,3.2-13.8,8.1-18.9,14c3.9-3.4,8.3-6.2,13.2-8.3c14-5.9,28.1-4.5,38.2,2.3c6.3,4.2,11,10.6,13.2,18.6
					c0.2,0.9,0.4,1.7,0.6,2.6c0.6,3,0.9,6.1,0.8,9.2c-0.3,9.2-3.7,18.4-9.4,26.3c-0.9,1.2-1.8,2.4-2.8,3.5c3.2-2.8,6.1-5.9,8.5-9.3
					c5.7-7.9,9.1-17.1,9.4-26.3C326.4,212.6,326.2,209.5,325.5,206.5z"/>
				<path class="st71" d="M286.8,194.8c-0.1,0.1,5.7-5.7,5.6-5.7c-7.2-0.2-10.2,6.5-10.5,7.1C283.4,195.4,285.1,195,286.8,194.8z"/>
				<path class="st71" d="M300.4,203.1c0.3,0.9,0.5,2,0.5,3c0,1.5-0.3,2.9-0.9,4.3c1.1-0.6,9.5-4.6,6.2-13.2
					C306.3,197.5,300.2,203.1,300.4,203.1z"/>
				<path class="st71" d="M267.6,207.9c0-3.5,6-12.1,7.9-14.9c-9.5,6.1-13.6,14.2-13.6,20.7c0,11.1,9.7,19.9,21.3,19.9
					c5.5,0,15.5-2.9,22.1-13.5c-3.4,2.3-12.2,7.7-16.8,7.7C276.9,227.7,267.6,218.9,267.6,207.9z"/>
				<polygon class="st71" points="349.3,262.6 355,261.8 355,212.1 349.2,218 				"/>
				<polygon class="st71" points="344.7,169.7 350.3,161.9 347.9,121.2 308.5,133 308.7,136.9 342.2,127 				"/>
				<g>
					<polygon class="st71" points="379.4,121.1 374.7,127.7 402.4,153.8 407.8,148.1 					"/>
					<path class="st71" d="M423.9,224.3c-8-4.9-14.3-11.7-18.5-19.5L368.2,190l-5.4,5.7l36.9,14.8c4.2,7.9,10.5,14.6,18.5,19.5
						c7.7,4.8,16.5,7.6,25.9,8.5v18.2l5.7,2.9v-26.8C440.4,231.9,431.6,229,423.9,224.3z"/>
				</g>
				<g>
					<path class="st71" d="M464.6,197.1c9.1-2.2,14.4-6.9,18.9-12.2c-3.4,2.8-7.5,5.1-13.1,6.5c-3.1,0.8-7.4,1.5-10.1,1l-5.6,6
						C457.2,198.5,461.5,197.8,464.6,197.1z"/>
					<path class="st71" d="M449.6,135.2c-9.2,2.2-17.3,6.4-23.7,12c-1.7,1.5-3.3,3.2-4.7,4.9c6.2-5.2,14-9.1,22.7-11.2
						c20.8-5,39,1.3,50.3,15.3l5.6-6C488.6,136.5,470.3,130.2,449.6,135.2z"/>
				</g>
				<path class="st71" d="M504.3,202.7c2-1.7,4-3.5,5.9-5.5l-4.8-4.3l-15.8-14.2c-1.7,2-3.5,4-5.6,5.8l15.7,14.1L504.3,202.7z"/>
				<path class="st71" d="M618.8,256.6c-1.2-0.5-2.3-1-3.4-1.6c-11-5.9-18.8-16-21.8-28.6c-3.9-16.2,1.7-33.9,13.3-47.1l-9.1-59.1
					h-21.9l-1,5.7h17.2l9.1,59.1c-11.6,13.3-17.2,31-13.3,47.2c3,12.5,10.7,22.7,21.8,28.5c1.1,0.6,2.3,1.1,3.4,1.6l0.1,0.9l6.8,1
					L618.8,256.6z"/>
				<polygon class="st71" points="561.6,174.5 567.3,168.7 559.7,127 529,127 528.1,132.7 553.9,132.7 				"/>
				<polygon class="st71" points="565,229.7 566.9,233.8 579,202.4 573.3,208.1 				"/>
				<polygon class="st71" points="542.8,200.3 536.6,239.2 541.3,240 548.5,194.5 				"/>
				<path class="st71" d="M664.8,182c3.4,2.4,6.3,5.5,8.5,9.1c1.7,2.8,3,5.9,3.8,9.3c2.8,11.8-0.6,24.4-8,34.6c-0.7,1-1.6,2-2.4,3
					c3-2.6,5.8-5.6,8.1-8.7c7.4-10.2,10.8-22.8,8-34.6c-0.8-3.4-2.1-6.5-3.8-9.3c-2.2-3.6-5.1-6.7-8.5-9.1
					c-9.3-6.7-22.5-8.4-35.9-3.4c-5.7,2.2-10.9,5.5-15.4,9.5c-1.6,1.5-3.1,3.1-4.6,4.7c4.2-3.6,9-6.5,14.2-8.5
					C642.3,173.6,655.5,175.4,664.8,182z"/>
				<path class="st71" d="M644.9,184.6c0.1,0.3,5.7-5.8,5.8-5.8c-7,0.3-10.4,3.7-10.1,5.3c-0.4,0.6-0.8,1.2-1,1.8
					C641.1,185.2,643.9,184.6,644.9,184.6z"/>
				<path class="st71" d="M658.1,193.4c0.3,1,0.4,2,0.3,3c-0.1,1.3-0.4,2.6-0.9,3.8c1.1-0.5,9.5-3.1,6.3-12.5
					C664,188,658,193.5,658.1,193.4z"/>
				<path class="st71" d="M639.4,223.2c8,0.3,16.8-4.6,23.1-13.2c-3.7,2.4-12.6,7.5-17.5,7.3c-11.6-0.5-20.5-9.6-20.1-20.6
					c0.1-3.2,4.3-10.2,6-12.9c-6.1,4.5-11.5,13-11.8,19C618.8,213.8,627.8,222.8,639.4,223.2z"/>
				<polygon class="st71" points="744.7,150.5 743.1,157.2 771.1,163.4 728.2,293.5 731.6,294.5 776.8,157.6 				"/>
				<polygon class="st71" points="724.5,216.6 730.2,210.8 716,143.6 673.8,135.1 673.5,141.9 710.3,149.3 				"/>
				<polygon class="st71" points="691.4,268.2 695.9,268.9 707.3,205.1 701.5,210.8 				"/>
				<polygon class="st71" points="206.1,226.7 199.8,231.1 215.8,291 222.8,289.8 				"/>
				<path class="st71" d="M218.9,195.3c-4,4.2-12.8,12.4-17.8,15.6l-3-9.8l-6.7-21.5l-4.2-14.5l-4.1,5.3l4.2,14.5l6.7,21.5l3,9.8
					C203.8,211.8,213.8,203.5,218.9,195.3z"/>
			</g>
		</g>
		<path class="st70" d="M463.1,158.3c-5.4-2.1-13.1-1.5-17.3,3.1c-1,1.1-2.8,3.7-3.4,5c4-3.2,11.2-3.9,15.9-2.2L463.1,158.3z"/>
		<path class="st70" d="M213.9,177.7c-0.6-3.2-3.7-5.8-5.3-6.5c-2.8-1.3-7.5-1.5-11-0.9c0.6,2.2,1.4,4.7,1.7,5.7
			c1.4,0.2,3.7,0.6,5,1.2c1.5,0.7,4.2,2.5,4.8,5.7c0.8,4.3,0.6,8.3-1.2,11.6C212.8,189.7,215.2,184.4,213.9,177.7z"/>
		
			<linearGradient id="SVGID_65_" gradientUnits="userSpaceOnUse" x1="-503.0198" y1="-144.0511" x2="-504.9828" y2="-330.2378" gradientTransform="matrix(1.1655 -4.680000e-02 4.680000e-02 1.1655 803.3831 423.5767)">
			<stop  offset="0" style="stop-color:#3B5AA6"/>
			<stop  offset="1" style="stop-color:#2A75BA"/>
		</linearGradient>
		<path class="st72" d="M222.5,177.6c-2.4-12.7-19-19.7-35.4-10.7l4.2,14.5l6.7,21.5l3,9.8C213.4,204.7,225.8,195.2,222.5,177.6z
			 M206.2,197.1c-1.8-5.9-5.8-18.5-5.8-18.5c0,0.1-0.8-2.7-1.7-5.9c3.5-0.6,6.9-0.4,9.6,1c1.5,0.7,4.2,2.4,4.8,5.7
			C214.5,186.7,212.1,191.9,206.2,197.1z"/>
		
			<linearGradient id="SVGID_66_" gradientUnits="userSpaceOnUse" x1="-79.6273" y1="21.162" x2="-81.5902" y2="-165.0016" gradientTransform="matrix(1.1074 -3.460000e-02 3.460000e-02 1.1074 545.1458 238.8866)">
			<stop  offset="0" style="stop-color:#3B5AA6"/>
			<stop  offset="1" style="stop-color:#2A75BA"/>
		</linearGradient>
		<path class="st73" d="M471.7,157.4c-9.2-8.4-23.5-7.8-31.9,1.4c-8.4,9.2-7.8,23.5,1.4,31.9c0.8,0.7,1.6,1.3,2.4,1.9l29.7-33.6
			C472.8,158.5,472.3,158,471.7,157.4z M443.7,181.1c-2.9-5.3-2.3-12.1,2-16.8c4.2-4.6,10.6-5.9,16-3.7L443.7,181.1z"/>
		<polygon class="st74" points="511.3,153.8 494.9,169.6 510.6,183.6 		"/>
		<g>
			
				<linearGradient id="SVGID_67_" gradientUnits="userSpaceOnUse" x1="-164.1541" y1="116.8224" x2="-166.4851" y2="-104.2575" gradientTransform="matrix(1.1664 0 0 1.1664 635.534 179.5045)">
				<stop  offset="0" style="stop-color:#3B5AA6"/>
				<stop  offset="1" style="stop-color:#2A75BA"/>
			</linearGradient>
			<path class="st75" d="M737.1,136.7l-5.2,21.5l-4.9-23.9l-64.6-14.2l0.5,35.9l9.7,2.2l-0.7,6.5c-0.1,0-0.2-0.1-0.3-0.2
				c-12-6.4-27-7-41.1-1.7c-4.7,1.8-9.1,4.2-13.1,7.1l-9.7-61.6h-43l-1.2,7.1h-45.3l-5.2,31.7l-3.8-4.6
				c-11-13.5-26.9-20.9-44.5-21.3l38.4-20.6l-26.8-40l-48.4,55.7l8.4,10.2c-7.6,3.1-14.2,7.4-19.6,12.5l-41.5-36.8L360.6,130
				l0.6-26.7L296.3,124l1.7,34.9l11-2.9l1.6,17.7c-12.6-5.7-27.8-5.6-41.8,0.4c-4.2,1.8-8.1,4-11.7,6.6c2.4-10.8,1.9-21.4-2.2-30.8
				c-4.9-11.2-13.4-20.4-23.8-26.3c-7.3-4.9-16.1-7.9-25.2-8.9c-22.4-3.9-49.4,0.1-75.9,11.4c-9.7,4.2-18.9,8.9-27.1,14.1l-10.4,6.6
				l6.3,10.6l19.4,32.8l6,10.1l10.5-5.2l1.5-0.7l48.3,107.8l4.7,10.4l10.8-3.5l26.2-8.4l11.5-3.7l-3-11.6l-13.9-53.3
				c4-2.9,7.7-6.1,11.2-9.4c-0.8,6.4-0.4,12.8,1.4,19c3.6,12.9,12.1,23.1,23.8,28.8c12.7,6.1,28.2,6.1,42.5,0
				c7.2-3.1,13.6-7.5,19-12.8l2,21.2l45.8-6.7l-0.1-41.1l95.7,47.3v-45.8c3.9-0.3,7.8-0.9,11.7-1.9c10.2-2.3,19.2-5.8,27.2-10.6
				l-4,24.6l51.6,8.1l2.9-18.6l13.5,24.9l8.2-15.9l3,26l58.5,10.3l-3.1-19.7c8,0.9,16.5-0.2,24.6-3.2c2-0.7,3.9-1.6,5.7-2.5l-2.4,21
				l38.9,5.5l0.3,16l40.6,12.8L792.1,150L737.1,136.7z M508.6,160.3l2.7-2.9l-3.3,20.1l-8.4-7.6L508.6,160.3z M474.3,78.3l14.2,19.2
				l-40.6,20.1l-2.8-4.2L474.3,78.3z M400.5,190.8l-13.2-5.1l12.3-11.9C399.1,179.2,399.3,184.9,400.5,190.8z M206,226.8l16.1,62
				l-26.2,8.4l-53.7-119.9c-2.9,1.5-8.3,4.1-13.3,6.6l-19.4-32.8c7.8-4.9,16.2-9.3,25.2-13.1c25.3-10.8,49.4-14,68.8-10.6
				c6.8,0.8,14.1,2.8,20.4,7c8.7,4.9,15.4,11.8,19.2,20.7C252.6,176.5,236.9,207.7,206,226.8z M317,242
				c-5.4,7.5-12.9,13.8-21.8,17.6c-22.7,9.6-45.4,0-51.5-21.5c-5.9-20.9,7.8-45.6,29.8-55.1c14-5.9,28.1-4.5,38.2,2.3
				c6.2,4.2,11,10.6,13.2,18.5c0.2,0.9,0.4,1.7,0.6,2.6c0.6,3,0.9,6.1,0.8,9.2C326,224.9,322.6,234.2,317,242z M449.8,259.5
				L354.9,212l0.2,49.7l-24.6,3.4l-1.7-20.5c7.6-13,10.4-28.3,6.4-42.3c-2.2-7.7-6.2-14.4-11.7-19.8l-3.5-41.8l-11,2.9l-0.5-10.6
				l39.5-11.7l2.4,40.7l29-40.9l28.4,27L368.1,190l37.3,14.8c4.2,7.9,10.5,14.6,18.5,19.5c7.7,4.8,16.5,7.6,25.9,8.5V259.5
				L449.8,259.5z M470.6,218.9c-3,0.7-5.9,1.2-8.8,1.5c-21.8,2.1-40-7.9-47-24.1c-0.8-1.9-1.5-4-2-6.1c-3.2-13.7-0.5-25.9,6.3-35.4
				c2-2.8,4.2-5.3,6.8-7.6c6.4-5.7,14.5-9.8,23.7-12c20.8-5,39,1.3,50.2,15.1l-39.5,42.1c2.7,0.5,7-0.2,10.1-1
				c9.4-2.3,14.7-7.3,19.3-12.7l15.8,14.2l4.8,4.3c-2.1,2.2-4.3,4.1-6.5,6C494.7,210.7,484.3,215.6,470.6,218.9z M620,264.3
				l-32.3-4.9l-8.6-57l-12.2,31.4l-18.2-39.3h-0.2l-7.2,45.5l-30.3-5.3l4.3-25.4c1.1-1.1,2.3-2.2,3.4-3.3l9.8-10.1l-9.5-8.6l10-60.3
				h30.6l7.6,41.8l8.6-48.5h21.9l9.1,59.1c-11.6,13.2-17.2,30.9-13.3,47.1c3,12.5,10.7,22.7,21.8,28.6c1.1,0.6,2.3,1.1,3.4,1.6
				L620,264.3z M652.3,246.7c-7.8,3-15.6,3.6-22.5,2.2c-4.8-1-9.2-2.8-13.1-5.6c-6.1-4.4-10.6-10.9-12.5-19.1
				c-2.3-9.8-0.2-20.3,5.1-29.4c2.6-4.5,6-8.8,10-12.4c4.5-4,9.6-7.3,15.4-9.5c13.4-5,26.5-3.3,35.9,3.4c3.4,2.4,6.3,5.5,8.5,9.1
				c1.7,2.8,3,5.9,3.8,9.3c2.8,11.8-0.6,24.4-8,34.6c-3.2,4.3-7.1,8.2-11.5,11.4C659.9,243.2,656.3,245.2,652.3,246.7z M731.6,294.5
				l-22.4-6.7l-2-82.7l-11.3,63.8l-24.5-3.9l1.8-18.4c16-13.5,24.5-34.8,19.8-54.1c-2-8.6-6.4-16-12.7-21.7l2.1-21.7l-9.3-2.5
				l0.6-11.6l42.2,8.5l14.2,67.3l14.5-60.3l32.1,7.1L731.6,294.5z"/>
			
				<linearGradient id="SVGID_68_" gradientUnits="userSpaceOnUse" x1="9.1361" y1="35.7403" x2="8.7165" y2="-4.0589" gradientTransform="matrix(1.1664 0 0 1.1664 635.534 179.5045)">
				<stop  offset="0" style="stop-color:#3B5AA6"/>
				<stop  offset="1" style="stop-color:#2A75BA"/>
			</linearGradient>
			<path class="st76" d="M663.8,187.7c0.2,1,0.4,2,0.3,3c-0.2,6.3-6.1,11.1-13.1,10.9c-7-0.3-12.5-5.6-12.3-11.9
				c0.2-5.9,5.5-10.5,11.9-10.8c-1.2-0.3-2.5-0.4-3.8-0.5c-11.8-0.5-21.4,7.9-21.8,18.3c-0.5,11.1,8.5,20.2,20.1,20.6
				c11.8,0.5,21.4-7.9,21.8-18.9C667,194.5,665.9,190.8,663.8,187.7z"/>
			
				<linearGradient id="SVGID_69_" gradientUnits="userSpaceOnUse" x1="-297.3156" y1="44.2727" x2="-297.7273" y2="5.241" gradientTransform="matrix(1.1664 0 0 1.1664 635.534 179.5045)">
				<stop  offset="0" style="stop-color:#3B5AA6"/>
				<stop  offset="1" style="stop-color:#2A75BA"/>
			</linearGradient>
			<path class="st77" d="M306.6,200.4c0,6.3-5.7,11.3-12.8,11.3c-7,0-12.8-5.1-12.8-11.3c0-5.9,5-10.7,11.5-11.3
				c-1.3-0.2-2.5-0.3-3.9-0.3c-11.8,0-21.1,8.7-21.1,19.1c0,11.1,9.3,19.8,20.9,19.8c11.8,0,21.1-8.7,21.1-19.8
				c0-3.8-1.3-7.4-3.5-10.5C306.4,198.4,306.6,199.3,306.6,200.4z"/>
		</g>
	</g>
</g>
</svg>
