<?xml version="1.0" encoding="utf-8"?>
<!-- Generator: Adobe Illustrator 16.0.0, SVG Export Plug-In . SVG Version: 6.00 Build 0)  -->
<!DOCTYPE svg PUBLIC "-//W3C//DTD SVG 1.1//EN" "http://www.w3.org/Graphics/SVG/1.1/DTD/svg11.dtd">
<svg version="1.1" id="Layer_1" xmlns="http://www.w3.org/2000/svg" xmlns:xlink="http://www.w3.org/1999/xlink" x="0px" y="0px"
	 width="500px" height="500px" viewBox="-195.042 -176 500 500" enable-background="new -195.042 -176 500 500"
	 xml:space="preserve">
<rect x="-195.042" y="-176" fill="#F58434" width="500" height="500"/>
<g>
	<g>
		<g>
			
				<linearGradient id="SVGID_1_" gradientUnits="userSpaceOnUse" x1="-812.4214" y1="-546.9688" x2="-802.2133" y2="-501.8789" gradientTransform="matrix(1.1656 -0.0446 0.0446 1.1656 809.8936 639.2648)">
				<stop  offset="0" style="stop-color:#1D2C5F"/>
				<stop  offset="1" style="stop-color:#0071B8"/>
			</linearGradient>
			<polygon fill="url(#SVGID_1_)" stroke="#FFFFFF" stroke-width="9.375" stroke-linecap="round" stroke-linejoin="round" points="
				-148.568,80.398 -142.467,74.207 -162.197,40.797 -168.358,47.002 			"/>
			
				<linearGradient id="SVGID_2_" gradientUnits="userSpaceOnUse" x1="-441.6284" y1="-689.6855" x2="-447.1565" y2="-670.123" gradientTransform="matrix(1.1664 0 0 1.1664 645.3901 820.2897)">
				<stop  offset="0" style="stop-color:#1D2C5F"/>
				<stop  offset="1" style="stop-color:#0071B8"/>
			</linearGradient>
			<polygon fill="url(#SVGID_2_)" stroke="#FFFFFF" stroke-width="9.375" stroke-linecap="round" stroke-linejoin="round" points="
				124.69,25.132 132.217,21.107 132.986,16.701 125.457,20.751 			"/>
			
				<linearGradient id="SVGID_3_" gradientUnits="userSpaceOnUse" x1="-498.1274" y1="-714.4033" x2="-510.0377" y2="-685.4785" gradientTransform="matrix(1.1664 0 0 1.1664 649.7886 815.1627)">
				<stop  offset="0" style="stop-color:#1D2C5F"/>
				<stop  offset="1" style="stop-color:#0071B8"/>
			</linearGradient>
			<polygon fill="url(#SVGID_3_)" stroke="#FFFFFF" stroke-width="9.375" stroke-linecap="round" stroke-linejoin="round" points="
				39.854,25.528 47.478,21.562 77.745,-13.316 70.303,-9.349 			"/>
			
				<linearGradient id="SVGID_4_" gradientUnits="userSpaceOnUse" x1="-349.5195" y1="-681.0376" x2="-358.8756" y2="-655.0953" gradientTransform="matrix(1.1664 0 0 1.1664 648.7192 821.5533)">
				<stop  offset="0" style="stop-color:#1D2C5F"/>
				<stop  offset="1" style="stop-color:#0071B8"/>
			</linearGradient>
			<polygon fill="url(#SVGID_4_)" stroke="#FFFFFF" stroke-width="9.375" stroke-linecap="round" stroke-linejoin="round" points="
				233.221,38.39 240.695,34.341 237.383,47.812 229.934,51.717 			"/>
			
				<linearGradient id="SVGID_5_" gradientUnits="userSpaceOnUse" x1="-362.0327" y1="-586.3892" x2="-364.1593" y2="-694.8336" gradientTransform="matrix(1.1664 0 0 1.1664 647.8452 821.8453)">
				<stop  offset="0" style="stop-color:#1D2C5F"/>
				<stop  offset="1" style="stop-color:#0071B8"/>
			</linearGradient>
			<polygon fill="url(#SVGID_5_)" stroke="#FFFFFF" stroke-width="9.375" stroke-linecap="round" stroke-linejoin="round" points="
				234.461,146.3 241.994,142.327 216.668,134.333 209.241,138.256 			"/>
			
				<linearGradient id="SVGID_6_" gradientUnits="userSpaceOnUse" x1="-398.6836" y1="-654.272" x2="-366.3561" y2="-684.4728" gradientTransform="matrix(1.1664 0 0 1.1664 648.7192 821.5533)">
				<stop  offset="0" style="stop-color:#1D2C5F"/>
				<stop  offset="1" style="stop-color:#0071B8"/>
			</linearGradient>
			<polygon fill="url(#SVGID_6_)" stroke="#FFFFFF" stroke-width="9.375" stroke-linecap="round" stroke-linejoin="round" points="
				192.932,51.861 200.356,47.94 194.276,46.56 186.774,50.44 			"/>
			
				<linearGradient id="SVGID_7_" gradientUnits="userSpaceOnUse" x1="-515.0806" y1="-583.0063" x2="-517.208" y2="-691.4946" gradientTransform="matrix(1.1664 0 0 1.1664 642.2319 819.0748)">
				<stop  offset="0" style="stop-color:#1D2C5F"/>
				<stop  offset="1" style="stop-color:#0071B8"/>
			</linearGradient>
			<polygon fill="url(#SVGID_7_)" stroke="#FFFFFF" stroke-width="9.375" stroke-linecap="round" stroke-linejoin="round" points="
				39.36,35.037 45.864,31.575 40.538,35.844 32.966,39.877 			"/>
			
				<linearGradient id="SVGID_8_" gradientUnits="userSpaceOnUse" x1="-373.1431" y1="-586.1567" x2="-375.2702" y2="-694.6331" gradientTransform="matrix(1.1664 0 0 1.1664 648.2095 821.6998)">
				<stop  offset="0" style="stop-color:#1D2C5F"/>
				<stop  offset="1" style="stop-color:#0071B8"/>
			</linearGradient>
			<polygon fill="url(#SVGID_8_)" stroke="#FFFFFF" stroke-width="9.375" stroke-linecap="round" stroke-linejoin="round" points="
				209.02,128.365 216.417,124.404 216.668,134.333 209.241,138.256 			"/>
			
				<linearGradient id="SVGID_9_" gradientUnits="userSpaceOnUse" x1="-360.1909" y1="-708.4429" x2="-372.1021" y2="-688.8742" gradientTransform="matrix(1.1664 0.0097 -0.0097 1.1664 609.6683 857.4456)">
				<stop  offset="0" style="stop-color:#1D2C5F"/>
				<stop  offset="1" style="stop-color:#0071B8"/>
			</linearGradient>
			<polygon fill="url(#SVGID_9_)" stroke="#FFFFFF" stroke-width="9.375" stroke-linecap="round" stroke-linejoin="round" points="
				186.774,50.44 194.276,46.56 193.921,24.014 186.504,28.113 			"/>
			<polygon fill="#302370" stroke="#FFFFFF" stroke-width="9.375" stroke-linecap="round" stroke-linejoin="round" points="
				184.732,124.871 192.154,120.962 200.308,47.961 192.932,51.861 			"/>
			
				<linearGradient id="SVGID_10_" gradientUnits="userSpaceOnUse" x1="-383.2319" y1="-585.9717" x2="-385.36" y2="-694.4945" gradientTransform="matrix(1.1664 0 0 1.1664 647.8452 821.8453)">
				<stop  offset="0" style="stop-color:#1D2C5F"/>
				<stop  offset="1" style="stop-color:#0071B8"/>
			</linearGradient>
			<polygon fill="url(#SVGID_10_)" stroke="#FFFFFF" stroke-width="9.375" stroke-linecap="round" stroke-linejoin="round" points="
				209.02,128.365 216.417,124.404 192.154,120.962 184.732,124.871 			"/>
			
				<linearGradient id="SVGID_11_" gradientUnits="userSpaceOnUse" x1="-419.1187" y1="-589.4443" x2="-423.3715" y2="-692.348" gradientTransform="matrix(1.1664 0 0 1.1664 643.7622 817.1793)">
				<stop  offset="0" style="stop-color:#1D2C5F"/>
				<stop  offset="1" style="stop-color:#0071B8"/>
			</linearGradient>
			<polygon fill="url(#SVGID_11_)" stroke="#FFFFFF" stroke-width="9.375" stroke-linecap="round" stroke-linejoin="round" points="
				169.281,127.814 176.604,123.783 140.053,117.338 132.613,121.322 			"/>
			
				<linearGradient id="SVGID_12_" gradientUnits="userSpaceOnUse" x1="-435.729" y1="-584.2715" x2="-437.8556" y2="-692.7195" gradientTransform="matrix(1.1664 0 0 1.1664 644.0542 816.5963)">
				<stop  offset="0" style="stop-color:#1D2C5F"/>
				<stop  offset="1" style="stop-color:#0071B8"/>
			</linearGradient>
			<polygon fill="url(#SVGID_12_)" stroke="#FFFFFF" stroke-width="9.375" stroke-linecap="round" stroke-linejoin="round" points="
				132.613,121.322 140.053,117.338 138.149,101.025 130.649,105.056 			"/>
			
				<linearGradient id="SVGID_13_" gradientUnits="userSpaceOnUse" x1="-444.2979" y1="-584.0942" x2="-446.4253" y2="-692.5819" gradientTransform="matrix(1.1664 0 0 1.1664 643.9565 816.5963)">
				<stop  offset="0" style="stop-color:#1D2C5F"/>
				<stop  offset="1" style="stop-color:#0071B8"/>
			</linearGradient>
			<polygon fill="url(#SVGID_13_)" stroke="#FFFFFF" stroke-width="9.375" stroke-linecap="round" stroke-linejoin="round" points="
				125.6,114.917 133,110.845 124.709,95.4 117.273,99.537 			"/>
			
				<linearGradient id="SVGID_14_" gradientUnits="userSpaceOnUse" x1="-463.0859" y1="-587.5186" x2="-467.3419" y2="-690.4967" gradientTransform="matrix(1.1664 0 0 1.1664 644.1509 816.402)">
				<stop  offset="0" style="stop-color:#1D2C5F"/>
				<stop  offset="1" style="stop-color:#0071B8"/>
			</linearGradient>
			<polygon fill="url(#SVGID_14_)" stroke="#FFFFFF" stroke-width="9.375" stroke-linecap="round" stroke-linejoin="round" points="
				115.453,110.95 122.791,106.999 90.598,101.913 83.18,105.776 			"/>
			
				<linearGradient id="SVGID_15_" gradientUnits="userSpaceOnUse" x1="-476.9194" y1="-645.1069" x2="-444.1636" y2="-648.0845" gradientTransform="matrix(1.1664 0 0 1.1664 644.1509 816.402)">
				<stop  offset="0" style="stop-color:#1D2C5F"/>
				<stop  offset="1" style="stop-color:#0071B8"/>
			</linearGradient>
			<polygon fill="url(#SVGID_15_)" stroke="#FFFFFF" stroke-width="9.375" stroke-linecap="round" stroke-linejoin="round" points="
				83.18,105.776 90.598,101.913 103.793,21.104 96.437,25.159 			"/>
			
				<linearGradient id="SVGID_16_" gradientUnits="userSpaceOnUse" x1="-525.8589" y1="-670.1592" x2="-473.1125" y2="-706.3162" gradientTransform="matrix(1.1664 0 0 1.1664 649.7886 815.236)">
				<stop  offset="0" style="stop-color:#1D2C5F"/>
				<stop  offset="1" style="stop-color:#0071B8"/>
			</linearGradient>
			<polygon fill="url(#SVGID_16_)" stroke="#FFFFFF" stroke-width="9.375" stroke-linecap="round" stroke-linejoin="round" points="
				45.178,31.888 52.669,28.05 47.478,21.625 39.854,25.592 			"/>
			
				<linearGradient id="SVGID_17_" gradientUnits="userSpaceOnUse" x1="-363.5503" y1="-746.4756" x2="-365.6777" y2="-854.963" gradientTransform="matrix(1.1651 0.056 -0.056 1.1651 415.9688 1029.2699)">
				<stop  offset="0" style="stop-color:#1D2C5F"/>
				<stop  offset="1" style="stop-color:#0071B8"/>
			</linearGradient>
			<polygon fill="url(#SVGID_17_)" stroke="#FFFFFF" stroke-width="9.375" stroke-linecap="round" stroke-linejoin="round" points="
				1.403,97.531 8.771,93.517 68.633,123.159 61.193,127.148 			"/>
			
				<linearGradient id="SVGID_18_" gradientUnits="userSpaceOnUse" x1="-541.2041" y1="-693.7148" x2="-548.8606" y2="-676.2754" gradientTransform="matrix(1.1664 0 0 1.1664 643.4224 819.0748)">
				<stop  offset="0" style="stop-color:#1D2C5F"/>
				<stop  offset="1" style="stop-color:#0071B8"/>
			</linearGradient>
			<polygon fill="url(#SVGID_18_)" stroke="#FFFFFF" stroke-width="9.375" stroke-linecap="round" stroke-linejoin="round" points="
				-2.048,34.11 5.456,30.01 14.448,12.901 7.001,16.929 			"/>
			
				<linearGradient id="SVGID_19_" gradientUnits="userSpaceOnUse" x1="-506.3892" y1="-633.9849" x2="-508.516" y2="-742.4424" gradientTransform="matrix(1.1663 0.0182 -0.0182 1.1663 569.8864 884.0895)">
				<stop  offset="0" style="stop-color:#1D2C5F"/>
				<stop  offset="1" style="stop-color:#0071B8"/>
			</linearGradient>
			<polygon fill="url(#SVGID_19_)" stroke="#FFFFFF" stroke-width="9.375" stroke-linecap="round" stroke-linejoin="round" points="
				-27.295,127.443 -19.758,123.467 8.844,119.221 1.238,123.24 			"/>
			
				<linearGradient id="SVGID_20_" gradientUnits="userSpaceOnUse" x1="-511.6309" y1="-677.6509" x2="-540.9732" y2="-671.272" gradientTransform="matrix(1.1663 0.0182 -0.0182 1.1663 569.8864 884.0895)">
				<stop  offset="0" style="stop-color:#1D2C5F"/>
				<stop  offset="1" style="stop-color:#0071B8"/>
			</linearGradient>
			<polygon fill="url(#SVGID_20_)" stroke="#FFFFFF" stroke-width="9.375" stroke-linecap="round" stroke-linejoin="round" points="
				-27.295,127.443 -19.758,123.467 -26.921,46.495 -34.266,50.464 			"/>
			
				<linearGradient id="SVGID_21_" gradientUnits="userSpaceOnUse" x1="-585.4937" y1="-683.4409" x2="-584.6435" y2="-654.094" gradientTransform="matrix(1.1664 0 0 1.1664 644.3452 818.5162)">
				<stop  offset="0" style="stop-color:#1D2C5F"/>
				<stop  offset="1" style="stop-color:#0071B8"/>
			</linearGradient>
			<polygon fill="url(#SVGID_21_)" stroke="#FFFFFF" stroke-width="9.375" stroke-linecap="round" stroke-linejoin="round" points="
				-41.27,52.238 -33.783,48.273 -34.877,26.504 -42.319,30.533 			"/>
			
				<linearGradient id="SVGID_22_" gradientUnits="userSpaceOnUse" x1="-756.4878" y1="-455.5942" x2="-758.6146" y2="-564.053" gradientTransform="matrix(1.1656 -0.0446 0.0446 1.1656 811.668 638.7062)">
				<stop  offset="0" style="stop-color:#1D2C5F"/>
				<stop  offset="1" style="stop-color:#0071B8"/>
			</linearGradient>
			<polygon fill="url(#SVGID_22_)" stroke="#FFFFFF" stroke-width="9.375" stroke-linecap="round" stroke-linejoin="round" points="
				-101.826,144.453 -109.287,149.438 -79.02,139.689 -71.459,134.777 			"/>
			
				<linearGradient id="SVGID_23_" gradientUnits="userSpaceOnUse" x1="-779.0825" y1="-480.165" x2="-805.4562" y2="-553.758" gradientTransform="matrix(1.1656 -0.0446 0.0446 1.1656 809.5293 639.4836)">
				<stop  offset="0" style="stop-color:#1D2C5F"/>
				<stop  offset="1" style="stop-color:#0071B8"/>
			</linearGradient>
			<polygon fill="url(#SVGID_23_)" stroke="#FFFFFF" stroke-width="9.375" stroke-linecap="round" stroke-linejoin="round" points="
				-134.938,70.624 -141.135,77.211 -109.287,149.438 -101.826,144.453 			"/>
			
				<linearGradient id="SVGID_24_" gradientUnits="userSpaceOnUse" x1="-1149.3335" y1="-114.439" x2="-1170.177" y2="-194.8344" gradientTransform="matrix(1.1524 -0.1803 0.1803 1.1524 1299.4091 53.6401)">
				<stop  offset="0" style="stop-color:#1D2C5F"/>
				<stop  offset="1" style="stop-color:#0071B8"/>
			</linearGradient>
			<path fill="url(#SVGID_24_)" stroke="#FFFFFF" stroke-width="9.375" stroke-linecap="round" stroke-linejoin="round" d="
				M-53.941,120.026c-7.821-2.266-14.099-7.69-17.667-15.282c-1.829-3.869-3.487-12.547-3.579-16.842
				c-1.704,1.965-5.166,4.078-7.645,5.285c0,0,1.631,8.494,3.734,14.441c2.101,5.946,7.112,10.754,7.112,10.754
				c3.218,3.115,7.136,5.4,11.55,6.678c8.445,2.446,17.994,0.857,26.185-4.352c2.134-1.365,5.065-3.537,6.844-5.27
				C-35.466,120.352-45.702,122.407-53.941,120.026z"/>
			
				<linearGradient id="SVGID_25_" gradientUnits="userSpaceOnUse" x1="-580.1299" y1="-581.7178" x2="-582.2559" y2="-690.1327" gradientTransform="matrix(1.1664 0 0 1.1664 644.3452 818.5162)">
				<stop  offset="0" style="stop-color:#1D2C5F"/>
				<stop  offset="1" style="stop-color:#0071B8"/>
			</linearGradient>
			<polygon fill="url(#SVGID_25_)" stroke="#FFFFFF" stroke-width="9.375" stroke-linecap="round" stroke-linejoin="round" points="
				-41.27,52.238 -34.266,50.464 -26.921,46.495 -33.783,48.273 			"/>
			
				<linearGradient id="SVGID_26_" gradientUnits="userSpaceOnUse" x1="-664.6074" y1="-580.3491" x2="-666.7348" y2="-688.8353" gradientTransform="matrix(1.1664 0 0 1.1664 634.7955 821.3112)">
				<stop  offset="0" style="stop-color:#1D2C5F"/>
				<stop  offset="1" style="stop-color:#0071B8"/>
			</linearGradient>
			<polygon fill="url(#SVGID_26_)" stroke="#FFFFFF" stroke-width="9.375" stroke-linecap="round" stroke-linejoin="round" points="
				-148.568,80.398 -142.467,74.207 -134.938,70.624 -141.135,77.211 			"/>
			<g>
				
					<linearGradient id="SVGID_27_" gradientUnits="userSpaceOnUse" x1="-154.3618" y1="-842.0859" x2="-156.4876" y2="-950.4914" gradientTransform="matrix(1.1632 0.0872 -0.0872 1.1632 288.5588 1131.6637)">
					<stop  offset="0" style="stop-color:#1D2C5F"/>
					<stop  offset="1" style="stop-color:#0071B8"/>
				</linearGradient>
				<path fill="url(#SVGID_27_)" stroke="#FFFFFF" stroke-width="9.375" stroke-linecap="round" stroke-linejoin="round" d="
					M174.536,111.281l0.421,3.559c2.601-0.307,5.356-0.648,7.686-1.465c2.733-0.945,8.655-3.562,10.91-5.539
					c-0.825,0.312-4.837,2.169-5.698,2.429C183.432,111.584,178.816,111.747,174.536,111.281z"/>
			</g>
			<g>
				
					<linearGradient id="SVGID_28_" gradientUnits="userSpaceOnUse" x1="-889.9795" y1="-1122.8042" x2="-892.1064" y2="-1231.2646" gradientTransform="matrix(1.3092 -0.0232 0.0215 1.4152 1271.7667 1709.301)">
					<stop  offset="0" style="stop-color:#1D2C5F"/>
					<stop  offset="1" style="stop-color:#0071B8"/>
				</linearGradient>
				<path fill="url(#SVGID_28_)" stroke="#FFFFFF" stroke-width="9.375" stroke-linecap="round" stroke-linejoin="round" d="
					M68.501,94.479l0.118,4.074c6.114-0.896,11.371-3.174,16.544-6.273c3.23-1.939,6.817-4.859,7.923-5.635
					c-0.793,0.505-1.595,0.808-2.418,1.265C85.874,90.537,73.051,94.404,68.501,94.479z"/>
			</g>
			<path fill="#FFCA05" stroke="#FFFFFF" stroke-width="9.375" stroke-linecap="round" stroke-linejoin="round" d="M240.66,34.425
				l-3.27,13.464l-3.014-14.922l-40.416-8.889l0.3,22.462l6.077,1.355l-0.447,4.06c-0.062-0.028-0.124-0.062-0.181-0.095
				c-7.529-3.999-16.892-4.396-25.708-1.073c-2.942,1.125-5.688,2.632-8.188,4.414l-6.081-38.477h-26.878l-0.747,4.409h-28.283
				l-3.238,19.808l-2.351-2.894c-6.851-8.438-16.786-13.079-27.788-13.312L94.45,11.836L77.708-13.162L47.445,21.706l5.235,6.385
				c-4.753,1.933-8.878,4.585-12.287,7.809L14.454,12.884l-9.09,17.388l0.354-16.698l-40.575,12.942l1.032,21.811l6.904-1.803
				l1.028,11.057c-7.877-3.54-17.349-3.472-26.146,0.255c-2.6,1.121-5.041,2.521-7.284,4.146c1.525-6.729,1.163-13.37-1.393-19.279
				c-3.033-6.984-8.359-12.763-14.89-16.411c-4.573-3.046-10.037-4.949-15.756-5.594c-14.026-2.461-30.883,0.071-47.467,7.121
				c-6.091,2.595-11.79,5.562-16.914,8.827l-6.489,4.126l3.912,6.612l12.15,20.526c0,0,3.731,6.303,3.751,6.297l6.581-3.225
				l0.909-0.44l30.185,67.401l2.908,6.479l6.76-2.159l16.344-5.229l7.16-2.29l-1.898-7.27l-8.676-33.331
				c2.509-1.844,4.831-3.803,6.98-5.863c-0.48,3.991-0.232,8.014,0.855,11.874c2.27,8.074,7.564,14.464,14.906,17.988
				c7.925,3.806,17.601,3.821,26.549,0.027c4.485-1.916,8.483-4.673,11.854-7.996l1.237,13.26l28.605-4.203L8.805,93.562
				l59.79,29.571V94.502c2.416-0.196,4.854-0.567,7.316-1.164c6.59-1.59,12.212-3.782,17.218-6.773l-2.516,15.358l32.239,5.082
				l1.788-11.613l8.416,15.559l5.137-9.915l1.872,16.277l36.558,6.45l-1.941-12.304c5.004,0.56,10.281-0.096,15.374-2.015
				c1.219-0.459,2.407-0.999,3.552-1.583l-1.471,13.101l24.328,3.407l0.203,9.976l25.351,7.974l33.038-99.544L240.66,34.425z
				 M22.048,65.034l7.682-7.456c-0.328,3.433-0.157,7.011,0.566,10.654L22.048,65.034z M97.476,59.966l-5.274-4.746l5.633-6.008
				l1.69-1.795L97.476,59.966z M-90.478,71.837l-1.146,1.03l-0.463-1.477l-4.675-15.277l-0.315-1.048l1.081-0.203
				c2.446-0.452,4.737-0.212,6.623,0.684c1.133,0.539,3.109,1.812,3.569,4.272C-84.928,64.522-86.324,68.116-90.478,71.837z
				 M57.983,61.705l-0.884,1.012l-0.651-1.18c-2.074-3.777-1.509-8.44,1.391-11.617c2.814-3.069,7.154-4.088,11.041-2.582
				l1.266,0.486l-0.892,1.013L57.983,61.705z"/>
			<path fill="#7D8069" stroke="#FFFFFF" stroke-width="9.375" stroke-linecap="round" stroke-linejoin="round" d="M82.459,64.23
				c-0.091,0.112-0.183,0.222-0.287,0.337c0.118-0.097,0.235-0.191,0.347-0.288L82.459,64.23z"/>
			<polygon fill="#7D8069" stroke="#FFFFFF" stroke-width="9.375" stroke-linecap="round" stroke-linejoin="round" points="
				93.906,63.539 94.875,57.623 97.476,59.966 92.202,55.22 97.834,49.212 95.909,51.266 95.958,50.983 94.265,52.785 88.633,58.79 
							"/>
			<polygon fill="#7D8069" stroke="#FFFFFF" stroke-width="9.375" stroke-linecap="round" stroke-linejoin="round" points="
				97.476,59.966 99.525,47.417 97.834,49.212 92.202,55.22 			"/>
			<polygon fill="#7D8069" stroke="#FFFFFF" stroke-width="9.375" stroke-linecap="round" stroke-linejoin="round" points="
				22.048,65.034 22.126,65.064 22.126,65.064 			"/>
			<g>
				<path fill="#C79F08" stroke="#FFFFFF" stroke-width="9.375" stroke-linecap="round" stroke-linejoin="round" d="M53.234,70.268
					c0.459,0.463,0.036,0.114,0.554,0.475l3.45-2.434c-0.519-0.363-1.027-0.748-1.499-1.178c-4.99-4.564-3.707-14.804-0.438-20.419
					C46.754,53.603,47.204,64.195,53.234,70.268z"/>
				<g>
					<path fill="#C79F08" stroke="#FFFFFF" stroke-width="9.375" stroke-linecap="round" stroke-linejoin="round" d="M94.854,76.001
						c-5.682,4.697-12.171,7.77-20.761,9.842c-1.859,0.45-3.704,0.752-5.498,0.928c-13.615,1.322-25.023-4.937-29.371-15.066
						c-0.521-1.215-0.942-2.484-1.251-3.795c-2.011-8.549-0.307-16.174,3.917-22.148c0.405-0.58,0.846-1.136,1.305-1.687
						c-0.201,0.169-0.409,0.337-0.607,0.515c-1.614,1.427-3.045,3.015-4.268,4.744c-4.229,5.978-5.934,13.595-3.921,22.153
						c0.312,1.312,0.731,2.576,1.246,3.782C39.999,85.4,51.403,91.664,65.018,90.34c1.803-0.178,3.638-0.473,5.506-0.928
						c8.587-2.066,15.074-5.14,20.759-9.848c1.394-1.146,2.737-2.392,4.05-3.749l-0.134-0.118
						C95.083,75.795,94.975,75.901,94.854,76.001z"/>
					<polygon fill="#C79F08" stroke="#FFFFFF" stroke-width="9.375" stroke-linecap="round" stroke-linejoin="round" points="
						14.144,28.837 13.53,28.255 -1.141,48.86 -1.061,50.196 					"/>
					<polygon fill="#C79F08" stroke="#FFFFFF" stroke-width="9.375" stroke-linecap="round" stroke-linejoin="round" points="
						95.958,50.983 95.909,51.266 97.834,49.212 99.525,47.417 97.476,59.966 94.875,57.623 93.906,63.539 88.633,58.79 
						94.265,52.785 					"/>
					<polygon fill="#C79F08" stroke="#FFFFFF" stroke-width="9.375" stroke-linecap="round" stroke-linejoin="round" points="
						85.264,9.976 76.413,-2.054 73.125,1.905 80.725,12.227 					"/>
					<path fill="#C79F08" stroke="#FFFFFF" stroke-width="9.375" stroke-linecap="round" stroke-linejoin="round" d="
						M-68.005,45.861c-2.399-5.552-6.56-9.905-11.995-12.957c-3.945-2.631-8.474-3.903-12.735-4.386
						c-12.087-2.12-27.161-0.121-42.979,6.604c-5.641,2.398-10.93,5.138-15.773,8.216l0.628,1.062
						c3.656-2.074,7.515-3.982,11.572-5.698c15.819-6.743,30.892-8.732,42.985-6.612c4.255,0.486,8.784,1.758,12.728,4.383
						c5.448,3.057,9.591,7.406,11.999,12.959c4.283,9.87,0.502,22.959-9.588,33.937C-68.505,71.768-63.251,56.829-68.005,45.861z"/>
					<path fill="#C79F08" stroke="#FFFFFF" stroke-width="9.375" stroke-linecap="round" stroke-linejoin="round" d="
						M-16.552,78.065c-0.112-0.55-0.244-1.096-0.391-1.638c-1.408-4.982-4.369-8.938-8.274-11.589
						c-6.319-4.289-15.115-5.17-23.884-1.454c-4.618,1.983-8.641,5.049-11.812,8.734c2.443-2.097,5.21-3.858,8.239-5.159
						c8.765-3.716,17.569-2.84,23.882,1.445c3.909,2.656,6.871,6.612,8.277,11.599c0.149,0.533,0.278,1.084,0.394,1.633
						c0.39,1.899,0.548,3.832,0.481,5.767c-0.187,5.76-2.307,11.529-5.851,16.443c-0.55,0.76-1.152,1.497-1.767,2.215
						c2.005-1.726,3.809-3.676,5.337-5.788c3.544-4.913,5.664-10.685,5.855-16.436C-15.999,81.897-16.157,79.961-16.552,78.065z"/>
					<path fill="#C79F08" stroke="#FFFFFF" stroke-width="9.375" stroke-linecap="round" stroke-linejoin="round" d="
						M-40.756,70.752c-0.041,0.051,3.563-3.583,3.521-3.586c-4.501-0.153-6.405,4.092-6.559,4.424
						C-42.874,71.146-41.851,70.847-40.756,70.752z"/>
					<path fill="#C79F08" stroke="#FFFFFF" stroke-width="9.375" stroke-linecap="round" stroke-linejoin="round" d="
						M-32.278,75.945c0.182,0.593,0.292,1.223,0.292,1.87c0,0.945-0.213,1.841-0.589,2.664c0.714-0.352,5.915-2.887,3.891-8.247
						C-28.562,72.412-32.397,75.938-32.278,75.945z"/>
					<path fill="#C79F08" stroke="#FFFFFF" stroke-width="9.375" stroke-linecap="round" stroke-linejoin="round" d="
						M-52.761,78.924c0-2.216,3.767-7.54,4.944-9.336c-5.955,3.792-8.517,8.902-8.517,12.907c0,6.925,6.053,12.459,13.296,12.459
						c3.438,0,9.705-1.814,13.798-8.466c-2.138,1.414-7.609,4.812-10.472,4.812C-46.96,91.301-52.761,85.843-52.761,78.924z"/>
					<polygon fill="#C79F08" stroke="#FFFFFF" stroke-width="9.375" stroke-linecap="round" stroke-linejoin="round" points="
						-1.698,113.119 1.885,112.627 1.86,81.577 -1.791,85.232 					"/>
					<polygon fill="#C79F08" stroke="#FFFFFF" stroke-width="9.375" stroke-linecap="round" stroke-linejoin="round" points="
						-4.573,55.071 -1.08,50.168 -2.563,24.778 -27.223,32.117 -27.101,34.591 -6.134,28.345 					"/>
					<g>
						<polygon fill="#C79F08" stroke="#FFFFFF" stroke-width="9.375" stroke-linecap="round" stroke-linejoin="round" points="
							17.098,24.682 14.144,28.837 31.494,45.119 34.854,41.577 						"/>
						<path fill="#C79F08" stroke="#FFFFFF" stroke-width="9.375" stroke-linecap="round" stroke-linejoin="round" d="
							M44.917,89.175c-4.999-3.072-8.954-7.285-11.568-12.217L10.09,67.756l-3.371,3.555l23.053,9.222
							c2.622,4.932,6.576,9.138,11.573,12.216c4.828,2.97,10.337,4.742,16.193,5.291v11.392l3.574,1.784V94.47
							C55.25,93.922,49.74,92.146,44.917,89.175z"/>
					</g>
					<g>
						<path fill="#C79F08" stroke="#FFFFFF" stroke-width="9.375" stroke-linecap="round" stroke-linejoin="round" d="
							M70.383,72.179c5.699-1.367,8.973-4.329,11.789-7.611c-2.123,1.75-4.712,3.195-8.212,4.04c-1.962,0.477-4.61,0.91-6.297,0.612
							l-3.506,3.739C65.758,73.091,68.426,72.649,70.383,72.179z"/>
						<path fill="#C79F08" stroke="#FFFFFF" stroke-width="9.375" stroke-linecap="round" stroke-linejoin="round" d="
							M60.965,33.483c-5.749,1.39-10.828,3.988-14.801,7.528c-1.078,0.957-2.062,1.983-2.968,3.063
							c3.891-3.276,8.733-5.701,14.195-7.016c12.978-3.124,24.4,0.836,31.455,9.585l3.503-3.731
							C85.37,34.322,73.948,30.359,60.965,33.483z"/>
					</g>
					<path fill="#C79F08" stroke="#FFFFFF" stroke-width="9.375" stroke-linecap="round" stroke-linejoin="round" d="M95.199,75.697
						c1.27-1.071,2.501-2.212,3.714-3.449l-3.004-2.698l-9.871-8.892c-1.076,1.274-2.212,2.506-3.519,3.621l9.817,8.835
						L95.199,75.697z"/>
					<path fill="#C79F08" stroke="#FFFFFF" stroke-width="9.375" stroke-linecap="round" stroke-linejoin="round" d="
						M166.723,109.393c-0.727-0.306-1.444-0.642-2.148-1.009c-6.901-3.672-11.742-10.007-13.602-17.847
						c-2.416-10.137,1.08-21.198,8.324-29.438l-5.691-36.923h-13.68l-0.637,3.573h10.748l5.681,36.926
						c-7.234,8.24-10.737,19.3-8.32,29.435c1.868,7.838,6.704,14.175,13.601,17.843c0.706,0.373,1.423,0.703,2.156,1.01l0.085,0.567
						l4.224,0.645L166.723,109.393z"/>
					<polygon fill="#C79F08" stroke="#FFFFFF" stroke-width="9.375" stroke-linecap="round" stroke-linejoin="round" points="
						130.974,58.052 134.548,54.431 129.772,28.345 110.625,28.345 110.025,31.919 126.201,31.919 					"/>
					<polygon fill="#C79F08" stroke="#FFFFFF" stroke-width="9.375" stroke-linecap="round" stroke-linejoin="round" points="
						133.108,92.556 134.299,95.13 141.875,75.513 138.325,79.062 					"/>
					<polygon fill="#C79F08" stroke="#FFFFFF" stroke-width="9.375" stroke-linecap="round" stroke-linejoin="round" points="
						119.227,74.163 115.369,98.513 118.29,99.021 122.821,70.564 					"/>
					<path fill="#C79F08" stroke="#FFFFFF" stroke-width="9.375" stroke-linecap="round" stroke-linejoin="round" d="
						M195.496,62.773c2.117,1.518,3.911,3.434,5.298,5.702c1.054,1.743,1.872,3.695,2.385,5.834
						c1.765,7.355-0.352,15.25-4.994,21.617c-0.466,0.649-0.97,1.271-1.49,1.888c1.897-1.627,3.609-3.469,5.059-5.462
						c4.651-6.362,6.762-14.259,5.001-21.617c-0.52-2.137-1.333-4.083-2.395-5.833c-1.376-2.269-3.167-4.182-5.287-5.697
						c-5.829-4.173-14.056-5.27-22.418-2.124c-3.586,1.373-6.834,3.423-9.615,5.927c-1.022,0.921-1.958,1.919-2.849,2.953
						c2.612-2.22,5.609-4.051,8.885-5.303C181.438,57.502,189.667,58.61,195.496,62.773z"/>
					<path fill="#C79F08" stroke="#FFFFFF" stroke-width="9.375" stroke-linecap="round" stroke-linejoin="round" d="
						M183.046,64.365c0.062,0.166,3.536-3.597,3.614-3.599c-4.392,0.175-6.508,2.289-6.289,3.29
						c-0.251,0.357-0.479,0.748-0.656,1.146C180.665,64.746,182.394,64.399,183.046,64.365z"/>
					<path fill="#C79F08" stroke="#FFFFFF" stroke-width="9.375" stroke-linecap="round" stroke-linejoin="round" d="
						M191.307,69.896c0.158,0.608,0.236,1.234,0.214,1.883c-0.036,0.831-0.242,1.627-0.568,2.357
						c0.659-0.318,5.969-1.954,3.956-7.812C194.958,66.478,191.247,69.912,191.307,69.896z"/>
					<path fill="#C79F08" stroke="#FFFFFF" stroke-width="9.375" stroke-linecap="round" stroke-linejoin="round" d="M179.626,88.53
						c4.981,0.195,10.472-2.872,14.415-8.277c-2.283,1.503-7.867,4.664-10.923,4.535c-7.245-0.292-12.819-5.979-12.535-12.893
						c0.074-2.024,2.703-6.388,3.772-8.032c-3.821,2.782-7.192,8.1-7.349,11.854C166.723,82.629,172.383,88.232,179.626,88.53z"/>
					<polygon fill="#C79F08" stroke="#FFFFFF" stroke-width="9.375" stroke-linecap="round" stroke-linejoin="round" points="
						245.44,43.082 244.446,47.227 261.922,51.095 235.082,132.419 237.261,133.064 265.5,47.523 					"/>
					<polygon fill="#C79F08" stroke="#FFFFFF" stroke-width="9.375" stroke-linecap="round" stroke-linejoin="round" points="
						232.789,84.344 236.379,80.721 227.488,38.728 201.132,33.432 200.897,37.674 223.922,42.303 					"/>
					<polygon fill="#C79F08" stroke="#FFFFFF" stroke-width="9.375" stroke-linecap="round" stroke-linejoin="round" points="
						212.088,116.602 214.946,117.053 222.03,77.208 218.436,80.743 					"/>
					<polygon fill="#C79F08" stroke="#FFFFFF" stroke-width="9.375" stroke-linecap="round" stroke-linejoin="round" points="
						-91.193,90.693 -95.14,93.459 -85.154,130.873 -80.764,130.141 					"/>
					<path fill="#C79F08" stroke="#FFFFFF" stroke-width="9.375" stroke-linecap="round" stroke-linejoin="round" d="
						M-83.212,71.037c-2.497,2.634-7.993,7.758-11.141,9.778l-1.899-6.114l-4.178-13.425l-2.655-9.08l-2.593,3.336l2.656,9.072
						l4.169,13.425l1.904,6.121C-92.657,81.382-86.404,76.188-83.212,71.037z"/>
				</g>
			</g>
			<path fill="#7D8069" stroke="#FFFFFF" stroke-width="9.375" stroke-linecap="round" stroke-linejoin="round" d="M69.409,47.94
				c-3.403-1.315-8.216-0.926-10.824,1.928c-0.602,0.661-1.756,2.329-2.132,3.101c2.503-2.002,6.996-2.428,9.919-1.376L69.409,47.94
				z"/>
			<path fill="#7D8069" stroke="#FFFFFF" stroke-width="9.375" stroke-linecap="round" stroke-linejoin="round" d="M-86.332,60.067
				c-0.376-2.027-2.335-3.615-3.305-4.065c-1.733-0.821-4.703-0.956-6.887-0.551c0.393,1.356,0.846,2.947,1.033,3.581
				c0.88,0.122,2.332,0.379,3.098,0.74c0.959,0.456,2.638,1.532,3.013,3.56c0.505,2.703,0.379,5.21-0.74,7.277
				C-87.041,67.58-85.54,64.272-86.332,60.067z"/>
			<g>
				<defs>
					<path id="SVGID_29_" d="M73.994,46.723c-5.413-4.952-13.816-4.576-18.777,0.835c-4.951,5.425-4.575,13.828,0.841,18.778
						c0.454,0.412,0.933,0.771,1.416,1.112l17.459-19.776C74.64,47.346,74.329,47.028,73.994,46.723z"/>
				</defs>
				<clipPath id="SVGID_30_">
					<use xlink:href="#SVGID_29_"  overflow="visible"/>
				</clipPath>
				
					<use xlink:href="#SVGID_29_"  overflow="visible" fill="none" stroke="#FFFFFF" stroke-width="9.375" stroke-linecap="round" stroke-linejoin="round"/>
			</g>
			<g>
				<defs>
					<path id="SVGID_31_" d="M-81.486,59.141c-1.396-7.466-11.157-11.595-20.858-6.316l2.502,8.547l3.931,12.641l1.792,5.756
						C-86.858,75.095-79.548,69.483-81.486,59.141z"/>
				</defs>
				<clipPath id="SVGID_32_">
					<use xlink:href="#SVGID_31_"  overflow="visible"/>
				</clipPath>
				
					<use xlink:href="#SVGID_31_"  overflow="visible" fill="none" stroke="#FFFFFF" stroke-width="9.375" stroke-linecap="round" stroke-linejoin="round"/>
			</g>
			
				<linearGradient id="SVGID_33_" gradientUnits="userSpaceOnUse" x1="-759.1001" y1="-464.5806" x2="-760.327" y2="-580.9465" gradientTransform="matrix(1.1655 -0.0468 0.0468 1.1655 817.9471 629.4583)">
				<stop  offset="0" style="stop-color:#3B5AA6"/>
				<stop  offset="1" style="stop-color:#2A75BA"/>
			</linearGradient>
			<path fill="url(#SVGID_33_)" stroke="#FFFFFF" stroke-width="9.375" stroke-linecap="round" stroke-linejoin="round" d="
				M-80.93,60.008c-1.485-7.934-11.852-12.316-22.156-6.706l2.655,9.08l4.178,13.413l1.899,6.127
				C-86.635,76.948-78.87,70.994-80.93,60.008z M-91.14,72.203c-1.139-3.672-3.604-11.591-3.604-11.591
				c0.016,0.038-0.498-1.709-1.071-3.671c2.19-0.403,4.284-0.219,6.022,0.607c0.96,0.454,2.626,1.524,3.011,3.558
				C-85.924,65.663-87.482,68.918-91.14,72.203z"/>
			
				<linearGradient id="SVGID_34_" gradientUnits="userSpaceOnUse" x1="-431.418" y1="-312.5293" x2="-432.6448" y2="-428.8816" gradientTransform="matrix(1.1074 -0.0346 0.0346 1.1074 554.597 445.8417)">
				<stop  offset="0" style="stop-color:#3B5AA6"/>
				<stop  offset="1" style="stop-color:#2A75BA"/>
			</linearGradient>
			<path fill="url(#SVGID_34_)" stroke="#FFFFFF" stroke-width="9.375" stroke-linecap="round" stroke-linejoin="round" d="
				M74.785,47.4c-5.749-5.262-14.68-4.863-19.943,0.883c-5.26,5.758-4.856,14.679,0.898,19.945c0.472,0.44,0.98,0.819,1.499,1.178
				l18.543-21C75.474,48.06,75.141,47.722,74.785,47.4z M57.27,62.187c-1.812-3.324-1.438-7.571,1.264-10.526
				c2.612-2.853,6.615-3.659,10.012-2.341L57.27,62.187z"/>
			<polygon fill="#1E2D60" stroke="#FFFFFF" stroke-width="9.375" stroke-linecap="round" stroke-linejoin="round" points="
				99.574,45.095 89.323,55.014 99.083,63.779 			"/>
			<g>
				
					<linearGradient id="SVGID_35_" gradientUnits="userSpaceOnUse" x1="-508.1128" y1="-208.4624" x2="-509.5697" y2="-346.6379" gradientTransform="matrix(1.1664 0 0 1.1664 650.1772 389.5045)">
					<stop  offset="0" style="stop-color:#3B5AA6"/>
					<stop  offset="1" style="stop-color:#2A75BA"/>
				</linearGradient>
				<path fill="url(#SVGID_35_)" stroke="#FFFFFF" stroke-width="9.375" stroke-linecap="round" stroke-linejoin="round" d="
					M240.66,34.425l-3.27,13.464l-3.014-14.922l-40.416-8.889l0.3,22.462l6.077,1.355l-0.447,4.06
					c-0.062-0.028-0.124-0.062-0.181-0.095c-7.529-3.999-16.892-4.396-25.708-1.073c-2.942,1.125-5.688,2.632-8.188,4.414
					l-6.081-38.477h-26.878l-0.747,4.409h-28.283l-3.238,19.808l-2.351-2.894c-6.851-8.438-16.786-13.079-27.788-13.312
					L94.45,11.836L77.708-13.162L47.445,21.706l5.235,6.385c-4.753,1.933-8.878,4.585-12.287,7.809L14.454,12.884l-9.09,17.388
					l0.354-16.698l-40.575,12.942l1.032,21.811l6.904-1.803l1.028,11.057c-7.877-3.54-17.349-3.472-26.146,0.255
					c-2.6,1.121-5.041,2.521-7.284,4.146c1.525-6.729,1.163-13.37-1.393-19.279c-3.033-6.984-8.359-12.763-14.89-16.411
					c-4.573-3.046-10.037-4.949-15.756-5.594c-14.026-2.461-30.883,0.071-47.467,7.121c-6.091,2.595-11.79,5.562-16.914,8.827
					l-6.489,4.126l3.912,6.612l12.15,20.526c0,0,3.731,6.303,3.751,6.297l6.581-3.225l0.909-0.44l30.185,67.401l2.908,6.479
					l6.76-2.159l16.344-5.229l7.16-2.29l-1.898-7.27l-8.676-33.331c2.509-1.844,4.831-3.803,6.98-5.863
					c-0.48,3.991-0.232,8.014,0.855,11.874c2.27,8.074,7.564,14.464,14.906,17.988c7.925,3.806,17.601,3.821,26.549,0.027
					c4.485-1.916,8.483-4.673,11.854-7.996l1.237,13.26l28.605-4.203L8.805,93.562l59.79,29.571V94.502
					c2.416-0.196,4.854-0.567,7.316-1.164c6.59-1.59,12.212-3.782,17.218-6.773l-2.516,15.358l32.239,5.082l1.788-11.613
					l8.416,15.559l5.137-9.915l1.872,16.277l36.558,6.45l-1.941-12.304c5.004,0.56,10.281-0.096,15.374-2.015
					c1.219-0.459,2.407-0.999,3.552-1.583l-1.471,13.101l24.328,3.407l0.203,9.976l25.351,7.974l33.038-99.544L240.66,34.425z
					 M97.834,49.212l1.69-1.795l-2.049,12.549l-5.274-4.746L97.834,49.212z M76.413-2.054l8.852,12.03l-25.312,12.54l-1.742-2.645
					L76.413-2.054z M30.295,68.232l-8.248-3.198l7.682-7.456C29.401,61.012,29.573,64.59,30.295,68.232z M-91.239,90.719
					l10.092,38.753l-16.347,5.228l-33.555-74.93c-1.815,0.955-5.181,2.563-8.291,4.098l-12.148-20.529
					c4.844-3.078,10.132-5.817,15.773-8.216c15.819-6.725,30.892-8.724,42.979-6.604c4.261,0.483,8.79,1.755,12.735,4.386
					c5.435,3.051,9.595,7.405,11.995,12.957C-62.167,59.332-71.93,78.795-91.239,90.719z M-21.921,100.273
					c-3.398,4.711-8.087,8.633-13.638,11.001c-14.19,6.014-28.374,0-32.163-13.452c-3.668-13.045,4.875-28.528,18.622-34.438
					c8.769-3.716,17.565-2.834,23.884,1.454c3.905,2.652,6.866,6.607,8.274,11.589c0.147,0.542,0.278,1.088,0.391,1.638
					c0.395,1.896,0.553,3.832,0.486,5.772C-16.257,89.589-18.377,95.36-21.921,100.273z M61.112,111.215L1.778,81.541l0.107,31.086
					l-15.35,2.106l-1.079-12.84c4.75-8.119,6.483-17.696,3.991-26.453c-1.35-4.819-3.852-9.031-7.262-12.375l-2.203-26.141
					l-6.903,1.799l-0.302-6.606l24.659-7.338l1.502,25.417l18.159-25.514l17.755,16.895L10.042,67.736l23.306,9.222
					c2.614,4.932,6.569,9.145,11.568,12.217c4.823,2.971,10.334,4.747,16.195,5.295V111.215z M74.093,85.843
					c-1.859,0.45-3.704,0.752-5.498,0.928c-13.615,1.322-25.023-4.937-29.371-15.066c-0.521-1.215-0.942-2.484-1.251-3.795
					c-2.011-8.549-0.307-16.174,3.917-22.148c1.221-1.725,2.656-3.314,4.273-4.75c3.974-3.54,9.052-6.138,14.801-7.528
					c12.982-3.124,24.404,0.839,31.384,9.429L67.647,69.22c1.685,0.305,4.347-0.135,6.313-0.612
					c5.887-1.42,9.188-4.533,12.077-7.949l9.871,8.892l3.004,2.698c-1.317,1.352-2.669,2.593-4.059,3.752
					C89.172,80.698,82.683,83.771,74.093,85.843z M167.463,114.175l-20.202-3.084l-5.36-35.604l-7.602,19.644l-11.384-24.541h-0.121
					l-4.505,28.432l-18.955-3.299l2.66-15.862c0.718-0.671,1.42-1.357,2.121-2.075l6.127-6.321l-5.945-5.357l6.328-37.762h19.146
					l4.778,26.136l5.376-30.304h13.68l5.691,36.923c-7.244,8.24-10.74,19.301-8.324,29.438c1.859,7.84,6.7,14.175,13.602,17.847
					c0.704,0.367,1.422,0.703,2.148,1.009L167.463,114.175z M187.681,103.18c-4.896,1.85-9.746,2.226-14.082,1.377
					c-3.009-0.598-5.772-1.777-8.161-3.492c-3.802-2.737-6.614-6.812-7.837-11.93c-1.461-6.125-0.12-12.692,3.17-18.404
					c1.644-2.837,3.768-5.468,6.268-7.722c2.781-2.503,6.029-4.554,9.615-5.927c8.362-3.146,16.589-2.049,22.418,2.124
					c2.12,1.515,3.911,3.428,5.287,5.697c1.062,1.75,1.875,3.696,2.395,5.833c1.761,7.358-0.35,15.255-5.001,21.617
					c-1.974,2.714-4.41,5.146-7.202,7.139C192.447,100.991,190.147,102.242,187.681,103.18z M237.261,133.064l-14.026-4.19
					l-1.224-51.706l-7.065,39.885l-15.307-2.434l1.096-11.497c9.994-8.442,15.298-21.751,12.401-33.823
					c-1.278-5.353-4.017-10.001-7.913-13.548l1.292-13.545l-5.784-1.547l0.401-7.227l26.355,5.296l8.875,42.047l9.077-37.694
					l20.061,4.442L237.261,133.064z"/>
				
					<linearGradient id="SVGID_36_" gradientUnits="userSpaceOnUse" x1="-399.8184" y1="-259.1382" x2="-400.0807" y2="-284.0136" gradientTransform="matrix(1.1664 0 0 1.1664 650.1772 389.5045)">
					<stop  offset="0" style="stop-color:#3B5AA6"/>
					<stop  offset="1" style="stop-color:#2A75BA"/>
				</linearGradient>
				<path fill="url(#SVGID_36_)" stroke="#FFFFFF" stroke-width="9.375" stroke-linecap="round" stroke-linejoin="round" d="
					M194.879,66.324c0.153,0.605,0.241,1.237,0.213,1.884c-0.16,3.914-3.855,6.947-8.256,6.768s-7.841-3.49-7.682-7.415
					c0.15-3.681,3.419-6.574,7.463-6.767c-0.772-0.163-1.576-0.281-2.4-0.313c-7.356-0.293-13.367,4.912-13.634,11.415
					c-0.284,6.914,5.29,12.601,12.535,12.893c7.357,0.302,13.369-4.911,13.649-11.832C196.866,70.559,196.167,68.273,194.879,66.324
					z"/>
				
					<linearGradient id="SVGID_37_" gradientUnits="userSpaceOnUse" x1="-591.2886" y1="-253.8062" x2="-591.5458" y2="-278.2011" gradientTransform="matrix(1.1664 0 0 1.1664 650.1772 389.5045)">
					<stop  offset="0" style="stop-color:#3B5AA6"/>
					<stop  offset="1" style="stop-color:#2A75BA"/>
				</linearGradient>
				<path fill="url(#SVGID_37_)" stroke="#FFFFFF" stroke-width="9.375" stroke-linecap="round" stroke-linejoin="round" d="
					M-28.419,74.246c0,3.919-3.567,7.094-7.978,7.094c-4.404,0-7.975-3.175-7.975-7.094c0-3.688,3.152-6.707,7.187-7.065
					c-0.783-0.135-1.585-0.214-2.414-0.214c-7.361,0-13.162,5.455-13.162,11.957c0,6.919,5.801,12.377,13.05,12.377
					c7.366,0,13.163-5.458,13.163-12.377c0-2.405-0.802-4.656-2.157-6.549C-28.528,72.974-28.419,73.593-28.419,74.246z"/>
			</g>
		</g>
	</g>
	<g>
		<g>
			
				<linearGradient id="SVGID_38_" gradientUnits="userSpaceOnUse" x1="-812.4214" y1="-546.9688" x2="-802.2133" y2="-501.8789" gradientTransform="matrix(1.1656 -0.0446 0.0446 1.1656 809.8936 639.2648)">
				<stop  offset="0" style="stop-color:#1D2C5F"/>
				<stop  offset="1" style="stop-color:#0071B8"/>
			</linearGradient>
			<polygon fill="url(#SVGID_38_)" points="-148.568,80.398 -142.467,74.207 -162.197,40.797 -168.358,47.002 			"/>
			
				<linearGradient id="SVGID_39_" gradientUnits="userSpaceOnUse" x1="-441.6284" y1="-689.6855" x2="-447.1565" y2="-670.123" gradientTransform="matrix(1.1664 0 0 1.1664 645.3901 820.2897)">
				<stop  offset="0" style="stop-color:#1D2C5F"/>
				<stop  offset="1" style="stop-color:#0071B8"/>
			</linearGradient>
			<polygon fill="url(#SVGID_39_)" points="124.69,25.132 132.217,21.107 132.986,16.701 125.457,20.751 			"/>
			
				<linearGradient id="SVGID_40_" gradientUnits="userSpaceOnUse" x1="-498.1274" y1="-714.4033" x2="-510.0377" y2="-685.4785" gradientTransform="matrix(1.1664 0 0 1.1664 649.7886 815.1627)">
				<stop  offset="0" style="stop-color:#1D2C5F"/>
				<stop  offset="1" style="stop-color:#0071B8"/>
			</linearGradient>
			<polygon fill="url(#SVGID_40_)" points="39.854,25.528 47.478,21.562 77.745,-13.316 70.303,-9.349 			"/>
			
				<linearGradient id="SVGID_41_" gradientUnits="userSpaceOnUse" x1="-349.5195" y1="-681.0376" x2="-358.8756" y2="-655.0953" gradientTransform="matrix(1.1664 0 0 1.1664 648.7192 821.5533)">
				<stop  offset="0" style="stop-color:#1D2C5F"/>
				<stop  offset="1" style="stop-color:#0071B8"/>
			</linearGradient>
			<polygon fill="url(#SVGID_41_)" points="233.221,38.39 240.695,34.341 237.383,47.812 229.934,51.717 			"/>
			
				<linearGradient id="SVGID_42_" gradientUnits="userSpaceOnUse" x1="-362.0327" y1="-586.3892" x2="-364.1593" y2="-694.8336" gradientTransform="matrix(1.1664 0 0 1.1664 647.8452 821.8453)">
				<stop  offset="0" style="stop-color:#1D2C5F"/>
				<stop  offset="1" style="stop-color:#0071B8"/>
			</linearGradient>
			<polygon fill="url(#SVGID_42_)" points="234.461,146.3 241.994,142.327 216.668,134.333 209.241,138.256 			"/>
			
				<linearGradient id="SVGID_43_" gradientUnits="userSpaceOnUse" x1="-398.6836" y1="-654.272" x2="-366.3561" y2="-684.4728" gradientTransform="matrix(1.1664 0 0 1.1664 648.7192 821.5533)">
				<stop  offset="0" style="stop-color:#1D2C5F"/>
				<stop  offset="1" style="stop-color:#0071B8"/>
			</linearGradient>
			<polygon fill="url(#SVGID_43_)" points="192.932,51.861 200.356,47.94 194.276,46.56 186.774,50.44 			"/>
			
				<linearGradient id="SVGID_44_" gradientUnits="userSpaceOnUse" x1="-515.0806" y1="-583.0063" x2="-517.208" y2="-691.4946" gradientTransform="matrix(1.1664 0 0 1.1664 642.2319 819.0748)">
				<stop  offset="0" style="stop-color:#1D2C5F"/>
				<stop  offset="1" style="stop-color:#0071B8"/>
			</linearGradient>
			<polygon fill="url(#SVGID_44_)" points="39.36,35.037 45.864,31.575 40.538,35.844 32.966,39.877 			"/>
			
				<linearGradient id="SVGID_45_" gradientUnits="userSpaceOnUse" x1="-373.1431" y1="-586.1567" x2="-375.2702" y2="-694.6331" gradientTransform="matrix(1.1664 0 0 1.1664 648.2095 821.6998)">
				<stop  offset="0" style="stop-color:#1D2C5F"/>
				<stop  offset="1" style="stop-color:#0071B8"/>
			</linearGradient>
			<polygon fill="url(#SVGID_45_)" points="209.02,128.365 216.417,124.404 216.668,134.333 209.241,138.256 			"/>
			
				<linearGradient id="SVGID_46_" gradientUnits="userSpaceOnUse" x1="-360.1909" y1="-708.4429" x2="-372.1021" y2="-688.8742" gradientTransform="matrix(1.1664 0.0097 -0.0097 1.1664 609.6683 857.4456)">
				<stop  offset="0" style="stop-color:#1D2C5F"/>
				<stop  offset="1" style="stop-color:#0071B8"/>
			</linearGradient>
			<polygon fill="url(#SVGID_46_)" points="186.774,50.44 194.276,46.56 193.921,24.014 186.504,28.113 			"/>
			<polygon fill="#302370" points="184.732,124.871 192.154,120.962 200.308,47.961 192.932,51.861 			"/>
			
				<linearGradient id="SVGID_47_" gradientUnits="userSpaceOnUse" x1="-383.2319" y1="-585.9717" x2="-385.36" y2="-694.4945" gradientTransform="matrix(1.1664 0 0 1.1664 647.8452 821.8453)">
				<stop  offset="0" style="stop-color:#1D2C5F"/>
				<stop  offset="1" style="stop-color:#0071B8"/>
			</linearGradient>
			<polygon fill="url(#SVGID_47_)" points="209.02,128.365 216.417,124.404 192.154,120.962 184.732,124.871 			"/>
			
				<linearGradient id="SVGID_48_" gradientUnits="userSpaceOnUse" x1="-419.1187" y1="-589.4443" x2="-423.3715" y2="-692.348" gradientTransform="matrix(1.1664 0 0 1.1664 643.7622 817.1793)">
				<stop  offset="0" style="stop-color:#1D2C5F"/>
				<stop  offset="1" style="stop-color:#0071B8"/>
			</linearGradient>
			<polygon fill="url(#SVGID_48_)" points="169.281,127.814 176.604,123.783 140.053,117.338 132.613,121.322 			"/>
			
				<linearGradient id="SVGID_49_" gradientUnits="userSpaceOnUse" x1="-435.729" y1="-584.2715" x2="-437.8556" y2="-692.7195" gradientTransform="matrix(1.1664 0 0 1.1664 644.0542 816.5963)">
				<stop  offset="0" style="stop-color:#1D2C5F"/>
				<stop  offset="1" style="stop-color:#0071B8"/>
			</linearGradient>
			<polygon fill="url(#SVGID_49_)" points="132.613,121.322 140.053,117.338 138.149,101.025 130.649,105.056 			"/>
			
				<linearGradient id="SVGID_50_" gradientUnits="userSpaceOnUse" x1="-444.2979" y1="-584.0942" x2="-446.4253" y2="-692.5819" gradientTransform="matrix(1.1664 0 0 1.1664 643.9565 816.5963)">
				<stop  offset="0" style="stop-color:#1D2C5F"/>
				<stop  offset="1" style="stop-color:#0071B8"/>
			</linearGradient>
			<polygon fill="url(#SVGID_50_)" points="125.6,114.917 133,110.845 124.709,95.4 117.273,99.537 			"/>
			
				<linearGradient id="SVGID_51_" gradientUnits="userSpaceOnUse" x1="-463.0859" y1="-587.5186" x2="-467.3419" y2="-690.4967" gradientTransform="matrix(1.1664 0 0 1.1664 644.1509 816.402)">
				<stop  offset="0" style="stop-color:#1D2C5F"/>
				<stop  offset="1" style="stop-color:#0071B8"/>
			</linearGradient>
			<polygon fill="url(#SVGID_51_)" points="115.453,110.95 122.791,106.999 90.598,101.913 83.18,105.776 			"/>
			
				<linearGradient id="SVGID_52_" gradientUnits="userSpaceOnUse" x1="-476.9194" y1="-645.1069" x2="-444.1636" y2="-648.0845" gradientTransform="matrix(1.1664 0 0 1.1664 644.1509 816.402)">
				<stop  offset="0" style="stop-color:#1D2C5F"/>
				<stop  offset="1" style="stop-color:#0071B8"/>
			</linearGradient>
			<polygon fill="url(#SVGID_52_)" points="83.18,105.776 90.598,101.913 103.793,21.104 96.437,25.159 			"/>
			
				<linearGradient id="SVGID_53_" gradientUnits="userSpaceOnUse" x1="-525.8589" y1="-670.1592" x2="-473.1125" y2="-706.3162" gradientTransform="matrix(1.1664 0 0 1.1664 649.7886 815.236)">
				<stop  offset="0" style="stop-color:#1D2C5F"/>
				<stop  offset="1" style="stop-color:#0071B8"/>
			</linearGradient>
			<polygon fill="url(#SVGID_53_)" points="45.178,31.888 52.669,28.05 47.478,21.625 39.854,25.592 			"/>
			
				<linearGradient id="SVGID_54_" gradientUnits="userSpaceOnUse" x1="-363.5503" y1="-746.4756" x2="-365.6777" y2="-854.963" gradientTransform="matrix(1.1651 0.056 -0.056 1.1651 415.9688 1029.2699)">
				<stop  offset="0" style="stop-color:#1D2C5F"/>
				<stop  offset="1" style="stop-color:#0071B8"/>
			</linearGradient>
			<polygon fill="url(#SVGID_54_)" points="1.403,97.531 8.771,93.517 68.633,123.159 61.193,127.148 			"/>
			
				<linearGradient id="SVGID_55_" gradientUnits="userSpaceOnUse" x1="-541.2041" y1="-693.7148" x2="-548.8606" y2="-676.2754" gradientTransform="matrix(1.1664 0 0 1.1664 643.4224 819.0748)">
				<stop  offset="0" style="stop-color:#1D2C5F"/>
				<stop  offset="1" style="stop-color:#0071B8"/>
			</linearGradient>
			<polygon fill="url(#SVGID_55_)" points="-2.048,34.11 5.456,30.01 14.448,12.901 7.001,16.929 			"/>
			
				<linearGradient id="SVGID_56_" gradientUnits="userSpaceOnUse" x1="-506.3892" y1="-633.9849" x2="-508.516" y2="-742.4424" gradientTransform="matrix(1.1663 0.0182 -0.0182 1.1663 569.8864 884.0895)">
				<stop  offset="0" style="stop-color:#1D2C5F"/>
				<stop  offset="1" style="stop-color:#0071B8"/>
			</linearGradient>
			<polygon fill="url(#SVGID_56_)" points="-27.295,127.443 -19.758,123.467 8.844,119.221 1.238,123.24 			"/>
			
				<linearGradient id="SVGID_57_" gradientUnits="userSpaceOnUse" x1="-511.6309" y1="-677.6509" x2="-540.9732" y2="-671.272" gradientTransform="matrix(1.1663 0.0182 -0.0182 1.1663 569.8864 884.0895)">
				<stop  offset="0" style="stop-color:#1D2C5F"/>
				<stop  offset="1" style="stop-color:#0071B8"/>
			</linearGradient>
			<polygon fill="url(#SVGID_57_)" points="-27.295,127.443 -19.758,123.467 -26.921,46.495 -34.266,50.464 			"/>
			
				<linearGradient id="SVGID_58_" gradientUnits="userSpaceOnUse" x1="-585.4937" y1="-683.4409" x2="-584.6435" y2="-654.094" gradientTransform="matrix(1.1664 0 0 1.1664 644.3452 818.5162)">
				<stop  offset="0" style="stop-color:#1D2C5F"/>
				<stop  offset="1" style="stop-color:#0071B8"/>
			</linearGradient>
			<polygon fill="url(#SVGID_58_)" points="-41.27,52.238 -33.783,48.273 -34.877,26.504 -42.319,30.533 			"/>
			
				<linearGradient id="SVGID_59_" gradientUnits="userSpaceOnUse" x1="-756.4878" y1="-455.5942" x2="-758.6146" y2="-564.053" gradientTransform="matrix(1.1656 -0.0446 0.0446 1.1656 811.668 638.7062)">
				<stop  offset="0" style="stop-color:#1D2C5F"/>
				<stop  offset="1" style="stop-color:#0071B8"/>
			</linearGradient>
			<polygon fill="url(#SVGID_59_)" points="-101.826,144.453 -109.287,149.438 -79.02,139.689 -71.459,134.777 			"/>
			
				<linearGradient id="SVGID_60_" gradientUnits="userSpaceOnUse" x1="-779.0825" y1="-480.165" x2="-805.4562" y2="-553.758" gradientTransform="matrix(1.1656 -0.0446 0.0446 1.1656 809.5293 639.4836)">
				<stop  offset="0" style="stop-color:#1D2C5F"/>
				<stop  offset="1" style="stop-color:#0071B8"/>
			</linearGradient>
			<polygon fill="url(#SVGID_60_)" points="-134.938,70.624 -141.135,77.211 -109.287,149.438 -101.826,144.453 			"/>
			
				<linearGradient id="SVGID_61_" gradientUnits="userSpaceOnUse" x1="-1149.3335" y1="-114.439" x2="-1170.177" y2="-194.8344" gradientTransform="matrix(1.1524 -0.1803 0.1803 1.1524 1299.4091 53.6401)">
				<stop  offset="0" style="stop-color:#1D2C5F"/>
				<stop  offset="1" style="stop-color:#0071B8"/>
			</linearGradient>
			<path fill="url(#SVGID_61_)" d="M-53.941,120.026c-7.821-2.266-14.099-7.69-17.667-15.282
				c-1.829-3.869-3.487-12.547-3.579-16.842c-1.704,1.965-5.166,4.078-7.645,5.285c0,0,1.631,8.494,3.734,14.441
				c2.101,5.946,7.112,10.754,7.112,10.754c3.218,3.115,7.136,5.4,11.55,6.678c8.445,2.446,17.994,0.857,26.185-4.352
				c2.134-1.365,5.065-3.537,6.844-5.27C-35.466,120.352-45.702,122.407-53.941,120.026z"/>
			
				<linearGradient id="SVGID_62_" gradientUnits="userSpaceOnUse" x1="-580.1299" y1="-581.7178" x2="-582.2559" y2="-690.1327" gradientTransform="matrix(1.1664 0 0 1.1664 644.3452 818.5162)">
				<stop  offset="0" style="stop-color:#1D2C5F"/>
				<stop  offset="1" style="stop-color:#0071B8"/>
			</linearGradient>
			<polygon fill="url(#SVGID_62_)" points="-41.27,52.238 -34.266,50.464 -26.921,46.495 -33.783,48.273 			"/>
			
				<linearGradient id="SVGID_63_" gradientUnits="userSpaceOnUse" x1="-664.6074" y1="-580.3491" x2="-666.7348" y2="-688.8353" gradientTransform="matrix(1.1664 0 0 1.1664 634.7955 821.3112)">
				<stop  offset="0" style="stop-color:#1D2C5F"/>
				<stop  offset="1" style="stop-color:#0071B8"/>
			</linearGradient>
			<polygon fill="url(#SVGID_63_)" points="-148.568,80.398 -142.467,74.207 -134.938,70.624 -141.135,77.211 			"/>
			<g>
				
					<linearGradient id="SVGID_64_" gradientUnits="userSpaceOnUse" x1="-154.3618" y1="-842.0859" x2="-156.4876" y2="-950.4914" gradientTransform="matrix(1.1632 0.0872 -0.0872 1.1632 288.5588 1131.6637)">
					<stop  offset="0" style="stop-color:#1D2C5F"/>
					<stop  offset="1" style="stop-color:#0071B8"/>
				</linearGradient>
				<path fill="url(#SVGID_64_)" d="M174.536,111.281l0.421,3.559c2.601-0.307,5.356-0.648,7.686-1.465
					c2.733-0.945,8.655-3.562,10.91-5.539c-0.825,0.312-4.837,2.169-5.698,2.429C183.432,111.584,178.816,111.747,174.536,111.281z"
					/>
			</g>
			<g>
				
					<linearGradient id="SVGID_65_" gradientUnits="userSpaceOnUse" x1="-889.9795" y1="-1122.8042" x2="-892.1064" y2="-1231.2646" gradientTransform="matrix(1.3092 -0.0232 0.0215 1.4152 1271.7667 1709.301)">
					<stop  offset="0" style="stop-color:#1D2C5F"/>
					<stop  offset="1" style="stop-color:#0071B8"/>
				</linearGradient>
				<path fill="url(#SVGID_65_)" d="M68.501,94.479l0.118,4.074c6.114-0.896,11.371-3.174,16.544-6.273
					c3.23-1.939,6.817-4.859,7.923-5.635c-0.793,0.505-1.595,0.808-2.418,1.265C85.874,90.537,73.051,94.404,68.501,94.479z"/>
			</g>
			<path fill="#FFCA05" d="M240.66,34.425l-3.27,13.464l-3.014-14.922l-40.416-8.889l0.3,22.462l6.077,1.355l-0.447,4.06
				c-0.062-0.028-0.124-0.062-0.181-0.095c-7.529-3.999-16.892-4.396-25.708-1.073c-2.942,1.125-5.688,2.632-8.188,4.414
				l-6.081-38.477h-26.878l-0.747,4.409h-28.283l-3.238,19.808l-2.351-2.894c-6.851-8.438-16.786-13.079-27.788-13.312L94.45,11.836
				L77.708-13.162L47.445,21.706l5.235,6.385c-4.753,1.933-8.878,4.585-12.287,7.809L14.454,12.884l-9.09,17.388l0.354-16.698
				l-40.575,12.942l1.032,21.811l6.904-1.803l1.028,11.057c-7.877-3.54-17.349-3.472-26.146,0.255
				c-2.6,1.121-5.041,2.521-7.284,4.146c1.525-6.729,1.163-13.37-1.393-19.279c-3.033-6.984-8.359-12.763-14.89-16.411
				c-4.573-3.046-10.037-4.949-15.756-5.594c-14.026-2.461-30.883,0.071-47.467,7.121c-6.091,2.595-11.79,5.562-16.914,8.827
				l-6.489,4.126l3.912,6.612l12.15,20.526c0,0,3.731,6.303,3.751,6.297l6.581-3.225l0.909-0.44l30.185,67.401l2.908,6.479
				l6.76-2.159l16.344-5.229l7.16-2.29l-1.898-7.27l-8.676-33.331c2.509-1.844,4.831-3.803,6.98-5.863
				c-0.48,3.991-0.232,8.014,0.855,11.874c2.27,8.074,7.564,14.464,14.906,17.988c7.925,3.806,17.601,3.821,26.549,0.027
				c4.485-1.916,8.483-4.673,11.854-7.996l1.237,13.26l28.605-4.203L8.805,93.562l59.79,29.571V94.502
				c2.416-0.196,4.854-0.567,7.316-1.164c6.59-1.59,12.212-3.782,17.218-6.773l-2.516,15.358l32.239,5.082l1.788-11.613
				l8.416,15.559l5.137-9.915l1.872,16.277l36.558,6.45l-1.941-12.304c5.004,0.56,10.281-0.096,15.374-2.015
				c1.219-0.459,2.407-0.999,3.552-1.583l-1.471,13.101l24.328,3.407l0.203,9.976l25.351,7.974l33.038-99.544L240.66,34.425z
				 M22.048,65.034l7.682-7.456c-0.328,3.433-0.157,7.011,0.566,10.654L22.048,65.034z M97.476,59.966l-5.274-4.746l5.633-6.008
				l1.69-1.795L97.476,59.966z M-90.478,71.837l-1.146,1.03l-0.463-1.477l-4.675-15.277l-0.315-1.048l1.081-0.203
				c2.446-0.452,4.737-0.212,6.623,0.684c1.133,0.539,3.109,1.812,3.569,4.272C-84.928,64.522-86.324,68.116-90.478,71.837z
				 M57.983,61.705l-0.884,1.012l-0.651-1.18c-2.074-3.777-1.509-8.44,1.391-11.617c2.814-3.069,7.154-4.088,11.041-2.582
				l1.266,0.486l-0.892,1.013L57.983,61.705z"/>
			<path fill="#7D8069" d="M82.459,64.23c-0.091,0.112-0.183,0.222-0.287,0.337c0.118-0.097,0.235-0.191,0.347-0.288L82.459,64.23z"
				/>
			<polygon fill="#7D8069" points="93.906,63.539 94.875,57.623 97.476,59.966 92.202,55.22 97.834,49.212 95.909,51.266 
				95.958,50.983 94.265,52.785 88.633,58.79 			"/>
			<polygon fill="#7D8069" points="97.476,59.966 99.525,47.417 97.834,49.212 92.202,55.22 			"/>
			<polygon fill="#7D8069" points="22.048,65.034 22.126,65.064 22.126,65.064 			"/>
			<g>
				<path fill="#C79F08" d="M53.234,70.268c0.459,0.463,0.036,0.114,0.554,0.475l3.45-2.434c-0.519-0.363-1.027-0.748-1.499-1.178
					c-4.99-4.564-3.707-14.804-0.438-20.419C46.754,53.603,47.204,64.195,53.234,70.268z"/>
				<g>
					<path fill="#C79F08" d="M94.854,76.001c-5.682,4.697-12.171,7.77-20.761,9.842c-1.859,0.45-3.704,0.752-5.498,0.928
						c-13.615,1.322-25.023-4.937-29.371-15.066c-0.521-1.215-0.942-2.484-1.251-3.795c-2.011-8.549-0.307-16.174,3.917-22.148
						c0.405-0.58,0.846-1.136,1.305-1.687c-0.201,0.169-0.409,0.337-0.607,0.515c-1.614,1.427-3.045,3.015-4.268,4.744
						c-4.229,5.978-5.934,13.595-3.921,22.153c0.312,1.312,0.731,2.576,1.246,3.782C39.999,85.4,51.403,91.664,65.018,90.34
						c1.803-0.178,3.638-0.473,5.506-0.928c8.587-2.066,15.074-5.14,20.759-9.848c1.394-1.146,2.737-2.392,4.05-3.749l-0.134-0.118
						C95.083,75.795,94.975,75.901,94.854,76.001z"/>
					<polygon fill="#C79F08" points="14.144,28.837 13.53,28.255 -1.141,48.86 -1.061,50.196 					"/>
					<polygon fill="#C79F08" points="95.958,50.983 95.909,51.266 97.834,49.212 99.525,47.417 97.476,59.966 94.875,57.623 
						93.906,63.539 88.633,58.79 94.265,52.785 					"/>
					<polygon fill="#C79F08" points="85.264,9.976 76.413,-2.054 73.125,1.905 80.725,12.227 					"/>
					<path fill="#C79F08" d="M-68.005,45.861c-2.399-5.552-6.56-9.905-11.995-12.957c-3.945-2.631-8.474-3.903-12.735-4.386
						c-12.087-2.12-27.161-0.121-42.979,6.604c-5.641,2.398-10.93,5.138-15.773,8.216l0.628,1.062
						c3.656-2.074,7.515-3.982,11.572-5.698c15.819-6.743,30.892-8.732,42.985-6.612c4.255,0.486,8.784,1.758,12.728,4.383
						c5.448,3.057,9.591,7.406,11.999,12.959c4.283,9.87,0.502,22.959-9.588,33.937C-68.505,71.768-63.251,56.829-68.005,45.861z"/>
					<path fill="#C79F08" d="M-16.552,78.065c-0.112-0.55-0.244-1.096-0.391-1.638c-1.408-4.982-4.369-8.938-8.274-11.589
						c-6.319-4.289-15.115-5.17-23.884-1.454c-4.618,1.983-8.641,5.049-11.812,8.734c2.443-2.097,5.21-3.858,8.239-5.159
						c8.765-3.716,17.569-2.84,23.882,1.445c3.909,2.656,6.871,6.612,8.277,11.599c0.149,0.533,0.278,1.084,0.394,1.633
						c0.39,1.899,0.548,3.832,0.481,5.767c-0.187,5.76-2.307,11.529-5.851,16.443c-0.55,0.76-1.152,1.497-1.767,2.215
						c2.005-1.726,3.809-3.676,5.337-5.788c3.544-4.913,5.664-10.685,5.855-16.436C-15.999,81.897-16.157,79.961-16.552,78.065z"/>
					<path fill="#C79F08" d="M-40.756,70.752c-0.041,0.051,3.563-3.583,3.521-3.586c-4.501-0.153-6.405,4.092-6.559,4.424
						C-42.874,71.146-41.851,70.847-40.756,70.752z"/>
					<path fill="#C79F08" d="M-32.278,75.945c0.182,0.593,0.292,1.223,0.292,1.87c0,0.945-0.213,1.841-0.589,2.664
						c0.714-0.352,5.915-2.887,3.891-8.247C-28.562,72.412-32.397,75.938-32.278,75.945z"/>
					<path fill="#C79F08" d="M-52.761,78.924c0-2.216,3.767-7.54,4.944-9.336c-5.955,3.792-8.517,8.902-8.517,12.907
						c0,6.925,6.053,12.459,13.296,12.459c3.438,0,9.705-1.814,13.798-8.466c-2.138,1.414-7.609,4.812-10.472,4.812
						C-46.96,91.301-52.761,85.843-52.761,78.924z"/>
					<polygon fill="#C79F08" points="-1.698,113.119 1.885,112.627 1.86,81.577 -1.791,85.232 					"/>
					<polygon fill="#C79F08" points="-4.573,55.071 -1.08,50.168 -2.563,24.778 -27.223,32.117 -27.101,34.591 -6.134,28.345 					
						"/>
					<g>
						<polygon fill="#C79F08" points="17.098,24.682 14.144,28.837 31.494,45.119 34.854,41.577 						"/>
						<path fill="#C79F08" d="M44.917,89.175c-4.999-3.072-8.954-7.285-11.568-12.217L10.09,67.756l-3.371,3.555l23.053,9.222
							c2.622,4.932,6.576,9.138,11.573,12.216c4.828,2.97,10.337,4.742,16.193,5.291v11.392l3.574,1.784V94.47
							C55.25,93.922,49.74,92.146,44.917,89.175z"/>
					</g>
					<g>
						<path fill="#C79F08" d="M70.383,72.179c5.699-1.367,8.973-4.329,11.789-7.611c-2.123,1.75-4.712,3.195-8.212,4.04
							c-1.962,0.477-4.61,0.91-6.297,0.612l-3.506,3.739C65.758,73.091,68.426,72.649,70.383,72.179z"/>
						<path fill="#C79F08" d="M60.965,33.483c-5.749,1.39-10.828,3.988-14.801,7.528c-1.078,0.957-2.062,1.983-2.968,3.063
							c3.891-3.276,8.733-5.701,14.195-7.016c12.978-3.124,24.4,0.836,31.455,9.585l3.503-3.731
							C85.37,34.322,73.948,30.359,60.965,33.483z"/>
					</g>
					<path fill="#C79F08" d="M95.199,75.697c1.27-1.071,2.501-2.212,3.714-3.449l-3.004-2.698l-9.871-8.892
						c-1.076,1.274-2.212,2.506-3.519,3.621l9.817,8.835L95.199,75.697z"/>
					<path fill="#C79F08" d="M166.723,109.393c-0.727-0.306-1.444-0.642-2.148-1.009c-6.901-3.672-11.742-10.007-13.602-17.847
						c-2.416-10.137,1.08-21.198,8.324-29.438l-5.691-36.923h-13.68l-0.637,3.573h10.748l5.681,36.926
						c-7.234,8.24-10.737,19.3-8.32,29.435c1.868,7.838,6.704,14.175,13.601,17.843c0.706,0.373,1.423,0.703,2.156,1.01l0.085,0.567
						l4.224,0.645L166.723,109.393z"/>
					<polygon fill="#C79F08" points="130.974,58.052 134.548,54.431 129.772,28.345 110.625,28.345 110.025,31.919 126.201,31.919 
											"/>
					<polygon fill="#C79F08" points="133.108,92.556 134.299,95.13 141.875,75.513 138.325,79.062 					"/>
					<polygon fill="#C79F08" points="119.227,74.163 115.369,98.513 118.29,99.021 122.821,70.564 					"/>
					<path fill="#C79F08" d="M195.496,62.773c2.117,1.518,3.911,3.434,5.298,5.702c1.054,1.743,1.872,3.695,2.385,5.834
						c1.765,7.355-0.352,15.25-4.994,21.617c-0.466,0.649-0.97,1.271-1.49,1.888c1.897-1.627,3.609-3.469,5.059-5.462
						c4.651-6.362,6.762-14.259,5.001-21.617c-0.52-2.137-1.333-4.083-2.395-5.833c-1.376-2.269-3.167-4.182-5.287-5.697
						c-5.829-4.173-14.056-5.27-22.418-2.124c-3.586,1.373-6.834,3.423-9.615,5.927c-1.022,0.921-1.958,1.919-2.849,2.953
						c2.612-2.22,5.609-4.051,8.885-5.303C181.438,57.502,189.667,58.61,195.496,62.773z"/>
					<path fill="#C79F08" d="M183.046,64.365c0.062,0.166,3.536-3.597,3.614-3.599c-4.392,0.175-6.508,2.289-6.289,3.29
						c-0.251,0.357-0.479,0.748-0.656,1.146C180.665,64.746,182.394,64.399,183.046,64.365z"/>
					<path fill="#C79F08" d="M191.307,69.896c0.158,0.608,0.236,1.234,0.214,1.883c-0.036,0.831-0.242,1.627-0.568,2.357
						c0.659-0.318,5.969-1.954,3.956-7.812C194.958,66.478,191.247,69.912,191.307,69.896z"/>
					<path fill="#C79F08" d="M179.626,88.53c4.981,0.195,10.472-2.872,14.415-8.277c-2.283,1.503-7.867,4.664-10.923,4.535
						c-7.245-0.292-12.819-5.979-12.535-12.893c0.074-2.024,2.703-6.388,3.772-8.032c-3.821,2.782-7.192,8.1-7.349,11.854
						C166.723,82.629,172.383,88.232,179.626,88.53z"/>
					<polygon fill="#C79F08" points="245.44,43.082 244.446,47.227 261.922,51.095 235.082,132.419 237.261,133.064 265.5,47.523 
											"/>
					<polygon fill="#C79F08" points="232.789,84.344 236.379,80.721 227.488,38.728 201.132,33.432 200.897,37.674 223.922,42.303 
											"/>
					<polygon fill="#C79F08" points="212.088,116.602 214.946,117.053 222.03,77.208 218.436,80.743 					"/>
					<polygon fill="#C79F08" points="-91.193,90.693 -95.14,93.459 -85.154,130.873 -80.764,130.141 					"/>
					<path fill="#C79F08" d="M-83.212,71.037c-2.497,2.634-7.993,7.758-11.141,9.778l-1.899-6.114l-4.178-13.425l-2.655-9.08
						l-2.593,3.336l2.656,9.072l4.169,13.425l1.904,6.121C-92.657,81.382-86.404,76.188-83.212,71.037z"/>
				</g>
			</g>
			<path fill="#7D8069" d="M69.409,47.94c-3.403-1.315-8.216-0.926-10.824,1.928c-0.602,0.661-1.756,2.329-2.132,3.101
				c2.503-2.002,6.996-2.428,9.919-1.376L69.409,47.94z"/>
			<path fill="#7D8069" d="M-86.332,60.067c-0.376-2.027-2.335-3.615-3.305-4.065c-1.733-0.821-4.703-0.956-6.887-0.551
				c0.393,1.356,0.846,2.947,1.033,3.581c0.88,0.122,2.332,0.379,3.098,0.74c0.959,0.456,2.638,1.532,3.013,3.56
				c0.505,2.703,0.379,5.21-0.74,7.277C-87.041,67.58-85.54,64.272-86.332,60.067z"/>
			<g>
				<defs>
					<path id="SVGID_66_" d="M73.994,46.723c-5.413-4.952-13.816-4.576-18.777,0.835c-4.951,5.425-4.575,13.828,0.841,18.778
						c0.454,0.412,0.933,0.771,1.416,1.112l17.459-19.776C74.64,47.346,74.329,47.028,73.994,46.723z"/>
				</defs>
				<clipPath id="SVGID_67_">
					<use xlink:href="#SVGID_66_"  overflow="visible"/>
				</clipPath>
			</g>
			<g>
				<defs>
					<path id="SVGID_68_" d="M-81.486,59.141c-1.396-7.466-11.157-11.595-20.858-6.316l2.502,8.547l3.931,12.641l1.792,5.756
						C-86.858,75.095-79.548,69.483-81.486,59.141z"/>
				</defs>
				<clipPath id="SVGID_69_">
					<use xlink:href="#SVGID_68_"  overflow="visible"/>
				</clipPath>
			</g>
			
				<linearGradient id="SVGID_70_" gradientUnits="userSpaceOnUse" x1="-759.1001" y1="-464.5806" x2="-760.327" y2="-580.9465" gradientTransform="matrix(1.1655 -0.0468 0.0468 1.1655 817.9471 629.4583)">
				<stop  offset="0" style="stop-color:#3B5AA6"/>
				<stop  offset="1" style="stop-color:#2A75BA"/>
			</linearGradient>
			<path fill="url(#SVGID_70_)" d="M-80.93,60.008c-1.485-7.934-11.852-12.316-22.156-6.706l2.655,9.08l4.178,13.413l1.899,6.127
				C-86.635,76.948-78.87,70.994-80.93,60.008z M-91.14,72.203c-1.139-3.672-3.604-11.591-3.604-11.591
				c0.016,0.038-0.498-1.709-1.071-3.671c2.19-0.403,4.284-0.219,6.022,0.607c0.96,0.454,2.626,1.524,3.011,3.558
				C-85.924,65.663-87.482,68.918-91.14,72.203z"/>
			
				<linearGradient id="SVGID_71_" gradientUnits="userSpaceOnUse" x1="-431.418" y1="-312.5293" x2="-432.6448" y2="-428.8816" gradientTransform="matrix(1.1074 -0.0346 0.0346 1.1074 554.597 445.8417)">
				<stop  offset="0" style="stop-color:#3B5AA6"/>
				<stop  offset="1" style="stop-color:#2A75BA"/>
			</linearGradient>
			<path fill="url(#SVGID_71_)" d="M74.785,47.4c-5.749-5.262-14.68-4.863-19.943,0.883c-5.26,5.758-4.856,14.679,0.898,19.945
				c0.472,0.44,0.98,0.819,1.499,1.178l18.543-21C75.474,48.06,75.141,47.722,74.785,47.4z M57.27,62.187
				c-1.812-3.324-1.438-7.571,1.264-10.526c2.612-2.853,6.615-3.659,10.012-2.341L57.27,62.187z"/>
			<polygon fill="#1E2D60" points="99.574,45.095 89.323,55.014 99.083,63.779 			"/>
			<g>
				
					<linearGradient id="SVGID_72_" gradientUnits="userSpaceOnUse" x1="-508.1128" y1="-208.4624" x2="-509.5697" y2="-346.6379" gradientTransform="matrix(1.1664 0 0 1.1664 650.1772 389.5045)">
					<stop  offset="0" style="stop-color:#3B5AA6"/>
					<stop  offset="1" style="stop-color:#2A75BA"/>
				</linearGradient>
				<path fill="url(#SVGID_72_)" d="M240.66,34.425l-3.27,13.464l-3.014-14.922l-40.416-8.889l0.3,22.462l6.077,1.355l-0.447,4.06
					c-0.062-0.028-0.124-0.062-0.181-0.095c-7.529-3.999-16.892-4.396-25.708-1.073c-2.942,1.125-5.688,2.632-8.188,4.414
					l-6.081-38.477h-26.878l-0.747,4.409h-28.283l-3.238,19.808l-2.351-2.894c-6.851-8.438-16.786-13.079-27.788-13.312
					L94.45,11.836L77.708-13.162L47.445,21.706l5.235,6.385c-4.753,1.933-8.878,4.585-12.287,7.809L14.454,12.884l-9.09,17.388
					l0.354-16.698l-40.575,12.942l1.032,21.811l6.904-1.803l1.028,11.057c-7.877-3.54-17.349-3.472-26.146,0.255
					c-2.6,1.121-5.041,2.521-7.284,4.146c1.525-6.729,1.163-13.37-1.393-19.279c-3.033-6.984-8.359-12.763-14.89-16.411
					c-4.573-3.046-10.037-4.949-15.756-5.594c-14.026-2.461-30.883,0.071-47.467,7.121c-6.091,2.595-11.79,5.562-16.914,8.827
					l-6.489,4.126l3.912,6.612l12.15,20.526c0,0,3.731,6.303,3.751,6.297l6.581-3.225l0.909-0.44l30.185,67.401l2.908,6.479
					l6.76-2.159l16.344-5.229l7.16-2.29l-1.898-7.27l-8.676-33.331c2.509-1.844,4.831-3.803,6.98-5.863
					c-0.48,3.991-0.232,8.014,0.855,11.874c2.27,8.074,7.564,14.464,14.906,17.988c7.925,3.806,17.601,3.821,26.549,0.027
					c4.485-1.916,8.483-4.673,11.854-7.996l1.237,13.26l28.605-4.203L8.805,93.562l59.79,29.571V94.502
					c2.416-0.196,4.854-0.567,7.316-1.164c6.59-1.59,12.212-3.782,17.218-6.773l-2.516,15.358l32.239,5.082l1.788-11.613
					l8.416,15.559l5.137-9.915l1.872,16.277l36.558,6.45l-1.941-12.304c5.004,0.56,10.281-0.096,15.374-2.015
					c1.219-0.459,2.407-0.999,3.552-1.583l-1.471,13.101l24.328,3.407l0.203,9.976l25.351,7.974l33.038-99.544L240.66,34.425z
					 M97.834,49.212l1.69-1.795l-2.049,12.549l-5.274-4.746L97.834,49.212z M76.413-2.054l8.852,12.03l-25.312,12.54l-1.742-2.645
					L76.413-2.054z M30.295,68.232l-8.248-3.198l7.682-7.456C29.401,61.012,29.573,64.59,30.295,68.232z M-91.239,90.719
					l10.092,38.753l-16.347,5.228l-33.555-74.93c-1.815,0.955-5.181,2.563-8.291,4.098l-12.148-20.529
					c4.844-3.078,10.132-5.817,15.773-8.216c15.819-6.725,30.892-8.724,42.979-6.604c4.261,0.483,8.79,1.755,12.735,4.386
					c5.435,3.051,9.595,7.405,11.995,12.957C-62.167,59.332-71.93,78.795-91.239,90.719z M-21.921,100.273
					c-3.398,4.711-8.087,8.633-13.638,11.001c-14.19,6.014-28.374,0-32.163-13.452c-3.668-13.045,4.875-28.528,18.622-34.438
					c8.769-3.716,17.565-2.834,23.884,1.454c3.905,2.652,6.866,6.607,8.274,11.589c0.147,0.542,0.278,1.088,0.391,1.638
					c0.395,1.896,0.553,3.832,0.486,5.772C-16.257,89.589-18.377,95.36-21.921,100.273z M61.112,111.215L1.778,81.541l0.107,31.086
					l-15.35,2.106l-1.079-12.84c4.75-8.119,6.483-17.696,3.991-26.453c-1.35-4.819-3.852-9.031-7.262-12.375l-2.203-26.141
					l-6.903,1.799l-0.302-6.606l24.659-7.338l1.502,25.417l18.159-25.514l17.755,16.895L10.042,67.736l23.306,9.222
					c2.614,4.932,6.569,9.145,11.568,12.217c4.823,2.971,10.334,4.747,16.195,5.295V111.215z M74.093,85.843
					c-1.859,0.45-3.704,0.752-5.498,0.928c-13.615,1.322-25.023-4.937-29.371-15.066c-0.521-1.215-0.942-2.484-1.251-3.795
					c-2.011-8.549-0.307-16.174,3.917-22.148c1.221-1.725,2.656-3.314,4.273-4.75c3.974-3.54,9.052-6.138,14.801-7.528
					c12.982-3.124,24.404,0.839,31.384,9.429L67.647,69.22c1.685,0.305,4.347-0.135,6.313-0.612
					c5.887-1.42,9.188-4.533,12.077-7.949l9.871,8.892l3.004,2.698c-1.317,1.352-2.669,2.593-4.059,3.752
					C89.172,80.698,82.683,83.771,74.093,85.843z M167.463,114.175l-20.202-3.084l-5.36-35.604l-7.602,19.644l-11.384-24.541h-0.121
					l-4.505,28.432l-18.955-3.299l2.66-15.862c0.718-0.671,1.42-1.357,2.121-2.075l6.127-6.321l-5.945-5.357l6.328-37.762h19.146
					l4.778,26.136l5.376-30.304h13.68l5.691,36.923c-7.244,8.24-10.74,19.301-8.324,29.438c1.859,7.84,6.7,14.175,13.602,17.847
					c0.704,0.367,1.422,0.703,2.148,1.009L167.463,114.175z M187.681,103.18c-4.896,1.85-9.746,2.226-14.082,1.377
					c-3.009-0.598-5.772-1.777-8.161-3.492c-3.802-2.737-6.614-6.812-7.837-11.93c-1.461-6.125-0.12-12.692,3.17-18.404
					c1.644-2.837,3.768-5.468,6.268-7.722c2.781-2.503,6.029-4.554,9.615-5.927c8.362-3.146,16.589-2.049,22.418,2.124
					c2.12,1.515,3.911,3.428,5.287,5.697c1.062,1.75,1.875,3.696,2.395,5.833c1.761,7.358-0.35,15.255-5.001,21.617
					c-1.974,2.714-4.41,5.146-7.202,7.139C192.447,100.991,190.147,102.242,187.681,103.18z M237.261,133.064l-14.026-4.19
					l-1.224-51.706l-7.065,39.885l-15.307-2.434l1.096-11.497c9.994-8.442,15.298-21.751,12.401-33.823
					c-1.278-5.353-4.017-10.001-7.913-13.548l1.292-13.545l-5.784-1.547l0.401-7.227l26.355,5.296l8.875,42.047l9.077-37.694
					l20.061,4.442L237.261,133.064z"/>
				
					<linearGradient id="SVGID_73_" gradientUnits="userSpaceOnUse" x1="-399.8184" y1="-259.1382" x2="-400.0807" y2="-284.0136" gradientTransform="matrix(1.1664 0 0 1.1664 650.1772 389.5045)">
					<stop  offset="0" style="stop-color:#3B5AA6"/>
					<stop  offset="1" style="stop-color:#2A75BA"/>
				</linearGradient>
				<path fill="url(#SVGID_73_)" d="M194.879,66.324c0.153,0.605,0.241,1.237,0.213,1.884c-0.16,3.914-3.855,6.947-8.256,6.768
					s-7.841-3.49-7.682-7.415c0.15-3.681,3.419-6.574,7.463-6.767c-0.772-0.163-1.576-0.281-2.4-0.313
					c-7.356-0.293-13.367,4.912-13.634,11.415c-0.284,6.914,5.29,12.601,12.535,12.893c7.357,0.302,13.369-4.911,13.649-11.832
					C196.866,70.559,196.167,68.273,194.879,66.324z"/>
				
					<linearGradient id="SVGID_74_" gradientUnits="userSpaceOnUse" x1="-591.2886" y1="-253.8062" x2="-591.5458" y2="-278.2011" gradientTransform="matrix(1.1664 0 0 1.1664 650.1772 389.5045)">
					<stop  offset="0" style="stop-color:#3B5AA6"/>
					<stop  offset="1" style="stop-color:#2A75BA"/>
				</linearGradient>
				<path fill="url(#SVGID_74_)" d="M-28.419,74.246c0,3.919-3.567,7.094-7.978,7.094c-4.404,0-7.975-3.175-7.975-7.094
					c0-3.688,3.152-6.707,7.187-7.065c-0.783-0.135-1.585-0.214-2.414-0.214c-7.361,0-13.162,5.455-13.162,11.957
					c0,6.919,5.801,12.377,13.05,12.377c7.366,0,13.163-5.458,13.163-12.377c0-2.405-0.802-4.656-2.157-6.549
					C-28.528,72.974-28.419,73.593-28.419,74.246z"/>
			</g>
		</g>
	</g>
</g>
</svg>
