<?xml version="1.0" encoding="UTF-8" standalone="no"?>
<!DOCTYPE svg PUBLIC "-//W3C//DTD SVG 1.1//EN" "http://www.w3.org/Graphics/SVG/1.1/DTD/svg11.dtd">
<svg width="100%" height="100%" viewBox="0 0 400 273" version="1.1" xmlns="http://www.w3.org/2000/svg" xmlns:xlink="http://www.w3.org/1999/xlink" xml:space="preserve" style="fill-rule:evenodd;clip-rule:evenodd;stroke-linecap:round;stroke-linejoin:round;">
    <g>
        <path d="M39.032,142.059L43.857,137.164L28.256,110.747L23.385,115.653L39.032,142.059Z" style="fill:url(#_Linear1);fill-rule:nonzero;stroke:white;stroke-width:7.41px;"/>
        <path d="M255.095,98.36L261.047,95.178L261.653,91.695L255.7,94.896L255.095,98.36Z" style="fill:url(#_Linear2);fill-rule:nonzero;stroke:white;stroke-width:7.41px;"/>
        <path d="M188.016,98.674L194.044,95.538L217.976,67.96L212.091,71.097L188.016,98.674Z" style="fill:url(#_Linear3);fill-rule:nonzero;stroke:white;stroke-width:7.41px;"/>
        <path d="M340.909,108.844L346.817,105.642L344.199,116.294L338.309,119.381L340.909,108.844Z" style="fill:url(#_Linear4);fill-rule:nonzero;stroke:white;stroke-width:7.41px;"/>
        <path d="M341.89,194.167L347.845,191.025L327.82,184.704L321.947,187.806L341.89,194.167Z" style="fill:url(#_Linear5);fill-rule:nonzero;stroke:white;stroke-width:7.41px;"/>
        <path d="M309.052,119.495L314.923,116.396L310.115,115.304L304.184,118.372L309.052,119.495Z" style="fill:url(#_Linear6);fill-rule:nonzero;stroke:white;stroke-width:7.41px;"/>
        <path d="M187.625,106.193L192.768,103.456L188.557,106.831L182.569,110.019L187.625,106.193Z" style="fill:url(#_Linear7);fill-rule:nonzero;stroke:white;stroke-width:7.41px;"/>
        <path d="M321.773,179.986L327.621,176.854L327.82,184.704L321.947,187.806L321.773,179.986Z" style="fill:url(#_Linear8);fill-rule:nonzero;stroke:white;stroke-width:7.41px;"/>
        <path d="M304.184,118.372L310.115,115.304L309.834,97.477L303.97,100.718L304.184,118.372Z" style="fill:url(#_Linear9);fill-rule:nonzero;stroke:white;stroke-width:7.41px;"/>
        <path d="M302.569,177.224L308.437,174.132L314.884,116.411L309.052,119.495L302.569,177.224Z" style="fill:rgb(48,35,112);fill-rule:nonzero;stroke:white;stroke-width:7.41px;"/>
        <path d="M321.773,179.986L327.621,176.854L308.437,174.132L302.569,177.224L321.773,179.986Z" style="fill:url(#_Linear10);fill-rule:nonzero;stroke:white;stroke-width:7.41px;"/>
        <path d="M290.352,179.551L296.143,176.362L267.242,171.267L261.359,174.417L290.352,179.551Z" style="fill:url(#_Linear11);fill-rule:nonzero;stroke:white;stroke-width:7.41px;"/>
        <path d="M261.359,174.417L267.242,171.267L265.735,158.369L259.806,161.556L261.359,174.417Z" style="fill:url(#_Linear12);fill-rule:nonzero;stroke:white;stroke-width:7.41px;"/>
        <path d="M255.814,169.353L261.665,166.133L255.109,153.921L249.229,157.191L255.814,169.353Z" style="fill:url(#_Linear13);fill-rule:nonzero;stroke:white;stroke-width:7.41px;"/>
        <path d="M247.791,166.216L253.593,163.092L228.139,159.07L222.272,162.125L247.791,166.216Z" style="fill:url(#_Linear14);fill-rule:nonzero;stroke:white;stroke-width:7.41px;"/>
        <path d="M222.272,162.125L228.139,159.07L238.572,95.175L232.755,98.382L222.272,162.125Z" style="fill:url(#_Linear15);fill-rule:nonzero;stroke:white;stroke-width:7.41px;"/>
        <path d="M192.225,103.703L198.149,100.668L194.044,95.587L188.016,98.724L192.225,103.703Z" style="fill:url(#_Linear16);fill-rule:nonzero;stroke:white;stroke-width:7.41px;"/>
        <path d="M157.613,155.606L163.439,152.432L210.771,175.869L204.888,179.023L157.613,155.606Z" style="fill:url(#_Linear17);fill-rule:nonzero;stroke:white;stroke-width:7.41px;"/>
        <path d="M154.884,105.459L160.817,102.218L167.927,88.689L162.04,91.875L154.884,105.459Z" style="fill:url(#_Linear18);fill-rule:nonzero;stroke:white;stroke-width:7.41px;"/>
        <path d="M123.872,119.794L129.792,116.658L128.926,99.445L123.042,102.631L123.872,119.794Z" style="fill:url(#_Linear19);fill-rule:nonzero;stroke:white;stroke-width:7.41px;"/>
        <path d="M75.991,192.706L70.092,196.647L94.023,188.94L100.002,185.056L75.991,192.706Z" style="fill:url(#_Linear20);fill-rule:nonzero;stroke:white;stroke-width:7.41px;"/>
        <path d="M49.81,134.331L44.91,139.538L70.092,196.647L75.991,192.706L49.81,134.331Z" style="fill:url(#_Linear21);fill-rule:nonzero;stroke:white;stroke-width:7.41px;"/>
        <path d="M113.853,173.393C107.669,171.602 102.706,167.312 99.884,161.31C98.437,158.25 97.126,151.389 97.054,147.994C95.707,149.548 92.97,151.219 91.009,152.173C91.009,152.173 92.298,158.89 93.962,163.591C95.623,168.293 99.586,172.095 99.586,172.095C102.13,174.558 105.228,176.365 108.718,177.374C115.396,179.309 122.946,178.053 129.422,173.934C131.11,172.854 133.427,171.137 134.834,169.768C128.46,173.65 120.367,175.274 113.853,173.393Z" style="fill:url(#_Linear22);fill-rule:nonzero;stroke:white;stroke-width:7.41px;"/>
        <path d="M123.872,119.794L129.41,118.39L135.218,115.252L129.792,116.658L123.872,119.794Z" style="fill:url(#_Linear23);fill-rule:nonzero;stroke:white;stroke-width:7.41px;"/>
        <path d="M39.032,142.059L43.857,137.164L49.81,134.331L44.91,139.538L39.032,142.059Z" style="fill:url(#_Linear24);fill-rule:nonzero;stroke:white;stroke-width:7.41px;"/>
        <path d="M294.507,166.479L294.84,169.291C296.896,169.049 299.074,168.779 300.916,168.133C303.077,167.386 307.761,165.317 309.543,163.753C308.891,163.999 305.719,165.469 305.038,165.674C301.54,166.718 297.891,166.847 294.507,166.479Z" style="fill:url(#_Linear25);fill-rule:nonzero;stroke:white;stroke-width:7.41px;"/>
        <path d="M210.667,153.192L210.76,156.414C215.594,155.705 219.751,153.905 223.841,151.453C226.396,149.92 229.232,147.612 230.106,146.997C229.479,147.397 228.845,147.637 228.195,147.998C224.402,150.075 214.265,153.133 210.667,153.192Z" style="fill:url(#_Linear26);fill-rule:nonzero;stroke:white;stroke-width:7.41px;"/>
        <path d="M346.79,105.709L344.205,116.355L341.823,104.556L309.865,97.527L310.102,115.287L314.907,116.359L314.553,119.569C314.504,119.547 314.455,119.52 314.41,119.494C308.457,116.333 301.055,116.018 294.083,118.645C291.756,119.534 289.586,120.726 287.608,122.135L282.799,91.712L261.547,91.712L260.957,95.198L238.594,95.198L236.033,110.86L234.174,108.572C228.758,101.901 220.902,98.231 212.203,98.046L231.182,87.847L217.945,68.08L194.017,95.649L198.156,100.698C194.398,102.226 191.135,104.323 188.44,106.872L167.931,88.674L160.743,102.423L161.023,89.22L128.941,99.453L129.757,116.699L135.216,115.274L136.028,124.017C129.799,121.218 122.311,121.271 115.355,124.219C113.299,125.105 111.37,126.212 109.596,127.496C110.802,122.176 110.515,116.924 108.494,112.252C106.095,106.73 101.885,102.161 96.721,99.276C93.105,96.867 88.784,95.362 84.263,94.853C73.173,92.907 59.845,94.909 46.731,100.483C41.915,102.535 37.409,104.881 33.358,107.462L28.227,110.725L31.321,115.954L40.928,132.183C40.928,132.183 43.878,137.166 43.893,137.162L49.096,134.612L49.815,134.264L73.681,187.557L75.98,192.68L81.326,190.972L94.249,186.838L99.91,185.026L98.409,179.278L91.549,152.924C93.533,151.466 95.369,149.916 97.068,148.288C96.689,151.443 96.884,154.623 97.744,157.676C99.539,164.061 103.725,169.113 109.53,171.899C115.797,174.909 123.447,174.921 130.522,171.92C134.068,170.405 137.23,168.225 139.895,165.598L140.873,176.082L163.491,172.759L163.463,152.464L210.738,175.845L210.738,153.207C212.648,153.052 214.577,152.759 216.523,152.287C221.734,151.029 226.179,149.296 230.137,146.931L228.148,159.076L253.639,163.094L255.053,153.911L261.707,166.214L265.769,158.374L267.248,171.244L296.154,176.344L294.62,166.616C298.576,167.058 302.749,166.54 306.775,165.022C307.739,164.659 308.679,164.233 309.584,163.77L308.422,174.128L327.657,176.822L327.817,184.711L347.862,191.015L373.985,112.307L346.79,105.709ZM173.937,129.91L180.011,124.015C179.752,126.729 179.887,129.558 180.458,132.439L173.937,129.91ZM233.576,125.903L229.406,122.151L233.86,117.401L235.197,115.981L233.576,125.903ZM84.964,135.29L84.058,136.104L83.692,134.936L79.996,122.857L79.747,122.028L80.601,121.867C82.536,121.51 84.347,121.7 85.838,122.408C86.734,122.834 88.296,123.841 88.66,125.786C89.352,129.506 88.249,132.348 84.964,135.29ZM202.35,127.278L201.652,128.078L201.136,127.145C199.497,124.159 199.944,120.472 202.236,117.96C204.462,115.533 207.893,114.727 210.966,115.918L211.966,116.302L211.261,117.104L202.35,127.278Z" style="fill:rgb(255,202,5);fill-rule:nonzero;stroke:white;stroke-width:7.41px;"/>
        <path d="M221.703,129.275C221.631,129.363 221.558,129.45 221.475,129.542C221.569,129.465 221.662,129.391 221.75,129.314L221.703,129.275Z" style="fill:rgb(125,128,105);fill-rule:nonzero;stroke:white;stroke-width:7.41px;"/>
        <path d="M230.754,128.729L231.521,124.051L233.576,125.903L229.406,122.151L233.86,117.401L232.337,119.024L232.376,118.801L231.038,120.226L226.585,124.974L230.754,128.729Z" style="fill:rgb(125,128,105);fill-rule:nonzero;stroke:white;stroke-width:7.41px;"/>
        <path d="M233.576,125.903L235.197,115.981L233.86,117.401L229.406,122.151L233.576,125.903Z" style="fill:rgb(125,128,105);fill-rule:nonzero;stroke:white;stroke-width:7.41px;"/>
        <path d="M173.937,129.91L173.998,129.935L173.937,129.91Z" style="fill:rgb(125,128,105);fill-rule:nonzero;stroke:white;stroke-width:7.41px;"/>
        <g>
            <path d="M198.596,134.049C198.959,134.415 198.624,134.139 199.034,134.424L201.763,132.499C201.353,132.212 200.951,131.908 200.577,131.567C196.632,127.959 197.646,119.862 200.231,115.422C193.472,120.873 193.827,129.247 198.596,134.049Z" style="fill:rgb(199,159,8);fill-rule:nonzero;stroke:white;stroke-width:7.41px;"/>
            <g>
                <path d="M231.504,138.582C227.011,142.297 221.879,144.726 215.088,146.364C213.618,146.719 212.159,146.958 210.74,147.096C199.975,148.142 190.955,143.194 187.517,135.184C187.105,134.223 186.772,133.22 186.528,132.183C184.938,125.423 186.285,119.395 189.625,114.67C189.946,114.212 190.294,113.772 190.658,113.337C190.499,113.471 190.334,113.603 190.178,113.743C188.902,114.872 187.77,116.127 186.803,117.494C183.459,122.221 182.112,128.244 183.703,135.01C183.949,136.048 184.281,137.046 184.688,138C188.129,146.013 197.147,150.966 207.913,149.918C209.337,149.777 210.788,149.544 212.266,149.185C219.055,147.551 224.184,145.121 228.68,141.398C229.782,140.493 230.844,139.507 231.882,138.435L231.776,138.341C231.685,138.419 231.599,138.503 231.504,138.582Z" style="fill:rgb(199,159,8);fill-rule:nonzero;stroke:white;stroke-width:7.41px;"/>
                <path d="M167.687,101.291L167.201,100.83L155.602,117.122L155.665,118.179L167.687,101.291Z" style="fill:rgb(199,159,8);fill-rule:nonzero;stroke:white;stroke-width:7.41px;"/>
                <path d="M232.376,118.801L232.337,119.024L233.86,117.401L235.197,115.981L233.576,125.903L231.521,124.051L230.754,128.729L226.585,124.974L231.038,120.226L232.376,118.801Z" style="fill:rgb(199,159,8);fill-rule:nonzero;stroke:white;stroke-width:7.41px;"/>
                <path d="M223.922,86.377L216.922,76.865L214.322,79.995L220.332,88.157L223.922,86.377Z" style="fill:rgb(199,159,8);fill-rule:nonzero;stroke:white;stroke-width:7.41px;"/>
                <path d="M102.732,114.751C100.835,110.361 97.545,106.919 93.248,104.506C90.129,102.426 86.548,101.42 83.179,101.038C73.622,99.362 61.703,100.942 49.196,106.259C44.736,108.155 40.554,110.322 36.724,112.755L37.22,113.594C40.111,111.954 43.162,110.445 46.37,109.089C58.878,103.757 70.795,102.185 80.357,103.86C83.722,104.244 87.303,105.25 90.421,107.326C94.729,109.743 98.004,113.181 99.907,117.573C103.294,125.377 100.304,135.727 92.326,144.407C102.337,135.235 106.491,123.423 102.732,114.751Z" style="fill:rgb(199,159,8);fill-rule:nonzero;stroke:white;stroke-width:7.41px;"/>
                <path d="M143.417,140.215C143.328,139.779 143.224,139.348 143.108,138.92C141.995,134.981 139.653,131.853 136.566,129.756C131.569,126.365 124.614,125.668 117.681,128.606C114.03,130.174 110.848,132.598 108.341,135.512C110.273,133.854 112.46,132.462 114.856,131.433C121.787,128.494 128.748,129.187 133.739,132.576C136.83,134.676 139.172,137.804 140.283,141.747C140.401,142.169 140.503,142.603 140.595,143.038C140.904,144.54 141.029,146.068 140.975,147.598C140.827,152.153 139.151,156.714 136.349,160.6C135.914,161.201 135.438,161.784 134.952,162.351C136.537,160.987 137.963,159.445 139.172,157.774C141.974,153.89 143.651,149.326 143.802,144.78C143.853,143.244 143.728,141.713 143.417,140.215Z" style="fill:rgb(199,159,8);fill-rule:nonzero;stroke:white;stroke-width:7.41px;"/>
                <path d="M124.278,134.432C124.246,134.473 127.095,131.599 127.062,131.597C123.503,131.475 121.998,134.832 121.876,135.095C122.604,134.743 123.413,134.507 124.278,134.432Z" style="fill:rgb(199,159,8);fill-rule:nonzero;stroke:white;stroke-width:7.41px;"/>
                <path d="M130.981,138.538C131.125,139.007 131.211,139.505 131.211,140.017C131.211,140.765 131.042,141.472 130.745,142.123C131.31,141.846 135.422,139.841 133.822,135.603C133.92,135.744 130.887,138.532 130.981,138.538Z" style="fill:rgb(199,159,8);fill-rule:nonzero;stroke:white;stroke-width:7.41px;"/>
                <path d="M114.786,140.894C114.786,139.142 117.764,134.932 118.696,133.512C113.988,136.51 111.962,140.551 111.962,143.717C111.962,149.193 116.748,153.569 122.475,153.569C125.193,153.569 130.148,152.134 133.385,146.875C131.694,147.994 127.368,150.681 125.105,150.681C119.373,150.68 114.786,146.364 114.786,140.894Z" style="fill:rgb(199,159,8);fill-rule:nonzero;stroke:white;stroke-width:7.41px;"/>
                <path d="M155.161,167.931L157.994,167.542L157.975,142.991L155.087,145.882L155.161,167.931Z" style="fill:rgb(199,159,8);fill-rule:nonzero;stroke:white;stroke-width:7.41px;"/>
                <path d="M152.887,122.033L155.649,118.156L154.477,98.081L134.979,103.883L135.075,105.839L151.653,100.902L152.887,122.033Z" style="fill:rgb(199,159,8);fill-rule:nonzero;stroke:white;stroke-width:7.41px;"/>
                <g>
                    <path d="M170.022,98.005L167.687,101.291L181.405,114.165L184.062,111.364L170.022,98.005Z" style="fill:rgb(199,159,8);fill-rule:nonzero;stroke:white;stroke-width:7.41px;"/>
                    <path d="M192.019,148.998C188.066,146.569 184.939,143.238 182.872,139.339L164.483,132.063L161.817,134.874L180.044,142.166C182.117,146.065 185.244,149.392 189.195,151.824C193.012,154.173 197.368,155.575 201.998,156.009L201.998,165.016L204.825,166.426L204.825,153.187C200.189,152.752 195.832,151.348 192.019,148.998Z" style="fill:rgb(199,159,8);fill-rule:nonzero;stroke:white;stroke-width:7.41px;"/>
                </g>
                <g>
                    <path d="M212.154,135.56C216.661,134.479 219.25,132.138 221.475,129.542C219.796,130.925 217.749,132.068 214.982,132.736C213.431,133.113 211.336,133.455 210.003,133.22L207.231,136.177C208.498,136.281 210.607,135.932 212.154,135.56Z" style="fill:rgb(199,159,8);fill-rule:nonzero;stroke:white;stroke-width:7.41px;"/>
                    <path d="M204.708,104.964C200.163,106.063 196.147,108.117 193.005,110.916C192.153,111.673 191.375,112.484 190.658,113.338C193.734,110.747 197.563,108.83 201.882,107.79C212.144,105.32 221.175,108.451 226.753,115.369L229.523,112.419C224.004,105.627 214.973,102.493 204.708,104.964Z" style="fill:rgb(199,159,8);fill-rule:nonzero;stroke:white;stroke-width:7.41px;"/>
                </g>
                <path d="M231.775,138.342C232.779,137.495 233.753,136.593 234.712,135.615L232.337,133.482L224.531,126.451C223.68,127.458 222.782,128.432 221.75,129.314L229.512,136.3L231.775,138.342Z" style="fill:rgb(199,159,8);fill-rule:nonzero;stroke:white;stroke-width:7.41px;"/>
                <path d="M288.33,164.984C287.756,164.742 287.187,164.477 286.631,164.186C281.174,161.283 277.347,156.274 275.876,150.075C273.965,142.06 276.73,133.315 282.457,126.799L277.957,97.604L267.141,97.604L266.638,100.429L275.136,100.429L279.628,129.626C273.908,136.141 271.138,144.886 273.049,152.899C274.527,159.096 278.35,164.107 283.803,167.007C284.362,167.303 284.928,167.563 285.508,167.805L285.575,168.254L288.915,168.764L288.33,164.984Z" style="fill:rgb(199,159,8);fill-rule:nonzero;stroke:white;stroke-width:7.41px;"/>
                <path d="M260.063,124.39L262.889,121.527L259.113,100.901L243.974,100.901L243.498,103.727L256.289,103.727L260.063,124.39Z" style="fill:rgb(199,159,8);fill-rule:nonzero;stroke:white;stroke-width:7.41px;"/>
                <path d="M261.751,151.672L262.692,153.707L268.683,138.196L265.875,141.003L261.751,151.672Z" style="fill:rgb(199,159,8);fill-rule:nonzero;stroke:white;stroke-width:7.41px;"/>
                <path d="M250.775,137.128L247.724,156.382L250.034,156.784L253.616,134.283L250.775,137.128Z" style="fill:rgb(199,159,8);fill-rule:nonzero;stroke:white;stroke-width:7.41px;"/>
                <path d="M311.079,128.124C312.754,129.324 314.173,130.84 315.268,132.633C316.102,134.011 316.748,135.555 317.153,137.247C318.549,143.062 316.876,149.305 313.205,154.339C312.837,154.853 312.438,155.344 312.027,155.832C313.527,154.545 314.881,153.089 316.026,151.513C319.704,146.483 321.373,140.239 319.98,134.421C319.57,132.732 318.927,131.192 318.087,129.809C316.998,128.016 315.583,126.502 313.906,125.305C309.297,122.005 302.793,121.138 296.18,123.625C293.345,124.71 290.777,126.332 288.577,128.312C287.768,129.041 287.029,129.83 286.325,130.647C288.39,128.892 290.76,127.444 293.349,126.454C299.964,123.955 306.472,124.831 311.079,128.124Z" style="fill:rgb(199,159,8);fill-rule:nonzero;stroke:white;stroke-width:7.41px;"/>
                <path d="M301.236,129.382C301.285,129.513 304.032,126.538 304.093,126.536C300.62,126.675 298.947,128.347 299.12,129.138C298.922,129.42 298.741,129.729 298.601,130.044C299.353,129.683 300.72,129.409 301.236,129.382Z" style="fill:rgb(199,159,8);fill-rule:nonzero;stroke:white;stroke-width:7.41px;"/>
                <path d="M307.769,133.755C307.894,134.236 307.956,134.731 307.937,135.244C307.909,135.901 307.747,136.531 307.489,137.108C308.01,136.857 312.208,135.563 310.616,130.931C310.654,131.053 307.72,133.768 307.769,133.755Z" style="fill:rgb(199,159,8);fill-rule:nonzero;stroke:white;stroke-width:7.41px;"/>
                <path d="M298.532,148.489C302.47,148.643 306.811,146.218 309.929,141.944C308.123,143.132 303.707,145.632 301.291,145.53C295.562,145.299 291.155,140.801 291.38,135.335C291.439,133.735 293.518,130.284 294.363,128.984C291.341,131.184 288.676,135.389 288.552,138.357C288.33,143.823 292.805,148.253 298.532,148.489Z" style="fill:rgb(199,159,8);fill-rule:nonzero;stroke:white;stroke-width:7.41px;"/>
                <path d="M350.57,112.553L349.784,115.832L363.603,118.89L342.38,183.191L344.103,183.702L366.432,116.065L350.57,112.553Z" style="fill:rgb(199,159,8);fill-rule:nonzero;stroke:white;stroke-width:7.41px;"/>
                <path d="M340.566,145.179L343.406,142.314L336.375,109.111L315.536,104.923L315.351,108.278L333.556,111.938L340.566,145.179Z" style="fill:rgb(199,159,8);fill-rule:nonzero;stroke:white;stroke-width:7.41px;"/>
                <path d="M324.2,170.685L326.459,171.041L332.06,139.536L329.219,142.332L324.2,170.685Z" style="fill:rgb(199,159,8);fill-rule:nonzero;stroke:white;stroke-width:7.41px;"/>
                <path d="M84.398,150.199L81.278,152.386L89.174,181.969L92.645,181.39L84.398,150.199Z" style="fill:rgb(199,159,8);fill-rule:nonzero;stroke:white;stroke-width:7.41px;"/>
                <path d="M90.709,134.657C88.734,136.74 84.389,140.791 81.9,142.388L80.398,137.554L77.095,126.939L74.995,119.76L72.945,122.398L75.045,129.571L78.342,140.186L79.847,145.026C83.241,142.838 88.185,138.73 90.709,134.657Z" style="fill:rgb(199,159,8);fill-rule:nonzero;stroke:white;stroke-width:7.41px;"/>
            </g>
        </g>
        <path d="M211.384,116.396C208.694,115.356 204.888,115.664 202.826,117.92C202.349,118.442 201.437,119.762 201.139,120.372C203.118,118.789 206.671,118.451 208.983,119.283L211.384,116.396Z" style="fill:rgb(125,128,105);fill-rule:nonzero;stroke:white;stroke-width:7.41px;"/>
        <path d="M88.242,125.984C87.945,124.381 86.396,123.126 85.629,122.77C84.258,122.121 81.91,122.014 80.184,122.334C80.495,123.406 80.853,124.664 81.001,125.165C81.697,125.262 82.845,125.465 83.451,125.75C84.209,126.111 85.536,126.961 85.833,128.564C86.232,130.701 86.133,132.684 85.248,134.318C87.681,131.923 88.869,129.309 88.242,125.984Z" style="fill:rgb(125,128,105);fill-rule:nonzero;stroke:white;stroke-width:7.41px;"/>
        <path id="SVGID_29_" d="M215.01,115.432C210.73,111.516 204.086,111.813 200.163,116.092C196.248,120.382 196.545,127.025 200.828,130.94C201.187,131.266 201.566,131.549 201.948,131.819L215.753,116.182C215.521,115.925 215.274,115.673 215.01,115.432Z" style="fill:none;stroke:white;stroke-width:7.41px;"/>
        <path id="SVGID_31_" d="M92.073,125.251C90.969,119.348 83.251,116.084 75.58,120.257L77.558,127.015L80.666,137.01L82.083,141.562C87.826,137.866 93.605,133.429 92.073,125.251Z" style="fill:none;stroke:white;stroke-width:7.41px;"/>
        <path d="M92.514,125.936C91.34,119.663 83.143,116.198 74.995,120.634L77.095,127.814L80.398,138.419L81.9,143.264C88.002,139.331 94.142,134.623 92.514,125.936ZM84.44,135.579C83.539,132.676 81.591,126.414 81.591,126.414C81.603,126.444 81.197,125.063 80.743,123.512C82.474,123.193 84.131,123.339 85.505,123.992C86.265,124.351 87.582,125.198 87.886,126.805C88.564,130.408 87.333,132.982 84.44,135.579Z" style="fill:url(#_Linear27);fill-rule:nonzero;stroke:white;stroke-width:7.41px;"/>
        <path d="M215.635,115.968C211.089,111.807 204.028,112.123 199.866,116.666C195.707,121.218 196.026,128.272 200.576,132.437C200.949,132.785 201.351,133.084 201.762,133.368L216.424,116.763C216.181,116.489 215.917,116.222 215.635,115.968ZM201.786,127.66C200.353,125.032 200.649,121.674 202.785,119.337C204.851,117.081 208.015,116.444 210.702,117.486L201.786,127.66Z" style="fill:url(#_Linear28);fill-rule:nonzero;stroke:white;stroke-width:7.41px;"/>
        <path d="M235.235,114.145L227.13,121.988L234.847,128.918L235.235,114.145Z" style="fill:rgb(30,45,96);fill-rule:nonzero;stroke:white;stroke-width:7.41px;"/>
        <g>
            <path d="M346.79,105.709L344.205,116.355L341.823,104.556L309.865,97.527L310.102,115.287L314.907,116.359L314.553,119.569C314.504,119.547 314.455,119.52 314.41,119.494C308.457,116.333 301.055,116.018 294.083,118.645C291.756,119.534 289.586,120.726 287.608,122.135L282.799,91.712L261.547,91.712L260.957,95.198L238.594,95.198L236.033,110.86L234.174,108.572C228.758,101.901 220.902,98.231 212.203,98.046L231.182,87.847L217.945,68.08L194.017,95.649L198.156,100.698C194.398,102.226 191.135,104.323 188.44,106.872L167.931,88.674L160.743,102.423L161.023,89.22L128.941,99.453L129.757,116.699L135.216,115.274L136.028,124.017C129.799,121.218 122.311,121.271 115.355,124.219C113.299,125.105 111.37,126.212 109.596,127.496C110.802,122.176 110.515,116.924 108.494,112.252C106.095,106.73 101.885,102.161 96.721,99.276C93.105,96.867 88.784,95.362 84.263,94.853C73.173,92.907 59.845,94.909 46.731,100.483C41.915,102.535 37.409,104.881 33.358,107.462L28.227,110.725L31.321,115.954L40.928,132.183C40.928,132.183 43.878,137.166 43.893,137.162L49.096,134.612L49.815,134.264L73.681,187.557L75.98,192.68L81.326,190.972L94.249,186.838L99.91,185.026L98.409,179.278L91.549,152.924C93.533,151.466 95.369,149.916 97.068,148.288C96.689,151.443 96.884,154.623 97.744,157.676C99.539,164.061 103.725,169.113 109.53,171.899C115.797,174.909 123.447,174.921 130.522,171.92C134.068,170.405 137.23,168.225 139.895,165.598L140.873,176.082L163.491,172.759L163.463,152.464L210.738,175.845L210.738,153.207C212.648,153.052 214.577,152.759 216.523,152.287C221.734,151.029 226.179,149.296 230.137,146.931L228.148,159.076L253.639,163.094L255.053,153.911L261.707,166.214L265.769,158.374L267.248,171.244L296.154,176.344L294.62,166.616C298.576,167.058 302.749,166.54 306.775,165.022C307.739,164.659 308.679,164.233 309.584,163.77L308.422,174.128L327.657,176.822L327.817,184.711L347.862,191.015L373.985,112.307L346.79,105.709ZM233.86,117.401L235.197,115.981L233.576,125.904L229.406,122.152L233.86,117.401ZM216.922,76.865L223.922,86.377L203.907,96.292L202.529,94.201L216.922,76.865ZM180.458,132.439L173.937,129.91L180.011,124.015C179.751,126.73 179.886,129.559 180.458,132.439ZM84.362,150.22L92.341,180.862L79.416,184.995L52.885,125.749C51.449,126.503 48.788,127.775 46.329,128.989L36.724,112.757C40.554,110.324 44.735,108.157 49.195,106.261C61.703,100.944 73.622,99.364 83.179,101.04C86.548,101.422 90.129,102.428 93.248,104.508C97.546,106.921 100.835,110.363 102.732,114.753C107.349,125.402 99.63,140.791 84.362,150.22ZM139.17,157.773C136.483,161.499 132.775,164.599 128.387,166.472C117.167,171.227 105.952,166.472 102.956,155.836C100.056,145.522 106.81,133.278 117.68,128.606C124.614,125.668 131.568,126.365 136.565,129.756C139.652,131.853 141.993,134.981 143.107,138.92C143.223,139.348 143.327,139.779 143.416,140.215C143.728,141.713 143.853,143.244 143.8,144.779C143.649,149.325 141.973,153.89 139.17,157.773ZM204.824,166.425L157.909,142.962L157.993,167.541L145.857,169.207L145.003,159.055C148.759,152.635 150.129,145.064 148.159,138.139C147.092,134.328 145.113,130.998 142.416,128.354L140.675,107.684L135.217,109.107L134.978,103.883L154.476,98.081L155.664,118.178L170.022,98.005L184.061,111.363L164.444,132.047L182.871,139.339C184.938,143.238 188.065,146.569 192.018,148.998C195.831,151.348 200.188,152.752 204.824,153.186L204.824,166.425ZM215.089,146.364C213.618,146.719 212.159,146.958 210.74,147.096C199.976,148.142 190.955,143.194 187.517,135.184C187.105,134.223 186.772,133.22 186.528,132.183C184.938,125.423 186.285,119.395 189.625,114.67C190.59,113.306 191.726,112.05 193.004,110.914C196.146,108.116 200.162,106.061 204.707,104.962C214.972,102.491 224.003,105.625 229.521,112.417L209.989,133.22C211.322,133.461 213.427,133.113 214.982,132.736C219.636,131.613 222.247,129.152 224.531,126.45L232.336,133.481L234.712,135.614C233.67,136.682 232.602,137.665 231.503,138.581C227.011,142.297 221.88,144.726 215.089,146.364ZM288.915,168.766L272.941,166.327L268.702,138.176L262.692,153.708L253.69,134.304L253.595,134.304L250.033,156.785L235.045,154.177L237.149,141.635C237.716,141.105 238.271,140.562 238.827,139.994L243.672,134.996L238.971,130.76L243.975,100.903L259.114,100.903L262.893,121.568L267.143,97.607L277.959,97.607L282.459,126.802C276.731,133.318 273.966,142.063 275.877,150.078C277.348,156.277 281.175,161.286 286.632,164.189C287.189,164.48 287.757,164.745 288.331,164.987L288.915,168.766ZM304.901,160.072C301.03,161.535 297.195,161.832 293.766,161.161C291.387,160.688 289.202,159.756 287.313,158.4C284.306,156.235 282.084,153.013 281.117,148.966C279.962,144.123 281.021,138.93 283.623,134.414C284.923,132.17 286.602,130.09 288.578,128.308C290.777,126.329 293.346,124.707 296.182,123.621C302.793,121.134 309.298,122 313.908,125.301C315.585,126.498 317,128.011 318.088,129.805C318.928,131.188 319.57,132.727 319.982,134.417C321.374,140.235 319.705,146.479 316.028,151.509C314.467,153.655 312.541,155.578 310.334,157.154C308.669,158.342 306.851,159.331 304.901,160.072ZM344.103,183.702L333.013,180.388L332.045,139.505L326.459,171.041L314.355,169.117L315.221,160.026C323.123,153.35 327.318,142.828 325.028,133.283C324.016,129.051 321.852,125.375 318.771,122.57L319.792,111.86L315.218,110.636L315.536,104.922L336.374,109.11L343.393,142.356L350.57,112.553L366.431,116.065L344.103,183.702Z" style="fill:url(#_Linear29);fill-rule:nonzero;stroke:white;stroke-width:7.41px;"/>
            <path d="M310.593,130.93C310.714,131.409 310.783,131.909 310.761,132.42C310.634,135.515 307.712,137.913 304.233,137.772C300.754,137.63 298.034,135.012 298.16,131.909C298.279,128.998 300.864,126.71 304.061,126.558C303.45,126.43 302.815,126.336 302.163,126.31C296.347,126.078 291.593,130.194 291.383,135.335C291.158,140.801 295.566,145.298 301.294,145.53C307.111,145.768 311.865,141.646 312.087,136.175C312.163,134.279 311.611,132.472 310.593,130.93Z" style="fill:url(#_Linear30);fill-rule:nonzero;stroke:white;stroke-width:7.41px;"/>
            <path d="M134.033,137.195C134.033,140.293 131.212,142.803 127.725,142.803C124.243,142.803 121.419,140.292 121.419,137.195C121.419,134.279 123.911,131.891 127.102,131.608C126.483,131.502 125.849,131.439 125.193,131.439C119.373,131.439 114.787,135.752 114.787,140.894C114.787,146.365 119.373,150.68 125.105,150.68C130.93,150.68 135.513,146.365 135.513,140.894C135.513,138.993 134.879,137.212 133.807,135.715C133.946,136.188 134.033,136.678 134.033,137.195Z" style="fill:url(#_Linear31);fill-rule:nonzero;stroke:white;stroke-width:7.41px;"/>
        </g>
        <g transform="matrix(0.464099,0,0,0.698151,-6.362,-2.20444)">
            <rect x="-12.1" y="-5.5" width="904.1" height="411" style="fill:url(#_Linear32);"/>
        </g>
    </g>
    <g>
        <path d="M221.703,129.275C221.631,129.363 221.558,129.45 221.475,129.542C221.569,129.465 221.662,129.391 221.75,129.314L221.703,129.275Z" style="fill:rgb(125,128,105);fill-rule:nonzero;"/>
        <path d="M173.937,129.91L173.998,129.935L173.937,129.91Z" style="fill:rgb(125,128,105);fill-rule:nonzero;"/>
        <g transform="matrix(1,0,0,1,-2,0)">
            <path d="M215.635,115.968C211.089,111.807 204.028,112.123 199.866,116.666C195.707,121.218 196.026,128.272 200.576,132.437C200.949,132.785 201.351,133.084 201.762,133.368L216.424,116.763C216.181,116.489 215.917,116.222 215.635,115.968ZM201.786,127.66C200.353,125.032 200.649,121.674 202.785,119.337C204.851,117.081 208.015,116.444 210.702,117.486L201.786,127.66Z" style="fill:white;fill-rule:nonzero;"/>
        </g>
        <g transform="matrix(1,0,0,1,-2,0)">
            <path d="M346.79,105.709L344.205,116.355L341.823,104.556L309.865,97.527L310.102,115.287L314.907,116.359L314.553,119.569C314.504,119.547 314.455,119.52 314.41,119.494C308.457,116.333 301.055,116.018 294.083,118.645C291.756,119.534 289.586,120.726 287.608,122.135L282.799,91.712L261.547,91.712L260.957,95.198L238.594,95.198L236.033,110.86L234.174,108.572C228.758,101.901 220.902,98.231 212.203,98.046L231.182,87.847L217.945,68.08L194.017,95.649L198.156,100.698C194.398,102.226 191.135,104.323 188.44,106.872L167.931,88.674L160.743,102.423L161.023,89.22L128.941,99.453L129.757,116.699L135.216,115.274L136.028,124.017C129.799,121.218 122.311,121.271 115.355,124.219C113.299,125.105 111.37,126.212 109.596,127.496C110.802,122.176 110.515,116.924 108.494,112.252C106.095,106.73 101.885,102.161 96.721,99.276C93.105,96.867 88.784,95.362 84.263,94.853C73.173,92.907 59.845,94.909 46.731,100.483C41.915,102.535 37.409,104.881 33.358,107.462L28.227,110.725L31.321,115.954L40.928,132.183C40.928,132.183 43.878,137.166 43.893,137.162L49.096,134.612L49.815,134.264L73.681,187.557L75.98,192.68L81.326,190.972L94.249,186.838L99.91,185.026L98.409,179.278L91.549,152.924C93.533,151.466 95.369,149.916 97.068,148.288C96.689,151.443 96.884,154.623 97.744,157.676C99.539,164.061 103.725,169.113 109.53,171.899C115.797,174.909 123.447,174.921 130.522,171.92C134.068,170.405 137.23,168.225 139.895,165.598L140.873,176.082L163.491,172.759L163.463,152.464L210.738,175.845L210.738,153.207C212.648,153.052 214.577,152.759 216.523,152.287C221.734,151.029 226.179,149.296 230.137,146.931L228.148,159.076L253.639,163.094L255.053,153.911L261.707,166.214L265.769,158.374L267.248,171.244L296.154,176.344L294.62,166.616C298.576,167.058 302.749,166.54 306.775,165.022C307.739,164.659 308.679,164.233 309.584,163.77L308.422,174.128L327.657,176.822L327.817,184.711L347.862,191.015L373.985,112.307L346.79,105.709ZM233.86,117.401L235.197,115.981L233.576,125.904L229.406,122.152L233.86,117.401ZM216.922,76.865L223.922,86.377L203.907,96.292L202.529,94.201L216.922,76.865ZM180.458,132.439L173.937,129.91L180.011,124.015C179.751,126.73 179.886,129.559 180.458,132.439ZM84.362,150.22L92.341,180.862L79.416,184.995L52.885,125.749C51.449,126.503 48.788,127.775 46.329,128.989L36.724,112.757C40.554,110.324 44.735,108.157 49.195,106.261C61.703,100.944 73.622,99.364 83.179,101.04C86.548,101.422 90.129,102.428 93.248,104.508C97.546,106.921 100.835,110.363 102.732,114.753C107.349,125.402 99.63,140.791 84.362,150.22ZM139.17,157.773C136.483,161.499 132.775,164.599 128.387,166.472C117.167,171.227 105.952,166.472 102.956,155.836C100.056,145.522 106.81,133.278 117.68,128.606C124.614,125.668 131.568,126.365 136.565,129.756C139.652,131.853 141.993,134.981 143.107,138.92C143.223,139.348 143.327,139.779 143.416,140.215C143.728,141.713 143.853,143.244 143.8,144.779C143.649,149.325 141.973,153.89 139.17,157.773ZM204.824,166.425L157.909,142.962L157.993,167.541L145.857,169.207L145.003,159.055C148.759,152.635 150.129,145.064 148.159,138.139C147.092,134.328 145.113,130.998 142.416,128.354L140.675,107.684L135.217,109.107L134.978,103.883L154.476,98.081L155.664,118.178L170.022,98.005L184.061,111.363L164.444,132.047L182.871,139.339C184.938,143.238 188.065,146.569 192.018,148.998C195.831,151.348 200.188,152.752 204.824,153.186L204.824,166.425ZM215.089,146.364C213.618,146.719 212.159,146.958 210.74,147.096C199.976,148.142 190.955,143.194 187.517,135.184C187.105,134.223 186.772,133.22 186.528,132.183C184.938,125.423 186.285,119.395 189.625,114.67C190.59,113.306 191.726,112.05 193.004,110.914C196.146,108.116 200.162,106.061 204.707,104.962C214.972,102.491 224.003,105.625 229.521,112.417L209.989,133.22C211.322,133.461 213.427,133.113 214.982,132.736C219.636,131.613 222.247,129.152 224.531,126.45L232.336,133.481L234.712,135.614C233.67,136.682 232.602,137.665 231.503,138.581C227.011,142.297 221.88,144.726 215.089,146.364ZM288.915,168.766L272.941,166.327L268.702,138.176L262.692,153.708L253.69,134.304L253.595,134.304L250.033,156.785L235.045,154.177L237.149,141.635C237.716,141.105 238.271,140.562 238.827,139.994L243.672,134.996L238.971,130.76L243.975,100.903L259.114,100.903L262.893,121.568L267.143,97.607L277.959,97.607L282.459,126.802C276.731,133.318 273.966,142.063 275.877,150.078C277.348,156.277 281.175,161.286 286.632,164.189C287.189,164.48 287.757,164.745 288.331,164.987L288.915,168.766ZM304.901,160.072C301.03,161.535 297.195,161.832 293.766,161.161C291.387,160.688 289.202,159.756 287.313,158.4C284.306,156.235 282.084,153.013 281.117,148.966C279.962,144.123 281.021,138.93 283.623,134.414C284.923,132.17 286.602,130.09 288.578,128.308C290.777,126.329 293.346,124.707 296.182,123.621C302.793,121.134 309.298,122 313.908,125.301C315.585,126.498 317,128.011 318.088,129.805C318.928,131.188 319.57,132.727 319.982,134.417C321.374,140.235 319.705,146.479 316.028,151.509C314.467,153.655 312.541,155.578 310.334,157.154C308.669,158.342 306.851,159.331 304.901,160.072ZM344.103,183.702L333.013,180.388L332.045,139.505L326.459,171.041L314.355,169.117L315.221,160.026C323.123,153.35 327.318,142.828 325.028,133.283C324.016,129.051 321.852,125.375 318.771,122.57L319.792,111.86L315.218,110.636L315.536,104.922L336.374,109.11L343.393,142.356L350.57,112.553L366.431,116.065L344.103,183.702Z" style="fill:white;fill-rule:nonzero;"/>
            <path d="M310.593,130.93C310.714,131.409 310.783,131.909 310.761,132.42C310.634,135.515 307.712,137.913 304.233,137.772C300.754,137.63 298.034,135.012 298.16,131.909C298.279,128.998 300.864,126.71 304.061,126.558C303.45,126.43 302.815,126.336 302.163,126.31C296.347,126.078 291.593,130.194 291.383,135.335C291.158,140.801 295.566,145.298 301.294,145.53C307.111,145.768 311.865,141.646 312.087,136.175C312.163,134.279 311.611,132.472 310.593,130.93Z" style="fill:white;fill-rule:nonzero;"/>
            <path d="M134.033,137.195C134.033,140.293 131.212,142.803 127.725,142.803C124.243,142.803 121.419,140.292 121.419,137.195C121.419,134.279 123.911,131.891 127.102,131.608C126.483,131.502 125.849,131.439 125.193,131.439C119.373,131.439 114.787,135.752 114.787,140.894C114.787,146.365 119.373,150.68 125.105,150.68C130.93,150.68 135.513,146.365 135.513,140.894C135.513,138.993 134.879,137.212 133.807,135.715C133.946,136.188 134.033,136.678 134.033,137.195Z" style="fill:white;fill-rule:nonzero;"/>
        </g>
        <g transform="matrix(1,0,0,1,-2,0)">
            <path d="M92.514,125.936C91.34,119.663 83.143,116.198 74.995,120.634L77.095,127.814L80.398,138.419L81.9,143.264C88.002,139.331 94.142,134.623 92.514,125.936ZM84.44,135.579C83.539,132.676 81.591,126.414 81.591,126.414C81.603,126.444 81.197,125.063 80.743,123.512C82.474,123.193 84.131,123.339 85.505,123.992C86.265,124.351 87.582,125.198 87.886,126.805C88.564,130.408 87.333,132.982 84.44,135.579Z" style="fill:white;fill-rule:nonzero;"/>
        </g>
    </g>
    <defs>
        <linearGradient id="_Linear1" x1="0" y1="0" x2="1" y2="0" gradientUnits="userSpaceOnUse" gradientTransform="matrix(10.998,41.1954,-41.1954,10.998,28.8387,108.498)"><stop offset="0%" style="stop-color:rgb(29,44,95);stop-opacity:1"/><stop offset="100%" style="stop-color:rgb(0,113,184);stop-opacity:1"/></linearGradient>
        <linearGradient id="_Linear2" x1="0" y1="0" x2="1" y2="0" gradientUnits="userSpaceOnUse" gradientTransform="matrix(-5.09892,18.0437,-18.0437,-5.09892,259.51,91.0146)"><stop offset="0%" style="stop-color:rgb(29,44,95);stop-opacity:1"/><stop offset="100%" style="stop-color:rgb(0,113,184);stop-opacity:1"/></linearGradient>
        <linearGradient id="_Linear3" x1="0" y1="0" x2="1" y2="0" gradientUnits="userSpaceOnUse" gradientTransform="matrix(-10.9846,26.6765,-26.6765,-10.9846,210.883,64.1627)"><stop offset="0%" style="stop-color:rgb(29,44,95);stop-opacity:1"/><stop offset="100%" style="stop-color:rgb(0,113,184);stop-opacity:1"/></linearGradient>
        <linearGradient id="_Linear4" x1="0" y1="0" x2="1" y2="0" gradientUnits="userSpaceOnUse" gradientTransform="matrix(-8.62856,23.925,-23.925,-8.62856,347.091,99.9901)"><stop offset="0%" style="stop-color:rgb(29,44,95);stop-opacity:1"/><stop offset="100%" style="stop-color:rgb(0,113,184);stop-opacity:1"/></linearGradient>
        <linearGradient id="_Linear5" x1="0" y1="0" x2="1" y2="0" gradientUnits="userSpaceOnUse" gradientTransform="matrix(-1.9613,-100.021,100.021,-1.9613,334.859,187.51)"><stop offset="0%" style="stop-color:rgb(29,44,95);stop-opacity:1"/><stop offset="100%" style="stop-color:rgb(0,113,184);stop-opacity:1"/></linearGradient>
        <linearGradient id="_Linear6" x1="0" y1="0" x2="1" y2="0" gradientUnits="userSpaceOnUse" gradientTransform="matrix(29.8144,-27.8532,27.8532,29.8144,301.75,124.675)"><stop offset="0%" style="stop-color:rgb(29,44,95);stop-opacity:1"/><stop offset="100%" style="stop-color:rgb(0,113,184);stop-opacity:1"/></linearGradient>
        <linearGradient id="_Linear7" x1="0" y1="0" x2="1" y2="0" gradientUnits="userSpaceOnUse" gradientTransform="matrix(-1.96177,-100.044,100.044,-1.96177,189.27,188.432)"><stop offset="0%" style="stop-color:rgb(29,44,95);stop-opacity:1"/><stop offset="100%" style="stop-color:rgb(0,113,184);stop-opacity:1"/></linearGradient>
        <linearGradient id="_Linear8" x1="0" y1="0" x2="1" y2="0" gradientUnits="userSpaceOnUse" gradientTransform="matrix(-1.96165,-100.032,100.032,-1.96165,324.9,187.608)"><stop offset="0%" style="stop-color:rgb(29,44,95);stop-opacity:1"/><stop offset="100%" style="stop-color:rgb(0,113,184);stop-opacity:1"/></linearGradient>
        <linearGradient id="_Linear9" x1="0" y1="0" x2="1" y2="0" gradientUnits="userSpaceOnUse" gradientTransform="matrix(-11.1352,17.9561,-17.9561,-11.1352,311.805,100.331)"><stop offset="0%" style="stop-color:rgb(29,44,95);stop-opacity:1"/><stop offset="100%" style="stop-color:rgb(0,113,184);stop-opacity:1"/></linearGradient>
        <linearGradient id="_Linear10" x1="0" y1="0" x2="1" y2="0" gradientUnits="userSpaceOnUse" gradientTransform="matrix(-1.96305,-100.11,100.11,-1.96305,315.309,187.896)"><stop offset="0%" style="stop-color:rgb(29,44,95);stop-opacity:1"/><stop offset="100%" style="stop-color:rgb(0,113,184);stop-opacity:1"/></linearGradient>
        <linearGradient id="_Linear11" x1="0" y1="0" x2="1" y2="0" gradientUnits="userSpaceOnUse" gradientTransform="matrix(-3.92214,-94.9019,94.9019,-3.92214,278.984,181.002)"><stop offset="0%" style="stop-color:rgb(29,44,95);stop-opacity:1"/><stop offset="100%" style="stop-color:rgb(0,113,184);stop-opacity:1"/></linearGradient>
        <linearGradient id="_Linear12" x1="0" y1="0" x2="1" y2="0" gradientUnits="userSpaceOnUse" gradientTransform="matrix(-1.96118,-100.01,100.01,-1.96118,263.896,185.311)"><stop offset="0%" style="stop-color:rgb(29,44,95);stop-opacity:1"/><stop offset="100%" style="stop-color:rgb(0,113,184);stop-opacity:1"/></linearGradient>
        <linearGradient id="_Linear13" x1="0" y1="0" x2="1" y2="0" gradientUnits="userSpaceOnUse" gradientTransform="matrix(-1.96188,-100.047,100.047,-1.96188,255.915,185.475)"><stop offset="0%" style="stop-color:rgb(29,44,95);stop-opacity:1"/><stop offset="100%" style="stop-color:rgb(0,113,184);stop-opacity:1"/></linearGradient>
        <linearGradient id="_Linear14" x1="0" y1="0" x2="1" y2="0" gradientUnits="userSpaceOnUse" gradientTransform="matrix(-3.92482,-94.9664,94.9664,-3.92482,238.742,182.164)"><stop offset="0%" style="stop-color:rgb(29,44,95);stop-opacity:1"/><stop offset="100%" style="stop-color:rgb(0,113,184);stop-opacity:1"/></linearGradient>
        <linearGradient id="_Linear15" x1="0" y1="0" x2="1" y2="0" gradientUnits="userSpaceOnUse" gradientTransform="matrix(30.2108,-2.74617,2.74617,30.2108,225.983,129.055)"><stop offset="0%" style="stop-color:rgb(29,44,95);stop-opacity:1"/><stop offset="100%" style="stop-color:rgb(0,113,184);stop-opacity:1"/></linearGradient>
        <linearGradient id="_Linear16" x1="0" y1="0" x2="1" y2="0" gradientUnits="userSpaceOnUse" gradientTransform="matrix(48.6453,-33.3457,33.3457,48.6453,185.306,105.027)"><stop offset="0%" style="stop-color:rgb(29,44,95);stop-opacity:1"/><stop offset="100%" style="stop-color:rgb(0,113,184);stop-opacity:1"/></linearGradient>
        <linearGradient id="_Linear17" x1="0" y1="0" x2="1" y2="0" gradientUnits="userSpaceOnUse" gradientTransform="matrix(2.84387,-100.039,100.039,2.84387,183.544,188.547)"><stop offset="0%" style="stop-color:rgb(29,44,95);stop-opacity:1"/><stop offset="100%" style="stop-color:rgb(0,113,184);stop-opacity:1"/></linearGradient>
        <linearGradient id="_Linear18" x1="0" y1="0" x2="1" y2="0" gradientUnits="userSpaceOnUse" gradientTransform="matrix(-7.06092,16.0831,-16.0831,-7.06092,166.118,86.3393)"><stop offset="0%" style="stop-color:rgb(29,44,95);stop-opacity:1"/><stop offset="100%" style="stop-color:rgb(0,113,184);stop-opacity:1"/></linearGradient>
        <linearGradient id="_Linear19" x1="0" y1="0" x2="1" y2="0" gradientUnits="userSpaceOnUse" gradientTransform="matrix(0.784171,27.0642,-27.0642,0.784171,126.003,95.3717)"><stop offset="0%" style="stop-color:rgb(29,44,95);stop-opacity:1"/><stop offset="100%" style="stop-color:rgb(0,113,184);stop-opacity:1"/></linearGradient>
        <linearGradient id="_Linear20" x1="0" y1="0" x2="1" y2="0" gradientUnits="userSpaceOnUse" gradientTransform="matrix(-5.785,-99.8846,99.8846,-5.785,85.016,190.297)"><stop offset="0%" style="stop-color:rgb(29,44,95);stop-opacity:1"/><stop offset="100%" style="stop-color:rgb(0,113,184);stop-opacity:1"/></linearGradient>
        <linearGradient id="_Linear21" x1="0" y1="0" x2="1" y2="0" gradientUnits="userSpaceOnUse" gradientTransform="matrix(-26.9016,-66.8942,66.8942,-26.9016,61.6322,169.062)"><stop offset="0%" style="stop-color:rgb(29,44,95);stop-opacity:1"/><stop offset="100%" style="stop-color:rgb(0,113,184);stop-opacity:1"/></linearGradient>
        <linearGradient id="_Linear22" x1="0" y1="0" x2="1" y2="0" gradientUnits="userSpaceOnUse" gradientTransform="matrix(-30.4546,-70.2865,70.2865,-30.4546,120.357,180.478)"><stop offset="0%" style="stop-color:rgb(29,44,95);stop-opacity:1"/><stop offset="100%" style="stop-color:rgb(0,113,184);stop-opacity:1"/></linearGradient>
        <linearGradient id="_Linear23" x1="0" y1="0" x2="1" y2="0" gradientUnits="userSpaceOnUse" gradientTransform="matrix(-1.96118,-100.014,100.014,-1.96118,130.95,189.206)"><stop offset="0%" style="stop-color:rgb(29,44,95);stop-opacity:1"/><stop offset="100%" style="stop-color:rgb(0,113,184);stop-opacity:1"/></linearGradient>
        <linearGradient id="_Linear24" x1="0" y1="0" x2="1" y2="0" gradientUnits="userSpaceOnUse" gradientTransform="matrix(-1.96223,-100.065,100.065,-1.96223,45.4901,192.664)"><stop offset="0%" style="stop-color:rgb(29,44,95);stop-opacity:1"/><stop offset="100%" style="stop-color:rgb(0,113,184);stop-opacity:1"/></linearGradient>
        <linearGradient id="_Linear25" x1="0" y1="0" x2="1" y2="0" gradientUnits="userSpaceOnUse" gradientTransform="matrix(5.51919,-99.8511,99.8511,5.51919,300.751,188.151)"><stop offset="0%" style="stop-color:rgb(29,44,95);stop-opacity:1"/><stop offset="100%" style="stop-color:rgb(0,113,184);stop-opacity:1"/></linearGradient>
        <linearGradient id="_Linear26" x1="0" y1="0" x2="1" y2="0" gradientUnits="userSpaceOnUse" gradientTransform="matrix(-4.04616,-121.345,121.345,-4.04616,221.708,189.948)"><stop offset="0%" style="stop-color:rgb(29,44,95);stop-opacity:1"/><stop offset="100%" style="stop-color:rgb(0,113,184);stop-opacity:1"/></linearGradient>
        <linearGradient id="_Linear27" x1="0" y1="0" x2="1" y2="0" gradientUnits="userSpaceOnUse" gradientTransform="matrix(-5.43665,-107.191,107.191,-5.43665,86.5066,176.15)"><stop offset="0%" style="stop-color:rgb(59,90,166);stop-opacity:1"/><stop offset="100%" style="stop-color:rgb(42,117,186);stop-opacity:1"/></linearGradient>
        <linearGradient id="_Linear28" x1="0" y1="0" x2="1" y2="0" gradientUnits="userSpaceOnUse" gradientTransform="matrix(-4.25728,-101.844,101.844,-4.25728,208.714,169.16)"><stop offset="0%" style="stop-color:rgb(59,90,166);stop-opacity:1"/><stop offset="100%" style="stop-color:rgb(42,117,186);stop-opacity:1"/></linearGradient>
        <linearGradient id="_Linear29" x1="0" y1="0" x2="1" y2="0" gradientUnits="userSpaceOnUse" gradientTransform="matrix(-1.34369,-127.434,127.434,-1.34369,201.981,194.211)"><stop offset="0%" style="stop-color:rgb(59,90,166);stop-opacity:1"/><stop offset="100%" style="stop-color:rgb(42,117,186);stop-opacity:1"/></linearGradient>
        <linearGradient id="_Linear30" x1="0" y1="0" x2="1" y2="0" gradientUnits="userSpaceOnUse" gradientTransform="matrix(-0.241795,-22.9406,22.9406,-0.241795,301.858,147.474)"><stop offset="0%" style="stop-color:rgb(59,90,166);stop-opacity:1"/><stop offset="100%" style="stop-color:rgb(42,117,186);stop-opacity:1"/></linearGradient>
        <linearGradient id="_Linear31" x1="0" y1="0" x2="1" y2="0" gradientUnits="userSpaceOnUse" gradientTransform="matrix(-0.237246,-22.5016,22.5016,-0.237246,125.269,152.393)"><stop offset="0%" style="stop-color:rgb(59,90,166);stop-opacity:1"/><stop offset="100%" style="stop-color:rgb(42,117,186);stop-opacity:1"/></linearGradient>
        <linearGradient id="_Linear32" x1="0" y1="0" x2="1" y2="0" gradientUnits="userSpaceOnUse" gradientTransform="matrix(2.51647e-14,410.971,-410.971,2.51647e-14,440,-5.4854)"><stop offset="0%" style="stop-color:rgb(59,90,166);stop-opacity:1"/><stop offset="100%" style="stop-color:rgb(42,117,186);stop-opacity:1"/></linearGradient>
    </defs>
</svg>
