<?xml version="1.0" encoding="utf-8"?>
<!-- Generator: Adobe Illustrator 16.0.0, SVG Export Plug-In . SVG Version: 6.00 Build 0)  -->
<!DOCTYPE svg PUBLIC "-//W3C//DTD SVG 1.1//EN" "http://www.w3.org/Graphics/SVG/1.1/DTD/svg11.dtd">
<svg version="1.1" id="Layer_1" xmlns="http://www.w3.org/2000/svg" xmlns:xlink="http://www.w3.org/1999/xlink" x="0px" y="0px"
	 width="400px" height="273px" viewBox="0 0 400 273" enable-background="new 0 0 400 273" xml:space="preserve">
<rect fill="#F58434" width="400" height="273"/>
<g>
	<g>
		
			<linearGradient id="SVGID_1_" gradientUnits="userSpaceOnUse" x1="-729.2705" y1="766.1094" x2="-721.1992" y2="730.4579" gradientTransform="matrix(1.1656 -0.0446 -0.0446 -1.1656 913.0449 968.9492)">
			<stop  offset="0" style="stop-color:#1D2C5F"/>
			<stop  offset="1" style="stop-color:#0071B8"/>
		</linearGradient>
		<polygon fill="url(#SVGID_1_)" stroke="#FFFFFF" stroke-width="7.4127" stroke-linecap="round" stroke-linejoin="round" points="
			39.032,142.059 43.857,137.164 28.256,110.747 23.385,115.653 		"/>
		
			<linearGradient id="SVGID_2_" gradientUnits="userSpaceOnUse" x1="-402.7197" y1="917.3467" x2="-407.0912" y2="901.8771" gradientTransform="matrix(1.1664 0 0 -1.1664 729.2424 1161.0078)">
			<stop  offset="0" style="stop-color:#1D2C5F"/>
			<stop  offset="1" style="stop-color:#0071B8"/>
		</linearGradient>
		<polygon fill="url(#SVGID_2_)" stroke="#FFFFFF" stroke-width="7.4127" stroke-linecap="round" stroke-linejoin="round" points="
			255.095,98.36 261.047,95.178 261.653,91.695 255.7,94.896 		"/>
		
			<linearGradient id="SVGID_3_" gradientUnits="userSpaceOnUse" x1="-448.1816" y1="935.9707" x2="-457.5991" y2="913.0999" gradientTransform="matrix(1.1664 0 0 -1.1664 733.6418 1155.8789)">
			<stop  offset="0" style="stop-color:#1D2C5F"/>
			<stop  offset="1" style="stop-color:#0071B8"/>
		</linearGradient>
		<polygon fill="url(#SVGID_3_)" stroke="#FFFFFF" stroke-width="7.4127" stroke-linecap="round" stroke-linejoin="round" points="
			188.016,98.674 194.044,95.538 217.976,67.96 212.091,71.097 		"/>
		
			<linearGradient id="SVGID_4_" gradientUnits="userSpaceOnUse" x1="-330.4878" y1="910.7334" x2="-337.8854" y2="890.2216" gradientTransform="matrix(1.1664 0 0 -1.1664 732.5715 1162.2695)">
			<stop  offset="0" style="stop-color:#1D2C5F"/>
			<stop  offset="1" style="stop-color:#0071B8"/>
		</linearGradient>
		<polygon fill="url(#SVGID_4_)" stroke="#FFFFFF" stroke-width="7.4127" stroke-linecap="round" stroke-linejoin="round" points="
			340.909,108.844 346.817,105.642 344.199,116.294 338.309,119.381 		"/>
		
			<linearGradient id="SVGID_5_" gradientUnits="userSpaceOnUse" x1="-340.2256" y1="835.9502" x2="-341.9071" y2="921.7025" gradientTransform="matrix(1.1664 0 0 -1.1664 731.6985 1162.5625)">
			<stop  offset="0" style="stop-color:#1D2C5F"/>
			<stop  offset="1" style="stop-color:#0071B8"/>
		</linearGradient>
		<polygon fill="url(#SVGID_5_)" stroke="#FFFFFF" stroke-width="7.4127" stroke-linecap="round" stroke-linejoin="round" points="
			341.89,194.167 347.845,191.025 327.82,184.704 321.947,187.806 		"/>
		
			<linearGradient id="SVGID_6_" gradientUnits="userSpaceOnUse" x1="-369.3604" y1="889.5703" x2="-343.7994" y2="913.4499" gradientTransform="matrix(1.1664 0 0 -1.1664 732.5715 1162.2695)">
			<stop  offset="0" style="stop-color:#1D2C5F"/>
			<stop  offset="1" style="stop-color:#0071B8"/>
		</linearGradient>
		<polygon fill="url(#SVGID_6_)" stroke="#FFFFFF" stroke-width="7.4127" stroke-linecap="round" stroke-linejoin="round" points="
			309.052,119.495 314.923,116.396 310.115,115.304 304.184,118.372 		"/>
		
			<linearGradient id="SVGID_7_" gradientUnits="userSpaceOnUse" x1="-460.2314" y1="832.7852" x2="-461.9133" y2="918.5568" gradientTransform="matrix(1.1664 0 0 -1.1664 726.0842 1159.793)">
			<stop  offset="0" style="stop-color:#1D2C5F"/>
			<stop  offset="1" style="stop-color:#0071B8"/>
		</linearGradient>
		<polygon fill="url(#SVGID_7_)" stroke="#FFFFFF" stroke-width="7.4127" stroke-linecap="round" stroke-linejoin="round" points="
			187.625,106.193 192.768,103.456 188.557,106.831 182.569,110.019 		"/>
		
			<linearGradient id="SVGID_8_" gradientUnits="userSpaceOnUse" x1="-349.0752" y1="835.7422" x2="-350.757" y2="921.5038" gradientTransform="matrix(1.1664 0 0 -1.1664 732.0618 1162.418)">
			<stop  offset="0" style="stop-color:#1D2C5F"/>
			<stop  offset="1" style="stop-color:#0071B8"/>
		</linearGradient>
		<polygon fill="url(#SVGID_8_)" stroke="#FFFFFF" stroke-width="7.4127" stroke-linecap="round" stroke-linejoin="round" points="
			321.773,179.986 327.621,176.854 327.82,184.704 321.947,187.806 		"/>
		
			<linearGradient id="SVGID_9_" gradientUnits="userSpaceOnUse" x1="-331.4468" y1="940.4492" x2="-340.8648" y2="924.9764" gradientTransform="matrix(1.1664 0.0097 0.0097 -1.1664 689.2819 1200.4862)">
			<stop  offset="0" style="stop-color:#1D2C5F"/>
			<stop  offset="1" style="stop-color:#0071B8"/>
		</linearGradient>
		<polygon fill="url(#SVGID_9_)" stroke="#FFFFFF" stroke-width="7.4127" stroke-linecap="round" stroke-linejoin="round" points="
			304.184,118.372 310.115,115.304 309.834,97.477 303.97,100.718 		"/>
		<polygon fill="#302370" stroke="#FFFFFF" stroke-width="7.4127" stroke-linecap="round" stroke-linejoin="round" points="
			302.569,177.224 308.437,174.132 314.884,116.411 309.052,119.495 		"/>
		
			<linearGradient id="SVGID_10_" gradientUnits="userSpaceOnUse" x1="-356.9873" y1="835.6191" x2="-358.6703" y2="921.4477" gradientTransform="matrix(1.1664 0 0 -1.1664 731.6985 1162.5625)">
			<stop  offset="0" style="stop-color:#1D2C5F"/>
			<stop  offset="1" style="stop-color:#0071B8"/>
		</linearGradient>
		<polygon fill="url(#SVGID_10_)" stroke="#FFFFFF" stroke-width="7.4127" stroke-linecap="round" stroke-linejoin="round" points="
			321.773,179.986 327.621,176.854 308.437,174.132 302.569,177.224 		"/>
		
			<linearGradient id="SVGID_11_" gradientUnits="userSpaceOnUse" x1="-384.6284" y1="837.5293" x2="-387.991" y2="918.8924" gradientTransform="matrix(1.1664 0 0 -1.1664 727.6145 1157.8965)">
			<stop  offset="0" style="stop-color:#1D2C5F"/>
			<stop  offset="1" style="stop-color:#0071B8"/>
		</linearGradient>
		<polygon fill="url(#SVGID_11_)" stroke="#FFFFFF" stroke-width="7.4127" stroke-linecap="round" stroke-linejoin="round" points="
			290.352,179.551 296.143,176.362 267.242,171.267 261.359,174.417 		"/>
		
			<linearGradient id="SVGID_12_" gradientUnits="userSpaceOnUse" x1="-397.8154" y1="833.335" x2="-399.4968" y2="919.0775" gradientTransform="matrix(1.1664 0 0 -1.1664 727.9075 1157.3125)">
			<stop  offset="0" style="stop-color:#1D2C5F"/>
			<stop  offset="1" style="stop-color:#0071B8"/>
		</linearGradient>
		<polygon fill="url(#SVGID_12_)" stroke="#FFFFFF" stroke-width="7.4127" stroke-linecap="round" stroke-linejoin="round" points="
			261.359,174.417 267.242,171.267 265.735,158.369 259.806,161.556 		"/>
		
			<linearGradient id="SVGID_13_" gradientUnits="userSpaceOnUse" x1="-404.5732" y1="833.1943" x2="-406.2552" y2="918.9684" gradientTransform="matrix(1.1664 0 0 -1.1664 727.8088 1157.3125)">
			<stop  offset="0" style="stop-color:#1D2C5F"/>
			<stop  offset="1" style="stop-color:#0071B8"/>
		</linearGradient>
		<polygon fill="url(#SVGID_13_)" stroke="#FFFFFF" stroke-width="7.4127" stroke-linecap="round" stroke-linejoin="round" points="
			255.814,169.353 261.665,166.133 255.109,153.921 249.229,157.191 		"/>
		
			<linearGradient id="SVGID_14_" gradientUnits="userSpaceOnUse" x1="-419.4624" y1="835.8672" x2="-422.8273" y2="917.2856" gradientTransform="matrix(1.1664 0 0 -1.1664 728.0032 1157.1191)">
			<stop  offset="0" style="stop-color:#1D2C5F"/>
			<stop  offset="1" style="stop-color:#0071B8"/>
		</linearGradient>
		<polygon fill="url(#SVGID_14_)" stroke="#FFFFFF" stroke-width="7.4127" stroke-linecap="round" stroke-linejoin="round" points="
			247.791,166.216 253.593,163.092 228.139,159.07 222.272,162.125 		"/>
		
			<linearGradient id="SVGID_15_" gradientUnits="userSpaceOnUse" x1="-430.4014" y1="881.3994" x2="-404.5005" y2="883.7538" gradientTransform="matrix(1.1664 0 0 -1.1664 728.0032 1157.1191)">
			<stop  offset="0" style="stop-color:#1D2C5F"/>
			<stop  offset="1" style="stop-color:#0071B8"/>
		</linearGradient>
		<polygon fill="url(#SVGID_15_)" stroke="#FFFFFF" stroke-width="7.4127" stroke-linecap="round" stroke-linejoin="round" points="
			222.272,162.125 228.139,159.07 238.572,95.175 232.755,98.382 		"/>
		
			<linearGradient id="SVGID_16_" gradientUnits="userSpaceOnUse" x1="-470.1099" y1="901" x2="-428.4044" y2="929.5886" gradientTransform="matrix(1.1664 0 0 -1.1664 733.6418 1155.9531)">
			<stop  offset="0" style="stop-color:#1D2C5F"/>
			<stop  offset="1" style="stop-color:#0071B8"/>
		</linearGradient>
		<polygon fill="url(#SVGID_16_)" stroke="#FFFFFF" stroke-width="7.4127" stroke-linecap="round" stroke-linejoin="round" points="
			192.225,103.703 198.149,100.668 194.044,95.587 188.016,98.724 		"/>
		
			<linearGradient id="SVGID_17_" gradientUnits="userSpaceOnUse" x1="-298.7661" y1="1010.6885" x2="-300.4483" y2="1096.4706" gradientTransform="matrix(1.1651 0.056 0.056 -1.1651 475.0382 1382.8312)">
			<stop  offset="0" style="stop-color:#1D2C5F"/>
			<stop  offset="1" style="stop-color:#0071B8"/>
		</linearGradient>
		<polygon fill="url(#SVGID_17_)" stroke="#FFFFFF" stroke-width="7.4127" stroke-linecap="round" stroke-linejoin="round" points="
			157.613,155.606 163.439,152.432 210.771,175.869 204.888,179.023 		"/>
		
			<linearGradient id="SVGID_18_" gradientUnits="userSpaceOnUse" x1="-481.1021" y1="920.3135" x2="-487.1557" y2="906.5248" gradientTransform="matrix(1.1664 0 0 -1.1664 727.2756 1159.793)">
			<stop  offset="0" style="stop-color:#1D2C5F"/>
			<stop  offset="1" style="stop-color:#0071B8"/>
		</linearGradient>
		<polygon fill="url(#SVGID_18_)" stroke="#FFFFFF" stroke-width="7.4127" stroke-linecap="round" stroke-linejoin="round" points="
			154.884,105.459 160.817,102.218 167.927,88.689 162.04,91.875 		"/>
		
			<linearGradient id="SVGID_19_" gradientUnits="userSpaceOnUse" x1="-439.5718" y1="887.873" x2="-441.2538" y2="973.6479" gradientTransform="matrix(1.1663 0.0182 0.0182 -1.1663 645.7622 1229.1208)">
			<stop  offset="0" style="stop-color:#1D2C5F"/>
			<stop  offset="1" style="stop-color:#0071B8"/>
		</linearGradient>
		<polygon fill="url(#SVGID_19_)" stroke="#FFFFFF" stroke-width="7.4127" stroke-linecap="round" stroke-linejoin="round" points="
			134.922,179.257 140.881,176.112 163.496,172.756 157.482,175.934 		"/>
		
			<linearGradient id="SVGID_20_" gradientUnits="userSpaceOnUse" x1="-443.7168" y1="922.4014" x2="-466.921" y2="917.3569" gradientTransform="matrix(1.1663 0.0182 0.0182 -1.1663 645.7622 1229.1208)">
			<stop  offset="0" style="stop-color:#1D2C5F"/>
			<stop  offset="1" style="stop-color:#0071B8"/>
		</linearGradient>
		<polygon fill="url(#SVGID_20_)" stroke="#FFFFFF" stroke-width="7.4127" stroke-linecap="round" stroke-linejoin="round" points="
			134.922,179.257 140.881,176.112 135.218,115.252 129.41,118.39 		"/>
		
			<linearGradient id="SVGID_21_" gradientUnits="userSpaceOnUse" x1="-516.2852" y1="912.0908" x2="-515.6129" y2="888.8876" gradientTransform="matrix(1.1664 0 0 -1.1664 728.1985 1159.2344)">
			<stop  offset="0" style="stop-color:#1D2C5F"/>
			<stop  offset="1" style="stop-color:#0071B8"/>
		</linearGradient>
		<polygon fill="url(#SVGID_21_)" stroke="#FFFFFF" stroke-width="7.4127" stroke-linecap="round" stroke-linejoin="round" points="
			123.872,119.794 129.792,116.658 128.926,99.445 123.042,102.631 		"/>
		
			<linearGradient id="SVGID_22_" gradientUnits="userSpaceOnUse" x1="-685.3647" y1="693.7725" x2="-687.0464" y2="779.5306" gradientTransform="matrix(1.1656 -0.0446 -0.0446 -1.1656 914.8193 968.3906)">
			<stop  offset="0" style="stop-color:#1D2C5F"/>
			<stop  offset="1" style="stop-color:#0071B8"/>
		</linearGradient>
		<polygon fill="url(#SVGID_22_)" stroke="#FFFFFF" stroke-width="7.4127" stroke-linecap="round" stroke-linejoin="round" points="
			75.991,192.706 70.092,196.647 94.023,188.94 100.002,185.056 		"/>
		
			<linearGradient id="SVGID_23_" gradientUnits="userSpaceOnUse" x1="-702.8433" y1="713.3262" x2="-723.6964" y2="771.5145" gradientTransform="matrix(1.1656 -0.0446 -0.0446 -1.1656 912.6807 969.1679)">
			<stop  offset="0" style="stop-color:#1D2C5F"/>
			<stop  offset="1" style="stop-color:#0071B8"/>
		</linearGradient>
		<polygon fill="url(#SVGID_23_)" stroke="#FFFFFF" stroke-width="7.4127" stroke-linecap="round" stroke-linejoin="round" points="
			49.81,134.331 44.91,139.538 70.092,196.647 75.991,192.706 		"/>
		
			<linearGradient id="SVGID_24_" gradientUnits="userSpaceOnUse" x1="-1111.7939" y1="316.7607" x2="-1128.2751" y2="380.3307" gradientTransform="matrix(1.1524 -0.1803 -0.1803 -1.1524 1458.7001 345.0566)">
			<stop  offset="0" style="stop-color:#1D2C5F"/>
			<stop  offset="1" style="stop-color:#0071B8"/>
		</linearGradient>
		<path fill="url(#SVGID_24_)" stroke="#FFFFFF" stroke-width="7.4127" stroke-linecap="round" stroke-linejoin="round" d="
			M113.853,173.393c-6.184-1.791-11.147-6.081-13.969-12.083c-1.447-3.06-2.758-9.921-2.83-13.316
			c-1.347,1.554-4.084,3.225-6.045,4.179c0,0,1.289,6.717,2.953,11.418c1.661,4.702,5.624,8.504,5.624,8.504
			c2.544,2.463,5.642,4.27,9.132,5.279c6.678,1.935,14.228,0.679,20.704-3.44c1.688-1.08,4.005-2.797,5.412-4.166
			C128.46,173.65,120.367,175.274,113.853,173.393z"/>
		
			<linearGradient id="SVGID_25_" gradientUnits="userSpaceOnUse" x1="-512.0439" y1="831.6426" x2="-513.7253" y2="917.3885" gradientTransform="matrix(1.1664 0 0 -1.1664 728.1985 1159.2344)">
			<stop  offset="0" style="stop-color:#1D2C5F"/>
			<stop  offset="1" style="stop-color:#0071B8"/>
		</linearGradient>
		<polygon fill="url(#SVGID_25_)" stroke="#FFFFFF" stroke-width="7.4127" stroke-linecap="round" stroke-linejoin="round" points="
			123.872,119.794 129.41,118.39 135.218,115.252 129.792,116.658 		"/>
		
			<linearGradient id="SVGID_26_" gradientUnits="userSpaceOnUse" x1="-577.125" y1="831.0732" x2="-578.8073" y2="916.8629" gradientTransform="matrix(1.1664 0 0 -1.1664 718.6487 1162.0273)">
			<stop  offset="0" style="stop-color:#1D2C5F"/>
			<stop  offset="1" style="stop-color:#0071B8"/>
		</linearGradient>
		<polygon fill="url(#SVGID_26_)" stroke="#FFFFFF" stroke-width="7.4127" stroke-linecap="round" stroke-linejoin="round" points="
			39.032,142.059 43.857,137.164 49.81,134.331 44.91,139.538 		"/>
		<g>
			
				<linearGradient id="SVGID_27_" gradientUnits="userSpaceOnUse" x1="-111.582" y1="1112.4365" x2="-113.2629" y2="1198.1522" gradientTransform="matrix(1.1632 0.0872 0.0872 -1.1632 333.5386 1491.8669)">
				<stop  offset="0" style="stop-color:#1D2C5F"/>
				<stop  offset="1" style="stop-color:#0071B8"/>
			</linearGradient>
			<path fill="url(#SVGID_27_)" stroke="#FFFFFF" stroke-width="7.4127" stroke-linecap="round" stroke-linejoin="round" d="
				M294.507,166.479l0.333,2.812c2.056-0.242,4.234-0.512,6.076-1.158c2.161-0.747,6.845-2.816,8.627-4.38
				c-0.652,0.246-3.824,1.716-4.505,1.921C301.54,166.718,297.891,166.847,294.507,166.479z"/>
		</g>
		<g>
			
				<linearGradient id="SVGID_28_" gradientUnits="userSpaceOnUse" x1="-876.3926" y1="1401.6191" x2="-878.0746" y2="1487.3906" gradientTransform="matrix(1.3092 -0.0232 -0.0215 -1.4152 1399.2156 2153.1868)">
				<stop  offset="0" style="stop-color:#1D2C5F"/>
				<stop  offset="1" style="stop-color:#0071B8"/>
			</linearGradient>
			<path fill="url(#SVGID_28_)" stroke="#FFFFFF" stroke-width="7.4127" stroke-linecap="round" stroke-linejoin="round" d="
				M210.667,153.192l0.093,3.222c4.834-0.709,8.991-2.509,13.081-4.961c2.555-1.533,5.391-3.841,6.265-4.456
				c-0.627,0.4-1.261,0.64-1.911,1.001C224.402,150.075,214.265,153.133,210.667,153.192z"/>
		</g>
		<path fill="#FFCA05" stroke="#FFFFFF" stroke-width="7.4127" stroke-linecap="round" stroke-linejoin="round" d="M346.79,105.709
			l-2.585,10.646l-2.382-11.799l-31.958-7.029l0.237,17.76l4.805,1.072l-0.354,3.21c-0.049-0.022-0.098-0.049-0.143-0.075
			c-5.953-3.161-13.355-3.476-20.327-0.849c-2.327,0.889-4.497,2.081-6.475,3.49l-4.809-30.423h-21.252l-0.59,3.486h-22.363
			l-2.561,15.662l-1.859-2.288c-5.416-6.671-13.272-10.341-21.971-10.526l18.979-10.199l-13.237-19.767l-23.928,27.569l4.139,5.049
			c-3.758,1.528-7.021,3.625-9.716,6.174l-20.509-18.198l-7.188,13.749l0.28-13.203l-32.082,10.233l0.816,17.246l5.459-1.425
			l0.812,8.743c-6.229-2.799-13.717-2.746-20.673,0.202c-2.056,0.886-3.985,1.993-5.759,3.277c1.206-5.32,0.919-10.572-1.102-15.244
			c-2.399-5.522-6.609-10.091-11.773-12.976c-3.616-2.409-7.937-3.914-12.458-4.423c-11.09-1.946-24.418,0.056-37.532,5.63
			c-4.816,2.052-9.322,4.398-13.373,6.979l-5.131,3.263l3.094,5.229l9.607,16.229c0,0,2.95,4.983,2.965,4.979l5.203-2.55
			l0.719-0.348l23.866,53.293l2.299,5.123l5.346-1.708l12.923-4.134l5.661-1.812l-1.501-5.748l-6.86-26.354
			c1.984-1.458,3.82-3.008,5.519-4.636c-0.379,3.155-0.184,6.335,0.676,9.388c1.795,6.385,5.981,11.437,11.786,14.223
			c6.267,3.01,13.917,3.022,20.992,0.021c3.546-1.515,6.708-3.695,9.373-6.322l0.978,10.484l22.618-3.323l-0.028-20.295
			l47.275,23.381v-22.638c1.91-0.155,3.839-0.448,5.785-0.92c5.211-1.258,9.656-2.991,13.614-5.356l-1.989,12.145l25.491,4.018
			l1.414-9.183l6.654,12.303l4.062-7.84l1.479,12.87l28.906,5.1l-1.534-9.728c3.956,0.442,8.129-0.076,12.155-1.594
			c0.964-0.363,1.904-0.789,2.809-1.252l-1.162,10.358l19.235,2.694l0.16,7.889l20.045,6.304l26.123-78.708L346.79,105.709z
			 M173.937,129.91l6.074-5.895c-0.259,2.714-0.124,5.543,0.447,8.424L173.937,129.91z M233.576,125.903l-4.17-3.752l4.454-4.75
			l1.337-1.42L233.576,125.903z M84.964,135.29l-0.906,0.814l-0.366-1.168l-3.696-12.079l-0.249-0.829l0.854-0.161
			c1.935-0.357,3.746-0.167,5.237,0.541c0.896,0.426,2.458,1.433,2.822,3.378C89.352,129.506,88.249,132.348,84.964,135.29z
			 M202.35,127.278l-0.698,0.8l-0.516-0.933c-1.639-2.986-1.192-6.673,1.1-9.185c2.226-2.427,5.657-3.233,8.73-2.042l1,0.384
			l-0.705,0.802L202.35,127.278z"/>
		<path fill="#7D8069" stroke="#FFFFFF" stroke-width="7.4127" stroke-linecap="round" stroke-linejoin="round" d="M221.703,129.275
			c-0.072,0.088-0.145,0.175-0.228,0.267c0.094-0.077,0.187-0.151,0.275-0.228L221.703,129.275z"/>
		<polygon fill="#7D8069" stroke="#FFFFFF" stroke-width="7.4127" stroke-linecap="round" stroke-linejoin="round" points="
			230.754,128.729 231.521,124.051 233.576,125.903 229.406,122.151 233.86,117.401 232.337,119.024 232.376,118.801 
			231.038,120.226 226.585,124.974 		"/>
		<polygon fill="#7D8069" stroke="#FFFFFF" stroke-width="7.4127" stroke-linecap="round" stroke-linejoin="round" points="
			233.576,125.903 235.197,115.981 233.86,117.401 229.406,122.151 		"/>
		<polygon fill="#7D8069" stroke="#FFFFFF" stroke-width="7.4127" stroke-linecap="round" stroke-linejoin="round" points="
			173.937,129.91 173.998,129.935 173.998,129.935 		"/>
		<g>
			<path fill="#C79F08" stroke="#FFFFFF" stroke-width="7.4127" stroke-linecap="round" stroke-linejoin="round" d="
				M198.596,134.049c0.363,0.366,0.028,0.09,0.438,0.375l2.729-1.925c-0.41-0.287-0.812-0.591-1.186-0.932
				c-3.945-3.608-2.931-11.705-0.346-16.145C193.472,120.873,193.827,129.247,198.596,134.049z"/>
			<g>
				<path fill="#C79F08" stroke="#FFFFFF" stroke-width="7.4127" stroke-linecap="round" stroke-linejoin="round" d="
					M231.504,138.582c-4.493,3.715-9.625,6.144-16.416,7.782c-1.47,0.355-2.929,0.594-4.348,0.732
					c-10.765,1.046-19.785-3.902-23.223-11.912c-0.412-0.961-0.745-1.964-0.989-3.001c-1.59-6.76-0.243-12.788,3.097-17.513
					c0.321-0.458,0.669-0.898,1.033-1.333c-0.159,0.134-0.324,0.266-0.48,0.406c-1.276,1.129-2.408,2.384-3.375,3.751
					c-3.344,4.727-4.691,10.75-3.1,17.516c0.246,1.038,0.578,2.036,0.985,2.99c3.441,8.013,12.459,12.966,23.225,11.918
					c1.424-0.141,2.875-0.374,4.353-0.733c6.789-1.634,11.918-4.064,16.414-7.787c1.102-0.905,2.164-1.891,3.202-2.963l-0.106-0.094
					C231.685,138.419,231.599,138.503,231.504,138.582z"/>
				<polygon fill="#C79F08" stroke="#FFFFFF" stroke-width="7.4127" stroke-linecap="round" stroke-linejoin="round" points="
					167.687,101.291 167.201,100.83 155.602,117.122 155.665,118.179 				"/>
				<polygon fill="#C79F08" stroke="#FFFFFF" stroke-width="7.4127" stroke-linecap="round" stroke-linejoin="round" points="
					232.376,118.801 232.337,119.024 233.86,117.401 235.197,115.981 233.576,125.903 231.521,124.051 230.754,128.729 
					226.585,124.974 231.038,120.226 				"/>
				<polygon fill="#C79F08" stroke="#FFFFFF" stroke-width="7.4127" stroke-linecap="round" stroke-linejoin="round" points="
					223.922,86.377 216.922,76.865 214.322,79.995 220.332,88.157 				"/>
				<path fill="#C79F08" stroke="#FFFFFF" stroke-width="7.4127" stroke-linecap="round" stroke-linejoin="round" d="
					M102.732,114.751c-1.897-4.39-5.187-7.832-9.484-10.245c-3.119-2.08-6.7-3.086-10.069-3.468
					c-9.557-1.676-21.476-0.096-33.983,5.221c-4.46,1.896-8.642,4.063-12.472,6.496l0.496,0.839c2.891-1.64,5.942-3.149,9.15-4.505
					c12.508-5.332,24.425-6.904,33.987-5.229c3.365,0.384,6.946,1.39,10.064,3.466c4.308,2.417,7.583,5.855,9.486,10.247
					c3.387,7.804,0.397,18.154-7.581,26.834C102.337,135.235,106.491,123.423,102.732,114.751z"/>
				<path fill="#C79F08" stroke="#FFFFFF" stroke-width="7.4127" stroke-linecap="round" stroke-linejoin="round" d="
					M143.417,140.215c-0.089-0.436-0.193-0.867-0.309-1.295c-1.113-3.939-3.455-7.067-6.542-9.164
					c-4.997-3.391-11.952-4.088-18.885-1.15c-3.651,1.568-6.833,3.992-9.34,6.906c1.932-1.658,4.119-3.05,6.515-4.079
					c6.931-2.939,13.892-2.246,18.883,1.143c3.091,2.1,5.433,5.228,6.544,9.171c0.118,0.422,0.22,0.856,0.312,1.291
					c0.309,1.502,0.434,3.03,0.38,4.56c-0.148,4.555-1.824,9.116-4.626,13.002c-0.435,0.601-0.911,1.184-1.397,1.751
					c1.585-1.364,3.011-2.906,4.22-4.577c2.802-3.884,4.479-8.448,4.63-12.994C143.853,143.244,143.728,141.713,143.417,140.215z"/>
				<path fill="#C79F08" stroke="#FFFFFF" stroke-width="7.4127" stroke-linecap="round" stroke-linejoin="round" d="
					M124.278,134.432c-0.032,0.041,2.817-2.833,2.784-2.835c-3.559-0.122-5.064,3.235-5.186,3.498
					C122.604,134.743,123.413,134.507,124.278,134.432z"/>
				<path fill="#C79F08" stroke="#FFFFFF" stroke-width="7.4127" stroke-linecap="round" stroke-linejoin="round" d="
					M130.981,138.538c0.144,0.469,0.23,0.967,0.23,1.479c0,0.748-0.169,1.455-0.466,2.106c0.565-0.277,4.677-2.282,3.077-6.52
					C133.92,135.744,130.887,138.532,130.981,138.538z"/>
				<path fill="#C79F08" stroke="#FFFFFF" stroke-width="7.4127" stroke-linecap="round" stroke-linejoin="round" d="
					M114.786,140.894c0-1.752,2.978-5.962,3.91-7.382c-4.708,2.998-6.734,7.039-6.734,10.205c0,5.476,4.786,9.852,10.513,9.852
					c2.718,0,7.673-1.435,10.91-6.694c-1.691,1.119-6.017,3.806-8.28,3.806C119.373,150.68,114.786,146.364,114.786,140.894z"/>
				<polygon fill="#C79F08" stroke="#FFFFFF" stroke-width="7.4127" stroke-linecap="round" stroke-linejoin="round" points="
					155.161,167.931 157.994,167.542 157.975,142.991 155.087,145.882 				"/>
				<polygon fill="#C79F08" stroke="#FFFFFF" stroke-width="7.4127" stroke-linecap="round" stroke-linejoin="round" points="
					152.887,122.033 155.649,118.156 154.477,98.081 134.979,103.883 135.075,105.839 151.653,100.902 				"/>
				<g>
					<polygon fill="#C79F08" stroke="#FFFFFF" stroke-width="7.4127" stroke-linecap="round" stroke-linejoin="round" points="
						170.022,98.005 167.687,101.291 181.405,114.165 184.062,111.364 					"/>
					<path fill="#C79F08" stroke="#FFFFFF" stroke-width="7.4127" stroke-linecap="round" stroke-linejoin="round" d="
						M192.019,148.998c-3.953-2.429-7.08-5.76-9.147-9.659l-18.389-7.276l-2.666,2.811l18.227,7.292
						c2.073,3.899,5.2,7.226,9.151,9.658c3.817,2.349,8.173,3.751,12.803,4.185v9.007l2.827,1.41v-13.239
						C200.189,152.752,195.832,151.348,192.019,148.998z"/>
				</g>
				<g>
					<path fill="#C79F08" stroke="#FFFFFF" stroke-width="7.4127" stroke-linecap="round" stroke-linejoin="round" d="
						M212.154,135.56c4.507-1.081,7.096-3.422,9.321-6.018c-1.679,1.383-3.726,2.526-6.493,3.194
						c-1.551,0.377-3.646,0.719-4.979,0.484l-2.772,2.957C208.498,136.281,210.607,135.932,212.154,135.56z"/>
					<path fill="#C79F08" stroke="#FFFFFF" stroke-width="7.4127" stroke-linecap="round" stroke-linejoin="round" d="
						M204.708,104.964c-4.545,1.099-8.561,3.153-11.703,5.952c-0.852,0.757-1.63,1.568-2.347,2.422
						c3.076-2.591,6.905-4.508,11.224-5.548c10.262-2.47,19.293,0.661,24.871,7.579l2.77-2.95
						C224.004,105.627,214.973,102.493,204.708,104.964z"/>
				</g>
				<path fill="#C79F08" stroke="#FFFFFF" stroke-width="7.4127" stroke-linecap="round" stroke-linejoin="round" d="
					M231.775,138.342c1.004-0.847,1.978-1.749,2.937-2.727l-2.375-2.133l-7.806-7.031c-0.851,1.007-1.749,1.981-2.781,2.863
					l7.762,6.986L231.775,138.342z"/>
				<path fill="#C79F08" stroke="#FFFFFF" stroke-width="7.4127" stroke-linecap="round" stroke-linejoin="round" d="
					M288.33,164.984c-0.574-0.242-1.143-0.507-1.699-0.798c-5.457-2.903-9.284-7.912-10.755-14.111
					c-1.911-8.015,0.854-16.76,6.581-23.276l-4.5-29.195h-10.816l-0.503,2.825h8.498l4.492,29.197
					c-5.72,6.515-8.49,15.26-6.579,23.273c1.478,6.197,5.301,11.208,10.754,14.108c0.559,0.296,1.125,0.556,1.705,0.798l0.067,0.449
					l3.34,0.51L288.33,164.984z"/>
				<polygon fill="#C79F08" stroke="#FFFFFF" stroke-width="7.4127" stroke-linecap="round" stroke-linejoin="round" points="
					260.063,124.39 262.889,121.527 259.113,100.901 243.974,100.901 243.498,103.727 256.289,103.727 				"/>
				<polygon fill="#C79F08" stroke="#FFFFFF" stroke-width="7.4127" stroke-linecap="round" stroke-linejoin="round" points="
					261.751,151.672 262.692,153.707 268.683,138.196 265.875,141.003 				"/>
				<polygon fill="#C79F08" stroke="#FFFFFF" stroke-width="7.4127" stroke-linecap="round" stroke-linejoin="round" points="
					250.775,137.128 247.724,156.382 250.034,156.784 253.616,134.283 				"/>
				<path fill="#C79F08" stroke="#FFFFFF" stroke-width="7.4127" stroke-linecap="round" stroke-linejoin="round" d="
					M311.079,128.124c1.675,1.2,3.094,2.716,4.189,4.509c0.834,1.378,1.48,2.922,1.885,4.614c1.396,5.815-0.277,12.058-3.948,17.092
					c-0.368,0.514-0.767,1.005-1.178,1.493c1.5-1.287,2.854-2.743,3.999-4.319c3.678-5.03,5.347-11.274,3.954-17.092
					c-0.41-1.689-1.053-3.229-1.893-4.612c-1.089-1.793-2.504-3.307-4.181-4.504c-4.609-3.3-11.113-4.167-17.726-1.68
					c-2.835,1.085-5.403,2.707-7.603,4.687c-0.809,0.729-1.548,1.518-2.252,2.335c2.065-1.755,4.435-3.203,7.024-4.193
					C299.964,123.955,306.472,124.831,311.079,128.124z"/>
				<path fill="#C79F08" stroke="#FFFFFF" stroke-width="7.4127" stroke-linecap="round" stroke-linejoin="round" d="
					M301.236,129.382c0.049,0.131,2.796-2.844,2.857-2.846c-3.473,0.139-5.146,1.811-4.973,2.602
					c-0.198,0.282-0.379,0.591-0.519,0.906C299.353,129.683,300.72,129.409,301.236,129.382z"/>
				<path fill="#C79F08" stroke="#FFFFFF" stroke-width="7.4127" stroke-linecap="round" stroke-linejoin="round" d="
					M307.769,133.755c0.125,0.481,0.187,0.976,0.168,1.489c-0.028,0.657-0.19,1.287-0.448,1.864
					c0.521-0.251,4.719-1.545,3.127-6.177C310.654,131.053,307.72,133.768,307.769,133.755z"/>
				<path fill="#C79F08" stroke="#FFFFFF" stroke-width="7.4127" stroke-linecap="round" stroke-linejoin="round" d="
					M298.532,148.489c3.938,0.154,8.279-2.271,11.397-6.545c-1.806,1.188-6.222,3.688-8.638,3.586
					c-5.729-0.231-10.136-4.729-9.911-10.195c0.059-1.6,2.138-5.051,2.983-6.351c-3.022,2.2-5.687,6.405-5.811,9.373
					C288.33,143.823,292.805,148.253,298.532,148.489z"/>
				<polygon fill="#C79F08" stroke="#FFFFFF" stroke-width="7.4127" stroke-linecap="round" stroke-linejoin="round" points="
					350.57,112.553 349.784,115.832 363.603,118.89 342.38,183.191 344.103,183.702 366.432,116.065 				"/>
				<polygon fill="#C79F08" stroke="#FFFFFF" stroke-width="7.4127" stroke-linecap="round" stroke-linejoin="round" points="
					340.566,145.179 343.406,142.314 336.375,109.111 315.536,104.923 315.351,108.278 333.556,111.938 				"/>
				<polygon fill="#C79F08" stroke="#FFFFFF" stroke-width="7.4127" stroke-linecap="round" stroke-linejoin="round" points="
					324.2,170.685 326.459,171.041 332.06,139.536 329.219,142.332 				"/>
				<polygon fill="#C79F08" stroke="#FFFFFF" stroke-width="7.4127" stroke-linecap="round" stroke-linejoin="round" points="
					84.398,150.199 81.278,152.386 89.174,181.969 92.645,181.39 				"/>
				<path fill="#C79F08" stroke="#FFFFFF" stroke-width="7.4127" stroke-linecap="round" stroke-linejoin="round" d="
					M90.709,134.657c-1.975,2.083-6.32,6.134-8.809,7.731l-1.502-4.834l-3.303-10.615l-2.1-7.179l-2.05,2.638l2.1,7.173
					l3.297,10.615l1.505,4.84C83.241,142.838,88.185,138.73,90.709,134.657z"/>
			</g>
		</g>
		<path fill="#7D8069" stroke="#FFFFFF" stroke-width="7.4127" stroke-linecap="round" stroke-linejoin="round" d="M211.384,116.396
			c-2.69-1.04-6.496-0.732-8.558,1.524c-0.477,0.522-1.389,1.842-1.687,2.452c1.979-1.583,5.532-1.921,7.844-1.089L211.384,116.396z
			"/>
		<path fill="#7D8069" stroke="#FFFFFF" stroke-width="7.4127" stroke-linecap="round" stroke-linejoin="round" d="M88.242,125.984
			c-0.297-1.603-1.846-2.858-2.613-3.214c-1.371-0.649-3.719-0.756-5.445-0.436c0.311,1.072,0.669,2.33,0.817,2.831
			c0.696,0.097,1.844,0.3,2.45,0.585c0.758,0.361,2.085,1.211,2.382,2.814c0.399,2.137,0.3,4.12-0.585,5.754
			C87.681,131.923,88.869,129.309,88.242,125.984z"/>
		<g>
			<g>
				<path id="SVGID_29_" fill="none" stroke="#FFFFFF" stroke-width="7.4127" stroke-linecap="round" stroke-linejoin="round" d="
					M215.01,115.432c-4.28-3.916-10.924-3.619-14.847,0.66c-3.915,4.29-3.618,10.933,0.665,14.848
					c0.359,0.326,0.738,0.609,1.12,0.879l13.805-15.637C215.521,115.925,215.274,115.673,215.01,115.432z"/>
			</g>
		</g>
		<g>
			<g>
				<path id="SVGID_31_" fill="none" stroke="#FFFFFF" stroke-width="7.4127" stroke-linecap="round" stroke-linejoin="round" d="
					M92.073,125.251c-1.104-5.903-8.822-9.167-16.493-4.994l1.978,6.758l3.108,9.995l1.417,4.552
					C87.826,137.866,93.605,133.429,92.073,125.251z"/>
			</g>
		</g>
		
			<linearGradient id="SVGID_30_" gradientUnits="userSpaceOnUse" x1="-688.8179" y1="698.9795" x2="-689.788" y2="790.988" gradientTransform="matrix(1.1655 -0.0468 -0.0468 -1.1655 922.0361 958.5739)">
			<stop  offset="0" style="stop-color:#3B5AA6"/>
			<stop  offset="1" style="stop-color:#2A75BA"/>
		</linearGradient>
		<path fill="url(#SVGID_30_)" stroke="#FFFFFF" stroke-width="7.4127" stroke-linecap="round" stroke-linejoin="round" d="
			M92.514,125.936c-1.174-6.273-9.371-9.738-17.519-5.302l2.1,7.18l3.303,10.605l1.502,4.845
			C88.002,139.331,94.142,134.623,92.514,125.936z M84.44,135.579c-0.901-2.903-2.849-9.165-2.849-9.165
			c0.012,0.03-0.394-1.351-0.848-2.902c1.731-0.319,3.388-0.173,4.762,0.48c0.76,0.359,2.077,1.206,2.381,2.813
			C88.564,130.408,87.333,132.982,84.44,135.579z"/>
		
			<linearGradient id="SVGID_32_" gradientUnits="userSpaceOnUse" x1="-372.1304" y1="538.3828" x2="-373.1004" y2="630.38" gradientTransform="matrix(1.1074 -0.0346 -0.0346 -1.1074 639.4392 752.4899)">
			<stop  offset="0" style="stop-color:#3B5AA6"/>
			<stop  offset="1" style="stop-color:#2A75BA"/>
		</linearGradient>
		<path fill="url(#SVGID_32_)" stroke="#FFFFFF" stroke-width="7.4127" stroke-linecap="round" stroke-linejoin="round" d="
			M215.635,115.968c-4.546-4.161-11.607-3.845-15.769,0.698c-4.159,4.552-3.84,11.606,0.71,15.771
			c0.373,0.348,0.775,0.647,1.186,0.931l14.662-16.605C216.181,116.489,215.917,116.222,215.635,115.968z M201.786,127.66
			c-1.433-2.628-1.137-5.986,0.999-8.323c2.066-2.256,5.23-2.893,7.917-1.851L201.786,127.66z"/>
		<polygon fill="#1E2D60" stroke="#FFFFFF" stroke-width="7.4127" stroke-linecap="round" stroke-linejoin="round" points="
			235.235,114.145 227.13,121.988 234.847,128.918 		"/>
		<g>
			
				<linearGradient id="SVGID_33_" gradientUnits="userSpaceOnUse" x1="-456.1455" y1="459.5439" x2="-457.2975" y2="568.7984" gradientTransform="matrix(1.1664 0 0 -1.1664 734.0295 730.2227)">
				<stop  offset="0" style="stop-color:#3B5AA6"/>
				<stop  offset="1" style="stop-color:#2A75BA"/>
			</linearGradient>
			<path fill="url(#SVGID_33_)" stroke="#FFFFFF" stroke-width="7.4127" stroke-linecap="round" stroke-linejoin="round" d="
				M346.79,105.709l-2.585,10.646l-2.382-11.799l-31.958-7.029l0.237,17.76l4.805,1.072l-0.354,3.21
				c-0.049-0.022-0.098-0.049-0.143-0.075c-5.953-3.161-13.355-3.476-20.327-0.849c-2.327,0.889-4.497,2.081-6.475,3.49
				l-4.809-30.423h-21.252l-0.59,3.486h-22.363l-2.561,15.662l-1.859-2.288c-5.416-6.671-13.272-10.341-21.971-10.526l18.979-10.199
				l-13.237-19.767l-23.928,27.569l4.139,5.049c-3.758,1.528-7.021,3.625-9.716,6.174l-20.509-18.198l-7.188,13.749l0.28-13.203
				l-32.082,10.233l0.816,17.246l5.459-1.425l0.812,8.743c-6.229-2.799-13.717-2.746-20.673,0.202
				c-2.056,0.886-3.985,1.993-5.759,3.277c1.206-5.32,0.919-10.572-1.102-15.244c-2.399-5.522-6.609-10.091-11.773-12.976
				c-3.616-2.409-7.937-3.914-12.458-4.423c-11.09-1.946-24.418,0.056-37.532,5.63c-4.816,2.052-9.322,4.398-13.373,6.979
				l-5.131,3.263l3.094,5.229l9.607,16.229c0,0,2.95,4.983,2.965,4.979l5.203-2.55l0.719-0.348l23.866,53.293l2.299,5.123
				l5.346-1.708l12.923-4.134l5.661-1.812l-1.501-5.748l-6.86-26.354c1.984-1.458,3.82-3.008,5.519-4.636
				c-0.379,3.155-0.184,6.335,0.676,9.388c1.795,6.385,5.981,11.437,11.786,14.223c6.267,3.01,13.917,3.022,20.992,0.021
				c3.546-1.515,6.708-3.695,9.373-6.322l0.978,10.484l22.618-3.323l-0.028-20.295l47.275,23.381v-22.638
				c1.91-0.155,3.839-0.448,5.785-0.92c5.211-1.258,9.656-2.991,13.614-5.356l-1.989,12.145l25.491,4.018l1.414-9.183l6.654,12.303
				l4.062-7.84l1.479,12.87l28.906,5.1l-1.534-9.728c3.956,0.442,8.129-0.076,12.155-1.594c0.964-0.363,1.904-0.789,2.809-1.252
				l-1.162,10.358l19.235,2.694l0.16,7.889l20.045,6.304l26.123-78.708L346.79,105.709z M233.86,117.401l1.337-1.42l-1.621,9.923
				l-4.17-3.752L233.86,117.401z M216.922,76.865l7,9.512l-20.015,9.915l-1.378-2.091L216.922,76.865z M180.458,132.439
				l-6.521-2.529l6.074-5.895C179.751,126.73,179.886,129.559,180.458,132.439z M84.362,150.22l7.979,30.642l-12.925,4.133
				l-26.531-59.246c-1.436,0.754-4.097,2.026-6.556,3.24l-9.605-16.232c3.83-2.433,8.011-4.6,12.471-6.496
				c12.508-5.317,24.427-6.897,33.984-5.221c3.369,0.382,6.95,1.388,10.069,3.468c4.298,2.413,7.587,5.855,9.484,10.245
				C107.349,125.402,99.63,140.791,84.362,150.22z M139.17,157.773c-2.687,3.726-6.395,6.826-10.783,8.699
				c-11.22,4.755-22.435,0-25.431-10.636c-2.9-10.314,3.854-22.558,14.724-27.23c6.934-2.938,13.888-2.241,18.885,1.15
				c3.087,2.097,5.428,5.225,6.542,9.164c0.116,0.428,0.22,0.859,0.309,1.295c0.312,1.498,0.437,3.029,0.384,4.564
				C143.649,149.325,141.973,153.89,139.17,157.773z M204.824,166.425l-46.915-23.463l0.084,24.579l-12.136,1.666l-0.854-10.152
				c3.756-6.42,5.126-13.991,3.156-20.916c-1.067-3.811-3.046-7.141-5.743-9.785l-1.741-20.67l-5.458,1.423l-0.239-5.224
				l19.498-5.802l1.188,20.097l14.358-20.173l14.039,13.358l-19.617,20.684l18.427,7.292c2.067,3.899,5.194,7.23,9.147,9.659
				c3.813,2.35,8.17,3.754,12.806,4.188L204.824,166.425L204.824,166.425z M215.089,146.364c-1.471,0.355-2.93,0.594-4.349,0.732
				c-10.764,1.046-19.785-3.902-23.223-11.912c-0.412-0.961-0.745-1.964-0.989-3.001c-1.59-6.76-0.243-12.788,3.097-17.513
				c0.965-1.364,2.101-2.62,3.379-3.756c3.142-2.798,7.158-4.853,11.703-5.952c10.265-2.471,19.296,0.663,24.814,7.455
				l-19.532,20.803c1.333,0.241,3.438-0.107,4.993-0.484c4.654-1.123,7.265-3.584,9.549-6.286l7.805,7.031l2.376,2.133
				c-1.042,1.068-2.11,2.051-3.209,2.967C227.011,142.297,221.88,144.726,215.089,146.364z M288.915,168.766l-15.974-2.439
				l-4.239-28.151l-6.01,15.532l-9.002-19.404h-0.095l-3.562,22.481l-14.988-2.608l2.104-12.542c0.567-0.53,1.122-1.073,1.678-1.641
				l4.845-4.998l-4.701-4.236l5.004-29.857h15.139l3.779,20.665l4.25-23.961h10.816l4.5,29.195
				c-5.728,6.516-8.493,15.261-6.582,23.276c1.471,6.199,5.298,11.208,10.755,14.111c0.557,0.291,1.125,0.556,1.699,0.798
				L288.915,168.766z M304.901,160.072c-3.871,1.463-7.706,1.76-11.135,1.089c-2.379-0.473-4.564-1.405-6.453-2.761
				c-3.007-2.165-5.229-5.387-6.196-9.434c-1.155-4.843-0.096-10.036,2.506-14.552c1.3-2.244,2.979-4.324,4.955-6.106
				c2.199-1.979,4.768-3.601,7.604-4.687c6.611-2.487,13.116-1.621,17.726,1.68c1.677,1.197,3.092,2.71,4.18,4.504
				c0.84,1.383,1.482,2.922,1.894,4.612c1.392,5.818-0.277,12.062-3.954,17.092c-1.561,2.146-3.487,4.069-5.694,5.645
				C308.669,158.342,306.851,159.331,304.901,160.072z M344.103,183.702l-11.09-3.314l-0.968-40.883l-5.586,31.536l-12.104-1.924
				l0.866-9.091c7.902-6.676,12.097-17.198,9.807-26.743c-1.012-4.232-3.176-7.908-6.257-10.713l1.021-10.71l-4.574-1.224
				l0.318-5.714l20.838,4.188l7.019,33.246l7.177-29.803l15.861,3.512L344.103,183.702z"/>
			
				<linearGradient id="SVGID_34_" gradientUnits="userSpaceOnUse" x1="-370.5176" y1="499.6133" x2="-370.7249" y2="519.2812" gradientTransform="matrix(1.1664 0 0 -1.1664 734.0295 730.2227)">
				<stop  offset="0" style="stop-color:#3B5AA6"/>
				<stop  offset="1" style="stop-color:#2A75BA"/>
			</linearGradient>
			<path fill="url(#SVGID_34_)" stroke="#FFFFFF" stroke-width="7.4127" stroke-linecap="round" stroke-linejoin="round" d="
				M310.593,130.93c0.121,0.479,0.19,0.979,0.168,1.49c-0.127,3.095-3.049,5.493-6.528,5.352c-3.479-0.142-6.199-2.76-6.073-5.863
				c0.119-2.911,2.704-5.199,5.901-5.351c-0.611-0.128-1.246-0.222-1.898-0.248c-5.816-0.232-10.57,3.884-10.78,9.025
				c-0.225,5.466,4.183,9.963,9.911,10.195c5.817,0.238,10.571-3.884,10.793-9.355C312.163,134.279,311.611,132.472,310.593,130.93z
				"/>
			
				<linearGradient id="SVGID_35_" gradientUnits="userSpaceOnUse" x1="-521.9136" y1="495.3955" x2="-522.117" y2="514.687" gradientTransform="matrix(1.1664 0 0 -1.1664 734.0295 730.2227)">
				<stop  offset="0" style="stop-color:#3B5AA6"/>
				<stop  offset="1" style="stop-color:#2A75BA"/>
			</linearGradient>
			<path fill="url(#SVGID_35_)" stroke="#FFFFFF" stroke-width="7.4127" stroke-linecap="round" stroke-linejoin="round" d="
				M134.033,137.195c0,3.098-2.821,5.608-6.308,5.608c-3.482,0-6.306-2.511-6.306-5.608c0-2.916,2.492-5.304,5.683-5.587
				c-0.619-0.106-1.253-0.169-1.909-0.169c-5.82,0-10.406,4.313-10.406,9.455c0,5.471,4.586,9.786,10.318,9.786
				c5.825,0,10.408-4.315,10.408-9.786c0-1.901-0.634-3.682-1.706-5.179C133.946,136.188,134.033,136.678,134.033,137.195z"/>
		</g>
	</g>
</g>
<g>
	<g>
		
			<linearGradient id="SVGID_36_" gradientUnits="userSpaceOnUse" x1="-729.2705" y1="766.1094" x2="-721.1992" y2="730.4579" gradientTransform="matrix(1.1656 -0.0446 -0.0446 -1.1656 913.0449 968.9492)">
			<stop  offset="0" style="stop-color:#1D2C5F"/>
			<stop  offset="1" style="stop-color:#0071B8"/>
		</linearGradient>
		<polygon fill="url(#SVGID_36_)" points="39.032,142.059 43.857,137.164 28.256,110.747 23.385,115.653 		"/>
		
			<linearGradient id="SVGID_37_" gradientUnits="userSpaceOnUse" x1="-402.7197" y1="917.3467" x2="-407.0912" y2="901.8771" gradientTransform="matrix(1.1664 0 0 -1.1664 729.2424 1161.0078)">
			<stop  offset="0" style="stop-color:#1D2C5F"/>
			<stop  offset="1" style="stop-color:#0071B8"/>
		</linearGradient>
		<polygon fill="url(#SVGID_37_)" points="255.095,98.36 261.047,95.178 261.653,91.695 255.7,94.896 		"/>
		
			<linearGradient id="SVGID_38_" gradientUnits="userSpaceOnUse" x1="-448.1816" y1="935.9707" x2="-457.5991" y2="913.0999" gradientTransform="matrix(1.1664 0 0 -1.1664 733.6418 1155.8789)">
			<stop  offset="0" style="stop-color:#1D2C5F"/>
			<stop  offset="1" style="stop-color:#0071B8"/>
		</linearGradient>
		<polygon fill="url(#SVGID_38_)" points="188.016,98.674 194.044,95.538 217.976,67.96 212.091,71.097 		"/>
		
			<linearGradient id="SVGID_39_" gradientUnits="userSpaceOnUse" x1="-330.4878" y1="910.7334" x2="-337.8854" y2="890.2216" gradientTransform="matrix(1.1664 0 0 -1.1664 732.5715 1162.2695)">
			<stop  offset="0" style="stop-color:#1D2C5F"/>
			<stop  offset="1" style="stop-color:#0071B8"/>
		</linearGradient>
		<polygon fill="url(#SVGID_39_)" points="340.909,108.844 346.817,105.642 344.199,116.294 338.309,119.381 		"/>
		
			<linearGradient id="SVGID_40_" gradientUnits="userSpaceOnUse" x1="-340.2256" y1="835.9502" x2="-341.9071" y2="921.7025" gradientTransform="matrix(1.1664 0 0 -1.1664 731.6985 1162.5625)">
			<stop  offset="0" style="stop-color:#1D2C5F"/>
			<stop  offset="1" style="stop-color:#0071B8"/>
		</linearGradient>
		<polygon fill="url(#SVGID_40_)" points="341.89,194.167 347.845,191.025 327.82,184.704 321.947,187.806 		"/>
		
			<linearGradient id="SVGID_41_" gradientUnits="userSpaceOnUse" x1="-369.3604" y1="889.5703" x2="-343.7994" y2="913.4499" gradientTransform="matrix(1.1664 0 0 -1.1664 732.5715 1162.2695)">
			<stop  offset="0" style="stop-color:#1D2C5F"/>
			<stop  offset="1" style="stop-color:#0071B8"/>
		</linearGradient>
		<polygon fill="url(#SVGID_41_)" points="309.052,119.495 314.923,116.396 310.115,115.304 304.184,118.372 		"/>
		
			<linearGradient id="SVGID_42_" gradientUnits="userSpaceOnUse" x1="-460.2314" y1="832.7852" x2="-461.9133" y2="918.5568" gradientTransform="matrix(1.1664 0 0 -1.1664 726.0842 1159.793)">
			<stop  offset="0" style="stop-color:#1D2C5F"/>
			<stop  offset="1" style="stop-color:#0071B8"/>
		</linearGradient>
		<polygon fill="url(#SVGID_42_)" points="187.625,106.193 192.768,103.456 188.557,106.831 182.569,110.019 		"/>
		
			<linearGradient id="SVGID_43_" gradientUnits="userSpaceOnUse" x1="-349.0752" y1="835.7422" x2="-350.757" y2="921.5038" gradientTransform="matrix(1.1664 0 0 -1.1664 732.0618 1162.418)">
			<stop  offset="0" style="stop-color:#1D2C5F"/>
			<stop  offset="1" style="stop-color:#0071B8"/>
		</linearGradient>
		<polygon fill="url(#SVGID_43_)" points="321.773,179.986 327.621,176.854 327.82,184.704 321.947,187.806 		"/>
		
			<linearGradient id="SVGID_44_" gradientUnits="userSpaceOnUse" x1="-331.4468" y1="940.4492" x2="-340.8648" y2="924.9764" gradientTransform="matrix(1.1664 0.0097 0.0097 -1.1664 689.2819 1200.4862)">
			<stop  offset="0" style="stop-color:#1D2C5F"/>
			<stop  offset="1" style="stop-color:#0071B8"/>
		</linearGradient>
		<polygon fill="url(#SVGID_44_)" points="304.184,118.372 310.115,115.304 309.834,97.477 303.97,100.718 		"/>
		<polygon fill="#302370" points="302.569,177.224 308.437,174.132 314.884,116.411 309.052,119.495 		"/>
		
			<linearGradient id="SVGID_45_" gradientUnits="userSpaceOnUse" x1="-356.9873" y1="835.6191" x2="-358.6703" y2="921.4477" gradientTransform="matrix(1.1664 0 0 -1.1664 731.6985 1162.5625)">
			<stop  offset="0" style="stop-color:#1D2C5F"/>
			<stop  offset="1" style="stop-color:#0071B8"/>
		</linearGradient>
		<polygon fill="url(#SVGID_45_)" points="321.773,179.986 327.621,176.854 308.437,174.132 302.569,177.224 		"/>
		
			<linearGradient id="SVGID_46_" gradientUnits="userSpaceOnUse" x1="-384.6284" y1="837.5293" x2="-387.991" y2="918.8924" gradientTransform="matrix(1.1664 0 0 -1.1664 727.6145 1157.8965)">
			<stop  offset="0" style="stop-color:#1D2C5F"/>
			<stop  offset="1" style="stop-color:#0071B8"/>
		</linearGradient>
		<polygon fill="url(#SVGID_46_)" points="290.352,179.551 296.143,176.362 267.242,171.267 261.359,174.417 		"/>
		
			<linearGradient id="SVGID_47_" gradientUnits="userSpaceOnUse" x1="-397.8154" y1="833.335" x2="-399.4968" y2="919.0775" gradientTransform="matrix(1.1664 0 0 -1.1664 727.9075 1157.3125)">
			<stop  offset="0" style="stop-color:#1D2C5F"/>
			<stop  offset="1" style="stop-color:#0071B8"/>
		</linearGradient>
		<polygon fill="url(#SVGID_47_)" points="261.359,174.417 267.242,171.267 265.735,158.369 259.806,161.556 		"/>
		
			<linearGradient id="SVGID_48_" gradientUnits="userSpaceOnUse" x1="-404.5732" y1="833.1943" x2="-406.2552" y2="918.9684" gradientTransform="matrix(1.1664 0 0 -1.1664 727.8088 1157.3125)">
			<stop  offset="0" style="stop-color:#1D2C5F"/>
			<stop  offset="1" style="stop-color:#0071B8"/>
		</linearGradient>
		<polygon fill="url(#SVGID_48_)" points="255.814,169.353 261.665,166.133 255.109,153.921 249.229,157.191 		"/>
		
			<linearGradient id="SVGID_49_" gradientUnits="userSpaceOnUse" x1="-419.4624" y1="835.8672" x2="-422.8273" y2="917.2856" gradientTransform="matrix(1.1664 0 0 -1.1664 728.0032 1157.1191)">
			<stop  offset="0" style="stop-color:#1D2C5F"/>
			<stop  offset="1" style="stop-color:#0071B8"/>
		</linearGradient>
		<polygon fill="url(#SVGID_49_)" points="247.791,166.216 253.593,163.092 228.139,159.07 222.272,162.125 		"/>
		
			<linearGradient id="SVGID_50_" gradientUnits="userSpaceOnUse" x1="-430.4014" y1="881.3994" x2="-404.5005" y2="883.7538" gradientTransform="matrix(1.1664 0 0 -1.1664 728.0032 1157.1191)">
			<stop  offset="0" style="stop-color:#1D2C5F"/>
			<stop  offset="1" style="stop-color:#0071B8"/>
		</linearGradient>
		<polygon fill="url(#SVGID_50_)" points="222.272,162.125 228.139,159.07 238.572,95.175 232.755,98.382 		"/>
		
			<linearGradient id="SVGID_51_" gradientUnits="userSpaceOnUse" x1="-470.1099" y1="901" x2="-428.4044" y2="929.5886" gradientTransform="matrix(1.1664 0 0 -1.1664 733.6418 1155.9531)">
			<stop  offset="0" style="stop-color:#1D2C5F"/>
			<stop  offset="1" style="stop-color:#0071B8"/>
		</linearGradient>
		<polygon fill="url(#SVGID_51_)" points="192.225,103.703 198.149,100.668 194.044,95.587 188.016,98.724 		"/>
		
			<linearGradient id="SVGID_52_" gradientUnits="userSpaceOnUse" x1="-298.7661" y1="1010.6885" x2="-300.4483" y2="1096.4706" gradientTransform="matrix(1.1651 0.056 0.056 -1.1651 475.0382 1382.8312)">
			<stop  offset="0" style="stop-color:#1D2C5F"/>
			<stop  offset="1" style="stop-color:#0071B8"/>
		</linearGradient>
		<polygon fill="url(#SVGID_52_)" points="157.613,155.606 163.439,152.432 210.771,175.869 204.888,179.023 		"/>
		
			<linearGradient id="SVGID_53_" gradientUnits="userSpaceOnUse" x1="-481.1021" y1="920.3135" x2="-487.1557" y2="906.5248" gradientTransform="matrix(1.1664 0 0 -1.1664 727.2756 1159.793)">
			<stop  offset="0" style="stop-color:#1D2C5F"/>
			<stop  offset="1" style="stop-color:#0071B8"/>
		</linearGradient>
		<polygon fill="url(#SVGID_53_)" points="154.884,105.459 160.817,102.218 167.927,88.689 162.04,91.875 		"/>
		
			<linearGradient id="SVGID_54_" gradientUnits="userSpaceOnUse" x1="-439.5718" y1="887.873" x2="-441.2538" y2="973.6479" gradientTransform="matrix(1.1663 0.0182 0.0182 -1.1663 645.7622 1229.1208)">
			<stop  offset="0" style="stop-color:#1D2C5F"/>
			<stop  offset="1" style="stop-color:#0071B8"/>
		</linearGradient>
		<polygon fill="url(#SVGID_54_)" points="134.922,179.257 140.881,176.112 163.496,172.756 157.482,175.934 		"/>
		
			<linearGradient id="SVGID_55_" gradientUnits="userSpaceOnUse" x1="-443.7168" y1="922.4014" x2="-466.921" y2="917.3569" gradientTransform="matrix(1.1663 0.0182 0.0182 -1.1663 645.7622 1229.1208)">
			<stop  offset="0" style="stop-color:#1D2C5F"/>
			<stop  offset="1" style="stop-color:#0071B8"/>
		</linearGradient>
		<polygon fill="url(#SVGID_55_)" points="134.922,179.257 140.881,176.112 135.218,115.252 129.41,118.39 		"/>
		
			<linearGradient id="SVGID_56_" gradientUnits="userSpaceOnUse" x1="-516.2852" y1="912.0908" x2="-515.6129" y2="888.8876" gradientTransform="matrix(1.1664 0 0 -1.1664 728.1985 1159.2344)">
			<stop  offset="0" style="stop-color:#1D2C5F"/>
			<stop  offset="1" style="stop-color:#0071B8"/>
		</linearGradient>
		<polygon fill="url(#SVGID_56_)" points="123.872,119.794 129.792,116.658 128.926,99.445 123.042,102.631 		"/>
		
			<linearGradient id="SVGID_57_" gradientUnits="userSpaceOnUse" x1="-685.3647" y1="693.7725" x2="-687.0464" y2="779.5306" gradientTransform="matrix(1.1656 -0.0446 -0.0446 -1.1656 914.8193 968.3906)">
			<stop  offset="0" style="stop-color:#1D2C5F"/>
			<stop  offset="1" style="stop-color:#0071B8"/>
		</linearGradient>
		<polygon fill="url(#SVGID_57_)" points="75.991,192.706 70.092,196.647 94.023,188.94 100.002,185.056 		"/>
		
			<linearGradient id="SVGID_58_" gradientUnits="userSpaceOnUse" x1="-702.8433" y1="713.3262" x2="-723.6964" y2="771.5145" gradientTransform="matrix(1.1656 -0.0446 -0.0446 -1.1656 912.6807 969.1679)">
			<stop  offset="0" style="stop-color:#1D2C5F"/>
			<stop  offset="1" style="stop-color:#0071B8"/>
		</linearGradient>
		<polygon fill="url(#SVGID_58_)" points="49.81,134.331 44.91,139.538 70.092,196.647 75.991,192.706 		"/>
		
			<linearGradient id="SVGID_59_" gradientUnits="userSpaceOnUse" x1="-1111.7939" y1="316.7607" x2="-1128.2751" y2="380.3307" gradientTransform="matrix(1.1524 -0.1803 -0.1803 -1.1524 1458.7001 345.0566)">
			<stop  offset="0" style="stop-color:#1D2C5F"/>
			<stop  offset="1" style="stop-color:#0071B8"/>
		</linearGradient>
		<path fill="url(#SVGID_59_)" d="M113.853,173.393c-6.184-1.791-11.147-6.081-13.969-12.083c-1.447-3.06-2.758-9.921-2.83-13.316
			c-1.347,1.554-4.084,3.225-6.045,4.179c0,0,1.289,6.717,2.953,11.418c1.661,4.702,5.624,8.504,5.624,8.504
			c2.544,2.463,5.642,4.27,9.132,5.279c6.678,1.935,14.228,0.679,20.704-3.44c1.688-1.08,4.005-2.797,5.412-4.166
			C128.46,173.65,120.367,175.274,113.853,173.393z"/>
		
			<linearGradient id="SVGID_60_" gradientUnits="userSpaceOnUse" x1="-512.0439" y1="831.6426" x2="-513.7253" y2="917.3885" gradientTransform="matrix(1.1664 0 0 -1.1664 728.1985 1159.2344)">
			<stop  offset="0" style="stop-color:#1D2C5F"/>
			<stop  offset="1" style="stop-color:#0071B8"/>
		</linearGradient>
		<polygon fill="url(#SVGID_60_)" points="123.872,119.794 129.41,118.39 135.218,115.252 129.792,116.658 		"/>
		
			<linearGradient id="SVGID_61_" gradientUnits="userSpaceOnUse" x1="-577.125" y1="831.0732" x2="-578.8073" y2="916.8629" gradientTransform="matrix(1.1664 0 0 -1.1664 718.6487 1162.0273)">
			<stop  offset="0" style="stop-color:#1D2C5F"/>
			<stop  offset="1" style="stop-color:#0071B8"/>
		</linearGradient>
		<polygon fill="url(#SVGID_61_)" points="39.032,142.059 43.857,137.164 49.81,134.331 44.91,139.538 		"/>
		<g>
			
				<linearGradient id="SVGID_62_" gradientUnits="userSpaceOnUse" x1="-111.582" y1="1112.4365" x2="-113.2629" y2="1198.1522" gradientTransform="matrix(1.1632 0.0872 0.0872 -1.1632 333.5386 1491.8669)">
				<stop  offset="0" style="stop-color:#1D2C5F"/>
				<stop  offset="1" style="stop-color:#0071B8"/>
			</linearGradient>
			<path fill="url(#SVGID_62_)" d="M294.507,166.479l0.333,2.812c2.056-0.242,4.234-0.512,6.076-1.158
				c2.161-0.747,6.845-2.816,8.627-4.38c-0.652,0.246-3.824,1.716-4.505,1.921C301.54,166.718,297.891,166.847,294.507,166.479z"/>
		</g>
		<g>
			
				<linearGradient id="SVGID_63_" gradientUnits="userSpaceOnUse" x1="-876.3926" y1="1401.6191" x2="-878.0746" y2="1487.3906" gradientTransform="matrix(1.3092 -0.0232 -0.0215 -1.4152 1399.2156 2153.1868)">
				<stop  offset="0" style="stop-color:#1D2C5F"/>
				<stop  offset="1" style="stop-color:#0071B8"/>
			</linearGradient>
			<path fill="url(#SVGID_63_)" d="M210.667,153.192l0.093,3.222c4.834-0.709,8.991-2.509,13.081-4.961
				c2.555-1.533,5.391-3.841,6.265-4.456c-0.627,0.4-1.261,0.64-1.911,1.001C224.402,150.075,214.265,153.133,210.667,153.192z"/>
		</g>
		<path fill="#FFCA05" d="M346.79,105.709l-2.585,10.646l-2.382-11.799l-31.958-7.029l0.237,17.76l4.805,1.072l-0.354,3.21
			c-0.049-0.022-0.098-0.049-0.143-0.075c-5.953-3.161-13.355-3.476-20.327-0.849c-2.327,0.889-4.497,2.081-6.475,3.49
			l-4.809-30.423h-21.252l-0.59,3.486h-22.363l-2.561,15.662l-1.859-2.288c-5.416-6.671-13.272-10.341-21.971-10.526l18.979-10.199
			l-13.237-19.767l-23.928,27.569l4.139,5.049c-3.758,1.528-7.021,3.625-9.716,6.174l-20.509-18.198l-7.188,13.749l0.28-13.203
			l-32.082,10.233l0.816,17.246l5.459-1.425l0.812,8.743c-6.229-2.799-13.717-2.746-20.673,0.202
			c-2.056,0.886-3.985,1.993-5.759,3.277c1.206-5.32,0.919-10.572-1.102-15.244c-2.399-5.522-6.609-10.091-11.773-12.976
			c-3.616-2.409-7.937-3.914-12.458-4.423c-11.09-1.946-24.418,0.056-37.532,5.63c-4.816,2.052-9.322,4.398-13.373,6.979
			l-5.131,3.263l3.094,5.229l9.607,16.229c0,0,2.95,4.983,2.965,4.979l5.203-2.55l0.719-0.348l23.866,53.293l2.299,5.123
			l5.346-1.708l12.923-4.134l5.661-1.812l-1.501-5.748l-6.86-26.354c1.984-1.458,3.82-3.008,5.519-4.636
			c-0.379,3.155-0.184,6.335,0.676,9.388c1.795,6.385,5.981,11.437,11.786,14.223c6.267,3.01,13.917,3.022,20.992,0.021
			c3.546-1.515,6.708-3.695,9.373-6.322l0.978,10.484l22.618-3.323l-0.028-20.295l47.275,23.381v-22.638
			c1.91-0.155,3.839-0.448,5.785-0.92c5.211-1.258,9.656-2.991,13.614-5.356l-1.989,12.145l25.491,4.018l1.414-9.183l6.654,12.303
			l4.062-7.84l1.479,12.87l28.906,5.1l-1.534-9.728c3.956,0.442,8.129-0.076,12.155-1.594c0.964-0.363,1.904-0.789,2.809-1.252
			l-1.162,10.358l19.235,2.694l0.16,7.889l20.045,6.304l26.123-78.708L346.79,105.709z M173.937,129.91l6.074-5.895
			c-0.259,2.714-0.124,5.543,0.447,8.424L173.937,129.91z M233.576,125.903l-4.17-3.752l4.454-4.75l1.337-1.42L233.576,125.903z
			 M84.964,135.29l-0.906,0.814l-0.366-1.168l-3.696-12.079l-0.249-0.829l0.854-0.161c1.935-0.357,3.746-0.167,5.237,0.541
			c0.896,0.426,2.458,1.433,2.822,3.378C89.352,129.506,88.249,132.348,84.964,135.29z M202.35,127.278l-0.698,0.8l-0.516-0.933
			c-1.639-2.986-1.192-6.673,1.1-9.185c2.226-2.427,5.657-3.233,8.73-2.042l1,0.384l-0.705,0.802L202.35,127.278z"/>
		<path fill="#7D8069" d="M221.703,129.275c-0.072,0.088-0.145,0.175-0.228,0.267c0.094-0.077,0.187-0.151,0.275-0.228
			L221.703,129.275z"/>
		<polygon fill="#7D8069" points="230.754,128.729 231.521,124.051 233.576,125.903 229.406,122.151 233.86,117.401 
			232.337,119.024 232.376,118.801 231.038,120.226 226.585,124.974 		"/>
		<polygon fill="#7D8069" points="233.576,125.903 235.197,115.981 233.86,117.401 229.406,122.151 		"/>
		<polygon fill="#7D8069" points="173.937,129.91 173.998,129.935 173.998,129.935 		"/>
		<g>
			<path fill="#C79F08" d="M198.596,134.049c0.363,0.366,0.028,0.09,0.438,0.375l2.729-1.925c-0.41-0.287-0.812-0.591-1.186-0.932
				c-3.945-3.608-2.931-11.705-0.346-16.145C193.472,120.873,193.827,129.247,198.596,134.049z"/>
			<g>
				<path fill="#C79F08" d="M231.504,138.582c-4.493,3.715-9.625,6.144-16.416,7.782c-1.47,0.355-2.929,0.594-4.348,0.732
					c-10.765,1.046-19.785-3.902-23.223-11.912c-0.412-0.961-0.745-1.964-0.989-3.001c-1.59-6.76-0.243-12.788,3.097-17.513
					c0.321-0.458,0.669-0.898,1.033-1.333c-0.159,0.134-0.324,0.266-0.48,0.406c-1.276,1.129-2.408,2.384-3.375,3.751
					c-3.344,4.727-4.691,10.75-3.1,17.516c0.246,1.038,0.578,2.036,0.985,2.99c3.441,8.013,12.459,12.966,23.225,11.918
					c1.424-0.141,2.875-0.374,4.353-0.733c6.789-1.634,11.918-4.064,16.414-7.787c1.102-0.905,2.164-1.891,3.202-2.963l-0.106-0.094
					C231.685,138.419,231.599,138.503,231.504,138.582z"/>
				<polygon fill="#C79F08" points="167.687,101.291 167.201,100.83 155.602,117.122 155.665,118.179 				"/>
				<polygon fill="#C79F08" points="232.376,118.801 232.337,119.024 233.86,117.401 235.197,115.981 233.576,125.903 
					231.521,124.051 230.754,128.729 226.585,124.974 231.038,120.226 				"/>
				<polygon fill="#C79F08" points="223.922,86.377 216.922,76.865 214.322,79.995 220.332,88.157 				"/>
				<path fill="#C79F08" d="M102.732,114.751c-1.897-4.39-5.187-7.832-9.484-10.245c-3.119-2.08-6.7-3.086-10.069-3.468
					c-9.557-1.676-21.476-0.096-33.983,5.221c-4.46,1.896-8.642,4.063-12.472,6.496l0.496,0.839c2.891-1.64,5.942-3.149,9.15-4.505
					c12.508-5.332,24.425-6.904,33.987-5.229c3.365,0.384,6.946,1.39,10.064,3.466c4.308,2.417,7.583,5.855,9.486,10.247
					c3.387,7.804,0.397,18.154-7.581,26.834C102.337,135.235,106.491,123.423,102.732,114.751z"/>
				<path fill="#C79F08" d="M143.417,140.215c-0.089-0.436-0.193-0.867-0.309-1.295c-1.113-3.939-3.455-7.067-6.542-9.164
					c-4.997-3.391-11.952-4.088-18.885-1.15c-3.651,1.568-6.833,3.992-9.34,6.906c1.932-1.658,4.119-3.05,6.515-4.079
					c6.931-2.939,13.892-2.246,18.883,1.143c3.091,2.1,5.433,5.228,6.544,9.171c0.118,0.422,0.22,0.856,0.312,1.291
					c0.309,1.502,0.434,3.03,0.38,4.56c-0.148,4.555-1.824,9.116-4.626,13.002c-0.435,0.601-0.911,1.184-1.397,1.751
					c1.585-1.364,3.011-2.906,4.22-4.577c2.802-3.884,4.479-8.448,4.63-12.994C143.853,143.244,143.728,141.713,143.417,140.215z"/>
				<path fill="#C79F08" d="M124.278,134.432c-0.032,0.041,2.817-2.833,2.784-2.835c-3.559-0.122-5.064,3.235-5.186,3.498
					C122.604,134.743,123.413,134.507,124.278,134.432z"/>
				<path fill="#C79F08" d="M130.981,138.538c0.144,0.469,0.23,0.967,0.23,1.479c0,0.748-0.169,1.455-0.466,2.106
					c0.565-0.277,4.677-2.282,3.077-6.52C133.92,135.744,130.887,138.532,130.981,138.538z"/>
				<path fill="#C79F08" d="M114.786,140.894c0-1.752,2.978-5.962,3.91-7.382c-4.708,2.998-6.734,7.039-6.734,10.205
					c0,5.476,4.786,9.852,10.513,9.852c2.718,0,7.673-1.435,10.91-6.694c-1.691,1.119-6.017,3.806-8.28,3.806
					C119.373,150.68,114.786,146.364,114.786,140.894z"/>
				<polygon fill="#C79F08" points="155.161,167.931 157.994,167.542 157.975,142.991 155.087,145.882 				"/>
				<polygon fill="#C79F08" points="152.887,122.033 155.649,118.156 154.477,98.081 134.979,103.883 135.075,105.839 
					151.653,100.902 				"/>
				<g>
					<polygon fill="#C79F08" points="170.022,98.005 167.687,101.291 181.405,114.165 184.062,111.364 					"/>
					<path fill="#C79F08" d="M192.019,148.998c-3.953-2.429-7.08-5.76-9.147-9.659l-18.389-7.276l-2.666,2.811l18.227,7.292
						c2.073,3.899,5.2,7.226,9.151,9.658c3.817,2.349,8.173,3.751,12.803,4.185v9.007l2.827,1.41v-13.239
						C200.189,152.752,195.832,151.348,192.019,148.998z"/>
				</g>
				<g>
					<path fill="#C79F08" d="M212.154,135.56c4.507-1.081,7.096-3.422,9.321-6.018c-1.679,1.383-3.726,2.526-6.493,3.194
						c-1.551,0.377-3.646,0.719-4.979,0.484l-2.772,2.957C208.498,136.281,210.607,135.932,212.154,135.56z"/>
					<path fill="#C79F08" d="M204.708,104.964c-4.545,1.099-8.561,3.153-11.703,5.952c-0.852,0.757-1.63,1.568-2.347,2.422
						c3.076-2.591,6.905-4.508,11.224-5.548c10.262-2.47,19.293,0.661,24.871,7.579l2.77-2.95
						C224.004,105.627,214.973,102.493,204.708,104.964z"/>
				</g>
				<path fill="#C79F08" d="M231.775,138.342c1.004-0.847,1.978-1.749,2.937-2.727l-2.375-2.133l-7.806-7.031
					c-0.851,1.007-1.749,1.981-2.781,2.863l7.762,6.986L231.775,138.342z"/>
				<path fill="#C79F08" d="M288.33,164.984c-0.574-0.242-1.143-0.507-1.699-0.798c-5.457-2.903-9.284-7.912-10.755-14.111
					c-1.911-8.015,0.854-16.76,6.581-23.276l-4.5-29.195h-10.816l-0.503,2.825h8.498l4.492,29.197
					c-5.72,6.515-8.49,15.26-6.579,23.273c1.478,6.197,5.301,11.208,10.754,14.108c0.559,0.296,1.125,0.556,1.705,0.798l0.067,0.449
					l3.34,0.51L288.33,164.984z"/>
				<polygon fill="#C79F08" points="260.063,124.39 262.889,121.527 259.113,100.901 243.974,100.901 243.498,103.727 
					256.289,103.727 				"/>
				<polygon fill="#C79F08" points="261.751,151.672 262.692,153.707 268.683,138.196 265.875,141.003 				"/>
				<polygon fill="#C79F08" points="250.775,137.128 247.724,156.382 250.034,156.784 253.616,134.283 				"/>
				<path fill="#C79F08" d="M311.079,128.124c1.675,1.2,3.094,2.716,4.189,4.509c0.834,1.378,1.48,2.922,1.885,4.614
					c1.396,5.815-0.277,12.058-3.948,17.092c-0.368,0.514-0.767,1.005-1.178,1.493c1.5-1.287,2.854-2.743,3.999-4.319
					c3.678-5.03,5.347-11.274,3.954-17.092c-0.41-1.689-1.053-3.229-1.893-4.612c-1.089-1.793-2.504-3.307-4.181-4.504
					c-4.609-3.3-11.113-4.167-17.726-1.68c-2.835,1.085-5.403,2.707-7.603,4.687c-0.809,0.729-1.548,1.518-2.252,2.335
					c2.065-1.755,4.435-3.203,7.024-4.193C299.964,123.955,306.472,124.831,311.079,128.124z"/>
				<path fill="#C79F08" d="M301.236,129.382c0.049,0.131,2.796-2.844,2.857-2.846c-3.473,0.139-5.146,1.811-4.973,2.602
					c-0.198,0.282-0.379,0.591-0.519,0.906C299.353,129.683,300.72,129.409,301.236,129.382z"/>
				<path fill="#C79F08" d="M307.769,133.755c0.125,0.481,0.187,0.976,0.168,1.489c-0.028,0.657-0.19,1.287-0.448,1.864
					c0.521-0.251,4.719-1.545,3.127-6.177C310.654,131.053,307.72,133.768,307.769,133.755z"/>
				<path fill="#C79F08" d="M298.532,148.489c3.938,0.154,8.279-2.271,11.397-6.545c-1.806,1.188-6.222,3.688-8.638,3.586
					c-5.729-0.231-10.136-4.729-9.911-10.195c0.059-1.6,2.138-5.051,2.983-6.351c-3.022,2.2-5.687,6.405-5.811,9.373
					C288.33,143.823,292.805,148.253,298.532,148.489z"/>
				<polygon fill="#C79F08" points="350.57,112.553 349.784,115.832 363.603,118.89 342.38,183.191 344.103,183.702 
					366.432,116.065 				"/>
				<polygon fill="#C79F08" points="340.566,145.179 343.406,142.314 336.375,109.111 315.536,104.923 315.351,108.278 
					333.556,111.938 				"/>
				<polygon fill="#C79F08" points="324.2,170.685 326.459,171.041 332.06,139.536 329.219,142.332 				"/>
				<polygon fill="#C79F08" points="84.398,150.199 81.278,152.386 89.174,181.969 92.645,181.39 				"/>
				<path fill="#C79F08" d="M90.709,134.657c-1.975,2.083-6.32,6.134-8.809,7.731l-1.502-4.834l-3.303-10.615l-2.1-7.179
					l-2.05,2.638l2.1,7.173l3.297,10.615l1.505,4.84C83.241,142.838,88.185,138.73,90.709,134.657z"/>
			</g>
		</g>
		<path fill="#7D8069" d="M211.384,116.396c-2.69-1.04-6.496-0.732-8.558,1.524c-0.477,0.522-1.389,1.842-1.687,2.452
			c1.979-1.583,5.532-1.921,7.844-1.089L211.384,116.396z"/>
		<path fill="#7D8069" d="M88.242,125.984c-0.297-1.603-1.846-2.858-2.613-3.214c-1.371-0.649-3.719-0.756-5.445-0.436
			c0.311,1.072,0.669,2.33,0.817,2.831c0.696,0.097,1.844,0.3,2.45,0.585c0.758,0.361,2.085,1.211,2.382,2.814
			c0.399,2.137,0.3,4.12-0.585,5.754C87.681,131.923,88.869,129.309,88.242,125.984z"/>
		
			<linearGradient id="SVGID_64_" gradientUnits="userSpaceOnUse" x1="-688.8179" y1="698.9795" x2="-689.788" y2="790.988" gradientTransform="matrix(1.1655 -0.0468 -0.0468 -1.1655 922.0361 958.5739)">
			<stop  offset="0" style="stop-color:#3B5AA6"/>
			<stop  offset="1" style="stop-color:#2A75BA"/>
		</linearGradient>
		<path fill="url(#SVGID_64_)" d="M92.514,125.936c-1.174-6.273-9.371-9.738-17.519-5.302l2.1,7.18l3.303,10.605l1.502,4.845
			C88.002,139.331,94.142,134.623,92.514,125.936z M84.44,135.579c-0.901-2.903-2.849-9.165-2.849-9.165
			c0.012,0.03-0.394-1.351-0.848-2.902c1.731-0.319,3.388-0.173,4.762,0.48c0.76,0.359,2.077,1.206,2.381,2.813
			C88.564,130.408,87.333,132.982,84.44,135.579z"/>
		
			<linearGradient id="SVGID_65_" gradientUnits="userSpaceOnUse" x1="-372.1304" y1="538.3828" x2="-373.1004" y2="630.38" gradientTransform="matrix(1.1074 -0.0346 -0.0346 -1.1074 639.4392 752.4899)">
			<stop  offset="0" style="stop-color:#3B5AA6"/>
			<stop  offset="1" style="stop-color:#2A75BA"/>
		</linearGradient>
		<path fill="url(#SVGID_65_)" d="M215.635,115.968c-4.546-4.161-11.607-3.845-15.769,0.698c-4.159,4.552-3.84,11.606,0.71,15.771
			c0.373,0.348,0.775,0.647,1.186,0.931l14.662-16.605C216.181,116.489,215.917,116.222,215.635,115.968z M201.786,127.66
			c-1.433-2.628-1.137-5.986,0.999-8.323c2.066-2.256,5.23-2.893,7.917-1.851L201.786,127.66z"/>
		<polygon fill="#1E2D60" points="235.235,114.145 227.13,121.988 234.847,128.918 		"/>
		<g>
			
				<linearGradient id="SVGID_66_" gradientUnits="userSpaceOnUse" x1="-456.1455" y1="459.5439" x2="-457.2975" y2="568.7984" gradientTransform="matrix(1.1664 0 0 -1.1664 734.0295 730.2227)">
				<stop  offset="0" style="stop-color:#3B5AA6"/>
				<stop  offset="1" style="stop-color:#2A75BA"/>
			</linearGradient>
			<path fill="url(#SVGID_66_)" d="M346.79,105.709l-2.585,10.646l-2.382-11.799l-31.958-7.029l0.237,17.76l4.805,1.072l-0.354,3.21
				c-0.049-0.022-0.098-0.049-0.143-0.075c-5.953-3.161-13.355-3.476-20.327-0.849c-2.327,0.889-4.497,2.081-6.475,3.49
				l-4.809-30.423h-21.252l-0.59,3.486h-22.363l-2.561,15.662l-1.859-2.288c-5.416-6.671-13.272-10.341-21.971-10.526l18.979-10.199
				l-13.237-19.767l-23.928,27.569l4.139,5.049c-3.758,1.528-7.021,3.625-9.716,6.174l-20.509-18.198l-7.188,13.749l0.28-13.203
				l-32.082,10.233l0.816,17.246l5.459-1.425l0.812,8.743c-6.229-2.799-13.717-2.746-20.673,0.202
				c-2.056,0.886-3.985,1.993-5.759,3.277c1.206-5.32,0.919-10.572-1.102-15.244c-2.399-5.522-6.609-10.091-11.773-12.976
				c-3.616-2.409-7.937-3.914-12.458-4.423c-11.09-1.946-24.418,0.056-37.532,5.63c-4.816,2.052-9.322,4.398-13.373,6.979
				l-5.131,3.263l3.094,5.229l9.607,16.229c0,0,2.95,4.983,2.965,4.979l5.203-2.55l0.719-0.348l23.866,53.293l2.299,5.123
				l5.346-1.708l12.923-4.134l5.661-1.812l-1.501-5.748l-6.86-26.354c1.984-1.458,3.82-3.008,5.519-4.636
				c-0.379,3.155-0.184,6.335,0.676,9.388c1.795,6.385,5.981,11.437,11.786,14.223c6.267,3.01,13.917,3.022,20.992,0.021
				c3.546-1.515,6.708-3.695,9.373-6.322l0.978,10.484l22.618-3.323l-0.028-20.295l47.275,23.381v-22.638
				c1.91-0.155,3.839-0.448,5.785-0.92c5.211-1.258,9.656-2.991,13.614-5.356l-1.989,12.145l25.491,4.018l1.414-9.183l6.654,12.303
				l4.062-7.84l1.479,12.87l28.906,5.1l-1.534-9.728c3.956,0.442,8.129-0.076,12.155-1.594c0.964-0.363,1.904-0.789,2.809-1.252
				l-1.162,10.358l19.235,2.694l0.16,7.889l20.045,6.304l26.123-78.708L346.79,105.709z M233.86,117.401l1.337-1.42l-1.621,9.923
				l-4.17-3.752L233.86,117.401z M216.922,76.865l7,9.512l-20.015,9.915l-1.378-2.091L216.922,76.865z M180.458,132.439
				l-6.521-2.529l6.074-5.895C179.751,126.73,179.886,129.559,180.458,132.439z M84.362,150.22l7.979,30.642l-12.925,4.133
				l-26.531-59.246c-1.436,0.754-4.097,2.026-6.556,3.24l-9.605-16.232c3.83-2.433,8.011-4.6,12.471-6.496
				c12.508-5.317,24.427-6.897,33.984-5.221c3.369,0.382,6.95,1.388,10.069,3.468c4.298,2.413,7.587,5.855,9.484,10.245
				C107.349,125.402,99.63,140.791,84.362,150.22z M139.17,157.773c-2.687,3.726-6.395,6.826-10.783,8.699
				c-11.22,4.755-22.435,0-25.431-10.636c-2.9-10.314,3.854-22.558,14.724-27.23c6.934-2.938,13.888-2.241,18.885,1.15
				c3.087,2.097,5.428,5.225,6.542,9.164c0.116,0.428,0.22,0.859,0.309,1.295c0.312,1.498,0.437,3.029,0.384,4.564
				C143.649,149.325,141.973,153.89,139.17,157.773z M204.824,166.425l-46.915-23.463l0.084,24.579l-12.136,1.666l-0.854-10.152
				c3.756-6.42,5.126-13.991,3.156-20.916c-1.067-3.811-3.046-7.141-5.743-9.785l-1.741-20.67l-5.458,1.423l-0.239-5.224
				l19.498-5.802l1.188,20.097l14.358-20.173l14.039,13.358l-19.617,20.684l18.427,7.292c2.067,3.899,5.194,7.23,9.147,9.659
				c3.813,2.35,8.17,3.754,12.806,4.188L204.824,166.425L204.824,166.425z M215.089,146.364c-1.471,0.355-2.93,0.594-4.349,0.732
				c-10.764,1.046-19.785-3.902-23.223-11.912c-0.412-0.961-0.745-1.964-0.989-3.001c-1.59-6.76-0.243-12.788,3.097-17.513
				c0.965-1.364,2.101-2.62,3.379-3.756c3.142-2.798,7.158-4.853,11.703-5.952c10.265-2.471,19.296,0.663,24.814,7.455
				l-19.532,20.803c1.333,0.241,3.438-0.107,4.993-0.484c4.654-1.123,7.265-3.584,9.549-6.286l7.805,7.031l2.376,2.133
				c-1.042,1.068-2.11,2.051-3.209,2.967C227.011,142.297,221.88,144.726,215.089,146.364z M288.915,168.766l-15.974-2.439
				l-4.239-28.151l-6.01,15.532l-9.002-19.404h-0.095l-3.562,22.481l-14.988-2.608l2.104-12.542c0.567-0.53,1.122-1.073,1.678-1.641
				l4.845-4.998l-4.701-4.236l5.004-29.857h15.139l3.779,20.665l4.25-23.961h10.816l4.5,29.195
				c-5.728,6.516-8.493,15.261-6.582,23.276c1.471,6.199,5.298,11.208,10.755,14.111c0.557,0.291,1.125,0.556,1.699,0.798
				L288.915,168.766z M304.901,160.072c-3.871,1.463-7.706,1.76-11.135,1.089c-2.379-0.473-4.564-1.405-6.453-2.761
				c-3.007-2.165-5.229-5.387-6.196-9.434c-1.155-4.843-0.096-10.036,2.506-14.552c1.3-2.244,2.979-4.324,4.955-6.106
				c2.199-1.979,4.768-3.601,7.604-4.687c6.611-2.487,13.116-1.621,17.726,1.68c1.677,1.197,3.092,2.71,4.18,4.504
				c0.84,1.383,1.482,2.922,1.894,4.612c1.392,5.818-0.277,12.062-3.954,17.092c-1.561,2.146-3.487,4.069-5.694,5.645
				C308.669,158.342,306.851,159.331,304.901,160.072z M344.103,183.702l-11.09-3.314l-0.968-40.883l-5.586,31.536l-12.104-1.924
				l0.866-9.091c7.902-6.676,12.097-17.198,9.807-26.743c-1.012-4.232-3.176-7.908-6.257-10.713l1.021-10.71l-4.574-1.224
				l0.318-5.714l20.838,4.188l7.019,33.246l7.177-29.803l15.861,3.512L344.103,183.702z"/>
			
				<linearGradient id="SVGID_67_" gradientUnits="userSpaceOnUse" x1="-370.5176" y1="499.6133" x2="-370.7249" y2="519.2812" gradientTransform="matrix(1.1664 0 0 -1.1664 734.0295 730.2227)">
				<stop  offset="0" style="stop-color:#3B5AA6"/>
				<stop  offset="1" style="stop-color:#2A75BA"/>
			</linearGradient>
			<path fill="url(#SVGID_67_)" d="M310.593,130.93c0.121,0.479,0.19,0.979,0.168,1.49c-0.127,3.095-3.049,5.493-6.528,5.352
				c-3.479-0.142-6.199-2.76-6.073-5.863c0.119-2.911,2.704-5.199,5.901-5.351c-0.611-0.128-1.246-0.222-1.898-0.248
				c-5.816-0.232-10.57,3.884-10.78,9.025c-0.225,5.466,4.183,9.963,9.911,10.195c5.817,0.238,10.571-3.884,10.793-9.355
				C312.163,134.279,311.611,132.472,310.593,130.93z"/>
			
				<linearGradient id="SVGID_68_" gradientUnits="userSpaceOnUse" x1="-521.9136" y1="495.3955" x2="-522.117" y2="514.687" gradientTransform="matrix(1.1664 0 0 -1.1664 734.0295 730.2227)">
				<stop  offset="0" style="stop-color:#3B5AA6"/>
				<stop  offset="1" style="stop-color:#2A75BA"/>
			</linearGradient>
			<path fill="url(#SVGID_68_)" d="M134.033,137.195c0,3.098-2.821,5.608-6.308,5.608c-3.482,0-6.306-2.511-6.306-5.608
				c0-2.916,2.492-5.304,5.683-5.587c-0.619-0.106-1.253-0.169-1.909-0.169c-5.82,0-10.406,4.313-10.406,9.455
				c0,5.471,4.586,9.786,10.318,9.786c5.825,0,10.408-4.315,10.408-9.786c0-1.901-0.634-3.682-1.706-5.179
				C133.946,136.188,134.033,136.678,134.033,137.195z"/>
		</g>
	</g>
</g>
</svg>
