<?xml version="1.0" encoding="utf-8"?>
<!-- Generator: Adobe Illustrator 19.2.1, SVG Export Plug-In . SVG Version: 6.00 Build 0)  -->
<!DOCTYPE svg PUBLIC "-//W3C//DTD SVG 1.1//EN" "http://www.w3.org/Graphics/SVG/1.1/DTD/svg11.dtd">
<svg version="1.1" id="Layer_1" xmlns="http://www.w3.org/2000/svg" xmlns:xlink="http://www.w3.org/1999/xlink" x="0px" y="0px"
	 viewBox="0 0 500 500" style="enable-background:new 0 0 500 500;" xml:space="preserve">
<style type="text/css">
	.st0{fill:none;}
	.st1{fill:#2C72B8;}
	.st2{fill:#FFFFFF;}
	.st3{fill:#C1C2C4;}
	.st4{fill:#E6E7E7;}
	.st5{fill:#F5F8FA;}
	.st6{opacity:5.000000e-02;fill:url(#SVGID_1_);}
	.st7{fill:#0071CE;}
</style>
<pattern  y="500" width="571.8" height="370.4" patternUnits="userSpaceOnUse" id="New_Pattern_5" viewBox="0 -370.4 571.8 370.4" style="overflow:visible;">
	<g>
		<rect x="0" y="-370.4" class="st0" width="571.8" height="370.4"/>
		<g>
			<path class="st1" d="M306.6-226.1c1,1,1.2,4,1.2,6c0,2.1-0.2,8-0.5,10.6c-0.3,2.5-0.4,6.2-3,7.1c-0.3,0.1-0.7,0.2-1,0.2
				c-1,0-2.1-0.5-3.1-1.5c-0.5-0.5-0.8-0.9-0.9-1l-1.2-1.9l-7.1,10.7c-0.2,0.3-1.9,2.8-4,2.8l0,0c-1.8,0-3.3-1.3-3.5-1.6l-4.2-4.1
				l0,0l0,0l-4.1-4.2c-0.3-0.3-1.6-1.7-1.6-3.5c0-2,2.6-3.8,2.8-4l10.7-7.1l-1.9-1.2c-0.1-0.1-0.6-0.4-1-0.9c-1.3-1.3-1.8-2.7-1.3-4
				c0.9-2.6,4.6-2.7,7.1-3c2.5-0.3,8.5-0.5,10.6-0.5l0.2,0C302.7-227.3,305.6-227.1,306.6-226.1z M306.5-220.1
				c0-2.9-0.4-4.6-0.8-5.1c-0.4-0.4-2.2-0.8-4.9-0.8l-0.1,0c-2,0-8,0.2-10.4,0.5c-0.2,0-0.5,0-0.7,0.1c-2.1,0.2-4.8,0.5-5.3,2.1
				c-0.4,1.1,0.5,2.2,1,2.7c0.4,0.4,0.8,0.7,0.8,0.7l1.8,1.2l1.6,1.1l-1.6,1.1l-10.7,7.1c-0.9,0.6-2.3,1.9-2.3,2.9
				c0,1.4,1.1,2.5,1.2,2.6l4.1,4.2l0,0l0,0l4.2,4.1c0.1,0.1,1.3,1.2,2.6,1.2c1,0,2.3-1.4,2.9-2.3l7.1-10.7l1.1-1.6l1.1,1.6l1.2,1.9
				c0,0.1,0.3,0.4,0.7,0.8c0.7,0.7,1.5,1.1,2.1,1.1c0.2,0,0.4,0,0.6-0.1c1.6-0.5,1.8-3.2,2.1-5.3c0-0.2,0-0.5,0.1-0.7
				C306.3-212.1,306.5-218.1,306.5-220.1z"/>
			<path class="st1" d="M288.1-221.4c0,0,6.9,3.1,7.2,3.3l-17.2,11.4c-1,0.7-0.8,0.9-0.2,1.6l7.5,7.5c0.7,0.7,0.9,0.9,1.6-0.1
				l11.5-17.1c0.2,0.3,3.3,7.2,3.3,7.2c0.6,1.1,1.4,0.6,1.4-0.5s0.4-15,0.4-15s-13.8,0.3-15,0.3C287.5-222.8,287-221.9,288.1-221.4z
				"/>
		</g>
		<path class="st1" d="M16.8-333.6c0,1.5,0.9,2.1,2.3,1.5l19.6-8.7c1.1-0.4,1.6-1.2,1.6-2.4v-0.6c0-1.2-0.5-1.9-1.6-2.4l-19.6-8.7
			c-1.4-0.6-2.3,0-2.3,1.5v1.1c0,1.2,0.5,1.9,1.6,2.3l15.3,6.3v0.1l-15.3,6.4c-1.1,0.4-1.6,1.2-1.6,2.3V-333.6z"/>
		<g>
			<path class="st1" d="M561.8-43.8c1,1,1.2,4,1.2,6c0,2.1-0.2,8-0.5,10.6c-0.3,2.5-0.4,6.2-3,7.1c-0.3,0.1-0.7,0.2-1,0.2
				c-1,0-2.1-0.5-3.1-1.5c-0.5-0.5-0.8-0.9-0.9-1l-1.2-1.9l-7.1,10.7c-0.2,0.3-1.9,2.8-4,2.8l0,0c-1.8,0-3.3-1.3-3.5-1.6l-4.2-4.1
				l0,0l0,0l-4.1-4.2c-0.3-0.3-1.6-1.7-1.6-3.5c0-2,2.6-3.8,2.8-4l10.7-7.1l-1.9-1.2c-0.1-0.1-0.6-0.4-1-0.9c-1.3-1.3-1.8-2.7-1.3-4
				c0.9-2.6,4.6-2.7,7.1-3c2.5-0.3,8.5-0.5,10.6-0.5l0.2,0C557.9-45.1,560.8-44.8,561.8-43.8z M561.7-37.8c0-2.9-0.4-4.6-0.8-5.1
				c-0.4-0.4-2.2-0.8-4.9-0.8l-0.1,0c-2,0-8,0.2-10.4,0.5c-0.2,0-0.5,0-0.7,0.1c-2.1,0.2-4.8,0.5-5.3,2.1c-0.4,1.1,0.5,2.2,1,2.7
				c0.4,0.4,0.8,0.7,0.8,0.7l1.8,1.2l1.6,1.1l-1.6,1.1l-10.7,7.1c-0.9,0.6-2.3,1.9-2.3,2.9c0,1.4,1.1,2.5,1.2,2.6l4.1,4.2l0,0l0,0
				l4.2,4.1c0.1,0.1,1.3,1.2,2.6,1.2c1,0,2.3-1.4,2.9-2.3l7.1-10.7l1.1-1.6l1.1,1.6l1.2,1.9c0,0.1,0.3,0.4,0.7,0.8
				c0.7,0.7,1.5,1.1,2.1,1.1c0.2,0,0.4,0,0.6-0.1c1.6-0.5,1.8-3.2,2.1-5.3c0-0.2,0-0.5,0.1-0.7C561.5-29.9,561.7-35.9,561.7-37.8z"
				/>
			<path class="st1" d="M543.3-39.1c0,0,6.9,3.1,7.2,3.3l-17.2,11.4c-1,0.7-0.8,0.9-0.2,1.6l7.5,7.5c0.7,0.7,0.9,0.9,1.6-0.1
				l11.5-17.1c0.2,0.3,3.3,7.2,3.3,7.2c0.6,1.1,1.4,0.6,1.4-0.5c0-1.1,0.4-15,0.4-15s-13.8,0.3-15,0.3
				C542.7-40.5,542.2-39.7,543.3-39.1z"/>
		</g>
		<g>
			<path class="st1" d="M362.5-232.1h-28c-1,0-1.9-0.5-2.5-1.4c-0.5-0.8-0.6-1.9-0.2-2.8l0,0l11.8-23.3v-7.9c0-1.2,0.9-2.1,2.1-2.1
				h5.5c1.2,0,2.1,0.9,2.1,2.1v7.9l11.8,23.3l0,0c0.4,0.9,0.4,2-0.2,2.8C364.4-232.6,363.5-232.1,362.5-232.1z M333.7-235.3
				c-0.2,0.4,0,0.7,0,0.8c0.1,0.1,0.3,0.4,0.7,0.4h28c0.4,0,0.6-0.3,0.7-0.4c0.1-0.1,0.2-0.4,0-0.8l-11.9-23.5
				c-0.1-0.1-0.1-0.3-0.1-0.5v-8.1l0,0h-5.5l0,0v8.1c0,0.2,0,0.3-0.1,0.5L333.7-235.3z"/>
			<path class="st1" d="M359.9-236.8c0.3-0.5,0.3-1.1,0.1-1.6l-6.1-12c-0.2-0.4-0.5-0.6-0.9-0.6h-8.6c-0.4,0-0.8,0.2-0.9,0.6
				l-6.5,13c-0.2,0.3-0.1,0.7,0,1c0.2,0.3,0.5,0.5,0.9,0.5h20.6C359-236,359.5-236.3,359.9-236.8z"/>
			<polygon class="st1" points="345,-249 352.3,-249 357.8,-238.1 339.5,-238.1 			"/>
		</g>
		<g>
			<path class="st1" d="M140.7-324.7h-28c-1,0-1.9-0.5-2.5-1.4c-0.5-0.8-0.6-1.9-0.2-2.8l0,0l11.8-23.3v-7.9c0-1.2,0.9-2.1,2.1-2.1
				h5.5c1.2,0,2.1,0.9,2.1,2.1v7.9l11.8,23.3l0,0c0.4,0.9,0.4,2-0.2,2.8C142.6-325.3,141.7-324.7,140.7-324.7z M111.9-328
				c-0.2,0.4,0,0.7,0,0.8c0.1,0.1,0.3,0.4,0.7,0.4h28c0.4,0,0.6-0.3,0.7-0.4c0.1-0.1,0.2-0.4,0-0.8l-11.9-23.5
				c-0.1-0.1-0.1-0.3-0.1-0.5v-8.1l0,0h-5.5l0,0v8.1c0,0.2,0,0.3-0.1,0.5L111.9-328z"/>
			<path class="st1" d="M138.1-329.5c0.3-0.5,0.3-1.1,0.1-1.6l-6.1-12c-0.2-0.4-0.5-0.6-0.9-0.6h-8.6c-0.4,0-0.8,0.2-0.9,0.6
				l-6.5,13c-0.2,0.3-0.1,0.7,0,1c0.2,0.3,0.5,0.5,0.9,0.5h20.6C137.3-328.7,137.8-329,138.1-329.5z"/>
			<polygon class="st1" points="123.3,-341.7 130.6,-341.7 136,-330.8 117.8,-330.8 			"/>
		</g>
		<g>
			<path class="st1" d="M295.4-7.4c-2.6,0-4.7-2.1-4.7-4.7v-35.4c0-0.6,0.5-1,1-1h7.4c0.6,0,1,0.5,1,1v35.4
				C300.1-9.5,298-7.4,295.4-7.4z M292.7-46.5v34.4c0,1.5,1.2,2.7,2.7,2.7c1.5,0,2.7-1.2,2.7-2.7v-34.4H292.7z"/>
			<path class="st1" d="M293.7-34.7v22.3c0,0.9,0.8,1.6,1.7,1.6c0.9,0,1.7-0.7,1.7-1.6v-22.3H293.7z"/>
		</g>
		<g>
			<line class="st1" x1="535.8" y1="-125.9" x2="556" y2="-105.7"/>
			<path class="st1" d="M556-102.2c-0.9,0-1.8-0.3-2.4-1l-20.2-20.2c-1.3-1.3-1.3-3.5,0-4.9c1.3-1.3,3.5-1.3,4.9,0l20.2,20.2
				c1.3,1.3,1.3,3.5,0,4.9C557.8-102.6,556.9-102.2,556-102.2z"/>
			<line class="st1" x1="535.8" y1="-105.7" x2="556" y2="-125.9"/>
			<path class="st1" d="M535.8-102.2c-0.9,0-1.8-0.3-2.4-1c-1.3-1.3-1.3-3.5,0-4.9l20.2-20.2c1.3-1.3,3.5-1.3,4.9,0
				c1.3,1.3,1.3,3.5,0,4.9l-20.2,20.2C537.6-102.6,536.7-102.2,535.8-102.2z"/>
		</g>
		<g>
			<line class="st1" x1="28.5" y1="-178.7" x2="28.5" y2="-155.1"/>
			<path class="st1" d="M28.5-151.7c-1.9,0-3.4-1.5-3.4-3.4v-23.7c0-1.9,1.5-3.4,3.4-3.4c1.9,0,3.4,1.5,3.4,3.4v23.7
				C31.9-153.2,30.4-151.7,28.5-151.7z"/>
			<line class="st1" x1="16.7" y1="-166.9" x2="40.3" y2="-166.9"/>
			<path class="st1" d="M40.6-163.5H16.9c-1.9,0-3.4-1.5-3.4-3.4s1.5-3.4,3.4-3.4h23.7c1.9,0,3.4,1.5,3.4,3.4S42.4-163.5,40.6-163.5
				z"/>
		</g>
		<line class="st1" x1="68.3" y1="-299.9" x2="89.4" y2="-299.9"/>
		<path class="st1" d="M89.4-296.6H68.3c-1.9,0-3.4-1.5-3.4-3.4c0-1.9,1.5-3.4,3.4-3.4h21.1c1.9,0,3.4,1.5,3.4,3.4
			C92.7-298.1,91.2-296.6,89.4-296.6z"/>
		<line class="st1" x1="78.8" y1="-299.9" x2="78.8" y2="-299.9"/>
		<path class="st1" d="M78.8-296.5c-0.9,0-1.8-0.4-2.4-1c-0.6-0.6-1-1.5-1-2.4c0-0.9,0.4-1.8,1-2.4c0.6-0.6,1.5-1,2.4-1
			c0.9,0,1.8,0.4,2.4,1c0.6,0.6,1,1.5,1,2.4c0,0.9-0.4,1.8-1,2.4C80.6-296.9,79.7-296.5,78.8-296.5z"/>
		<line class="st1" x1="78.8" y1="-299.9" x2="78.8" y2="-299.9"/>
		<path class="st1" d="M78.8-296.5c-0.9,0-1.8-0.4-2.4-1c-0.6-0.6-1-1.5-1-2.4c0-0.9,0.4-1.8,1-2.4c0.6-0.6,1.5-1,2.4-1
			c0.9,0,1.8,0.4,2.4,1c0.6,0.6,1,1.5,1,2.4c0,0.9-0.4,1.8-1,2.4C80.6-296.9,79.7-296.5,78.8-296.5z"/>
		<g>
			<path class="st1" d="M40.8-60.2v-29.2c0-0.6-0.5-1.1-1.1-1.1h-25c-0.6,0-1.1,0.5-1.1,1.1v29.2c0,0.6,0.5,1.1,1.1,1.1h25
				C40.3-59.1,40.8-59.6,40.8-60.2z M15.8-88.3h22.8v27H15.8V-88.3z"/>
			<path class="st1" d="M34.2-82H19.7c-0.6,0-1.1-0.5-1.1-1.1c0-0.6,0.5-1.1,1.1-1.1h14.4c0.6,0,1.1,0.5,1.1,1.1
				C35.3-82.5,34.8-82,34.2-82z"/>
			<path class="st1" d="M32.7-76.5H19.7c-0.6,0-1.1-0.5-1.1-1.1c0-0.6,0.5-1.1,1.1-1.1h12.9c0.6,0,1.1,0.5,1.1,1.1
				C33.8-77,33.3-76.5,32.7-76.5z"/>
			<path class="st1" d="M34.2-71.1H19.7c-0.6,0-1.1-0.5-1.1-1.1c0-0.6,0.5-1.1,1.1-1.1h14.4c0.6,0,1.1,0.5,1.1,1.1
				C35.3-71.6,34.8-71.1,34.2-71.1z"/>
			<path class="st1" d="M33.4-65.6H19.7c-0.6,0-1.1-0.5-1.1-1.1s0.5-1.1,1.1-1.1h13.7c0.6,0,1.1,0.5,1.1,1.1S34-65.6,33.4-65.6z"/>
		</g>
		<g>
			<path class="st1" d="M367.7-329.5c0.4-0.3,0.6-0.8,0.5-1.2c-0.1-0.5-0.6-0.8-1.1-0.8c-1.3,0-3.2-0.3-5.1-1.6
				c-0.5-0.3-0.9-0.7-1.3-1.1c1.2-0.5,2.4-1.3,3.3-2.3c1.3-1.5,2-3.4,2-5.4v-9c0-4.6-3.7-8.3-8.3-8.3H337c-4.6,0-8.3,3.7-8.3,8.3v9
				c0,4.6,3.7,8.3,8.3,8.3h12c1.2,1.7,4,4.9,8.8,5.9c0.9,0.2,1.8,0.3,2.7,0.3h0C363.9-327.5,366.5-328.8,367.7-329.5z M357.7-357.2
				c3.4,0,6.1,2.8,6.1,6.1v9c0,3-2.2,5.6-5.2,6.1c-0.4,0.1-0.7,0.3-0.8,0.6c-0.1,0.3-0.1,0.7,0.1,1.1c0.8,1.1,1.7,2.1,2.8,2.9
				c0.8,0.6,1.7,1,2.5,1.3c-0.8,0.2-1.8,0.3-2.8,0.3c-0.8,0-1.5-0.1-2.3-0.2c-4.6-0.9-7-4.4-7.7-5.4c-0.2-0.3-0.6-0.5-0.9-0.5H337
				c-3.4,0-6.1-2.8-6.1-6.1v-9c0-3.4,2.8-6.1,6.1-6.1H357.7z"/>
			<path class="st1" d="M356.2-350.7h-17.7c-0.6,0-1.1-0.5-1.1-1.1c0-0.6,0.5-1.1,1.1-1.1h17.7c0.6,0,1.1,0.5,1.1,1.1
				C357.3-351.2,356.8-350.7,356.2-350.7z"/>
			<path class="st1" d="M354.4-345.3h-15.9c-0.6,0-1.1-0.5-1.1-1.1c0-0.6,0.5-1.1,1.1-1.1h15.9c0.6,0,1.1,0.5,1.1,1.1
				C355.5-345.8,355-345.3,354.4-345.3z"/>
			<path class="st1" d="M351-340h-12.5c-0.6,0-1.1-0.5-1.1-1.1c0-0.6,0.5-1.1,1.1-1.1H351c0.6,0,1.1,0.5,1.1,1.1
				C352.1-340.4,351.6-340,351-340z"/>
		</g>
		<path class="st1" d="M170.8-212.8h19.8c1.3,0,2.1-0.7,2.1-2.1v-0.7c0-1.3-0.7-2-2.1-2h-19.8c-1.3,0-2,0.7-2,2v0.7
			C168.8-213.5,169.5-212.8,170.8-212.8z M170.8-202.8h19.8c1.3,0,2.1-0.7,2.1-2v-0.7c0-1.4-0.7-2.1-2.1-2.1h-19.8
			c-1.3,0-2,0.7-2,2.1v0.7C168.8-203.5,169.5-202.8,170.8-202.8z"/>
		<path class="st1" d="M134.1-267.3l-10.2,26.6l-6.1-9.3c-0.5-0.7-1.2-1.1-2.1-1.2c-0.8,0-1.6,0.4-2.1,1.1l-4.2,5.9
			c-0.8,1.1-0.5,2.7,0.6,3.5c1.1,0.8,2.7,0.5,3.5-0.6l2-2.8l6.7,10.4c0.5,0.8,1.4,1.2,2.4,1.1c0.9-0.1,1.8-0.7,2.1-1.6l11.9-31.2
			c0.5-1.3-0.2-2.8-1.5-3.3S134.6-268.6,134.1-267.3L134.1-267.3z"/>
		<g>
			<path class="st1" d="M240.2-328.8l0.9-0.9l-9.7-9.7l19.2-19.2l8.8,8.8l-20.2,20.2L240.2-328.8l0.9-0.9L240.2-328.8l0.9,0.9
				l21.1-21.1c0.2-0.2,0.4-0.6,0.4-0.9s-0.1-0.7-0.4-0.9l-10.6-10.6c-0.2-0.2-0.6-0.4-0.9-0.4c-0.3,0-0.7,0.1-0.9,0.4l-21.1,21.1
				c-0.5,0.5-0.5,1.3,0,1.8l10.6,10.6c0.2,0.2,0.6,0.4,0.9,0.4s0.7-0.1,0.9-0.4L240.2-328.8z"/>
			<path class="st1" d="M240.2-328.8l0.9-0.9l-10.6-10.6c-0.3-0.3-0.8-0.5-1.3-0.3c-0.5,0.1-0.8,0.5-0.9,1l-2.4,13
				c-0.1,0.4,0.1,0.8,0.4,1.1c0.3,0.3,0.7,0.4,1.1,0.4l13-2.4c0.5-0.1,0.9-0.4,1-0.9c0.1-0.5,0-1-0.3-1.3L240.2-328.8l-0.2-1.3
				l-11.2,2.1l1.6-8.8l8.9,8.9L240.2-328.8l-0.2-1.3L240.2-328.8z"/>
			<polygon class="st1" points="234.1,-327.7 228.4,-333.4 227.2,-326.4 			"/>
		</g>
		<g>
			<circle class="st1" cx="536.9" cy="-217" r="5.6"/>
			<circle class="st1" cx="554.9" cy="-203.3" r="5.6"/>
			<path class="st1" d="M541.2-196.5l13.9-24.9c0.7-1.2,0.2-2.8-1-3.4c-1.2-0.7-2.8-0.2-3.4,1L536.7-199c-0.7,1.2-0.2,2.8,1,3.4
				C538.9-194.9,540.5-195.3,541.2-196.5"/>
		</g>
		<path class="st1" d="M503.9-346.9c0,8.6-15.6,22.4-15.6,22.4s-15.6-13.8-15.6-22.4c0-8.6,7-15.6,15.6-15.6
			C496.9-362.4,503.9-355.5,503.9-346.9z M493.2-349.8c0-2.7-2.2-4.9-4.9-4.9s-4.9,2.2-4.9,4.9c0,2.7,2.2,4.9,4.9,4.9
			S493.2-347.1,493.2-349.8z"/>
		<g>
			<path class="st1" d="M199.3-96.8v-1.3h-35.9l0-19.8h-1.3l1.1,0.7l-0.6-0.4l0.6,0.4l0,0l-0.6-0.4l0.6,0.4l0-0.1
				c0.2-0.3,1.5-1.9,4.2-3.4c2.7-1.5,6.8-2.9,13-2.9c6.7,0,11.1,1.7,13.9,3.3c1.4,0.8,2.4,1.6,3,2.2c0.3,0.3,0.5,0.5,0.7,0.7
				c0.1,0.1,0.1,0.1,0.1,0.2l0,0l0,0l0,0l0,0l0,0l0,0l1-0.7H198v21.1H199.3v-1.3V-96.8h1.3v-21.1c0-0.3-0.1-0.5-0.2-0.7
				c-0.1-0.1-1.5-2-4.6-3.9c-3.2-1.9-8.1-3.7-15.2-3.7c-7.1,0-11.9,1.8-15,3.7c-3,1.9-4.3,3.8-4.4,3.9c-0.1,0.2-0.2,0.4-0.2,0.7
				v21.1c0,0.3,0.1,0.7,0.4,0.9c0.2,0.2,0.6,0.4,0.9,0.4h37.1c0.3,0,0.7-0.1,0.9-0.4c0.2-0.2,0.4-0.6,0.4-0.9H199.3z"/>
			<path class="st1" d="M161.2-117.1c0.1,0.1,1.5,1.8,4.6,3.4c3.1,1.6,8,3.2,14.9,3.2c6.9,0,11.8-1.6,14.9-3.2
				c3.1-1.6,4.5-3.3,4.6-3.4c0.4-0.5,0.4-1.3-0.2-1.8c-0.5-0.4-1.3-0.4-1.8,0.2l0.5,0.4l-0.5-0.4l0,0l0.5,0.4l-0.5-0.4l-0.1,0.1
				c-0.3,0.3-1.6,1.7-4.4,3c-2.8,1.3-7,2.6-13.1,2.6c-6.6,0-11-1.5-13.8-2.9c-1.4-0.7-2.4-1.4-3-2c-0.3-0.3-0.5-0.5-0.7-0.6
				c-0.1-0.1-0.1-0.1-0.1-0.2l0,0l0,0l-0.5,0.4l0.5-0.4l0,0l-0.5,0.4l0.5-0.4c-0.4-0.5-1.2-0.6-1.8-0.2
				C160.8-118.5,160.7-117.7,161.2-117.1L161.2-117.1z"/>
			<line class="st2" x1="162.2" y1="-106.8" x2="199.3" y2="-106.8"/>
			<path class="st1" d="M162.2-105.6h37.1c0.7,0,1.3-0.6,1.3-1.3c0-0.7-0.6-1.3-1.3-1.3h-37.1c-0.7,0-1.3,0.6-1.3,1.3
				C160.9-106.1,161.5-105.6,162.2-105.6"/>
			<rect x="169.1" y="-103.2" class="st1" width="4.6" height="6.4"/>
			<rect x="178.4" y="-103.2" class="st1" width="4.6" height="6.4"/>
			<rect x="187.7" y="-103.2" class="st1" width="4.6" height="6.4"/>
			<path class="st1" d="M179.2-134.7v14.8c0,0.7,0.6,1.3,1.3,1.3c0.7,0,1.3-0.6,1.3-1.3v-14.8c0-0.7-0.6-1.3-1.3-1.3
				C179.8-136,179.2-135.4,179.2-134.7"/>
			<polygon class="st1" points="180.5,-134.6 184.6,-132.7 180.5,-130.5 			"/>
			<path class="st1" d="M180.5-134.6l-0.3,0.6l2.8,1.3l-1.9,1l0-3L180.5-134.6l-0.3,0.6L180.5-134.6l-0.7,0l-0.1,4.1
				c0,0.2,0.1,0.5,0.3,0.6c0.2,0.1,0.5,0.1,0.7,0l4.1-2.2c0.2-0.1,0.4-0.4,0.4-0.6c0-0.3-0.2-0.5-0.4-0.6l-4.1-1.9
				c-0.2-0.1-0.5-0.1-0.7,0c-0.2,0.1-0.3,0.3-0.3,0.6L180.5-134.6z"/>
			<path class="st1" d="M191.3-119.9v-10.8c0-0.7-0.6-1.3-1.3-1.3c-0.7,0-1.3,0.6-1.3,1.3v10.8c0,0.7,0.6,1.3,1.3,1.3
				C190.7-118.7,191.3-119.3,191.3-119.9"/>
			<polygon class="st1" points="190.1,-130.6 194.1,-128.7 190,-126.5 			"/>
			<path class="st1" d="M190.1-130.6l-0.3,0.6l2.8,1.3l-1.9,1l0-3L190.1-130.6l-0.3,0.6L190.1-130.6l-0.7,0l-0.1,4.1
				c0,0.2,0.1,0.5,0.3,0.6c0.2,0.1,0.5,0.1,0.7,0l4.1-2.2c0.2-0.1,0.4-0.4,0.4-0.6c0-0.3-0.2-0.5-0.4-0.6l-4.1-1.9
				c-0.2-0.1-0.5-0.1-0.7,0c-0.2,0.1-0.3,0.3-0.3,0.6L190.1-130.6z"/>
			<path class="st1" d="M171.4-119.9v-10.8c0-0.7-0.6-1.3-1.3-1.3c-0.7,0-1.3,0.6-1.3,1.3v10.8c0,0.7,0.6,1.3,1.3,1.3
				C170.8-118.7,171.4-119.3,171.4-119.9"/>
			<polygon class="st1" points="170.2,-130.6 174.3,-128.7 170.1,-126.5 			"/>
			<path class="st1" d="M170.2-130.6l-0.3,0.6l2.8,1.3l-1.9,1l0-3L170.2-130.6l-0.3,0.6L170.2-130.6l-0.7,0l-0.1,4.1
				c0,0.2,0.1,0.5,0.3,0.6c0.2,0.1,0.5,0.1,0.7,0l4.1-2.2c0.2-0.1,0.4-0.4,0.4-0.6c0-0.3-0.2-0.5-0.4-0.6l-4.1-1.9
				c-0.2-0.1-0.5-0.1-0.7,0c-0.2,0.1-0.3,0.3-0.3,0.6L170.2-130.6z"/>
		</g>
		<g>
			<path class="st1" d="M73.1-199.9v1.6h11.4c0.8,0,1.5-0.6,1.5-1.4c0.1-0.7,0.3-1.5,0.6-2.3c0.3-0.8,0.8-1.7,1.3-2.7
				c0.6-1.2,1.3-2.5,1.8-3.9c0.5-1.4,0.9-2.9,0.9-4.6v0c0-6.5-5.3-11.8-11.8-11.8c-6.5,0-11.8,5.3-11.8,11.8c0,1.7,0.4,3.2,0.9,4.6
				c0.5,1.4,1.2,2.7,1.8,3.9l0,0c0.5,1,1,1.9,1.3,2.7c0.3,0.8,0.6,1.6,0.6,2.3c0.1,0.8,0.7,1.4,1.5,1.4V-199.9l1.5-0.1
				c-0.1-1.1-0.4-2.2-0.8-3.2c-0.4-1-0.9-2-1.4-3l0,0c-0.6-1.2-1.2-2.4-1.6-3.5c-0.4-1.2-0.7-2.3-0.7-3.5c0-2.4,1-4.6,2.6-6.2
				c1.6-1.6,3.8-2.6,6.2-2.6c2.4,0,4.6,1,6.2,2.6c1.6,1.6,2.6,3.8,2.6,6.2v0c0,1.2-0.3,2.3-0.7,3.5c-0.4,1.2-1,2.3-1.6,3.5
				c-0.5,1-1,1.9-1.4,2.9c-0.4,1-0.7,2.1-0.8,3.2l1.5,0.1v-1.6H73.1V-199.9l1.5-0.1L73.1-199.9z"/>
			<line class="st2" x1="74.6" y1="-195.4" x2="82.8" y2="-195.4"/>
			<path class="st1" d="M74.6-193.9h8.2c0.9,0,1.6-0.7,1.6-1.6s-0.7-1.6-1.6-1.6h-8.2c-0.9,0-1.6,0.7-1.6,1.6S73.8-193.9,74.6-193.9
				"/>
			<line class="st2" x1="74.6" y1="-191.5" x2="82.8" y2="-191.5"/>
			<path class="st1" d="M74.6-190h8.2c0.9,0,1.6-0.7,1.6-1.6c0-0.9-0.7-1.6-1.6-1.6h-8.2c-0.9,0-1.6,0.7-1.6,1.6
				C73.1-190.6,73.8-190,74.6-190"/>
			<line class="st2" x1="74.6" y1="-187.6" x2="82.8" y2="-187.6"/>
			<path class="st1" d="M74.6-186h8.2c0.9,0,1.6-0.7,1.6-1.6c0-0.9-0.7-1.6-1.6-1.6h-8.2c-0.9,0-1.6,0.7-1.6,1.6
				C73.1-186.7,73.8-186,74.6-186"/>
			<polyline class="st2" points="80,-213 77.7,-207.6 81.3,-207.6 78.3,-200.4 			"/>
			<path class="st1" d="M78.6-213.6l-2.3,5.5c-0.2,0.5-0.1,1,0.1,1.5s0.8,0.7,1.3,0.7h1.2l-2.1,5c-0.3,0.8,0,1.7,0.8,2
				c0.8,0.3,1.7,0,2-0.8l3-7.2c0.2-0.5,0.1-1-0.1-1.5c-0.3-0.4-0.8-0.7-1.3-0.7h-1.2l1.4-3.3c0.3-0.8,0-1.7-0.8-2
				C79.8-214.8,78.9-214.4,78.6-213.6L78.6-213.6z"/>
			<line class="st2" x1="94.8" y1="-211.6" x2="98.7" y2="-211.6"/>
			<path class="st1" d="M94.8-210h4c0.9,0,1.6-0.7,1.6-1.6c0-0.9-0.7-1.6-1.6-1.6h-4c-0.9,0-1.6,0.7-1.6,1.6
				C93.2-210.7,93.9-210,94.8-210"/>
			<line class="st2" x1="62.9" y1="-211.6" x2="58.9" y2="-211.6"/>
			<path class="st1" d="M62.9-213.1h-4c-0.9,0-1.6,0.7-1.6,1.6c0,0.9,0.7,1.6,1.6,1.6h4c0.9,0,1.6-0.7,1.6-1.6
				C64.4-212.4,63.7-213.1,62.9-213.1"/>
			<line class="st2" x1="64" y1="-226.6" x2="66.9" y2="-223.7"/>
			<path class="st1" d="M62.9-225.5l2.9,2.9c0.6,0.6,1.6,0.6,2.2,0c0.6-0.6,0.6-1.6,0-2.2l-2.9-2.9c-0.6-0.6-1.6-0.6-2.2,0
				C62.3-227.1,62.3-226.1,62.9-225.5"/>
			<line class="st2" x1="93.6" y1="-226.6" x2="90.8" y2="-223.7"/>
			<path class="st1" d="M92.5-227.7l-2.9,2.9c-0.6,0.6-0.6,1.6,0,2.2c0.6,0.6,1.6,0.6,2.2,0l2.9-2.9c0.6-0.6,0.6-1.6,0-2.2
				C94.1-228.3,93.1-228.3,92.5-227.7"/>
			<line class="st2" x1="78.8" y1="-232.8" x2="78.8" y2="-228.6"/>
			<path class="st1" d="M77.3-232.8v4.2c0,0.9,0.7,1.6,1.6,1.6c0.9,0,1.6-0.7,1.6-1.6v-4.2c0-0.9-0.7-1.6-1.6-1.6
				C78-234.3,77.3-233.6,77.3-232.8"/>
		</g>
		<g>
			<path class="st1" d="M199.8-284.9h1.3c-0.4-0.8-0.8-1.6-1.3-2.2C199.8-286.4,199.8-285.6,199.8-284.9z"/>
			<path class="st1" d="M202.2-308.8c-1.1-2.5-2.8-4.3-4.8-5.6c-2-1.2-4.3-1.9-6.6-1.9c-2.3,0-4.6,0.6-6.6,1.9
				c-1.4,0.9-2.6,2-3.6,3.4c0.3,0.4,0.5,0.8,0.7,1.2c4.5-7.4,16-6.9,19.6,1.5c0,6.9,0,13.9,0,20.8c0.4,0.6,0.8,1.3,1.2,2.1l-1.2,0.5
				h1.3c0-3.9,0-7.8,0-11.7c0-3.9,0-7.8,0-11.7C202.3-308.5,202.3-308.6,202.2-308.8z"/>
			<path class="st1" d="M199.8-284.9c0-0.7,0-1.5,0-2.2c-4.3-5.9-13.4-5.9-17.8-0.1c0,0.8,0,1.5,0,2.3c0,0.1,0,0.2,0,0.3
				c0.9-1.9,2.1-3.3,3.7-4.2c1.6-1,3.4-1.5,5.2-1.5c1.8,0,3.7,0.5,5.2,1.5c1.6,1,2.9,2.4,3.8,4.4c0.2,0.6,0.8,0.9,1.4,0.7
				c0.6-0.1,1-0.6,1-1.2H201H199.8z"/>
			<path class="st1" d="M180.9-283.7c-0.1,0-0.1,0-0.2,0C180.8-283.7,180.9-283.7,180.9-283.7z"/>
			<path class="st1" d="M179.6-284.4c0-0.1-0.1-0.1-0.1-0.2c0.1,0.5,0.5,0.9,1,1c0,0,0.1,0,0.1,0C180.1-283.7,179.8-284,179.6-284.4
				z"/>
			<path class="st1" d="M202.2-285.4c-0.3-0.8-0.7-1.5-1.2-2.1c0,0.9,0,1.7,0,2.6L202.2-285.4z"/>
			<path class="st1" d="M199.8-287.1c0.5,0.7,0.9,1.4,1.3,2.2c0-0.9,0-1.7,0-2.6c-0.4-0.6-0.8-1.1-1.3-1.6
				C199.8-288.4,199.8-287.8,199.8-287.1z"/>
			<path class="st1" d="M199.8-308c0,3.8,0,7.6,0,11.4c0,2.5,0,5,0,7.5c0.5,0.5,0.9,1,1.3,1.6c0-6.9,0-13.9,0-20.8l-1.2,0.5
				C199.8-307.9,199.8-307.9,199.8-308z"/>
			<path class="st1" d="M182-308.3c0,0.1,0,0.1,0,0.2c0.9-1.8,2.1-3.2,3.6-4.1c1.6-1,3.4-1.5,5.2-1.5c1.8,0,3.7,0.5,5.2,1.5
				c1.5,0.9,2.8,2.3,3.7,4.2c0-0.1,0-0.2,0-0.3h1.3c-3.6-8.4-15.1-8.9-19.6-1.5c0.2,0.3,0.3,0.6,0.5,0.9
				C182-308.6,182-308.5,182-308.3z"/>
			<path class="st1" d="M199.8-308c0,0.1,0.1,0.1,0.1,0.2l1.2-0.5h-1.3C199.8-308.2,199.8-308.1,199.8-308z"/>
			<path class="st1" d="M197.4-291c-2-1.2-4.3-1.9-6.6-1.9c-2.3,0-4.6,0.6-6.6,1.9c-0.8,0.5-1.6,1.1-2.3,1.8c0,0.6,0,1.3,0,1.9
				c4.4-5.9,13.4-5.9,17.8,0.1c0-0.7,0-1.3,0-2C199.1-289.8,198.3-290.5,197.4-291z"/>
			<path class="st2" d="M179.4-308.1c0,3.8,0,7.7,0,11.5c0,2.5,0,5,0,7.5c0,0,0,0,0,0.1c0-6.3,0-12.6,0-18.9
				C179.5-308,179.5-308.1,179.4-308.1z"/>
			<path class="st1" d="M179.4-287.2c-4.4-5.9-13.4-5.9-17.8,0.1c0,0.7,0,1.5,0,2.2h-1.3l-1.2-0.5c0.3-0.8,0.7-1.5,1.2-2.1
				c0-6.9,0-13.9,0-20.8c3.6-8.4,15.1-8.9,19.6-1.5c0.2-0.4,0.5-0.8,0.7-1.2c-1-1.4-2.2-2.6-3.6-3.4c-2-1.2-4.3-1.9-6.6-1.9
				c-2.3,0-4.6,0.6-6.6,1.9c-2,1.2-3.7,3.1-4.8,5.6c-0.1,0.2-0.1,0.3-0.1,0.5c0,7.8,0,15.6,0,23.4c0,0.6,0.4,1.1,1,1.2
				c0.6,0.1,1.2-0.2,1.4-0.7c0.9-2,2.2-3.5,3.8-4.4c1.6-1,3.4-1.5,5.2-1.5c1.8,0,3.7,0.5,5.2,1.5c1.5,0.9,2.8,2.3,3.7,4.2
				c0-0.1,0-0.2,0-0.3C179.4-285.7,179.4-286.4,179.4-287.2z"/>
			<path class="st1" d="M161.7-284.9c0-0.7,0-1.5,0-2.2c-0.5,0.7-0.9,1.4-1.3,2.2H161.7z"/>
			<path class="st1" d="M180.7-283.7c-0.1,0-0.1,0-0.2,0C180.6-283.7,180.7-283.7,180.7-283.7z"/>
			<path class="st1" d="M180.9-283.7C180.9-283.7,181-283.7,180.9-283.7c0.6-0.1,0.9-0.5,1.1-1c0,0.1-0.1,0.1-0.1,0.2
				C181.7-284,181.3-283.7,180.9-283.7z"/>
			<path class="st1" d="M159.3-285.4l1.2,0.5c0-0.9,0-1.7,0-2.6C160-286.9,159.6-286.2,159.3-285.4z"/>
			<path class="st1" d="M182-289.1C182-289.1,182-289.1,182-289.1c0-6.4,0-12.7,0-19c0,0,0,0.1,0,0.1c0,3.8,0,7.6,0,11.4
				C182-294.1,182-291.6,182-289.1z"/>
			<path class="st1" d="M181.5-286.4c-0.3,0.4-0.5,0.9-0.7,1.3c0,0,0,0.1,0,0.1l1.2-0.5C181.8-285.7,181.6-286,181.5-286.4z"/>
			<path class="st1" d="M182-284.9L182-284.9c0-0.8,0-1.5,0-2.3c0,0,0,0,0,0.1C182-286.4,182-285.6,182-284.9z"/>
			<path class="st1" d="M182-284.9h-1.2h0h-1.2c0-0.7,0-1.5,0-2.2c0,0,0,0,0-0.1c0,0.8,0,1.5,0,2.3c0,0.1,0,0.2,0,0.3
				c0,0.1,0.1,0.1,0.1,0.2c0.2,0.4,0.5,0.7,0.9,0.7c0.1,0,0.1,0,0.2,0c0.1,0,0.1,0,0.2,0c0.4-0.1,0.8-0.3,0.9-0.7
				c0-0.1,0.1-0.1,0.1-0.2C182-284.7,182-284.8,182-284.9L182-284.9z"/>
			<path class="st1" d="M180.7-284.9L180.7-284.9C180.7-284.9,180.7-284.9,180.7-284.9C180.7-284.9,180.7-284.9,180.7-284.9z"/>
			<path class="st1" d="M180.7-308.4c0.2-0.5,0.5-1,0.7-1.4c-0.2-0.4-0.5-0.8-0.7-1.2c-0.3,0.4-0.5,0.8-0.7,1.2
				C180.3-309.3,180.5-308.8,180.7-308.4z"/>
			<path class="st1" d="M181.5-286.4c0.2,0.3,0.3,0.6,0.5,0.9l-1.2,0.5h1.2c0-0.7,0-1.5,0-2.2C181.8-286.9,181.6-286.6,181.5-286.4z
				"/>
			<path class="st1" d="M180-286.4c-0.2-0.3-0.3-0.5-0.5-0.8c0,0.7,0,1.5,0,2.2h1.2l-1.2-0.5C179.7-285.7,179.8-286,180-286.4z"/>
			<path class="st1" d="M180-286.4c-0.2,0.3-0.3,0.6-0.5,0.9l1.2,0.5c0,0,0-0.1,0-0.1C180.5-285.5,180.3-285.9,180-286.4z"/>
			<path class="st1" d="M181.9-307.8c0-0.1,0.1-0.1,0.1-0.2c0-0.1,0-0.2,0-0.3h-1.2c0,0,0,0,0,0L181.9-307.8z"/>
			<path class="st1" d="M180.8-285c0.2-0.5,0.4-0.9,0.7-1.3c-0.2-0.4-0.5-0.8-0.7-1.2C180.8-286.7,180.8-285.8,180.8-285z"/>
			<path class="st1" d="M180.8-308.3c0,6.9,0,13.8,0,20.7c0.4-0.5,0.8-1,1.2-1.5c0-2.5,0-5,0-7.5c0-3.8,0-7.6,0-11.4
				c0,0.1-0.1,0.1-0.1,0.2L180.8-308.3z"/>
			<path class="st1" d="M180.8-287.5c0.3,0.4,0.5,0.8,0.7,1.2c0.2-0.3,0.3-0.5,0.5-0.8c0-0.7,0-1.3,0-2
				C181.5-288.6,181.1-288.1,180.8-287.5C180.8-287.6,180.8-287.5,180.8-287.5z"/>
			<path class="st1" d="M182-289.1c0,0.7,0,1.3,0,2c0,0,0,0,0-0.1C182-287.8,182-288.5,182-289.1C182-289.1,182-289.1,182-289.1z"/>
			<path class="st1" d="M180.8-308.3h1.2c0,0.1,0,0.2,0,0.3c0,0,0-0.1,0-0.1c0-0.1,0-0.1,0-0.2c0-0.2,0-0.3-0.1-0.5
				c-0.1-0.3-0.3-0.6-0.5-0.9C181.2-309.3,180.9-308.8,180.8-308.3C180.7-308.3,180.7-308.3,180.8-308.3z"/>
			<path class="st1" d="M180.7-285c0,0,0,0.1,0,0.1C180.7-284.9,180.7-284.9,180.7-285C180.7-285,180.7-285,180.7-285z"/>
			<path class="st1" d="M177.2-291c-2-1.2-4.3-1.9-6.6-1.9c-2.3,0-4.6,0.6-6.6,1.9c-0.8,0.5-1.6,1.2-2.3,1.9c0,0.7,0,1.3,0,2
				c4.3-5.9,13.4-5.9,17.8-0.1c0-0.6,0-1.3,0-1.9C178.7-289.9,178-290.5,177.2-291z"/>
			<path class="st1" d="M160.4-287.5c0,0.9,0,1.7,0,2.6c0.4-0.8,0.8-1.6,1.3-2.2c0-0.7,0-1.3,0-2
				C161.2-288.6,160.8-288.1,160.4-287.5z"/>
			<path class="st1" d="M161.7-308c0,0.1-0.1,0.1-0.1,0.2l-1.2-0.5c0,6.9,0,13.9,0,20.8c0.4-0.6,0.8-1.1,1.3-1.6
				C161.7-295.4,161.7-301.7,161.7-308z"/>
			<path class="st1" d="M161.7-308c0.9-1.9,2.1-3.3,3.7-4.2c1.6-1,3.4-1.5,5.2-1.5c1.8,0,3.7,0.5,5.2,1.5c1.5,0.9,2.8,2.3,3.6,4.1
				c0-0.1,0-0.1,0-0.2c0-0.2,0-0.3,0.1-0.5c0.1-0.3,0.3-0.6,0.5-0.9c-4.5-7.4-16-6.9-19.6,1.5h1.3
				C161.7-308.2,161.7-308.1,161.7-308z"/>
			<path class="st1" d="M161.7-308c0-0.1,0-0.2,0-0.3h-1.3l1.2,0.5C161.6-307.9,161.6-307.9,161.7-308z"/>
			<path class="st1" d="M179.4-308.3c0,0.1,0,0.1,0,0.2c0,0,0,0.1,0,0.1C179.5-308.1,179.5-308.2,179.4-308.3h1.3c0,0,0,0,0-0.1
				c-0.2-0.5-0.5-1-0.7-1.4c-0.2,0.3-0.3,0.6-0.5,0.9C179.5-308.6,179.4-308.5,179.4-308.3z"/>
			<path class="st1" d="M180-286.4c0.3,0.4,0.5,0.9,0.7,1.3c0-0.8,0-1.7,0-2.5C180.5-287.1,180.2-286.8,180-286.4z"/>
			<path class="st1" d="M179.4-289.1c0,0.6,0,1.3,0,1.9c0,0,0,0,0,0.1C179.5-287.8,179.5-288.4,179.4-289.1
				C179.5-289.1,179.5-289.1,179.4-289.1z"/>
			<path class="st1" d="M180.7-285C180.7-284.9,180.7-284.9,180.7-285C180.8-284.9,180.8-285,180.7-285
				C180.7-285,180.7-285,180.7-285z"/>
			<path class="st1" d="M180.7-287.5C180.7-287.5,180.7-287.6,180.7-287.5c-0.4-0.6-0.8-1.1-1.2-1.6c0,0.7,0,1.3,0,2
				c0.2,0.2,0.3,0.5,0.5,0.8C180.2-286.8,180.5-287.1,180.7-287.5z"/>
			<path class="st1" d="M179.6-307.8c0-0.1-0.1-0.1-0.1-0.2c0,6.3,0,12.6,0,18.9c0.4,0.5,0.8,1,1.2,1.5c0-6.9,0-13.8,0-20.7
				L179.6-307.8z"/>
			<path class="st1" d="M180.7-308.3C180.7-308.3,180.7-308.3,180.7-308.3l-1.2,0c0,0.1,0,0.2,0,0.3c0,0.1,0.1,0.1,0.1,0.2
				L180.7-308.3z"/>
			<path class="st1" d="M180.7-308.3L180.7-308.3C180.7-308.3,180.7-308.3,180.7-308.3L180.7-308.3z"/>
			<path class="st1" d="M180.8-308.3C180.8-308.3,180.8-308.3,180.8-308.3L180.8-308.3L180.8-308.3z"/>
			<polygon class="st1" points="180.7,-308.3 180.8,-308.3 180.7,-308.3 			"/>
			<path class="st1" d="M180.8-308.3C180.7-308.3,180.7-308.3,180.8-308.3C180.7-308.3,180.7-308.3,180.8-308.3L180.8-308.3z"/>
			<path class="st1" d="M180.8-287.6c0-6.9,0-13.8,0-20.7l0,0l0,0C180.7-301.4,180.7-294.5,180.8-287.6
				C180.7-287.6,180.7-287.6,180.8-287.6C180.7-287.6,180.7-287.6,180.8-287.6z"/>
			<path class="st1" d="M180.7-287.6C180.7-287.5,180.7-287.5,180.7-287.6c0,0.9,0,1.7,0,2.5c0,0,0,0,0,0.1c0,0,0,0,0-0.1
				C180.8-285.8,180.8-286.7,180.7-287.6C180.7-287.5,180.7-287.5,180.7-287.6z"/>
			<path class="st1" d="M180.8-287.5C180.8-287.5,180.8-287.6,180.8-287.5C180.7-287.6,180.7-287.6,180.8-287.5
				C180.7-287.5,180.7-287.5,180.8-287.5z"/>
			<path class="st1" d="M180.7-287.6C180.7-287.6,180.7-287.5,180.7-287.6C180.7-287.5,180.7-287.5,180.7-287.6
				C180.7-287.6,180.7-287.6,180.7-287.6z"/>
		</g>
		<g>
			<polygon class="st1" points="78.8,-43.2 83.8,-33.2 94.8,-31.5 86.8,-23.7 88.7,-12.7 78.8,-17.9 68.9,-12.7 70.8,-23.7 
				62.8,-31.5 73.9,-33.2 			"/>
			<path class="st1" d="M78.8-43.2l-1.5,0.7l5,10c0.2,0.5,0.7,0.8,1.3,0.9l7.7,1.1l-5.6,5.4c-0.4,0.4-0.6,0.9-0.5,1.5l1.3,7.7
				l-6.9-3.6c-0.5-0.3-1.1-0.3-1.6,0l-6.9,3.6l1.3-7.7c0.1-0.5-0.1-1.1-0.5-1.5l-5.6-5.4l7.7-1.1c0.5-0.1,1-0.4,1.3-0.9l5-10
				L78.8-43.2l-1.5,0.7L78.8-43.2l-1.5-0.7l-4.6,9.2l-10.2,1.5c-0.6,0.1-1.2,0.5-1.4,1.1c-0.2,0.6,0,1.3,0.4,1.7l7.4,7.2L67.2-13
				c-0.1,0.6,0.2,1.3,0.7,1.7c0.5,0.4,1.2,0.4,1.8,0.1l9.1-4.8l9.1,4.8c0.6,0.3,1.3,0.2,1.8-0.1c0.5-0.4,0.8-1,0.7-1.7l-1.7-10.2
				l7.4-7.2c0.5-0.4,0.6-1.1,0.4-1.7c-0.2-0.6-0.7-1.1-1.4-1.1l-10.2-1.5l-4.6-9.2c-0.3-0.6-0.9-0.9-1.5-0.9s-1.2,0.4-1.5,0.9
				L78.8-43.2z"/>
		</g>
		<polygon class="st1" points="138.5,-60.3 109.5,-60.3 124,-89.3 		"/>
		<g>
			<path class="st1" d="M285.1-126.1l-1.1-1c-2.9,3-4.9,6.5-6.2,10c-1.3,3.5-1.8,7-1.8,10.1c0,1.8,0.2,3.4,0.6,4.8
				c0.4,1.4,0.9,2.6,1.8,3.4c0.9,0.9,2.1,1.4,3.4,1.8c1.4,0.4,3,0.6,4.8,0.6c3,0,6.6-0.5,10.1-1.8c3.5-1.3,7-3.3,10-6.2l0,0
				c2.9-3,4.9-6.5,6.2-10c1.3-3.5,1.8-7,1.8-10.1c0-1.8-0.2-3.4-0.6-4.8c-0.4-1.4-0.9-2.6-1.8-3.4c-0.9-0.9-2.1-1.4-3.4-1.8
				c-1.4-0.4-3-0.6-4.8-0.6c-3,0-6.6,0.5-10.1,1.8c-3.5,1.3-7,3.3-10,6.2l0,0L285.1-126.1l1,1.1c2.6-2.6,5.8-4.4,8.9-5.5
				c3.2-1.1,6.4-1.6,9.1-1.6c1.6,0,3,0.2,4.1,0.5c1.1,0.3,1.8,0.7,2.1,1c0.3,0.3,0.7,1,1,2.1c0.3,1.1,0.5,2.5,0.5,4.1
				c0,2.7-0.5,5.9-1.6,9.1c-1.1,3.2-2.9,6.3-5.5,8.9l1.1,1l-1-1.1c-2.6,2.6-5.8,4.4-8.9,5.5c-3.2,1.1-6.4,1.6-9.1,1.6
				c-1.6,0-3-0.2-4.1-0.5c-1.1-0.3-1.8-0.7-2.1-1c-0.3-0.3-0.7-1-1-2.1c-0.3-1.1-0.5-2.5-0.5-4.1c0-2.7,0.5-5.9,1.6-9.1
				c1.1-3.2,2.9-6.3,5.5-8.9L285.1-126.1l1,1.1L285.1-126.1z"/>
			<path class="st1" d="M294.6-116.5L294.6-116.5c5.9-5.9,11.8-10.9,16.8-14.7c0.7-0.5,0.8-1.4,0.3-2.1s-1.4-0.8-2.1-0.3
				c-5.2,3.9-11.2,9-17.2,14.9l0,0c-6,6-11.1,12-14.9,17.2c-0.5,0.7-0.4,1.6,0.3,2.1c0.7,0.5,1.6,0.4,2.1-0.3l0,0"/>
			<path class="st1" d="M278-112.1l13.7,13.7c2-0.4,4.1-1,6.1-1.9l-17.9-17.9C279-116.1,278.4-114.1,278-112.1z"/>
			<path class="st1" d="M278-112.1L277-111l13.7,13.7c0.3,0.3,0.8,0.5,1.3,0.4c2.1-0.4,4.3-1,6.4-2c0.5-0.2,0.8-0.6,0.9-1.1
				c0.1-0.5-0.1-1-0.4-1.3l-17.9-17.9c-0.3-0.3-0.8-0.5-1.3-0.4c-0.5,0.1-0.9,0.4-1.1,0.9c-0.9,2.1-1.6,4.3-2,6.4
				c-0.1,0.5,0.1,1,0.4,1.3L278-112.1l1.5,0.3c0.4-1.9,0.9-3.8,1.8-5.8l-1.4-0.6l-1.1,1.1l17.9,17.9l1.1-1.1l-0.6-1.4
				c-1.9,0.8-3.9,1.4-5.8,1.8l0.3,1.5l1.1-1.1l-13.7-13.7L278-112.1l1.5,0.3L278-112.1z"/>
			<path class="st1" d="M293-131.3l17.9,17.9c0.9-2,1.5-4.1,1.9-6.1l-13.7-13.7C297.1-132.8,295-132.2,293-131.3z"/>
			<path class="st1" d="M293-131.3l-1.1,1.1l17.9,17.9c0.3,0.3,0.8,0.5,1.3,0.4c0.5-0.1,0.9-0.4,1.1-0.9c0.9-2.1,1.6-4.3,2-6.4
				c0.1-0.5-0.1-1-0.4-1.3l-13.7-13.7c-0.3-0.3-0.8-0.5-1.3-0.4c-2.1,0.4-4.3,1-6.4,2c-0.5,0.2-0.8,0.6-0.9,1.1
				c-0.1,0.5,0.1,1,0.4,1.3L293-131.3l0.6,1.4c1.9-0.8,3.9-1.4,5.8-1.8l-0.3-1.5l-1.1,1.1l13.7,13.7l1.1-1.1l-1.5-0.3
				c-0.4,1.9-0.9,3.8-1.8,5.8l1.4,0.6l1.1-1.1l-17.9-17.9L293-131.3l0.6,1.4L293-131.3z"/>
		</g>
		<g>
			<path class="st1" d="M563.3-287.8l0,0.1l-1.2,2.1l-0.1,0l-2.5-0.9l-0.3,0.2c-0.6,0.6-1.4,1-2.2,1.3l-0.4,0.1l-0.5,2.6l-0.1,0.1
				h-2.4l-0.1-0.1l-0.5-2.6l-0.4-0.1c-0.8-0.3-1.5-0.7-2.2-1.3l-0.3-0.2l-2.5,0.9l-0.1,0l-1.2-2.1l0-0.1l2-1.7l-0.1-0.4
				c-0.1-0.4-0.1-0.9-0.1-1.3c0-0.4,0-0.8,0.1-1.3l0.1-0.4l-2-1.7l0-0.1l1.2-2.1l0.1,0l2.5,0.9l0.3-0.2c0.6-0.6,1.4-1,2.2-1.3
				l0.4-0.1l0.5-2.6l0.1-0.1h2.4l0.1,0.1l0.5,2.6l0.4,0.1c0.8,0.3,1.5,0.7,2.2,1.3l0.3,0.2l2.5-0.9l0.1,0l1.2,2.1l0,0.1l-2,1.7
				l0.1,0.4c0.1,0.4,0.1,0.9,0.1,1.3c0,0.4,0,0.8-0.1,1.3l-0.1,0.4L563.3-287.8z M558.2-291.1c0-1.8-1.4-3.2-3.2-3.2
				c-1.8,0-3.2,1.4-3.2,3.2s1.4,3.2,3.2,3.2C556.8-287.9,558.2-289.3,558.2-291.1z"/>
			<path class="st1" d="M552-300.4l0,0.2l-1.7,2.9c0,0,0,0.1-0.1,0.1l-3.5-1.2l-0.4,0.3c-0.9,0.8-2,1.4-3.1,1.8l-0.5,0.2l-0.7,3.6
				l-0.1,0.1h-3.4l-0.1-0.1l-0.7-3.6l-0.5-0.2c-1.1-0.4-2.2-1-3.1-1.8l-0.4-0.3l-3.5,1.2l-0.1-0.1l-1.7-2.9l0-0.1l2.8-2.4l-0.1-0.5
				c-0.1-0.6-0.2-1.2-0.2-1.8c0-0.6,0.1-1.2,0.2-1.8l0.1-0.5l-2.8-2.4l0-0.2l1.7-2.9l0.1-0.1l3.5,1.2l0.4-0.3c0.9-0.8,2-1.4,3.1-1.8
				l0.5-0.2l0.7-3.6l0.1-0.1h3.4l0.1,0.1l0.7,3.6l0.5,0.2c1.1,0.4,2.2,1,3.1,1.8l0.4,0.3l3.5-1.2l0.1,0.1l1.7,2.9l0,0.2l-2.8,2.4
				l0.1,0.5c0.1,0.6,0.2,1.2,0.2,1.8c0,0.6-0.1,1.2-0.2,1.8l-0.1,0.5L552-300.4z M544.8-305.1c0-2.5-2-4.6-4.5-4.6
				c-2.5,0-4.6,2-4.6,4.6c0,2.5,2,4.6,4.6,4.6C542.8-300.5,544.8-302.6,544.8-305.1z"/>
		</g>
		<g>
			<path class="st1" d="M19.6-238.5v-0.9h-6l1.4,1.5c3.4,3.6,8.3,5.9,13.7,5.9v-1.8c-1.6,0-3.1-0.5-4.6-1.4
				c-1.4-0.9-2.7-2.2-3.8-3.9l-0.3-0.4h-0.5V-238.5l-0.7,0.5c1.2,1.8,2.7,3.3,4.3,4.4c1.7,1.1,3.5,1.7,5.5,1.7v-1.8
				c-4.9,0-9.3-2.1-12.4-5.4l-0.6,0.6v0.9h3.9V-238.5l-0.7,0.5L19.6-238.5z"/>
			<path class="st1" d="M16.3-250.8v-0.9H10v0.9c0,2.3,0.4,4.4,1.1,6.4l0.2,0.6h6.8l-0.3-1.1c-0.5-1.8-0.7-3.8-0.7-5.9v-0.9h-0.9
				V-250.8h-0.9c0,2.2,0.3,4.4,0.8,6.3l0.9-0.2v-0.9h-5.1v0.9l0.8-0.3c-0.7-1.8-1-3.8-1-5.8h-0.9v0.9h5.4V-250.8h-0.9H16.3z"/>
			<path class="st1" d="M17-244.7v-0.9h-6.3l0.4,1.2c0.9,2.4,2.2,4.6,4,6.4l0.3,0.3h6l-0.9-1.4c-1.1-1.7-2-3.6-2.5-5.9l-0.2-0.7H17
				V-244.7l-0.9,0.2c0.6,2.4,1.5,4.6,2.8,6.4l0.7-0.5v-0.9h-3.9v0.9l0.6-0.6c-1.6-1.7-2.8-3.6-3.6-5.8l-0.8,0.3v0.9H17V-244.7
				l-0.9,0.2L17-244.7z"/>
			<path class="st1" d="M17-256.9v-0.9h-5.7l-0.2,0.6c-0.7,2-1.1,4.2-1.1,6.4v0.9h7.2v-0.9c0-2.1,0.3-4.1,0.7-5.9l0.3-1.1H17V-256.9
				l-0.9-0.2c-0.5,2-0.8,4.1-0.8,6.3h0.9v-0.9h-5.4v0.9h0.9c0-2,0.4-4,1-5.8l-0.8-0.3v0.9H17V-256.9l-0.9-0.2L17-256.9z"/>
			<path class="st1" d="M19.4-262.7v-0.9H15l-0.3,0.3c-1.6,1.8-2.8,3.8-3.6,6.1l-0.4,1.2h7l0.2-0.7c0.5-2.1,1.3-3.9,2.3-5.5l0.8-1.4
				h-1.6V-262.7l-0.8-0.5c-1.1,1.8-1.9,3.8-2.5,6l0.9,0.2v-0.9h-5.1v0.9l0.8,0.3c0.7-2,1.9-3.9,3.3-5.5l-0.7-0.6v0.9h4V-262.7
				l-0.8-0.5L19.4-262.7z"/>
			<path class="st1" d="M38-262.7v0.9h6l-1.3-1.5c-3.4-3.9-8.4-6.3-14-6.3v1.8c1.7,0,3.2,0.5,4.7,1.5c1.5,1,2.8,2.4,3.9,4.1l0.3,0.4
				H38V-262.7l0.8-0.5c-1.2-1.9-2.7-3.5-4.4-4.6c-1.7-1.1-3.6-1.8-5.7-1.8v1.8c5.1,0,9.6,2.2,12.7,5.7l0.7-0.6v-0.9h-4V-262.7
				l0.8-0.5L38-262.7z"/>
			<path class="st1" d="M28.7-268.7v-0.9c-5.6,0-10.6,2.4-14,6.3l-1.3,1.5h6.5l0.3-0.4c1.1-1.7,2.4-3.1,3.9-4.1c1.5-1,3-1.5,4.7-1.5
				v-1.8V-268.7v-0.9c-2,0-4,0.6-5.7,1.8c-1.7,1.1-3.2,2.7-4.4,4.6l0.8,0.5v-0.9h-4v0.9l0.7,0.6c3.1-3.5,7.6-5.7,12.7-5.7v-1.8
				V-268.7z"/>
			<path class="st1" d="M38-262.7l-0.8,0.5c1,1.6,1.8,3.5,2.3,5.5l0.2,0.7h7l-0.4-1.2c-0.8-2.3-2.1-4.3-3.6-6.1l-0.3-0.3h-6l0.8,1.4
				L38-262.7v0.9h4v-0.9l-0.7,0.6c1.4,1.6,2.5,3.4,3.3,5.5l0.8-0.3v-0.9h-5.1v0.9l0.9-0.2c-0.6-2.2-1.4-4.3-2.5-6L38-262.7v0.9
				V-262.7z"/>
			<path class="st1" d="M28.7-232.9v0.9c5.4,0,10.3-2.3,13.7-5.9l1.4-1.5h-6.5l-0.3,0.4c-1.1,1.6-2.4,3-3.8,3.9
				c-1.4,0.9-2.9,1.4-4.6,1.4v1.8V-232.9v0.9c2,0,3.8-0.6,5.5-1.7c1.7-1.1,3.1-2.6,4.3-4.4l-0.7-0.5v0.9h3.9v-0.9l-0.6-0.6
				c-3.1,3.3-7.5,5.4-12.4,5.4v1.8V-232.9z"/>
			<path class="st1" d="M37.8-238.5v0.9h4.3l0.3-0.3c1.7-1.8,3.1-4,4-6.4l0.4-1.2h-7l-0.2,0.7c-0.6,2.2-1.4,4.2-2.5,5.9l-0.9,1.4
				h1.6V-238.5l0.7,0.5c1.2-1.8,2.1-4,2.8-6.4l-0.9-0.2v0.9h5.1v-0.9l-0.8-0.3c-0.8,2.2-2,4.2-3.6,5.8l0.6,0.6v-0.9h-3.9V-238.5
				l0.7,0.5L37.8-238.5z"/>
			<path class="st1" d="M41.2-250.8v0.9h6.3v-0.9c0-2.3-0.4-4.4-1.1-6.4l-0.2-0.6h-6.8l0.3,1.1c0.5,1.8,0.7,3.8,0.7,5.9v0.9h0.9
				V-250.8h0.9c0-2.2-0.3-4.4-0.8-6.3l-0.9,0.2v0.9h5.1v-0.9l-0.8,0.3c0.7,1.8,1,3.8,1,5.8h0.9v-0.9h-5.4V-250.8h0.9H41.2z"/>
			<path class="st1" d="M40.5-244.7v0.9h5.7l0.2-0.6c0.7-2,1.1-4.2,1.1-6.4v-0.9h-7.2v0.9c0,2.1-0.3,4.1-0.7,5.9l-0.3,1.1h1.1
				V-244.7l0.9,0.2c0.5-2,0.8-4.1,0.8-6.3h-0.9v0.9h5.4v-0.9h-0.9c0,2-0.4,4-1,5.8l0.8,0.3v-0.9h-5.1V-244.7l0.9,0.2L40.5-244.7z"/>
			<path class="st1" d="M17-244.7l-0.9,0.2c0.6,2.4,1.5,4.6,2.8,6.4l0.3,0.4h6.7l-0.3-1.1c-0.5-1.7-0.9-3.7-1.1-6l-0.1-0.8h-8.4
				l0.3,1.1L17-244.7v0.9h6.5v-0.9l-0.9,0.1c0.3,2.3,0.7,4.5,1.2,6.3l0.8-0.2v-0.9h-5v0.9l0.7-0.5c-1.1-1.7-2-3.6-2.5-5.9L17-244.7
				v0.9V-244.7z"/>
			<path class="st1" d="M34-244.7v0.9h7.2l0.2-0.7c0.5-2,0.8-4.1,0.8-6.3v-0.9h-8.7v0.9c0,2.1-0.1,4.1-0.3,6l-0.1,1h1V-244.7
				l0.9,0.1c0.2-1.9,0.3-4,0.3-6.2h-0.9v0.9h6.9v-0.9h-0.9c0,2.1-0.3,4.1-0.7,5.9l0.9,0.2v-0.9H34V-244.7l0.9,0.1L34-244.7z"/>
			<path class="st1" d="M34.3-250.8v0.9h7.8v-0.9c0-2.2-0.3-4.4-0.8-6.3l-0.2-0.7H33l0.1,1c0.2,1.9,0.3,3.9,0.3,6v0.9h0.9V-250.8
				h0.9c0-2.2-0.1-4.3-0.3-6.2l-0.9,0.1v0.9h6.5v-0.9l-0.9,0.2c0.5,1.8,0.7,3.8,0.7,5.9h0.9v-0.9h-6.9V-250.8h0.9H34.3z"/>
			<path class="st1" d="M34-256.9v0.9h7.6l-0.3-1.1c-0.6-2.2-1.4-4.3-2.5-6l-0.3-0.4h-6.8l0.3,1.1c0.4,1.6,0.8,3.5,1,5.6l0.1,0.8H34
				V-256.9l0.9-0.1c-0.2-2.2-0.6-4.2-1.1-5.9l-0.9,0.2v0.9H38v-0.9l-0.8,0.5c1,1.6,1.8,3.5,2.3,5.5l0.9-0.2v-0.9H34V-256.9l0.9-0.1
				L34-256.9z"/>
			<path class="st1" d="M23.5-256.9v-0.9h-7.2l-0.2,0.7c-0.5,2-0.8,4.1-0.8,6.3v0.9H24v-0.9c0-2.1,0.1-4.1,0.3-6l0.1-1h-1V-256.9
				l-0.9-0.1c-0.2,1.9-0.3,4-0.3,6.2h0.9v-0.9h-6.9v0.9h0.9c0-2.1,0.3-4.1,0.7-5.9l-0.9-0.2v0.9h6.5V-256.9l-0.9-0.1L23.5-256.9z"/>
			<path class="st1" d="M32.8-238.5v0.9h5.5l0.3-0.4c1.2-1.8,2.1-4,2.8-6.4l0.3-1.1h-8.4l-0.1,0.8c-0.3,2.3-0.7,4.3-1.1,6l-0.3,1.1
				h1.2V-238.5l0.8,0.2c0.5-1.8,0.9-3.9,1.2-6.3l-0.9-0.1v0.9h6.5v-0.9l-0.9-0.2c-0.6,2.2-1.4,4.2-2.5,5.9l0.7,0.5v-0.9h-5V-238.5
				l0.8,0.2L32.8-238.5z"/>
			<path class="st1" d="M32.9-262.7v0.9h6.7l-0.8-1.4c-1.2-1.9-2.7-3.5-4.4-4.6c-1.7-1.1-3.6-1.8-5.7-1.8v1.8c0.2,0,0.4,0.1,0.7,0.3
				c0.4,0.3,0.9,0.9,1.4,1.8c0.5,0.9,0.9,2,1.3,3.3l0.2,0.6h0.7V-262.7l0.9-0.2c-0.5-1.9-1.2-3.5-2-4.6c-0.4-0.6-0.8-1.1-1.3-1.4
				c-0.5-0.4-1.1-0.6-1.7-0.6v1.8c1.7,0,3.2,0.5,4.7,1.5c1.5,1,2.8,2.4,3.9,4.1l0.8-0.5v-0.9h-5.2V-262.7l0.9-0.2L32.9-262.7z"/>
			<path class="st1" d="M37.8-238.5v-0.9h-5.7l-0.2,0.6c-0.5,1.7-1.1,3-1.7,3.9c-0.3,0.4-0.6,0.7-0.9,0.9c-0.3,0.2-0.5,0.2-0.7,0.2
				v1.8c2,0,3.8-0.6,5.5-1.7c1.7-1.1,3.1-2.6,4.3-4.4l0.9-1.4h-1.6V-238.5l-0.7-0.5c-1.1,1.6-2.4,3-3.8,3.9
				c-1.4,0.9-2.9,1.4-4.6,1.4v1.8c0.6,0,1.2-0.2,1.7-0.5c0.7-0.5,1.3-1.3,1.9-2.2c0.5-1,1-2.1,1.4-3.5l-0.8-0.2v0.9h5V-238.5
				l-0.7-0.5L37.8-238.5z"/>
			<path class="st1" d="M24.6-262.7v-0.9h-5.6l-0.3,0.4c-1.1,1.8-1.9,3.8-2.5,6l-0.3,1.1h8.4l0.1-0.8c0.2-2.1,0.6-4,1-5.6l0.3-1.1
				h-1.2V-262.7l-0.9-0.2c-0.5,1.7-0.9,3.7-1.1,5.9l0.9,0.1v-0.9H17v0.9l0.9,0.2c0.5-2.1,1.3-3.9,2.3-5.5l-0.8-0.5v0.9h5.2V-262.7
				l-0.9-0.2L24.6-262.7z"/>
			<path class="st1" d="M19.4-262.7v0.9h5.8l0.2-0.6c0.5-1.8,1.1-3.2,1.7-4.1c0.3-0.5,0.6-0.8,0.9-1c0.3-0.2,0.5-0.3,0.7-0.3v-1.8
				c-2,0-4,0.6-5.7,1.8c-1.7,1.1-3.2,2.7-4.4,4.6l-0.8,1.4h1.6V-262.7l0.8,0.5c1.1-1.7,2.4-3.1,3.9-4.1c1.5-1,3-1.5,4.7-1.5v-1.8
				c-0.6,0-1.2,0.2-1.7,0.6c-0.8,0.5-1.4,1.4-1.9,2.4c-0.5,1-1,2.3-1.4,3.7l0.9,0.2v-0.9h-5.2V-262.7l0.8,0.5L19.4-262.7z"/>
			<path class="st1" d="M23.2-250.8v-0.9h-7.8v0.9c0,2.2,0.3,4.4,0.8,6.3l0.2,0.7h8.2l-0.1-1c-0.2-1.9-0.3-3.9-0.3-6v-0.9h-0.9
				V-250.8h-0.9c0,2.2,0.1,4.3,0.3,6.2l0.9-0.1v-0.9H17v0.9l0.9-0.2c-0.5-1.8-0.7-3.8-0.7-5.9h-0.9v0.9h6.9V-250.8h-0.9H23.2z"/>
			<path class="st1" d="M24.7-238.5v-0.9H18l0.9,1.4c1.2,1.8,2.7,3.3,4.3,4.4c1.7,1.1,3.5,1.7,5.5,1.7v-1.8c-0.2,0-0.4-0.1-0.7-0.2
				c-0.4-0.3-0.9-0.8-1.3-1.6c-0.4-0.8-0.9-1.9-1.2-3.1l-0.2-0.6h-0.7V-238.5l-0.8,0.2c0.5,1.8,1.2,3.3,1.9,4.4
				c0.4,0.5,0.8,1,1.3,1.3c0.5,0.3,1.1,0.5,1.7,0.5v-1.8c-1.6,0-3.1-0.5-4.6-1.4c-1.4-0.9-2.7-2.2-3.8-3.9l-0.7,0.5v0.9h5V-238.5
				l-0.8,0.2L24.7-238.5z"/>
			<path class="st1" d="M23.2-250.8v0.9h12v-0.9c0-2.2-0.1-4.3-0.3-6.2l-0.1-0.8h-12l-0.1,0.8c-0.2,1.9-0.3,4-0.3,6.2v0.9h0.9
				V-250.8H24c0-2.1,0.1-4.1,0.3-6l-0.9-0.1v0.9H34v-0.9l-0.9,0.1c0.2,1.9,0.3,3.9,0.3,6h0.9v-0.9H23.2V-250.8H24H23.2z"/>
			<path class="st1" d="M34-256.9l0.9-0.1c-0.2-2.2-0.6-4.2-1.1-5.9l-0.2-0.6h-9.7l-0.2,0.6c-0.5,1.7-0.9,3.7-1.1,5.9l-0.1,1H35
				l-0.1-1L34-256.9v-0.9H23.5v0.9l0.9,0.1c0.2-2.1,0.6-4,1-5.6l-0.9-0.2v0.9h8.3v-0.9l-0.9,0.2c0.4,1.6,0.8,3.5,1,5.6L34-256.9
				v-0.9V-256.9z"/>
			<path class="st1" d="M23.5-244.7v0.9h11.3l0.1-0.8c0.2-1.9,0.3-4,0.3-6.2v-0.9H22.3v0.9c0,2.2,0.1,4.3,0.3,6.2l0.1,0.8h0.8
				V-244.7l0.9-0.1c-0.2-1.9-0.3-3.9-0.3-6h-0.9v0.9h11.1v-0.9h-0.9c0,2.1-0.1,4.1-0.3,6l0.9,0.1v-0.9H23.5V-244.7l0.9-0.1
				L23.5-244.7z"/>
			<path class="st1" d="M24.6-262.7v0.9h9.5l-0.3-1.1c-0.5-1.9-1.2-3.5-2-4.6c-0.4-0.6-0.8-1.1-1.3-1.4c-0.5-0.4-1.1-0.6-1.7-0.6
				c-0.6,0-1.2,0.2-1.7,0.6c-0.8,0.5-1.4,1.4-1.9,2.4c-0.5,1-1,2.3-1.4,3.7l-0.3,1.1h1.2V-262.7l0.9,0.2c0.5-1.8,1.1-3.2,1.7-4.1
				c0.3-0.5,0.6-0.8,0.9-1c0.3-0.2,0.5-0.3,0.7-0.3c0.2,0,0.4,0.1,0.7,0.3c0.4,0.3,0.9,0.9,1.4,1.8c0.5,0.9,0.9,2,1.3,3.3l0.9-0.2
				v-0.9h-8.3V-262.7l0.9,0.2L24.6-262.7z"/>
			<path class="st1" d="M32.8-238.5v-0.9h-9.3l0.3,1.1c0.5,1.8,1.2,3.3,1.9,4.4c0.4,0.5,0.8,1,1.3,1.3c0.5,0.3,1.1,0.5,1.7,0.5
				c0.6,0,1.2-0.2,1.7-0.5c0.7-0.5,1.3-1.3,1.9-2.2c0.5-1,1-2.1,1.4-3.5l0.3-1.1h-1.2V-238.5l-0.8-0.2c-0.5,1.7-1.1,3-1.7,3.9
				c-0.3,0.4-0.6,0.7-0.9,0.9c-0.3,0.2-0.5,0.2-0.7,0.2c-0.2,0-0.4-0.1-0.7-0.2c-0.4-0.3-0.9-0.8-1.3-1.6c-0.4-0.8-0.9-1.9-1.2-3.1
				l-0.8,0.2v0.9h8.1V-238.5l-0.8-0.2L32.8-238.5z"/>
			<path class="st1" d="M23.5-244.7l-0.9,0.1c0.3,2.3,0.7,4.5,1.2,6.3l0.2,0.6h9.4l0.2-0.6c0.5-1.8,0.9-3.9,1.2-6.3l0.1-1H22.5
				l0.1,1L23.5-244.7v0.9H34v-0.9l-0.9-0.1c-0.3,2.3-0.7,4.3-1.1,6l0.8,0.2v-0.9h-8.1v0.9l0.8-0.2c-0.5-1.7-0.9-3.7-1.1-6
				L23.5-244.7v0.9V-244.7z"/>
		</g>
		<g>
			<path class="st1" d="M434.7-217.2c-1.8-2.4-13.4-1.1-15.2,4.1c-0.1,0.2-0.1,0.4-0.2,0.5l-1.8-0.4c0.1-0.2,0.1-0.4,0.1-0.6
				c0.9-5.5-8.5-12.2-11.3-11c-2.4,1.1-3.6,11,0.1,14.8c-2.4,2.6-4,6.8-3.1,8.1c1.3,2.1,11.7,1.4,12.5-3.6l0-0.2l1.2,0.2
				c0,0.1-0.1,0.1-0.1,0.2c-1.7,4.8,7,10.4,9.1,9.3c1.4-0.8,2.1-5.1,1.3-8.6C432.5-205.9,436.3-215.1,434.7-217.2z"/>
			<path class="st1" d="M419.4-215.2l-0.6-0.2l-0.4-0.1c-1.2-0.3-2.4,0.4-2.7,1.6l-2.3,8.8c-0.3,1.2,0.4,2.4,1.6,2.7l0.4,0.1
				l0.6,0.2c1.2,0.3,2.4-0.4,2.7-1.6l2.3-8.8C421.2-213.7,420.5-214.9,419.4-215.2z"/>
		</g>
		<g>
			<path class="st1" d="M497.1-87.4c0,0-2.3,13-4.3,15.9c-0.7,1-2.5,2.4-4.5,3.8c-4,2.8-9,5.6-9,5.6s2.3-13,4.3-15.9
				c0.7-1,2.6-2.5,4.7-3.9C492.3-84.6,497.1-87.4,497.1-87.4z M489.8-77c-0.5-0.3-1-0.5-1.5-0.5c-0.9,0-1.8,0.4-2.4,1.2
				c-0.9,1.3-0.6,3,0.7,3.9c0.5,0.4,1.1,0.5,1.7,0.5c0.9,0,1.7-0.4,2.2-1.2C491.4-74.3,491.1-76.1,489.8-77z"/>
			<path class="st1" d="M506.4-74.8h-1.5c0,4.6-1.9,8.7-4.9,11.8c-3,3-7.2,4.9-11.8,4.9c-4.6,0-8.7-1.9-11.8-4.9
				c-3-3-4.9-7.2-4.9-11.8c0-4.6,1.9-8.7,4.9-11.8c3-3,7.2-4.9,11.8-4.9c4.6,0,8.7,1.9,11.8,4.9c3,3,4.9,7.2,4.9,11.8H506.4h1.5
				c0-10.8-8.8-19.6-19.6-19.6c-10.8,0-19.6,8.8-19.6,19.6c0,10.8,8.8,19.6,19.6,19.6c10.8,0,19.6-8.8,19.6-19.6H506.4z"/>
		</g>
		<g>
			<circle class="st1" cx="488.3" cy="-250.8" r="13.8"/>
			<line class="st2" x1="506" y1="-250.4" x2="510.4" y2="-250.4"/>
			<path class="st1" d="M506-248.6h4.4c1,0,1.7-0.8,1.7-1.7c0-1-0.8-1.7-1.7-1.7H506c-1,0-1.7,0.8-1.7,1.7
				C504.3-249.4,505.1-248.6,506-248.6"/>
			<line class="st2" x1="470.6" y1="-250.4" x2="466.1" y2="-250.4"/>
			<path class="st1" d="M470.6-252.1h-4.5c-1,0-1.7,0.8-1.7,1.7c0,1,0.8,1.7,1.7,1.7h4.5c1,0,1.7-0.8,1.7-1.7
				C472.3-251.3,471.6-252.1,470.6-252.1"/>
			<line class="st2" x1="471.8" y1="-267" x2="475" y2="-263.8"/>
			<path class="st1" d="M470.6-265.8l3.2,3.2c0.7,0.7,1.8,0.7,2.4,0c0.7-0.7,0.7-1.8,0-2.4l-3.2-3.2c-0.7-0.7-1.8-0.7-2.4,0
				C469.9-267.6,469.9-266.5,470.6-265.8"/>
			<line class="st2" x1="504.8" y1="-267" x2="501.6" y2="-263.8"/>
			<path class="st1" d="M503.5-268.2l-3.2,3.2c-0.7,0.7-0.7,1.8,0,2.4c0.7,0.7,1.8,0.7,2.4,0l3.2-3.2c0.7-0.7,0.7-1.8,0-2.4
				C505.3-268.9,504.2-268.9,503.5-268.2"/>
			<line class="st2" x1="488.3" y1="-273.9" x2="488.3" y2="-269.3"/>
			<path class="st1" d="M486.6-273.9v4.7c0,1,0.8,1.7,1.7,1.7c1,0,1.7-0.8,1.7-1.7v-4.7c0-1-0.8-1.7-1.7-1.7
				C487.3-275.7,486.6-274.9,486.6-273.9"/>
			<line class="st2" x1="504.8" y1="-234.5" x2="501.6" y2="-237.7"/>
			<path class="st1" d="M506-235.8l-3.2-3.2c-0.7-0.7-1.8-0.7-2.4,0c-0.7,0.7-0.7,1.8,0,2.4l3.2,3.2c0.7,0.7,1.8,0.7,2.4,0
				C506.6-234,506.6-235.1,506-235.8"/>
			<line class="st2" x1="471.8" y1="-234.5" x2="475" y2="-237.7"/>
			<path class="st1" d="M473-233.3l3.2-3.2c0.7-0.7,0.7-1.8,0-2.4c-0.7-0.7-1.8-0.7-2.4,0l-3.2,3.2c-0.7,0.7-0.7,1.8,0,2.4
				C471.3-232.6,472.4-232.6,473-233.3"/>
			<line class="st2" x1="488.3" y1="-227.6" x2="488.3" y2="-232.3"/>
			<path class="st1" d="M490-227.6v-4.7c0-1-0.8-1.7-1.7-1.7c-1,0-1.7,0.8-1.7,1.7v4.7c0,1,0.8,1.7,1.7,1.7
				C489.2-225.9,490-226.7,490-227.6"/>
		</g>
		<g>
			<path class="st1" d="M436.5-297.8c-0.6,4.5-2.7,8.3-5.8,11c-3.1,2.7-7.2,4.4-11.6,4.4c-0.7,0-1.5,0-2.2-0.1
				c-4.5-0.6-8.3-2.7-11-5.8c-2.7-3.1-4.4-7.2-4.4-11.6c0-0.7,0-1.5,0.1-2.2c0.6-4.5,2.7-8.3,5.8-11c3.1-2.7,7.2-4.4,11.6-4.4
				c0.7,0,1.5,0,2.2,0.1c4.5,0.6,8.3,2.7,11,5.8c2.7,3.1,4.4,7.2,4.4,11.6C436.6-299.2,436.6-298.5,436.5-297.8
				c-0.1,0.8,0.5,1.6,1.3,1.7c0.8,0.1,1.6-0.5,1.7-1.3c0.1-0.9,0.2-1.7,0.2-2.6c0-5.1-1.9-9.9-5.1-13.5c-3.2-3.6-7.7-6.2-12.9-6.8
				c-0.9-0.1-1.7-0.2-2.6-0.2c-5.1,0-9.9,1.9-13.5,5.1c-3.6,3.2-6.2,7.7-6.8,12.9c-0.1,0.9-0.2,1.7-0.2,2.6c0,5.1,1.9,9.9,5.1,13.5
				c3.2,3.6,7.7,6.2,12.9,6.8c0.9,0.1,1.7,0.2,2.6,0.2c5.1,0,9.9-1.9,13.5-5.1c3.6-3.2,6.2-7.7,6.8-12.9c0.1-0.8-0.5-1.6-1.3-1.7
				C437.3-299.2,436.6-298.6,436.5-297.8L436.5-297.8z"/>
			<path class="st1" d="M437.9-302.8c0.2,1.1,0.2,2.2,0.2,3.3c3.8,1.5,6.1,3.1,5.9,4.6c-0.2,1.6-3.1,2.6-7.7,3.1
				c-4.7,0.5-11.2,0.4-18.2-0.5c-7-0.9-13.3-2.3-17.8-3.9c-4.3-1.6-6.9-3.3-6.7-4.9c0.2-1.5,2.8-2.5,6.9-3c0.2-1.1,0.6-2.1,1-3.1
				c-9.7,0.3-16.3,2.1-16.7,5c-0.4,3.1,6.3,6.7,16.5,9.4c4.8,1.3,10.4,2.4,16.5,3.1c6,0.7,11.7,1.1,16.7,1c10.6-0.1,17.9-2,18.3-5.1
				C453.2-296.8,447.2-300.2,437.9-302.8z"/>
		</g>
		<path class="st1" d="M247.5-183.8l-14.7,4.5c-1.8,0.5-3.2,2.4-3.2,4.2v15.3v0.2c0,0-1.1-0.7-3.4-0.4c-3.5,0.5-6.3,3.2-6.3,6
			c0,2.8,2.8,4.5,6.3,4c3.5-0.5,6.1-3.1,6.1-5.9c0,0,0-12,0-13.3c0-1.2,1.5-1.8,1.5-1.8l13-4.1c0,0,1.4-0.5,1.4,0.9
			c0,1.3,0,10.7,0,10.7v0c0,0-1.3-0.8-3.7-0.5c-3.5,0.4-6.3,3-6.3,5.9c0,2.8,2.8,4.6,6.3,4.2c3.5-0.4,6.3-3,6.3-5.9v-21.7
			C250.7-183.3,249.3-184.3,247.5-183.8z"/>
		<g>
			<path class="st1" d="M415.2-113.5h17.6c0,9.7-7.9,17.6-17.6,17.6c-9.7,0-17.6-7.9-17.6-17.6c0-9.7,7.9-17.6,17.6-17.6V-113.5z"/>
			<path class="st1" d="M419.2-118.1h17.6c0-9.7-7.9-17.6-17.6-17.6V-118.1z"/>
		</g>
		<g>
			<polyline class="st1" points="77.7,-95.3 77.7,-101.1 75.3,-101.1 75.3,-95.3 			"/>
			<path class="st1" d="M89.9-135c3.7,3.6,5.6,8.5,5.6,13.4c0,4.1-1.3,8.2-4,11.6c-3.7,4.8-9.3,7.3-15,7.3c-4.1,0-8.2-1.3-11.7-4
				c-0.6-0.5-1.2-1-1.8-1.6c-0.5-0.5-1.2-0.5-1.7,0c-0.5,0.5-0.5,1.2,0,1.7c0.6,0.6,1.3,1.2,2,1.8c3.9,3,8.5,4.5,13.1,4.5
				c6.4,0,12.7-2.8,16.9-8.3c3-3.9,4.5-8.5,4.5-13.1c0-5.5-2.1-11-6.3-15.2c-0.5-0.5-1.2-0.5-1.7,0C89.4-136.2,89.4-135.4,89.9-135
				L89.9-135z"/>
			<g>
				<path class="st1" d="M89.8-129.5l3.5-3.5l-1.7-1.7l-3.2,3.2C88.9-130.8,89.4-130.2,89.8-129.5z"/>
				<path class="st1" d="M66.9-109.3c-0.1-0.1-0.3-0.2-0.4-0.3l-3.4,3.4l1.7,1.7l3.7-3.7C68-108.6,67.5-108.9,66.9-109.3z"/>
			</g>
			<path class="st1" d="M63.3-131.8c-2.4,3-3.5,6.7-3.5,10.3c0,5,2.2,9.9,6.4,13.2c3,2.4,6.7,3.5,10.3,3.5c5,0,9.9-2.2,13.2-6.4
				c2.4-3,3.5-6.7,3.5-10.3c0-5-2.2-9.9-6.4-13.2c-3-2.4-6.7-3.5-10.3-3.5C71.5-138.3,66.6-136,63.3-131.8c-0.4,0.5-0.3,1.3,0.2,1.7
				c0.5,0.4,1.3,0.3,1.7-0.2c2.8-3.6,7-5.5,11.3-5.5c3.1,0,6.2,1,8.8,3c3.6,2.8,5.5,7,5.5,11.3c0,3.1-1,6.2-3,8.8
				c-2.8,3.6-7,5.5-11.3,5.5c-3.1,0-6.2-1-8.8-3c-3.6-2.8-5.5-7-5.5-11.3c0-3.1,1-6.2,3-8.8c0.4-0.5,0.3-1.3-0.2-1.7
				C64.5-132.4,63.7-132.3,63.3-131.8L63.3-131.8z"/>
			<path class="st1" d="M82.5-94.3c-1.3-2-3.5-3.4-6.1-3.4s-4.8,1.3-6.1,3.4H82.5z"/>
			<path class="st1" d="M82.5-94.3l0.8-0.5c-1.4-2.3-4-3.8-6.9-3.8c-2.9,0-5.4,1.5-6.9,3.8c-0.2,0.3-0.2,0.7,0,1
				c0.2,0.3,0.5,0.5,0.8,0.5h12.1c0.3,0,0.7-0.2,0.8-0.5c0.2-0.3,0.2-0.7,0-1L82.5-94.3v-0.9H70.4v0.9l0.8,0.5
				c1.1-1.8,3-2.9,5.3-2.9c2.2,0,4.2,1.2,5.3,2.9L82.5-94.3v-0.9V-94.3z"/>
			<path class="st1" d="M66.8-122.5c1.2-0.4,2.2-0.9,3.4-1.1c1.6-0.3,3.4,0.5,4.9-0.5c1.5-1,2.1-3.8,1.4-5.4c-0.3-0.6-2-1.4-2.5-2.3
				c-0.6-1.2-0.4-2.4-1.2-3.6c-0.3-0.4-0.6-0.8-1-1.1c-2.9,0.9-5.5,2.7-7.6,5.2c-1.4,1.8-2.3,3.9-2.8,6c0.1,0.4,0.2,0.8,0.5,1.1
				C63.3-121.8,64.3-121.7,66.8-122.5z"/>
			<path class="st1" d="M88.1-126.4c-2,1.7-1.4,2.7-4.2,3.5c-2.1,0.7-3.2,1.6-4.5,3.4c-0.9,1.2-4.2,4.9-3.8,6.4
				c0.5,2,3.7,0.3,4.8-0.5c2.4-1.9,3.2-2.5,6.4-2.8c2.1-0.2,3.6-0.4,4.7-2.4c0.1-0.2,0.2-0.4,0.3-0.6c0.4-2.7,0.1-5.4-0.9-7.9
				C89.9-127.3,88.9-127.1,88.1-126.4z"/>
			<path class="st1" d="M64.1-114.6c0.5,0.2,0.8,0.5,1.3,0.8c0.8,0.4,1.7,0.5,2.5,0.3c0.1,0,0.3-0.1,0.4-0.2
				c0.1-0.1,0.1-0.3,0.1-0.5c0-0.4,0-0.7,0-1.1c0-0.6-0.1-1.4-0.7-1.7c-0.2-0.1-0.4-0.1-0.6-0.1c-0.7,0-1.4,0.1-2,0
				c-0.5-0.1-0.9-0.2-1.3-0.3c-0.5-0.1-0.9,0-1.3,0.3c0.1,0.2,0,0.3-0.2,0.4c-0.1,0.1-0.3,0.1-0.4,0.2c0.2,0.6,0.4,1.1,0.7,1.7
				c0.1,0,0.2,0.1,0.3,0.1C63.2-114.8,63.7-114.8,64.1-114.6z"/>
			<path class="st1" d="M85.5-129.5c-0.1-0.1-0.2-0.2-0.3-0.3c-0.3-0.3-0.7-0.5-1.1-0.7c-0.3-0.2-0.7-0.3-1.1-0.2
				c-0.5,0.1-0.8,0.6-1.1,1.1c-0.2,0.3-0.3,0.6-0.5,1c-0.1,0.2-0.2,0.4-0.2,0.6c0,0.2,0.1,0.3,0.2,0.5c0.2,0.3,0.4,0.7,0.8,0.9
				c0.6,0.4,1.6,0.3,2.2-0.2c0.6-0.5,0.9-1.3,1.1-2C85.5-129.1,85.6-129.3,85.5-129.5z"/>
		</g>
		<path class="st1" d="M447.6-33.8c0,0.1,0,0.3-0.1,0.4c0,0.2-0.1,0.3-0.3,0.4c-0.4,0.2-0.7,0.5-0.9,0.8c-0.3,0.3-0.4,0.8-0.5,1.2
			c-0.1,0.4-0.3,0.9-0.4,1.3c-0.2,0.8-0.4,1.7-0.6,2.5c-0.4,1.7-0.8,3.4-1.5,5c-0.3,0.8-0.7,1.5-1.2,2.2c-0.8,1-1.9,1.6-3.1,2
			c-1.2,0.4-2.4,0.5-3.6,0.6c-2,0.1-4.1,0-6.1-0.4c-1.3-0.3-2.6-0.7-3.8-1.3c-1.7-0.9-3-2.3-3.9-3.9c-1.2-2-2.1-4.1-2.8-6.3
			c-0.2-0.5-0.4-1-0.6-1.5c-0.1-0.3-0.3-0.5-0.4-0.7c-0.4-0.5-1-0.6-1.6-0.7c-0.3,0-0.5,0-0.8,0c-0.8,0.1-1.3,0.6-1.6,1.3
			c-0.2,0.5-0.3,1-0.5,1.5c-0.6,1.8-1.2,3.5-2.1,5.2c-0.9,1.7-2,3.1-3.5,4.3c-0.9,0.8-2,1.3-3.2,1.6c-1.6,0.5-3.2,0.7-4.8,0.8
			c-1.6,0.1-3.2,0.1-4.8-0.2c-0.9-0.1-1.8-0.4-2.6-0.7c-1.4-0.6-2.4-1.6-3-2.9c-0.6-1.2-1-2.4-1.3-3.7c-0.3-1.3-0.6-2.7-0.9-4
			c-0.1-0.3-0.2-0.6-0.3-0.8c-0.1-0.5-0.2-0.9-0.4-1.4c-0.2-0.6-0.5-1.2-1.1-1.6c-0.1-0.1-0.3-0.1-0.4-0.2c-0.1-0.1-0.2-0.1-0.2-0.3
			c0-0.2-0.1-0.3-0.1-0.5c0-1,0.1-2.1,0.1-3.1c0-0.2,0.1-0.3,0.3-0.4c0.4-0.1,0.7-0.2,1.1-0.3c1.7-0.2,3.5-0.5,5.2-0.7
			c2.1-0.3,4.3-0.3,6.6-0.3c2.9,0,6,0.2,9.1,0.8c1.6,0.3,3.1,0.8,4.7,1.3c0.8,0.3,1.7,0.5,2.6,0.7c1.5,0.3,2.9,0.1,4.3-0.4
			c0.9-0.3,1.8-0.6,2.7-0.9c1.8-0.6,3.6-0.9,5.5-1.1c3-0.4,6.1-0.4,9.1-0.3c1.6,0.1,3.2,0.1,4.7,0.3c2,0.1,3.9,0.4,5.9,0.7
			c0.1,0,0.3,0.1,0.4,0.1c0.2,0,0.3,0.2,0.3,0.4c0,0.4,0.1,0.9,0.1,1.3C447.6-35,447.6-34.4,447.6-33.8z M388.6-35.3
			c0-0.2-0.5-0.3-1.2-0.3c-0.7,0-1.2,0.1-1.2,0.3c0,0.2,0.5,0.3,1.2,0.3C388.1-35,388.6-35.2,388.6-35.3z M410.9-32.7
			c-0.1-0.7-0.4-1.3-0.9-1.8c-0.3-0.3-0.7-0.5-1.1-0.7c-0.8-0.4-1.6-0.6-2.5-0.8c-2.1-0.5-4.1-0.6-6.6-0.7c-0.7,0-1.8,0.1-2.9,0.2
			c-1.5,0.1-2.9,0.3-4.3,0.7c-1.5,0.4-2.5,1.4-2.9,3c-0.1,0.4-0.1,0.9-0.2,1.3c-0.1,0.9-0.1,1.8,0,2.7c0.2,1.5,0.4,3.1,0.7,4.6
			c0.3,1.2,0.7,2.3,1.4,3.2c0.6,0.9,1.4,1.5,2.4,1.8c0.5,0.1,1,0.3,1.5,0.3c2.6,0.4,5.3,0.2,7.8-0.4c1.3-0.3,2.4-0.9,3.4-1.8
			c0.7-0.7,1.3-1.5,1.8-2.4c0.9-1.6,1.6-3.3,2-5.1C411-29.9,411.1-31.3,410.9-32.7z M442.8-29.2c0-0.8,0-1.7-0.1-2.5
			c0-0.5-0.1-1.1-0.2-1.5c-0.2-0.4-0.4-0.8-0.6-1.2c-0.2-0.4-0.5-0.6-0.8-0.8c-0.4-0.2-0.8-0.4-1.2-0.5c-2.2-0.6-4.5-0.8-7.2-1
			c-0.7,0-1.6,0.1-2.6,0.1c-1.3,0.1-2.5,0.3-3.7,0.5c-1.1,0.2-2.2,0.5-3.3,0.9c-1,0.4-1.7,1.2-1.9,2.3c-0.1,0.5-0.1,0.9-0.1,1.4
			c0,1.1,0.2,2.1,0.4,3.2c0.5,2.2,1.4,4.3,2.9,6.1c1.1,1.4,2.5,2.3,4.3,2.7c1.8,0.4,3.6,0.6,5.4,0.6c1.2,0,2.4-0.1,3.6-0.4
			c0.9-0.3,1.8-0.6,2.5-1.3c0.6-0.6,1.1-1.4,1.4-2.2C442.4-24.9,442.8-27,442.8-29.2z M446.1-35.3c0-0.2-0.5-0.3-1.2-0.3
			c-0.7,0-1.2,0.1-1.2,0.3c0,0.2,0.5,0.3,1.2,0.3C445.6-35,446.1-35.2,446.1-35.3z"/>
		<g>
			<path class="st1" d="M242.5-244.8v-1.3c-6.9,0-13.2-0.9-17.7-2.4c-2.2-0.7-4-1.6-5.1-2.5c-0.6-0.4-1-0.9-1.2-1.2
				c-0.2-0.4-0.3-0.7-0.3-1c0-0.3,0.1-0.6,0.3-1c0.4-0.7,1.3-1.5,2.7-2.2c2.1-1.1,5.1-2.1,8.8-2.8c3.7-0.7,7.9-1.1,12.5-1.1
				c6.9,0,13.2,0.9,17.7,2.4c2.2,0.7,4,1.6,5.1,2.5c0.6,0.4,1,0.9,1.2,1.2c0.2,0.4,0.3,0.7,0.3,1c0,0.3-0.1,0.6-0.3,1
				c-0.4,0.7-1.3,1.5-2.7,2.2c-2.1,1.1-5.1,2.1-8.8,2.8c-3.7,0.7-7.9,1.1-12.5,1.1V-244.8v1.3c7.2,0,13.7-1,18.5-2.5
				c2.4-0.8,4.4-1.7,5.9-2.9c0.7-0.6,1.3-1.2,1.8-1.9c0.4-0.7,0.7-1.5,0.7-2.4c0-0.8-0.3-1.7-0.7-2.4c-0.8-1.2-2-2.2-3.7-3.1
				c-2.4-1.3-5.7-2.3-9.5-3.1c-3.8-0.7-8.2-1.1-13-1.1c-7.2,0-13.7,1-18.5,2.5c-2.4,0.8-4.4,1.7-5.9,2.9c-0.7,0.6-1.3,1.2-1.8,1.9
				c-0.4,0.7-0.7,1.5-0.7,2.4c0,0.8,0.3,1.7,0.7,2.4c0.8,1.2,2,2.2,3.7,3.1c2.4,1.3,5.7,2.3,9.5,3.1c3.8,0.7,8.2,1.1,13,1.1V-244.8z
				"/>
			<path class="st1" d="M249.1-248.3l-1-0.8c-3.5,4.7-7.2,8.5-10.5,11.2c-1.7,1.3-3.3,2.4-4.6,3.1c-1.4,0.7-2.6,1-3.4,1
				c-0.6,0-1-0.1-1.3-0.4c-0.3-0.2-0.5-0.5-0.6-0.9c-0.2-0.4-0.3-1-0.3-1.8c0-2.1,0.8-5.3,2.5-8.9c1.6-3.6,4-7.7,7-11.7
				c3.5-4.7,7.2-8.5,10.5-11.2c1.7-1.3,3.3-2.4,4.6-3.1c1.4-0.7,2.6-1,3.4-1c0.6,0,1,0.1,1.3,0.4c0.3,0.2,0.5,0.5,0.6,0.9
				c0.2,0.4,0.3,1,0.3,1.8c0,2.1-0.8,5.3-2.5,8.9c-1.6,3.6-4,7.7-7,11.7L249.1-248.3l1,0.8c3.1-4.2,5.6-8.4,7.3-12.2
				c1.7-3.8,2.7-7.2,2.7-9.9c0-1-0.1-1.9-0.4-2.7c-0.3-0.8-0.8-1.5-1.5-2.1c-0.8-0.6-1.8-0.9-2.8-0.9c-1.4,0-2.9,0.5-4.5,1.3
				c-2.4,1.2-5.1,3.2-7.8,5.7c-2.7,2.6-5.6,5.7-8.3,9.3c-3.1,4.2-5.6,8.4-7.3,12.2c-1.7,3.8-2.7,7.2-2.7,9.9c0,1,0.1,1.9,0.4,2.7
				c0.3,0.8,0.8,1.5,1.5,2.1c0.8,0.6,1.8,0.9,2.8,0.9c1.4,0,2.9-0.5,4.5-1.3c2.4-1.2,5.1-3.2,7.8-5.7c2.7-2.6,5.6-5.7,8.3-9.3
				L249.1-248.3z"/>
			<path class="st1" d="M235.8-248.3l-1,0.8c3.6,4.8,7.4,8.8,11,11.7c1.8,1.4,3.5,2.6,5.1,3.4c1.6,0.8,3.1,1.3,4.5,1.3
				c1,0,2-0.3,2.8-0.9c0.7-0.5,1.2-1.2,1.5-2.1c0.3-0.8,0.4-1.7,0.4-2.7c0-2.7-1-6.1-2.7-9.9c-1.7-3.8-4.2-8-7.3-12.2
				c-3.6-4.8-7.4-8.8-11-11.7c-1.8-1.4-3.5-2.6-5.1-3.4c-1.6-0.8-3.1-1.3-4.5-1.3c-1,0-2,0.3-2.8,0.9c-0.7,0.5-1.2,1.2-1.5,2.1
				c-0.3,0.8-0.4,1.7-0.4,2.7c0,2.7,1,6.1,2.7,9.9c1.7,3.8,4.2,8,7.3,12.2L235.8-248.3l1-0.8c-3-4-5.4-8.1-7-11.7
				c-1.6-3.6-2.5-6.8-2.5-8.9c0-0.7,0.1-1.4,0.3-1.8c0.2-0.4,0.4-0.7,0.6-0.9c0.3-0.2,0.7-0.3,1.3-0.4c0.8,0,2,0.3,3.4,1
				c2.1,1,4.6,2.9,7.2,5.3c2.6,2.4,5.4,5.5,8,9c3,4,5.4,8.1,7,11.7c1.6,3.6,2.5,6.8,2.5,8.9c0,0.7-0.1,1.4-0.3,1.8
				c-0.2,0.4-0.4,0.7-0.6,0.9c-0.3,0.2-0.7,0.3-1.3,0.4c-0.8,0-2-0.3-3.4-1c-2.1-1-4.6-2.9-7.2-5.3c-2.6-2.4-5.4-5.5-8-9
				L235.8-248.3z"/>
			<circle class="st1" cx="235.2" cy="-271.9" r="3.7"/>
			<circle class="st1" cx="264" cy="-248.5" r="3.7"/>
			<circle class="st1" cx="235.2" cy="-234.8" r="3.7"/>
			<circle class="st1" cx="242.5" cy="-253.2" r="3.9"/>
		</g>
		<g>
			<path class="st1" d="M505.9-150.3l1.1-0.6l-11.3-21.8l-1.1,0.6l1.3,0c0,0,0.1-12.5,0.1-15.2c0-0.8-0.2-1.6-0.5-2.2
				c-0.2-0.5-0.6-0.8-1-1.1c-0.6-0.4-1.2-0.6-1.7-0.7c-0.5-0.1-1-0.1-1.3-0.1c-1.2,0-6.5,0-7.3,0c-0.1,0-0.2,0-0.4,0
				c-0.3,0-0.6,0-1,0.1c-0.3,0.1-0.6,0.2-0.9,0.4c-0.5,0.3-0.8,0.8-1.1,1.4c-0.2,0.6-0.3,1.3-0.3,2.1c0,3.2,0.1,15.2,0.1,15.2l1.3,0
				l-1.1-0.6l-11.3,21.8l0,0c-0.5,1-0.7,2.1-0.7,3c0,1.5,0.6,2.9,1.7,3.9c1.1,1,2.6,1.4,4.4,1.4h13.4h13.4c1.7,0,3.2-0.5,4.4-1.4
				c1.1-0.9,1.7-2.4,1.7-3.9c0-1-0.2-2-0.7-3l0,0l0,0L505.9-150.3l-1.2,0.5c0.3,0.7,0.5,1.4,0.5,2c0,0.9-0.3,1.5-0.8,2
				c-0.5,0.5-1.4,0.8-2.7,0.8h-13.4h-13.4c-1.3,0-2.2-0.4-2.7-0.8c-0.5-0.5-0.8-1.1-0.8-2c0-0.6,0.1-1.2,0.5-2l-1.2-0.5l1.1,0.6
				l11.5-22.1l0-0.3c0,0,0-0.7,0-1.9c0-3.5-0.1-10.9-0.1-13.3c0-0.5,0.1-0.9,0.1-1.1c0.1-0.2,0.1-0.2,0.1-0.3l0.1-0.1
				c0.1,0,0.2,0,0.4,0c0.1,0,0.2,0,0.4,0c0.8,0,6.1,0,7.3,0c0.3,0,0.6,0,0.9,0c0.2,0,0.4,0.1,0.5,0.1c0.2,0.1,0.3,0.1,0.4,0.3
				c0.1,0.1,0.2,0.4,0.2,1c0,1.4,0,5.2-0.1,8.6c0,1.7,0,3.4,0,4.6s0,2,0,2l0,0.3l11.5,22.1L505.9-150.3l-1.2,0.5L505.9-150.3z"/>
			<path class="st1" d="M477.9-146.7h10.4h10.4c3.1,0,4.5-2.1,3.3-4.6l-4.1-7.8c-2.9,0.6-6,1.5-9.2,2.7c-4.4,1.7-8.5,1.9-12,1.5
				l-1.9,3.7C473.4-148.7,474.8-146.7,477.9-146.7z"/>
		</g>
		<g>
			<path class="st1" d="M338.3-67.1c2.9-0.6,4.9-2.8,5-5.2c0-0.1,0-0.2,0-0.3V-88l11.7-2.5V-80c-1-0.3-2.2-0.4-3.4-0.1
				c-3.3,0.7-5.5,3.5-4.9,6.1c0.6,2.7,3.7,4.3,7,3.6c2.9-0.6,4.9-2.8,5-5.2c0-0.1,0-0.2,0-0.3v-16.8v0l0-0.2l0-0.2v0l0-0.1
				c0-0.1-0.1-0.2-0.1-0.3l-0.1-0.1l-0.1-0.2l-0.1-0.1l-0.1-0.1l-0.1-0.1l-0.1-0.1l-0.1-0.1l-0.2-0.1l-0.2-0.1l-0.2-0.1
				c-0.1,0-0.2,0-0.3,0l-0.1,0l0,0l-0.2,0l-0.2,0h0l-15.4,3.2c-0.9,0.2-1.5,0.9-1.5,1.8v12.7c-1-0.3-2.2-0.4-3.4-0.1
				c-3.3,0.7-5.5,3.5-4.9,6.1C331.9-68,335-66.4,338.3-67.1z"/>
			<path class="st1" d="M363.8-55.2c4.7-0.8,5.7-3.7,5.5-7.9c0-1.3-0.1-2.6-0.1-3.9v-5.4c0.7-1.5,4-0.2,4.6-0.1
				c1.7,0.3,3.1-0.2,4.9-2.9l0-0.4l-0.1-0.2l-0.4-0.1c-2.5,0.8-4.3-1.4-6.1-3.2c-2.1-2-3.4-0.8-3.9-0.1c-0.2,0.1-0.4,0.4-0.4,0.8
				v1.4c0,0.3,0,0.6,0,0.9v11.9c-1.8-0.8-3.4-1-5.2-0.4c-1.9,0.7-3.8,2.5-4.2,4.8C357.6-55.4,361.3-54.8,363.8-55.2z"/>
		</g>
		<g>
			<path class="st1" d="M186-36.1l0-1.5l-0.1,0l0,0l0,0l0,0c-3.1,0-5.5,0.9-5.5,0.9l-0.2,0.1l-0.1,0l0.7,1.3l0.7-1.3l-0.1,0
				l-0.2-0.1c-0.1,0-2.5-0.8-5.5-0.9l0,0l0,0l0,0l-0.1,0l0,0c-0.1,0-0.2,0-0.2,0c-1.2,0-2.6,0.1-4,0.5c-2,0.6-4.1,1.8-5.6,3.9
				c-1.5,2.1-2.4,5.1-2.4,9.1c0,2.4,0.6,4.7,1.5,6.9c1.4,3.2,3.5,6.1,5.9,8.1c1.2,1,2.4,1.9,3.6,2.5c1.2,0.6,2.4,1,3.7,1l0.1,0
				l0-1.5l0,1.5l0.1,0c0.7,0,1.5-0.2,2.2-0.5c0.7-0.4,1.3-0.9,1.7-1.6l-1.3-0.8l1.3,0.8l0.1-0.1l-1.3-0.8l-1.3,0.8l0.1,0.1l1.3-0.8
				l-1.3,0.8c0.4,0.7,1,1.3,1.7,1.6c0.7,0.4,1.4,0.5,2.2,0.5l0.1,0l0-1.5l0,1.5l0.1,0c1.6,0,3.3-0.7,4.9-1.7c2.4-1.5,4.8-4,6.6-6.9
				c1.8-2.9,3.1-6.4,3.1-9.9c0-2.7-0.4-4.9-1.1-6.7c-0.5-1.4-1.2-2.5-2.1-3.4c-1.2-1.4-2.8-2.3-4.3-2.8c-1.5-0.5-3.1-0.7-4.5-0.7
				c-0.1,0-0.2,0-0.2,0l0,0L186-36.1l0,1.5l0.2,0c1,0,2.1,0.1,3.1,0.4c1.5,0.4,2.9,1.3,4,2.8c1.1,1.5,1.8,3.8,1.8,7.4
				c0,1.9-0.5,3.8-1.3,5.7c-1.2,2.8-3.1,5.3-5.1,7.1c-1,0.9-2,1.6-2.9,2.1c-0.9,0.5-1.8,0.7-2.3,0.7l0,0l0,0l-0.1,0
				c-0.4,0-0.6-0.1-0.8-0.2c-0.2-0.1-0.4-0.2-0.5-0.5l0,0L182-9.4c-0.3-0.4-0.8-0.7-1.3-0.7s-1,0.3-1.3,0.7l-0.1,0.1l0,0
				c-0.2,0.3-0.3,0.4-0.5,0.5c-0.2,0.1-0.4,0.2-0.8,0.2l-0.1,0l0,0l0,0c-0.8,0-2-0.4-3.3-1.2c-2-1.2-4.1-3.4-5.7-6
				c-1.6-2.6-2.7-5.5-2.7-8.4c0-2.4,0.3-4.2,0.9-5.6c0.4-1,0.9-1.9,1.5-2.5c0.9-1,1.9-1.6,3-1.9c1.1-0.4,2.4-0.5,3.5-0.5l0.2,0l0,0
				l0.1,0l0,0l0,0c1.3,0,2.5,0.2,3.3,0.4c0.4,0.1,0.8,0.2,1,0.2c0.1,0,0.2,0.1,0.3,0.1l0.1,0l0,0l0.1-0.2l-0.1,0.2l0,0l0.1-0.2
				l-0.1,0.2l0.5-1.4L180-34l0.1,0c0.4,0.2,0.9,0.2,1.3,0l0.1,0l-0.7-1.3l0.5,1.4l-0.1-0.2l0.1,0.2l0,0l-0.1-0.2l0.1,0.2
				c0,0,2.2-0.7,4.6-0.7l0,0l0,0l0.1,0l0,0L186-36.1z"/>
			<path class="st1" d="M174.9-43.8l0.3-0.5L174.9-43.8L174.9-43.8l0.3-0.5L174.9-43.8c0,0,1.1,0.7,2.1,2.3c1.1,1.6,2.1,4,2.1,7.6
				c0,0.8,0.7,1.5,1.5,1.5c0.8,0,1.5-0.7,1.5-1.5c0-4.4-1.4-7.5-2.8-9.5c-1.4-2-2.8-2.9-2.9-3c-0.7-0.4-1.6-0.2-2,0.5
				C174-45.2,174.2-44.2,174.9-43.8L174.9-43.8z"/>
			<path class="st1" d="M188.9-41.8c-3.5,2.5-6.5,1-7.3-0.1c-0.8-1.1-1.2-4.5,2.3-7c3.5-2.5,8.8-0.9,8.8-0.9S192.3-44.3,188.9-41.8z
				"/>
		</g>
		<polygon class="st1" points="286.7,-284.9 278,-299.9 286.7,-315 304.1,-315 312.7,-299.9 304.1,-284.9 		"/>
		<g>
			<path class="st3" d="M140-152c-0.6-0.5-1.2-0.8-1.7-1.1l0,0C138.8-152.8,139.4-152.4,140-152L140-152"/>
			<path class="st3" d="M115.5-153L115.5-153c-0.5,0.2-1.1,0.6-1.7,1.1l0,0C114.4-152.4,115-152.8,115.5-153"/>
			<path class="st1" d="M114.2-162.5c0-1,0.1-2,0.2-3c-2.8,1.3-4.7,3.3-5.8,5.4c-1.1,2.2-1.5,4.5-1.5,6.5c0,3.7,1.1,6.7,1.2,6.8
				c0.3,0.7,1,1.1,1.7,1.1c0.7-0.1,1.3-0.6,1.5-1.3c0.3-1.6,0.8-2.8,1.4-3.8c0.7-1.2,1.6-1.9,2.4-2.4
				C114.7-156.1,114.2-159.1,114.2-162.5z"/>
			<path class="st1" d="M128.7-173.8c0,1-0.8,1.8-1.8,1.8c-1,0-1.8-0.8-1.8-1.8c0-1,0.8-1.8,1.8-1.8
				C127.9-175.6,128.7-174.8,128.7-173.8c0,0.7,0.6,1.3,1.3,1.3c0.7,0,1.3-0.6,1.3-1.3c0-2.5-2-4.4-4.4-4.4c-2.5,0-4.4,2-4.4,4.4
				c0,2.5,2,4.4,4.4,4.4c2.5,0,4.4-2,4.4-4.4c0-0.7-0.6-1.3-1.3-1.3C129.3-175.1,128.7-174.5,128.7-173.8L128.7-173.8z"/>
			<path class="st1" d="M140.8-162.5c0,4.4-0.7,8.4-1.9,11.7v0c0,0,0,0,0,0c0,0,0,0.1-0.1,0.1c0,0,0,0.1-0.1,0.1
				c0,0-0.1,0.1-0.1,0.1c0,0-0.1,0.1-0.1,0.1c0,0-0.1,0.1-0.1,0.1c0,0-0.1,0.1-0.1,0.1c0,0-0.1,0-0.1,0.1c0,0-0.1,0-0.1,0.1
				c0,0-0.1,0-0.1,0c0,0-0.1,0-0.1,0c0,0-0.1,0-0.1,0c0,0-0.1,0-0.1,0c0,0,0,0,0,0H116c-0.6,0-1.1-0.4-1.2-0.9
				c-1.2-3.3-1.9-7.3-1.9-11.7c0-3.4,0.8-6.6,2.1-9.6c1.2-3,2.9-5.7,4.5-8c3.2-4.6,6.5-7.6,6.5-7.6c0.5-0.5,1.3-0.5,1.8,0
				c0,0,1.8,1.7,4.1,4.5c2.3,2.8,5,6.7,6.9,11.1C140-169.1,140.8-165.9,140.8-162.5z M117-152.6h19.8c0.9-2.8,1.4-6.2,1.4-9.9
				c0-2.9-0.7-5.7-1.8-8.5c-1.1-2.7-2.6-5.2-4.1-7.4c-0.6-0.9-1.2-1.7-1.8-2.4h-7.2c-2,2.6-4.3,5.9-5.8,9.7
				c-1.1,2.7-1.9,5.7-1.9,8.6C115.6-158.8,116.1-155.4,117-152.6z"/>
			<path class="st4" d="M139.4-164.7L139.4-164.7L139.4-164.7 M139.4-164.7L139.4-164.7L139.4-164.7 M139.4-164.6L139.4-164.6
				L139.4-164.6 M139.4-164.6L139.4-164.6L139.4-164.6 M139.4-164.5L139.4-164.5L139.4-164.5 M139.4-164.5L139.4-164.5L139.4-164.5
				 M139.4-164.5L139.4-164.5L139.4-164.5 M139.4-164.4L139.4-164.4L139.4-164.4 M139.4-164.4L139.4-164.4L139.4-164.4 M139.4-164.4
				L139.4-164.4L139.4-164.4 M139.4-164.3L139.4-164.3L139.4-164.3 M139.4-164.3L139.4-164.3L139.4-164.3 M139.4-164.3L139.4-164.3
				L139.4-164.3 M139.4-164.2L139.4-164.2L139.4-164.2 M139.4-164.2L139.4-164.2L139.4-164.2 M139.4-164.2L139.4-164.2L139.4-164.2
				 M139.4-164.1L139.4-164.1L139.4-164.1 M139.4-164.1L139.4-164.1L139.4-164.1 M139.4-164L139.4-164L139.4-164 M139.4-164
				L139.4-164L139.4-164 M139.4-164L139.4-164L139.4-164 M139.4-163.9L139.4-163.9L139.4-163.9 M139.4-163.9L139.4-163.9
				L139.4-163.9 M139.4-163.9L139.4-163.9L139.4-163.9 M139.4-163.8L139.4-163.8L139.4-163.8 M139.5-163.8L139.5-163.8L139.5-163.8
				 M139.5-163.8L139.5-163.8L139.5-163.8 M139.5-163.7L139.5-163.7L139.5-163.7 M139.5-163.7L139.5-163.7L139.5-163.7 M139.5-163.6
				L139.5-163.6L139.5-163.6 M139.5-163.6L139.5-163.6L139.5-163.6 M139.5-163.6L139.5-163.6L139.5-163.6 M139.5-163.5L139.5-163.5
				L139.5-163.5 M139.5-163.5L139.5-163.5L139.5-163.5 M139.5-163.5L139.5-163.5L139.5-163.5 M139.5-163.4L139.5-163.4L139.5-163.4
				 M139.5-163.4L139.5-163.4L139.5-163.4 M139.5-163.4L139.5-163.4L139.5-163.4 M139.5-163.3L139.5-163.3L139.5-163.3 M139.5-163.3
				L139.5-163.3L139.5-163.3 M139.5-163.2L139.5-163.2L139.5-163.2 M139.5-163.2L139.5-163.2L139.5-163.2 M139.5-163.2L139.5-163.2
				L139.5-163.2 M139.5-163.1L139.5-163.1L139.5-163.1 M139.5-163.1L139.5-163.1L139.5-163.1 M139.5-163.1L139.5-163.1L139.5-163.1
				 M139.5-163L139.5-163L139.5-163 M139.5-163L139.5-163L139.5-163 M139.5-163L139.5-163L139.5-163 M139.5-162.9L139.5-162.9
				L139.5-162.9 M139.5-162.9L139.5-162.9L139.5-162.9 M139.5-162.8L139.5-162.8L139.5-162.8 M139.5-162.8L139.5-162.8L139.5-162.8
				 M139.5-162.8L139.5-162.8L139.5-162.8 M139.5-162.2L139.5-162.2L139.5-162.2 M139.5-162.7L139.5-162.7L139.5-162.7 M139.5-162.3
				L139.5-162.3L139.5-162.3 M139.5-162.7L139.5-162.7L139.5-162.7 M139.5-162.3L139.5-162.3L139.5-162.3 M139.5-162.7L139.5-162.7
				L139.5-162.7 M139.5-162.4L139.5-162.4L139.5-162.4 M139.5-162.6L139.5-162.6L139.5-162.6 M139.5-162.4L139.5-162.4L139.5-162.4
				 M139.5-162.6L139.5-162.6L139.5-162.6 M139.5-162.5L139.5-162.5L139.5-162.5 M139.5-162.5L139.5-162.5L139.5-162.5L139.5-162.5"
				/>
			<path class="st1" d="M115-155.3h23.8c0.9,0,1.6-0.7,1.6-1.6c0-0.9-0.7-1.6-1.6-1.6H115c-0.9,0-1.6,0.7-1.6,1.6
				C113.3-156.1,114.1-155.3,115-155.3"/>
			<path class="st1" d="M145.1-160.1c-1.1-2.1-3-4.1-5.9-5.4c0.2,1,0.2,2,0.2,3c0,3.4-0.4,6.5-1.1,9.2c0.2,0.1,0.4,0.3,0.6,0.4
				c0.7,0.5,1.3,1.2,1.9,2.1c0.6,0.9,1.1,2.1,1.4,3.7c0.1,0.7,0.7,1.3,1.5,1.3c0.7,0.1,1.4-0.4,1.7-1.1c0-0.1,1.2-3,1.2-6.8
				C146.6-155.6,146.3-157.9,145.1-160.1z"/>
		</g>
		<g>
			<line class="st1" x1="229.7" y1="-73.3" x2="250.8" y2="-73.3"/>
			<path class="st1" d="M250.8-69.9h-21.1c-1.9,0-3.4-1.5-3.4-3.4s1.5-3.4,3.4-3.4h21.1c1.9,0,3.4,1.5,3.4,3.4
				S252.7-69.9,250.8-69.9z"/>
		</g>
		<g>
			<path class="st1" d="M364.5-180.4l0.4-0.8c-2.8-1.3-5.8-3.2-9.1-3.8c-1.1-0.2-2.3-0.3-3.4-0.3c-2.4,0-4.9,0.3-7.1,0.5
				c-4.4,0.3-8.6,2.3-11.7,5.3c-3.2,3.1-5.3,7.2-5.6,11.8c0,0.3,0,0.5,0,0.8c0,2.3,0.6,4.7,1.6,6.9c1,2.2,2.5,4.1,4.4,5.5
				c1.5,1.1,3.1,1.8,4.8,2.3c1.7,0.6,3.4,1,4.9,1.4c2.9,0.9,6.2,2.3,9.6,2.3c0.2,0,0.5,0,0.7,0c2.4-0.1,4.5-1,6.4-2.1
				c1.9-1.1,3.5-2.5,5.2-3.8c4.4-3.4,7.1-9.1,7.1-14.5c0-2.5-0.6-4.9-1.8-7c-1.3-2.1-3.2-4-5.9-5.2L364.5-180.4l-0.4,0.8
				c2.4,1.1,4.1,2.7,5.1,4.5c1.1,1.8,1.6,3.9,1.6,6.1c0,4.9-2.5,10.1-6.5,13.1c-1.7,1.3-3.3,2.7-5,3.7c-1.7,1-3.5,1.7-5.6,1.9
				c-0.2,0-0.4,0-0.6,0c-2.9,0-6.1-1.3-9.1-2.2c-1.6-0.5-3.3-0.9-4.9-1.4c-1.6-0.5-3.1-1.2-4.3-2.1c-1.6-1.2-2.9-2.9-3.8-4.8
				c-0.9-1.9-1.4-4.1-1.4-6.1c0-0.2,0-0.5,0-0.7c0.2-4.1,2.2-7.9,5-10.7c2.9-2.8,6.7-4.6,10.6-4.8c2.3-0.1,4.7-0.5,6.9-0.5
				c1.1,0,2.1,0.1,3.1,0.3c2.9,0.5,5.8,2.3,8.7,3.7L364.5-180.4z"/>
			<path class="st1" d="M359.6-160.9c-0.1,0.4-0.2,0.9-0.3,1.5c-0.2,0.8-0.3,1.8-0.5,2.6c-0.1,0.4-0.2,0.7-0.3,1
				c-0.1,0.3-0.2,0.4-0.3,0.4c-0.1,0.1-0.5,0.3-0.9,0.4c-0.7,0.2-1.7,0.3-2.6,0.3c-0.9,0.1-1.8,0.1-2.5,0.2l0.3,1.7
				c0.3-0.1,0.8-0.1,1.4-0.1c0.9-0.1,1.9-0.1,2.9-0.3c0.5-0.1,1-0.2,1.4-0.3c0.4-0.1,0.8-0.3,1.2-0.6c0.2-0.2,0.4-0.4,0.5-0.7
				c0.2-0.4,0.4-0.9,0.6-1.4c0.2-0.8,0.4-1.6,0.5-2.4c0.1-0.8,0.3-1.5,0.4-1.8L359.6-160.9L359.6-160.9z"/>
			<path class="st1" d="M363.1-181.2c-0.8,1.4-1.7,2.5-2.3,3.5c-0.3,0.5-0.6,1-0.8,1.5c-0.2,0.5-0.3,1-0.3,1.6
				c0,0.8,0.3,1.6,0.8,2.3c0.5,0.8,1.2,1.6,2.2,2.5c0.4,0.3,0.9,0.3,1.2,0s0.3-0.9,0-1.2c-1-0.9-1.6-1.6-2-2.2
				c-0.4-0.6-0.5-1-0.5-1.4c0-0.3,0.1-0.6,0.2-0.9c0.2-0.5,0.6-1.1,1.1-1.9c0.5-0.8,1.2-1.7,1.8-2.8c0.3-0.4,0.1-1-0.3-1.2
				C363.9-181.7,363.4-181.6,363.1-181.2L363.1-181.2z"/>
			<path class="st1" d="M361.4-177.1c-1.6-1.4-2.8-2.3-3.9-2.8c-1.2-0.6-2.3-0.8-3.7-0.7c-1,0-2.2,0.1-3.7,0.2
				c-0.5,0-0.9,0.5-0.8,0.9c0,0.5,0.5,0.9,0.9,0.8c1.5-0.1,2.7-0.2,3.6-0.2c1.3,0,2.1,0.1,3,0.6c0.9,0.4,2,1.2,3.6,2.6
				c0.4,0.3,0.9,0.3,1.2-0.1C361.8-176.3,361.7-176.8,361.4-177.1L361.4-177.1z"/>
			<path class="st1" d="M343.9-183.6c-0.1,1-0.2,1.9-0.2,2.8c0,1.4,0.2,2.6,0.7,3.6c0.4,0.7,0.9,1.4,1.5,1.8c1,0.7,2.2,1.1,3.6,1.3
				c1.4,0.2,3,0.3,4.9,0.3c0.5,0,0.9-0.4,0.9-0.9c0-0.5-0.4-0.9-0.9-0.9c-1.6,0-3,0-4.2-0.2c-0.9-0.1-1.6-0.3-2.2-0.5
				c-0.9-0.4-1.5-0.8-1.9-1.5c-0.4-0.7-0.7-1.7-0.7-3.1c0-0.7,0.1-1.6,0.2-2.5c0.1-0.5-0.3-0.9-0.8-1
				C344.4-184.4,344-184.1,343.9-183.6L343.9-183.6z"/>
			<path class="st1" d="M370.9-167.9c-2.8,0.5-5,1.1-7,1.1c-1.7,0-3.2-0.4-5.1-1.7c-1.1-0.8-2-1.3-2.8-1.7c-0.8-0.4-1.6-0.5-2.4-0.5
				c-0.8,0-1.6,0.2-2.4,0.4c-0.9,0.2-1.9,0.5-3.1,0.8c-0.5,0.1-0.8,0.6-0.6,1.1c0.1,0.5,0.6,0.8,1.1,0.6c1.3-0.3,2.3-0.6,3.1-0.8
				c0.8-0.2,1.5-0.3,2-0.3c0.5,0,1,0.1,1.7,0.4c0.7,0.3,1.5,0.8,2.5,1.5c2.2,1.5,4.2,2.1,6.2,2.1c2.3,0,4.6-0.7,7.3-1.2
				c0.5-0.1,0.8-0.5,0.7-1C371.9-167.7,371.4-168,370.9-167.9L370.9-167.9z"/>
			<path class="st1" d="M347-175.2c-1.2,1.3-2.4,2.9-3.3,4.4c-0.9,1.6-1.5,3.1-1.5,4.7c0,0.6,0.1,1.2,0.4,1.8c0.4,0.9,1.1,1.5,2.1,2
				c1,0.4,2.3,0.7,3.8,0.7c0.4,0,0.8,0,1.2,0c0.4,0,0.9-0.2,1.3-0.3c0.6-0.2,1.3-0.5,1.9-0.8c0.3-0.1,0.5-0.2,0.7-0.3
				c0.1,0,0.2-0.1,0.2-0.1l0.1,0l0,0l0-0.2v0.2l0,0l0-0.2v0.2v-0.4l-0.1,0.4l0.1,0v-0.4l-0.1,0.4c0.3,0,0.5,0.1,0.8,0.3
				c0.3,0.2,0.7,0.5,1.1,0.9c0.4,0.4,0.9,0.8,1.5,1.1c2,0.9,3.9,1.2,5.7,1.2c2.3,0,4.6-0.5,7.1-1.1c0.5-0.1,0.8-0.6,0.7-1.1
				c-0.1-0.5-0.6-0.8-1.1-0.7c-2.5,0.6-4.6,1.1-6.7,1.1c-1.6,0-3.2-0.3-4.9-1.1c-0.5-0.2-0.9-0.6-1.5-1.2c-0.3-0.3-0.6-0.5-1-0.7
				c-0.4-0.2-0.9-0.4-1.4-0.5l-0.2,0c-0.2,0-0.4,0-0.6,0.1c-0.6,0.2-1.3,0.5-2,0.8c-0.3,0.1-0.7,0.3-1,0.4c-0.3,0.1-0.6,0.2-0.7,0.2
				c-0.4,0-0.7,0-1.1,0c-1.9,0-3.1-0.4-3.7-0.8c-0.3-0.2-0.5-0.5-0.7-0.8c-0.1-0.3-0.2-0.6-0.2-1.1c0-1,0.5-2.4,1.3-3.8
				c0.8-1.4,1.9-2.9,3-4.1c0.3-0.4,0.3-0.9-0.1-1.2C347.9-175.6,347.3-175.6,347-175.2L347-175.2z"/>
			<path class="st1" d="M353.2-160.5c-0.9,3.2-2.5,7.3-3.1,10.7c-0.1,0.5,0.2,0.9,0.7,1c0.5,0.1,0.9-0.2,1-0.7
				c0.6-3.2,2.1-7.3,3.1-10.6c0.1-0.5-0.1-1-0.6-1.1S353.4-160.9,353.2-160.5L353.2-160.5z"/>
			<path class="st1" d="M346.8-161.8c0.2,1.2,0.3,2.2,0.3,3.1c0,1.2-0.2,2.2-0.6,3.3c-0.4,1.1-1.1,2.3-1.9,3.9
				c-0.2,0.4-0.1,1,0.3,1.2c0.4,0.2,1,0.1,1.2-0.3c0.9-1.6,1.6-2.8,2-4.1c0.5-1.3,0.7-2.5,0.7-4c0-1-0.1-2.1-0.4-3.4
				c-0.1-0.5-0.6-0.8-1-0.7C347-162.8,346.7-162.3,346.8-161.8L346.8-161.8z"/>
			<path class="st1" d="M339.9-152.3c1.4-1.1,2.4-1.8,3.1-2.8c0.4-0.5,0.7-1,1-1.7c0.3-0.6,0.5-1.4,0.8-2.3c0.1-0.5-0.1-1-0.6-1.1
				s-1,0.1-1.1,0.6c-0.2,0.9-0.5,1.5-0.7,2c-0.3,0.8-0.7,1.3-1.2,1.8c-0.5,0.5-1.3,1.1-2.4,2c-0.4,0.3-0.5,0.9-0.2,1.2
				C339-152,339.5-152,339.9-152.3L339.9-152.3z"/>
			<path class="st1" d="M342.3-164.6c-1.5,2.3-2.6,4.5-3.7,7c-0.2,0.4,0,1,0.5,1.2c0.4,0.2,1,0,1.2-0.5c1-2.4,2.1-4.5,3.5-6.7
				c0.3-0.4,0.2-1-0.3-1.2C343.1-165.1,342.5-165,342.3-164.6L342.3-164.6z"/>
			<path class="st1" d="M335.3-163.8l-0.1-0.2L335.3-163.8L335.3-163.8l-0.1-0.2L335.3-163.8c0,0,1.5-0.9,3.1-0.8c0.3,0,0.7,0,1,0.1
				c0.5,0.1,1-0.2,1.1-0.6c0.1-0.5-0.2-1-0.6-1.1c-0.5-0.1-1-0.2-1.5-0.2c-2.2,0-3.9,1.1-4,1.1c-0.4,0.2-0.6,0.8-0.3,1.2
				C334.4-163.7,334.9-163.6,335.3-163.8L335.3-163.8z"/>
			<path class="st1" d="M337.8-182.3c-0.7,2-1.2,3.4-1.3,4.7c0,0.5,0.1,1,0.3,1.5c0.3,0.7,1,1.3,1.7,1.7c0.8,0.5,1.8,0.9,3.1,1.3
				c0.5,0.1,1-0.1,1.1-0.6c0.1-0.5-0.1-1-0.6-1.1c-1.6-0.5-2.7-1-3.2-1.5c-0.3-0.2-0.4-0.4-0.5-0.6c-0.1-0.2-0.1-0.4-0.2-0.7
				c0-0.8,0.4-2.2,1.1-4.1c0.2-0.5-0.1-1-0.5-1.1C338.5-183,338-182.7,337.8-182.3L337.8-182.3z"/>
			<path class="st1" d="M331.4-175.8l3.2,5.8c0.2,0.4,0.8,0.6,1.2,0.4c0.4-0.2,0.6-0.8,0.4-1.2l-3.2-5.8c-0.2-0.4-0.8-0.6-1.2-0.4
				C331.3-176.8,331.2-176.2,331.4-175.8"/>
			<path class="st1" d="M342.9-170c-2.2-0.6-4.3-1-6.1-1c-1.2,0-2.3,0.2-3.3,0.6c-0.4,0.2-0.8,0.5-1,0.9c-0.3,0.4-0.4,0.9-0.4,1.3
				c0,0.7,0.2,1.5,0.6,2.3c0.3,0.8,0.8,1.8,1.3,2.9c0.3,0.6,0.4,1,0.6,1.4c0.1,0.3,0.2,0.6,0.2,0.7c0,0.1,0,0.2-0.1,0.4
				c-0.1,0.2-0.4,0.6-0.8,1.1c-0.4,0.5-1,1.2-1.8,2.1c-0.3,0.4-0.3,0.9,0.1,1.2c0.4,0.3,0.9,0.3,1.2-0.1c1-1.2,1.7-1.9,2.2-2.5
				c0.3-0.3,0.5-0.6,0.6-1c0.2-0.3,0.3-0.7,0.3-1.1c0-0.4-0.1-0.8-0.2-1.3c-0.1-0.4-0.4-0.9-0.6-1.5c-0.5-1.1-0.9-2.1-1.2-2.9
				c-0.3-0.8-0.4-1.3-0.4-1.6c0-0.2,0-0.3,0.1-0.3c0-0.1,0.1-0.2,0.4-0.3c0.5-0.3,1.4-0.4,2.5-0.4c1.6,0,3.6,0.3,5.6,0.9
				c0.5,0.1,1-0.1,1.1-0.6C343.6-169.3,343.3-169.8,342.9-170L342.9-170z"/>
			<path class="st1" d="M368.8-177.7c-1.2,0.4-2.1,0.8-2.7,1.5c-0.6,0.6-0.9,1.4-0.9,2.2c0,1.3,0.6,2.3,1.2,3.1
				c0.6,0.8,1.1,1.3,1.1,1.3c0.4,0.3,0.9,0.3,1.2,0c0.3-0.4,0.3-0.9,0-1.2l0,0c0,0-0.5-0.5-1-1.1c-0.5-0.6-0.8-1.4-0.8-2
				c0-0.4,0.1-0.6,0.4-1c0.3-0.3,0.9-0.7,1.9-1c0.5-0.1,0.7-0.6,0.6-1.1C369.8-177.5,369.3-177.8,368.8-177.7L368.8-177.7z"/>
		</g>
	</g>
</pattern>
<rect x="-26.5" y="-20.6" class="st5" width="546.9" height="549.2"/>
<pattern  id="SVGID_1_" xlink:href="#New_Pattern_5" patternTransform="matrix(1.0447 0 0 1.0447 -101.3981 134.1468)">
</pattern>
<rect x="-210.8" y="-35.2" class="st6" width="919.6" height="570.8"/>
<g>
	<path class="st7" d="M451.3,181.1H43.2c-8.6,0-15.6,7-15.6,15.6v56.7c0,8.6,7,15.6,15.6,15.6h408.1c8.6,0,15.6-7,15.6-15.6v-56.7
		C466.9,188.1,459.9,181.1,451.3,181.1"/>
	<polygon class="st2" points="84.2,244.6 76.6,244.6 58.1,221.9 58.1,244.6 48.8,244.6 48.8,204.5 57.1,204.5 74.6,226.7 
		74.6,204.5 84.2,204.5 	"/>
	<path class="st2" d="M110,227.3v-2.2c0-1.3-0.3-2.3-1-3.2c-0.7-1-1.7-1.4-2.9-1.4c-1.4,0-2.4,0.5-3.1,1.4c-0.7,0.9-1.1,2.1-1.1,3.4
		v2H110z M119.6,232.1h-17.9c0,1.8,0.6,3.3,1.8,4.7c1.3,1.4,3,2.1,5.3,2.1c1.4,0,3-0.3,4.9-0.9c1.5-0.5,2.4-0.8,2.7-1.1l2.9,5.6
		c-1.7,0.8-3.7,1.6-6,2.2c-2.3,0.6-4.5,1-6.6,1c-4.7,0-8.6-1.5-11.9-4.6s-4.9-6.8-4.9-11.3c0-4.2,1.6-7.7,4.8-10.4
		c3.1-2.6,6.9-3.9,11.4-3.9c4.5,0,7.9,1.5,10.3,4.3c2.2,2.6,3.2,5.9,3.2,10c0,0.4,0,0.8-0.1,1.2
		C119.6,231.5,119.6,231.9,119.6,232.1"/>
	<polygon class="st2" points="155.5,244.2 143.2,245.8 138.1,237.1 131.8,246 122.6,244.5 132.9,230.6 123.8,217.3 135.8,215.7 
		140.2,223 144.9,215.6 153.8,216.9 144.5,229.2 	"/>
	<path class="st2" d="M181.3,243.6c-1.2,0.4-2.3,0.8-3.1,1c-2.5,0.7-4.8,1-6.9,1c-1.2,0-2.3-0.1-3.3-0.3c-1-0.2-2-0.6-2.9-1.1
		c-1.6-1-2.7-2.2-3.3-3.8c-0.4-1-0.6-2.3-0.6-3.8v-1.2v-14.1h-3.9v-5.2h3.9v-6.7l11.3-1.8v8.6h7.6v5.2h-7.5v10.8
		c0,1.9,0.1,3.3,0.3,4.1c0.2,0.8,0.7,1.5,1.5,2.1c0.7,0.5,1.6,0.8,2.6,0.8c0.6,0,1.1-0.1,1.7-0.2c0.5-0.2,1-0.3,1.3-0.4L181.3,243.6
		z"/>
	<polygon class="st2" points="214.3,244.6 187.5,244.6 187.5,204.6 199.5,204.6 199.5,237.1 214.3,237.1 	"/>
	<path class="st2" d="M236,227.3v-2.2c0-1.3-0.3-2.3-1-3.2c-0.7-1-1.7-1.4-2.9-1.4c-1.4,0-2.4,0.5-3.1,1.4c-0.7,0.9-1.1,2.1-1.1,3.4
		v2H236z M245.6,232.1h-17.9c0,1.8,0.6,3.3,1.8,4.7c1.3,1.4,3,2.1,5.3,2.1c1.4,0,3-0.3,4.9-0.9c1.5-0.5,2.4-0.8,2.7-1.1l2.9,5.6
		c-1.7,0.8-3.7,1.6-6,2.2c-2.3,0.6-4.5,1-6.6,1c-4.7,0-8.6-1.5-11.9-4.6c-3.3-3.1-4.9-6.8-4.9-11.3c0-4.2,1.6-7.7,4.8-10.4
		c3.1-2.6,6.9-3.9,11.4-3.9c4.5,0,7.9,1.5,10.3,4.3c2.2,2.6,3.2,5.9,3.2,10c0,0.4,0,0.8-0.1,1.2S245.6,231.9,245.6,232.1"/>
	<path class="st2" d="M272.2,236.7c0,2.6-1.2,4.8-3.7,6.6c-2.4,1.7-5.2,2.6-8.6,2.6c-1.7,0-3.4-0.2-5.2-0.7
		c-1.2-0.3-2.4-0.8-3.7-1.4c-0.5-0.2-0.9-0.5-1.4-0.7l2.4-5.7c0.8,0.6,1.5,1.1,2,1.4c1.6,1,2.9,1.4,4,1.4h0.4c0.8-0.1,1.5-0.4,2-0.8
		c0.5-0.5,0.8-1,0.8-1.7c0-0.2,0-0.4-0.1-0.6c-0.3-1-1.3-2-3.1-3.2c-2.5-1.6-4.1-2.8-4.7-3.5c-1.6-1.7-2.4-3.6-2.4-5.8
		c0-2.6,1.2-4.8,3.7-6.4c2.2-1.5,4.6-2.2,7.3-2.2c2.2,0,4.4,0.4,6.7,1.1c0.7,0.2,1.6,0.6,2.7,1.1l-2.4,4.9c-0.2-0.3-0.8-0.6-1.6-0.8
		c-0.8-0.3-1.6-0.4-2.2-0.4c-0.8,0-1.4,0.2-2,0.5c-0.5,0.3-0.8,0.8-0.8,1.5c0,1,0.4,1.9,1.2,2.7c0.2,0.2,1.1,0.9,2.7,1.8
		c2.1,1.4,3.6,2.6,4.4,3.7C271.6,233.3,272.2,234.9,272.2,236.7"/>
	<path class="st2" d="M299.1,236.7c0,2.6-1.2,4.8-3.7,6.6c-2.4,1.7-5.2,2.6-8.6,2.6c-1.7,0-3.4-0.2-5.2-0.7
		c-1.2-0.3-2.4-0.8-3.7-1.4c-0.5-0.2-0.9-0.5-1.4-0.7l2.4-5.7c0.8,0.6,1.5,1.1,2,1.4c1.6,1,2.9,1.4,4,1.4h0.4c0.8-0.1,1.5-0.4,2-0.8
		c0.5-0.5,0.7-1,0.7-1.7c0-0.2,0-0.4-0.1-0.6c-0.3-1-1.3-2-3.1-3.2c-2.5-1.6-4.1-2.8-4.7-3.5c-1.6-1.7-2.4-3.6-2.4-5.8
		c0-2.6,1.2-4.8,3.7-6.4c2.2-1.5,4.6-2.2,7.3-2.2c2.2,0,4.4,0.4,6.7,1.1c0.7,0.2,1.6,0.6,2.7,1.1l-2.4,4.9c-0.2-0.3-0.8-0.6-1.6-0.8
		c-0.8-0.3-1.6-0.4-2.2-0.4c-0.8,0-1.4,0.2-2,0.5c-0.5,0.3-0.8,0.8-0.8,1.5c0,1,0.4,1.9,1.2,2.7c0.2,0.2,1.1,0.9,2.7,1.8
		c2.1,1.4,3.6,2.6,4.4,3.7C298.6,233.3,299.1,234.9,299.1,236.7"/>
	<path class="st2" d="M324.3,230.6c0-2.6-0.3-4.8-0.9-6.4c-0.8-2.2-2.1-3.3-3.8-3.3c-1.7,0-3,1.1-3.9,3.3c-0.8,1.8-1.2,4-1.2,6.5
		c0,2.6,0.3,4.8,1,6.6c0.9,2.3,2.1,3.5,3.7,3.5h0.4c1.7-0.2,2.9-1.4,3.8-3.6C324,235.4,324.3,233.2,324.3,230.6 M335.9,230.7
		c0,4.3-1.6,7.9-4.7,10.8c-3.2,2.9-7,4.3-11.6,4.3c-4.9,0-8.9-1.4-11.9-4.3c-3-2.9-4.6-6.7-4.6-11.3c0-4.5,1.6-8.1,4.9-10.7
		c3-2.4,6.9-3.6,11.6-3.6c4.6,0,8.4,1.3,11.5,4C334.3,222.7,335.9,226.3,335.9,230.7"/>
	<path class="st2" d="M373,244.6h-11.4v-16.1c0-1.8-0.2-3-0.5-3.8c-0.5-1.2-1.5-1.8-3.1-1.8c-1.3,0-2.3,0.5-3.2,1.5
		c-0.9,1-1.3,2.2-1.3,3.5v16.7h-11.1v-28.5h11.1v4.8c1-1.7,2.4-2.9,4-3.7c1.6-0.8,3.5-1.2,5.6-1.2c2.8,0,5.1,0.8,6.9,2.3
		c2,1.7,3,4,3,7V244.6z"/>
	<path class="st7" d="M41.3,183.9c-6.4,0-11.6,5.2-11.6,11.6v59.6c0,6.4,5.2,11.6,11.6,11.6h411.5c6.4,0,11.6-5.2,11.6-11.6v-59.6
		c0-6.4-5.2-11.6-11.6-11.6H41.3z M41.3,273.4c-10.1,0-18.4-8.2-18.4-18.4v-59.6c0-10.1,8.2-18.4,18.4-18.4h411.5
		c10.1,0,18.4,8.2,18.4,18.4v59.6c0,10.1-8.2,18.4-18.4,18.4H41.3z"/>
	<path class="st2" d="M41.3,265.2c-5.6,0-10.1-4.5-10.1-10.1v-59.6c0-5.6,4.5-10.1,10.1-10.1h411.5c5.6,0,10.1,4.5,10.1,10.1v59.6
		c0,5.6-4.5,10.1-10.1,10.1H41.3z M452.7,175.6H41.3c-11,0-19.9,8.9-19.9,19.9v59.6c0,11,8.9,19.9,19.9,19.9h411.5
		c11,0,19.9-8.9,19.9-19.9v-59.6C472.6,184.6,463.7,175.6,452.7,175.6 M41.3,268.2h411.5c7.2,0,13.1-5.9,13.1-13.1v-59.6
		c0-7.2-5.9-13.1-13.1-13.1H41.3c-7.2,0-13.1,5.9-13.1,13.1v59.6C28.1,262.3,34,268.2,41.3,268.2 M452.7,178.6
		c9.3,0,16.9,7.6,16.9,16.9v59.6c0,9.3-7.6,16.9-16.9,16.9H41.3c-9.3,0-16.9-7.6-16.9-16.9v-59.6c0-9.3,7.6-16.9,16.9-16.9H452.7z"
		/>
	<path class="st7" d="M409.3,254.2c-2.7,0-4.9-2-5.3-2.4l-7.4-7.4l-7.2-7.3c-0.4-0.4-2.4-2.6-2.4-5.4c0-2.4,2.8-4.9,4.4-5.9l20-13.3
		l-4.6-3.1c-0.1-0.1-0.9-0.6-1.6-1.4c-1.9-1.9-2.6-4-2-5.9c1.2-3.4,6.2-3.9,10.2-4.3c0.4,0,0.8-0.1,1.2-0.1
		c4.2-0.5,14.4-0.8,18.3-0.8h0.3c4.7,0,8.3,0.7,9.4,1.8c1.1,1.1,1.8,4.8,1.8,9.6c0,3.9-0.4,14-0.8,18.3c0,0.4-0.1,0.8-0.1,1.2
		c-0.4,4-0.9,9.1-4.3,10.2c-0.4,0.1-0.9,0.2-1.4,0.2c-1.5,0-3-0.8-4.5-2.2c-0.8-0.8-1.3-1.5-1.4-1.6l-3.1-4.6l-13.3,20
		C414.2,251.4,411.8,254.2,409.3,254.2L409.3,254.2z"/>
	<path class="st2" d="M433.1,195.8c-0.1,0-0.2,0-0.3,0c-3.6,0-14,0.4-18.4,0.8c-4.4,0.5-10.9,0.7-12.4,5.2c-0.8,2.3,0,4.8,2.3,7
		c0.8,0.8,1.6,1.4,1.8,1.5l3.2,2.1l-18.5,12.4c-0.5,0.3-4.9,3.3-4.9,6.9c0,3.2,2.3,5.7,2.8,6.2l7.2,7.3l0.1,0.1l0.1,0.1l7.3,7.2
		c0.5,0.5,2.9,2.8,6.1,2.8c0,0,0,0,0,0c3.5,0,6.5-4.4,6.9-4.9l12.4-18.5l2.1,3.2c0.1,0.2,0.7,1,1.5,1.8c1.7,1.7,3.5,2.6,5.3,2.6
		c0.6,0,1.2-0.1,1.7-0.3c4.5-1.5,4.7-8,5.2-12.4c0.5-4.4,0.8-14.8,0.8-18.4c0-3.4-0.3-8.6-2.1-10.5
		C441.5,196.1,436.5,195.8,433.1,195.8 M433.1,198c4.9,0,7.9,0.8,8.6,1.5c0.7,0.8,1.5,3.9,1.5,8.9c0,3.4-0.4,13.9-0.8,18.2
		c0,0.4-0.1,0.8-0.1,1.2c-0.4,3.7-0.8,8.3-3.6,9.3c-0.3,0.1-0.7,0.2-1,0.2c-1.2,0-2.5-0.7-3.7-1.9c-0.7-0.7-1.2-1.4-1.2-1.5
		l-2.1-3.2l-1.9-2.8l-1.9,2.8l-12.4,18.6c-1,1.6-3.2,3.9-5,3.9c-2.4,0-4.3-1.9-4.5-2.1l-7.3-7.2l-0.1-0.1l-0.1-0.1l-7.2-7.3
		c-0.2-0.2-2.1-2.2-2.1-4.6c0-1.8,2.4-4,3.9-5l18.5-12.4l2.8-1.9l-2.8-1.9l-3.2-2.1c-0.1-0.1-0.8-0.5-1.5-1.2
		c-0.9-0.9-2.4-2.8-1.8-4.7c0.9-2.7,5.6-3.2,9.3-3.6c0.4,0,0.8-0.1,1.3-0.1c4.3-0.5,14.7-0.8,18.2-0.8H433.1z"/>
	<path class="st2" d="M437.5,229.2c0.1-2,0.7-26.1,0.7-26.1s-24.1,0.4-26.1,0.5c-2,0.1-2.8,1.5-0.9,2.5c0,0,12,5.4,12.6,5.7
		l-29.9,19.8c-1.8,1.2-1.4,1.6-0.3,2.8l13,13.1c1.2,1.2,1.5,1.6,2.8-0.3l20-29.8c0.4,0.5,5.7,12.6,5.7,12.6
		C436,232,437.4,231.2,437.5,229.2"/>
	<g>
		<path class="st7" d="M67.9,296.3l-3.7-5.6h-3v5.6h-3.8v-17.4h7.9c4.1,0,6.6,2.2,6.6,5.7v0.1c0,2.8-1.5,4.6-3.7,5.4l4.2,6.2H67.9z
			 M67.9,284.9c0-1.6-1.1-2.5-3-2.5h-3.8v5H65C66.9,287.4,67.9,286.4,67.9,284.9L67.9,284.9z"/>
		<path class="st7" d="M86.5,291h-9.3c0.4,1.7,1.6,2.6,3.3,2.6c1.3,0,2.2-0.4,3.2-1.4l2.2,1.9c-1.2,1.5-3,2.5-5.4,2.5
			c-4,0-7-2.8-7-6.9v0c0-3.8,2.7-6.9,6.6-6.9c4.4,0,6.5,3.5,6.5,7.2v0.1C86.6,290.4,86.5,290.6,86.5,291z M80.1,285.8
			c-1.6,0-2.6,1.1-2.9,2.8h5.7C82.7,286.9,81.7,285.8,80.1,285.8z"/>
		<path class="st7" d="M89.1,296.3v-18.1h3.8v18.1H89.1z"/>
		<path class="st7" d="M108.3,291H99c0.4,1.7,1.6,2.6,3.3,2.6c1.3,0,2.2-0.4,3.2-1.4l2.2,1.9c-1.2,1.5-3,2.5-5.4,2.5
			c-4,0-7-2.8-7-6.9v0c0-3.8,2.7-6.9,6.6-6.9c4.4,0,6.5,3.5,6.5,7.2v0.1C108.3,290.4,108.3,290.6,108.3,291z M101.8,285.8
			c-1.6,0-2.6,1.1-2.9,2.8h5.7C104.4,286.9,103.4,285.8,101.8,285.8z"/>
		<path class="st7" d="M117.5,296.4h-3.4l-5.2-13.4h4l3,8.9l3-8.9h3.9L117.5,296.4z"/>
		<path class="st7" d="M131.6,296.3v-1.4c-0.9,1-2.2,1.7-4,1.7c-2.5,0-4.6-1.4-4.6-4.1v-0.1c0-2.9,2.2-4.2,5.4-4.2
			c1.3,0,2.3,0.2,3.3,0.5v-0.2c0-1.6-1-2.4-2.9-2.4c-1.4,0-2.5,0.3-3.7,0.7l-0.9-2.9c1.5-0.6,2.9-1.1,5.2-1.1c4.1,0,5.9,2.1,5.9,5.7
			v7.7H131.6z M131.7,291c-0.6-0.3-1.5-0.5-2.4-0.5c-1.6,0-2.6,0.6-2.6,1.8v0.1c0,1,0.8,1.6,2.1,1.6c1.8,0,3-1,3-2.3V291z"/>
		<path class="st7" d="M146.4,296.3v-7.4c0-1.8-0.8-2.7-2.3-2.7c-1.4,0-2.4,0.9-2.4,2.7v7.4H138V283h3.8v1.9c0.9-1.1,2-2.1,3.9-2.1
			c2.9,0,4.5,1.9,4.5,4.9v8.6H146.4z"/>
		<path class="st7" d="M157.5,296.6c-2.3,0-3.9-0.9-3.9-4v-6.3H152V283h1.6v-3.4h3.8v3.4h3.1v3.2h-3.1v5.7c0,0.9,0.4,1.3,1.2,1.3
			c0.7,0,1.3-0.2,1.9-0.5v3C159.7,296.3,158.8,296.6,157.5,296.6z"/>
		<path class="st7" d="M162.7,296.3v-4h4v4H162.7z"/>
		<path class="st7" d="M187.3,296.3l-3.7-5.6h-3v5.6h-3.8v-17.4h7.9c4.1,0,6.6,2.2,6.6,5.7v0.1c0,2.8-1.5,4.6-3.7,5.4l4.2,6.2H187.3
			z M187.4,284.9c0-1.6-1.1-2.5-3-2.5h-3.8v5h3.9C186.4,287.4,187.4,286.4,187.4,284.9L187.4,284.9z"/>
		<path class="st7" d="M193.9,281.5v-3.4h4v3.4H193.9z M194,296.3V283h3.8v13.3H194z"/>
		<path class="st7" d="M206.8,300.4c-2.2,0-4.2-0.5-5.9-1.4l1.3-2.8c1.4,0.8,2.7,1.2,4.5,1.2c2.6,0,3.8-1.2,3.8-3.6v-0.6
			c-1.1,1.3-2.3,2.2-4.3,2.2c-3.1,0-5.9-2.3-5.9-6.2v0c0-4,2.9-6.2,5.9-6.2c2.1,0,3.3,0.9,4.3,2V283h3.8v10.3
			C214.3,298.3,211.8,300.4,206.8,300.4z M210.5,289c0-1.8-1.4-3.1-3.3-3.1c-1.8,0-3.2,1.3-3.2,3.1v0c0,1.8,1.4,3.1,3.2,3.1
			C209.1,292.1,210.5,290.8,210.5,289L210.5,289z"/>
		<path class="st7" d="M223.7,296.6c-4.1,0-7.2-3.1-7.2-6.9v0c0-3.8,3.1-6.9,7.2-6.9c4.1,0,7.2,3.1,7.2,6.9v0.1
			C230.9,293.5,227.8,296.6,223.7,296.6z M227.2,289.7c0-2-1.4-3.7-3.5-3.7c-2.2,0-3.5,1.7-3.5,3.6v0.1c0,2,1.4,3.7,3.5,3.7
			C225.9,293.4,227.2,291.7,227.2,289.7L227.2,289.7z"/>
		<path class="st7" d="M241,286.7c-2.5,0-4,1.5-4,4.7v4.9h-3.8V283h3.8v2.7c0.8-1.8,2-3,4.2-2.9v3.9H241z"/>
		<path class="st7" d="M249.2,296.6c-4.1,0-7.2-3.1-7.2-6.9v0c0-3.8,3.1-6.9,7.2-6.9c4.1,0,7.2,3.1,7.2,6.9v0.1
			C256.4,293.5,253.4,296.6,249.2,296.6z M252.7,289.7c0-2-1.4-3.7-3.5-3.7c-2.2,0-3.5,1.7-3.5,3.6v0.1c0,2,1.4,3.7,3.5,3.7
			C251.4,293.4,252.7,291.7,252.7,289.7L252.7,289.7z"/>
		<path class="st7" d="M267,296.3v-1.9c-0.9,1.1-2,2.1-3.9,2.1c-2.9,0-4.5-1.9-4.5-4.9V283h3.8v7.4c0,1.8,0.8,2.7,2.3,2.7
			c1.4,0,2.4-0.9,2.4-2.7V283h3.8v13.3H267z"/>
		<path class="st7" d="M278.3,296.6c-1.9,0-4-0.6-5.7-2l1.6-2.5c1.4,1,3,1.6,4.2,1.6c1.1,0,1.6-0.4,1.6-1v-0.1
			c0-0.8-1.3-1.1-2.8-1.5c-1.9-0.5-4-1.4-4-4v0c0-2.7,2.2-4.2,4.9-4.2c1.7,0,3.5,0.6,5,1.5l-1.4,2.6c-1.3-0.8-2.6-1.2-3.6-1.2
			c-0.9,0-1.4,0.4-1.4,0.9v0.1c0,0.7,1.3,1.1,2.7,1.6c1.9,0.6,4,1.5,4,4v0C283.4,295.2,281.2,296.6,278.3,296.6z"/>
		<path class="st7" d="M285.5,296.3v-4h4v4H285.5z"/>
		<path class="st7" d="M310.2,296.3l-3.7-5.6h-3v5.6h-3.8v-17.4h7.9c4.1,0,6.6,2.2,6.6,5.7v0.1c0,2.8-1.5,4.6-3.7,5.4l4.2,6.2H310.2
			z M310.3,284.9c0-1.6-1.1-2.5-3-2.5h-3.8v5h3.9C309.2,287.4,310.3,286.4,310.3,284.9L310.3,284.9z"/>
		<path class="st7" d="M328.8,291h-9.3c0.4,1.7,1.6,2.6,3.3,2.6c1.3,0,2.2-0.4,3.2-1.4l2.2,1.9c-1.2,1.5-3,2.5-5.4,2.5
			c-4,0-7-2.8-7-6.9v0c0-3.8,2.7-6.9,6.6-6.9c4.4,0,6.5,3.5,6.5,7.2v0.1C328.9,290.4,328.9,290.6,328.8,291z M322.4,285.8
			c-1.6,0-2.6,1.1-2.9,2.8h5.7C325,286.9,324,285.8,322.4,285.8z"/>
		<path class="st7" d="M339,296.3v-1.4c-0.9,1-2.2,1.7-4,1.7c-2.5,0-4.6-1.4-4.6-4.1v-0.1c0-2.9,2.2-4.2,5.4-4.2
			c1.3,0,2.3,0.2,3.3,0.5v-0.2c0-1.6-1-2.4-2.9-2.4c-1.4,0-2.5,0.3-3.7,0.7l-0.9-2.9c1.5-0.6,2.9-1.1,5.2-1.1c4.1,0,5.9,2.1,5.9,5.7
			v7.7H339z M339.1,291c-0.6-0.3-1.5-0.5-2.4-0.5c-1.6,0-2.6,0.6-2.6,1.8v0.1c0,1,0.8,1.6,2.1,1.6c1.8,0,3-1,3-2.3V291z"/>
		<path class="st7" d="M345.6,296.3v-18.1h3.8v18.1H345.6z"/>
		<path class="st7" d="M378.9,296.5h-3.3l-3.9-11.4l-3.9,11.4h-3.3l-5.9-17.5h4.1l3.6,11.8l3.9-11.8h3.3l3.9,11.8l3.6-11.8h4
			L378.9,296.5z"/>
		<path class="st7" d="M391.7,296.6c-4.1,0-7.2-3.1-7.2-6.9v0c0-3.8,3.1-6.9,7.2-6.9c4.1,0,7.2,3.1,7.2,6.9v0.1
			C398.9,293.5,395.8,296.6,391.7,296.6z M395.2,289.7c0-2-1.4-3.7-3.5-3.7c-2.2,0-3.5,1.7-3.5,3.6v0.1c0,2,1.4,3.7,3.5,3.7
			C393.9,293.4,395.2,291.7,395.2,289.7L395.2,289.7z"/>
		<path class="st7" d="M409,286.7c-2.5,0-4,1.5-4,4.7v4.9h-3.8V283h3.8v2.7c0.8-1.8,2-3,4.2-2.9v3.9H409z"/>
		<path class="st7" d="M411.2,296.3v-18.1h3.8v18.1H411.2z"/>
		<path class="st7" d="M427.7,296.3v-1.9c-0.9,1.2-2.2,2.2-4.1,2.2c-3.1,0-6.1-2.4-6.1-6.9v-0.1c0-4.4,2.9-6.9,6.1-6.9
			c2,0,3.3,0.9,4.1,2v-6.6h3.8v18.1H427.7z M427.7,289.6c0-2.2-1.5-3.7-3.2-3.7s-3.3,1.4-3.3,3.7v0.1c0,2.2,1.5,3.7,3.3,3.7
			S427.7,291.9,427.7,289.6L427.7,289.6z"/>
		<path class="st7" d="M434.2,296.3v-4h4v4H434.2z"/>
	</g>
</g>
</svg>
