<?xml version="1.0" encoding="utf-8"?>
<!-- Generator: Adobe Illustrator 19.2.1, SVG Export Plug-In . SVG Version: 6.00 Build 0)  -->
<!DOCTYPE svg PUBLIC "-//W3C//DTD SVG 1.1//EN" "http://www.w3.org/Graphics/SVG/1.1/DTD/svg11.dtd">
<svg version="1.1" id="Layer_1" xmlns="http://www.w3.org/2000/svg" xmlns:xlink="http://www.w3.org/1999/xlink" x="0px" y="0px"
	 viewBox="0 0 400 273" style="enable-background:new 0 0 400 273;" xml:space="preserve">
<style type="text/css">
	.st0{fill:#0072CE;}
	.st1{fill:#FFFFFF;}
	.st2{opacity:5.000000e-02;fill:#FFFFFF;}
</style>
<rect x="-14.7" y="-10" class="st0" width="429.3" height="293"/>
<g>
	<polygon class="st1" points="62.8,136.9 48.9,119.3 42.3,119.3 42.3,151.1 49.8,151.1 49.8,133.1 64.4,151.1 70.4,151.1 
		70.4,119.3 62.8,119.3 	"/>
	<path class="st1" d="M87.8,128.1c-3.6,0-6.6,1-9.1,3.1c-2.5,2.1-3.8,4.9-3.8,8.2c0,3.5,1.3,6.5,3.9,8.9c2.6,2.4,5.8,3.6,9.4,3.6
		c1.6,0,3.3-0.3,5.2-0.8c1.8-0.5,3.5-1.1,4.8-1.8l-2.3-4.5c-0.3,0.2-1,0.5-2.1,0.8c-1.5,0.4-2.7,0.7-3.8,0.7c-1.8,0-3.2-0.5-4.2-1.7
		c-1-1-1.4-2.2-1.4-3.7h14.2c0-0.2,0.1-0.5,0.1-0.7c0-0.3,0-0.7,0-1c0-3.2-0.8-5.8-2.5-7.9C94.1,129.3,91.4,128.1,87.8,128.1z
		 M90.9,137.3L90.9,137.3l-6.4,0v-1.6c0-1.1,0.2-2,0.8-2.8c0.6-0.8,1.4-1.1,2.5-1.1c1,0,1.7,0.3,2.3,1.1c0.6,0.7,0.8,1.5,0.8,2.5
		V137.3z"/>
	<polygon class="st1" points="125.7,129.1 118.6,128.1 114.8,134 111.4,128.2 101.9,129.5 109.1,140 100.9,151 108.2,152.2 
		113.1,145.2 117.2,152.1 127,150.8 118.3,138.9 	"/>
	<path class="st1" d="M145.2,146.7c-0.4,0.1-0.8,0.2-1.3,0.2c-0.8,0-1.6-0.2-2.1-0.7c-0.6-0.4-1-1-1.1-1.7c-0.2-0.7-0.2-1.7-0.2-3.3
		v-8.6h6v-4.2h-6v-6.8l-9,1.5v5.4h-3.1v4.2h3.1v11.1c0,0.2,0,0.5,0,1c0,1.2,0.2,2.2,0.5,3c0.5,1.2,1.4,2.2,2.7,3
		c0.7,0.4,1.4,0.7,2.3,0.9c0.8,0.2,1.7,0.2,2.7,0.2c1.7,0,3.5-0.3,5.5-0.8c0.7-0.2,1.4-0.4,2.4-0.8l-1.2-3.9
		C146,146.5,145.6,146.6,145.2,146.7z"/>
	<polygon class="st1" points="161.9,119.4 152.4,119.4 152.4,151.1 173.6,151.1 173.6,145.1 161.9,145.1 	"/>
	<path class="st1" d="M187.8,128.1c-3.6,0-6.6,1-9.1,3.1c-2.5,2.1-3.8,4.9-3.8,8.2c0,3.5,1.3,6.5,3.9,8.9c2.6,2.4,5.8,3.6,9.4,3.6
		c1.6,0,3.3-0.3,5.2-0.8c1.8-0.5,3.5-1.1,4.8-1.8l-2.3-4.5c-0.3,0.2-1,0.5-2.1,0.8c-1.5,0.4-2.7,0.7-3.8,0.7c-1.8,0-3.2-0.5-4.2-1.7
		c-1-1-1.4-2.2-1.4-3.7h14.2c0.1-0.2,0.1-0.5,0.1-0.7c0-0.3,0-0.7,0-1c0-3.2-0.8-5.8-2.5-7.9C194.1,129.3,191.4,128.1,187.8,128.1z
		 M190.9,137.3L190.9,137.3l-6.4,0v-1.6c0-1.1,0.2-2,0.8-2.8c0.6-0.8,1.4-1.1,2.5-1.1c1,0,1.7,0.3,2.3,1.1c0.6,0.7,0.8,1.5,0.8,2.5
		L190.9,137.3L190.9,137.3z"/>
	<path class="st1" d="M214.7,137.9c-1.3-0.8-2-1.3-2.1-1.4c-0.7-0.6-1-1.3-1-2.1c0-0.5,0.3-1,0.7-1.2c0.4-0.2,0.9-0.3,1.5-0.3
		c0.5,0,1.1,0.1,1.8,0.3c0.7,0.2,1.1,0.4,1.3,0.7l2-3.8c-0.8-0.4-1.5-0.7-2.1-0.9c-1.8-0.6-3.6-0.9-5.3-0.9c-2.2,0-4.1,0.5-5.8,1.7
		c-2,1.3-2.9,3-2.9,5.1c0,1.8,0.7,3.3,2,4.6c0.6,0.6,1.8,1.4,3.8,2.8c1.4,0.9,2.2,1.7,2.4,2.5c0,0.2,0,0.3,0,0.5
		c0,0.5-0.2,1-0.6,1.3c-0.4,0.3-1,0.6-1.6,0.7c-0.1,0-0.2,0-0.3,0c-0.8,0-1.9-0.3-3.1-1.1c-0.4-0.3-1-0.6-1.6-1.1l-1.9,4.6
		c0.3,0.2,0.7,0.4,1,0.6c1,0.5,2,0.9,2.9,1.1c1.4,0.4,2.8,0.6,4.1,0.6c2.6,0,4.9-0.7,6.8-2c2-1.4,2.9-3.1,2.9-5.2
		c0-1.4-0.4-2.7-1.3-3.9C217.5,140,216.4,139.1,214.7,137.9z"/>
	<path class="st1" d="M236.3,137.9c-1.3-0.8-2-1.3-2.1-1.4c-0.7-0.6-1-1.3-1-2.1c0-0.5,0.2-1,0.7-1.2c0.4-0.2,0.9-0.3,1.5-0.3
		c0.5,0,1.1,0.1,1.8,0.3c0.7,0.2,1.1,0.4,1.3,0.7l1.9-3.8c-0.8-0.4-1.5-0.7-2.1-0.9c-1.8-0.6-3.6-0.9-5.3-0.9
		c-2.2,0-4.1,0.5-5.8,1.7c-2,1.3-2.9,3-2.9,5.1c0,1.8,0.6,3.3,1.9,4.6c0.6,0.6,1.8,1.4,3.8,2.8c1.4,0.9,2.2,1.7,2.4,2.5
		c0,0.2,0,0.3,0,0.5c0,0.5-0.2,1-0.6,1.3c-0.4,0.3-1,0.6-1.6,0.7c-0.1,0-0.2,0-0.3,0c-0.8,0-1.9-0.3-3.1-1.1c-0.4-0.3-1-0.6-1.6-1.1
		l-1.9,4.6c0.3,0.2,0.7,0.4,1,0.6c1,0.5,2,0.9,2.9,1.1c1.4,0.4,2.8,0.6,4.1,0.6c2.6,0,4.9-0.7,6.8-2c2-1.4,2.9-3.1,2.9-5.2
		c0-1.4-0.4-2.7-1.1-3.9C239.1,140,238,139.1,236.3,137.9z"/>
	<path class="st1" d="M266.2,131.6c-2.4-2.1-5.5-3.2-9.1-3.2c-3.8,0-6.9,1-9.2,2.8c-2.6,2.1-3.9,4.9-3.9,8.5c0,3.7,1.2,6.7,3.6,9
		c2.4,2.2,5.6,3.4,9.4,3.4c3.6,0,6.7-1.1,9.2-3.5c2.5-2.3,3.8-5.2,3.8-8.6C270,136.6,268.8,133.7,266.2,131.6z M260.1,145.3
		c-0.7,1.8-1.6,2.7-3,2.8c-0.1,0-0.2,0-0.3,0c-1.3,0-2.2-1-2.9-2.8c-0.5-1.5-0.8-3.3-0.8-5.3c0-2,0.3-3.7,1-5.2
		c0.8-1.7,1.8-2.6,3.1-2.6c1.4,0,2.4,0.9,3,2.6c0.5,1.3,0.7,3,0.7,5.1C260.9,142.1,260.6,143.8,260.1,145.3z"/>
	<path class="st1" d="M297.1,130.3c-1.4-1.2-3.3-1.8-5.5-1.8c-1.7,0-3.1,0.3-4.4,1s-2.3,1.6-3.1,3v-3.8h-8.8v22.6h8.8v-13.3
		c0-1.1,0.3-2,1-2.8c0.7-0.7,1.5-1.2,2.5-1.2c1.3,0,2,0.5,2.4,1.4c0.2,0.6,0.3,1.6,0.3,3v12.7h9v-15.3
		C299.5,133.5,298.7,131.6,297.1,130.3z"/>
	<path class="st1" d="M347.9,112.8c-0.1,0-0.1,0-0.2,0c-2.8,0-11.2,0.3-14.7,0.7c-3.5,0.4-8.7,0.6-9.8,4.2c-0.6,1.8,0,3.8,1.8,5.6
		c0.7,0.7,1.3,1.1,1.4,1.2l2.6,1.7l-14.7,9.8c-0.4,0.3-3.9,2.7-3.9,5.5c0,2.5,1.8,4.5,2.2,4.9l5.7,5.8l0,0l0,0l5.8,5.7
		c0.3,0.3,2.3,2.2,4.9,2.2c0,0,0,0,0,0c2.8,0,5.2-3.5,5.5-3.9l9.8-14.7l1.7,2.6c0.1,0.2,0.5,0.8,1.2,1.4c1.4,1.4,2.8,2.1,4.2,2.1
		c0.5,0,0.9-0.1,1.4-0.2c3.6-1.2,3.8-6.3,4.2-9.8c0.4-3.5,0.7-11.8,0.7-14.7c0-2.7-0.3-6.9-1.7-8.3
		C354.6,113.1,350.6,112.8,347.9,112.8z M355.2,137.2c0,0.3-0.1,0.7-0.1,1c-0.3,3-0.7,6.6-2.8,7.3c-0.3,0.1-0.5,0.1-0.8,0.1
		c-0.9,0-2-0.5-3-1.5c-0.6-0.6-0.9-1.1-1-1.1l-1.7-2.6l-1.5-2.2l-1.5,2.2l-9.9,14.8c-0.8,1.3-2.6,3.1-4,3.1c-1.9,0-3.5-1.5-3.6-1.7
		l-5.8-5.7l0,0l0,0l-5.7-5.8c-0.2-0.2-1.7-1.7-1.7-3.6c0-1.4,1.9-3.1,3.1-4l14.7-9.8l2.2-1.5l-2.2-1.5l-2.5-1.7
		c-0.1-0.1-0.6-0.4-1.2-1c-0.7-0.7-1.9-2.2-1.4-3.8c0.7-2.2,4.4-2.5,7.3-2.8c0.3,0,0.7-0.1,1-0.1c3.4-0.4,11.7-0.7,14.4-0.7h0.2
		c3.8,0,6.3,0.6,6.8,1.2c0.6,0.6,1.2,3.1,1.1,7C355.9,125.6,355.6,133.8,355.2,137.2z"/>
	<path class="st1" d="M330.4,121c0,0,9.6,4.3,10,4.5l-23.8,15.7c-1.4,1-1.1,1.3-0.2,2.2l10.4,10.4c0.9,1,1.2,1.2,2.2-0.2l15.9-23.7
		c0.3,0.4,4.5,10,4.5,10c0.8,1.5,1.9,0.9,2-0.7c0-1.6,0.5-20.7,0.5-20.7s-19.1,0.3-20.7,0.4C329.6,119.1,328.9,120.2,330.4,121z"/>
</g>
<polygon class="st2" points="414.7,76.5 -14.7,179 -14.7,-10 414.7,-10 "/>
</svg>
