<?xml version="1.0" encoding="UTF-8" standalone="no"?>
<!DOCTYPE svg PUBLIC "-//W3C//DTD SVG 1.1//EN" "http://www.w3.org/Graphics/SVG/1.1/DTD/svg11.dtd">
<svg width="100%" height="100%" viewBox="0 0 440 300" version="1.1" xmlns="http://www.w3.org/2000/svg" xmlns:xlink="http://www.w3.org/1999/xlink" xml:space="preserve" style="fill-rule:evenodd;clip-rule:evenodd;stroke-linecap:round;stroke-linejoin:round;stroke-miterlimit:1.5;">
    <g id="Artboard1" transform="matrix(1.53964,0,0,1.41322,-429.277,32.8759)">
        <rect x="278.817" y="-23.263" width="285.147" height="212.28" style="fill:none;"/>
        <clipPath id="_clip1">
            <rect x="278.817" y="-23.263" width="285.147" height="212.28"/>
        </clipPath>
        <g clip-path="url(#_clip1)">
            <g transform="matrix(0.649502,0,0,0.707601,278.817,-23.2631)">
                <rect x="-16.161" y="-13.627" width="472.833" height="332.161" style="fill:rgb(245,248,250);stroke:rgb(245,248,250);stroke-width:1px;"/>
            </g>
            <g transform="matrix(1,0,0,1,-2.11268,-6.25851)">
                <g transform="matrix(3.64201,0,0,3.96779,-44.71,-261.827)">
                    <path d="M97.683,82.926C97.683,83.262 97.851,83.43 98.175,83.43L98.727,83.43C99.051,83.43 99.219,83.262 99.219,82.926L99.219,78.522C99.219,78.018 99.135,77.202 99.135,77.202L99.159,77.202C99.159,77.202 99.555,78.018 99.867,78.522L102.903,83.094C103.035,83.334 103.227,83.43 103.491,83.43L104.139,83.43C104.463,83.43 104.643,83.262 104.643,82.926L104.643,75.414C104.643,75.09 104.463,74.91 104.139,74.91L103.599,74.91C103.275,74.91 103.095,75.09 103.095,75.414L103.095,79.83C103.095,80.334 103.179,81.15 103.179,81.15L103.155,81.15C103.155,81.15 102.771,80.334 102.447,79.83L99.423,75.246C99.291,75.006 99.111,74.91 98.823,74.91L98.175,74.91C97.851,74.91 97.683,75.09 97.683,75.414L97.683,82.926Z" style="fill:rgb(13,13,13);fill-rule:nonzero;"/>
                    <path d="M105.891,80.37C105.891,82.11 107.151,83.574 109.179,83.574C110.139,83.574 110.859,83.214 111.255,82.962C111.519,82.806 111.567,82.566 111.423,82.29L111.279,82.05C111.123,81.774 110.907,81.738 110.607,81.882C110.319,82.062 109.851,82.278 109.287,82.278C108.363,82.278 107.547,81.702 107.451,80.598L111.183,80.598C111.483,80.598 111.711,80.346 111.711,80.082C111.711,78.402 110.739,77.166 108.999,77.166C107.163,77.166 105.891,78.486 105.891,80.37ZM107.487,79.674C107.631,78.858 108.183,78.318 108.963,78.318C109.659,78.318 110.175,78.822 110.199,79.674L107.487,79.674Z" style="fill:rgb(13,13,13);fill-rule:nonzero;"/>
                    <path d="M112.503,82.83C112.275,83.166 112.419,83.43 112.827,83.43L113.415,83.43C113.679,83.43 113.859,83.322 114.003,83.082L114.867,81.654C114.951,81.522 115.035,81.33 115.035,81.33L115.059,81.33C115.059,81.33 115.155,81.522 115.227,81.654L116.103,83.082C116.235,83.322 116.415,83.43 116.691,83.43L117.267,83.43C117.675,83.43 117.819,83.166 117.603,82.83L115.971,80.334L117.543,77.91C117.771,77.574 117.627,77.31 117.219,77.31L116.607,77.31C116.331,77.31 116.151,77.43 116.019,77.67L115.251,78.978C115.179,79.134 115.059,79.362 115.059,79.362L115.035,79.362C115.035,79.362 114.927,79.134 114.843,78.978L114.075,77.67C113.943,77.43 113.763,77.31 113.487,77.31L112.875,77.31C112.467,77.31 112.323,77.574 112.551,77.91L114.135,80.334L112.503,82.83Z" style="fill:rgb(13,13,13);fill-rule:nonzero;"/>
                    <path d="M119.127,81.246C119.127,82.902 120.423,83.49 121.515,83.49C121.935,83.49 122.139,83.346 122.139,82.986L122.139,82.614C122.139,82.278 122.007,82.158 121.635,82.122C121.215,82.074 120.651,81.894 120.651,80.982L120.651,78.606L121.551,78.606C121.863,78.606 122.043,78.438 122.043,78.102L122.043,77.898C122.043,77.574 121.863,77.394 121.539,77.394L120.651,77.394L120.651,76.146C120.651,75.822 120.471,75.642 120.147,75.642L119.667,75.642C119.343,75.642 119.163,75.822 119.163,76.146L119.163,77.394L118.815,77.394C118.479,77.394 118.311,77.574 118.311,77.898L118.311,78.102C118.311,78.438 118.479,78.606 118.803,78.606L119.127,78.606L119.127,81.246Z" style="fill:rgb(13,13,13);fill-rule:nonzero;"/>
                    <path d="M123.387,82.926C123.387,83.262 123.555,83.43 123.879,83.43L128.103,83.43C128.439,83.43 128.607,83.262 128.607,82.926L128.607,82.59C128.607,82.266 128.439,82.098 128.103,82.098L124.923,82.098L124.923,75.414C124.923,75.09 124.755,74.91 124.431,74.91L123.879,74.91C123.555,74.91 123.387,75.09 123.387,75.414L123.387,82.926Z" style="fill:rgb(13,13,13);fill-rule:nonzero;"/>
                    <path d="M128.871,80.37C128.871,82.11 130.131,83.574 132.159,83.574C133.119,83.574 133.839,83.214 134.235,82.962C134.499,82.806 134.547,82.566 134.403,82.29L134.259,82.05C134.103,81.774 133.887,81.738 133.587,81.882C133.299,82.062 132.831,82.278 132.267,82.278C131.343,82.278 130.527,81.702 130.431,80.598L134.163,80.598C134.463,80.598 134.691,80.346 134.691,80.082C134.691,78.402 133.719,77.166 131.979,77.166C130.143,77.166 128.871,78.486 128.871,80.37ZM130.467,79.674C130.611,78.858 131.163,78.318 131.943,78.318C132.639,78.318 133.155,78.822 133.179,79.674L130.467,79.674Z" style="fill:rgb(13,13,13);fill-rule:nonzero;"/>
                    <path d="M135.651,82.95C136.023,83.202 136.707,83.574 137.691,83.574C139.107,83.574 140.019,82.77 140.019,81.69C140.019,79.602 136.983,79.998 136.983,78.99C136.983,78.606 137.283,78.39 137.811,78.39C138.315,78.39 138.711,78.57 138.975,78.69C139.275,78.822 139.503,78.786 139.647,78.498L139.767,78.282C139.899,78.006 139.863,77.754 139.587,77.61C139.263,77.43 138.699,77.166 137.883,77.166C136.599,77.166 135.543,77.802 135.543,79.002C135.543,81.102 138.579,80.73 138.579,81.726C138.579,82.11 138.255,82.35 137.727,82.35C137.103,82.35 136.647,82.086 136.359,81.93C136.059,81.774 135.855,81.798 135.675,82.05L135.531,82.266C135.351,82.53 135.375,82.794 135.651,82.95Z" style="fill:rgb(13,13,13);fill-rule:nonzero;"/>
                    <path d="M141.015,82.95C141.387,83.202 142.071,83.574 143.055,83.574C144.471,83.574 145.383,82.77 145.383,81.69C145.383,79.602 142.347,79.998 142.347,78.99C142.347,78.606 142.647,78.39 143.175,78.39C143.679,78.39 144.075,78.57 144.339,78.69C144.639,78.822 144.867,78.786 145.011,78.498L145.131,78.282C145.263,78.006 145.227,77.754 144.951,77.61C144.627,77.43 144.063,77.166 143.247,77.166C141.963,77.166 140.907,77.802 140.907,79.002C140.907,81.102 143.943,80.73 143.943,81.726C143.943,82.11 143.619,82.35 143.091,82.35C142.467,82.35 142.011,82.086 141.723,81.93C141.423,81.774 141.219,81.798 141.039,82.05L140.895,82.266C140.715,82.53 140.739,82.794 141.015,82.95Z" style="fill:rgb(13,13,13);fill-rule:nonzero;"/>
                    <path d="M146.139,80.37C146.139,82.254 147.639,83.574 149.499,83.574C151.359,83.574 152.871,82.254 152.871,80.37C152.871,78.498 151.359,77.166 149.499,77.166C147.639,77.166 146.139,78.498 146.139,80.37ZM147.687,80.37C147.687,79.242 148.503,78.462 149.499,78.462C150.495,78.462 151.323,79.242 151.323,80.37C151.323,81.51 150.495,82.278 149.499,82.278C148.503,82.278 147.687,81.51 147.687,80.37Z" style="fill:rgb(13,13,13);fill-rule:nonzero;"/>
                    <path d="M153.987,82.926C153.987,83.262 154.155,83.43 154.479,83.43L155.007,83.43C155.331,83.43 155.499,83.262 155.499,82.926L155.499,80.562C155.499,79.458 156.183,78.558 157.263,78.558C158.031,78.558 158.223,79.062 158.223,79.806L158.223,82.926C158.223,83.262 158.403,83.43 158.727,83.43L159.243,83.43C159.579,83.43 159.747,83.262 159.747,82.926L159.747,79.494C159.747,77.874 158.967,77.166 157.611,77.166C156.375,77.166 155.703,77.946 155.439,78.462L155.415,78.462C155.415,78.462 155.439,78.318 155.439,78.186L155.439,77.814C155.439,77.49 155.271,77.31 154.947,77.31L154.479,77.31C154.155,77.31 153.987,77.49 153.987,77.814L153.987,82.926Z" style="fill:rgb(13,13,13);fill-rule:nonzero;"/>
                    <path d="M97.179,92.046C97.179,94.65 99.111,96.414 101.367,96.414C103.011,96.414 103.863,95.454 103.863,95.454L103.887,95.454C103.887,95.454 103.875,95.55 103.875,95.658L103.875,95.862C103.875,96.102 104.043,96.27 104.367,96.27L104.667,96.27C104.991,96.27 105.159,96.102 105.159,95.766L105.159,92.286C105.159,91.95 104.991,91.782 104.667,91.782L102.963,91.782C102.639,91.782 102.459,91.95 102.459,92.286L102.459,92.61C102.459,92.934 102.639,93.114 102.963,93.114L103.779,93.114L103.779,94.062C103.779,94.062 103.047,94.998 101.619,94.998C100.035,94.998 98.775,93.762 98.775,91.974C98.775,90.366 99.807,89.022 101.667,89.022C102.579,89.022 103.191,89.334 103.563,89.55C103.863,89.718 104.079,89.694 104.259,89.418L104.475,89.082C104.655,88.806 104.631,88.59 104.367,88.386C104.007,88.134 102.987,87.606 101.583,87.606C99.039,87.606 97.179,89.502 97.179,92.046Z" style="fill:rgb(13,13,13);fill-rule:nonzero;"/>
                    <path d="M106.491,94.362C106.491,96.114 107.535,96.33 108.351,96.33C108.711,96.33 108.855,96.126 108.855,95.814L108.855,95.406C108.855,95.13 108.699,94.998 108.483,94.974C108.255,94.95 108.003,94.842 108.003,94.242L108.003,88.254C108.003,87.93 107.835,87.75 107.511,87.75L106.983,87.75C106.659,87.75 106.491,87.93 106.491,88.254L106.491,94.362Z" style="fill:rgb(13,13,13);fill-rule:nonzero;"/>
                    <path d="M109.431,93.21C109.431,95.094 110.931,96.414 112.791,96.414C114.651,96.414 116.163,95.094 116.163,93.21C116.163,91.338 114.651,90.006 112.791,90.006C110.931,90.006 109.431,91.338 109.431,93.21ZM110.979,93.21C110.979,92.082 111.795,91.302 112.791,91.302C113.787,91.302 114.615,92.082 114.615,93.21C114.615,94.35 113.787,95.118 112.791,95.118C111.795,95.118 110.979,94.35 110.979,93.21Z" style="fill:rgb(13,13,13);fill-rule:nonzero;"/>
                    <path d="M117.135,95.79C117.507,96.042 118.191,96.414 119.175,96.414C120.591,96.414 121.503,95.61 121.503,94.53C121.503,92.442 118.467,92.838 118.467,91.83C118.467,91.446 118.767,91.23 119.295,91.23C119.799,91.23 120.195,91.41 120.459,91.53C120.759,91.662 120.987,91.626 121.131,91.338L121.251,91.122C121.383,90.846 121.347,90.594 121.071,90.45C120.747,90.27 120.183,90.006 119.367,90.006C118.083,90.006 117.027,90.642 117.027,91.842C117.027,93.942 120.063,93.57 120.063,94.566C120.063,94.95 119.739,95.19 119.211,95.19C118.587,95.19 118.131,94.926 117.843,94.77C117.543,94.614 117.339,94.638 117.159,94.89L117.015,95.106C116.835,95.37 116.859,95.634 117.135,95.79Z" style="fill:rgb(13,13,13);fill-rule:nonzero;"/>
                    <path d="M122.499,95.79C122.871,96.042 123.555,96.414 124.539,96.414C125.955,96.414 126.867,95.61 126.867,94.53C126.867,92.442 123.831,92.838 123.831,91.83C123.831,91.446 124.131,91.23 124.659,91.23C125.163,91.23 125.559,91.41 125.823,91.53C126.123,91.662 126.351,91.626 126.495,91.338L126.615,91.122C126.747,90.846 126.711,90.594 126.435,90.45C126.111,90.27 125.547,90.006 124.731,90.006C123.447,90.006 122.391,90.642 122.391,91.842C122.391,93.942 125.427,93.57 125.427,94.566C125.427,94.95 125.103,95.19 124.575,95.19C123.951,95.19 123.495,94.926 123.207,94.77C122.907,94.614 122.703,94.638 122.523,94.89L122.379,95.106C122.199,95.37 122.223,95.634 122.499,95.79Z" style="fill:rgb(13,13,13);fill-rule:nonzero;"/>
                    <path d="M127.539,94.578C127.539,95.694 128.451,96.414 129.567,96.414C130.911,96.414 131.487,95.262 131.487,95.262L131.511,95.262C131.511,95.262 131.487,95.358 131.487,95.526L131.487,95.766C131.487,96.102 131.655,96.27 131.979,96.27L132.387,96.27C132.723,96.27 132.891,96.102 132.891,95.766L132.891,92.442C132.891,90.894 131.943,90.006 130.359,90.006C129.447,90.006 128.751,90.306 128.355,90.51C128.067,90.666 128.019,90.906 128.163,91.182L128.283,91.41C128.427,91.698 128.655,91.746 128.955,91.614C129.243,91.458 129.711,91.266 130.227,91.266C130.851,91.266 131.367,91.542 131.367,92.346L131.367,92.49L131.115,92.49C129.747,92.49 127.539,92.79 127.539,94.578ZM129.051,94.446C129.051,93.534 130.359,93.414 131.127,93.414L131.379,93.414L131.379,93.642C131.379,94.386 130.827,95.25 129.975,95.25C129.363,95.25 129.051,94.854 129.051,94.446Z" style="fill:rgb(13,13,13);fill-rule:nonzero;"/>
                    <path d="M134.307,95.766C134.307,96.102 134.475,96.27 134.799,96.27L135.327,96.27C135.651,96.27 135.819,96.102 135.819,95.766L135.819,93.798C135.819,92.682 136.359,91.578 137.475,91.578C137.799,91.578 137.991,91.398 137.991,91.074L137.991,90.606C137.991,90.27 137.871,90.102 137.535,90.102C136.671,90.102 135.999,90.918 135.759,91.65L135.735,91.65C135.735,91.65 135.771,91.458 135.771,91.23L135.771,90.654C135.771,90.33 135.591,90.15 135.267,90.15L134.799,90.15C134.475,90.15 134.307,90.33 134.307,90.654L134.307,95.766Z" style="fill:rgb(13,13,13);fill-rule:nonzero;"/>
                    <path d="M138.339,97.698L138.231,97.962C138.099,98.238 138.171,98.502 138.459,98.61C138.675,98.694 138.975,98.79 139.311,98.79C140.211,98.79 141.099,98.298 141.519,97.182L144.039,90.726C144.159,90.378 144.003,90.15 143.631,90.15L143.031,90.15C142.731,90.15 142.551,90.282 142.467,90.57L141.387,93.702C141.291,94.026 141.183,94.506 141.183,94.506L141.159,94.506C141.159,94.506 141.039,94.002 140.931,93.678L139.779,90.558C139.683,90.282 139.515,90.15 139.215,90.15L138.567,90.15C138.183,90.15 138.027,90.39 138.183,90.738L140.511,96.174L140.283,96.714C140.103,97.146 139.755,97.53 139.311,97.53C139.131,97.53 138.987,97.47 138.879,97.422C138.675,97.374 138.471,97.422 138.339,97.698Z" style="fill:rgb(13,13,13);fill-rule:nonzero;"/>
                </g>
                <g transform="matrix(2.24976,0,0,2.45101,-1845.29,-593.214)">
                    <g>
                        <path d="M1049.37,278.687C1052.27,279.587 1054.37,282.186 1054.37,285.387C1054.37,288.587 1052.27,291.186 1049.37,292.087L1049.37,294.187C1053.37,293.287 1056.37,289.687 1056.37,285.387C1056.37,281.087 1053.37,277.487 1049.37,276.587L1049.37,278.687ZM1042.37,282.387L1038.37,282.387L1038.37,288.387L1042.37,288.387L1047.37,293.387L1047.37,277.387L1042.37,282.387ZM1049.37,289.386C1050.87,288.687 1051.87,287.187 1051.87,285.387C1051.87,283.587 1050.87,282.087 1049.37,281.387L1049.37,289.386Z" style="fill:rgb(0,114,206);fill-rule:nonzero;"/>
                    </g>
                </g>
            </g>
            <g transform="matrix(2.12787,0,0,2.31822,99.5926,-29.0265)">
                <g>
                    <g>
                        <path d="M96.987,83.43L97.803,83.43L98.343,80.634C98.619,79.242 99.807,78.018 101.163,78.018C101.787,78.018 102.195,78.33 102.195,79.014C102.195,79.266 102.159,79.542 102.099,79.818L101.403,83.43L102.219,83.43L102.963,79.614C103.023,79.314 103.059,79.05 103.059,78.81C103.059,77.778 102.423,77.25 101.331,77.25C99.987,77.25 98.979,78.21 98.667,78.822L98.643,78.822C98.643,78.822 98.751,78.534 98.799,78.258L98.955,77.394L98.163,77.394L96.987,83.43Z" style="fill:rgb(13,13,13);fill-rule:nonzero;"/>
                        <path d="M104.223,80.934C104.223,82.482 105.339,83.574 106.983,83.574C108.843,83.574 110.691,81.942 110.691,79.854C110.691,78.33 109.563,77.25 107.931,77.25C106.047,77.25 104.223,78.87 104.223,80.934ZM105.063,80.91C105.063,79.278 106.479,77.994 107.919,77.994C109.059,77.994 109.851,78.774 109.851,79.89C109.851,81.546 108.399,82.842 106.995,82.842C105.843,82.842 105.063,82.038 105.063,80.91Z" style="fill:rgb(13,13,13);fill-rule:nonzero;"/>
                        <path d="M111.855,82.014C111.855,83.166 112.647,83.574 113.547,83.574C114.927,83.574 115.863,82.602 116.187,82.002L116.211,82.002C116.211,82.002 116.115,82.29 116.055,82.566L115.887,83.43L116.691,83.43L117.867,77.394L117.051,77.394L116.511,80.166C116.259,81.474 115.131,82.806 113.775,82.806C112.947,82.806 112.719,82.386 112.719,81.81C112.719,81.57 112.743,81.294 112.803,80.982L113.499,77.394L112.683,77.394L111.951,81.21C111.891,81.51 111.855,81.774 111.855,82.014Z" style="fill:rgb(13,13,13);fill-rule:nonzero;"/>
                        <path d="M118.659,83.43L119.475,83.43L120.015,80.634C120.291,79.242 121.479,78.018 122.835,78.018C123.459,78.018 123.867,78.33 123.867,79.014C123.867,79.266 123.831,79.542 123.771,79.818L123.075,83.43L123.891,83.43L124.635,79.614C124.695,79.314 124.731,79.05 124.731,78.81C124.731,77.778 124.095,77.25 123.003,77.25C121.659,77.25 120.651,78.21 120.339,78.822L120.315,78.822C120.315,78.822 120.423,78.534 120.471,78.258L120.627,77.394L119.835,77.394L118.659,83.43Z" style="fill:rgb(13,13,13);fill-rule:nonzero;"/>
                        <path d="M97.683,98.67L98.499,98.67L98.499,95.79C98.499,95.478 98.475,95.262 98.475,95.262L98.499,95.262C98.499,95.262 99.027,96.414 100.479,96.414C102.039,96.414 103.179,95.166 103.179,93.258C103.179,91.386 102.171,90.09 100.551,90.09C98.955,90.09 98.463,91.29 98.463,91.29L98.439,91.29C98.439,91.29 98.463,91.086 98.463,90.822L98.463,90.234L97.683,90.234L97.683,98.67ZM98.475,93.27C98.475,91.554 99.423,90.834 100.431,90.834C101.559,90.834 102.339,91.782 102.339,93.258C102.339,94.794 101.463,95.694 100.395,95.694C99.147,95.694 98.475,94.482 98.475,93.27Z" style="fill:rgb(13,13,13);fill-rule:nonzero;"/>
                        <path d="M104.751,96.27L105.567,96.27L105.567,93.726C105.567,93.342 105.615,92.934 105.735,92.55C105.999,91.662 106.635,90.99 107.487,90.99C107.643,90.99 107.787,91.014 107.787,91.014L107.787,90.21C107.787,90.21 107.631,90.174 107.463,90.174C106.515,90.174 105.843,90.87 105.555,91.782L105.531,91.782C105.531,91.782 105.555,91.566 105.555,91.302L105.555,90.234L104.751,90.234L104.751,96.27Z" style="fill:rgb(13,13,13);fill-rule:nonzero;"/>
                        <path d="M108.507,93.222C108.507,95.046 109.935,96.414 111.699,96.414C113.463,96.414 114.891,95.046 114.891,93.222C114.891,91.434 113.463,90.09 111.699,90.09C109.935,90.09 108.507,91.434 108.507,93.222ZM109.347,93.222C109.347,91.854 110.403,90.834 111.699,90.834C112.995,90.834 114.051,91.854 114.051,93.222C114.051,94.626 112.995,95.682 111.699,95.682C110.403,95.682 109.347,94.626 109.347,93.222Z" style="fill:rgb(13,13,13);fill-rule:nonzero;"/>
                        <path d="M117.903,96.27L118.791,96.27L121.095,90.234L120.243,90.234L118.575,94.662C118.455,94.974 118.359,95.382 118.359,95.382L118.335,95.382C118.335,95.382 118.239,94.962 118.131,94.662L116.451,90.234L115.587,90.234L117.903,96.27Z" style="fill:rgb(13,13,13);fill-rule:nonzero;"/>
                        <path d="M122.211,88.854L123.063,88.854L123.063,87.834L122.211,87.834L122.211,88.854ZM122.235,96.27L123.051,96.27L123.051,90.234L122.235,90.234L122.235,96.27Z" style="fill:rgb(13,13,13);fill-rule:nonzero;"/>
                        <path d="M124.623,93.246C124.623,95.118 125.631,96.414 127.251,96.414C128.835,96.414 129.327,95.202 129.327,95.202L129.351,95.202C129.351,95.202 129.327,95.37 129.327,95.634L129.327,96.27L130.119,96.27L130.119,87.834L129.303,87.834L129.303,90.774C129.303,91.026 129.327,91.23 129.327,91.23L129.303,91.23C129.303,91.23 128.799,90.09 127.335,90.09C125.751,90.09 124.623,91.338 124.623,93.246ZM125.463,93.246C125.463,91.722 126.339,90.822 127.407,90.822C128.703,90.822 129.327,92.022 129.327,93.246C129.327,94.962 128.379,95.682 127.371,95.682C126.243,95.682 125.463,94.734 125.463,93.246Z" style="fill:rgb(13,13,13);fill-rule:nonzero;"/>
                        <path d="M132.063,88.854L132.915,88.854L132.915,87.834L132.063,87.834L132.063,88.854ZM132.087,96.27L132.903,96.27L132.903,90.234L132.087,90.234L132.087,96.27Z" style="fill:rgb(13,13,13);fill-rule:nonzero;"/>
                        <path d="M134.871,96.27L135.687,96.27L135.687,93.378C135.687,93.09 135.711,92.814 135.783,92.562C136.059,91.566 136.947,90.858 137.979,90.858C139.143,90.858 139.287,91.698 139.287,92.646L139.287,96.27L140.103,96.27L140.103,92.43C140.103,90.942 139.575,90.09 138.087,90.09C136.659,90.09 135.891,91.062 135.675,91.614L135.651,91.614C135.651,91.614 135.675,91.398 135.675,91.134L135.675,90.234L134.871,90.234L134.871,96.27Z" style="fill:rgb(13,13,13);fill-rule:nonzero;"/>
                        <path d="M142.443,97.638L142.131,98.31C142.719,98.61 143.415,98.79 144.111,98.79C145.587,98.79 147.003,98.046 147.003,96.126L147.003,90.234L146.211,90.234L146.211,90.894C146.211,91.026 146.223,91.098 146.223,91.098L146.199,91.098C146.199,91.098 145.803,90.09 144.207,90.09C142.587,90.09 141.591,91.326 141.591,93.138C141.591,94.95 142.659,96.234 144.279,96.234C145.215,96.234 145.827,95.85 146.187,95.178L146.211,95.178C146.211,95.178 146.187,95.382 146.187,95.61L146.187,96.162C146.187,97.506 145.251,98.058 144.075,98.058C143.187,98.058 142.443,97.638 142.443,97.638ZM144.411,95.502C143.211,95.502 142.431,94.566 142.431,93.126C142.431,91.686 143.115,90.834 144.291,90.834C145.359,90.834 146.199,91.374 146.199,93.138C146.199,94.914 145.359,95.502 144.411,95.502Z" style="fill:rgb(13,13,13);fill-rule:nonzero;"/>
                        <path d="M152.175,88.854L153.027,88.854L153.027,87.834L152.175,87.834L152.175,88.854ZM152.199,96.27L153.015,96.27L153.015,90.234L152.199,90.234L152.199,96.27Z" style="fill:rgb(13,13,13);fill-rule:nonzero;"/>
                        <path d="M154.923,94.842C154.923,96.162 155.811,96.318 156.315,96.318C156.471,96.318 156.615,96.294 156.615,96.294L156.615,95.562C156.615,95.562 156.519,95.574 156.411,95.574C156.099,95.574 155.739,95.454 155.739,94.662L155.739,87.834L154.923,87.834L154.923,94.842Z" style="fill:rgb(13,13,13);fill-rule:nonzero;"/>
                        <path d="M157.887,94.842C157.887,96.162 158.775,96.318 159.279,96.318C159.435,96.318 159.579,96.294 159.579,96.294L159.579,95.562C159.579,95.562 159.483,95.574 159.375,95.574C159.063,95.574 158.703,95.454 158.703,94.662L158.703,87.834L157.887,87.834L157.887,94.842Z" style="fill:rgb(13,13,13);fill-rule:nonzero;"/>
                        <path d="M160.827,94.074C160.827,95.646 161.427,96.414 162.843,96.414C164.175,96.414 164.967,95.478 165.207,94.89L165.231,94.89C165.231,94.89 165.207,95.106 165.207,95.37L165.207,96.27L165.999,96.27L165.999,90.234L165.183,90.234L165.183,93.126C165.183,94.434 164.331,95.646 162.951,95.646C161.787,95.646 161.643,94.806 161.643,93.858L161.643,90.234L160.827,90.234L160.827,94.074Z" style="fill:rgb(13,13,13);fill-rule:nonzero;"/>
                        <path d="M167.475,95.538C167.475,95.538 168.243,96.414 169.707,96.414C170.919,96.414 171.771,95.706 171.771,94.722C171.771,92.73 168.519,93.09 168.519,91.758C168.519,91.086 169.107,90.822 169.719,90.822C170.715,90.822 171.231,91.374 171.231,91.374L171.603,90.75C171.603,90.75 171.015,90.09 169.743,90.09C168.651,90.09 167.679,90.678 167.679,91.758C167.679,93.726 170.931,93.402 170.931,94.722C170.931,95.358 170.367,95.682 169.719,95.682C168.591,95.682 167.919,94.95 167.919,94.95L167.475,95.538Z" style="fill:rgb(13,13,13);fill-rule:nonzero;"/>
                        <path d="M173.511,94.074C173.511,96.09 174.915,96.318 175.611,96.318C175.827,96.318 175.959,96.294 175.959,96.294L175.959,95.562C175.959,95.562 175.851,95.586 175.683,95.586C175.227,95.586 174.327,95.406 174.327,93.99L174.327,90.99L175.839,90.99L175.839,90.306L174.327,90.306L174.327,88.566L173.523,88.566L173.523,90.306L172.719,90.306L172.719,90.99L173.511,90.99L173.511,94.074Z" style="fill:rgb(13,13,13);fill-rule:nonzero;"/>
                        <path d="M177.303,96.27L178.119,96.27L178.119,93.726C178.119,93.342 178.167,92.934 178.287,92.55C178.551,91.662 179.187,90.99 180.039,90.99C180.195,90.99 180.339,91.014 180.339,91.014L180.339,90.21C180.339,90.21 180.183,90.174 180.015,90.174C179.067,90.174 178.395,90.87 178.107,91.782L178.083,91.782C178.083,91.782 178.107,91.566 178.107,91.302L178.107,90.234L177.303,90.234L177.303,96.27Z" style="fill:rgb(13,13,13);fill-rule:nonzero;"/>
                        <path d="M181.083,94.626C181.083,95.826 182.127,96.414 183.135,96.414C184.647,96.414 185.151,95.106 185.151,95.106L185.175,95.106C185.175,95.106 185.151,95.31 185.151,95.61L185.151,96.27L185.931,96.27L185.931,92.406C185.931,90.894 185.127,90.09 183.675,90.09C182.319,90.09 181.527,90.774 181.527,90.774L181.911,91.398C181.911,91.398 182.619,90.822 183.615,90.822C184.479,90.822 185.115,91.218 185.115,92.382L185.115,92.538L184.779,92.538C183.735,92.538 181.083,92.586 181.083,94.626ZM181.923,94.578C181.923,93.246 183.819,93.21 184.767,93.21L185.115,93.21L185.115,93.474C185.115,94.518 184.419,95.718 183.267,95.718C182.367,95.718 181.923,95.142 181.923,94.578Z" style="fill:rgb(13,13,13);fill-rule:nonzero;"/>
                        <path d="M188.007,94.074C188.007,96.09 189.411,96.318 190.107,96.318C190.323,96.318 190.455,96.294 190.455,96.294L190.455,95.562C190.455,95.562 190.347,95.586 190.179,95.586C189.723,95.586 188.823,95.406 188.823,93.99L188.823,90.99L190.335,90.99L190.335,90.306L188.823,90.306L188.823,88.566L188.019,88.566L188.019,90.306L187.215,90.306L187.215,90.99L188.007,90.99L188.007,94.074Z" style="fill:rgb(13,13,13);fill-rule:nonzero;"/>
                        <path d="M191.775,88.854L192.627,88.854L192.627,87.834L191.775,87.834L191.775,88.854ZM191.799,96.27L192.615,96.27L192.615,90.234L191.799,90.234L191.799,96.27Z" style="fill:rgb(13,13,13);fill-rule:nonzero;"/>
                        <path d="M194.139,93.222C194.139,95.046 195.567,96.414 197.331,96.414C199.095,96.414 200.523,95.046 200.523,93.222C200.523,91.434 199.095,90.09 197.331,90.09C195.567,90.09 194.139,91.434 194.139,93.222ZM194.979,93.222C194.979,91.854 196.035,90.834 197.331,90.834C198.627,90.834 199.683,91.854 199.683,93.222C199.683,94.626 198.627,95.682 197.331,95.682C196.035,95.682 194.979,94.626 194.979,93.222Z" style="fill:rgb(13,13,13);fill-rule:nonzero;"/>
                        <path d="M202.047,96.27L202.863,96.27L202.863,93.378C202.863,93.09 202.887,92.814 202.959,92.562C203.235,91.566 204.123,90.858 205.155,90.858C206.319,90.858 206.463,91.698 206.463,92.646L206.463,96.27L207.279,96.27L207.279,92.43C207.279,90.942 206.751,90.09 205.263,90.09C203.835,90.09 203.067,91.062 202.851,91.614L202.827,91.614C202.827,91.614 202.851,91.398 202.851,91.134L202.851,90.234L202.047,90.234L202.047,96.27Z" style="fill:rgb(13,13,13);fill-rule:nonzero;"/>
                    </g>
                </g>
            </g>
            <g transform="matrix(0.649502,0,0,0.707601,278.817,-23.2631)">
                <path d="M43.89,31.728L466.833,31.728" style="fill:none;stroke:rgb(238,238,238);stroke-width:4px;"/>
            </g>
        </g>
    </g>
</svg>
