<?xml version="1.0" encoding="UTF-8" standalone="no"?>
<!DOCTYPE svg PUBLIC "-//W3C//DTD SVG 1.1//EN" "http://www.w3.org/Graphics/SVG/1.1/DTD/svg11.dtd">
<svg width="100%" height="100%" viewBox="0 0 496 107" version="1.1" xmlns="http://www.w3.org/2000/svg" xmlns:xlink="http://www.w3.org/1999/xlink" xml:space="preserve" style="fill-rule:evenodd;clip-rule:evenodd;stroke-linejoin:round;stroke-miterlimit:1.41421;">
    <g id="Artboard1" transform="matrix(0.917229,0,0,0.255986,117.465,25.5381)">
        <rect x="-128.065" y="-99.764" width="540.759" height="417.992" style="fill:none;"/>
        <g transform="matrix(0.996501,0,0,1.00909,0.642145,4.81336)">
            <g transform="matrix(1.16283,0,0,3.92389,-149.895,-182.838)">
                <rect x="19.146" y="21.343" width="15.474" height="102.606" style="fill:white;"/>
            </g>
            <g transform="matrix(1.16283,0,0,3.92389,-45.1477,-182.838)">
                <rect x="19.146" y="21.343" width="15.474" height="102.606" style="fill:white;"/>
            </g>
            <g transform="matrix(1.16283,0,0,2.65408,42.4144,-155.737)">
                <rect x="19.146" y="21.343" width="15.474" height="102.606" style="fill:white;"/>
            </g>
            <g transform="matrix(1.16283,0,0,3.91941,96.1308,-182.742)">
                <rect x="19.146" y="21.343" width="15.474" height="102.606" style="fill:white;"/>
            </g>
            <g transform="matrix(1.16283,0,0,3.91941,137.929,-182.742)">
                <rect x="19.146" y="21.343" width="15.474" height="102.606" style="fill:white;"/>
            </g>
            <g transform="matrix(1.16283,0,0,3.91941,190.939,-182.742)">
                <rect x="19.146" y="21.343" width="15.474" height="102.606" style="fill:white;"/>
            </g>
            <g transform="matrix(1.16283,0,0,3.91941,233.412,-182.742)">
                <rect x="19.146" y="21.343" width="15.474" height="102.606" style="fill:white;"/>
            </g>
            <g transform="matrix(1.16283,0,0,3.91941,318.247,-182.742)">
                <rect x="19.146" y="21.343" width="15.474" height="102.606" style="fill:white;"/>
            </g>
            <g transform="matrix(1.16283,0,0,3.91941,371.389,-182.742)">
                <rect x="19.146" y="21.343" width="15.474" height="102.606" style="fill:white;"/>
            </g>
            <g transform="matrix(1.16283,0,0,3.92389,-0.381169,-182.838)">
                <rect x="19.146" y="21.343" width="15.474" height="102.606" style="fill:white;"/>
            </g>
            <g transform="matrix(1.16283,0,0,1.72435,-115.01,89.7915)">
                <rect x="19.146" y="21.343" width="15.474" height="102.606" style="fill:white;"/>
            </g>
            <g transform="matrix(1.16283,0,0,2.64426,-89.1038,-155.527)">
                <rect x="19.146" y="21.343" width="15.474" height="102.606" style="fill:white;"/>
            </g>
            <g transform="matrix(7.12025e-17,4.11352,-0.767842,1.66323e-16,-32.4597,-177.848)">
                <rect x="19.146" y="21.343" width="15.474" height="102.606" style="fill:white;"/>
            </g>
            <g transform="matrix(5.42994e-17,4.11352,-0.585561,1.66323e-16,49.6947,-177.848)">
                <rect x="19.146" y="21.343" width="15.474" height="102.606" style="fill:white;"/>
            </g>
            <g transform="matrix(7.12025e-17,4.11352,-0.767842,1.66323e-16,-32.4597,29.8162)">
                <rect x="19.146" y="21.343" width="15.474" height="102.606" style="fill:white;"/>
            </g>
            <g transform="matrix(5.42994e-17,4.11352,-0.585561,1.66323e-16,49.6947,29.8162)">
                <rect x="19.146" y="21.343" width="15.474" height="102.606" style="fill:white;"/>
            </g>
            <g transform="matrix(5.42994e-17,4.11352,-0.585561,1.66323e-16,137.257,30.824)">
                <rect x="19.146" y="21.343" width="15.474" height="102.606" style="fill:white;"/>
            </g>
            <g transform="matrix(5.42994e-17,4.11352,-0.585561,1.66323e-16,329.45,-177.848)">
                <rect x="19.146" y="21.343" width="15.474" height="102.606" style="fill:white;"/>
            </g>
            <g transform="matrix(5.42994e-17,4.11352,-0.585561,1.66323e-16,239.222,160.654)">
                <rect x="19.146" y="21.343" width="15.474" height="102.606" style="fill:white;"/>
            </g>
            <g transform="matrix(5.42994e-17,4.11352,-0.585561,1.66323e-16,419.614,-177.848)">
                <rect x="19.146" y="21.343" width="15.474" height="102.606" style="fill:white;"/>
            </g>
            <g transform="matrix(5.42994e-17,4.11352,-0.585561,1.66323e-16,329.45,32.0376)">
                <rect x="19.146" y="21.343" width="15.474" height="102.606" style="fill:white;"/>
            </g>
            <g transform="matrix(5.42994e-17,4.11352,-0.585561,1.66323e-16,329.45,160.654)">
                <rect x="19.146" y="21.343" width="15.474" height="102.606" style="fill:white;"/>
            </g>
            <g transform="matrix(5.42994e-17,4.11352,-0.585561,1.66323e-16,137.257,160.654)">
                <rect x="19.146" y="21.343" width="15.474" height="102.606" style="fill:white;"/>
            </g>
        </g>
    </g>
</svg>
