<?xml version="1.0" encoding="UTF-8" standalone="no"?>
<!DOCTYPE svg PUBLIC "-//W3C//DTD SVG 1.1//EN" "http://www.w3.org/Graphics/SVG/1.1/DTD/svg11.dtd">
<svg width="100%" height="100%" viewBox="0 0 496 107" version="1.1" xmlns="http://www.w3.org/2000/svg" xmlns:xlink="http://www.w3.org/1999/xlink" xml:space="preserve" style="fill-rule:evenodd;clip-rule:evenodd;stroke-linejoin:round;stroke-miterlimit:1.41421;">
    <g id="Artboard1" transform="matrix(0.917229,0,0,0.255986,117.465,25.5381)">
        <rect x="-128.065" y="-99.764" width="540.759" height="417.992" style="fill:none;"/>
        <g transform="matrix(1.09024,0,0,3.90646,-128.065,-99.7635)">
            <path d="M1.395,17.615L1.395,1.174L73.406,1.174L73.406,71.258L56.96,71.258L49.727,71.258L49.727,105.174L33.281,105.174L33.281,71.258L17.842,71.258L17.842,105.174L1.395,105.174L1.395,71.258L1.395,54.816L1.395,17.615ZM152.053,1.174L154.501,1.174L154.501,105.174L138.055,105.174L138.055,71.258L113.583,71.258L113.583,105.174L97.137,105.174L97.137,1.174L152.053,1.174ZM177.171,1.174L193.617,1.174L193.617,55.076L226.268,55.076L226.268,1.174L242.715,1.174L242.715,105.055L226.268,105.055L177.171,105.055L177.171,88.613L226.268,88.613L226.268,71.518L193.617,71.518L177.171,71.518L177.171,1.174ZM264.473,1.174L280.919,1.174L280.919,88.613L312.925,88.613L312.925,1.174L329.371,1.174L329.371,105.055L312.925,105.055L280.919,105.055L264.473,105.055L264.473,1.174ZM351.746,1.174L407.755,1.174L407.755,17.615L368.192,17.615L368.192,55.39L407.755,55.39L407.755,71.832L368.192,71.832L368.192,88.613L407.755,88.613L407.755,105.055L368.192,105.055L351.746,105.055L351.746,1.174ZM429.287,1.174L494.306,1.174L494.306,105.055L477.86,105.055L477.86,17.615L445.733,17.615L445.733,105.055L429.287,105.055L429.287,1.174ZM17.842,17.615L17.842,54.816L56.96,54.816L56.96,17.615L17.842,17.615ZM113.583,17.615L113.583,54.816L138.055,54.816L138.055,17.615L113.583,17.615Z"/>
        </g>
    </g>
</svg>
