<?xml version="1.0" encoding="utf-8"?>
<!-- Generator: Adobe Illustrator 16.0.0, SVG Export Plug-In . SVG Version: 6.00 Build 0)  -->
<!DOCTYPE svg PUBLIC "-//W3C//DTD SVG 1.1//EN" "http://www.w3.org/Graphics/SVG/1.1/DTD/svg11.dtd">
<svg version="1.1" id="Layer_1" xmlns="http://www.w3.org/2000/svg" xmlns:xlink="http://www.w3.org/1999/xlink" x="0px" y="0px"
	 width="38.983px" height="38.983px" viewBox="0 0 38.983 38.983" enable-background="new 0 0 38.983 38.983" xml:space="preserve">
<g>
	<polygon fill="#EF465C" points="38.983,19.492 37.451,27.079 33.273,33.274 27.078,37.452 19.491,38.983 11.904,37.452 
		5.709,33.274 1.532,27.079 0,19.492 1.532,11.905 5.709,5.709 11.904,1.532 19.491,0 27.078,1.532 33.273,5.709 37.451,11.905 
		38.983,19.492 	"/>
	<g>
		<path fill="#FFFFFF" d="M9.224,14.57h2.525v-2.525h5.049v2.525h-5.049v10.099H9.224V14.57z"/>
		<path fill="#FFFFFF" d="M21.848,12.045v10.1h5.05v-10.1h2.524v15.148h-2.524v2.525h-5.05v-2.525h5.05v-2.524h-5.05v-2.524h-2.525
			v-10.1H21.848z"/>
	</g>
</g>
</svg>
