<?xml version="1.0" encoding="utf-8"?>
<!-- Generator: Adobe Illustrator 16.0.0, SVG Export Plug-In . SVG Version: 6.00 Build 0)  -->
<!DOCTYPE svg PUBLIC "-//W3C//DTD SVG 1.1//EN" "http://www.w3.org/Graphics/SVG/1.1/DTD/svg11.dtd">
<svg version="1.1" id="Layer_1" xmlns="http://www.w3.org/2000/svg" xmlns:xlink="http://www.w3.org/1999/xlink" x="0px" y="0px"
	 width="200px" height="200px" viewBox="0 0 200 200" enable-background="new 0 0 200 200" xml:space="preserve">
<polygon points="191.5,100 184.31,135.616 164.7,164.701 135.616,184.31 100,191.5 64.384,184.31 35.3,164.701 15.691,135.616 
	8.5,100 15.691,64.384 35.3,35.3 64.384,15.69 100,8.5 135.616,15.69 164.7,35.3 184.31,64.384 "/>
<g enable-background="new    ">
	<path fill="#FFFFFF" d="M51.802,76.898h11.854V65.045H87.36v11.854H63.655v47.409H51.802V76.898z"/>
	<path fill="#FFFFFF" d="M111.064,65.045v47.41h23.704v-47.41h11.854v71.115H134.77v11.853h-23.704V136.16h23.704v-11.854h-23.704
		v-11.853H99.212v-47.41L111.064,65.045L111.064,65.045z"/>
</g>
</svg>
